<?xml version="1.0" encoding="utf-8"?>
<!-- Generator: Adobe Illustrator 24.1.2, SVG Export Plug-In . SVG Version: 6.00 Build 0)  -->
<svg version="1.1" id="Layer_1" xmlns="http://www.w3.org/2000/svg" xmlns:xlink="http://www.w3.org/1999/xlink" x="0px" y="0px"
	 viewBox="0 0 249.2 93" style="enable-background:new 0 0 249.2 93;" xml:space="preserve">
<style type="text/css">
	.st0{fill:#4E2100;}
</style>
<g transform="translate(0.000000,1638.000000) scale(0.100000,-0.100000)">
	<path class="st0" d="M1248,16370.2c-0.5-0.4-1.5-0.9-2.5-1c-0.9-0.3-3-0.9-4.8-1.6c-5.6-2.4-20.8-7.9-24.1-8.6
		c-1.8-0.5-4.8-1.5-7-2.5c-5.8-2.5-9.5-3.9-16.5-6.3c-3.4-1.1-8.2-2.9-10.4-3.9c-3.9-1.8-13.3-5.2-15.3-5.7
		c-0.5-0.1-2.3-0.8-4.1-1.4c-18.5-6.7-24.1-8.7-26.6-9.2c-0.4-0.1-2.9-1.1-5.7-2.4s-8.5-3.4-12.7-4.8c-4.2-1.3-9.4-3.3-11.7-4.3
		c-2.2-1-4.8-1.8-5.8-1.8c-1.1,0-2.3-0.5-2.8-1.1c-0.4-0.6-3.9-2.2-8-3.3c-3.9-1.1-8.9-2.8-11-3.8c-2-0.9-4.8-2-6-2.4
		c-2-0.6-2.3-2.7-2.3-19.9c0-17.7,0.1-19.1,2.3-18.2c1.1,0.5,6.2,2.4,11,4.1c4.9,1.8,9.5,3.7,10.1,4.2c0.8,0.5,3.3,1.4,5.7,1.9
		c2.4,0.5,5.3,1.4,6.6,2c1.3,0.6,3.3,1.6,4.6,2.3c1.3,0.6,4.2,1.5,6.6,2c2.4,0.5,5.1,1.4,6,2.2c0.8,0.6,5.1,2.2,9.5,3.4
		c4.4,1.3,9.2,2.9,10.6,3.7c3.2,1.6,19.9,7.9,21.3,7.9c0.5,0,2.8,0.8,4.9,1.8c2.3,1,8.4,3.3,13.6,5.2c5.2,1.8,10.9,3.9,12.7,4.7
		c1.8,0.8,7.5,2.7,12.7,4.3s10.5,3.5,11.7,4.3c1.1,0.6,4.4,1.6,7.3,2l5.1,0.9v-21.8c0-18,0.3-21.7,1.8-21.7c1,0,2.2,0.5,2.5,1.1
		c0.4,0.6,2.9,1.5,5.4,2c2.7,0.5,5.4,1.4,6.3,2c0.9,0.9,1.6,0.8,2.2,0c0.4-0.6,3-1.5,5.8-2s5.3-1.4,5.8-2c0.4-0.6,1.5-1.1,2.5-1.1
		c1.5,0,1.8,3.7,1.8,21.7v21.8l5.1-0.9c2.9-0.4,6.2-1.4,7.3-2c1.1-0.8,6.5-2.7,11.7-4.3c5.2-1.8,14.3-4.9,20.3-7.1
		c6-2.3,11.9-4.4,13.3-4.7c1.4-0.4,3.2-1.1,3.8-1.6c0.8-0.5,4.7-2,8.9-3.3s9-3,10.8-3.9s4.2-1.6,5.3-1.6s2.5-0.5,2.9-1.3
		c0.4-0.6,3.2-1.8,6.1-2.5s7.6-2.4,10.4-3.7c2.8-1.3,7.1-2.8,9.5-3.3c2.4-0.5,5.1-1.4,5.7-1.9c0.8-0.5,4.4-1.9,8.2-3s8-2.8,9.4-3.4
		c2.2-1.3,12.4-4.6,15.3-5.1c0.8-0.1,2.4-1,3.8-1.9c1.4-1,2.9-1.8,3.4-1.8c0.6,0,0.9,8.6,0.8,19.3l-0.4,19.3l-4.4,1.1
		c-2.4,0.6-4.9,1.5-5.7,2.2c-0.6,0.5-4.6,2-8.5,3.2c-4.1,1.1-7.6,2.7-8,3.3c-0.5,0.6-1.6,1.1-2.8,1.1c-1,0-3.7,0.8-5.8,1.8
		c-2.3,1-7.5,3-11.7,4.3c-4.2,1.4-9.9,3.5-12.7,4.8c-2.8,1.3-5.3,2.3-5.7,2.4c-3.2,0.6-23.1,7.7-27.9,9.8c-1.8,0.8-4.1,1.6-5.1,1.8
		c-1.8,0.4-10.4,3.8-13.9,5.6c-1.1,0.5-3.9,1.4-6.3,1.9c-2.4,0.5-5.2,1.4-6.3,1.9c-1,0.5-3.5,1.6-5.7,2.5c-2,0.9-5.4,2.3-7.6,3.2
		c-2,1-6.6,2.5-10.1,3.7c-9,2.7-20.9,7-25.6,9.1C1250.7,16371.1,1249.2,16371.4,1248,16370.2z"/>
	<path class="st0" d="M1200.8,16296.9c-5.6-2.4-11-4.3-12.2-4.4c-1,0-4.7-1.4-8.2-3c-3.4-1.5-9.6-3.9-13.8-5.2s-8.1-2.7-8.9-3.2
		c-0.6-0.5-3.5-1.6-6.3-2.5c-2.8-0.9-5.6-2-6.3-2.5c-0.6-0.5-3.3-1.4-5.7-1.9c-2.4-0.5-6.7-1.9-9.5-3.2s-7.9-3.3-11.4-4.4
		c-7.2-2.5-14.3-5.3-17.1-6.8c-1.1-0.6-3.9-1.5-6.3-2c-2.4-0.5-6.7-2-9.5-3.2c-2.8-1.3-6.5-2.8-8.2-3.2c-1.8-0.5-3.9-1.5-4.7-2.2
		c-1.3-1-1.6-32.3-1.6-148.6v-147.3l89.3-44.5c49-24.4,89.5-44.5,89.9-44.5c0.4,0,40.8,20,89.9,44.5l89.3,44.5l-0.3,147.6
		l-0.4,147.7l-3.8,2.2c-2,1.3-4.2,2-4.6,1.8c-0.5-0.3-2.5,0.4-4.4,1.4c-2,1-4.3,1.9-5.1,1.9c-1.1,0-12,4.1-20.1,7.5
		c-1.4,0.6-5.3,2-8.9,3.3c-3.4,1.1-7.5,2.7-8.9,3.3c-1.4,0.5-5.3,2-8.9,3c-3.4,1.1-8.1,2.9-10.4,3.9c-2.2,1-4.3,1.8-4.8,1.8
		s-2.7,0.8-4.8,1.8c-2.3,1-8.6,3.4-14.2,5.2c-5.6,1.9-11.4,4.2-12.9,5.2c-1.5,1-3.7,1.8-4.8,1.8c-1,0-6.8,2-12.9,4.4
		c-6.1,2.4-11.5,4.4-12,4.4c-0.6,0-0.9-6.3-0.8-14.1l0.4-14.1l4.8-1.6c2.5-0.9,4.7-1.3,4.7-1c0,0.4,0.8,0,1.8-0.8
		c1-0.9,3.4-2,5.4-2.5c9.2-2.9,32.8-11.8,33.8-12.8c0.8-0.8,2.3-1.3,3.7-1.3c1.3,0,6.7-1.6,12-3.7c5.3-2,14.1-5.3,19.3-7.1
		c5.2-1.9,10.6-3.9,12-4.6c1.4-0.5,6.2-2.2,10.6-3.7c14.3-4.4,12.8,11.7,12.8-135.6v-128.9l-77.4-38.8
		c-42.6-21.3-78.7-38.6-80.3-38.6c-3,0-155.2,75.5-156.7,77.8c-0.5,0.8-1,59.5-1,130.7v129.2l11.1,3.7c6.1,2,11.9,4.1,12.9,4.6
		c3.5,1.6,19.6,7.3,23.2,8.2c1.9,0.4,5.6,1.9,8.1,3.2s6.7,2.8,9.1,3.2c2.5,0.5,5.2,1.3,6,1.9c0.6,0.5,6.3,2.8,12.7,4.9
		c10.9,3.8,17.9,6.5,24.6,9.2c1.8,0.8,3.8,1.4,4.4,1.6c0.8,0.1,2.8,0.9,4.8,1.6l3.4,1.4v13.9c0,7.6-0.4,13.9-0.9,13.8
		C1211.3,16301.2,1206.3,16299.2,1200.8,16296.9z"/>
	<path class="st0" d="M1240.4,16263.1l-7.3-2.7v-170.1v-170.2l8.6-4.2l8.5-4.2l8.6,4.2l8.5,4.2v170.3v170.4l-3.4,0.8
		c-2,0.5-4.2,1.3-4.8,1.9C1255.9,16265.9,1247.5,16265.7,1240.4,16263.1z"/>
	<path class="st0" d="M1286.3,16091.7c0-88.8,0.3-161.5,0.6-161.5s23.2,11.3,50.7,25l50,25.1v68.6c0,37.9-0.3,68.8-0.6,68.8
		c-0.4,0-11.5-5.4-24.7-12l-24.1-12v-20.9c0-11.5,0.3-20.9,0.5-20.9s2.2,0.9,4.1,1.9c7,3.7,6.8,4.2,6.8-26.2l-0.1-28.2l-6.6-2.9
		c-3.7-1.6-9.5-4.3-13-6c-3.7-1.6-7-2.7-7.3-2.3c-1.1,1.3-0.9,211.6,0.3,212.4c1.1,0.6,22-6.5,25.3-8.5c1.1-0.8,1.5-7.9,1.5-28.1
		c0-16.6,0.5-27.4,1.3-27.9c0.6-0.4,9.1,3.2,18.6,8l17.5,8.6l0.4,31.8l0.3,31.7l-3.4,1.4c-2,0.6-7.2,2.5-11.8,4.2
		c-4.6,1.5-8.7,3.3-9.4,3.9c-0.8,0.5-2,1-3,1c-0.9,0-6.3,1.8-12,3.9c-5.7,2.2-14.3,5.3-19.3,7.1c-4.8,1.8-10,3.7-11.4,4.3
		c-1.4,0.5-6,2.2-10.1,3.4c-4.2,1.4-10.6,3.7-14.2,5.2l-6.7,2.7V16091.7z"/>
	<path class="st0" d="M1204.1,16249.3c-3.2-1.4-8.2-3.2-11.4-3.9c-3.2-0.8-7.2-2-9-2.9c-5.2-2.5-20.1-8.2-21.9-8.2
		c-0.8,0-3-0.8-4.8-1.8c-1.9-0.9-6.5-2.8-10.1-3.9c-3.8-1.3-7.3-2.7-8.1-3c-0.6-0.5-4.7-1.9-8.9-3.3c-4.2-1.3-8.1-2.8-8.9-3.2
		c-0.6-0.5-2.8-1.3-4.7-1.8l-3.5-0.8v-118.2v-118l17.1-8.6c9.4-4.7,17.4-8.5,17.7-8.5s0.6,21,0.6,46.7c0,25.8,0.5,47.1,1,47.5
		c1.1,0.8,22.4-9.9,26-12.9c2-1.8,2.2-5.4,2-48.9l-0.1-47l17.5-9.1c9.8-4.9,17.9-8.9,18.2-8.6c0.4,0.3,0.5,72.6,0.3,160.7
		c-0.3,126.8-0.6,160.3-1.9,160.3C1210.4,16251.9,1207.1,16250.8,1204.1,16249.3z M1177.3,16143.5c0-63.3,0.9-58.8-10-53.3
		c-3.2,1.6-8.6,4.3-12.2,6.1l-6.3,3l-0.4,44.1c-0.3,28.8,0.1,44.8,1,46.5c0.8,1.3,3.3,2.8,5.7,3.3c2.4,0.4,4.8,1.3,5.2,1.9
		s1.3,0.9,1.9,0.4c0.6-0.4,3.2,0.5,5.6,2c2.4,1.5,4.4,2.3,4.4,1.8s0.6-0.4,1.5,0.5c0.8,0.8,1.9,1.1,2.5,0.8
		C1176.8,16200.1,1177.3,16174.6,1177.3,16143.5z"/>
	<path class="st0" d="M796.7,15857.5c-2.5-3.8-6.2-12.5-6-13.9c0.3-0.5-0.4-1.9-1.3-2.9c-1.3-1.6-1-2.4,1.9-4.9c2-1.6,4.6-3,5.7-3
		s3.9-1.1,6-2.5c4.9-3.3,5.1-3.3,7.3,1.6c1,2.2,3.2,6.7,4.7,10c1.5,3.4,2.5,6.8,2.2,7.9c-0.4,1-4.8,3.8-9.8,6.2l-9,4.4
		L796.7,15857.5z"/>
	<path class="st0" d="M2083.8,15853.2c-3.2-3.3-11-7.9-21.4-12.3c-3.7-1.5-4.8-2.8-4.8-5.1c0-1.6-0.5-3.3-1-3.7
		c-1.3-0.8-1-5.7,0.4-8.9c1.5-3.4-0.4-5.6-8.9-10.1c-26-13.9-32.2-20.6-35.3-38.1c-0.5-2.8-1.4-5.6-2-6.3c-0.5-0.6-1.3-4.4-1.5-8.5
		c-0.5-6.6-0.4-7.1,2-6.7c1.5,0.1,3.5,0.6,4.6,1c2.7,1,16.5,3.4,19.5,3.4c2.7-0.1,2.7-0.1,0.1-2c-1.4-1-3.4-2.5-4.4-3.4
		c-1.9-1.5-6.7-3.5-14.8-6.5c-2.3-0.8-4.2-1.8-4.2-2.3c0-0.6-0.8-1-1.6-1c-3,0-14.2-11.1-17.4-17.2c-3.5-7.2-3.4-6.8-4.8-14.8
		c-1.3-7-2.7-8.5-9.8-11.3c-2.8-1.1-7.6-3-10.8-4.2c-3.2-1.3-8-3.2-10.8-4.4c-2.8-1.1-9-3.4-13.9-4.9c-4.8-1.5-9.8-3.3-10.8-3.8
		c-1-0.5-7.3-2-13.9-3.2c-6.6-1.3-14.1-2.8-16.5-3.4c-2.4-0.6-5.6-1.1-7-1.1s-8.7-0.6-16.5-1.4c-16.5-1.5-71.3-0.9-72.6,0.9
		c-0.5,0.6-2.3,1.3-4.1,1.3c-6.3,0.3-23.2,5.8-33.3,11c-11.1,5.7-13.7,8.9-15.5,19c-0.5,2.7-2.7,6.8-4.7,9.2
		c-3.2,3.7-4.7,4.3-9.1,4.3c-6.8,0-8.7-2-12.2-12.5c-4.6-14.4-2.9-25.2,4.4-28.8c2.4-1.1,7-2,10.1-2c3.2-0.1,6.1-0.5,6.3-1
		c0.8-1.3-5.2-12.5-9.4-17.7c-1.9-2.4-4.2-5.7-5.1-7.2c-0.8-1.6-2-2.9-2.8-2.9s-3.7-2-6.6-4.4c-4.9-4.3-15.7-10-25-13.3
		c-6.5-2.3-12.7-5.4-12.7-6.6c0-1.9,7.3-2.9,21.7-2.9c8.5,0,16,0.6,17.7,1.4c1.6,0.9,4.9,2.2,7.1,3c5.8,2.2,9.6,6,13.4,13.3
		c3.2,6,7.2,21.5,7.2,27.7c0,1.6,1,3.9,2.4,5.1c2.3,2,2.7,1.9,7.9-1.5c4.7-3,16.5-8.5,27.1-12.4c4.4-1.6,4.9-1.8,14.6-3.9
		c5.2-1.3,10.1-2.7,10.8-3.2c0.8-0.4,9.4-1.5,19.3-2.4c14.2-1.3,22.2-1.3,38,0c10.9,0.9,20.5,2,21.3,2.5c0.6,0.6,4.9,1.5,9.5,1.9
		c4.6,0.5,8.7,1.4,9.5,1.9c0.6,0.6,2.2,1.1,3.2,1.3c4.7,0.4,7.6,1,8.4,1.8c0.5,0.5,2,0.9,3.3,0.9c2.4,0,26.1,7.7,33.7,11
		c2.5,1.1,11.5,5.3,19.9,9.4c16.3,7.9,26.2,11.7,34.1,13.4c5.4,1.1,5.2,0.4,6.1,18.7l0.4,6.3l-4.4-0.3c-2.4-0.1-7.5-0.4-11.1-0.6
		c-13.9-1-11.9,2.4,7.1,12c35.7,18.1,32.7,15.5,40.7,33.8c2.3,5.2,4.6,10.4,5.2,11.4c2.5,5.2-5.3,11.1-12.9,9.6
		c-2.3-0.4-5.1-0.9-6.1-1c-1,0-2.5-0.6-3.4-1.3c-0.9-0.6-2.2-0.9-2.8-0.5c-0.8,0.5-2.4,0.1-3.8-0.8c-3.8-2.3-5.1,0-1.4,2.8
		c1.6,1.3,6.6,3.9,10.8,6c4.2,1.9,7.9,3.9,8.2,4.3c0.5,0.8,4.2,2.8,15.1,8.6c1.8,1,7.6,6.1,12.9,11.4c10.6,10.8,12.3,14.4,13.4,30
		c0.8,9.1-0.1,15.7-1.9,15.7C2087.6,15856.8,2085.7,15855.3,2083.8,15853.2z"/>
	<path class="st0" d="M1666.6,15847.5c-2.5-3.3-22.8-18.6-24.6-18.6c-0.6,0-3.9-2-7.3-4.4c-3.3-2.4-6.7-4.4-7.3-4.4s-3-1.6-5.4-3.8
		c-2.4-2-5.2-3.7-6.1-3.8c-0.9,0-1.9-0.9-2.3-1.9c-0.5-1-1.5-1.9-2.4-1.9c-3,0-15.7-15.3-16.6-19.9c-0.5-2.4-0.5-4.6-0.1-4.9
		c0.4-0.4,4.4,2.3,8.9,6.1c9.4,7.6,26.5,19.5,27.6,19.1c0.5-0.1,1.9,0.9,3,2.2c1.3,1.4,2.8,2.5,3.3,2.5c1.5,0,12.3,7.3,19.3,13.2
		c8.1,6.7,12.5,12.8,13.6,18.6C1671,15851.1,1670,15851.7,1666.6,15847.5z"/>
	<path class="st0" d="M967.3,15829.8c-2.3-2.3-4.1-4.8-4.1-5.6s-0.9-2-1.9-2.9c-1.3-1-1.9-3.9-1.9-8.9c0-6.6,0.4-7.7,3.4-10.1
		l3.4-2.7l-3.8-3.3c-2-1.8-4.8-3.9-6.2-4.9c-2-1.5-2.2-2-0.9-2.9c4.1-2.4,23.1,11.8,23.1,17.1c0,1.1-2,3.9-4.6,6.3l-4.7,4.2l3.3,3.8
		c2.2,2.7,3.2,5.1,2.9,7.5c-0.3,1.9-0.5,4.2-0.6,5.1C974.6,15835.1,971.5,15834.1,967.3,15829.8z"/>
	<path class="st0" d="M748.1,15824.6c-0.9-1-3.7-2.9-6.2-4.2c-5.4-2.8-17.5-10.6-26.5-17.2c-3.5-2.5-6.7-4.7-7.1-4.7
		c-1.8,0-19-12.5-24.7-18.1c-7.2-6.8-10.4-11.8-10.4-16.1c0-3.7,1.5-3.2,9.2,3.2c3.9,3.2,7.5,5.7,8,5.7c0.5,0,3.4,2,6.3,4.6
		c3,2.4,5.6,4.2,5.6,3.8s1,0.1,2.3,1.1c1.1,1,6.5,4.9,11.7,8.7c5.2,3.9,10.1,7.6,11,8.4c0.9,0.6,1.9,1.3,2.4,1.3
		c0.5,0,3.3,2,6.3,4.4c2.9,2.4,6,4.4,6.6,4.4c1.3,0,7.5,9.5,9.4,14.3C753.2,15826.9,750.3,15827.3,748.1,15824.6z"/>
	<path class="st0" d="M1454.3,15807.1c-2.9-3.2-4.2-5.8-4.4-9.2c-0.3-2.7-0.9-5.8-1.5-7.1c-1.5-2.7-1.6-28.1-0.3-29.5
		c0.5-0.5,1-1.5,1-2.2c0.4-2.8,0.6-2.9,1.8-1.1c0.6,1,1.3,3.8,1.3,6.1c0,5.8,4.7,16.1,8.1,17.9c2.4,1.4,3.5,1.3,6.7-0.8
		c9-5.4,19.4-17.6,20.3-23.6c0.3-1.5,1-3.3,1.6-3.9c1.6-1.6,1.6-7.3-0.1-11.8c-2-5.1-2.5-9.2-3.4-26l-0.9-14.9l-4.4-2.5
		c-7.3-4.2-20.3-10.1-23.7-10.9c-2.4-0.4-13.4-4.4-15.7-5.6c-1-0.5-6.5-1.9-12-2.9c-5.4-1.1-11.7-2.3-13.8-2.8
		c-4.1-0.9-5.3-1-21.5-3.3c-14.2-1.9-52.4-0.6-61.4,2c-12.4,3.8-23.8,8.4-25.3,10.3c-0.9,1-2.4,1.8-3.3,1.8c-1,0-1.8,0.6-1.8,1.3
		c0,0.8-0.8,1.3-1.8,1.3c-1.6,0-4.7,3.2-11.8,12.3c-1.6,1.9-3.8,6.1-4.9,9.2s-2.4,6.6-2.8,7.6c-3,8.6-10.4,39.4-10.4,44.1
		c0,1.5-0.5,3.8-1.3,5.1c-1.3,2.2-3.8,15.7-4.2,22.2c-0.4,4.7-2,3.8-6.5-3.4c-3.7-6-3.7-6-2.2-15.1c1.4-8.5,1.8-10.4,3.3-17.6
		c0.3-1.6,1.5-6.3,2.7-10.5c4.1-15.2,6.8-28,6.8-31.9c0-2.3,0.6-4.2,1.4-4.2c1,0,1.3-2.2,0.9-6.3c-0.4-3.5-0.1-6.7,0.4-7.1
		c1.5-0.9,1.4-9.4-0.1-9.4c-0.6,0-0.9-0.9-0.4-2c0.8-2.2-5.7-17-7.5-17c-0.5,0-1-0.9-1-1.9c0-1-1.5-2.8-3.4-4.1
		c-2-1.3-3.8-2.5-4.2-2.9c-1.1-1.1-11.8-6-16.7-7.6c-3.8-1.1-5.8-1-9.5,0.1c-6.6,2.3-7.3,3.2-5.8,6.5c5.4,11.8,6.8,19.1,6.8,35.8
		c0.1,16.5-0.6,20.8-5.1,32.3c-4.8,12.7-14.1,24.8-14.1,18.7c0-1.4-1.8-6.5-6.5-18.1c-0.5-1.4-1.9-6.8-3-12
		c-1.1-5.2-2.7-11.8-3.5-14.6c-2.2-7-1.9-39.6,0.3-43.4c2-3.7,1.4-4.6-10.5-13.3c-8.6-6.3-16.3-10.8-23.8-13.6
		c-5.4-1.9-4.2-3.5,3.5-4.6c14.8-1.8,28,0.9,38.6,7.9c3.2,2,3.5,2,7.6-1c7-5.1,12.4-6.7,22.7-6.6c10.8,0.3,17,2.7,24.6,9.6
		c5.2,4.9,12.2,14.7,12.2,17.5c0,1,0.9,3.7,2,5.7c1.1,2.2,2.3,8.2,2.7,13.7c0.4,5.3,1,9.8,1.4,9.8c0.3,0,4.3-3.8,9-8.6
		c6.3-6.5,11.3-10,20.1-14.6c6.5-3.3,12.8-6,14.1-6c1.1,0,2.7-0.5,3.4-1.3c0.6-0.6,7.2-2.2,14.4-3.3c20.8-3.2,60.5-1.5,78.5,3.2
		c2.4,0.8,7.3,1.9,10.8,2.8c6.3,1.4,19.3,5.4,24.1,7.5c1.4,0.6,5.4,2.3,8.9,3.8c3.5,1.5,7,2.9,7.6,3c3.2,0.8,10.5,4.4,11.3,5.7
		c0.5,0.8,1.6,1.4,2.7,1.4c1.3,0,1.9-2.3,2.2-8.5c0.4-8.1,2.4-11.8,3.3-6.1c0.3,1.4,0.8,3.4,1.1,4.4c0.4,1,0.6,5.2,0.4,9.2
		c-0.1,4.9,0.3,7.2,1.4,7.2c2.5,0,22.5,17.6,28.5,25.2c8.6,10.6,14.4,24.4,14.4,33.9c0,2.2,0.6,4.4,1.3,4.8c2,1.3,1.5,14.9-0.6,19.3
		c-1.1,2.2-3.3,4.8-5.1,6c-3.3,2.2-11.4,2.8-12.5,0.9c-0.4-0.6-2.2-1.5-4.1-1.9c-1.8-0.5-3.9-1.4-4.7-2c-8-6.5-9.9-7.7-10.9-7.1
		c-1,0.6-4.6,11.9-4.2,13.7c0.1,0.5-0.6,2.9-1.8,5.4c-1,2.5-1.5,5.1-1.1,5.7c0.5,0.8,0.1,1.3-0.5,1.3c-0.8,0-1.4,0.5-1.4,1.3
		c0,1.3-4.7,8.9-9,14.3c-3.8,4.9-10.9,9.4-16.7,10.4C1458.9,15811.4,1458,15811.1,1454.3,15807.1z M1524.4,15740.8
		c0-3.4-12.8-18.4-22.7-26.3c-4.9-4.1-9.4-7.2-9.6-6.8c-0.3,0.3,0.3,3.4,1.1,7c1.6,6,12.7,23.1,15.1,23.2c0.6,0,2.5,1.1,4.3,2.5
		C1516.6,15743.4,1524.4,15743.7,1524.4,15740.8z M1219,15700.1c6-11.3,6.3-15.7,2.4-23.4c-2.5-5.1-10.8-14.9-12.4-14.9
		c-2.4,0-5.1,9.8-5.1,18.1c0,9.9,5.7,29.9,8.5,30C1213.2,15709.9,1216.2,15705.4,1219,15700.1z"/>
	<path class="st0" d="M599.3,15803.5c-1.9-3.4-3.7-8.7-4.2-11.9l-0.8-5.6l6.8-3c12.3-5.6,12.2-5.6,15.2,1.3c1.5,3.3,3.7,8,4.8,10.3
		c2,4.2,2,4.3-1.8,7.3c-2,1.6-4.3,3-5.1,3c-0.6,0-2.7,0.8-4.4,1.6C603,15810.2,602.7,15810,599.3,15803.5z"/>
	<path class="st0" d="M462.9,15805.2c-0.1-0.6-0.4-2.7-0.8-4.8c-0.9-5.2-0.9-68.8,0-86.5c0.4-8,1.3-15.1,2-15.8c1-1,1.4,6.5,1.4,28
		c0,17.7,0.5,29.4,1.3,29.4c3.9,0,14.7-23.4,16-34.8c0.5-3.9,1.4-7.3,1.9-7.7c1.5-0.9,1.4-15.3-0.1-16.3c-0.6-0.4-1.3-1.9-1.3-3.3
		c0-6.8-10.5-19.5-17.4-20.8c-5.4-1-9.8,1.5-20.6,12.5c-7.1,7.2-8.7,8.4-12.7,8.4c-4.6,0-8.5-2.8-11.9-8.6c-4.6-8-7.5-13.7-7.9-16
		c-0.3-1.5-1-5.2-1.6-8.4c-0.8-3.2-1.3-9.1-1.3-13.3v-7.6l2.3,5.7c2.7,6.3,7.5,15.1,9.8,17.5c2.9,2.9,5.7,1.5,14.3-7.2
		c7.1-7.2,9.5-8.9,15.1-10.1c6-1.5,13.9-1,15.5,1c0.4,0.4,1.8,1.4,3.2,2.2c5.1,2.7,14.4,18.5,16.6,27.9c1,4.8,2.5,9.8,3.2,11
		s1.5,7,1.9,12.7c0.4,5.7,1,11.3,1.4,12.3c0.8,2.5,0.8,16.6,0,19c-0.4,1-1,7-1.5,13.3c-0.4,6.2-1.3,11.9-1.8,12.7
		c-0.5,0.6-2,5.6-3.3,10.8c-1.3,5.2-3,10.6-4.1,12c-0.9,1.4-1.6,3.2-1.6,3.9c0,1.6-6.8,12.8-11.4,18.6
		C466.8,15805.9,463.1,15807.3,462.9,15805.2z"/>
	<path class="st0" d="M1405.9,15795.4c-2-1.8-4.9-3.5-6.3-3.9c-1.4-0.5-3.7-1.8-5.1-3c-1.4-1.3-6.8-4.4-12-7.1
		c-5.2-2.8-9.8-5.3-10.1-5.7c-0.4-0.5-2.9-2-5.7-3.5c-9-4.8-13.9-7.9-16.6-10.4c-1.4-1.3-3-2.4-3.5-2.4c-1.1,0-4.6-3.3-4.6-4.4
		c0-0.4-1.3-2.7-2.9-4.8c-2.8-3.9-3.5-7.5-2-9c0.4-0.5,4.3,1.5,8.6,4.3c4.3,2.8,8.1,5.1,8.4,5.1s4.2,2.5,8.6,5.7
		c4.6,3.2,8.7,5.7,9.5,5.7c0.8,0,2.9,1.4,4.9,3c1.9,1.6,5.6,4.1,8.1,5.3c16.5,8.5,26.5,18.4,26.5,26.1
		C1411.6,15799.3,1410.5,15799,1405.9,15795.4z"/>
	<path class="st0" d="M514.9,15784.1c0-6,0.6-11.1,1.3-11.5c0.8-0.4,1.3-2.9,1.3-5.4c0-5.8,3.8-38.3,4.8-40.8
		c0.8-1.9,4.8-24.6,6-32.8c0.5-4.3,2.7-7.7,4.7-7.7c0.6,0,0.5,1.1-0.3,2.7c-0.8,1.4-1.3,4.9-1.1,8c0.3,2.9,0,5.8-0.4,6.5
		c-0.4,0.8-1.1,10.1-1.5,20.9c-0.5,10.8-1.1,21.7-1.5,24.1c-0.8,4.4-0.8,4.4,1.9,2c2.2-2,9.1-14.9,14.6-27.2
		c1.8-4.1,1.8-23.1,0-26.9c-0.9-1.6-2.5-5.6-3.8-8.6c-1.3-3-3.9-7.7-5.8-10.4c-2-2.8-3.5-5.2-3.5-5.4c0-1-14.4-14.3-20.9-19.4
		c-8.4-6.3-16-10.6-25.6-14.3c-7-2.7-4.7-3.8,7.7-3.8c21.9,0,32.2,3.5,43.9,15.2c4.9,4.7,7.9,9,9.4,13.3c1.3,3.5,2.9,8.1,3.8,10.1
		c4.4,10.3,5.8,47,2.5,65.2c-1.1,6-2.5,11-3.2,11.1c-0.8,0.3-1.3,1.3-1.3,2.2c0,2.5-7.7,18.2-12.3,24.7c-4.3,6.3-17.2,19-19.3,19
		C515.4,15794.7,514.9,15790.7,514.9,15784.1z"/>
	<path class="st0" d="M1124.5,15791.4c-0.4-1.1-0.4-13.7,0-27.7l0.8-25.7l-3.4-1.4c-1.9-0.8-5.1-1.6-7.2-2.2
		c-10.1-2.3-24.3-12.7-31.5-23.2c-7.6-11-11.5-32.9-8.6-48.5c3-15.8,13.2-30.5,25-36c7.5-3.5,19.8-4.1,26.6-1.3
		c2.4,1,4.4,1.5,4.4,1.1s0.9,0.1,2,1c1.1,0.9,3.2,2.3,4.7,3c6.3,3.2,17.7,23.3,19.9,35.1c0.9,4.4,1.8,8.9,2.2,9.9
		c1,2.9,0.4,41.4-0.9,50c-1.9,13.6-1.8,14.2,3.4,16.6c5.2,2.5,19.1,15.1,18,16.2c-0.4,0.5-3.8-0.9-7.6-2.9
		c-16.8-9.4-20.1-10.4-20.1-6.1c0,3-13.7,29.8-17.7,34.5c-1.1,1.4-2.5,3.5-2.9,4.7s-1.9,2.8-3.4,3.5
		C1125.9,15793.3,1125.2,15793.2,1124.5,15791.4z M1136,15741.4c-1.4-2.3-3-1-3,2.4c0.1,3.3,0.1,3.3,1.9,1
		C1135.9,15743.6,1136.4,15741.9,1136,15741.4z M1145.3,15725.4c1.5-3.4,2.8-6.6,2.9-7.3c0.1-0.6,0.8-1.9,1.3-2.5
		c0.6-0.8,1.8-6.3,2.7-12.3c1.9-12.7,0-29.9-3.3-31.8c-1-0.5-1.9-1.8-1.9-2.8c0-2.3-10.1-11.1-16.8-14.7c-3.7-1.9-8.4-2.9-15.1-3.4
		c-8.2-0.5-10.6-0.1-15.8,2.3c-12.5,6-17.5,13.6-17.4,26.3c0,4.3,0.8,8.6,1.5,9.4c0.9,0.9,1.5,2.3,1.5,3.3c0,3.3,9.4,16.8,15.2,22.2
		c5.8,5.3,20.9,13.6,24.7,13.6c1.5,0,1.9-2,1.9-10.6c0-6,0.6-11.1,1.3-11.5c0.8-0.4,1.3-3.4,1.3-6.7s0.4-10.6,0.9-16.3
		c0.6-9,1-10.3,2.5-9c1.4,1.1,1.6,2.9,1,6.6c-0.5,2.9-1,14.8-1.1,26.7l-0.1,21.4l3.2,1.6
		C1140.7,15732.4,1142.4,15731.6,1145.3,15725.4z"/>
	<path class="st0" d="M838.5,15787.1c-8.1-4.2-21.9-18.2-26.1-26.9c-7-13.8-7.3-15.5-8.4-27.6c-0.5-7.7-0.4-8.6,2.8-11.8
		c1.9-1.9,3.2-4.2,2.8-5.2c-0.4-1-6.8-4.8-14.4-8.4c-7.5-3.7-15.2-7.5-17-8.4c-1.9-1-7.3-2.7-12-3.8c-4.8-1-9.2-2.4-10-3
		c-0.6-0.5-4.4-1.4-8.2-1.9c-3.8-0.5-7.5-1.3-8.1-1.6c-1.4-0.8-1.6-0.8-23.2-2.9c-8.5-0.8-16.5-1-17.7-0.5c-1.3,0.5-5.1,1-8.6,1.3
		c-9.8,0.6-13,1.1-14.1,2.3c-0.5,0.5-1.8,0.9-2.8,0.9s-3.5,0.8-5.7,1.8c-2.3,0.9-7.2,3-11,4.7c-3.8,1.5-8.1,3.9-9.6,5.2
		c-1.4,1.3-3.3,2.3-4.2,2.3c-3,0-20,18.5-24.7,27c-4.8,8.5-4.9,8.6-7.3,6.3c-4.3-3.8-8.6-13.8-8.6-19.6s2.4-14.1,4.8-16.5
		c0.9-0.9,1.5-1.9,1.5-2.5c0-0.5,1.4-3,3.2-5.6c3.5-5.2,3.7-4.8-5.4-18.9c-6.5-9.8-21.5-25.7-27.5-28.9c-10.5-5.6-16.6-7.5-24.3-7.2
		c-2.9,0-5.6-0.5-6.1-1.3c-0.4-0.6-3.4-1.3-6.6-1.3c-4.8,0-5.6-0.3-4.3-1.8c0.9-1,4.4-2.4,8.1-3.3c3.7-0.8,7.5-1.8,8.5-2.2
		c1-0.5,3.3-1,5.1-1.1c14.8-1.8,19.4-1.9,22.5-0.8c1.9,0.8,4.9,1.6,7,2c4.7,1.1,17.4,14.1,20.9,21.8c6.5,13.4,9,19.3,9.8,22
		c2,8.6,3.3,9.2,9.2,5.3c3.9-2.8,12.3-7.9,16.3-10c3.5-2,21.5-6.7,25.2-6.7c1.6,0,3.3-0.5,3.7-1.3c0.5-0.8,8.6-1.3,20.3-1.3
		s19.8,0.5,20.3,1.3c0.4,0.8,2.9,1.3,5.4,1.3s9.9,1.1,16.1,2.5c14.6,3.3,13.8,3,22.8,6.3c4.2,1.4,10.5,3.5,13.9,4.7
		c3.5,1.1,6.6,2.4,7,2.9c0.4,0.5,2,1.4,3.8,1.9c3.5,1,25.1,11.7,34.1,16.7c8,4.4,23.4,14.7,23.9,16c0.3,0.5,1.1,0.9,2.2,0.9
		c0.9,0,2.3,0.9,3.2,1.9c0.9,1,2.5,1.9,3.7,1.9c1.8,0,2-0.9,1.6-4.4c-0.8-6.5,0.9-16.1,2.7-15.5c1.4,0.4,4.8,13,4.8,18
		c0,3.8,3.9,11,6.8,12.5c1.4,0.8,2.8,1.8,3.2,2.2c0.4,0.4,4.3,2.9,8.9,5.6c4.6,2.7,8.5,5.4,8.6,6c0.3,0.5,1.1,1,2,1
		c2.9,0,5.4,4.3,6.5,10.8c0.5,3.5,1.6,8.5,2.5,11.1c0.9,2.5,1.4,4.7,1.1,4.7c-0.9,0-10.3-5.7-12.5-7.7c-4.3-3.7-19.6-11.4-21-10.5
		c-0.8,0.5-1,4.3-0.4,10.5c0.5,6,0.3,12.5-0.8,17c-1.3,6.1-2,7.5-6,9.9C852.6,15791,846.1,15790.9,838.5,15787.1z M849.8,15758.6
		c1.1-1.6,2-5.6,2-8.6c0-5.4-0.1-5.7-5.4-7.7c-6.1-2.3-19.3-2.8-20.5-0.6c-0.5,0.8-1.6,1-2.7,0.6c-4.6-1.8-2.2,2.3,6.3,10.5
		c8,7.6,10,9,13.8,9C846.6,15761.8,848.3,15761,849.8,15758.6z"/>
	<path class="st0" d="M995.2,15783.7c-1.5-3.8-1-40.3,0.6-43.6c0.8-1.6,2.4-8.1,3.5-14.4c1-6.2,2.5-12.5,3.2-13.9
		c1.3-3,3.8-12.7,4.4-17.1c0.3-1.8,1-5.4,1.8-8.2c2.4-9,1.8-15.1-1.8-18.4c-1.8-1.6-3.2-3.5-3.2-4.4c0-0.8-1.3-2.2-2.7-3.2
		c-1.5-1-5.3-4.1-8.6-6.6c-3.2-2.7-6.3-4.8-6.8-4.8c-0.6,0-3.3-1.6-5.8-3.7c-2.5-1.9-11.7-7.1-20.3-11.4
		c-15.3-7.5-20.4-10.8-20.4-13c0-1.4,24.7-1.3,27.6,0.1c1.1,0.6,5.1,1.8,8.5,2.5c11.8,2.8,24.7,10.1,34.6,19.5
		c4.9,4.9,9.1,9.5,9.1,10.1c0,0.6,1,2.7,2.4,4.4c1.3,1.9,3,5.7,3.9,8.5c0.9,2.8,2.2,5.7,2.8,6.6c0.6,0.9,0.9,2.2,0.4,2.9
		c-0.5,0.8-0.1,2.3,0.9,3.4c2.3,2.8,2.4,46,0.1,48.6c-0.9,1-1.3,3-0.9,4.6c0.4,1.4,0.1,3-0.6,3.4c-0.8,0.5-1.4,2-1.4,3.3
		c0,4.2-7.7,21.7-12.2,27.7c-2.4,3.2-5.4,7.6-6.8,9.8s-3.9,4.7-5.7,5.6s-3.2,2.2-3.2,2.8C998.8,15786.7,996.1,15785.9,995.2,15783.7
		z M1008.1,15740c0.4-0.9,1.9-3.3,3.3-5.4c1.4-2,4.7-8.1,7.2-13.3c6.2-12.5,6.6-22.3,1.1-33.2c-2-4.1-4.1-7.3-4.6-7.3
		c-0.5,0-1.4,5.4-1.9,12c-0.5,6.6-1.4,12.4-2.2,12.8c-0.6,0.4-0.9,2.2-0.4,3.9c0.4,1.8,0.3,3.8-0.4,4.6c-0.6,0.9-1.6,5.3-2.2,10
		c-0.4,4.7-1.3,8.9-1.8,9.1c-1.3,0.9-1.6,8.4-0.3,8.4C1006.9,15741.5,1007.7,15740.8,1008.1,15740z"/>
	<path class="st0" d="M1658.6,15773.3c-6.6-2-13.7-6.5-19.3-12c-5.4-5.7-6.2-7.2-11.3-24.3c-4.6-15.6,2.4-24.4,21.3-26.7
		c7.6-0.9,8.2-2.3,3.3-7c-8.6-7.9-11.9-9.2-21.7-9.2c-8.6,0-9.4,0.3-12.9,4.1c-2.2,2.3-3.8,4.6-3.8,5.2c0,2-4.6,5.3-7.5,5.3
		c-5.1,0-17.9-8.4-17.9-11.7c0-0.6-1.1-2.7-2.5-4.6c-4.4-6.1-9.2-32-6.5-34.8c0.8-0.8,1.4-2.8,1.4-4.7c0-2.3,1.1-0.9,4.4,5.7
		c6.5,13,9.4,16.7,16.2,21.2c3.3,2.3,3.3,2.2,5.6-1.1c1.3-1.9,4.3-5.4,6.7-7.9c4.2-4.3,5.1-4.6,11.7-4.4c3.9,0.1,8.5,0.6,10.1,1.1
		c4.8,1.3,12.4,4.9,12.4,6.1c0,0.5,0.8,0.9,1.6,0.9c1.8,0,13.6,11.4,13.6,13.2c0,0.5,1.4,2.2,3.2,3.5c1.8,1.4,3.2,3.2,3.2,4.1
		c0,1.9,6.6,8.4,8.6,8.4c1,0,1.5-2.5,1.5-7.5c0-8,1.6-14.1,3.8-14.1c0.8,0,1.3,5.8,1.3,15.6v15.5l9.8,9.2c5.3,4.9,10.1,9.1,10.8,9.1
		c0.6,0,2.3,1,3.7,2.3c2,1.9,2.7,4.8,3.4,15.2l0.9,12.8l-3.2-2c-3.2-2-18-13-21.3-15.7c-3.5-2.9-4.9-0.4-3.9,7.2
		c2.7,21,1.1,23.3-13.7,23.2C1666.2,15774.3,1660.4,15773.8,1658.6,15773.3z M1675,15747.1c5.4-4.4,5.4-9.8,0.1-11.9
		c-7.3-3-29.5,0.4-29.5,4.4c0.1,1.5,12.4,8.4,17.5,9.6C1669.4,15750.8,1670.9,15750.5,1675,15747.1z"/>
	<path class="st0" d="M937.5,15767.5c-1.1-1.8-2.4-4.9-2.9-7c-0.4-2.2-1-3.8-1.5-3.8c-0.4,0-0.9-2.4-1-5.3c-0.3-2.9-0.9-5.8-1.6-6.6
		c-1.6-1.6-1.6-17.2,0-17.2c0.8,0,2,1.5,2.9,3.5c0.8,1.9,2.4,4.4,3.5,5.7c1.9,2,2.2,2,4.4,0c3.3-3.2,6.6-10.1,7.6-16.2
		c0.6-4.1,0.1-5.8-1.9-8.5c-2.7-3.4-6.5-3.7-6.5-0.5c0,3.5-5.8,7.1-11.5,7.1c-3,0-6.2-0.5-7-1c-1.4-0.9-5.7-8.4-6.5-11
		c-2.3-8.6-2.9-12.3-2.9-17c0-4.7,0.6-6.2,4.6-9.8c5.1-4.9,5.4-4.9,13-2.3c3,1,5.8,1.6,6.2,1.3c1.1-1.3-2.5-12.9-5.7-17.9
		c-9.2-14.2-29.4-27.2-49.1-31.7c-4.8-1.1-9.4-2.7-10-3.3c-0.8-0.6-2.5-1.1-3.9-1.1c-1.5,0-3.2-0.4-3.5-0.9
		c-1.9-1.8,6.6-4.4,16.6-5.1c5.7-0.4,10.8-1.3,11.1-1.9c0.4-0.6,1.4-0.6,2.2,0c0.9,0.6,4.9,1.5,9.1,1.9c10.3,0.9,20,6.1,25.5,13.6
		c4.6,6.3,10,19.4,11.4,27.2c0.5,2.8,1.3,5.7,1.9,6.5c0.6,0.8,1.6,7,2.4,13.8c1,9,2.4,14.6,5.2,20.4c5.6,11.8,7.9,24.1,7.1,39.1
		c-0.6,15.2-2.2,19.4-10.3,27.4C941.9,15771.5,940.1,15771.5,937.5,15767.5z"/>
	<path class="st0" d="M1590,15753.3c-1.3-0.3-2.3-1-2.3-1.6c0-0.5-2-1.4-4.6-1.9c-2.5-0.4-5.6-1.3-6.7-1.9c-1.1-0.6-3.8-1.8-6-2.5
		c-3-1.1-4.6-2.8-6-6.7c-1-2.9-2-6.2-2-7.2c-0.1-1-0.5-4.6-0.9-7.9c-0.9-6.8,0.8-7.9,6.5-4.1c3.5,2.3,18,6.8,18.9,6
		c1.4-1.4,5.6,7.9,6.5,14.3c0.4,3.7,1.4,7.1,2,7.5c1.9,1.3,1.3,5.3-0.9,6.2c-1.1,0.4-2,0.6-2.2,0.6
		C1592.3,15753.9,1591.1,15753.7,1590,15753.3z"/>
	<path class="st0" d="M2058.2,15707.1c-1.3-3-3-7.2-3.9-9.5c-1-2.2-2.2-5.7-2.5-7.7c-0.6-3.3-0.1-4.1,4.2-6.7
		c5.2-3.3,8.2-5.6,12.2-9.2c2-1.9,2.7-2,3.5-0.6c0.6,1,1.1,2.7,1.1,3.8c0,1,0.6,2.5,1.5,3.4c0.9,0.9,1.1,1.5,0.6,1.5
		s0.3,2.3,1.6,5.1c3.8,7.5,3.3,11.4-2.2,16.6c-5.7,5.3-10.5,8.7-12.5,8.7C2061.1,15712.4,2059.5,15710,2058.2,15707.1z"/>
	<path class="st0" d="M964.3,15704.5c-1.3-1.5-2.9-4.8-3.7-7.2c-0.8-2.5-1.9-5.8-2.8-7.5c-2.3-4.8-0.8-6.3,13-12.8l5.7-2.7l1.1,2.9
		c0.6,1.5,2.7,6.1,4.7,10.3c1.9,4.1,3.2,8.2,2.8,9.1c-0.5,1.3-16.8,10.8-18.5,10.6C966.6,15707.3,965.4,15706.1,964.3,15704.5z"/>
	<path class="st0" d="M551,15561.9c-1.4-0.3-3-1-3.8-1.5c-0.6-0.5-4.6-1.9-8.5-3c-4.1-1.1-7.3-2.4-7.3-2.8c0-0.5,1.8-2.8,3.8-5.2
		l3.8-4.3v-27.7v-27.7l-3.9-4.6l-3.9-4.4h15.6h15.6l-4.1,4.2l-4.1,4.2l-0.3,36.6C553.6,15561.5,553.6,15562.3,551,15561.9z"/>
	<path class="st0" d="M639.2,15559.7c-4.4-1.5-9.5-3.5-11.1-4.4l-2.9-1.6l3.8-3.9l3.8-3.9v-28.4v-28.4l-4.1-4.2l-4.1-4.2h16.5h16.3
		l-4.1,3.3l-4.2,3.2v37.2c0,20.5-0.4,37.5-0.9,37.7C647.7,15562.3,643.6,15561.3,639.2,15559.7z"/>
	<path class="st0" d="M777.1,15561.3c-1.8-0.9-6-2.4-9.5-3.4c-8.4-2.2-8.9-2.8-5.1-6.3l3.2-2.9v-34.7c0-25.5,0.4-34.6,1.5-34.6
		c0.8,0,4.2,1.8,7.6,3.9l6.2,4.1l2.8-2.5c1.5-1.4,4.1-3.3,5.6-4.1c3.9-2,13.8-1.8,18,0.5c4.4,2.2,11.5,13,11.5,17.4
		c0,1.6,0.4,3.5,0.9,4.1c1.3,1.1,0.5,10.3-1.1,16.6c-2,7.1-9,15.3-14.4,17.1c-5.8,1.9-14.7,0.6-17.6-2.5c-1.3-1.4-2.8-2.2-3.3-1.8
		c-0.6,0.4-1.1,7.5-1.1,15.8c0,8.2-0.4,15.1-0.9,15.1C780.7,15562.9,778.9,15562.2,777.1,15561.3z M798.1,15525.7
		c2.8-4.3,2.2-35.7-0.8-37.5c-3.8-2.4-8.5-1.4-11.9,2.7c-3,3.7-3.3,4.7-3.3,17.4c0,12.8,0.1,13.6,3.4,17
		C789.9,15529.8,795.2,15529.9,798.1,15525.7z"/>
	<path class="st0" d="M1018.8,15559.3c-5.3-1.9-10.1-3.8-10.6-4.2c-0.4-0.5,0.8-2.3,2.5-3.9l3.3-3v-29.6v-29.5l-4.1-4.2l-4.1-4.2
		h16.5h16.3l-4.1,3.3l-4.2,3.2v15.1v15.1l4.3,4.4c4.3,4.7,8,5.7,10.6,3c1-1,1.5-8,1.5-22.8v-21.3h12.4l12.3,0.1l-4.2,3.5l-4.3,3.7
		l0.1,19.1c0.3,26-1.5,29.3-15.6,29.3c-6,0-7.6-0.5-11.3-3.8c-2.4-2-4.7-3.8-5.2-3.8c-0.4,0-0.8,7.7-0.8,17.1c0,9.4-0.4,17-0.9,17
		C1028.9,15562.7,1024.1,15561.2,1018.8,15559.3z"/>
	<path class="st0" d="M1260.2,15561.2c-1.3-0.9-5.3-2.3-8.7-3.2c-10.3-2.4-10.6-3-6-8.9l4.1-5.1v-26.9v-27l-4.7-4.8l-4.7-4.8h16.1
		c15.8,0,19.9,1.1,13,3.8c-5.7,2.2-6,4.3-5.8,41.9c0.1,19.5,0,35.7-0.3,36.1C1263,15562.7,1261.6,15562.2,1260.2,15561.2z"/>
	<path class="st0" d="M1349,15559.8c-4.2-1.6-8.9-3-10.4-3c-4.3-0.1-4.4-1.9-0.4-6.6l3.7-4.3l0.1-28.5v-28.4l-4.1-4.2l-4.1-4.2h16.3
		h16.3l-4.1,4.2l-4.1,4.2v13.9v13.9l4.8,4.7c2.7,2.5,5.7,4.7,6.8,4.7c4.4,0,4.9-3,4.6-24.6l-0.4-21h11.8c6.3,0,11.7,0.5,11.7,1
		c0,0.6-1.4,2.4-3.2,4.1c-3,2.9-3.2,3.4-3.2,21.7c0,16.7-0.3,19.3-2.7,23.2c-3,5.2-6.2,6.3-15.3,5.6c-5.1-0.5-7.2-1.5-9.4-4.1
		c-1.6-1.8-3.5-3.3-4.3-3.3s-1.3,6.1-1.3,17.1c0,9.4-0.4,17.1-0.9,17C1356.9,15562.8,1353.1,15561.4,1349,15559.8z"/>
	<path class="st0" d="M1460.4,15558c-9.4-2.4-17.2-9.1-22.2-19c-3.4-7-4.7-22-2.7-31.8c1.9-8.7,8.7-19.3,15.6-23.7
		c4.8-3.3,6.2-3.5,17.4-3.5c11.5,0,12.5,0.3,18.2,4.1c11.3,7.5,16.1,18,16.1,35.1c0,11-1.8,18.2-5.7,24.2c-3,4.4-9.8,10.6-14.3,13
		C1478.8,15558.4,1465.6,15559.4,1460.4,15558z M1474.1,15550c3.7-1.9,4.8-3.3,7.9-9.1c2.2-4.3,2.5-7.5,2.5-21.7s-0.4-17.4-2.5-21.5
		c-7.7-15.1-20.5-14.4-26.3,1.3c-1.1,2.8-2,6-2.2,7c-1.1,11.8-1.3,19.5-0.5,21.3c0.5,1.1,0.8,3.3,0.6,4.7c-0.6,7,8.9,19.6,14.8,19.6
		C1470,15551.5,1472.6,15550.9,1474.1,15550z"/>
	<path class="st0" d="M957.5,15555.5c-21.4-9.8-30.8-37-19.1-55.5c5.6-8.7,16.5-17.6,23.8-19.4c11.7-2.8,30.9-0.4,34.3,4.4
		c0.5,0.8,1,7.5,1,15.2v13.8l4.1,4.2l4.1,4.2h-15.5c-8.5,0-15.5-0.5-15.5-1c0-0.6,1.8-2.7,3.8-4.7c3.7-3.4,3.8-4.1,3.8-14.3
		c0-10.3-1.4-14.2-4.8-14.2c-0.8,0-1.5-0.6-1.8-1.4c-0.4-1-2.2-1.3-5.4-0.6c-6.8,1.3-15.1,9.9-16.2,16.7c-1.6,9.5-1,28.2,1,33.2
		c2.8,6.6,10.4,14.1,15.3,14.9c5.2,1,8.5-0.9,15.5-8.5c3.2-3.4,6.1-6.2,6.7-6.2c0.6,0,1.1,4.3,1.1,9.5v9.4l-4.7,1.3
		C981,15558.8,963.4,15558.1,957.5,15555.5z"/>
	<path class="st0" d="M409.8,15547.5v-9.1l6.1,6c5.8,5.7,9,7,13.4,5.2c1.8-0.6,2-4.6,2-30.3v-29.4l-3.7-2.8c-7.6-6-6.6-6.5,11.7-6.5
		l16.7,0.1l-4.8,4.4l-4.8,4.4v29.1c0,16,0.4,29.5,0.8,30.3c0.4,0.6,2.5,1.3,4.6,1.3c2.8,0,5.2-1.5,9.2-5.7c3.2-3.2,5.8-5.7,6.1-5.7
		c0.1,0,0.3,3.8,0.3,8.5l-0.3,8.6l-28.6,0.4l-28.6,0.3V15547.5z"/>
	<path class="st0" d="M718.7,15556c-0.1-0.4-0.3-1.1-0.4-1.8c0-0.6-0.5-1.6-1-2.2c-0.6-0.5-1-1.8-1-2.9s-0.8-3.4-1.6-5.2
		c-0.9-1.8-2.7-6.6-3.9-10.8s-2.8-8.1-3.3-8.9c-0.6-0.6-1.4-3.4-1.9-6.1c-0.5-2.5-1.4-5.1-1.9-5.3c-0.6-0.4-2-3.9-3.2-8
		c-2.9-10.1-4.9-14.3-9.4-18.5c-2.2-2.2-3.9-4.2-3.9-4.8c0-0.5,5.8-1,12.9-1H713l-4.1,4.2l-4.1,4.2l1.9,6.6l2,6.6h11.7h11.7l2.2-6.7
		l2-6.6l-3.9-4.1l-3.9-4.2h16.8h17l-5.3,5.7c-2.8,3-5.2,6.5-5.2,7.5c0,0.9-0.9,3.4-1.9,5.3c-1,2-1.9,4.6-1.9,5.6
		c0,1.1-0.8,3-1.6,4.4c-0.9,1.4-2.4,5.1-3.3,8.2c-0.8,3.2-2,6.8-2.7,8.2c-0.6,1.4-2,5.7-3.2,9.5c-1.3,3.8-2.9,8.7-3.8,10.8
		c-0.9,2.2-2.2,5.3-2.9,7.3c-1.3,2.9-2.2,3.4-6.6,3.4C721.1,15556.6,718.7,15556.4,718.7,15556z M724.4,15521.4
		c1.3-3.9,2.5-8,2.9-8.7c0.4-1.3-1.4-1.6-6.5-1.6c-7.7,0-8.4,0.8-5.3,6.6c1,1.9,2.2,5.1,2.7,7.2
		C719.5,15530.8,721.8,15529.5,724.4,15521.4z"/>
	<path class="st0" d="M1751.3,15554.6c-3.7-2.5-3.7-8.1,0.1-11.7c3.5-3.3,5.7-3.4,9.5-0.8c3.8,2.5,3.9,11.1,0.4,13.2
		C1757.8,15557.1,1754.6,15557,1751.3,15554.6z"/>
	<path class="st0" d="M1935.6,15554.3c-2.5-2.8-2.8-9.5-0.5-11.4c6-4.9,14.6-1.1,14.1,6.2c-0.1,2.3-1.3,4.9-2.5,5.8
		C1943.3,15557.4,1938,15557,1935.6,15554.3z"/>
	<path class="st0" d="M1894.6,15537.5c-6.5-6.2-11.8-11.7-11.8-11.9c0-0.3,2.2-0.6,4.8-0.9l4.7-0.4l0.4-19.8
		c0.4-23.8,0.6-24.2,14.1-25c8.1-0.5,8.9-0.3,12.9,3.3c4.2,3.7,4.2,3.9,2,6.3c-2.4,2.5-2.4,2.5-7-0.5c-2.4-1.8-4.9-2.9-5.6-2.8
		c-1.3,0.5-1.6,39.5-0.4,41.5c0.4,0.8,3.9,1.3,7.7,1.3c6.6,0,7,0.3,6.6,2.9c-0.4,2.4-1.3,2.8-7.6,3.2c-4.6,0.3-7.3,1-7.5,1.9
		c0,0.9,0,3.9,0.1,7c0.1,2.9-0.3,5.3-0.9,5.3C1906.7,15549,1900.9,15543.8,1894.6,15537.5z"/>
	<path class="st0" d="M1294.7,15535.8c-7.2-2-10.4-4.7-14.2-12.2c-3.8-7.7-4.7-14.4-2.9-23.3c1.1-6.2,2.3-8.4,7.5-13.4
		c7-7,12.5-8.5,24.6-7.1c7.1,0.8,10.6,2.3,16.3,6.8c3.7,2.8,3.7,2.9,1.3,5.2c-2.4,2.3-2.5,2.3-6-0.9c-2.8-2.7-5.1-3.4-11.5-3.8
		c-8-0.5-8.1-0.5-11.4,3.9c-2.8,3.7-3.4,5.6-3,10.6l0.4,6.1l17.6,0.4l17.5,0.4l-0.6,4.1c-0.4,2.3-0.9,4.9-1.3,6
		c-0.4,1-1,3.2-1.5,4.8c-0.5,1.5-1.4,2.8-1.9,2.8c-0.6,0-1.4,1-1.8,2.3C1321.7,15534.8,1305.6,15538.9,1294.7,15535.8z
		 M1309.6,15527.2c1.1-1.5,2-5.1,2-7.7v-4.8l-7.9,0.4c-7.3,0.4-8,0.6-8.4,3.4c-0.5,3,1.8,8.9,4.2,10.5
		C1302.2,15531,1307.7,15530,1309.6,15527.2z"/>
	<path class="st0" d="M1708.7,15536.7c-1.4-0.3-4.7-2.3-7.2-4.3c-5.6-4.4-7.6-4.7-7.1-0.8c0.1,1.5-0.3,2.9-0.9,3
		c-2,0.5-9.5-1.1-10.1-2.2c-0.4-0.6-2.9-1.4-5.7-1.9c-2.8-0.5-5.1-1.3-5.1-1.8s1.8-2.5,3.8-4.6l3.8-3.7v-15.3v-15.3l-4.3-4.2
		l-4.4-4.3l-3.8,3l-3.8,3v18.7l-0.1,18.7l-4.9,5.3l-5.1,5.3l-12.4,0.4c-10.6,0.4-13,0-16.5-2.2c-4.1-2.5-4.2-2.9-4.2-10.9
		c0-4.6,0.3-8.2,0.6-8.2c0.5,0,4.1,3.4,8,7.6c7.7,8,10.4,9,15.2,5.6c2.4-1.6,2.8-3,2.5-7.2l-0.4-5.3l-5.3-0.1c-3,0-5.8-0.5-6.3-0.9
		c-0.4-0.5-1.9-0.9-3.2-0.9c-2.7,0-10-3.7-12.9-6.6c-6-6.1-4.3-23.8,2.7-26.5c6-2.3,12.2-1.3,17.4,2.7c6.1,4.7,8.4,4.8,8.4,0.6v-3.2
		h28.8h28.8l-5.3,5.4l-5.3,5.4v12.3c0,12.2,0,12.3,4.2,16.5c2.2,2.3,6,4.9,8.2,5.8c7.3,3,7.9,1.6,7.9-23.4v-22h12.3h12.3l-4.2,4.2
		l-4.1,4.3l0.3,17.4c0,9.6-0.3,17.7-0.6,18.1c-0.4,0.5-0.8,1.8-0.8,2.9s-1.6,3.7-3.7,5.6
		C1722.1,15536.7,1714.5,15538.2,1708.7,15536.7z M1647,15502c0.3-4.7,0-6.1-1.9-6.6c-1.3-0.5-3.9-2-5.8-3.7c-4.2-3.4-7.6-2-8.2,3.4
		c-1,7.9,4.2,13.4,11.8,12.9C1646.3,15507.8,1646.6,15507.5,1647,15502z"/>
	<path class="st0" d="M1983.5,15536.9c-9-2.3-16.6-9-20.8-18.2c-2.8-6.1-3.5-14.6-1.4-15.8c0.8-0.4,1.3-1.9,1.3-3.3
		c0-3.2,3.4-9.9,6.3-12.8c6.8-6.5,22.8-9.4,33.1-6c6,2,14.8,10.9,16.3,16.3c4.2,14.8-0.8,29.5-12,36.1
		C2001.2,15536.2,1988.8,15538.1,1983.5,15536.9z M1995.5,15528.7c1.4-1.4,2.8-4.1,3.2-6c0.5-2,1.3-4.6,2-5.7
		c1.5-3,1.4-17.1-0.3-18.1c-0.8-0.5-1-1.8-0.5-2.8c0.4-1.1-0.8-3.9-2.5-6.2c-2.7-3.4-4.2-4.3-7.6-4.3c-3.8,0-4.7,0.6-7,5.1
		c-2,3.9-2.5,7.5-2.5,17c0,6.6,0.6,13.6,1.4,15.6C1984.6,15531,1990.8,15533.4,1995.5,15528.7z"/>
	<path class="st0" d="M2059.5,15535.8c-2-0.9-4.9-2.9-6.2-4.4c-3.4-3.8-6.3-3.5-5.6,0.5c0.4,1.8,0.3,3.5-0.3,3.8
		c-1.3,0.8-22-6.6-22.5-8c-0.1-0.5,1.1-2.4,2.9-4.1c3-2.9,3.2-3.5,3.2-19.3s-0.1-16.3-3.2-19c-1.8-1.5-3.2-3.2-3.2-3.8
		c0-0.5,7-1,15.5-1h15.5l-4.1,4.2c-4.1,4.2-4.1,4.2-4.1,17.7v13.6l4.6,5.1c3.5,3.9,5.6,5.1,8.6,5.1c6.1,0,7.1-3.7,7.1-26.2v-19.4
		h11.8h11.7l-4.1,3.5l-4.2,3.5v19.6c0,18.4-0.3,20-2.9,24.1C2076,15537.4,2067.3,15539.3,2059.5,15535.8z"/>
	<path class="st0" d="M483.7,15535l-4.2-1.3v-8.9v-9l7.9,7.1c4.7,4.2,9,7.1,10.6,7.1c3.9,0,6.8-4.6,6.8-10.4c0-4.6-0.1-4.8-4.3-4.8
		c-2.3,0-7.2-0.6-11-1.3c-15.7-3-22.5-19-13-30.4c2.9-3.4,4.1-3.8,10.1-3.8c4.9,0,7.1,0.5,7.6,1.9c0.5,1,1.4,1.9,2.2,1.9
		s2.7,1.1,4.2,2.7c3.4,3.2,5.8,2.2,4.8-2.2l-0.8-3H517h12.4l-4.7,4.8l-4.7,4.8v18.4c0,20.4-0.8,22.8-8.4,26
		C506.8,15536.6,490,15536.7,483.7,15535z M504.5,15503.4c0.4-3.9-0.3-5.1-4.8-9c-8-6.8-12.8-4.6-10.1,5.1c1.4,5.2,6.5,9,11.4,8.6
		C503.7,15507.8,504.3,15507.1,504.5,15503.4z"/>
	<path class="st0" d="M577.4,15534.4c-4.2-1.8-4.2-1.9-4.2-10.3v-8.4l8.1,7.1c7.7,6.7,11.1,8.2,14.1,6.1c2.8-1.9,4.3-6.6,3.7-10.4
		c-0.8-3.3-1.4-3.8-5.1-3.8c-7.3,0-17.5-2.7-20.6-5.6c-6-5.3-8.1-14.8-4.8-21.9c2.9-6.6,4.8-8,11.5-8c5.2,0,7.1,0.8,11.7,4.4
		c6.7,5.6,8.6,5.7,7.5,0.6l-0.9-3.8h12.3h12.3l-4.6,5.1l-4.6,5.1v18.7c0,17.9-0.1,19-2.8,21.5c-1.6,1.4-4.6,3.2-6.5,3.9
		C599.4,15537,582.2,15536.6,577.4,15534.4z M598.3,15501.9c0.3-4.3-0.1-6.1-1.3-6.1c-0.9,0-3.3-1.4-5.4-3c-5.2-4.2-8.2-2.5-8.2,4.3
		c0,4.1,0.8,5.4,4.2,8.1c2.4,2,5.3,3.2,7.2,3C597.5,15507.8,597.9,15507.2,598.3,15501.9z"/>
	<path class="st0" d="M839.2,15533.9c-3.2-1.1-6.5-2-7.3-1.6c-0.9,0.3-1.5-0.1-1.5-0.9c0-0.8-1.1-1.4-2.4-1.4
		c-4.1,0-4.4-2.5-0.9-6.2c3.2-3.3,3.3-3.9,3.3-19.6v-16.2l4.4-4.4c4.3-4.3,4.8-4.4,11.4-3.8c4.7,0.5,8.2,1.8,11.1,3.9
		c5.3,4.1,6,4.1,6,0.1c0-3.2,0-3.2,12.3-3.2h12.3l-4.1,4.2l-4.1,4.2v23.8c0,21.3-0.3,23.7-2,23.1c-1.1-0.4-3.5-1.1-5.3-1.6
		c-1.8-0.4-4.7-1.5-6.5-2.4c-1.8-1-4.2-1.8-5.2-1.8c-4.4,0-4.9-2.8-1.1-6c3.5-3,3.7-3.5,3.7-14.1c0-6.1-0.5-11.7-1-12.3
		c-2.3-3.3-8.5-7-11.9-7h-3.7l0.1,22.4c0.1,12.4-0.3,22.5-0.9,22.8C845.4,15536.1,842.3,15535.2,839.2,15533.9z"/>
	<path class="st0" d="M1083.6,15534.1c-4.3-2.2-4.4-2.4-4.8-10.8c-0.3-4.7,0.1-8.5,0.6-8.5c0.6,0,4.4,3.4,8.6,7.6
		c8,8.1,11.4,9.2,15.1,5.2c2.5-2.8,3.4-9.9,1.5-11.4c-0.8-0.6-4.7-1.4-8.7-1.9c-9.2-1-16.7-4.7-19.3-9.6c-3.9-7.6-1.5-22,4.1-24.3
		c5.6-2.2,12.4-1,16.8,2.8c5.4,4.6,7.6,4.8,7.6,0.6c0-3.2,0.1-3.2,11.4-3.2c9.1,0,11.4,0.4,11.4,1.9c0,1-1.1,2.4-2.5,3.2
		c-2.4,1.3-2.5,2.7-2.5,19.1c0,19.1-0.8,21.9-7,27.7c-3,2.9-4.6,3.2-15.6,3.4C1090.7,15536.2,1087,15535.8,1083.6,15534.1z
		 M1105.1,15501.5c0-4.2-0.5-7-1.4-7c-0.8,0-2.8-1.1-4.6-2.5c-4.3-3.3-6.2-3.2-8.7,0.6c-4.2,6.3,1.9,15.8,10.3,15.8h4.4V15501.5z"/>
	<path class="st0" d="M1194.4,15535.5c-4.8-1.3-5.7-3-5.7-11.3c0-4.4,0.5-8.1,1-8.1c0.5,0,4.1,3.2,7.9,7c7.6,7.7,11.1,8.6,14.8,3.9
		c2-2.5,2.4-5.1,1.8-11.1c-0.1-0.6-2.3-1-4.8-1c-11.8-0.1-22.2-4.8-24.6-11.3c-0.8-1.8-1.1-3.3-1-3.3c0.1,0-0.4-1.3-1.1-2.7
		c-1.1-2.2-1-3.9,0.6-8.2c3.3-8.6,4.9-10,12.2-10c5.1,0,7.1,0.8,11,3.8c5.7,4.6,7.3,4.7,7.9,1c0.4-2.8,1-2.9,12.4-3.3l12-0.4
		l-3.5,3.7c-3.4,3.5-3.4,3.8-3.5,21.3c-0.1,19.6-1,22.9-8.7,28.1c-3.5,2.4-5.7,2.8-15.1,2.7
		C1201.9,15536.1,1195.8,15535.7,1194.4,15535.5z M1214.6,15502.5c0-4.7-0.6-5.8-4.9-9.2c-5.6-4.4-6.6-4.6-9.8-1.6
		c-2.8,2.5-2.9,5.7-0.4,10.5c2.5,4.8,5.3,6.3,10.8,6C1214.6,15507.8,1214.7,15507.7,1214.6,15502.5z"/>
	<path class="st0" d="M1525.6,15534.6c-2.4-0.8-5.1-1.8-5.7-2.3c-0.8-0.4-3.4-1.1-6.1-1.6c-2.5-0.5-4.7-1.3-4.7-1.8s1.8-2.5,3.8-4.6
		l3.8-3.7v-15.2v-15.2l-4.7-4.8l-4.7-4.8h15.5c8.5,0,15.5,0.3,15.5,0.5c0,0.4-1.8,2.3-3.8,4.4c-3.8,3.8-3.9,4.1-3.7,16.2l0.1,12.4
		l5.2,5.4c2.9,2.9,5.8,5.3,6.6,5.3c0.8,0,3.9-2.5,7-5.7c3-3,6-5.3,6.5-5.1c0.5,0.4,0.6,5.3,0.4,11l-0.5,10.5h-7.5
		c-6.6,0-8.1-0.5-11.1-3.5c-4.7-4.3-7.2-4.6-6.2-0.4C1532.2,15535.7,1531.2,15536.2,1525.6,15534.6z"/>
	<path class="st0" d="M1757.4,15534.7c-2.4-0.8-4.8-1.9-5.2-2.5c-0.5-0.6-1.4-0.9-2.2-0.4c-0.8,0.4-1.6,0.3-2.2-0.5
		c-0.4-0.6-1.9-1.3-3.3-1.3c-3.3,0-3-2.3,0.8-5.7c2.9-2.8,3-3.7,3.3-19.1l0.1-16.2l-3.9-3.5c-2.2-1.9-3.9-3.8-3.9-4.2
		s6.8-0.6,15.2-0.6c9.9,0,15.2,0.5,15.2,1.4c0,0.8-1.6,2.8-3.8,4.6l-3.8,3.2v23.3c0,12.8-0.4,23.3-0.9,23.2
		C1762.2,15536.1,1759.8,15535.5,1757.4,15534.7z"/>
	<path class="st0" d="M1837.6,15535.5c-4.4-0.9-5.6-3.4-5.2-11.9l0.4-8l7.7,7.2c4.3,3.9,8.9,7.2,10.3,7.2c4.2,0,8.2-5.4,7.7-10.3
		c-0.4-4.2-0.6-4.3-5.7-4.4c-3,0-5.8-0.5-6.3-0.9c-0.4-0.5-1.9-0.9-3.3-0.9c-5.2,0-17.7-9.1-16.6-12c0.4-0.9,0.1-2-0.6-2.5
		c-1.6-1-1.9-6.6-0.3-7.5c0.6-0.4,1.5-2.3,2-4.2c1.5-6.1,4.2-8,11.3-8c5.4,0,7.3,0.6,11.3,3.9c5.1,4.2,8.5,4.2,8.5-0.1
		c0-2.4,0.8-2.5,11.7-2.5h11.7l-3.4,3.5c-3.2,3.3-3.3,4.1-3.8,21.2c-0.3,9.8-0.8,18.7-1,19.9c-0.9,3-4.9,7.3-9,9.4
		C1861.5,15536.2,1844.6,15536.9,1837.6,15535.5z M1858.5,15502.8c0.4-4.7-0.1-5.4-4.9-9.2c-6.1-4.6-7.7-4.9-10-2.2
		c-2.3,2.7-2.4,7-0.4,11c2.2,4.6,5.1,6.1,10.5,5.7C1857.9,15507.8,1858.1,15507.6,1858.5,15502.8z"/>
	<path class="st0" d="M1941.1,15533.9c-3.2-1.1-6.5-2-7.3-1.6c-0.9,0.3-1.5-0.1-1.5-0.9c0-0.8-1-1.4-2.3-1.4c-4.2,0-4.2-1.6-0.1-5.8
		l4.1-4.2l-0.1-15.3l-0.1-15.3l-3.9-3.2c-2-1.8-3.8-3.8-3.8-4.4c0-0.6,6.8-1.1,15.2-1.1c8.4,0,15.2,0.4,15.2,0.8s-1.8,2.2-3.8,3.9
		l-3.9,3.2l0.1,23.6c0.1,13-0.3,23.7-0.9,23.9C1947.3,15536.1,1944.2,15535.2,1941.1,15533.9z"/>
	<path class="st0" d="M1132.9,15534.2c-0.6-5.8-0.3-16.8,0.6-16.8c0.6,0,3.7,2.5,6.7,5.7c4.6,4.8,6.2,5.7,10.3,5.7
		c6.3,0,7-0.9,4.2-5.6c-1.3-2.2-4.2-7.3-6.5-11.5c-11.3-20.6-15.2-28.4-15.2-29.6c0-1,6.1-1.4,21-1.1l21,0.4l0.1,8.5
		c0.1,4.6-0.3,8.1-0.9,7.7c-0.6-0.4-3-2.9-5.4-5.6c-3.9-4.3-5.2-4.9-10-4.9c-5.2,0-8.4,1.9-6.1,3.7c0.6,0.4,1.9,2.2,2.8,3.9
		c0.8,1.8,4.1,7.7,7.2,13.3c7.2,12.9,13.3,24.8,13.3,26.2C1176.1,15535.3,1133,15535.5,1132.9,15534.2z"/>
	<path class="st0" d="M1574.4,15533.9c-10.8-3.8-15.8-8.9-15.8-15.8c0-3.7,4.3-10.3,8.2-12.9c3.2-2,3.3-2.5,3-13l-0.3-10.9l10.8-0.4
		c10-0.4,11-0.6,14.3-4.1c3.5-3.7,3.5-3.8,1.3-6.3c-1.3-1.4-3.3-2.5-4.4-2.5s-2.5-0.4-3-0.9s-3.5-1-6.8-1.1
		c-5.3-0.1-6.5,0.4-10.3,4.3l-4.3,4.6l-2.9-3.7c-1.6-2.2-3-4.3-3-4.9c0-0.8-1.3-2.7-2.8-4.3l-2.9-3l19.6,0.5
		c17.1,0.4,20.3,0.8,24.7,3.2c10.3,5.4,13,12.5,8.4,21.7c-3.3,6.3-9.9,10-21,11.4c-6.5,0.8-7.6,1.3-7.6,3.4s1.1,2.7,7,3.3
		c14.8,1.6,20.9,6.6,20.6,16.7c-0.1,5.1,0.5,7.3,2.9,10.5c1.6,2.2,3,4.3,3,4.7C1613,15535.3,1577.6,15535.1,1574.4,15533.9z
		 M1588.6,15526c8-7.5-1.8-22.8-10-15.3c-3.5,3.2-3.2,13.6,0.5,16.1C1582.9,15529.4,1585,15529.3,1588.6,15526z"/>
	<path class="st0" d="M1776,15534.2c-1.3-1.1-1.1-16.6,0.1-17.4c0.6-0.4,3.9,2.2,7.2,5.6c5.3,5.3,7,6.3,11,6.3
		c2.5,0,4.9-0.4,5.2-0.9c0.4-0.6-2.5-6.7-6.3-13.7c-12-21.8-15.2-27.7-16.1-30.7l-0.9-2.9h20.9h21v9v9.1l-5.2-6
		c-4.6-5.2-5.7-5.8-10.5-5.8c-3,0-5.7,0.4-6.2,0.8c-0.4,0.4,1,3.9,3.2,7.9c2.2,4.1,6.2,11.5,8.9,16.7c2.8,5.2,6.3,11.8,8,14.6
		c1.6,2.8,3,5.8,3,6.7c0.1,1.1-4.9,1.5-21.2,1.5C1786.4,15535.1,1776.4,15534.7,1776,15534.2z"/>
	<path class="st0" d="M893.5,15514.6c0-0.3-0.3-1.9-0.4-3.8l-0.3-3.5h16h16l-0.3,3.5l-0.1,3.4l-15.3,0.4
		C900.6,15514.7,893.6,15514.7,893.5,15514.6z"/>
</g>
</svg>
