<?xml version="1.0" encoding="utf-8"?>
<!-- Generator: Adobe Illustrator 24.1.2, SVG Export Plug-In . SVG Version: 6.00 Build 0)  -->
<svg version="1.1" id="Layer_1" xmlns="http://www.w3.org/2000/svg" xmlns:xlink="http://www.w3.org/1999/xlink" x="0px" y="0px"
	 viewBox="0 0 75 28" style="enable-background:new 0 0 75 28;" xml:space="preserve">
<style type="text/css">
	.st0{fill:#4D4D4F;}
	.st1{fill:#006E63;}
	.st2{fill:#0065A1;}
	.st3{fill:#00A19B;}
</style>
<g>
	<path class="st0" d="M17.3,22.5h0.5v-2.7h-0.5V22.5z M35.3,19.8H36v0.5h-0.2v2.2h-3.1c-0.2,0.2-0.5,0.3-0.7,0.3
		c-0.3,0-0.5-0.1-0.7-0.3h-11c-0.5,0-0.9-0.4-0.9-0.9c0-0.5,0.4-0.9,0.9-0.9h0.3v-0.2h0.5V22h2.9v-1.4h0.5V22h3.2v-0.6
		c0-0.1-0.1-0.2-0.2-0.2h-1.5l-0.2-0.5l0.5-1h0.5l-0.5,1h1.2c0.4,0,0.6,0.3,0.6,0.6V22h1.2v-2.2h0.5V22h1.3c0-0.1,0-0.1,0-0.2
		c0-0.6,0.4-1,1-1c0.6,0,1,0.4,1,1c0,0.1,0,0.1,0,0.2h1.2v-2.2h0.5V22h0.7L35.3,19.8L35.3,19.8z M20.4,21.1h-0.3
		c-0.3,0-0.5,0.2-0.5,0.5s0.2,0.5,0.5,0.5h0.3V21.1z M32.5,21.8c0-0.3-0.2-0.5-0.5-0.5c-0.3,0-0.5,0.2-0.5,0.5
		c0,0.3,0.2,0.5,0.5,0.5C32.2,22.3,32.5,22.1,32.5,21.8z M37.3,21.6c0-0.5,0.4-0.9,0.9-0.9h0.3v-0.2H39V22h2.7v-1.4h0.5v1.9h-3.9
		C37.7,22.5,37.3,22.1,37.3,21.6z M37.8,21.6c0,0.3,0.2,0.5,0.5,0.5h0.3v-0.9h-0.3C38,21.1,37.8,21.3,37.8,21.6z M56,22.5h0.5v-2.7
		H56V22.5z M63.4,20.1H63V20c0-0.1,0-0.2,0.2-0.2h0.2v-0.1h-0.2c-0.3,0-0.4,0.1-0.4,0.4v0.2h0.7V20.1L63.4,20.1z M57.9,21.6
		c0-0.5,0.4-0.9,0.9-0.9h0.3v-0.2h0.5V22h3.2v-1.4h0.5V22h1.6v-1.4h0.5V22h1.5h0c0-0.1-0.1-0.2-0.1-0.3c0-0.4,0.3-0.7,0.7-0.7
		c0.4,0,0.7,0.3,0.7,0.7c0,0.1,0,0.2-0.1,0.3h0h0.3c0-0.1,0-0.2,0-0.3c0-0.6-0.5-1-1-1c-0.2,0-0.4,0.1-0.5,0.2l-0.3-0.4
		c0.2-0.1,0.5-0.2,0.8-0.2c0.8,0,1.5,0.7,1.5,1.5c0,0.1,0,0.2,0,0.3h1.4v-2.2h0.7v0.5h-0.2v2.2h-12C58.3,22.5,57.9,22.1,57.9,21.6z
		 M67.3,21.7c0,0.2,0.1,0.3,0.3,0.3c0.2,0,0.3-0.1,0.3-0.3s-0.1-0.3-0.3-0.3C67.4,21.4,67.3,21.6,67.3,21.7z M58.4,21.6
		c0,0.3,0.2,0.5,0.5,0.5h0.3v-0.9h-0.3C58.6,21.1,58.4,21.3,58.4,21.6z M71.4,19.8v2.7h0.5v-2.7H71.4z M6.5,23
		c0,0.1,0.1,0.3,0.3,0.3C6.9,23.2,7,23.1,7,23s-0.1-0.3-0.3-0.3C6.7,22.7,6.5,22.8,6.5,23z M7.3,22.7c-0.1,0-0.3,0.1-0.3,0.3
		s0.1,0.3,0.3,0.3c0.1,0,0.3-0.1,0.3-0.3C7.6,22.8,7.5,22.7,7.3,22.7z M14.5,20.2c0.1,0,0.3-0.1,0.3-0.3c0-0.1-0.1-0.3-0.3-0.3
		s-0.3,0.1-0.3,0.3C14.2,20.1,14.3,20.2,14.5,20.2z M23.7,22.7c-0.1,0-0.3,0.1-0.3,0.3s0.1,0.3,0.3,0.3c0.1,0,0.3-0.1,0.3-0.3
		C24,22.8,23.9,22.7,23.7,22.7z M24.5,23c0-0.1-0.1-0.3-0.3-0.3c-0.1,0-0.3,0.1-0.3,0.3s0.1,0.3,0.3,0.3
		C24.4,23.2,24.5,23.1,24.5,23z M58.8,20.2c0.1,0,0.3-0.1,0.3-0.3c0-0.1-0.1-0.3-0.3-0.3c-0.1,0-0.3,0.1-0.3,0.3
		C58.5,20.1,58.7,20.2,58.8,20.2z M59.3,20.2c0.1,0,0.3-0.1,0.3-0.3c0-0.1-0.1-0.3-0.3-0.3c-0.1,0-0.3,0.1-0.3,0.3
		C59.1,20.1,59.2,20.2,59.3,20.2z M41.3,22.7c-0.1,0-0.3,0.1-0.3,0.3s0.1,0.3,0.3,0.3c0.1,0,0.3-0.1,0.3-0.3S41.5,22.7,41.3,22.7z
		 M42.1,23c0-0.1-0.1-0.3-0.3-0.3c-0.1,0-0.3,0.1-0.3,0.3s0.1,0.3,0.3,0.3C42,23.2,42.1,23.1,42.1,23z M64.8,22.7
		c-0.1,0-0.3,0.1-0.3,0.3s0.1,0.3,0.3,0.3s0.3-0.1,0.3-0.3C65.1,22.8,65,22.7,64.8,22.7z M65.1,23c0,0.1,0.1,0.3,0.3,0.3
		c0.1,0,0.3-0.1,0.3-0.3s-0.1-0.3-0.3-0.3C65.3,22.7,65.1,22.8,65.1,23z M38.2,20.2c0.1,0,0.3-0.1,0.3-0.3c0-0.1-0.1-0.3-0.3-0.3
		c-0.1,0-0.3,0.1-0.3,0.3C37.9,20.1,38,20.2,38.2,20.2z M38.7,20.2c0.1,0,0.3-0.1,0.3-0.3c0-0.1-0.1-0.3-0.3-0.3
		c-0.1,0-0.3,0.1-0.3,0.3C38.4,20.1,38.6,20.2,38.7,20.2z M44.2,21.3c0-0.4-0.3-0.6-0.6-0.6h-0.4L43,21.1h0.5c0.1,0,0.2,0.1,0.2,0.2
		V22h-1.2v0.5h1.7V21.3z M20.1,20.2c0.1,0,0.3-0.1,0.3-0.3c0-0.1-0.1-0.3-0.3-0.3c-0.1,0-0.3,0.1-0.3,0.3
		C19.8,20.1,19.9,20.2,20.1,20.2z M20.6,20.2c0.1,0,0.3-0.1,0.3-0.3c0-0.1-0.1-0.3-0.3-0.3c-0.1,0-0.3,0.1-0.3,0.3
		C20.4,20.1,20.5,20.2,20.6,20.2z M4.1,20.2c0.1,0,0.3-0.1,0.3-0.3c0-0.1-0.1-0.3-0.3-0.3c-0.1,0-0.3,0.1-0.3,0.3
		C3.9,20.1,4,20.2,4.1,20.2z M4.7,20.2c0.1,0,0.3-0.1,0.3-0.3c0-0.1-0.1-0.3-0.3-0.3c-0.1,0-0.3,0.1-0.3,0.3
		C4.4,20.1,4.5,20.2,4.7,20.2z M3.3,21.6c0-0.5,0.4-0.9,0.9-0.9h0.3v-0.2h0.5V22h2.1v-1.4h0.5v1.9H4.2C3.7,22.5,3.3,22.1,3.3,21.6z
		 M3.7,21.6c0,0.3,0.2,0.5,0.5,0.5h0.3v-0.9H4.2C3.9,21.1,3.7,21.3,3.7,21.6z M8.2,23.2c-0.1,0-0.2,0-0.2,0v-0.5c0.1,0,0.1,0,0.2,0
		c0.2,0,0.3-0.1,0.3-0.3v-1.8h0.5V22h3v-0.6c0-0.1-0.1-0.2-0.2-0.2H10l-0.2-0.5l0.5-1h0.5l-0.5,1h1.2c0.4,0,0.6,0.3,0.6,0.6V22h1.3
		c-0.1-0.1-0.1-0.3-0.1-0.5c0-0.5,0.4-0.9,0.9-0.9h0.3h0.1h0.3l0,1.4h1.2v-2.2H17v0.5h-0.2v2.2H8.8C8.8,23,8.6,23.2,8.2,23.2z
		 M13.9,21.6c0,0.3,0.2,0.5,0.5,0.5h0.3v-0.9h-0.3C14.1,21.1,13.9,21.3,13.9,21.6z M45.7,22.5h-0.3c-0.5,0-0.9-0.4-0.9-0.9
		c0-0.5,0.4-0.9,0.9-0.9h0.3h0.1h0.3l0,1.4h1.4L47.2,21c0.3-0.3,0.6-0.5,1-0.5c0.4,0,0.7,0.2,1,0.5L48.8,22H50
		c0.3,0,0.5-0.2,0.5-0.5v-1.2H51v1.2c0,0.3,0.2,0.5,0.5,0.5c0.3,0,0.5-0.2,0.5-0.5v-0.8h0.5v0.8c0,0.3,0.2,0.5,0.5,0.5
		c0.3,0,0.5-0.2,0.5-0.5v-1.2h0.5v1.2c0,0.3,0.2,0.5,0.5,0.5H55v-2.2h0.7v0.5h-0.2v2.2h-1.2c-0.3,0-0.5-0.1-0.7-0.3
		c-0.2,0.2-0.4,0.3-0.7,0.3c-0.3,0-0.5-0.1-0.7-0.3c-0.2,0.2-0.4,0.3-0.7,0.3c-0.3,0-0.5-0.1-0.7-0.3c-0.2,0.2-0.4,0.3-0.7,0.3h-3.9
		c0,0.4-0.3,0.7-0.9,0.7c-0.2,0-0.3,0-0.5-0.1v-0.5c0.2,0,0.3,0.1,0.5,0.1C45.5,22.8,45.7,22.7,45.7,22.5z M47.7,21.2L48,22h0.4
		l0.3-0.9C48.5,21,48.4,21,48.2,21C48,21,47.9,21,47.7,21.2z M45.7,22v-0.9h-0.3c-0.3,0-0.5,0.2-0.5,0.5c0,0.3,0.2,0.5,0.5,0.5H45.7
		z"/>
	<path class="st0" d="M7.2,25.6v1.1c-0.2,0.1-0.5,0.1-0.8,0.1c-0.5,0-0.9-0.2-0.9-0.6c0-0.4,0.4-0.6,0.8-0.6c0.1,0,0.2,0,0.4,0v0
		c0-0.2-0.2-0.3-0.4-0.3c-0.2,0-0.5,0.1-0.6,0.2L5.7,25c0.1-0.1,0.4-0.1,0.6-0.1C6.8,24.8,7.2,25,7.2,25.6z M6.7,25.9
		c-0.1,0-0.2,0-0.3,0C6.2,25.9,6,26,6,26.1c0,0.2,0.2,0.2,0.4,0.2c0.1,0,0.2,0,0.3-0.1V25.9z M8.7,26.3c-0.1,0-0.2,0-0.3,0
		c-0.3,0-0.4-0.1-0.4-0.4v-1H7.6V26c0,0.6,0.4,0.7,0.8,0.7c0.3,0,0.5,0,0.8-0.1v-1.7H8.7L8.7,26.3L8.7,26.3z M10.9,24.1h0.5v2.6
		c-0.2,0.1-0.5,0.1-0.7,0.1c-0.7,0-1.1-0.4-1.1-1c0-0.5,0.4-1,1-1c0.1,0,0.2,0,0.3,0V24.1L10.9,24.1z M10.9,25.3c-0.1,0-0.2,0-0.3,0
		c-0.4,0-0.6,0.2-0.6,0.5c0,0.4,0.2,0.5,0.6,0.5c0.1,0,0.2,0,0.3,0V25.3z M11.8,26.7h0.5v-1.8h-0.5V26.7z M17.3,26.3
		c-0.1,0-0.2,0-0.3,0c-0.3,0-0.4-0.1-0.4-0.4v-1h-0.5V26c0,0.6,0.4,0.7,0.8,0.7c0.3,0,0.5,0,0.8-0.1v-1.7h-0.5L17.3,26.3L17.3,26.3z
		 M18.8,26v-0.7h0.7v-0.4h-0.7v-0.7h-0.5v0.7h-0.3v0.4h0.3v0.8c0,0.4,0.2,0.6,0.7,0.6h0.4v-0.4h-0.4C18.9,26.3,18.8,26.2,18.8,26z
		 M20.7,24.8c-0.1,0-0.2,0-0.4,0v-0.8h-0.5v2.6h0.5v-1.4c0.1,0,0.2,0,0.3,0c0.3,0,0.4,0.1,0.4,0.4v1h0.5v-1.1
		C21.6,25,21.2,24.8,20.7,24.8z M23.9,25.8c0,0.5-0.4,1-1,1c-0.6,0-1-0.4-1-1c0-0.5,0.4-1,1-1C23.4,24.8,23.9,25.3,23.9,25.8z
		 M23.4,25.8c0-0.3-0.2-0.5-0.5-0.5c-0.3,0-0.5,0.2-0.5,0.5c0,0.3,0.2,0.5,0.5,0.5C23.2,26.3,23.4,26.1,23.4,25.8z M25.6,26.7H26
		v-1.8h-0.5V26.7z M27.1,26v-0.7h0.7v-0.4h-0.7v-0.7h-0.5v0.7h-0.3v0.4h0.3v0.8c0,0.4,0.2,0.6,0.7,0.6h0.4v-0.4h-0.4
		C27.2,26.3,27.1,26.2,27.1,26z M29.3,26.2c-0.1,0-0.2,0-0.3,0c-0.3,0-0.4-0.1-0.4-0.4v-1h-0.5V26c0,0.6,0.3,0.7,0.8,0.7
		c0.1,0,0.2,0,0.4,0v0c0,0.2-0.2,0.3-0.5,0.3c-0.2,0-0.5-0.1-0.6-0.1l0.1,0.5c0.1,0,0.4,0.1,0.5,0.1c0.7,0,0.9-0.2,0.9-0.9v-1.7
		h-0.5L29.3,26.2L29.3,26.2z M31.3,24.7v0.2H31v0.4h0.3v1.4h0.5v-1.4h0.7v-0.4h-0.7v-0.1c0-0.2,0-0.3,0.3-0.3h0.4v-0.4h-0.4
		C31.5,24.1,31.3,24.3,31.3,24.7z M34.6,25.8c0,0.5-0.4,1-1,1c-0.6,0-1-0.4-1-1c0-0.5,0.4-1,1-1C34.1,24.8,34.6,25.3,34.6,25.8z
		 M34.1,25.8c0-0.3-0.2-0.5-0.5-0.5c-0.3,0-0.5,0.2-0.5,0.5c0,0.3,0.2,0.5,0.5,0.5C33.9,26.3,34.1,26.1,34.1,25.8z M39,24.8
		c-0.2,0-0.5,0-0.8,0.1v1.8h0.5v-1.4c0.1,0,0.2,0,0.3,0c0.3,0,0.4,0.1,0.4,0.4v1h0.5v-1.1C39.8,25,39.4,24.8,39,24.8z M40.9,26v-0.7
		h0.7v-0.4h-0.7v-0.7h-0.5v0.7h-0.3v0.4h0.3v0.8c0,0.4,0.2,0.6,0.7,0.6h0.4v-0.4h-0.4C41,26.3,40.9,26.2,40.9,26z M43.6,26h-1.4
		c0.1,0.2,0.3,0.4,0.5,0.4h0c0.2,0,0.4-0.1,0.5-0.2l0.2,0.4c-0.2,0.1-0.4,0.2-0.8,0.2c-0.6,0-1-0.4-1-1c0-0.6,0.4-1,1-1
		C43.2,24.8,43.7,25.3,43.6,26z M43.2,25.6c0-0.2-0.2-0.3-0.5-0.3c-0.2,0-0.4,0.1-0.5,0.3H43.2z M43.9,26.7h0.5v-2.6h-0.5V26.7z
		 M44.9,26.7h0.5v-2.6h-0.5V26.7z M47.6,26h-1.4c0.1,0.2,0.3,0.4,0.5,0.4h0c0.2,0,0.4-0.1,0.5-0.2l0.2,0.4c-0.2,0.1-0.4,0.2-0.8,0.2
		c-0.6,0-1-0.4-1-1c0-0.6,0.4-1,1-1C47.2,24.8,47.6,25.3,47.6,26z M47.1,25.6c0-0.2-0.2-0.3-0.5-0.3c-0.2,0-0.4,0.1-0.5,0.3H47.1z
		 M48.8,25.3c0.2,0,0.3,0,0.4,0.1l0.2-0.4c-0.2-0.1-0.4-0.1-0.6-0.1c-0.6,0-1,0.4-1,1c0,0.6,0.4,1,1,1c0.2,0,0.4-0.1,0.6-0.1
		l-0.2-0.4c-0.1,0.1-0.3,0.1-0.4,0.1c-0.3,0-0.5-0.2-0.5-0.5C48.3,25.5,48.5,25.3,48.8,25.3z M50.3,26v-0.7H51v-0.4h-0.7v-0.7h-0.5
		v0.7h-0.3v0.4h0.3v0.8c0,0.4,0.2,0.6,0.7,0.6H51v-0.4h-0.4C50.4,26.3,50.3,26.2,50.3,26z M52.5,26.3c-0.1,0-0.2,0-0.3,0
		c-0.3,0-0.4-0.1-0.4-0.4v-1h-0.5V26c0,0.6,0.4,0.7,0.8,0.7c0.3,0,0.5,0,0.8-0.1v-1.7h-0.5L52.5,26.3L52.5,26.3z M55,25.6v1.1
		c-0.2,0.1-0.5,0.1-0.8,0.1c-0.5,0-0.9-0.2-0.9-0.6c0-0.4,0.4-0.6,0.8-0.6c0.1,0,0.2,0,0.4,0v0c0-0.2-0.2-0.3-0.4-0.3
		c-0.2,0-0.5,0.1-0.6,0.2l0.1-0.5c0.1-0.1,0.4-0.1,0.6-0.1C54.7,24.8,55,25,55,25.6z M54.5,25.9c-0.1,0-0.2,0-0.3,0
		c-0.2,0-0.4,0.1-0.4,0.2c0,0.2,0.2,0.2,0.4,0.2c0.1,0,0.2,0,0.3-0.1V25.9L54.5,25.9z M55.5,26.7h0.5v-2.6h-0.5V26.7z M62.8,25.8
		c0,0.5-0.4,1-1,1c-0.6,0-1-0.4-1-1c0-0.5,0.4-1,1-1C62.3,24.8,62.8,25.3,62.8,25.8z M62.3,25.8c0-0.3-0.2-0.5-0.5-0.5
		c-0.3,0-0.5,0.2-0.5,0.5c0,0.3,0.2,0.5,0.5,0.5C62.1,26.3,62.3,26.1,62.3,25.8z M64.9,25.8c0,0.5-0.4,1-1,1c-0.1,0-0.2,0-0.3,0v0.7
		h-0.5v-2.5c0.2-0.1,0.5-0.1,0.7-0.1C64.5,24.8,64.9,25.3,64.9,25.8z M64.4,25.8c0-0.4-0.2-0.5-0.6-0.5c-0.1,0-0.2,0-0.3,0v1
		c0.1,0,0.2,0,0.3,0C64.2,26.3,64.4,26.2,64.4,25.8z M67,26h-1.4c0.1,0.2,0.3,0.4,0.5,0.4h0c0.2,0,0.4-0.1,0.5-0.2l0.2,0.4
		c-0.2,0.1-0.4,0.2-0.8,0.2c-0.6,0-1-0.4-1-1c0-0.6,0.4-1,1-1C66.6,24.8,67,25.3,67,26z M66.5,25.6c0-0.2-0.2-0.3-0.5-0.3
		c-0.2,0-0.4,0.1-0.5,0.3H66.5z M69.3,26v-0.7H70v-0.4h-0.7v-0.7h-0.5v0.7h-0.3v0.4h0.3v0.8c0,0.4,0.2,0.6,0.7,0.6H70v-0.4h-0.4
		C69.4,26.3,69.3,26.2,69.3,26z M71.4,26.2c-0.1,0-0.2,0-0.3,0c-0.3,0-0.4-0.1-0.4-0.4v-1h-0.5V26c0,0.6,0.3,0.7,0.8,0.7
		c0.1,0,0.2,0,0.4,0v0c0,0.2-0.2,0.3-0.5,0.3c-0.2,0-0.5-0.1-0.6-0.1l0.1,0.5c0.1,0,0.4,0.1,0.5,0.1c0.7,0,0.9-0.2,0.9-0.9v-1.7
		h-0.5L71.4,26.2L71.4,26.2z M34.9,25.4v1.3h0.5v-1.3c0-0.1,0.1-0.1,0.1-0.1c0.2,0,0.5,0,0.5,0v-0.4h-0.6
		C35.1,24.9,34.9,25.1,34.9,25.4z M24.2,25.4v1.3h0.5v-1.3c0-0.1,0.1-0.1,0.1-0.1c0.2,0,0.5,0,0.5,0v-0.4h-0.6
		C24.4,24.9,24.2,25.1,24.2,25.4z M59.6,25.4v1.3H60v-1.3c0-0.1,0.1-0.1,0.1-0.1c0.2,0,0.5,0,0.5,0v-0.4h-0.6
		C59.8,24.9,59.6,25.1,59.6,25.4z M67.3,25.4v1.3h0.5v-1.3c0-0.1,0.1-0.1,0.1-0.1c0.2,0,0.5,0,0.5,0v-0.4h-0.6
		C67.5,24.9,67.3,25.1,67.3,25.4z M12,24.1c-0.1,0-0.3,0.1-0.3,0.3c0,0.1,0.1,0.3,0.3,0.3s0.3-0.1,0.3-0.3
		C12.3,24.2,12.2,24.1,12,24.1z M25.8,24.1c-0.1,0-0.3,0.1-0.3,0.3c0,0.1,0.1,0.3,0.3,0.3c0.1,0,0.3-0.1,0.3-0.3
		C26,24.2,25.9,24.1,25.8,24.1z"/>
	<path class="st1" d="M5.3,26c0,0.5-0.4,0.8-1,0.8c-0.4,0-0.7-0.1-1-0.2l0.2-0.4c0.2,0.1,0.5,0.2,0.8,0.2c0.3,0,0.6-0.1,0.6-0.3
		c0-0.2-0.2-0.3-0.5-0.4l-0.2-0.1c-0.5-0.1-0.7-0.4-0.7-0.8c0-0.4,0.4-0.7,0.9-0.7c0.3,0,0.7,0.1,0.9,0.2L5,24.7
		c-0.2-0.1-0.5-0.2-0.7-0.2c-0.2,0-0.5,0.1-0.5,0.3c0,0.2,0.1,0.3,0.4,0.3l0.2,0.1C4.9,25.3,5.3,25.5,5.3,26z M15,24.1l1,2.6h-0.5
		l-0.2-0.6h-1.1L14,26.7h-0.5l1-2.6H15z M15.1,25.7l-0.4-1.1l-0.4,1.1H15.1z M59.3,24.9c0,0.4-0.3,0.8-1,0.8h-0.5v1h-0.5v-2.6h1
		C59,24.1,59.3,24.5,59.3,24.9z M58.8,24.9c0-0.3-0.2-0.4-0.6-0.4h-0.4v0.8h0.4C58.6,25.3,58.8,25.2,58.8,24.9z M37.2,26.7h0.5v-2.6
		h-0.5V26.7z"/>
	<path class="st2" d="M42.6,6.8c0.4-2.2,0.8-4.5-1-5.4C38.6-0.1,30.7,0,29.8,4.1c-0.2,0.8,0.2,2.2,0.7,3.4c0.2-1.4,1.4-3.4,6.8-3.8
		C40.7,3.5,42.1,4.9,42.6,6.8z"/>
	<path class="st1" d="M45.8,4.5c0-1.5-1.5-2.4-3.3-3c0.2,0.2,0.4,0.4,0.5,0.6c0.4,0.7,0.4,2,0.2,3.3c-1.4,9.6-5,9.4-5.3,9.4
		c4,1.4,5.4-2,5.6-2.3C43.6,12.3,45.9,8.1,45.8,4.5z"/>
	<path class="st1" d="M38.5,7.1c0.2,0,0.3,0,0.5,0c0.8,0,1.5,0.3,2.1,0.8c-0.5-1-1.5-1.7-2.7-1.7c-0.1,0-0.2,0-0.3,0
		c0.3-0.4,0.6-0.7,1.1-0.8c-0.7-0.1-1.4,0.2-1.8,0.7c0,0,0-0.1,0-0.1c0-0.4-0.1-0.8-0.3-1.1c-0.2,0.3-0.3,0.7-0.3,1.1
		c0,0,0,0.1,0,0.1c-0.5-0.5-1.1-0.8-1.8-0.7c0.4,0.1,0.8,0.4,1.1,0.8c-0.1,0-0.2,0-0.3,0c-1.2,0-2.2,0.7-2.7,1.7
		c0.5-0.5,1.3-0.8,2.1-0.8c0.2,0,0.3,0,0.5,0c-0.7,0.4-1.3,1.1-1.5,1.9c0.4-0.6,1.1-1,1.9-1.2c0.1,0,0.2,0,0.3,0L37,8.7l0.8-0.9
		c0.1,0,0.2,0,0.3,0C38.9,8,39.6,8.4,40,9C39.8,8.2,39.2,7.5,38.5,7.1z"/>
	<path class="st1" d="M37,10.8c0.2,0,0.4-0.2,0.4-0.4c0-0.2-0.2-0.4-0.4-0.4c-0.2,0-0.4,0.2-0.4,0.4C36.6,10.6,36.8,10.8,37,10.8z"
		/>
	<path class="st1" d="M37,11.6c0.2,0,0.3-0.1,0.3-0.3c0-0.2-0.1-0.3-0.3-0.3c-0.2,0-0.3,0.1-0.3,0.3C36.7,11.5,36.9,11.6,37,11.6z"
		/>
	<path class="st1" d="M37,9.9c0.3,0,0.5-0.2,0.5-0.5c0-0.3-0.2-0.5-0.5-0.5c-0.3,0-0.5,0.2-0.5,0.5C36.5,9.6,36.8,9.9,37,9.9z"/>
	<path class="st1" d="M40.2,11.1c-1.9,0-3.6,0.8-4.8,2H36c0.2,0,0.3-0.1,0.5-0.2c1-0.9,2.3-1.5,3.7-1.7c0.3,0,0.7-0.1,1-0.1
		C40.9,11.1,40.5,11.1,40.2,11.1z"/>
	<path class="st1" d="M33.9,11.1c1.9,0,3.6,0.8,4.8,2H38c-0.2,0-0.3-0.1-0.5-0.2c-1-0.9-2.3-1.5-3.7-1.7c-0.3,0-0.7-0.1-1-0.1
		C33.2,11.1,33.5,11.1,33.9,11.1z"/>
	<path class="st3" d="M29.4,5c-0.6,0.6-1.8,2-1.5,3.7c0.4,2.2,5.6,9.8,9.5,9.8c1.9,0,3.3-1.4,4.8-3.7C39,17.7,31,13.4,29.4,5z"/>
</g>
</svg>
