<?xml version="1.0" encoding="utf-8"?>
<!-- Generator: Adobe Illustrator 24.1.2, SVG Export Plug-In . SVG Version: 6.00 Build 0)  -->
<svg version="1.1" id="Layer_1" xmlns="http://www.w3.org/2000/svg" xmlns:xlink="http://www.w3.org/1999/xlink" x="0px" y="0px"
	 viewBox="0 0 75 28" style="enable-background:new 0 0 75 28;" xml:space="preserve">
<style type="text/css">
	.st0{fill:#01324C;}
	.st1{fill:#81CEC8;}
	.st2{fill:#2BB6AB;}
	.st3{fill:#11918F;}
	.st4{fill:#2CB9A8;}
	.st5{fill:#0B746F;}
</style>
<g>
	<g>
		<g>
			<circle class="st0" cx="52.4" cy="24.6" r="0.3"/>
			<circle class="st0" cx="23.5" cy="24.6" r="0.3"/>
			<circle class="st0" cx="22.8" cy="24.6" r="0.3"/>
			<path class="st0" d="M23.4,23.3H23c-0.3,0-0.5-0.1-0.7-0.2V23v-1.3h-1.1c-0.6,0-1.1,0.5-1.1,1.1v0c0,0.6,0.5,1.1,1.1,1.1
				c0.3,0,0.6-0.1,0.8-0.3c0.3,0.2,0.7,0.3,1.1,0.3h1.1v-2.4h-0.6L23.4,23.3L23.4,23.3z M21.7,22.8c0,0.3-0.2,0.5-0.5,0.5
				c-0.3,0-0.5-0.2-0.5-0.5v0c0-0.3,0.2-0.5,0.5-0.5h0.5V22.8z"/>
			<path class="st0" d="M25.3,21.6h-0.4v0.6h0.4c0.4,0,0.6,0.3,0.6,0.6v0.5h-1.3V24h2v-1.1C26.6,22.1,26,21.6,25.3,21.6z"/>
			<path class="st0" d="M37.1,23.3h-0.8c-0.1,0-0.2-0.1-0.2-0.2v-0.9v-0.4h-0.6v0.4v0.9c0,0.1-0.1,0.2-0.2,0.2H35
				c-0.1,0-0.2-0.1-0.2-0.2v-1.2h-0.6v1.2c0,0.1-0.1,0.2-0.2,0.2h-0.1c-0.1,0-0.2-0.1-0.2-0.2v-0.9h0h-0.6h0v0.9
				c0,0.1-0.1,0.2-0.2,0.2l-1.5,0c-0.3-0.2-0.5-0.5-0.5-0.7c0-0.3,0.3-0.4,0.5-0.4c0.2,0,0.5,0.1,0.6,0.2l0.3-0.6
				c-0.1,0-0.5-0.3-0.9-0.3c-0.3,0-0.5,0.1-0.7,0.3c-0.2,0.2-0.4,0.5-0.4,0.8c0,0.2,0.1,0.5,0.3,0.7l-1.1,0v-1.7h-1.1
				c-0.6,0-1.1,0.5-1.1,1.1v0c0,0.6,0.5,1.1,1.1,1.1h0.5c0,0.2-0.1,0.4-0.4,0.4l0.1,0.6c0.4-0.1,0.8-0.3,0.9-0.8
				c0-0.1,0-0.2,0.1-0.3l3.2,0v0h0.1c0.2,0,0.4-0.1,0.6-0.2c0.2,0.1,0.4,0.2,0.6,0.2h0.1c0.2,0,0.4-0.1,0.6-0.2
				c0.2,0.1,0.4,0.2,0.6,0.2h0.2c0.2,0,0.4-0.1,0.6-0.2c0.1,0.1,0.3,0.2,0.5,0.2v0h0c0,0,0,0,0.1,0h0.1v0l1.2,0v-3.3h-0.6L37.1,23.3
				L37.1,23.3z M28.6,23.3h-0.5c-0.3,0-0.5-0.2-0.5-0.5v0c0-0.3,0.2-0.5,0.5-0.5h0.5V23.3z"/>
			<rect x="38.5" y="20.7" class="st0" width="0.6" height="3.3"/>
			<rect x="55.7" y="20.7" class="st0" width="0.6" height="3.3"/>
			<path class="st0" d="M43.7,23.3h-2.2c-0.1,0-0.3-0.1-0.3-0.3v-0.5h-0.6v0.5c0,0.5,0.4,0.9,0.9,0.9h2.8v-3.3h-0.6L43.7,23.3
				L43.7,23.3z"/>
			<path class="st0" d="M43,22.2h-0.6v-0.2c0-0.1,0.1-0.3,0.3-0.3h0.2v-0.4h-0.2c-0.4,0-0.7,0.3-0.7,0.7v0.6h1L43,22.2L43,22.2
				L43,22.2z"/>
			<path class="st0" d="M45.1,24c0,0.1,0,0.2-0.1,0.3c-0.1,0.1-0.1,0.1-0.2,0.1l0.1,0.6c0.2,0,0.4-0.1,0.6-0.3
				c0.2-0.2,0.3-0.4,0.3-0.7v-2.3h-0.6L45.1,24L45.1,24z"/>
			<path class="st0" d="M54.4,23.3h-0.9c0-0.5-0.2-0.9-0.4-1.2c-0.4-0.4-0.8-0.4-0.8-0.4h-1.2v0.6h1.1c0,0,0.2,0,0.4,0.2
				c0.2,0.2,0.2,0.5,0.3,0.8h-2.1c0,0-0.2-0.1-0.3-0.3h0c0,0,0-0.1,0-0.2c0-0.7-0.5-1.2-1.1-1.2c-0.6,0-1.1,0.5-1.1,1.2
				c0,0.1,0,0.1,0,0.2c-0.1,0.2-0.3,0.2-0.3,0.3h-0.7v-2.7h-0.6V24h1.4h0c0.1,0,0.4-0.1,0.5-0.3c0.2,0.2,0.5,0.4,0.8,0.4
				c0.3,0,0.6-0.2,0.8-0.4c0.2,0.2,0.4,0.3,0.6,0.3h2.7l0,0H55v-3.3h-0.6L54.4,23.3L54.4,23.3L54.4,23.3z M49.3,23.4
				c-0.3,0-0.5-0.2-0.5-0.6c0-0.3,0.2-0.6,0.5-0.6c0.3,0,0.5,0.2,0.5,0.6C49.8,23.2,49.6,23.4,49.3,23.4z"/>
			<circle class="st0" cx="22" cy="21" r="0.3"/>
			<circle class="st0" cx="21.3" cy="21" r="0.3"/>
		</g>
		<g>
			<path d="M50.9,27.1c-0.1-0.1-0.1-0.1-0.2-0.2c-0.1,0-0.2-0.1-0.3-0.1c-0.1,0-0.2,0-0.3-0.1c-0.1,0-0.2,0-0.2-0.1
				c-0.1,0-0.1-0.1-0.1-0.1c0-0.1,0.1-0.2,0.3-0.2c0.2,0,0.4,0.1,0.4,0.3h0.4c0-0.2-0.1-0.3-0.2-0.4C50.6,26,50.4,26,50.2,26
				c-0.2,0-0.4,0-0.6,0.1c-0.1,0.1-0.2,0.2-0.2,0.4c0,0.1,0,0.2,0.1,0.3c0,0.1,0.1,0.1,0.2,0.2c0.1,0,0.1,0.1,0.2,0.1
				c0.1,0,0.2,0,0.2,0.1c0.1,0,0.2,0,0.2,0c0.1,0,0.1,0,0.2,0.1c0,0,0.1,0.1,0.1,0.1c0,0.2-0.1,0.2-0.3,0.2c-0.3,0-0.4-0.1-0.4-0.3
				h-0.4c0,0.2,0.1,0.4,0.2,0.5c0.1,0.1,0.3,0.2,0.6,0.2c0.2,0,0.4-0.1,0.6-0.2c0.1-0.1,0.2-0.3,0.2-0.4
				C51,27.2,50.9,27.2,50.9,27.1z"/>
			<path d="M28.4,26H28h0l-0.8,1.9h0.4l0.2-0.4h0.5h0.5l0.2,0.4h0.4L28.4,26L28.4,26z M28.2,27.2h-0.3l0.3-0.8v0v0l0.3,0.8H28.2z"/>
			<path d="M30.9,27.2c0,0.3-0.2,0.5-0.5,0.5s-0.5-0.2-0.5-0.5V26h-0.3v1.1c0,0.5,0.4,0.8,0.8,0.8c0.5,0,0.8-0.4,0.8-0.8V26h-0.3
				V27.2L30.9,27.2z"/>
			<path d="M39.9,27.2c0,0.3-0.2,0.5-0.5,0.5c-0.3,0-0.5-0.2-0.5-0.5V26h-0.3v1.1c0,0.5,0.4,0.8,0.8,0.8s0.8-0.4,0.8-0.8V26h-0.3
				L39.9,27.2L39.9,27.2z"/>
			<path d="M32.6,26h-0.8v1.9h0.8c0.5,0,0.9-0.4,0.9-0.9v-0.2C33.4,26.4,33,26,32.6,26z M33.1,27.1c0,0.3-0.2,0.6-0.6,0.6h-0.5v-1.3
				h0.5c0.3,0,0.6,0.2,0.6,0.6V27.1z"/>
			<rect x="34" y="26" width="0.3" height="1.9"/>
			<path d="M37.1,26.3c0.3,0,0.5,0.2,0.6,0.5H38c-0.1-0.4-0.5-0.8-1-0.8c-0.5,0-1,0.4-1,1s0.4,1,1,1c0.5,0,0.8-0.3,1-0.8h-0.3
				c-0.1,0.3-0.3,0.5-0.6,0.5c-0.4,0-0.7-0.3-0.7-0.7C36.4,26.6,36.7,26.3,37.1,26.3z"/>
			<polygon points="42.5,26.3 43.2,26.3 43.2,27.9 43.5,27.9 43.5,26.3 44.2,26.3 44.2,26 42.5,26 			"/>
			<path d="M45.5,26c-0.6,0-1,0.4-1,1s0.4,1,1,1s1-0.4,1-1S46,26,45.5,26z M45.5,27.7c-0.4,0-0.7-0.3-0.7-0.7c0-0.4,0.3-0.7,0.7-0.7
				c0.4,0,0.7,0.3,0.7,0.7C46.1,27.4,45.8,27.7,45.5,27.7z"/>
			<polygon points="47.9,27.2 47.1,26 46.9,26 46.9,27.9 47.2,27.9 47.2,26.8 47.8,27.6 48,27.6 48.5,26.8 48.5,27.9 48.9,27.9 
				48.9,26 48.6,26 			"/>
			<path d="M26.6,26.9c-0.1,0-0.2-0.1-0.3-0.1c-0.1,0-0.2,0-0.3-0.1c-0.1,0-0.2,0-0.2-0.1c-0.1,0-0.1-0.1-0.1-0.2
				c0-0.2,0.1-0.2,0.4-0.2c0.2,0,0.4,0.1,0.4,0.3h0.3c0-0.2-0.1-0.3-0.2-0.4c-0.1-0.1-0.3-0.2-0.5-0.2c-0.2,0-0.4,0-0.5,0.1
				s-0.2,0.2-0.2,0.4c0,0.1,0,0.2,0.1,0.3c0,0.1,0.1,0.1,0.2,0.2c0.1,0,0.1,0.1,0.2,0.1c0.1,0,0.2,0,0.2,0.1c0.1,0,0.2,0,0.2,0
				s0.1,0,0.2,0.1c0,0,0.1,0.1,0.1,0.2c0,0.2-0.1,0.3-0.4,0.3c-0.3,0-0.4-0.1-0.5-0.3h-0.4c0,0.2,0.1,0.3,0.2,0.4
				c0.1,0.1,0.3,0.2,0.6,0.2c0.2,0,0.4-0.1,0.6-0.2c0.1-0.1,0.2-0.2,0.2-0.4c0-0.1,0-0.2-0.1-0.3C26.8,27,26.7,27,26.6,26.9z"/>
			<path d="M42,26.9c-0.1,0-0.2-0.1-0.3-0.1s-0.2,0-0.3-0.1c-0.1,0-0.2,0-0.2-0.1c-0.1,0-0.1-0.1-0.1-0.2c0-0.2,0.1-0.2,0.4-0.2
				c0.2,0,0.4,0.1,0.4,0.3h0.3c0-0.2-0.1-0.3-0.2-0.4c-0.1-0.1-0.3-0.2-0.5-0.2c-0.2,0-0.4,0-0.5,0.1c-0.1,0.1-0.2,0.2-0.2,0.4
				c0,0.1,0,0.2,0.1,0.3c0,0.1,0.1,0.1,0.2,0.2c0.1,0,0.1,0.1,0.2,0.1c0.1,0,0.2,0,0.2,0.1c0.1,0,0.2,0,0.2,0c0.1,0,0.1,0,0.2,0.1
				c0,0,0.1,0.1,0.1,0.2c0,0.2-0.1,0.3-0.4,0.3c-0.3,0-0.4-0.1-0.5-0.3h-0.4c0,0.2,0.1,0.3,0.2,0.4c0.1,0.1,0.3,0.2,0.6,0.2
				c0.2,0,0.4-0.1,0.6-0.2s0.2-0.2,0.2-0.4c0-0.1,0-0.2-0.1-0.3C42.1,27,42,27,42,26.9z"/>
		</g>
	</g>
	<g>
		<path class="st1" d="M37.9,0c0,0-5,0-6.5,1.4C31.1,1.7,31,2,31,2.4V3c0,0,2.5-2,6.5-0.6C37.5,2.4,37.8,0.4,37.9,0z"/>
		<path class="st1" d="M35.7,3.2c0,0-2.6-0.8-4.7,0.5V6C31,6,32.7,3.9,35.7,3.2z"/>
		<path class="st2" d="M35.5,4.8C35.5,4.8,33,5,31,7v2.8c0,0,0.1,1.8,0.3,2.2c0,0,2.9-0.6,6.1,1.6c0,0,0.2-0.3,0.2-1.1
			c0-0.8,0-5.8,0-5.8s-1.4,1.1-1.8,2.9c0,0-0.1,0.5-0.3,0.5s-0.2-0.7-0.1-1.4c0.2-0.7,0.6-1.8,1.2-2.6c0,0-1.9,0.2-3.2,2.9
			c0,0-0.1,0.5-0.4,0.4C32.9,9.2,33.2,6.7,35.5,4.8z"/>
		<path class="st3" d="M31.5,12.5c0,0,0.9,2.8,2.9,4.3c0,0,1.2-0.4,2.9-2C37.3,14.8,35,12.8,31.5,12.5z"/>
		<path class="st1" d="M38.4,0c0,0,5,0,6.5,1.4c0.3,0.2,0.4,0.6,0.4,0.9V3c0,0-2.5-2-6.5-0.6C38.9,2.4,38.6,0.4,38.4,0z"/>
		<path class="st1" d="M40.7,3.2c0,0,2.6-0.8,4.7,0.5V6C45.4,6,43.6,3.9,40.7,3.2z"/>
		<path class="st4" d="M40.9,4.8c0,0,2.5,0.2,4.5,2.2v2.8c0,0-0.1,1.8-0.3,2.2c0,0-2.9-0.6-6.1,1.6c0,0-0.2-0.3-0.2-1.1
			c0-0.8,0-5.8,0-5.8s1.4,1.1,1.8,2.9c0,0,0.1,0.5,0.3,0.5s0.2-0.7,0.1-1.4C40.7,8,40.3,6.8,39.7,6c0,0,1.9,0.2,3.2,2.9
			c0,0,0.1,0.5,0.4,0.4C43.5,9.2,43.2,6.7,40.9,4.8z"/>
		<path class="st3" d="M44.9,12.5c0,0-0.9,2.8-2.9,4.3c0,0-1.2-0.4-2.9-2C39.1,14.8,41.4,12.8,44.9,12.5z"/>
		<path class="st5" d="M38.2,15.5c-1.7,1.6-2.8,2.2-2.8,2.2c0.8,0.6,2.1,1.2,2.6,1.4c0.1,0.1,0.3,0.1,0.4,0c0.5-0.2,1.8-0.7,2.6-1.4
			C41,17.6,39.8,17.1,38.2,15.5z"/>
	</g>
</g>
</svg>
