<?xml version="1.0" encoding="utf-8"?>
<!-- Generator: Adobe Illustrator 24.1.2, SVG Export Plug-In . SVG Version: 6.00 Build 0)  -->
<svg version="1.1" id="Layer_1" xmlns="http://www.w3.org/2000/svg" xmlns:xlink="http://www.w3.org/1999/xlink" x="0px" y="0px"
	 viewBox="0 0 75 28" style="enable-background:new 0 0 75 28;" xml:space="preserve">
<style type="text/css">
	.st0{fill:#00B258;}
	.st1{fill:#007DC5;}
	.st2{fill:#F15A31;}
</style>
<g id="Layer_2_00000093172923424553829460000012290613533744953477_">
	<g id="Layer_1-2">
		<path class="st0" d="M40.1,8.4c0.2,0,0.3,0.1,0.4,0.2l-0.2,0.1c0,0,0-0.1-0.1-0.1c-0.1,0-0.2,0-0.2,0c0,0-0.1,0.1-0.1,0.1
			c0,0,0,0.1,0.2,0.1l0.1,0c0.1,0,0.2,0.1,0.2,0.1c0,0,0.1,0.1,0.1,0.2c0,0.1,0,0.2-0.1,0.2c-0.2,0.1-0.4,0.1-0.6,0
			c-0.1-0.1-0.1-0.2-0.1-0.2l0.2,0c0,0,0,0.1,0,0.1c0,0,0.1,0.1,0.2,0.1s0.1,0,0.2,0c0.1,0,0.1-0.1,0-0.2c0,0,0,0,0,0c0,0,0,0-0.1,0
			c0,0-0.1,0-0.1,0L40,9c-0.2-0.1-0.3-0.2-0.3-0.3c0-0.1,0-0.2,0.1-0.2C39.9,8.5,40,8.4,40.1,8.4"/>
		<polygon class="st0" points="41.4,8.6 40.9,8.6 40.9,8.9 41.4,8.9 41.4,9.1 40.9,9.1 40.9,9.6 40.7,9.6 40.7,8.4 41.4,8.4 		"/>
		<path class="st0" d="M41.9,9.4L41.9,9.4c0.2,0,0.2,0,0.3,0c0.1,0,0.1,0,0.2-0.1c0.1-0.1,0.2-0.2,0.2-0.3c0-0.1,0-0.2-0.2-0.3
			c-0.1-0.1-0.3-0.1-0.4-0.1h-0.1V9.4z M41.7,9.6V8.5H42c0.1,0,0.2,0,0.3,0c0.1,0,0.2,0.1,0.2,0.1c0.2,0.2,0.3,0.5,0.1,0.7
			c0,0-0.1,0.1-0.1,0.1c-0.1,0-0.1,0.1-0.2,0.1c-0.1,0-0.2,0-0.3,0L41.7,9.6z"/>
		<path class="st0" d="M43.6,9.1l-0.2-0.4l-0.2,0.4H43.6z M43.7,9.3h-0.6L43,9.6h-0.2l0.7-1.2l0.7,1.2h-0.2L43.7,9.3z"/>
		<path class="st1" d="M39.1,3.2c-2.6-1.7-7.6,3.9-7.6,3.9v0.2l1.5-1.5c3-2.6,4.4-1.1,4.4-1.1c2.2,2.3-6.6,8-6.6,8l0,0.1
			c1.9-0.7,5.8-4,5.8-4C41.2,4.7,39.1,3.2,39.1,3.2"/>
		<path class="st0" d="M46.4,4.1L46.4,4.1c-1.9,0.6-3.8,1.3-5.6,2.3c0,0-0.2-1.6,2.7-2.5l0-0.2c0,0-4,0.9-4.1,3.5
			c0,0-4.3,3.2-2.8,5.2c0,0,1.2,1.6,4.9-0.5c0,0,2.4-1.5,3.3-2.2l0-0.2c0,0-4.7,3.9-6.3,1.6C36.8,8.8,45.4,4.3,46.4,4.1"/>
		<path class="st2" d="M40.7,1c-0.6,0-1.1,0.5-1.1,1.1s0.5,1.1,1.1,1.1s1.1-0.5,1.1-1.1C41.9,1.5,41.3,1,40.7,1"/>
		<path class="st1" d="M2.6,19.8c-0.1-0.1-0.1-0.1-0.1-0.3c0-0.4,0.4-0.8,0.9-0.8c0.2,0,0.3,0.1,0.5,0.1L3.7,19
			c-0.1-0.1-0.2-0.1-0.4-0.1c-0.3,0-0.6,0.2-0.6,0.5c0,0.2,0,0.2,0.1,0.3c0.1,0.1,0.3,0.1,0.5,0.1h0.6l-0.1,0.2H2.5v-0.2H2.6z"/>
		<rect x="4.4" y="15.8" class="st1" width="0.5" height="4.2"/>
		<path class="st1" d="M9.2,19.3c0,1.7-0.7,1.9-1.9,1.9c-0.2,0-0.6,0-0.6,0S6.5,21,6.3,20.7c1,0,1.8,0.1,2.1-0.3
			c0.1-0.2,0.3-0.4,0.3-1.1c0-1-0.4-1.8-1.3-1.8c-0.6,0-1.3,0.3-1.3,1.4c0,0.5,0.2,0.6,0.7,0.6h1.4l-0.4,0.5H7
			c-1.1,0-1.5-0.1-1.5-1.1c0-1,0.8-1.9,1.8-1.9C8.7,17,9.2,18.2,9.2,19.3"/>
		<path class="st1" d="M9.9,20.1l-0.3-0.5h2c0.6,0,0.9,0,1.1-0.2c0.1-0.2,0.2-0.3,0.2-0.7c0-0.5-0.7-1-1.3-1c-0.9,0-1.1,0.5-1.4,1.2
			H9.7c0,0,0.1-0.3,0.1-0.4c0.2-0.8,1-1.3,1.8-1.3c1.1,0,1.9,0.9,1.9,1.7c0,0.3-0.1,0.5-0.2,0.7H14V20L9.9,20.1L9.9,20.1z"/>
		<polygon class="st1" points="14.5,19.5 14.5,15.8 15,15.8 15,20.1 13.7,20.1 13.7,19.5 		"/>
		<rect x="15.7" y="15.8" class="st1" width="0.5" height="4.2"/>
		<path class="st1" d="M20.5,19.3c0,1.7-0.7,1.9-1.9,1.9c-0.2,0-0.6,0-0.6,0s-0.1-0.2-0.3-0.5c1,0,1.8,0.1,2.1-0.3
			c0.1-0.2,0.3-0.4,0.3-1.1c0-1-0.4-1.8-1.3-1.8c-0.6,0-1.3,0.3-1.3,1.4c0,0.5,0.2,0.6,0.7,0.6h1.4l-0.4,0.5h-0.8
			c-1.1,0-1.5-0.1-1.5-1.1c0-1,0.8-1.9,1.8-1.9C20,17,20.5,18.2,20.5,19.3"/>
		<path class="st1" d="M22.7,19.8c-0.1-0.1-0.1-0.1-0.1-0.3c0-0.4,0.4-0.8,0.9-0.8c0.2,0,0.3,0.1,0.5,0.1L23.8,19
			c-0.1-0.1-0.2-0.1-0.4-0.1c-0.3,0-0.6,0.2-0.6,0.5c0,0.2,0,0.2,0.1,0.3c0.1,0.1,0.3,0.1,0.5,0.1h0.6l-0.1,0.2h-1.3v-0.2H22.7z"/>
		<rect x="24.5" y="15.8" class="st1" width="0.5" height="4.2"/>
		<path class="st1" d="M27.7,16.3c0,0.2-0.1,0.4-0.3,0.4l0,0c-0.2,0-0.4-0.1-0.4-0.3c0-0.2,0.1-0.4,0.3-0.4
			C27.5,15.9,27.7,16.1,27.7,16.3C27.7,16.3,27.7,16.3,27.7,16.3 M25.8,20.1l-0.3-0.5h2c0.6,0,0.9,0,1.1-0.2
			c0.1-0.2,0.2-0.3,0.2-0.7c0-0.5-0.7-1-1.3-1c-0.9,0-1.1,0.5-1.4,1.2h-0.6c0,0,0.1-0.3,0.1-0.4c0.2-0.8,1-1.3,1.8-1.3
			c1.1,0,1.9,0.9,1.9,1.7c0,0.3-0.1,0.5-0.2,0.7h0.6V20L25.8,20.1L25.8,20.1z"/>
		<path class="st1" d="M31.9,16.2c0,0.2-0.1,0.4-0.3,0.4s-0.4-0.1-0.4-0.3c0-0.2,0.1-0.4,0.3-0.4C31.7,15.9,31.9,16,31.9,16.2
			L31.9,16.2 M33.4,18.6c0-0.5-0.6-1-1.6-1c-0.6,0-1.5,0.5-1.5,1c0,0.4,0,0.5,0.1,0.7c0.2,0.2,0.8,0.2,1.4,0.2c0.6,0,1.2,0,1.4-0.2
			C33.4,19.1,33.4,19,33.4,18.6 M29.5,19.5h0.5c-0.1-0.1-0.2-0.2-0.2-0.7c0-0.5,0.2-0.9,0.6-1.2h-0.6l0.5-0.5h1.7
			c1.1,0,1.9,0.9,1.9,1.7c0,0.5-0.1,0.6-0.2,0.7h0.5V20h-4.8L29.5,19.5L29.5,19.5z"/>
		<polygon class="st1" points="34.9,19.5 34.9,15.9 35.5,15.9 35.5,19.5 36.1,19.5 36.1,20.1 34.1,20.1 34.1,19.5 		"/>
		<polygon class="st1" points="36.8,19.5 36.8,15.8 37.3,15.8 37.3,20.1 35.9,20.1 35.9,19.5 		"/>
		<path class="st1" d="M42,16.1c0,0.2-0.1,0.4-0.3,0.4c-0.2,0-0.4-0.1-0.4-0.3c0-0.2,0.1-0.4,0.3-0.4C41.8,15.8,42,15.9,42,16.1
			L42,16.1 M41.2,16.1c0,0.2-0.1,0.4-0.3,0.4l0,0c-0.2,0-0.4-0.1-0.4-0.3c0-0.2,0.1-0.4,0.3-0.4C41,15.7,41.2,15.9,41.2,16.1
			L41.2,16.1 M40,18.6c0,0.4,0,0.6,0.1,0.7c0.2,0.2,0.7,0.2,1.2,0.2h1.2c0.4,0,0.2-0.9,0.2-0.9c-0.2-0.7-0.5-1.1-1.4-1.1
			C40.6,17.6,40,18.1,40,18.6 M43.2,17v2.5h0.4v0.5h-3.4c-0.3-0.1-0.5-0.2-0.7-0.5c-0.1-0.3-0.2-0.3-0.2-0.8c0-0.8,0.8-1.7,1.9-1.7
			c0.5,0,1,0.2,1.4,0.6V17L43.2,17z"/>
		<path class="st1" d="M45.9,18.4c0.3,0.4,0.4,0.8,0.3,1.3c0,0.1-0.1,0.3-0.2,0.4c-0.2,0.2-0.4,0.5-0.7,0.4
			c-0.4-0.2-0.9-0.5-0.9-0.5l0.1-0.6c0,0,0.7,0.5,0.9,0.5c0,0,0.3,0,0.3-0.6c0-0.4-0.3-0.7-0.7-0.7c0,0-0.1,0-0.1,0
			c-0.5,0-0.6,0.2-0.7,0.6c-0.1,0.3,0,0.6-0.4,0.8c-0.1,0-0.2,0.1-0.4,0h-0.2v-0.5h0.2c0.1,0,0.2,0,0.2-0.1c0-0.6,0.2-1.3,1.3-1.3
			C45.4,18.1,45.7,18.2,45.9,18.4"/>
		<polygon class="st1" points="48.1,20.1 46.7,20.1 46.7,15.8 47.3,15.8 47.3,19.5 48.1,19.5 		"/>
		<path class="st1" d="M51.8,18.6c0-0.5-0.6-1-1.5-1c-0.6,0-1.5,0.5-1.5,1c0,0.4,0,0.5,0.1,0.7c0.2,0.2,0.8,0.2,1.4,0.2
			s1.2,0,1.4-0.2C51.8,19.1,51.8,19,51.8,18.6 M47.9,19.5h0.5c-0.1-0.1-0.2-0.2-0.2-0.7c0-0.5,0.2-0.9,0.6-1.2h-0.5l0.5-0.5h1.7
			c1.1,0,1.9,0.9,1.9,1.7c0,0.5-0.1,0.6-0.2,0.7h0.5V20h-4.8L47.9,19.5z"/>
		<polygon class="st1" points="53.3,19.5 53.3,15.8 53.8,15.8 53.8,20.1 52.5,20.1 52.5,19.5 		"/>
		<rect x="54.5" y="15.8" class="st1" width="0.5" height="4.2"/>
		<path class="st1" d="M59.6,16.1c0,0.2-0.1,0.4-0.3,0.4c-0.2,0-0.4-0.1-0.4-0.3c0-0.2,0.1-0.4,0.3-0.4
			C59.4,15.7,59.6,15.9,59.6,16.1C59.6,16.1,59.6,16.1,59.6,16.1 M58.8,16.1c0,0.2-0.1,0.4-0.3,0.4l0,0c-0.2,0-0.4-0.1-0.4-0.3
			c0-0.2,0.1-0.4,0.3-0.4C58.6,15.8,58.8,15.9,58.8,16.1L58.8,16.1 M57.6,18.6c0,0.4,0,0.6,0.1,0.7c0.2,0.2,0.7,0.2,1.2,0.2h1.2
			c0.4,0,0.2-0.9,0.2-0.9c-0.2-0.7-0.5-1.1-1.4-1.1C58.3,17.6,57.6,18.1,57.6,18.6 M60.8,17v2.5h0.4v0.5h-3.4
			c-0.3-0.1-0.5-0.2-0.7-0.5c-0.1-0.3-0.2-0.3-0.2-0.8c0-0.8,0.8-1.7,1.9-1.7c0.5,0,1,0.2,1.4,0.5V17L60.8,17z"/>
		<path class="st1" d="M61.7,17.2c0,0-0.1-0.1-0.1-0.2c0-0.3,0.3-0.6,0.6-0.6c0.1,0,0.2,0,0.4,0.1l-0.1,0.2c-0.1,0-0.2-0.1-0.3-0.1
			c-0.2,0-0.4,0.2-0.4,0.3c0,0.1,0,0.2,0,0.2c0.1,0.1,0.2,0.1,0.4,0.1h0.4l-0.1,0.2h-0.9L61.7,17.2L61.7,17.2L61.7,17.2z M61.9,19.5
			v-1.7h0.5v1.7h0.7v0.5h-2v-0.5H61.9z"/>
		<path class="st1" d="M64.6,20.7c0,0.2-0.1,0.4-0.3,0.4l0,0c-0.2,0-0.4-0.1-0.4-0.3c0-0.2,0.1-0.4,0.3-0.4
			C64.3,20.4,64.5,20.5,64.6,20.7L64.6,20.7 M63.8,20.7c0,0.2-0.1,0.4-0.3,0.4c-0.2,0-0.4-0.1-0.4-0.3c0-0.2,0.1-0.4,0.3-0.4
			C63.6,20.4,63.7,20.5,63.8,20.7L63.8,20.7 M63.7,19.5v-1.7h0.5v1.7h0.7v0.5h-2v-0.5H63.7z"/>
		<path class="st1" d="M68.5,18.6c0-0.5-0.8-1-1.3-1v2c0.6,0,1,0,1.2-0.2C68.5,19.1,68.5,19,68.5,18.6 M66.6,17.6
			c-0.6,0-1.2,0.6-1.2,1c0,0.4,0,0.5,0.1,0.7c0.2,0.2,1.1,0.2,1.1,0.2L66.6,17.6L66.6,17.6z M66.6,16.8l0.5-0.2V17
			c1.1,0,1.9,0.9,1.9,1.7c0,0.5-0.1,0.6-0.2,0.7h0.5v0.5h-4.8v-0.5h0.5c-0.1-0.1-0.2-0.2-0.2-0.7c0-0.7,0.6-1.5,1.7-1.7L66.6,16.8z"
			/>
		<polygon class="st1" points="70,19.5 70,15.8 70.5,15.8 70.5,20.1 69.1,20.1 69.1,19.5 		"/>
		<rect x="71.2" y="15.8" class="st1" width="0.5" height="4.2"/>
		<path class="st1" d="M4.8,23.8l-0.4,0.2c0-0.1-0.1-0.2-0.2-0.3c-0.1,0-0.2-0.1-0.3-0.1c-0.1,0-0.3,0-0.4,0.1
			c-0.1,0.1-0.2,0.2-0.1,0.3c0,0.2,0.1,0.3,0.4,0.4l0.3,0.1c0.2,0.1,0.4,0.2,0.6,0.4C4.9,25.3,5,25.5,5,25.7c0,0.3-0.1,0.6-0.3,0.8
			c-0.2,0.2-0.5,0.3-0.8,0.3c-0.3,0-0.5-0.1-0.7-0.3c-0.2-0.2-0.3-0.5-0.4-0.8l0.5-0.1c0,0.2,0,0.3,0.1,0.4c0.1,0.2,0.3,0.2,0.5,0.2
			c0.2,0,0.3,0,0.4-0.2s0.2-0.3,0.2-0.4c0-0.1,0-0.1,0-0.2c0-0.1,0-0.1-0.1-0.2c0,0-0.1-0.1-0.2-0.1c-0.1,0-0.2-0.1-0.2-0.1
			l-0.3-0.1c-0.5-0.2-0.7-0.5-0.7-0.9c0-0.2,0.1-0.5,0.3-0.7c0.2-0.2,0.5-0.3,0.7-0.2C4.3,23.2,4.7,23.5,4.8,23.8"/>
		<path class="st1" d="M6.1,25.7c0,0.2,0,0.4,0.2,0.5c0.1,0.1,0.3,0.2,0.4,0.2c0.2,0,0.3-0.1,0.4-0.2c0.2-0.3,0.2-0.7,0-1
			C7,25,6.9,25,6.7,25c-0.2,0-0.3,0.1-0.4,0.2C6.1,25.3,6.1,25.5,6.1,25.7 M7.3,24.6h0.5v2.2H7.3v-0.2c-0.4,0.4-1,0.4-1.4,0
			c0,0,0,0,0,0c-0.2-0.2-0.3-0.5-0.3-0.9c0-0.3,0.1-0.6,0.3-0.8c0.2-0.2,0.4-0.3,0.7-0.3c0.3,0,0.5,0.1,0.7,0.3V24.6z"/>
		<path class="st1" d="M9.3,24.6v1.3c0,0.4,0.1,0.5,0.4,0.5c0.3,0,0.4-0.2,0.4-0.5v-1.3h0.5v1.3c0,0.2,0,0.3-0.1,0.4
			c0,0.1-0.1,0.2-0.2,0.3c-0.2,0.2-0.4,0.2-0.7,0.2c-0.2,0-0.5-0.1-0.7-0.2c-0.1-0.1-0.2-0.2-0.2-0.3c0-0.1-0.1-0.3-0.1-0.4v-1.3
			H9.3z"/>
		<path class="st1" d="M12,25.7c0,0.2,0,0.4,0.2,0.5c0.1,0.1,0.3,0.2,0.4,0.2c0.2,0,0.3-0.1,0.4-0.2c0.2-0.3,0.2-0.7,0-1
			c-0.2-0.2-0.6-0.3-0.9,0c0,0,0,0,0,0C12.1,25.3,12,25.5,12,25.7 M13.3,23h0.5v3.8h-0.5v-0.2c-0.2,0.2-0.4,0.3-0.7,0.3
			c-0.3,0-0.6-0.1-0.8-0.3c-0.2-0.2-0.3-0.5-0.3-0.9c0-0.3,0.1-0.6,0.3-0.8c0.3-0.4,0.9-0.4,1.3-0.1c0,0,0.1,0.1,0.1,0.1V23z"/>
		<path class="st1" d="M15.2,26.8h-0.5v-2.2h0.5L15.2,26.8L15.2,26.8z M14.6,23.7c0-0.2,0.2-0.3,0.3-0.3c0.2,0,0.3,0.2,0.3,0.3
			c0,0.1,0,0.2-0.1,0.2C15.1,24,15.1,24,15,24C14.8,24,14.7,23.9,14.6,23.7L14.6,23.7"/>
		<polygon class="st1" points="19.7,23.8 18.5,23.8 18.5,24.6 19.7,24.6 19.7,25.1 18.5,25.1 18.5,26.8 18,26.8 18,23.3 19.7,23.3 
					"/>
		<path class="st1" d="M21,25.7c0,0.2,0,0.4,0.2,0.5c0.3,0.2,0.7,0.2,0.9,0c0.2-0.3,0.2-0.7,0-1C22,25,21.9,25,21.7,25
			c-0.2,0-0.4,0.1-0.5,0.2C21.1,25.3,21,25.5,21,25.7 M20.5,25.7c0-0.3,0.1-0.6,0.3-0.8c0.5-0.4,1.2-0.4,1.7,0
			c0.4,0.4,0.4,1.2,0,1.7c-0.2,0.2-0.5,0.3-0.9,0.3c-0.3,0-0.6-0.1-0.8-0.3C20.6,26.3,20.5,26,20.5,25.7"/>
		<path class="st1" d="M24.1,25.7c0,0.2,0,0.4,0.2,0.5c0.3,0.2,0.7,0.2,0.9,0c0.2-0.3,0.2-0.7,0-1C25.1,25,24.9,25,24.7,25
			s-0.4,0.1-0.5,0.2C24.2,25.3,24.1,25.5,24.1,25.7 M23.6,25.7c0-0.3,0.1-0.6,0.3-0.8c0.5-0.4,1.2-0.4,1.7,0s0.4,1.2,0,1.7
			c-0.2,0.2-0.5,0.3-0.9,0.3c-0.3,0-0.6-0.1-0.8-0.3C23.7,26.3,23.6,26,23.6,25.7"/>
		<path class="st1" d="M27.3,25.7c0,0.2,0,0.4,0.2,0.5c0.1,0.1,0.3,0.2,0.4,0.2s0.3-0.1,0.4-0.2c0.2-0.3,0.2-0.7,0-1
			C28.2,25,28.1,25,27.9,25s-0.3,0.1-0.4,0.2C27.3,25.3,27.2,25.5,27.3,25.7 M28.5,23H29v3.8h-0.5v-0.2c-0.2,0.2-0.4,0.3-0.7,0.3
			c-0.3,0-0.6-0.1-0.8-0.3c-0.2-0.2-0.3-0.5-0.3-0.9c0-0.3,0.1-0.6,0.3-0.8c0.3-0.4,0.9-0.4,1.3-0.1c0,0,0.1,0.1,0.1,0.1V23z"/>
		<path class="st1" d="M32.7,24.5L32.7,24.5c0.1-0.1,0.2-0.1,0.2-0.2c0,0,0.1-0.1,0.1-0.1c0-0.1,0.1-0.1,0.1-0.2
			c0-0.1,0-0.2-0.1-0.2c-0.1-0.1-0.2-0.1-0.2-0.1c-0.1,0-0.2,0-0.2,0.1c-0.1,0-0.1,0.1-0.1,0.2c0,0.1,0,0.2,0.1,0.3L32.7,24.5
			L32.7,24.5 M32.6,25.2L32.6,25.2c-0.2,0.1-0.3,0.2-0.5,0.4C32,25.6,32,25.7,32,25.8c0,0.3,0.3,0.6,0.6,0.6c0.2,0,0.4-0.1,0.7-0.4
			L32.6,25.2z M33,24.9l0.6,0.8l0,0c0.1-0.1,0.1-0.2,0.2-0.2c0.1-0.1,0.1-0.1,0.2-0.2l0.3,0.4c0,0.1-0.1,0.1-0.2,0.2
			S34,25.9,33.9,26l0.7,0.8h-0.7l-0.4-0.4c-0.2,0.3-0.6,0.5-1,0.5c-0.3,0-0.6-0.1-0.8-0.3c-0.2-0.2-0.3-0.4-0.3-0.7
			c0-0.4,0.2-0.7,0.5-0.9l0.2-0.2h0l0,0c-0.2-0.2-0.3-0.4-0.4-0.7c0-0.2,0.1-0.4,0.2-0.6c0.4-0.3,0.9-0.3,1.2,0
			c0.2,0.1,0.2,0.3,0.2,0.5c0,0.2,0,0.3-0.1,0.4C33.3,24.6,33.1,24.7,33,24.9"/>
		<path class="st1" d="M37.5,26.3h0.2c0.2,0,0.4,0,0.6-0.1c0.5-0.2,0.8-0.7,0.8-1.2c0-0.4-0.1-0.7-0.4-0.9c-0.3-0.2-0.7-0.3-1-0.3
			h-0.2L37.5,26.3z M37,26.8v-3.5h0.7c0.3,0,0.6,0,0.8,0.1c0.2,0.1,0.4,0.2,0.6,0.4c0.4,0.3,0.6,0.8,0.5,1.3c0,0.7-0.4,1.4-1.2,1.7
			c-0.3,0.1-0.5,0.1-0.8,0.1L37,26.8z"/>
		<path class="st1" d="M40.6,24.6h0.5v0.2c0.1-0.1,0.2-0.2,0.2-0.2c0.1,0,0.2-0.1,0.3-0.1c0.2,0,0.3,0,0.4,0.1l-0.2,0.5
			c-0.1-0.1-0.2-0.1-0.3-0.1c-0.3,0-0.4,0.2-0.4,0.6v1.2h-0.5V24.6z"/>
		<path class="st1" d="M43.3,24.6v1.3c0,0.4,0.1,0.5,0.4,0.5c0.3,0,0.4-0.2,0.4-0.5v-1.3h0.5v1.3c0,0.2,0,0.3-0.1,0.4
			c0,0.1-0.1,0.2-0.2,0.3c-0.4,0.3-0.9,0.3-1.3,0c-0.1-0.1-0.2-0.2-0.2-0.3c0-0.1-0.1-0.3-0.1-0.4v-1.3H43.3z"/>
		<path class="st1" d="M47.2,25.7c0-0.2,0-0.4-0.2-0.5c-0.1-0.1-0.3-0.2-0.4-0.2c-0.2,0-0.3,0.1-0.4,0.2c-0.2,0.3-0.2,0.7,0,1
			c0.1,0.1,0.3,0.2,0.4,0.2c0.2,0,0.4-0.1,0.5-0.2C47.1,26.1,47.2,25.9,47.2,25.7 M47.6,26.8c0,0.1,0,0.2,0,0.3c0,0.1,0,0.2,0,0.2
			c0,0.2-0.1,0.3-0.2,0.4c-0.2,0.2-0.5,0.4-0.8,0.3c-0.3,0-0.5-0.1-0.7-0.2c-0.2-0.2-0.3-0.4-0.3-0.7H46c0,0.1,0,0.2,0.1,0.2
			c0.1,0.1,0.3,0.2,0.5,0.2c0.4,0,0.6-0.2,0.6-0.7v-0.3c-0.2,0.2-0.4,0.3-0.7,0.3c-0.3,0-0.5-0.1-0.7-0.3c-0.2-0.2-0.3-0.5-0.3-0.8
			c0-0.3,0.1-0.6,0.3-0.8c0.2-0.2,0.5-0.4,0.8-0.4c0.3,0,0.5,0.1,0.7,0.3v-0.2h0.5L47.6,26.8z"/>
		<path class="st1" d="M52.3,25.5l-0.5-1.2l-0.5,1.2H52.3z M52.5,26H51l-0.4,0.9h-0.6l1.7-3.7l1.7,3.7h-0.6L52.5,26z"/>
		<path class="st1" d="M54.6,24.6v1.3c0,0.4,0.1,0.5,0.4,0.5s0.4-0.2,0.4-0.5v-1.3h0.5v1.3c0,0.2,0,0.3-0.1,0.4
			c0,0.1-0.1,0.2-0.2,0.3c-0.4,0.3-0.9,0.3-1.3,0c-0.1-0.1-0.2-0.2-0.2-0.3c0-0.1-0.1-0.3-0.1-0.4v-1.3H54.6z"/>
		<polygon class="st1" points="57.5,25.1 57.5,26.8 57,26.8 57,25.1 56.8,25.1 56.8,24.6 57,24.6 57,23.8 57.5,23.8 57.5,24.6 
			57.9,24.6 57.9,25.1 		"/>
		<path class="st1" d="M58.6,23h0.5v1.8c0.2-0.2,0.4-0.2,0.6-0.2c0.2,0,0.4,0.1,0.6,0.3c0.1,0.2,0.2,0.4,0.2,0.7v1.3H60v-1.3
			c0-0.1,0-0.3-0.1-0.4C59.9,25,59.8,25,59.6,25c-0.2,0-0.3,0-0.4,0.2c-0.1,0.2-0.1,0.4-0.1,0.6v1.1h-0.5L58.6,23L58.6,23z"/>
		<path class="st1" d="M61.8,25.7c0,0.2,0,0.4,0.2,0.5c0.1,0.1,0.3,0.2,0.5,0.2c0.2,0,0.4-0.1,0.5-0.2c0.2-0.3,0.2-0.7,0-1
			C62.8,25,62.6,25,62.5,25c-0.2,0-0.4,0.1-0.5,0.2C61.9,25.3,61.8,25.5,61.8,25.7 M61.3,25.7c0-0.3,0.1-0.6,0.3-0.8
			c0.5-0.4,1.2-0.4,1.7,0c0.4,0.4,0.4,1.2,0,1.7c-0.2,0.2-0.5,0.3-0.9,0.3c-0.3,0-0.6-0.1-0.8-0.3C61.4,26.3,61.3,26,61.3,25.7"/>
		<path class="st1" d="M64.5,24.6H65v0.2c0.1-0.1,0.2-0.2,0.2-0.2c0.1,0,0.2-0.1,0.3-0.1c0.2,0,0.3,0,0.4,0.1l-0.2,0.5
			c-0.1-0.1-0.2-0.1-0.3-0.1c-0.3,0-0.4,0.2-0.4,0.6v1.2h-0.5L64.5,24.6z"/>
		<path class="st1" d="M67.1,26.8h-0.5v-2.2h0.5V26.8z M66.6,23.7c0-0.2,0.2-0.3,0.3-0.3c0.1,0,0.2,0,0.2,0.1
			c0.1,0.1,0.1,0.1,0.1,0.2c0,0.1,0,0.2-0.1,0.2C67,23.9,67,24,66.9,24s-0.2,0-0.2-0.1C66.6,23.8,66.6,23.7,66.6,23.7"/>
		<polygon class="st1" points="68.6,25.1 68.6,26.8 68.1,26.8 68.1,25.1 67.9,25.1 67.9,24.6 68.1,24.6 68.1,23.8 68.6,23.8 
			68.6,24.6 69,24.6 69,25.1 		"/>
		<polygon class="st1" points="70.4,26.4 69.4,24.6 70,24.6 70.7,25.9 71.3,24.6 71.9,24.6 70.2,28 69.6,28 		"/>
		<rect x="2.5" y="22.1" class="st0" width="69.2" height="0.2"/>
	</g>
</g>
</svg>
