<?xml version="1.0" encoding="utf-8"?>
<!-- Generator: Adobe Illustrator 24.1.2, SVG Export Plug-In . SVG Version: 6.00 Build 0)  -->
<svg version="1.1" id="Layer_1" xmlns="http://www.w3.org/2000/svg" xmlns:xlink="http://www.w3.org/1999/xlink" x="0px" y="0px"
	 viewBox="0 0 75 28" style="enable-background:new 0 0 75 28;" xml:space="preserve">
<style type="text/css">
	.st0{clip-path:url(#SVGID_1_);fill:url(#XMLID_52_);}
	.st1{fill:#5F636A;}
	.st2{fill:#FFFFFF;}
</style>
<g id="XMLID_1_">
	<g>
		<g>
			<defs>
				<polygon id="SVGID_3_" points="53.7,4 53.7,4 53.7,23.9 73.6,23.9 73.6,4 				"/>
			</defs>
			<clipPath id="SVGID_1_">
				<use xlink:href="#SVGID_3_"  style="overflow:visible;"/>
			</clipPath>
			
				<radialGradient id="XMLID_52_" cx="-326.5399" cy="-236.8819" r="0.7991" gradientTransform="matrix(36.0383 -31.6345 31.6345 36.0383 19306.4004 -1763.8068)" gradientUnits="userSpaceOnUse">
				<stop  offset="0" style="stop-color:#7FBF3F"/>
				<stop  offset="0.29" style="stop-color:#7FBF3F"/>
				<stop  offset="0.44" style="stop-color:#5FB744"/>
				<stop  offset="0.4803" style="stop-color:#4BB045"/>
				<stop  offset="0.5704" style="stop-color:#22A347"/>
				<stop  offset="0.6417" style="stop-color:#099B48"/>
				<stop  offset="0.685" style="stop-color:#009848"/>
				<stop  offset="0.6969" style="stop-color:#007688"/>
				<stop  offset="0.705" style="stop-color:#0062AF"/>
				<stop  offset="0.8778" style="stop-color:#009DDF"/>
				<stop  offset="0.9" style="stop-color:#00A5E6"/>
				<stop  offset="1" style="stop-color:#00ACEC"/>
			</radialGradient>
			<polygon id="XMLID_450_" class="st0" points="43.9,12.7 65,-5.8 83.5,15.2 62.4,33.8 			"/>
		</g>
	</g>
	<g id="XMLID_2_">
		<path id="XMLID_449_" class="st1" d="M3.9,12.4c0.3,0,0.5-0.2,0.5-0.5c0-0.3-0.2-0.5-0.5-0.5c-0.3,0-0.5,0.2-0.5,0.5
			C3.3,12.2,3.6,12.4,3.9,12.4"/>
		<path id="XMLID_448_" class="st1" d="M5.4,17.5c-0.3,0-0.5,0.2-0.5,0.5c0,0.3,0.2,0.5,0.5,0.5c0.3,0,0.5-0.2,0.5-0.5
			C5.9,17.8,5.7,17.5,5.4,17.5"/>
		<path class="st1" d="M6.2,15.3c0,0.5-0.2,0.6-0.7,0.6H4.9v-1.2c0-1.2-0.6-1.8-1.7-1.8c-1.4,0-2,1-2,1.9c0,0.7,0.2,1.2,0.6,1.5
			c0.5,0.3,0.9,0.4,1.8,0.4h1.9c1,0,1.6-0.4,1.6-1.4v-2.4h-1L6.2,15.3L6.2,15.3z M4,15.9H3.4c-0.8,0-1.2-0.3-1.2-1.1
			c0-0.6,0.4-1.1,0.9-1.1S4,14.1,4,14.8L4,15.9L4,15.9z"/>
		<path id="XMLID_447_" class="st1" d="M2.7,12.4c0.3,0,0.5-0.2,0.5-0.5c0-0.3-0.2-0.5-0.5-0.5c-0.3,0-0.5,0.2-0.5,0.5
			C2.1,12.2,2.4,12.4,2.7,12.4"/>
		<path id="XMLID_446_" class="st1" d="M11.1,14.8c0-1-0.6-1.9-2-1.9H8.3v0.8h0.9c0.6,0,0.9,0.4,0.9,1.1v1.1H7.5v0.8h3.6V14.8z"/>
		<path id="XMLID_445_" class="st1" d="M6.6,17.5c-0.3,0-0.5,0.2-0.5,0.5c0,0.3,0.2,0.5,0.5,0.5c0.3,0,0.5-0.2,0.5-0.5
			C7.1,17.8,6.9,17.5,6.6,17.5"/>
		<rect id="XMLID_444_" x="44.5" y="11.1" class="st1" width="1" height="5.6"/>
		<path id="XMLID_443_" class="st1" d="M44.8,17.5v0.9c0.3,0,0.5,0.1,0.8,0.1c1.3,0,2-0.6,2-1.9v-3.4h-1v3.4c0,0.6-0.4,1-0.9,1
			c-0.4,0-0.6-0.1-0.7-0.1L44.8,17.5z"/>
		<rect id="XMLID_442_" x="48.2" y="11.7" class="st1" width="1" height="5"/>
		<path class="st1" d="M32.6,16.3c0.5,0.3,0.9,0.4,1.8,0.4h0.3c0,0.6-0.4,1-1.1,1c-0.3,0-0.7,0-1.1-0.2l-0.1,0v0.9
			c0.5,0.1,0.9,0.1,1.2,0.1c1.3,0,2-0.6,2-1.8h5.7c1.6,0,2.4-0.4,2.4-1.9c0-1-0.6-1.9-2-1.9c-1.1,0-1.7,0.6-1.7,1.8v1.2h-0.9
			c0.1-0.2,0.2-0.6,0.2-0.9c0-0.8-0.5-1.8-2-1.8h-0.1l1.9-2.1h-1.2c-0.7,0.8-1.8,2-1.9,2.1V14h1.4c0.4,0,0.9,0.2,0.9,0.9
			c0,0.7-0.3,1-1.2,1h-1.6v-1.2c0-1.2-0.6-1.8-1.7-1.8c-1.4,0-2,1-2,1.9C32,15.5,32.2,16.1,32.6,16.3 M41.1,14.8
			c0-0.7,0.3-1.1,0.8-1.1s0.9,0.4,0.9,1.1c0,0.8-0.3,1.1-1.1,1.1h-0.6V14.8z M33.9,13.8c0.6,0,0.8,0.3,0.8,1.1v1.1h-0.6
			c-0.8,0-1.2-0.3-1.2-1.1C33,14.2,33.4,13.8,33.9,13.8"/>
		<path class="st1" d="M26.9,16.7c0.4,0,0.9-0.1,1.1-0.2c0.3-0.2,0.5-0.5,0.5-0.7c0-0.1,0-0.3,0-0.5v-4.2h-1v4.2
			c0,0.5-0.2,0.6-0.7,0.6h-0.2c-0.2,0-0.3,0-0.5-0.1c0-0.1,0-0.3,0-0.4v-2.1h-1v2c0,0.4-0.2,0.6-0.6,0.6c-0.2,0-0.3,0-0.5-0.1
			c0-0.1,0-0.3,0-0.5v-2h-1v2c0,0.4-0.1,0.6-0.4,0.6h-0.5c-0.1,0-0.2,0-0.2-0.1v-2.5h-1v2.6h-1.7c0.5-0.6,0.9-1.2,0.9-1.6
			c0-0.9-1.1-1.3-2.1-1.3s-2.1,0.5-2.1,1.3c0,0.6,0.6,1.3,0.9,1.6h-1.5v-1.2c0-1.2-0.6-1.8-1.7-1.8c-1.4,0-2,1-2,1.9
			c0,0.7,0.2,1.2,0.6,1.5c0.5,0.3,0.9,0.4,1.8,0.4h0.3c0,0.6-0.4,1-1.1,1c-0.3,0-0.7,0-1.1-0.2l-0.1,0v0.9c0.5,0.1,0.9,0.1,1.2,0.1
			c1.3,0,2-0.6,2-1.8H22c0.2,0,0.4,0,0.6,0c0.4,0,0.7-0.1,0.9-0.2c0.4,0.1,0.8,0.2,1.2,0.2c0.4,0,0.7-0.1,0.9-0.2
			C25.9,16.7,26.3,16.7,26.9,16.7L26.9,16.7L26.9,16.7z M14.3,15.9h-0.6c-0.8,0-1.2-0.3-1.2-1.1c0-0.6,0.4-1.1,0.9-1.1
			s0.8,0.3,0.8,1.1L14.3,15.9L14.3,15.9z M18,15.8c-0.1,0-1.2-1-1.2-1.6c0-0.3,0.6-0.5,1.2-0.5c0.6,0,1.2,0.2,1.2,0.5
			C19.2,14.8,18.2,15.8,18,15.8"/>
		<rect id="XMLID_441_" x="29.3" y="11.1" class="st1" width="1" height="5.6"/>
		<path id="XMLID_440_" class="st1" d="M49.5,10.8h-0.6c-0.2,0-0.3,0-0.3-0.2c0-0.2,0.1-0.2,0.3-0.2c0.1,0,0.3,0,0.4,0.1V10l-0.1,0
			c-0.1,0-0.2-0.1-0.4-0.1c-0.5,0-0.8,0.2-0.8,0.7c0,0.1,0,0.2,0,0.2H48v0.4h1.4L49.5,10.8L49.5,10.8z"/>
		<path class="st1" d="M48,20.1c-1.1,0-1.9,0.9-1.9,1.9c0,1.1,0.9,1.9,1.9,1.9c1.1,0,1.9-0.9,1.9-1.9C49.9,21,49.1,20.1,48,20.1
			 M48,23.1c-0.6,0-1.1-0.5-1.1-1.1c0-0.6,0.5-1,1.1-1c0.6,0,1,0.5,1,1C49,22.6,48.6,23.1,48,23.1"/>
		<path id="XMLID_439_" class="st1" d="M41,20.1c-0.4,0-0.9,0.1-1.2,0.2c-0.3-0.2-0.6-0.2-0.9-0.2c-0.5,0-1,0.1-1.5,0.2l-0.1,0v3.5
			h1V21c0.2-0.1,0.3-0.1,0.5-0.1c0.5,0,0.6,0.1,0.6,0.6v2.3h1v-2.4c0-0.2,0-0.4,0-0.5c0.2-0.1,0.3-0.1,0.5-0.1
			c0.5,0,0.7,0.2,0.7,0.6v2.3h1v-2.4c0-0.5-0.1-0.8-0.3-1C41.9,20.2,41.5,20.1,41,20.1"/>
		<path id="XMLID_438_" class="st1" d="M44.8,23.1c-0.6,0-1-0.4-1-1.1c0-0.7,0.4-1.1,1-1.1c0.1,0,0.2,0,0.4,0c0,0,0.2,0.1,0.4,0.2
			l0.4-0.7c-0.2-0.2-0.5-0.3-0.6-0.3c-0.2-0.1-0.6-0.1-0.6-0.1c-1.1,0-1.9,0.8-1.9,2c0,1.1,0.7,1.9,1.9,1.9c0,0,0.8,0,1.3-0.4
			l-0.5-0.6C45.2,23.1,45.1,23.1,44.8,23.1"/>
		<path id="XMLID_437_" class="st1" d="M32.3,20.1c-1.4,0-2,0.6-2,1.9v1.9h1v-1.8V22c0-0.6,0.4-1.1,0.9-1.1c0.2,0,0.4,0,0.6,0.1
			l0.2-0.9C32.6,20.1,32.3,20.1,32.3,20.1"/>
		<path class="st1" d="M36.7,21.9v2h-1.3c-0.9,0-1.3-0.1-1.8-0.4c-0.4-0.3-0.6-0.8-0.6-1.5c0-1,0.6-1.9,2-1.9
			C36,20.1,36.7,20.7,36.7,21.9 M35.7,22c0-0.7-0.3-1.1-0.8-1.1s-0.9,0.4-0.9,1.1c0,0.8,0.4,1.1,1.2,1.1h0.6V22z"/>
		<path class="st1" d="M29.8,21.9v2h-1.3c-0.9,0-1.3-0.1-1.8-0.4C26.3,23.2,26,22.7,26,22c0-1,0.6-1.9,2-1.9
			C29.2,20.1,29.8,20.7,29.8,21.9 M28.8,22c0-0.7-0.3-1.1-0.8-1.1S27,21.3,27,22c0,0.8,0.4,1.1,1.2,1.1h0.6V22z"/>
		<path id="XMLID_436_" class="st1" d="M9.2,21.6c-0.6-0.2-0.8-0.3-0.8-0.5c0-0.2,0.3-0.3,0.7-0.3c0.4,0,0.7,0.1,1,0.2l0.2-0.8
			C9.8,20.1,9.4,20,9,20c-1,0-1.6,0.5-1.6,1.2c0,0.4,0.1,0.8,1.2,1.1c0.6,0.2,0.9,0.2,0.9,0.4c0,0.2-0.4,0.4-0.9,0.4
			c-0.5,0-1-0.2-1.3-0.4v0.9C7.7,23.9,8.2,24,8.6,24c1.1,0,1.8-0.5,1.8-1.2C10.4,22.2,10.1,21.9,9.2,21.6"/>
		<path id="XMLID_435_" class="st1" d="M17.4,22.5c0,0.5-0.2,0.6-0.7,0.6h0c-0.5,0-0.7-0.2-0.7-0.6v-2.3h-1v2.4
			c0,1.1,0.6,1.4,1.6,1.4h0.2c1,0,1.6-0.3,1.6-1.4v-2.4h-1L17.4,22.5L17.4,22.5z"/>
		<path id="XMLID_434_" class="st1" d="M23.6,18.8c-0.3,0-0.5,0.2-0.5,0.5c0,0.3,0.2,0.5,0.5,0.5s0.5-0.2,0.5-0.5
			C24.1,19,23.9,18.8,23.6,18.8"/>
		<rect id="XMLID_433_" x="23.1" y="20.3" class="st1" width="1" height="3.6"/>
		<path class="st1" d="M14.5,21.9v2h-1.3c-0.9,0-1.3-0.1-1.8-0.4c-0.4-0.3-0.6-0.8-0.6-1.5c0-1,0.6-1.9,2-1.9
			C13.9,20.1,14.5,20.7,14.5,21.9 M13.5,22c0-0.7-0.3-1.1-0.8-1.1s-0.9,0.4-0.9,1.1c0,0.8,0.4,1.1,1.2,1.1h0.6V22z"/>
		<path class="st1" d="M22.5,18.7v5.2h-1.2c-0.9,0-1.3-0.1-1.8-0.4c-0.4-0.3-0.6-0.8-0.6-1.5c0-1.1,0.8-1.9,1.9-1.9h0.1
			c0.2,0,0.5,0.1,0.7,0.2v-1.6H22.5z M21.6,22c0-0.8-0.2-1.1-0.8-1.1c-0.6,0-0.9,0.4-0.9,1.1c0,0.8,0.4,1.1,1.2,1.1h0.5V22z"/>
		<path id="XMLID_432_" class="st2" d="M64.7,12.4c0.2,0.1,0.4,0.4,0.4,0.6s-0.2,0.3-0.5,0.1c-0.2-0.1-0.4-0.4-0.4-0.6
			C64.2,12.3,64.5,12.3,64.7,12.4"/>
		<path id="XMLID_431_" class="st2" d="M65.4,8.5c0.2,0.1,0.3,0.3,0.3,0.4c0,0.1-0.2,0.1-0.4,0C65.1,8.9,65,8.7,65,8.5
			C65,8.4,65.2,8.4,65.4,8.5"/>
		<path id="XMLID_430_" class="st2" d="M65.5,8.2c0.2,0.1,0.3,0.2,0.3,0.3c0,0.1-0.2,0.1-0.3,0c-0.2-0.1-0.3-0.2-0.3-0.3
			C65.2,8.1,65.3,8.1,65.5,8.2"/>
		<path id="XMLID_429_" class="st2" d="M65.5,7.8c0.1,0.1,0.3,0.2,0.2,0.3c0,0.1-0.1,0.1-0.3,0c-0.1-0.1-0.3-0.2-0.2-0.3
			C65.3,7.7,65.4,7.7,65.5,7.8"/>
		<path id="XMLID_428_" class="st2" d="M65.6,7.4c0.1,0.1,0.2,0.2,0.2,0.3c0,0.1-0.1,0.1-0.3,0c-0.1-0.1-0.2-0.2-0.2-0.3
			C65.3,7.3,65.4,7.3,65.6,7.4"/>
		<path id="XMLID_427_" class="st2" d="M65.6,7.1c0.1,0.1,0.2,0.2,0.2,0.2c0,0.1-0.1,0.1-0.2,0c-0.1-0.1-0.2-0.2-0.2-0.2
			C65.4,7,65.5,7,65.6,7.1"/>
		<path id="XMLID_426_" class="st2" d="M65.7,6.8c0.1,0.1,0.2,0.2,0.2,0.2c0,0.1-0.1,0.1-0.2,0c-0.1-0.1-0.2-0.2-0.2-0.2
			C65.5,6.7,65.6,6.7,65.7,6.8"/>
		<path id="XMLID_425_" class="st2" d="M65.7,6.5c0.1,0.1,0.2,0.1,0.2,0.2c0,0.1-0.1,0-0.2,0c-0.1-0.1-0.2-0.1-0.2-0.2
			C65.5,6.4,65.6,6.4,65.7,6.5"/>
		<path id="XMLID_424_" class="st2" d="M65.8,6.2c0.1,0,0.2,0.1,0.2,0.2c0,0-0.1,0-0.2,0c-0.1,0-0.2-0.1-0.2-0.2
			C65.6,6.1,65.7,6.1,65.8,6.2"/>
		<path id="XMLID_423_" class="st2" d="M65.8,5.9C65.9,5.9,66,6,66,6c0,0-0.1,0-0.2,0c-0.1,0-0.1-0.1-0.1-0.2
			C65.7,5.8,65.7,5.8,65.8,5.9"/>
		<path id="XMLID_422_" class="st2" d="M65.9,5.6c0.1,0,0.1,0.1,0.1,0.1c0,0-0.1,0-0.1,0c-0.1,0-0.1-0.1-0.1-0.1
			C65.7,5.6,65.8,5.6,65.9,5.6"/>
		<path id="XMLID_421_" class="st2" d="M65.9,5.3C66,5.4,66,5.4,66,5.5C66,5.5,66,5.5,65.9,5.3c-0.1,0.1-0.1,0-0.1,0
			C65.8,5.3,65.9,5.3,65.9,5.3"/>
		<path id="XMLID_420_" class="st2" d="M64.5,13.7c-0.2-0.1-0.3-0.3-0.3-0.5c0-0.2,0.2-0.2,0.4-0.1c0.2,0.1,0.3,0.3,0.3,0.5
			C64.8,13.7,64.7,13.8,64.5,13.7"/>
		<path id="XMLID_419_" class="st2" d="M64.3,14.5C64.1,14.4,64,14.2,64,14c0-0.2,0.2-0.2,0.4-0.1c0.2,0.1,0.3,0.3,0.3,0.5
			C64.7,14.6,64.5,14.6,64.3,14.5"/>
		<path id="XMLID_418_" class="st2" d="M64.1,15.4c-0.2-0.1-0.3-0.3-0.3-0.5c0-0.2,0.2-0.2,0.4-0.1c0.2,0.1,0.3,0.3,0.3,0.5
			C64.5,15.4,64.3,15.5,64.1,15.4"/>
		<path id="XMLID_417_" class="st2" d="M64,16.3c-0.2-0.1-0.3-0.3-0.3-0.5c0-0.2,0.2-0.2,0.4-0.2c0.2,0.1,0.3,0.3,0.3,0.5
			C64.3,16.3,64.1,16.4,64,16.3"/>
		<path id="XMLID_416_" class="st2" d="M63.8,17.2c-0.2-0.1-0.3-0.3-0.2-0.4c0-0.2,0.2-0.2,0.3-0.2c0.2,0.1,0.3,0.3,0.2,0.4
			C64.1,17.2,63.9,17.3,63.8,17.2"/>
		<path id="XMLID_415_" class="st2" d="M63.5,18.4c-0.2-0.1-0.3-0.3-0.2-0.4c0-0.2,0.2-0.2,0.3-0.2c0.1,0.1,0.2,0.3,0.2,0.4
			C63.8,18.4,63.7,18.4,63.5,18.4"/>
		<path id="XMLID_414_" class="st2" d="M63.3,19.6c-0.1-0.1-0.2-0.2-0.2-0.4c0-0.2,0.2-0.2,0.3-0.2c0.1,0.1,0.2,0.2,0.2,0.4
			S63.4,19.6,63.3,19.6"/>
		<path id="XMLID_413_" class="st2" d="M63,20.8c-0.1,0-0.2-0.2-0.2-0.3c0-0.1,0.1-0.2,0.3-0.2c0.1,0,0.2,0.2,0.2,0.3
			C63.3,20.8,63.1,20.8,63,20.8"/>
		<path id="XMLID_412_" class="st2" d="M65.5,12.8c0.2,0.1,0.3,0.3,0.3,0.5c0,0.2-0.2,0.2-0.4,0.1c-0.2-0.1-0.3-0.3-0.3-0.5
			C65.2,12.8,65.4,12.7,65.5,12.8"/>
		<path id="XMLID_411_" class="st2" d="M66.4,13.2c0.2,0.1,0.4,0.4,0.4,0.6c0,0.2-0.2,0.3-0.5,0.1c-0.2-0.1-0.4-0.4-0.4-0.6
			C65.9,13.1,66.1,13.1,66.4,13.2"/>
		<path id="XMLID_410_" class="st2" d="M72.1,12.9c-0.1-0.1-0.2,0-0.1,0c0,0.1,0.1,0.2,0.2,0.3c0.1,0.1,0.2,0,0.1,0
			C72.2,13,72.2,12.9,72.1,12.9"/>
		<path id="XMLID_409_" class="st2" d="M71.4,12.4c-0.1-0.1-0.2,0-0.2,0c0,0.1,0.1,0.3,0.2,0.3c0.1,0.1,0.2,0,0.2-0.1
			C71.6,12.6,71.5,12.5,71.4,12.4"/>
		<path id="XMLID_408_" class="st2" d="M69.6,18.6c-0.2-0.1-0.3,0-0.3,0.2c0,0.2,0.1,0.4,0.3,0.5c0.2,0.1,0.3,0,0.3-0.2
			C69.8,18.9,69.7,18.7,69.6,18.6"/>
		<path id="XMLID_407_" class="st2" d="M68.8,17c-0.2-0.1-0.3,0-0.3,0.2c0,0.2,0.1,0.5,0.3,0.6c0.2,0.1,0.3,0,0.3-0.2
			C69.1,17.4,68.9,17.2,68.8,17"/>
		<path id="XMLID_406_" class="st2" d="M67.9,15.7c-0.2-0.1-0.3,0-0.3,0.1c0,0.2,0.1,0.4,0.3,0.5c0.2,0.1,0.3,0,0.3-0.2
			C68.2,16,68.1,15.8,67.9,15.7"/>
		<path id="XMLID_405_" class="st2" d="M67.4,10.1c-0.2-0.1-0.3-0.1-0.3,0c0,0.1,0.1,0.3,0.3,0.4c0.2,0.1,0.3,0.1,0.3,0
			C67.7,10.4,67.6,10.2,67.4,10.1"/>
		<path id="XMLID_404_" class="st2" d="M70.8,12.6c-0.1-0.1-0.2,0-0.2,0.1c0,0.1,0.1,0.3,0.2,0.3s0.2,0,0.2-0.1
			C71,12.8,71,12.7,70.8,12.6"/>
		<path id="XMLID_403_" class="st2" d="M70.1,12.2c-0.1-0.1-0.2,0-0.2,0.1c0,0.1,0.1,0.3,0.3,0.4c0.1,0.1,0.2,0,0.2-0.1
			C70.4,12.4,70.3,12.3,70.1,12.2"/>
		<path id="XMLID_402_" class="st2" d="M68.8,11.9c-0.2-0.1-0.3-0.1-0.3,0.1c0,0.1,0.1,0.3,0.3,0.4c0.2,0.1,0.3,0,0.3-0.1
			C69.1,12.2,69,12,68.8,11.9"/>
		<path id="XMLID_401_" class="st2" d="M69.5,11.8c-0.2-0.1-0.3-0.1-0.3,0.1c0,0.1,0.1,0.3,0.3,0.4c0.2,0.1,0.3,0.1,0.3-0.1
			C69.8,12,69.6,11.9,69.5,11.8"/>
		<path id="XMLID_400_" class="st2" d="M68.8,11.4c-0.2-0.1-0.3-0.1-0.3,0.1c0,0.1,0.1,0.3,0.3,0.4c0.2,0.1,0.3,0.1,0.3-0.1
			C69.1,11.6,68.9,11.5,68.8,11.4"/>
		<path id="XMLID_399_" class="st2" d="M68.1,11.5c-0.2-0.1-0.3-0.1-0.3,0.1s0.1,0.3,0.3,0.4c0.2,0.1,0.3,0.1,0.3-0.1
			C68.4,11.8,68.3,11.6,68.1,11.5"/>
		<path id="XMLID_398_" class="st2" d="M67.1,14.4c-0.2-0.1-0.3,0-0.4,0.1c0,0.2,0.1,0.4,0.3,0.5c0.2,0.1,0.4,0,0.4-0.1
			C67.5,14.7,67.3,14.5,67.1,14.4"/>
		<path id="XMLID_397_" class="st2" d="M67.2,13.6c-0.2-0.1-0.4,0-0.4,0.1c0,0.2,0.1,0.4,0.3,0.5c0.2,0.1,0.4,0,0.4-0.1
			C67.5,14,67.4,13.7,67.2,13.6"/>
		<path id="XMLID_396_" class="st2" d="M67.2,12.9c-0.2-0.1-0.4-0.1-0.4,0.1c0,0.2,0.1,0.4,0.4,0.6s0.4,0.1,0.4-0.1
			C67.6,13.3,67.5,13,67.2,12.9"/>
		<path id="XMLID_395_" class="st2" d="M67.3,12.3c-0.2-0.1-0.4-0.1-0.4,0.1c0,0.2,0.1,0.4,0.4,0.5c0.2,0.1,0.4,0.1,0.4-0.1
			C67.6,12.6,67.5,12.4,67.3,12.3"/>
		<path id="XMLID_394_" class="st2" d="M67.3,11.7c-0.2-0.1-0.3-0.1-0.4,0.1c0,0.1,0.1,0.3,0.3,0.5c0.2,0.1,0.3,0.1,0.4-0.1
			C67.6,12,67.5,11.8,67.3,11.7"/>
		<path id="XMLID_393_" class="st2" d="M67.4,11.1C67.1,11,67,11,67,11.2c0,0.2,0.1,0.4,0.4,0.5c0.2,0.1,0.4,0.1,0.4-0.1
			C67.7,11.4,67.6,11.2,67.4,11.1"/>
		<path id="XMLID_392_" class="st2" d="M67.4,10.6c-0.2-0.1-0.4-0.1-0.4,0.1c0,0.1,0.1,0.3,0.3,0.5c0.2,0.1,0.4,0.1,0.4-0.1
			C67.7,10.9,67.6,10.7,67.4,10.6"/>
		<path id="XMLID_391_" class="st2" d="M66.1,9c-0.1-0.1-0.3-0.1-0.3,0c0,0.1,0.1,0.2,0.2,0.3c0.1,0.1,0.3,0.1,0.3,0
			C66.4,9.2,66.2,9,66.1,9"/>
		<path id="XMLID_390_" class="st2" d="M66.1,8.6c-0.1-0.1-0.2-0.1-0.2,0c0,0.1,0.1,0.2,0.2,0.3c0.1,0.1,0.2,0.1,0.2,0
			C66.4,8.7,66.3,8.6,66.1,8.6"/>
		<path id="XMLID_389_" class="st2" d="M66.2,8.2c-0.1-0.1-0.2,0-0.2,0c0,0.1,0.1,0.2,0.2,0.2c0.1,0.1,0.2,0,0.2,0
			C66.4,8.3,66.3,8.2,66.2,8.2"/>
		<path id="XMLID_388_" class="st2" d="M66.2,7.8c-0.1,0-0.2-0.1-0.2,0C66,7.8,66,7.9,66.1,8s0.2,0.1,0.2,0
			C66.3,7.9,66.3,7.8,66.2,7.8"/>
		<path id="XMLID_387_" class="st2" d="M66.2,7.4c-0.1,0-0.2-0.1-0.2,0c0,0.1,0.1,0.1,0.2,0.2c0.1,0,0.2,0.1,0.2,0
			C66.4,7.6,66.3,7.5,66.2,7.4"/>
		<path id="XMLID_386_" class="st2" d="M66.2,7.1c-0.1,0-0.1,0-0.2,0c0,0,0,0.1,0.1,0.2c0.1,0,0.1,0,0.2,0
			C66.4,7.2,66.3,7.1,66.2,7.1"/>
		<path id="XMLID_385_" class="st2" d="M66.2,6.8c-0.1,0-0.1,0-0.1,0c0,0,0,0.1,0.1,0.1c0.1,0,0.1,0,0.1,0
			C66.4,6.9,66.3,6.8,66.2,6.8"/>
		<path id="XMLID_384_" class="st2" d="M66.2,6.4c-0.1,0-0.1,0-0.1,0c0,0,0,0.1,0.1,0.1c0.1,0,0.1,0,0.1,0
			C66.4,6.5,66.3,6.5,66.2,6.4"/>
		<path id="XMLID_383_" class="st2" d="M65.4,14c0.1,0.1,0.3,0,0.3-0.1c0-0.1-0.1-0.3-0.2-0.4c-0.1-0.1-0.3,0-0.3,0.1
			C65.1,13.8,65.2,14,65.4,14"/>
		<path id="XMLID_382_" class="st2" d="M65.2,14.9c0.1,0.1,0.3,0,0.3-0.1c0-0.1-0.1-0.3-0.2-0.4c-0.1-0.1-0.3,0-0.3,0.1
			C65,14.6,65.1,14.8,65.2,14.9"/>
		<path id="XMLID_381_" class="st2" d="M65,15.7c0.1,0.1,0.3,0,0.3-0.1c0-0.1-0.1-0.3-0.2-0.4c-0.1-0.1-0.3,0-0.3,0.1
			C64.8,15.5,64.9,15.6,65,15.7"/>
		<path id="XMLID_380_" class="st2" d="M64.9,16.6c0.1,0.1,0.2,0,0.3-0.1c0-0.1-0.1-0.3-0.2-0.3c-0.1-0.1-0.2,0-0.3,0.1
			C64.7,16.4,64.7,16.6,64.9,16.6"/>
		<path id="XMLID_379_" class="st2" d="M64.7,17.5c0.1,0,0.2,0,0.3-0.1c0-0.1-0.1-0.3-0.2-0.3c-0.1,0-0.2,0-0.3,0.1
			C64.4,17.3,64.5,17.5,64.7,17.5"/>
		<path id="XMLID_378_" class="st2" d="M64.4,18.6c0.1,0,0.2,0,0.2-0.1c0-0.1,0-0.3-0.2-0.3s-0.2,0-0.2,0.1
			C64.2,18.4,64.3,18.6,64.4,18.6"/>
		<path id="XMLID_377_" class="st2" d="M68.1,11c-0.2-0.1-0.3-0.1-0.3,0.1c0,0.1,0.1,0.3,0.3,0.4c0.2,0.1,0.3,0.1,0.3-0.1
			S68.2,11.1,68.1,11"/>
		<path id="XMLID_376_" class="st2" d="M68,12.1c-0.1-0.1-0.3,0-0.3,0.1c0,0.1,0.1,0.3,0.3,0.4c0.1,0.1,0.3,0,0.3-0.1
			C68.3,12.4,68.2,12.2,68,12.1"/>
		<path id="XMLID_375_" class="st2" d="M68,12.7c-0.2-0.1-0.3,0-0.3,0.1c0,0.1,0.1,0.3,0.3,0.4c0.2,0.1,0.3,0,0.3-0.1
			C68.3,13,68.2,12.8,68,12.7"/>
		<path id="XMLID_374_" class="st2" d="M67.9,14.9c-0.2-0.1-0.3,0-0.3,0.1s0.1,0.4,0.3,0.5c0.2,0.1,0.3,0,0.3-0.1
			C68.2,15.1,68.1,14.9,67.9,14.9"/>
		<path id="XMLID_373_" class="st2" d="M70.8,12c-0.1-0.1-0.2-0.1-0.2,0.1c0,0.1,0.1,0.3,0.3,0.4c0.1,0.1,0.2,0.1,0.2-0.1
			S70.9,12.1,70.8,12"/>
		<path id="XMLID_372_" class="st2" d="M68.7,18.1c-0.2-0.1-0.3,0-0.3,0.1c0,0.2,0.1,0.4,0.3,0.5c0.2,0.1,0.3,0,0.3-0.2
			C69,18.4,68.9,18.1,68.7,18.1"/>
		<path id="XMLID_371_" class="st2" d="M69.6,19.7c-0.1-0.1-0.3,0-0.3,0.2c0,0.2,0.1,0.4,0.3,0.5s0.3,0,0.3-0.2
			C69.8,20,69.7,19.8,69.6,19.7"/>
		<path id="XMLID_370_" class="st2" d="M67.9,16.6c-0.2-0.1-0.3,0-0.3,0.1c0,0.2,0.1,0.4,0.3,0.5c0.2,0.1,0.3,0,0.3-0.2
			C68.2,16.9,68,16.7,67.9,16.6"/>
		<path id="XMLID_369_" class="st2" d="M67.1,15.2c-0.2-0.1-0.3,0-0.3,0.1c0,0.2,0.1,0.4,0.3,0.5c0.2,0.1,0.3,0,0.3-0.1
			C67.4,15.5,67.2,15.3,67.1,15.2"/>
		<path id="XMLID_368_" class="st2" d="M66.3,14c-0.2-0.1-0.3,0-0.4,0.1c0,0.2,0.1,0.4,0.3,0.5c0.2,0.1,0.3,0,0.4-0.1
			C66.6,14.3,66.5,14,66.3,14"/>
		<path id="XMLID_367_" class="st2" d="M68,14.1c-0.2-0.1-0.3,0-0.3,0.1c0,0.1,0.1,0.3,0.3,0.4c0.2,0.1,0.3,0,0.3-0.1
			C68.2,14.4,68.1,14.2,68,14.1"/>
		<path id="XMLID_366_" class="st2" d="M67.4,9.7c-0.1-0.1-0.3-0.1-0.3,0c0,0.1,0.1,0.2,0.3,0.3s0.3,0.1,0.3,0
			C67.7,9.9,67.6,9.7,67.4,9.7"/>
		<path id="XMLID_365_" class="st2" d="M70.1,11.7c-0.1-0.1-0.2,0-0.2,0c0,0.1,0.1,0.2,0.2,0.3c0.1,0.1,0.2,0,0.2,0
			C70.3,11.8,70.2,11.7,70.1,11.7"/>
		<path id="XMLID_364_" class="st2" d="M68.8,13.2c-0.1-0.1-0.2,0-0.2,0.1c0,0.1,0.1,0.3,0.2,0.3c0.1,0.1,0.2,0,0.2-0.1
			C69,13.4,68.9,13.3,68.8,13.2"/>
		<path id="XMLID_363_" class="st2" d="M68.7,16.2c-0.2-0.1-0.3,0-0.3,0.1c0,0.2,0.1,0.4,0.3,0.5c0.2,0.1,0.3,0,0.3-0.1
			C69,16.5,68.9,16.3,68.7,16.2"/>
		<path id="XMLID_362_" class="st2" d="M68,13.4c-0.1-0.1-0.3,0-0.3,0.1c0,0.1,0.1,0.3,0.3,0.4c0.2,0.1,0.3,0,0.3-0.1
			C68.3,13.7,68.2,13.5,68,13.4"/>
		<path id="XMLID_361_" class="st2" d="M69.6,14.3c-0.1-0.1-0.3,0-0.3,0.1c0,0.1,0.1,0.3,0.3,0.4c0.1,0.1,0.3,0,0.3-0.1
			C69.8,14.6,69.7,14.4,69.6,14.3"/>
		<path id="XMLID_360_" class="st2" d="M70.2,21.5c-0.1-0.1-0.2,0-0.2,0.1s0.1,0.4,0.2,0.5c0.1,0.1,0.2,0,0.2-0.1
			S70.3,21.6,70.2,21.5"/>
		<path id="XMLID_359_" class="st2" d="M69.5,12.4c-0.1-0.1-0.2,0-0.2,0.1s0.1,0.3,0.3,0.3c0.1,0.1,0.2,0,0.2-0.1
			C69.8,12.6,69.6,12.4,69.5,12.4"/>
		<path id="XMLID_358_" class="st2" d="M66.8,9.3c-0.1-0.1-0.2-0.1-0.3,0c0,0.1,0.1,0.2,0.2,0.3c0.1,0.1,0.2,0.1,0.3,0
			C67,9.5,66.9,9.4,66.8,9.3"/>
		<path id="XMLID_357_" class="st2" d="M68.1,9.6c-0.1-0.1-0.2-0.1-0.2,0c0,0.1,0.1,0.2,0.2,0.3s0.2,0.1,0.2,0
			C68.3,9.8,68.2,9.7,68.1,9.6"/>
		<path id="XMLID_356_" class="st2" d="M69.5,11.3c-0.1-0.1-0.2,0-0.2,0c0,0.1,0.1,0.2,0.2,0.3c0.1,0.1,0.2,0,0.2,0
			C69.7,11.5,69.6,11.4,69.5,11.3"/>
		<path id="XMLID_355_" class="st2" d="M68.8,13.9c-0.1-0.1-0.2,0-0.2,0.1c0,0.1,0.1,0.3,0.2,0.4c0.1,0.1,0.2,0,0.2-0.1
			C69,14.1,68.9,14,68.8,13.9"/>
		<path id="XMLID_354_" class="st2" d="M69.5,13.6c-0.1-0.1-0.2,0-0.2,0.1c0,0.1,0.1,0.2,0.2,0.3c0.1,0.1,0.2,0,0.2-0.1
			C69.7,13.9,69.6,13.7,69.5,13.6"/>
		<path id="XMLID_353_" class="st2" d="M70.3,14.8c-0.1-0.1-0.2,0-0.2,0.1c0,0.1,0.1,0.3,0.2,0.4s0.2,0,0.2-0.1
			C70.5,15,70.4,14.9,70.3,14.8"/>
		<path id="XMLID_352_" class="st2" d="M71.5,13c-0.1-0.1-0.2,0-0.2,0c0,0.1,0.1,0.2,0.2,0.3s0.2,0,0.2,0
			C71.6,13.2,71.5,13.1,71.5,13"/>
		<path id="XMLID_351_" class="st2" d="M68.1,9.2c-0.1-0.1-0.2,0-0.2,0c0,0.1,0.1,0.2,0.2,0.2s0.2,0,0.2,0
			C68.3,9.4,68.2,9.3,68.1,9.2"/>
		<path id="XMLID_350_" class="st2" d="M68.1,10.1c-0.1-0.1-0.2,0-0.2,0s0.1,0.2,0.2,0.3c0.1,0.1,0.2,0,0.2,0
			C68.3,10.2,68.2,10.1,68.1,10.1"/>
		<path id="XMLID_349_" class="st2" d="M70.3,20.4c-0.1-0.1-0.2,0-0.2,0.1s0.1,0.4,0.2,0.5c0.1,0.1,0.2,0,0.2-0.2
			C70.6,20.7,70.5,20.5,70.3,20.4"/>
		<path id="XMLID_348_" class="st2" d="M67.5,9.3c-0.1-0.1-0.2,0-0.2,0c0,0.1,0.1,0.2,0.2,0.2c0.1,0.1,0.2,0,0.2,0
			C67.7,9.4,67.6,9.3,67.5,9.3"/>
		<path id="XMLID_347_" class="st2" d="M68.8,12.6c-0.1-0.1-0.2,0-0.2,0.1c0,0.1,0.1,0.2,0.2,0.3c0.1,0.1,0.2,0,0.2-0.1
			C69,12.8,68.9,12.7,68.8,12.6"/>
		<path id="XMLID_346_" class="st2" d="M68.8,10.9c-0.1,0-0.2,0-0.2,0c0,0.1,0.1,0.2,0.2,0.2c0.1,0,0.2,0,0.2,0
			C68.9,11.1,68.9,11,68.8,10.9"/>
		<path id="XMLID_345_" class="st2" d="M68.8,15.4c-0.1-0.1-0.2,0-0.2,0.1s0.1,0.3,0.2,0.3c0.1,0.1,0.2,0,0.2-0.1
			C69,15.6,68.9,15.5,68.8,15.4"/>
		<path id="XMLID_344_" class="st2" d="M69.6,17.6c-0.1-0.1-0.2,0-0.2,0.1c0,0.1,0.1,0.3,0.2,0.4c0.1,0.1,0.2,0,0.2-0.1
			C69.8,17.9,69.7,17.7,69.6,17.6"/>
		<path id="XMLID_343_" class="st2" d="M68.1,10.6c-0.1,0-0.2,0-0.2,0c0,0.1,0.1,0.1,0.1,0.2c0.1,0,0.2,0,0.2,0
			C68.2,10.7,68.2,10.6,68.1,10.6"/>
		<path id="XMLID_342_" class="st2" d="M69.5,20.7c-0.1-0.1-0.2,0-0.2,0.1c0,0.1,0.1,0.3,0.2,0.4c0.1,0.1,0.2,0,0.2-0.1
			C69.7,21,69.6,20.8,69.5,20.7"/>
		<path id="XMLID_341_" class="st2" d="M70.2,12.8c-0.1-0.1-0.2,0-0.2,0c0,0.1,0.1,0.2,0.2,0.3c0.1,0.1,0.2,0,0.2-0.1
			C70.4,13,70.3,12.9,70.2,12.8"/>
		<path id="XMLID_340_" class="st2" d="M68.8,9.6c-0.1,0-0.2,0-0.2,0c0,0.1,0.1,0.2,0.2,0.2c0.1,0,0.2,0,0.2,0
			C68.9,9.7,68.9,9.6,68.8,9.6"/>
		<path id="XMLID_339_" class="st2" d="M72.7,13.3c-0.1,0-0.1,0-0.1,0c0,0.1,0.1,0.2,0.2,0.2c0.1,0,0.1,0,0.1,0
			C72.9,13.5,72.8,13.4,72.7,13.3"/>
		<path id="XMLID_338_" class="st2" d="M71,15.3c-0.1-0.1-0.2,0-0.2,0.1c0,0.1,0.1,0.3,0.2,0.4c0.1,0.1,0.2,0,0.2-0.1
			C71.2,15.5,71.1,15.3,71,15.3"/>
		<path id="XMLID_337_" class="st2" d="M70.7,22.6c-0.1-0.1-0.2,0-0.2,0.1c0,0.2,0.1,0.3,0.2,0.4c0.1,0.1,0.2,0,0.2-0.1
			C70.8,22.9,70.8,22.7,70.7,22.6"/>
		<path id="XMLID_336_" class="st2" d="M68.7,19.1c-0.1-0.1-0.2,0-0.2,0.1c0,0.1,0.1,0.3,0.2,0.4c0.1,0.1,0.2,0,0.2-0.1
			C68.9,19.4,68.8,19.2,68.7,19.1"/>
		<path id="XMLID_335_" class="st2" d="M70.3,14.1c-0.1,0-0.1,0-0.1,0s0.1,0.2,0.2,0.2c0.1,0,0.1,0,0.1,0
			C70.4,14.3,70.3,14.2,70.3,14.1"/>
		<path id="XMLID_334_" class="st2" d="M68.7,9.2c-0.1,0-0.1,0-0.1,0c0,0.1,0.1,0.1,0.2,0.2c0.1,0,0.1,0,0.1,0
			C68.9,9.3,68.8,9.2,68.7,9.2"/>
		<path id="XMLID_333_" class="st2" d="M69.3,9.5c-0.1,0-0.1,0-0.1,0c0,0,0.1,0.1,0.1,0.1c0.1,0,0.1,0,0.1,0
			C69.5,9.6,69.4,9.6,69.3,9.5"/>
		<path id="XMLID_332_" class="st2" d="M67.8,17.7c-0.1,0-0.2,0-0.2,0.1s0.1,0.2,0.2,0.3c0.1,0,0.2,0,0.2-0.1S67.9,17.7,67.8,17.7"
			/>
		<path id="XMLID_331_" class="st2" d="M67,16.2c-0.1,0-0.2,0-0.2,0.1c0,0.1,0.1,0.2,0.2,0.3c0.1,0,0.2,0,0.2-0.1
			C67.1,16.4,67.1,16.3,67,16.2"/>
		<path id="XMLID_330_" class="st2" d="M66.2,14.9c-0.1,0-0.2,0-0.2,0.1c0,0.1,0.1,0.2,0.2,0.3c0.1,0,0.2,0,0.2-0.1
			S66.3,15,66.2,14.9"/>
		<path id="XMLID_329_" class="st2" d="M69.3,9.1c-0.1,0-0.1,0-0.1,0c0,0,0.1,0.1,0.1,0.2s0.1,0,0.1,0C69.4,9.2,69.4,9.2,69.3,9.1"
			/>
		<path id="XMLID_328_" class="st2" d="M69.8,9.2c-0.1,0-0.1,0-0.1,0s0,0.1,0.1,0.1c0.1,0,0.1,0,0.1,0C69.9,9.2,69.8,9.2,69.8,9.2"
			/>
		<path id="XMLID_327_" class="st2" d="M71.7,15.8c-0.1,0-0.1,0-0.1,0c0,0.1,0.1,0.2,0.1,0.2c0.1,0,0.1,0,0.1,0
			C71.9,16,71.8,15.9,71.7,15.8"/>
		<path id="XMLID_326_" class="st2" d="M71.1,16c-0.1-0.1-0.2,0-0.2,0.1s0.1,0.2,0.2,0.3c0.1,0.1,0.2,0,0.1-0.1
			C71.2,16.2,71.2,16.1,71.1,16"/>
		<path id="XMLID_325_" class="st2" d="M70.3,15.5c-0.1,0-0.1,0-0.1,0.1c0,0.1,0.1,0.2,0.2,0.3c0.1,0,0.1,0,0.1-0.1
			C70.5,15.7,70.4,15.6,70.3,15.5"/>
		<path id="XMLID_324_" class="st2" d="M69.6,15.1c-0.1,0-0.1,0-0.1,0.1c0,0.1,0.1,0.2,0.1,0.2c0.1,0,0.1,0,0.1-0.1
			S69.6,15.1,69.6,15.1"/>
		<path id="XMLID_323_" class="st2" d="M68.8,14.6c-0.1,0-0.1,0-0.1,0.1c0,0.1,0.1,0.2,0.1,0.2c0.1,0,0.1,0,0.1-0.1
			C68.9,14.8,68.9,14.7,68.8,14.6"/>
		<path id="XMLID_322_" class="st2" d="M71.8,16.5c-0.1,0-0.1,0-0.1,0.1c0,0.1,0.1,0.2,0.1,0.2s0.1,0,0.1-0.1
			C71.9,16.7,71.9,16.6,71.8,16.5"/>
		<path id="XMLID_321_" class="st2" d="M72.5,17.1C72.5,17,72.4,17,72.5,17.1c-0.1,0.1,0,0.2,0,0.3c0.1,0,0.1,0,0.1,0
			C72.6,17.2,72.6,17.1,72.5,17.1"/>
		<path id="XMLID_320_" class="st2" d="M68.7,10c-0.1,0-0.1,0-0.1,0c0,0.1,0.1,0.1,0.1,0.2c0.1,0,0.1,0,0.1,0
			C68.9,10.1,68.8,10.1,68.7,10"/>
		<path id="XMLID_319_" class="st2" d="M63.8,12c-0.2-0.1-0.4,0-0.4,0.1c0,0.2,0.1,0.4,0.3,0.5c0.2,0.1,0.4,0,0.4-0.1
			C64.2,12.3,64,12.1,63.8,12"/>
		<path id="XMLID_318_" class="st2" d="M63,11.5c-0.2-0.1-0.5-0.1-0.5,0.1c0,0.2,0.1,0.4,0.4,0.6c0.3,0.1,0.5,0,0.5-0.1
			C63.4,11.8,63.2,11.6,63,11.5"/>
		<path id="XMLID_317_" class="st2" d="M57.4,5.6c0.1,0,0.2,0.1,0.1,0.2s-0.2,0.1-0.3,0c-0.1,0-0.2-0.1-0.1-0.2
			C57.1,5.6,57.3,5.5,57.4,5.6"/>
		<path id="XMLID_316_" class="st2" d="M58.3,5.9c0.2,0.1,0.2,0.2,0.2,0.2c0,0.1-0.2,0.1-0.4,0C58,6.1,57.9,6,57.9,5.9
			C58,5.8,58.1,5.8,58.3,5.9"/>
		<path id="XMLID_315_" class="st2" d="M58,13.2c0.1,0.1,0.2,0.2,0.2,0.3c-0.1,0.1-0.2,0.2-0.4,0.1c-0.1-0.1-0.2-0.2-0.2-0.3
			C57.6,13.2,57.8,13.1,58,13.2"/>
		<path id="XMLID_314_" class="st2" d="M59.3,12.5c0.2,0.1,0.3,0.3,0.2,0.4c-0.1,0.2-0.3,0.2-0.5,0.1c-0.2-0.1-0.3-0.3-0.2-0.4
			C58.9,12.5,59.1,12.4,59.3,12.5"/>
		<path id="XMLID_313_" class="st2" d="M60.6,12.1c0.2,0.1,0.3,0.3,0.3,0.5c-0.1,0.2-0.3,0.2-0.5,0.1c-0.2-0.1-0.3-0.3-0.3-0.5
			C60.2,12.1,60.4,12.1,60.6,12.1"/>
		<path id="XMLID_312_" class="st2" d="M63.1,7.9c0.2,0.1,0.3,0.2,0.3,0.3c0,0.1-0.2,0.1-0.4,0c-0.2-0.1-0.3-0.2-0.3-0.4
			C62.8,7.8,62.9,7.8,63.1,7.9"/>
		<path id="XMLID_311_" class="st2" d="M58.9,6.6c0.2,0.1,0.3,0.2,0.2,0.3c0,0.1-0.2,0.1-0.4,0s-0.3-0.2-0.2-0.3
			C58.6,6.6,58.7,6.6,58.9,6.6"/>
		<path id="XMLID_310_" class="st2" d="M59.7,6.9C59.9,7,60,7.1,60,7.2c0,0.1-0.2,0.1-0.4,0S59.3,7.1,59.3,7
			C59.4,6.9,59.6,6.9,59.7,6.9"/>
		<path id="XMLID_309_" class="st2" d="M61.2,8.1c0.2,0.1,0.3,0.2,0.3,0.4c0,0.1-0.2,0.1-0.4,0c-0.2-0.1-0.3-0.2-0.3-0.4
			C60.8,8,61,8,61.2,8.1"/>
		<path id="XMLID_308_" class="st2" d="M60.6,7.3c0.2,0.1,0.3,0.2,0.2,0.3c0,0.1-0.2,0.1-0.4,0c-0.2-0.1-0.3-0.2-0.2-0.3
			C60.2,7.2,60.4,7.2,60.6,7.3"/>
		<path id="XMLID_304_" class="st2" d="M61.4,7.6c0.2,0.1,0.3,0.2,0.3,0.4s-0.2,0.1-0.4,0C61,7.9,60.9,7.8,61,7.7
			C61,7.6,61.2,7.5,61.4,7.6"/>
		<path id="XMLID_301_" class="st2" d="M62,8.4c0.2,0.1,0.3,0.3,0.3,0.4C62.2,9,62,9,61.8,8.9c-0.2-0.1-0.3-0.3-0.3-0.4
			C61.6,8.4,61.8,8.4,62,8.4"/>
		<path id="XMLID_300_" class="st2" d="M61.9,11.8c0.2,0.1,0.3,0.3,0.3,0.5c0,0.2-0.3,0.2-0.5,0.1c-0.2-0.1-0.3-0.3-0.3-0.5
			C61.4,11.8,61.6,11.7,61.9,11.8"/>
		<path id="XMLID_293_" class="st2" d="M62.1,11.1c0.2,0.1,0.4,0.3,0.3,0.5c0,0.2-0.3,0.2-0.5,0.1c-0.2-0.1-0.4-0.3-0.3-0.5
			C61.6,11.1,61.8,11,62.1,11.1"/>
		<path id="XMLID_292_" class="st2" d="M62.3,10.5c0.2,0.1,0.4,0.3,0.3,0.5s-0.3,0.2-0.5,0.1c-0.2-0.1-0.4-0.3-0.3-0.5
			C61.8,10.4,62,10.4,62.3,10.5"/>
		<path id="XMLID_291_" class="st2" d="M62.5,9.9c0.2,0.1,0.4,0.3,0.3,0.5s-0.3,0.2-0.5,0.1c-0.2-0.1-0.4-0.3-0.3-0.5
			C62,9.8,62.2,9.8,62.5,9.9"/>
		<path id="XMLID_290_" class="st2" d="M62.6,9.3c0.2,0.1,0.3,0.3,0.3,0.4c0,0.1-0.2,0.2-0.5,0.1s-0.3-0.3-0.3-0.4
			C62.2,9.3,62.4,9.2,62.6,9.3"/>
		<path id="XMLID_289_" class="st2" d="M62.8,8.8c0.2,0.1,0.4,0.3,0.3,0.4c0,0.1-0.3,0.2-0.5,0.1c-0.2-0.1-0.4-0.3-0.3-0.5
			C62.4,8.7,62.6,8.7,62.8,8.8"/>
		<path id="XMLID_288_" class="st2" d="M63,8.3c0.2,0.1,0.3,0.3,0.3,0.4c0,0.1-0.2,0.2-0.5,0c-0.2-0.1-0.4-0.3-0.3-0.4
			C62.6,8.2,62.8,8.2,63,8.3"/>
		<path id="XMLID_285_" class="st2" d="M64.7,8.2c0.1,0.1,0.2,0.2,0.2,0.3c0,0.1-0.1,0.1-0.3,0c-0.1-0.1-0.2-0.2-0.2-0.3
			C64.4,8.2,64.5,8.1,64.7,8.2"/>
		<path id="XMLID_284_" class="st2" d="M64.8,7.8C64.9,7.9,65,8,65,8.1c0,0.1-0.1,0.1-0.3,0c-0.1-0.1-0.2-0.2-0.2-0.3
			C64.5,7.8,64.7,7.8,64.8,7.8"/>
		<path id="XMLID_280_" class="st2" d="M64.9,7.5c0.1,0.1,0.2,0.2,0.2,0.2s-0.1,0.1-0.2,0c-0.1-0.1-0.2-0.2-0.2-0.2
			C64.7,7.4,64.8,7.4,64.9,7.5"/>
		<path id="XMLID_279_" class="st2" d="M65,7.1c0.1,0,0.2,0.1,0.2,0.2c0,0.1-0.1,0.1-0.2,0c-0.1,0-0.2-0.1-0.2-0.2
			C64.8,7.1,64.9,7.1,65,7.1"/>
		<path id="XMLID_278_" class="st2" d="M65.1,6.8c0.1,0,0.2,0.1,0.1,0.2c0,0.1-0.1,0-0.2,0c-0.1,0-0.2-0.1-0.1-0.2
			C64.9,6.7,65,6.7,65.1,6.8"/>
		<path id="XMLID_277_" class="st2" d="M65.2,6.5c0.1,0,0.1,0.1,0.1,0.2s-0.1,0-0.2,0c-0.1,0-0.1-0.1-0.1-0.2
			C65,6.4,65.1,6.4,65.2,6.5"/>
		<path id="XMLID_272_" class="st2" d="M65.3,6.2c0.1,0,0.1,0.1,0.1,0.1c0,0-0.1,0-0.1,0c-0.1,0-0.1-0.1-0.1-0.1
			C65.1,6.2,65.2,6.2,65.3,6.2"/>
		<path id="XMLID_271_" class="st2" d="M65.3,6c0.1,0,0.1,0.1,0.1,0.1c0,0-0.1,0-0.1,0c-0.1,0-0.1-0.1-0.1-0.1
			C65.2,5.9,65.3,5.9,65.3,6"/>
		<path id="XMLID_270_" class="st2" d="M63.6,13.2c-0.1-0.1-0.2-0.2-0.2-0.4c0-0.1,0.2-0.2,0.3-0.1c0.1,0.1,0.2,0.2,0.2,0.3
			C63.8,13.2,63.7,13.2,63.6,13.2"/>
		<path id="XMLID_269_" class="st2" d="M63.4,14c-0.1-0.1-0.2-0.2-0.2-0.3c0-0.1,0.2-0.2,0.3-0.1c0.1,0.1,0.2,0.2,0.2,0.3
			C63.7,14,63.5,14,63.4,14"/>
		<path id="XMLID_134_" class="st2" d="M63.2,14.8c-0.1-0.1-0.2-0.2-0.2-0.4c0-0.1,0.2-0.2,0.3-0.1c0.1,0.1,0.2,0.2,0.2,0.3
			C63.5,14.8,63.4,14.9,63.2,14.8"/>
		<path id="XMLID_133_" class="st2" d="M63.1,15.7c-0.1-0.1-0.2-0.2-0.2-0.3c0-0.1,0.2-0.2,0.3-0.1c0.1,0.1,0.2,0.2,0.2,0.3
			C63.4,15.7,63.2,15.8,63.1,15.7"/>
		<path id="XMLID_132_" class="st2" d="M62.9,16.7c-0.1-0.1-0.2-0.2-0.2-0.3s0.1-0.2,0.3-0.1c0.1,0.1,0.2,0.2,0.2,0.3
			C63.1,16.7,63,16.8,62.9,16.7"/>
		<path id="XMLID_131_" class="st2" d="M62.7,17.9c-0.1,0-0.2-0.2-0.2-0.3c0-0.1,0.1-0.2,0.3-0.1c0.1,0,0.2,0.2,0.2,0.3
			C63,17.9,62.8,17.9,62.7,17.9"/>
		<path id="XMLID_130_" class="st2" d="M62.2,8c0.2,0.1,0.3,0.2,0.3,0.4c0,0.1-0.2,0.1-0.4,0c-0.2-0.1-0.3-0.2-0.3-0.4
			S62,7.9,62.2,8"/>
		<path id="XMLID_129_" class="st2" d="M61.8,9C61.9,9.1,62,9.2,62,9.3c0,0.1-0.2,0.1-0.4,0.1c-0.2-0.1-0.3-0.2-0.2-0.3
			C61.4,8.9,61.6,8.9,61.8,9"/>
		<path id="XMLID_128_" class="st2" d="M61.6,9.5c0.2,0.1,0.3,0.3,0.3,0.4c0,0.1-0.2,0.2-0.4,0.1c-0.2-0.1-0.3-0.3-0.3-0.4
			C61.2,9.5,61.4,9.4,61.6,9.5"/>
		<path id="XMLID_127_" class="st2" d="M60.9,11.4c0.2,0.1,0.3,0.3,0.2,0.4c0,0.1-0.2,0.2-0.4,0.1s-0.3-0.3-0.2-0.4
			C60.5,11.4,60.7,11.3,60.9,11.4"/>
		<path id="XMLID_126_" class="st2" d="M59.2,6.2c0.2,0.1,0.3,0.2,0.2,0.3c-0.1,0.1-0.2,0.1-0.4,0c-0.2-0.1-0.3-0.2-0.2-0.3
			C58.8,6.1,59,6.1,59.2,6.2"/>
		<path id="XMLID_125_" class="st2" d="M58.9,13.4c0.2,0.1,0.3,0.3,0.2,0.4c-0.1,0.2-0.3,0.2-0.5,0.1c-0.2-0.1-0.3-0.3-0.2-0.4
			C58.6,13.4,58.7,13.4,58.9,13.4"/>
		<path id="XMLID_124_" class="st2" d="M57.6,14c0.2,0.1,0.3,0.3,0.2,0.4c-0.1,0.2-0.3,0.2-0.5,0.2c-0.2-0.1-0.3-0.3-0.2-0.4
			C57.2,14,57.4,13.9,57.6,14"/>
		<path id="XMLID_123_" class="st2" d="M60.3,13c0.2,0.1,0.3,0.3,0.2,0.4c-0.1,0.2-0.3,0.2-0.5,0.1c-0.2-0.1-0.3-0.3-0.2-0.5
			C59.9,12.9,60.1,12.9,60.3,13"/>
		<path id="XMLID_110_" class="st2" d="M61.6,12.6c0.2,0.1,0.3,0.3,0.2,0.4c0,0.1-0.2,0.2-0.4,0.1s-0.3-0.3-0.2-0.4
			C61.2,12.6,61.4,12.5,61.6,12.6"/>
		<path id="XMLID_50_" class="st2" d="M62.8,12.2c0.2,0.1,0.3,0.3,0.3,0.4c0,0.2-0.2,0.2-0.4,0.1c-0.2-0.1-0.3-0.3-0.3-0.5
			C62.4,12.2,62.6,12.2,62.8,12.2"/>
		<path id="XMLID_49_" class="st2" d="M61.1,10.7c0.2,0.1,0.3,0.2,0.2,0.4c0,0.1-0.2,0.2-0.4,0.1c-0.2-0.1-0.3-0.2-0.2-0.4
			C60.8,10.7,60.9,10.7,61.1,10.7"/>
		<path id="XMLID_48_" class="st2" d="M63.2,7.5c0.2,0.1,0.3,0.2,0.2,0.3c0,0.1-0.2,0.1-0.3,0c-0.2-0.1-0.3-0.2-0.2-0.3
			C62.9,7.4,63.1,7.4,63.2,7.5"/>
		<path id="XMLID_47_" class="st2" d="M60,6.6c0.1,0.1,0.2,0.2,0.2,0.2c0,0.1-0.2,0.1-0.3,0s-0.2-0.2-0.2-0.2
			C59.7,6.5,59.9,6.5,60,6.6"/>
		<path id="XMLID_46_" class="st2" d="M60.7,9.2c0.1,0.1,0.2,0.2,0.2,0.3c0,0.1-0.2,0.1-0.4,0.1c-0.2-0.1-0.2-0.2-0.2-0.3
			C60.4,9.1,60.6,9.1,60.7,9.2"/>
		<path id="XMLID_45_" class="st2" d="M59.6,11.7c0.2,0.1,0.3,0.3,0.2,0.4c-0.1,0.1-0.3,0.2-0.5,0.1c-0.2-0.1-0.3-0.3-0.2-0.4
			C59.2,11.7,59.4,11.7,59.6,11.7"/>
		<path id="XMLID_44_" class="st2" d="M61.3,10.1c0.2,0.1,0.3,0.2,0.2,0.4c0,0.1-0.2,0.2-0.4,0.1c-0.2-0.1-0.3-0.2-0.2-0.4
			C61,10.1,61.2,10.1,61.3,10.1"/>
		<path id="XMLID_43_" class="st2" d="M59.5,9.4c0.2,0.1,0.3,0.2,0.2,0.3c-0.1,0.1-0.2,0.1-0.4,0.1c-0.2-0.1-0.3-0.2-0.2-0.3
			C59.2,9.3,59.4,9.3,59.5,9.4"/>
		<path id="XMLID_42_" class="st2" d="M56.4,14.5c0.1,0,0.2,0.2,0.1,0.3c-0.1,0.1-0.2,0.2-0.4,0.1c-0.1,0-0.2-0.2-0.1-0.3
			C56.2,14.5,56.3,14.5,56.4,14.5"/>
		<path id="XMLID_41_" class="st2" d="M60.3,7.8c0.2,0.1,0.3,0.2,0.2,0.3c0,0.1-0.2,0.1-0.4,0s-0.3-0.2-0.2-0.3
			C60,7.7,60.2,7.7,60.3,7.8"/>
		<path id="XMLID_40_" class="st2" d="M64,7.9c0.1,0.1,0.2,0.2,0.2,0.3c0,0.1-0.1,0.1-0.3,0c-0.1-0.1-0.2-0.2-0.2-0.3
			C63.7,7.8,63.8,7.8,64,7.9"/>
		<path id="XMLID_39_" class="st2" d="M61.9,6.5c0.1,0,0.2,0.1,0.2,0.2c0,0-0.1,0.1-0.2,0c-0.1,0-0.2-0.1-0.2-0.2
			C61.7,6.4,61.8,6.4,61.9,6.5"/>
		<path id="XMLID_38_" class="st2" d="M60.8,6.9c0.1,0,0.2,0.1,0.2,0.2c0,0.1-0.2,0.1-0.3,0S60.5,7,60.5,6.9
			C60.5,6.8,60.7,6.8,60.8,6.9"/>
		<path id="XMLID_37_" class="st2" d="M60.4,9.8c0.2,0.1,0.2,0.2,0.2,0.3c0,0.1-0.2,0.1-0.4,0.1c-0.2-0.1-0.3-0.2-0.2-0.3
			C60.1,9.7,60.3,9.7,60.4,9.8"/>
		<path id="XMLID_36_" class="st2" d="M59.8,8.8C60,8.9,60,9,60,9.1c0,0.1-0.2,0.1-0.3,0c-0.1-0.1-0.2-0.2-0.2-0.3
			C59.5,8.8,59.7,8.8,59.8,8.8"/>
		<path id="XMLID_35_" class="st2" d="M58.6,9c0.2,0.1,0.3,0.2,0.2,0.3c-0.1,0.1-0.2,0.1-0.4,0.1c-0.2-0.1-0.3-0.2-0.2-0.3
			C58.3,9,58.4,9,58.6,9"/>
		<path id="XMLID_34_" class="st2" d="M58,6.3c0.1,0,0.2,0.1,0.2,0.2c0,0.1-0.2,0.1-0.3,0c-0.1,0-0.2-0.1-0.2-0.2
			C57.8,6.3,57.9,6.3,58,6.3"/>
		<path id="XMLID_33_" class="st2" d="M62.1,6.1c0.1,0,0.2,0.1,0.2,0.2c0,0.1-0.1,0.1-0.2,0c-0.1,0-0.2-0.1-0.2-0.2
			C61.9,6.1,62,6.1,62.1,6.1"/>
		<path id="XMLID_32_" class="st2" d="M62.5,7.1c0.1,0.1,0.2,0.2,0.2,0.3c0,0.1-0.2,0.1-0.3,0c-0.1-0.1-0.2-0.2-0.2-0.3
			C62.2,7.1,62.4,7.1,62.5,7.1"/>
		<path id="XMLID_31_" class="st2" d="M62.7,6.7c0.1,0.1,0.2,0.2,0.2,0.2c0,0.1-0.1,0.1-0.3,0c-0.1-0.1-0.2-0.2-0.2-0.2
			C62.4,6.7,62.6,6.7,62.7,6.7"/>
		<path id="XMLID_30_" class="st2" d="M60.9,8.7c0.1,0.1,0.2,0.2,0.2,0.3c0,0.1-0.2,0.1-0.3,0c-0.1-0.1-0.2-0.2-0.2-0.3
			C60.7,8.6,60.8,8.6,60.9,8.7"/>
		<path id="XMLID_29_" class="st2" d="M61.6,7.3c0.1,0,0.2,0.1,0.1,0.2c0,0.1-0.1,0.1-0.2,0c-0.1,0-0.2-0.1-0.1-0.2
			C61.4,7.2,61.5,7.2,61.6,7.3"/>
		<path id="XMLID_28_" class="st2" d="M59.9,11.1c0.1,0.1,0.2,0.2,0.2,0.3c0,0.1-0.2,0.1-0.3,0.1c-0.1-0.1-0.2-0.2-0.2-0.3
			C59.6,11.1,59.7,11,59.9,11.1"/>
		<path id="XMLID_27_" class="st2" d="M62.3,7.6c0.1,0,0.2,0.1,0.1,0.2c0,0-0.1,0.1-0.2,0c-0.1,0-0.2-0.1-0.1-0.2
			C62.1,7.6,62.2,7.6,62.3,7.6"/>
		<path id="XMLID_26_" class="st2" d="M63.3,7.1c0.1,0.1,0.2,0.1,0.2,0.2c0,0.1-0.1,0.1-0.2,0c-0.1-0.1-0.2-0.1-0.2-0.2
			C63.1,7.1,63.2,7.1,63.3,7.1"/>
		<path id="XMLID_25_" class="st2" d="M59.5,7.4c0.1,0,0.2,0.2,0.2,0.2c0,0.1-0.2,0.1-0.3,0s-0.2-0.2-0.2-0.2
			C59.2,7.4,59.3,7.4,59.5,7.4"/>
		<path id="XMLID_24_" class="st2" d="M56.5,5.3c0.1,0,0.2,0.1,0.1,0.1c0,0-0.2,0.1-0.3,0c-0.1,0-0.2-0.1-0.1-0.1
			C56.2,5.3,56.4,5.2,56.5,5.3"/>
		<path id="XMLID_23_" class="st2" d="M57.6,8.7c0.2,0,0.2,0.2,0.2,0.3c-0.1,0.1-0.2,0.1-0.4,0.1c-0.2,0-0.2-0.2-0.2-0.3
			C57.3,8.7,57.5,8.7,57.6,8.7"/>
		<path id="XMLID_22_" class="st2" d="M56.1,15.4c0.1,0,0.2,0.2,0.1,0.3s-0.2,0.2-0.3,0.1c-0.1,0-0.2-0.2-0.1-0.3
			C55.8,15.4,56,15.3,56.1,15.4"/>
		<path id="XMLID_21_" class="st2" d="M55.2,15.9c0.1,0,0.1,0.1,0.1,0.2c-0.1,0.1-0.2,0.1-0.3,0.1c-0.1,0-0.2-0.1-0.1-0.2
			C54.9,15.9,55,15.9,55.2,15.9"/>
		<path id="XMLID_20_" class="st2" d="M58.6,14.3c0.1,0.1,0.2,0.2,0.2,0.3s-0.2,0.2-0.4,0.1c-0.1-0.1-0.2-0.2-0.2-0.3
			C58.3,14.3,58.5,14.2,58.6,14.3"/>
		<path id="XMLID_19_" class="st2" d="M57.3,14.8c0.1,0.1,0.2,0.2,0.2,0.3s-0.2,0.2-0.4,0.1c-0.1-0.1-0.2-0.2-0.2-0.3
			C57,14.8,57.1,14.8,57.3,14.8"/>
		<path id="XMLID_18_" class="st2" d="M58.9,8.5c0.1,0,0.2,0.1,0.1,0.2c0,0.1-0.1,0.1-0.2,0c-0.1,0-0.2-0.1-0.1-0.2
			C58.7,8.5,58.8,8.5,58.9,8.5"/>
		<path id="XMLID_17_" class="st2" d="M61.6,5.6c0.1,0,0.1,0.1,0.1,0.1c0,0-0.1,0-0.2,0c-0.1,0-0.1-0.1-0.1-0.1
			C61.5,5.5,61.5,5.5,61.6,5.6"/>
		<path id="XMLID_16_" class="st2" d="M60,13.8c0.1,0,0.2,0.2,0.1,0.3c0,0.1-0.2,0.1-0.3,0.1c-0.1,0-0.2-0.2-0.1-0.3
			C59.7,13.8,59.9,13.8,60,13.8"/>
		<path id="XMLID_15_" class="st2" d="M61.3,13.4c0.1,0,0.2,0.2,0.1,0.3c0,0.1-0.1,0.1-0.3,0.1c-0.1,0-0.2-0.2-0.1-0.3
			C61.1,13.4,61.2,13.4,61.3,13.4"/>
		<path id="XMLID_14_" class="st2" d="M62.5,13.1c0.1,0,0.2,0.2,0.1,0.2c0,0.1-0.1,0.1-0.2,0.1s-0.2-0.2-0.1-0.3
			C62.3,13.1,62.4,13.1,62.5,13.1"/>
		<path id="XMLID_13_" class="st2" d="M56.6,8.4c0.1,0,0.2,0.1,0.1,0.2s-0.1,0.1-0.3,0c-0.1,0-0.2-0.1-0.1-0.2
			C56.4,8.4,56.5,8.4,56.6,8.4"/>
		<path id="XMLID_12_" class="st2" d="M57.3,9.2c0.1,0,0.2,0.1,0.1,0.2c0,0.1-0.2,0.1-0.3,0.1c-0.1,0-0.2-0.1-0.1-0.2
			C57,9.2,57.1,9.2,57.3,9.2"/>
		<path id="XMLID_11_" class="st2" d="M58.3,9.6c0.1,0,0.2,0.1,0.1,0.2c0,0.1-0.2,0.1-0.3,0c-0.1,0-0.2-0.1-0.1-0.2
			C58,9.6,58.1,9.6,58.3,9.6"/>
		<path id="XMLID_10_" class="st2" d="M59.2,10c0.1,0,0.1,0.1,0.1,0.2c0,0.1-0.1,0.1-0.2,0c-0.1,0-0.1-0.1-0.1-0.2
			C59,10,59.1,10,59.2,10"/>
		<path id="XMLID_9_" class="st2" d="M60.2,10.4c0.1,0,0.1,0.1,0.1,0.2c0,0.1-0.1,0.1-0.2,0c-0.1,0-0.1-0.1-0.1-0.2
			C60,10.4,60.1,10.4,60.2,10.4"/>
		<path id="XMLID_8_" class="st2" d="M62.3,5.8c0.1,0,0.1,0.1,0.1,0.1c0,0-0.1,0-0.2,0c-0.1,0-0.1-0.1-0.1-0.1
			C62.1,5.8,62.2,5.8,62.3,5.8"/>
		<path id="XMLID_7_" class="st2" d="M61.8,5.3c0.1,0,0.1,0.1,0.1,0.1c0,0-0.1,0-0.2,0c-0.1,0-0.1-0.1-0.1-0.1
			C61.7,5.2,61.7,5.2,61.8,5.3"/>
		<path id="XMLID_6_" class="st2" d="M61.3,4.8c0.1,0,0.1,0.1,0.1,0.1c0,0-0.1,0-0.1,0c-0.1,0-0.1-0.1-0.1-0.1S61.3,4.8,61.3,4.8"/>
		<path id="XMLID_5_" class="st2" d="M62.8,6.4c0.1,0,0.1,0.1,0.1,0.2c0,0-0.1,0-0.2,0c-0.1,0-0.1-0.1-0.1-0.2
			C62.6,6.4,62.7,6.4,62.8,6.4"/>
		<path id="XMLID_4_" class="st2" d="M56.2,8.9c0.1,0,0.2,0.1,0.1,0.2c0,0.1-0.2,0.1-0.3,0C56,9.1,55.9,9,56,8.9
			C56,8.9,56.1,8.9,56.2,8.9"/>
		<path id="XMLID_3_" class="st2" d="M55.3,8.6c0.1,0,0.1,0.1,0.1,0.1c0,0.1-0.2,0.1-0.3,0.1C55,8.8,55,8.8,55,8.7
			C55.1,8.6,55.2,8.6,55.3,8.6"/>
		<path class="st2" d="M63.4,8.3c0,0.1,0.1,0.3,0.2,0.4c-0.2-0.1-0.4,0-0.4,0.1c0,0.1,0,0.3,0.2,0.4c-0.2,0-0.3,0-0.3,0.1
			c0,0.1,0.1,0.3,0.3,0.4c-0.2-0.1-0.4,0-0.4,0.1c0,0.1,0,0.3,0.2,0.4c-0.2,0-0.3,0-0.3,0.2c0,0.1,0,0.3,0.2,0.4
			c-0.2,0-0.3,0-0.4,0.2c0,0.2,0.1,0.5,0.4,0.6c0.2,0.1,0.4,0.1,0.5,0c0,0.2,0.2,0.4,0.4,0.5c0.2,0.1,0.4,0.1,0.5,0
			c0,0.2,0.2,0.3,0.4,0.4c0.2,0.1,0.3,0.1,0.4,0c0.1,0.2,0.2,0.3,0.4,0.4c0.2,0.1,0.3,0.1,0.4,0c0.1,0.2,0.2,0.3,0.4,0.4
			c0.3,0.1,0.5,0.1,0.5-0.1c0-0.2-0.1-0.3-0.2-0.5c0.2,0,0.3,0,0.3-0.2c0-0.1-0.1-0.3-0.2-0.4c0.1,0,0.2,0,0.3-0.2
			c0-0.2-0.1-0.3-0.3-0.5c0.2,0.1,0.3,0,0.3-0.1c0-0.1-0.1-0.3-0.2-0.4c0.1,0,0.2,0,0.3-0.1c0-0.1-0.1-0.3-0.3-0.4
			c0.2,0.1,0.3,0,0.3-0.1c0-0.1-0.1-0.3-0.3-0.4c-0.2-0.1-0.3-0.1-0.4,0c0-0.1-0.1-0.3-0.3-0.4c-0.2-0.1-0.3-0.1-0.4,0
			c0-0.1-0.2-0.3-0.3-0.4c-0.2-0.1-0.3-0.1-0.4,0c0-0.1-0.1-0.3-0.3-0.3c-0.2-0.1-0.4-0.1-0.4,0l0,0c0-0.1-0.1-0.3-0.3-0.4
			C63.7,8.1,63.5,8.2,63.4,8.3 M66.1,12.1c0.1,0,0.2,0.1,0.2,0.2c0,0.1-0.1,0.1-0.2,0c-0.1,0-0.2-0.1-0.2-0.2
			C65.9,12.1,66,12.1,66.1,12.1 M65.3,11.7c0.1,0,0.1,0.1,0.1,0.2c0,0.1-0.1,0.1-0.2,0c-0.1,0-0.1-0.1-0.1-0.2
			C65.1,11.7,65.2,11.7,65.3,11.7 M64.5,11.3c0.1,0,0.1,0.1,0.1,0.2c0,0.1-0.1,0.1-0.2,0c-0.1,0-0.1-0.1-0.1-0.2
			C64.3,11.3,64.4,11.3,64.5,11.3 M63.8,11.1c0,0.1-0.1,0.1-0.2,0c-0.1,0-0.2-0.1-0.1-0.2c0-0.1,0.1-0.1,0.2,0
			C63.7,11,63.8,11.1,63.8,11.1 M66.2,11.6c0.1,0,0.1,0.1,0.1,0.2c0,0.1-0.1,0.1-0.2,0S66,11.7,66,11.6S66.1,11.5,66.2,11.6
			 M63.8,10.4c0.1,0,0.1,0.1,0.1,0.2c0,0.1-0.1,0.1-0.2,0c-0.1,0-0.1-0.1-0.1-0.2C63.6,10.3,63.7,10.3,63.8,10.4 M66.2,11
			c0.1,0,0.1,0.1,0.1,0.2c0,0.1-0.1,0.1-0.2,0c-0.1,0-0.1-0.1-0.1-0.2C66.1,11,66.1,10.9,66.2,11 M63.9,9.8c0.1,0,0.1,0.1,0.1,0.2
			c0,0.1-0.1,0.1-0.2,0c-0.1,0-0.1-0.1-0.1-0.2C63.7,9.8,63.8,9.8,63.9,9.8 M66.3,10.4c0.1,0,0.1,0.1,0.1,0.2c0,0.1-0.1,0.1-0.2,0
			c-0.1,0-0.1-0.1-0.1-0.2C66.1,10.4,66.2,10.4,66.3,10.4 M64,9.3c0.1,0,0.1,0.1,0.1,0.2c0,0.1-0.1,0.1-0.2,0
			c-0.1,0-0.1-0.1-0.1-0.2C63.9,9.3,63.9,9.2,64,9.3 M66.3,9.9c0.1,0,0.1,0.1,0.1,0.2s-0.1,0.1-0.2,0c-0.1,0-0.1-0.1-0.1-0.2
			S66.2,9.8,66.3,9.9 M65.6,9.5c0.1,0,0.1,0.1,0.1,0.2c0,0.1-0.1,0.1-0.2,0c-0.1,0-0.1-0.1-0.1-0.2C65.5,9.5,65.5,9.5,65.6,9.5
			 M64.9,9.2c0.1,0,0.1,0.1,0.1,0.2c0,0-0.1,0.1-0.2,0c-0.1,0-0.1-0.1-0.1-0.2C64.8,9.1,64.8,9.1,64.9,9.2 M64.2,8.8
			c0.1,0,0.1,0.1,0.1,0.2c0,0.1-0.1,0.1-0.2,0C64,8.9,64,8.8,64,8.8C64,8.7,64.1,8.7,64.2,8.8"/>
	</g>
</g>
</svg>
