<?xml version="1.0" encoding="utf-8"?>
<!-- Generator: Adobe Illustrator 24.1.2, SVG Export Plug-In . SVG Version: 6.00 Build 0)  -->
<svg version="1.1" id="Layer_1" xmlns="http://www.w3.org/2000/svg" xmlns:xlink="http://www.w3.org/1999/xlink" x="0px" y="0px"
	 viewBox="0 0 75 28" style="enable-background:new 0 0 75 28;" xml:space="preserve">
<style type="text/css">
	.st0{fill:#1594CB;}
	.st1{fill:#B2CBD9;}
	.st2{fill:#B2CBD6;}
</style>
<g>
	<path class="st0" d="M41.2,13.4V5.8c0,0,0.6-7.5,7.2-5.5C48.4,0.3,42.9,4.7,41.2,13.4z"/>
	<path class="st1" d="M48.7,0.5c0,0,2,0.8,3.8,2.3S58,6.1,59.2,9c1.2,2.9,0.7,6.4-3.1,9c0,0-0.3-0.1-1.9-2.2
		C52.7,13.8,49.1,8.9,48.7,0.5z"/>
	<path class="st2" d="M55.7,18.2c0,0-8.4,6-12.9,0.1C42.8,18.3,48.5,15.8,55.7,18.2z"/>
	<g>
		<path class="st0" d="M12.9,16.2c0.3,0.2,0.7,0.3,1.2,0.3c0.6,0,0.9-0.2,0.9-0.6c0-0.3-0.2-0.5-0.9-0.7c-0.8-0.2-1.3-0.6-1.3-1.3
			c0-0.7,0.7-1.3,1.7-1.3c0.6,0,0.9,0.1,1.2,0.2l-0.2,0.7c-0.2-0.1-0.5-0.2-1-0.2c-0.6,0-0.8,0.3-0.8,0.5c0,0.3,0.3,0.5,0.9,0.7
			c0.9,0.3,1.3,0.7,1.3,1.3c0,0.7-0.5,1.4-1.8,1.4c-0.5,0-1.1-0.1-1.3-0.3L12.9,16.2z"/>
		<path class="st0" d="M20.8,15.3c0-0.6-0.1-1.3-0.1-2h0c-0.2,0.6-0.4,1.2-0.6,1.8l-0.7,2h-0.7l-0.6-2c-0.2-0.6-0.4-1.2-0.5-1.8h0
			c0,0.6,0,1.4-0.1,2l-0.1,1.8h-0.8l0.3-4.5H18l0.6,1.8c0.2,0.5,0.3,1.1,0.4,1.6h0c0.1-0.5,0.3-1.1,0.5-1.6l0.7-1.8h1.2l0.3,4.5
			h-0.9L20.8,15.3z"/>
		<path class="st0" d="M25.4,15.2h-1.9v1.3h2.1v0.7h-3v-4.5h2.9v0.7h-2v1.1h1.9V15.2z"/>
		<path class="st0" d="M26.3,12.8c0.4-0.1,0.9-0.1,1.5-0.1c0.9,0,1.6,0.2,2,0.6c0.5,0.4,0.7,0.9,0.7,1.6c0,0.8-0.3,1.3-0.7,1.7
			c-0.5,0.4-1.3,0.7-2.3,0.7c-0.6,0-0.9,0-1.3-0.1V12.8z M27.2,16.5c0.1,0,0.3,0,0.6,0c1.3,0,1.9-0.6,1.9-1.7c0-1-0.7-1.5-1.8-1.5
			c-0.3,0-0.5,0-0.7,0.1L27.2,16.5L27.2,16.5z"/>
		<path class="st0" d="M34.1,15.2h-1.9v1.3h2.1v0.7h-3v-4.5h2.9v0.7h-2v1.1h1.9V15.2L34.1,15.2z"/>
		<path class="st0" d="M38.7,17c-0.2,0.1-0.7,0.2-1.3,0.2c-1.6,0-2.5-0.9-2.5-2.3c0-1.4,1.1-2.4,2.6-2.4c0.6,0,1.1,0.1,1.2,0.2
			l-0.2,0.7c-0.2-0.1-0.6-0.2-1-0.2c-1.1,0-1.8,0.6-1.8,1.6c0,0.9,0.6,1.6,1.7,1.6c0.4,0,0.8-0.1,1-0.2L38.7,17z"/>
	</g>
	<g>
		<path class="st0" d="M12.8,27.1c0.1,0.1,0.3,0.1,0.5,0.1c0.2,0,0.3-0.1,0.3-0.2c0-0.1-0.1-0.2-0.3-0.3c-0.3-0.1-0.5-0.2-0.5-0.5
			c0-0.3,0.3-0.5,0.6-0.5c0.2,0,0.4,0,0.5,0.1l-0.1,0.3c-0.1,0-0.2-0.1-0.4-0.1c-0.2,0-0.3,0.1-0.3,0.2c0,0.1,0.1,0.2,0.4,0.3
			c0.3,0.1,0.5,0.3,0.5,0.5c0,0.3-0.2,0.5-0.7,0.5c-0.2,0-0.4-0.1-0.5-0.1L12.8,27.1z"/>
		<path class="st0" d="M14.2,26.6c0-0.1,0-0.3,0-0.4h0.3l0,0.2h0c0.1-0.1,0.2-0.2,0.4-0.2c0.2,0,0.3,0.1,0.4,0.2h0
			c0-0.1,0.1-0.1,0.2-0.2c0.1-0.1,0.2-0.1,0.3-0.1c0.2,0,0.5,0.1,0.5,0.6v0.7h-0.3v-0.7c0-0.2-0.1-0.3-0.2-0.3
			c-0.1,0-0.2,0.1-0.2,0.2c0,0,0,0.1,0,0.1v0.7h-0.3v-0.7c0-0.2-0.1-0.3-0.2-0.3c-0.1,0-0.2,0.1-0.3,0.2c0,0,0,0.1,0,0.1v0.7h-0.3
			L14.2,26.6L14.2,26.6z"/>
		<path class="st0" d="M17.3,27.5l0-0.1h0c-0.1,0.1-0.2,0.2-0.4,0.2c-0.3,0-0.4-0.2-0.4-0.4c0-0.3,0.3-0.5,0.8-0.5v0
			c0-0.1,0-0.2-0.3-0.2c-0.1,0-0.3,0-0.4,0.1l-0.1-0.2c0.1-0.1,0.3-0.1,0.5-0.1c0.4,0,0.6,0.3,0.6,0.5v0.4c0,0.1,0,0.2,0,0.3
			L17.3,27.5L17.3,27.5z M17.3,26.9c-0.3,0-0.5,0-0.5,0.2c0,0.1,0.1,0.2,0.2,0.2c0.1,0,0.2-0.1,0.3-0.2c0,0,0,0,0-0.1L17.3,26.9
			L17.3,26.9z"/>
		<path class="st0" d="M18,25.7h0.3v1.8H18V25.7z"/>
		<path class="st0" d="M18.7,25.7H19v1.8h-0.3V25.7z"/>
		<path class="st0" d="M21,27.5c0,0-0.1-0.1-0.2-0.2c-0.1,0.1-0.3,0.2-0.5,0.2c-0.3,0-0.5-0.2-0.5-0.5c0-0.2,0.1-0.4,0.3-0.5v0
			c-0.1-0.1-0.1-0.2-0.1-0.4c0-0.2,0.2-0.4,0.4-0.4c0.2,0,0.4,0.1,0.4,0.4c0,0.2-0.1,0.3-0.4,0.5v0c0.1,0.2,0.3,0.4,0.4,0.5
			c0.1-0.1,0.1-0.3,0.2-0.5h0.2c0,0.3-0.1,0.5-0.2,0.6c0.1,0.1,0.2,0.2,0.3,0.3H21z M20.8,27.2c-0.1-0.1-0.3-0.3-0.5-0.5
			C20.2,26.7,20,26.8,20,27c0,0.2,0.1,0.3,0.4,0.3C20.5,27.4,20.7,27.3,20.8,27.2z M20.2,26.2c0,0.1,0.1,0.2,0.1,0.3
			c0.2-0.1,0.3-0.2,0.3-0.3c0-0.1-0.1-0.2-0.2-0.2C20.3,25.9,20.2,26,20.2,26.2z"/>
		<path class="st0" d="M23.5,26.7c0-0.2,0-0.5,0-0.7h0c-0.1,0.2-0.1,0.4-0.2,0.7l-0.3,0.8h-0.2l-0.3-0.8c-0.1-0.2-0.2-0.5-0.2-0.7h0
			c0,0.2,0,0.5,0,0.8l0,0.7H22l0.1-1.7h0.3l0.3,0.8c0.1,0.2,0.1,0.4,0.2,0.6h0c0-0.2,0.1-0.4,0.2-0.6l0.3-0.8h0.3l0.1,1.7h-0.2
			L23.5,26.7z"/>
		<path class="st0" d="M24.2,26.9c0,0.3,0.2,0.4,0.4,0.4c0.2,0,0.3,0,0.3-0.1l0,0.2c-0.1,0-0.2,0.1-0.4,0.1c-0.4,0-0.6-0.3-0.6-0.6
			s0.2-0.7,0.6-0.7c0.4,0,0.5,0.4,0.5,0.6c0,0,0,0.1,0,0.1L24.2,26.9L24.2,26.9z M24.9,26.8c0-0.1-0.1-0.4-0.3-0.4
			c-0.2,0-0.3,0.2-0.3,0.4H24.9z"/>
		<path class="st0" d="M26.4,25.7v1.5c0,0.1,0,0.2,0,0.3h-0.2l0-0.2h0c-0.1,0.1-0.2,0.2-0.4,0.2c-0.3,0-0.5-0.3-0.5-0.6
			c0-0.4,0.3-0.7,0.6-0.7c0.2,0,0.3,0.1,0.4,0.2h0v-0.7L26.4,25.7L26.4,25.7z M26.2,26.8C26.2,26.7,26.2,26.7,26.2,26.8
			c0-0.2-0.2-0.4-0.3-0.4c-0.2,0-0.4,0.2-0.4,0.5c0,0.3,0.1,0.5,0.4,0.5c0.2,0,0.3-0.1,0.3-0.3c0,0,0-0.1,0-0.1V26.8z"/>
		<path class="st0" d="M27.1,25.9c0,0.1-0.1,0.1-0.1,0.1c-0.1,0-0.1-0.1-0.1-0.1c0-0.1,0.1-0.1,0.1-0.1C27,25.8,27.1,25.8,27.1,25.9
			z M26.8,27.5v-1.2H27v1.2H26.8z"/>
		<path class="st0" d="M28.4,27.2c0,0.1,0,0.2,0,0.3h-0.2l0-0.2h0c-0.1,0.1-0.2,0.2-0.4,0.2c-0.2,0-0.4-0.1-0.4-0.5v-0.7h0.2V27
			c0,0.2,0.1,0.4,0.3,0.4c0.2,0,0.3-0.1,0.3-0.2c0,0,0-0.1,0-0.1v-0.8h0.2L28.4,27.2L28.4,27.2z"/>
		<path class="st0" d="M28.8,26.6c0-0.1,0-0.2,0-0.3H29l0,0.2h0c0.1-0.1,0.2-0.2,0.4-0.2c0.2,0,0.3,0.1,0.4,0.2h0
			c0-0.1,0.1-0.1,0.1-0.2c0.1-0.1,0.2-0.1,0.3-0.1c0.2,0,0.4,0.1,0.4,0.5v0.7h-0.2v-0.7c0-0.2-0.1-0.4-0.3-0.4
			c-0.1,0-0.2,0.1-0.3,0.2c0,0,0,0.1,0,0.1v0.8h-0.2v-0.8c0-0.2-0.1-0.3-0.3-0.3c-0.1,0-0.2,0.1-0.3,0.2c0,0,0,0.1,0,0.1v0.7h-0.2
			L28.8,26.6L28.8,26.6z"/>
		<path class="st0" d="M32.4,26.7h-0.7v0.6h0.7v0.2h-1v-1.7h0.9V26h-0.7v0.5h0.7V26.7z"/>
		<path class="st0" d="M32.7,26.6c0-0.1,0-0.2,0-0.3h0.2l0,0.2h0c0.1-0.1,0.2-0.2,0.4-0.2c0.2,0,0.4,0.1,0.4,0.5v0.7h-0.2v-0.7
			c0-0.2-0.1-0.4-0.3-0.4c-0.1,0-0.3,0.1-0.3,0.2c0,0,0,0.1,0,0.1v0.7h-0.2V26.6L32.7,26.6z"/>
		<path class="st0" d="M34.4,25.9v0.4h0.3v0.2h-0.3v0.7c0,0.2,0,0.2,0.2,0.2c0.1,0,0.1,0,0.1,0l0,0.2c0,0-0.1,0-0.2,0
			c-0.1,0-0.2,0-0.2-0.1c-0.1-0.1-0.1-0.2-0.1-0.3v-0.7H34v-0.2h0.2V26L34.4,25.9z"/>
		<path class="st0" d="M35,26.6c0-0.1,0-0.3,0-0.4h0.2l0,0.2h0c0.1-0.2,0.2-0.3,0.3-0.3c0,0,0,0,0.1,0v0.2c0,0,0,0-0.1,0
			c-0.2,0-0.3,0.1-0.3,0.3c0,0,0,0.1,0,0.1v0.7H35V26.6z"/>
		<path class="st0" d="M35.9,26.9c0,0.3,0.2,0.4,0.4,0.4c0.2,0,0.3,0,0.3-0.1l0,0.2c-0.1,0-0.2,0.1-0.4,0.1c-0.4,0-0.6-0.3-0.6-0.6
			s0.2-0.7,0.6-0.7c0.4,0,0.5,0.4,0.5,0.6c0,0,0,0.1,0,0.1L35.9,26.9L35.9,26.9z M36.6,26.8c0-0.1-0.1-0.4-0.3-0.4
			c-0.2,0-0.3,0.2-0.3,0.4H36.6z"/>
		<path class="st0" d="M37.1,26.7c0-0.2,0-0.3,0-0.4h0.2l0,0.2h0c0.1-0.2,0.2-0.2,0.4-0.2c0.3,0,0.5,0.3,0.5,0.6
			c0,0.4-0.3,0.7-0.6,0.7c-0.2,0-0.3-0.1-0.4-0.2h0V28h-0.2L37.1,26.7L37.1,26.7z M37.3,27C37.3,27,37.3,27.1,37.3,27
			c0.1,0.2,0.2,0.4,0.4,0.4c0.2,0,0.4-0.2,0.4-0.5c0-0.2-0.1-0.5-0.4-0.5c-0.2,0-0.3,0.1-0.3,0.3c0,0,0,0.1,0,0.1L37.3,27L37.3,27z"
			/>
		<path class="st0" d="M38.5,26.6c0-0.1,0-0.3,0-0.4h0.2l0,0.2h0c0.1-0.2,0.2-0.3,0.3-0.3c0,0,0,0,0.1,0v0.2c0,0,0,0-0.1,0
			c-0.2,0-0.3,0.1-0.3,0.3c0,0,0,0.1,0,0.1v0.7h-0.2V26.6z"/>
		<path class="st0" d="M39.6,25.9c0,0.1-0.1,0.1-0.1,0.1c-0.1,0-0.1-0.1-0.1-0.1c0-0.1,0.1-0.1,0.1-0.1S39.6,25.8,39.6,25.9z
			 M39.4,27.5v-1.2h0.2v1.2H39.4z"/>
		<path class="st0" d="M39.9,27.3c0.1,0,0.2,0.1,0.3,0.1c0.2,0,0.2-0.1,0.2-0.2c0-0.1-0.1-0.2-0.2-0.2c-0.2-0.1-0.3-0.2-0.3-0.4
			c0-0.2,0.2-0.4,0.4-0.4c0.1,0,0.2,0,0.3,0.1l-0.1,0.2c0,0-0.1-0.1-0.3-0.1c-0.1,0-0.2,0.1-0.2,0.2c0,0.1,0.1,0.1,0.2,0.2
			c0.2,0.1,0.3,0.2,0.3,0.4c0,0.2-0.2,0.4-0.5,0.4c-0.1,0-0.3,0-0.3-0.1L39.9,27.3z"/>
		<path class="st0" d="M41.1,26.9c0,0.3,0.2,0.4,0.4,0.4c0.2,0,0.3,0,0.3-0.1l0,0.2c-0.1,0-0.2,0.1-0.4,0.1c-0.4,0-0.6-0.3-0.6-0.6
			s0.2-0.7,0.6-0.7c0.4,0,0.5,0.4,0.5,0.6c0,0,0,0.1,0,0.1L41.1,26.9L41.1,26.9z M41.8,26.8c0-0.1-0.1-0.4-0.3-0.4
			c-0.2,0-0.3,0.2-0.3,0.4H41.8z"/>
		<path class="st0" d="M42.2,27.3c0.1,0,0.2,0.1,0.3,0.1c0.2,0,0.2-0.1,0.2-0.2c0-0.1-0.1-0.2-0.2-0.2c-0.2-0.1-0.3-0.2-0.3-0.4
			c0-0.2,0.2-0.4,0.4-0.4c0.1,0,0.2,0,0.3,0.1l-0.1,0.2c0,0-0.1-0.1-0.3-0.1c-0.1,0-0.2,0.1-0.2,0.2c0,0.1,0.1,0.1,0.2,0.2
			c0.2,0.1,0.3,0.2,0.3,0.4c0,0.2-0.2,0.4-0.5,0.4c-0.1,0-0.3,0-0.3-0.1L42.2,27.3z"/>
		<path class="st0" d="M43.8,25.8c0.1,0,0.3,0,0.5,0c0.3,0,0.5,0.1,0.7,0.2c0.2,0.1,0.2,0.3,0.2,0.6s-0.1,0.5-0.2,0.7
			c-0.2,0.2-0.4,0.2-0.8,0.2c-0.2,0-0.3,0-0.4,0L43.8,25.8L43.8,25.8z M44,27.3c0.1,0,0.1,0,0.2,0c0.5,0,0.7-0.3,0.7-0.7
			c0-0.4-0.2-0.7-0.7-0.7c-0.1,0-0.2,0-0.3,0V27.3z"/>
		<path class="st0" d="M45.6,26.9c0,0.3,0.2,0.4,0.4,0.4c0.2,0,0.3,0,0.3-0.1l0,0.2c-0.1,0-0.2,0.1-0.4,0.1c-0.4,0-0.6-0.3-0.6-0.6
			s0.2-0.7,0.6-0.7c0.4,0,0.5,0.4,0.5,0.6c0,0,0,0.1,0,0.1L45.6,26.9L45.6,26.9z M46.3,26.8c0-0.1-0.1-0.4-0.3-0.4
			c-0.2,0-0.3,0.2-0.3,0.4H46.3z"/>
		<path class="st0" d="M46.9,26.3l0.2,0.7c0,0.1,0.1,0.2,0.1,0.3h0c0-0.1,0.1-0.2,0.1-0.3l0.2-0.7h0.2l-0.5,1.2h-0.2l-0.5-1.2H46.9z
			"/>
		<path class="st0" d="M48.1,26.9c0,0.3,0.2,0.4,0.4,0.4c0.2,0,0.3,0,0.3-0.1l0,0.2c-0.1,0-0.2,0.1-0.4,0.1c-0.4,0-0.6-0.3-0.6-0.6
			s0.2-0.7,0.6-0.7c0.4,0,0.5,0.4,0.5,0.6c0,0,0,0.1,0,0.1L48.1,26.9L48.1,26.9z M48.8,26.8c0-0.1-0.1-0.4-0.3-0.4
			c-0.2,0-0.3,0.2-0.3,0.4H48.8z"/>
		<path class="st0" d="M49.3,25.7h0.2v1.8h-0.2V25.7z"/>
		<path class="st0" d="M51,26.9c0,0.5-0.3,0.7-0.6,0.7c-0.3,0-0.6-0.2-0.6-0.6c0-0.4,0.3-0.7,0.6-0.7C50.7,26.2,51,26.5,51,26.9z
			 M50,26.9c0,0.3,0.2,0.5,0.4,0.5c0.2,0,0.4-0.2,0.4-0.5c0-0.2-0.1-0.5-0.4-0.5C50.1,26.4,50,26.6,50,26.9z"/>
		<path class="st0" d="M51.3,26.7c0-0.2,0-0.3,0-0.4h0.2l0,0.2h0c0.1-0.2,0.2-0.2,0.4-0.2c0.3,0,0.5,0.3,0.5,0.6
			c0,0.4-0.3,0.7-0.6,0.7c-0.2,0-0.3-0.1-0.4-0.2h0V28h-0.2V26.7z M51.5,27C51.5,27,51.5,27.1,51.5,27c0.1,0.2,0.2,0.4,0.4,0.4
			c0.2,0,0.4-0.2,0.4-0.5c0-0.2-0.1-0.5-0.4-0.5c-0.2,0-0.3,0.1-0.3,0.3c0,0,0,0.1,0,0.1L51.5,27L51.5,27z"/>
		<path class="st0" d="M52.7,26.6c0-0.1,0-0.2,0-0.3h0.2l0,0.2h0c0.1-0.1,0.2-0.2,0.4-0.2c0.2,0,0.3,0.1,0.4,0.2h0
			c0-0.1,0.1-0.1,0.1-0.2c0.1-0.1,0.2-0.1,0.3-0.1c0.2,0,0.4,0.1,0.4,0.5v0.7h-0.2v-0.7c0-0.2-0.1-0.4-0.3-0.4
			c-0.1,0-0.2,0.1-0.3,0.2c0,0,0,0.1,0,0.1v0.8h-0.2v-0.8c0-0.2-0.1-0.3-0.3-0.3c-0.1,0-0.2,0.1-0.3,0.2c0,0,0,0.1,0,0.1v0.7h-0.2
			L52.7,26.6L52.7,26.6z"/>
		<path class="st0" d="M55,26.9c0,0.3,0.2,0.4,0.4,0.4c0.2,0,0.3,0,0.3-0.1l0,0.2c-0.1,0-0.2,0.1-0.4,0.1c-0.4,0-0.6-0.3-0.6-0.6
			s0.2-0.7,0.6-0.7c0.4,0,0.5,0.4,0.5,0.6c0,0,0,0.1,0,0.1L55,26.9L55,26.9z M55.6,26.8c0-0.1-0.1-0.4-0.3-0.4
			c-0.2,0-0.3,0.2-0.3,0.4H55.6z"/>
		<path class="st0" d="M56.1,26.6c0-0.1,0-0.2,0-0.3h0.2l0,0.2h0c0.1-0.1,0.2-0.2,0.4-0.2c0.2,0,0.4,0.1,0.4,0.5v0.7H57v-0.7
			c0-0.2-0.1-0.4-0.3-0.4c-0.1,0-0.3,0.1-0.3,0.2c0,0,0,0.1,0,0.1v0.7h-0.2L56.1,26.6L56.1,26.6z"/>
		<path class="st0" d="M57.8,25.9v0.4h0.3v0.2h-0.3v0.7c0,0.2,0,0.2,0.2,0.2c0.1,0,0.1,0,0.1,0l0,0.2c0,0-0.1,0-0.2,0
			c-0.1,0-0.2,0-0.2-0.1c-0.1-0.1-0.1-0.2-0.1-0.3v-0.7h-0.2v-0.2h0.2V26L57.8,25.9z"/>
		<path class="st0" d="M60.1,27.4c-0.1,0-0.2,0.1-0.5,0.1c-0.5,0-0.9-0.3-0.9-0.9c0-0.5,0.4-0.9,0.9-0.9c0.2,0,0.4,0,0.4,0.1
			L60.1,26c-0.1,0-0.2-0.1-0.3-0.1c-0.4,0-0.7,0.3-0.7,0.7c0,0.4,0.2,0.7,0.7,0.7c0.1,0,0.3,0,0.4-0.1L60.1,27.4z"/>
		<path class="st0" d="M60.5,26.9c0,0.3,0.2,0.4,0.4,0.4c0.2,0,0.3,0,0.3-0.1l0,0.2c-0.1,0-0.2,0.1-0.4,0.1c-0.4,0-0.6-0.3-0.6-0.6
			s0.2-0.7,0.6-0.7c0.4,0,0.5,0.4,0.5,0.6c0,0,0,0.1,0,0.1L60.5,26.9L60.5,26.9z M61.1,26.8c0-0.1-0.1-0.4-0.3-0.4
			c-0.2,0-0.3,0.2-0.3,0.4H61.1z"/>
		<path class="st0" d="M61.6,26.6c0-0.1,0-0.2,0-0.3h0.2l0,0.2h0c0.1-0.1,0.2-0.2,0.4-0.2c0.2,0,0.4,0.1,0.4,0.5v0.7h-0.2v-0.7
			c0-0.2-0.1-0.4-0.3-0.4c-0.1,0-0.3,0.1-0.3,0.2c0,0,0,0.1,0,0.1v0.7h-0.2L61.6,26.6L61.6,26.6z"/>
		<path class="st0" d="M63.3,25.9v0.4h0.3v0.2h-0.3v0.7c0,0.2,0,0.2,0.2,0.2c0.1,0,0.1,0,0.1,0l0,0.2c0,0-0.1,0-0.2,0
			c-0.1,0-0.2,0-0.2-0.1c-0.1-0.1-0.1-0.2-0.1-0.3v-0.7h-0.2v-0.2h0.2V26L63.3,25.9z"/>
		<path class="st0" d="M64,26.9c0,0.3,0.2,0.4,0.4,0.4c0.2,0,0.3,0,0.3-0.1l0,0.2c-0.1,0-0.2,0.1-0.4,0.1c-0.4,0-0.6-0.3-0.6-0.6
			s0.2-0.7,0.6-0.7c0.4,0,0.5,0.4,0.5,0.6c0,0,0,0.1,0,0.1L64,26.9L64,26.9z M64.7,26.8c0-0.1-0.1-0.4-0.3-0.4
			c-0.2,0-0.3,0.2-0.3,0.4H64.7z"/>
		<path class="st0" d="M65.2,26.6c0-0.1,0-0.3,0-0.4h0.2l0,0.2h0c0.1-0.2,0.2-0.3,0.3-0.3c0,0,0,0,0.1,0v0.2c0,0,0,0-0.1,0
			c-0.2,0-0.3,0.1-0.3,0.3c0,0,0,0.1,0,0.1v0.7h-0.2L65.2,26.6L65.2,26.6z"/>
	</g>
	<g>
		<path class="st0" d="M13.9,23.7c-0.1,0-0.1,0-0.2,0c-0.4,0-0.6-0.2-0.6-0.7c0-0.5,0.3-0.7,0.6-0.7c0.2,0,0.3,0,0.5,0.1v1.2h0.4
			l0,0.3h-0.7V23.7z M13.3,22.1v-0.4h0.3v0.4H13.3z M13.9,22.8c-0.1,0-0.1,0-0.1,0h-0.1c-0.2,0-0.3,0.1-0.3,0.4
			c0,0.3,0.1,0.3,0.3,0.3c0.1,0,0.1,0,0.2,0C13.9,23.4,13.9,22.8,13.9,22.8z M13.7,22.1v-0.4H14v0.4H13.7z"/>
		<path class="st0" d="M14.5,24l0-0.3h0.4v-1.8l0.3,0v1.2c0.4-0.6,0.8-0.7,1-0.7c0.4,0,0.7,0.3,0.7,0.8c0,0.2,0,0.4-0.1,0.5h0.3
			l0,0.3L14.5,24L14.5,24z M16.2,23.7c0.3,0,0.4-0.2,0.4-0.5c0-0.3-0.1-0.5-0.4-0.5c-0.2,0-0.8,0.3-1,1H16.2z"/>
		<path class="st0" d="M17.2,23.7h0.4c0.2,0,0.3-0.1,0.3-0.4v-0.6l0.3,0v0.7c0,0.1,0,0.2,0,0.3c0.1,0,0.3,0,0.4,0
			c0.2,0,0.3-0.1,0.3-0.4v-0.7l0.3,0v0.8c0,0.1,0,0.2,0,0.3c0.1,0.1,0.2,0.1,0.4,0.1c0.2,0,0.3-0.1,0.3-0.4v-0.8l0.3,0v0.9
			c0,0.4-0.2,0.7-0.6,0.7c-0.2,0-0.4,0-0.5-0.1c-0.1,0.1-0.2,0.1-0.4,0.1c-0.2,0-0.4,0-0.6-0.1C17.8,24,17.7,24,17.5,24h-0.3
			L17.2,23.7z"/>
		<path class="st0" d="M20.5,24.3c0,0,0.2,0,0.2,0c0.3,0,0.4-0.1,0.5-0.4H21c-0.3,0-0.6-0.2-0.6-0.7c0-0.5,0.3-0.7,0.6-0.7
			c0.2,0,0.3,0,0.5,0.1v1h0.2l0,0.3h-0.2c0,0.5-0.3,0.7-0.8,0.7h-0.1L20.5,24.3z M20.7,23.3c0,0.3,0.1,0.4,0.3,0.4h0.2V23
			c-0.1,0-0.1,0-0.2,0C20.9,22.9,20.7,23,20.7,23.3z"/>
		<path class="st0" d="M21.7,22.1v-0.4H22v0.4H21.7z M22.7,24c-0.2,0-0.4,0-0.5-0.1c-0.1,0.1-0.3,0.1-0.5,0.1l0-0.3
			c0.3,0,0.4-0.1,0.4-0.4v-0.8l0.3,0v0.9c0,0.1,0,0.2,0,0.3c0.1,0.1,0.2,0.1,0.4,0.1h0.1l0,0.3L22.7,24L22.7,24z M22.1,22.1v-0.4
			h0.3v0.4H22.1z"/>
		<path class="st0" d="M24.8,24c-0.1,0-0.3,0-0.4-0.1c-0.1,0.2-0.3,0.3-0.6,0.3c-0.2,0-0.4-0.1-0.5-0.2c0,0-0.1-0.1-0.1-0.1
			C23.1,24,23,24,22.8,24l0-0.3c0.2,0,0.4-0.1,0.4-0.3c0-0.4,0.3-0.6,0.7-0.6c0.5,0,0.7,0.3,0.7,0.7v0.1c0.1,0.1,0.2,0.1,0.3,0.1h0
			c0.3,0,0.4-0.1,0.4-0.4v-1.5l0.3,0v1.6C25.5,23.8,25.3,24,24.8,24L24.8,24z M24.2,23.5c0-0.3-0.1-0.4-0.3-0.4
			c-0.2,0-0.3,0.1-0.3,0.3c0,0,0,0,0,0.1c0,0,0,0,0,0.1c0,0.3,0.1,0.4,0.3,0.4h0C24.1,23.9,24.2,23.8,24.2,23.5z"/>
		<path class="st0" d="M25.9,24v-2.2l0.3,0V24H25.9z"/>
		<path class="st0" d="M26.7,24.3c0,0,0.2,0,0.2,0c0.3,0,0.4-0.1,0.5-0.4c-0.1,0-0.1,0-0.2,0c-0.4,0-0.6-0.2-0.6-0.7
			c0-0.5,0.3-0.7,0.6-0.7c0.2,0,0.3,0,0.5,0.1v1.2c0,0.5-0.2,0.8-0.8,0.8h-0.1L26.7,24.3z M27.5,23c-0.1,0-0.1,0-0.2,0
			c-0.2,0-0.3,0.1-0.3,0.4c0,0.3,0.1,0.4,0.3,0.4c0.1,0,0.1,0,0.2,0L27.5,23L27.5,23z"/>
		<path class="st0" d="M30.1,23.2c0,0.6-0.3,0.8-0.7,0.8c-0.5,0-0.7-0.3-0.7-0.8s0.3-0.8,0.7-0.8C29.9,22.4,30.1,22.6,30.1,23.2z
			 M29.8,23.2c0-0.4-0.1-0.5-0.4-0.5c-0.3,0-0.4,0.1-0.4,0.5s0.1,0.5,0.4,0.5C29.7,23.7,29.8,23.6,29.8,23.2z M29,22.1v-0.4h0.3v0.4
			H29z M29.5,22.1v-0.4h0.3v0.4H29.5z"/>
		<path class="st0" d="M32.7,24c-0.2,0-0.4,0-0.5-0.1c-0.1,0.1-0.3,0.1-0.5,0.1h-0.1c-0.1,0-0.3,0-0.4-0.1c0,0.5-0.3,0.7-0.8,0.7
			h-0.1l-0.1-0.3c0,0,0.2,0,0.2,0c0.3,0,0.5-0.2,0.5-0.5v-1l0.3,0v0.8c0.1,0.1,0.3,0.1,0.4,0.1h0.1c0.3,0,0.3-0.1,0.3-0.4v-0.8
			l0.3,0v0.9c0,0.1,0,0.2,0,0.3c0.1,0.1,0.2,0.1,0.4,0.1h0.1L32.7,24L32.7,24L32.7,24z M31.7,24.7v-0.4h0.3v0.4L31.7,24.7L31.7,24.7
			z M32.1,24.7v-0.4h0.3v0.4L32.1,24.7L32.1,24.7z"/>
		<path class="st0" d="M32.8,23.7h0.7c-0.2-0.3-0.3-0.6-0.5-0.9c0.2-0.2,0.5-0.3,0.8-0.3c0.3,0,0.6,0.1,0.7,0.4L34,23.7h0.6l0,0.3
			h-1.9L32.8,23.7z M33.7,23.6l0.4-0.8c-0.1-0.1-0.2-0.1-0.4-0.1c-0.1,0-0.3,0-0.4,0.1L33.7,23.6z M33.6,22.1v-0.4h0.3v0.4H33.6z"/>
		<path class="st0" d="M34.6,23.7H35c0.2,0,0.3-0.1,0.3-0.4v-0.6l0.3,0v0.6c0.4-0.7,0.9-0.8,1.1-0.8c0.4,0,0.7,0.3,0.7,0.8
			c0,0.2,0,0.4-0.1,0.5h0.4l0,0.3H36c-0.2,0-0.3,0-0.5-0.1c0,0,0,0,0,0c0,0-0.1,0-0.1,0h0c0,0,0,0,0,0C35.3,24,35.1,24,35,24h-0.3
			L34.6,23.7z M36.7,23.7c0.3,0,0.4-0.2,0.4-0.5c0-0.3-0.1-0.5-0.4-0.5c-0.2,0-0.7,0.3-1,1c0.1,0,0.2,0,0.3,0L36.7,23.7L36.7,23.7z"
			/>
		<path class="st0" d="M37.7,23.7c0.3,0,0.4-0.1,0.4-0.4v-1.5l0.3,0v1.6c0,0.4-0.2,0.7-0.7,0.7L37.7,23.7z"/>
		<path class="st0" d="M38.8,24v-2.2l0.3,0V24H38.8z"/>
		<path class="st0" d="M41,24c-0.5,0-0.8-0.3-0.8-0.8v-0.6l0.3-0.3v0.9c0,0.3,0.1,0.5,0.5,0.5h0.6c0.2,0,0.3-0.1,0.3-0.4v-0.8l0.3,0
			v0.9c0,0.4-0.2,0.7-0.6,0.7H41z M40.9,21.8v-0.4h0.3v0.4H40.9z M41.3,21.8v-0.4h0.3v0.4H41.3z"/>
		<path class="st0" d="M43.3,21.3c0,0.1-0.1,0.2-0.3,0.2c-0.2,0-0.2-0.1-0.4-0.1c-0.1,0-0.1,0-0.1,0.1l-0.2-0.1
			c0-0.1,0.1-0.2,0.3-0.2c0.2,0,0.2,0.1,0.4,0.1c0.1,0,0.1,0,0.1-0.1L43.3,21.3z M43.1,24c-0.2,0-0.4-0.1-0.4-0.5v-1.7l0.3,0v1.8
			c0,0.2,0.1,0.2,0.1,0.2h0.4l0,0.3L43.1,24L43.1,24z"/>
		<path class="st0" d="M43.4,23.7h0.4c0.2,0,0.3-0.1,0.3-0.4v-0.6l0.3,0v0.7c0,0.1,0,0.2,0,0.3c0.1,0,0.3,0,0.4,0
			c0.2,0,0.3-0.1,0.3-0.4v-0.7l0.3,0v0.8c0,0.1,0,0.2,0,0.3c0.1,0.1,0.2,0.1,0.4,0.1c0.2,0,0.3-0.1,0.3-0.4v-0.8l0.3,0v0.9
			c0,0.1,0,0.2,0,0.3c0.1,0.1,0.2,0.1,0.4,0.1h0.1l0,0.3h-0.1c-0.2,0-0.4,0-0.5-0.1C46,23.9,45.9,24,45.7,24c-0.2,0-0.4,0-0.5-0.1
			c-0.1,0.1-0.2,0.1-0.4,0.1c-0.2,0-0.4,0-0.6-0.1C44.1,24,43.9,24,43.8,24h-0.3L43.4,23.7z M44.8,22.1v-0.4h0.3v0.4H44.8z
			 M45.1,21.5v-0.3h0.3v0.3H45.1z M45.3,22.1v-0.4h0.3v0.4H45.3z"/>
		<path class="st0" d="M47.7,24c-0.2,0-0.4,0-0.5-0.1c-0.1,0.1-0.3,0.1-0.5,0.1l0-0.3c0.3,0,0.4-0.1,0.4-0.4v-0.8l0.3,0v0.9
			c0,0.1,0,0.2,0,0.3c0.1,0.1,0.2,0.1,0.4,0.1h0.1l0,0.3L47.7,24L47.7,24z M47.1,22.1v-0.4h0.3v0.4H47.1z"/>
		<path class="st0" d="M49.8,24c-0.1,0-0.3,0-0.4-0.1c-0.1,0.2-0.3,0.3-0.6,0.3c-0.2,0-0.4-0.1-0.5-0.2c0,0-0.1-0.1-0.1-0.1
			C48.1,24,48,24,47.8,24l0-0.3c0.2,0,0.4-0.1,0.4-0.3c0-0.4,0.3-0.6,0.7-0.6c0.5,0,0.7,0.3,0.7,0.7v0.1c0.1,0.1,0.2,0.1,0.3,0.1h0
			c0.3,0,0.4-0.1,0.4-0.4v-1.5l0.3,0v1.6C50.5,23.8,50.3,24,49.8,24L49.8,24z M49.1,23.5c0-0.3-0.1-0.4-0.3-0.4
			c-0.2,0-0.3,0.1-0.3,0.3c0,0,0,0,0,0.1c0,0,0,0,0,0.1c0,0.3,0.1,0.4,0.3,0.4h0C49,23.9,49.1,23.8,49.1,23.5z"/>
		<path class="st0" d="M50.9,24v-2.2l0.3,0V24H50.9z"/>
		<path class="st0" d="M53.3,23.7c-0.1,0-0.1,0-0.2,0c-0.4,0-0.6-0.2-0.6-0.7c0-0.5,0.3-0.7,0.6-0.7c0.2,0,0.3,0,0.5,0.1v1.2H54
			l0,0.3h-0.7L53.3,23.7L53.3,23.7z M52.7,22.1v-0.4H53v0.4H52.7z M53.3,22.8c-0.1,0-0.1,0-0.1,0h-0.1c-0.2,0-0.3,0.1-0.3,0.4
			c0,0.3,0.1,0.3,0.3,0.3c0.1,0,0.1,0,0.2,0V22.8z M53.2,22.1v-0.4h0.3v0.4H53.2z"/>
		<path class="st0" d="M53.9,24.7v-0.4h0.3v0.4L53.9,24.7L53.9,24.7z M55,24c-0.2,0-0.4,0-0.5-0.1C54.3,23.9,54.2,24,54,24l0-0.3
			c0.3,0,0.4-0.1,0.4-0.4v-0.8l0.3,0v0.9c0,0.1,0,0.2,0,0.3c0.1,0.1,0.2,0.1,0.4,0.1h0.1l0,0.3L55,24L55,24z M54.4,24.7v-0.4h0.3
			v0.4L54.4,24.7L54.4,24.7z"/>
		<path class="st0" d="M55.4,23.4c0-0.4,0.3-0.6,0.7-0.6c0.5,0,0.7,0.3,0.7,0.7v0.1c0.1,0.1,0.2,0.1,0.3,0.1h0.1l0,0.3H57
			c-0.1,0-0.3,0-0.4-0.1c-0.1,0.2-0.3,0.3-0.6,0.3c-0.2,0-0.4-0.1-0.5-0.2c0,0-0.1-0.1-0.1-0.1C55.4,24,55.2,24,55.1,24l0-0.3
			C55.3,23.7,55.4,23.6,55.4,23.4z M56.4,23.5c0-0.3-0.1-0.4-0.3-0.4c-0.2,0-0.3,0.1-0.3,0.3c0,0,0,0,0,0.1c0,0,0,0,0,0.1
			c0,0.3,0.1,0.4,0.3,0.4h0C56.3,23.9,56.4,23.8,56.4,23.5z"/>
		<path class="st0" d="M58.1,24c-0.2,0-0.4,0-0.5-0.1c-0.1,0.1-0.3,0.1-0.5,0.1l0-0.3c0.3,0,0.4-0.1,0.4-0.4v-0.8l0.3,0v0.9
			c0,0.1,0,0.2,0,0.3c0.1,0.1,0.2,0.1,0.4,0.1h0.1l0,0.3L58.1,24L58.1,24z M57.5,22.1v-0.4h0.3v0.4H57.5z"/>
		<path class="st0" d="M58.1,22.1v-0.4h0.3v0.4H58.1z M58.1,23.7c0.3,0,0.4-0.1,0.4-0.4v-0.8l0.3,0v0.9c0,0.4-0.2,0.7-0.7,0.7
			L58.1,23.7z M58.6,22.1v-0.4h0.3v0.4H58.6z"/>
		<path class="st0" d="M59.7,24.3c0,0,0.2,0,0.2,0c0.3,0,0.5-0.2,0.5-0.5v-1l0.3,0v0.8c0.1,0.1,0.3,0.1,0.4,0.1h0.1l0,0.3h-0.1
			c-0.1,0-0.3,0-0.4-0.1c0,0.5-0.3,0.7-0.8,0.7h-0.1L59.7,24.3z M60.4,22.4V22h0.3v0.4H60.4z"/>
		<path class="st0" d="M61.1,23.7h0.9v-0.3c0-0.4-0.5-0.5-0.9-0.5h0l0.9-1.1l0.4,0.1l-0.7,0.8c0.3,0.1,0.7,0.3,0.7,0.8V24h-1.2
			L61.1,23.7z"/>
		<path class="st0" d="M62.6,24.3c0,0,0.2,0,0.2,0c0.3,0,0.5-0.2,0.5-0.5v-1l0.3,0v0.8c0.1,0.1,0.3,0.1,0.4,0.1h0.1l0,0.3H64
			c-0.1,0-0.3,0-0.4-0.1c0,0.5-0.3,0.7-0.8,0.7h-0.1L62.6,24.3z"/>
		<path class="st0" d="M64,23.7h0.4c-0.1-0.1-0.1-0.2-0.1-0.4c0-0.5,0.3-0.7,0.7-0.7c0.5,0,0.7,0.3,0.7,0.7c0,0.5-0.2,0.7-0.7,0.7
			h-1L64,23.7z M65.4,23.3c0-0.3-0.1-0.4-0.3-0.4c-0.2,0-0.3,0.1-0.3,0.4c0,0.3,0.1,0.4,0.3,0.4h0C65.3,23.7,65.4,23.6,65.4,23.3z"
			/>
	</g>
</g>
</svg>
