<?xml version="1.0" encoding="utf-8"?>
<!-- Generator: Adobe Illustrator 24.1.2, SVG Export Plug-In . SVG Version: 6.00 Build 0)  -->
<svg version="1.1" id="Layer_1" xmlns="http://www.w3.org/2000/svg" xmlns:xlink="http://www.w3.org/1999/xlink" x="0px" y="0px"
	 viewBox="0 0 75 28" style="enable-background:new 0 0 75 28;" xml:space="preserve">
<style type="text/css">
	.st0{fill:#0DAF8D;}
	.st1{fill:#59595C;}
</style>
<g id="surface1">
	<path class="st0" d="M20,14l-4.1-4.1h-1.4V8.5l-4.2-4.1L6.2,8.5v1.4H4.8L0.7,14l4.1,4.2h1.4v1.4l4.1,4.1l4.2-4.1v-1.4h1.4L20,14z
		 M14.5,11.3v0.4h0.6l2.3,2.2l-2.3,2.3h-0.6v-0.5l1.7-1.8l-1.7-1.7V11.3z M6.8,8.7l3.5-3.5l3.6,3.5v3.8l1.2,1.3l0.3,0.2l-1.4,1.5
		v0.8h-0.7v-1.1l1.2-1.2l-1.2-1.2V9l-2.9-2.9L7.5,9v0.8H6.8V8.7z M8.1,18.2h0.6l1.7,1.7l1.8-1.7H13h-0.4v0.6L10.3,21l-2.3-2.3V18.2z
		 M7.2,14l0.9-0.9v-1.3h1.3l0.9-0.9l0.9,0.9h1.3v1.3l0.9,0.9l-0.9,0.9v1.3h-1.3l-0.9,0.9l-0.9-0.9H8.1v-1.3L7.2,14z M12.6,9.8h-0.5
		l-1.8-1.8L8.6,9.8H7.7h0.4V9.3L10.3,7l2.3,2.3V9.8z M5.1,17.5L1.6,14l3.5-3.5h3.8l1.3-1.3L10.3,9l1.5,1.4h0.8v0.6h-1.1l-1.2-1.2
		l-1.2,1.2H5.4L2.4,14l2.9,2.9h0.8v0.7H5.1z M6.2,16.7v-0.4H5.6L3.4,14l2.3-2.2h0.6v0.5L4.4,14l1.8,1.8V16.7z M13.9,19.2l-3.6,3.6
		l-3.5-3.6v-3.8l-1.3-1.3L5.4,14l1.4-1.4v-0.8h0.6v1L6.3,14l1.2,1.2V19l2.9,2.9l2.9-2.9v-0.8h0.7V19.2z M11.8,17.5l-1.3,1.2L10.3,19
		l-1.4-1.4H8.1v-0.7h1.1l1.2,1.3l1.2-1.3h3.8l2.9-2.9l-2.9-2.9h-0.8v-0.6h1.1l3.6,3.5l-3.6,3.6"/>
	<path class="st1" d="M24.2,9.8c0-0.2,0.2-0.4,0.4-0.4c0.2,0,0.4,0.2,0.4,0.4c0,0.2-0.2,0.4-0.4,0.4C24.4,10.2,24.2,10,24.2,9.8
		 M25.7,10.2c0.2,0,0.4-0.2,0.4-0.4c0-0.2-0.2-0.4-0.4-0.4c-0.2,0-0.4,0.2-0.4,0.4C25.2,10,25.4,10.2,25.7,10.2 M25.2,13.4
		c-1.2,0-1.7-0.5-1.7-1.4c0-0.8,0.5-1.5,1.7-1.5c0.8,0,1.3,0.2,1.3,0.2v2h1.7v-2.2h0.8v2.8H25.2z M25.3,12.8h0.4v-1.5
		c0,0-0.2-0.1-0.6-0.1c-0.5,0-0.8,0.3-0.8,0.8C24.4,12.5,24.6,12.8,25.3,12.8 M29.1,14.3c0-0.2-0.2-0.4-0.4-0.4
		c-0.2,0-0.4,0.2-0.4,0.4c0,0.2,0.2,0.4,0.4,0.4C28.9,14.7,29.1,14.5,29.1,14.3 M27.6,13.9c-0.2,0-0.4,0.2-0.4,0.4
		c0,0.2,0.2,0.4,0.4,0.4c0.2,0,0.4-0.2,0.4-0.4C28,14.1,27.9,13.9,27.6,13.9 M32.6,13c0-1.5-0.7-2.2-2.1-2.5l-0.2,0.6
		c1,0.2,1.5,0.8,1.5,1.7h-1.9v0.6h2.7V13z M44.9,13.4c-0.6,0-0.9-0.1-1-0.4c-0.2,0.3-0.5,0.5-0.9,0.5c-0.5,0-0.8-0.2-0.9-0.5
		c-0.1,0.3-0.4,0.4-0.9,0.4h-0.6c-0.6,0-1-0.2-1.3-0.4c-0.5,0.2-1.3,0.4-2.1,0.4h-0.9v0c0,0.8-0.6,1.5-2,1.5c-0.5,0-1-0.1-1-0.1
		l0.1-0.6c0,0,0.5,0.1,1,0.1c0.7,0,1.1-0.2,1.1-0.8v-0.1h-0.5c-1.2,0-1.7-0.5-1.7-1.4c0-0.8,0.5-1.5,1.7-1.5c0.8,0,1.3,0.2,1.3,0.2
		v2h1c0.6,0,1.1-0.1,1.5-0.2c-0.4-0.4-0.8-0.7-1.3-0.9l0.1-0.6c0.5-0.3,1.2-0.7,1.8-0.7c1,0,1.3,0.5,1.3,1c0,0.4-0.2,0.8-0.7,1.1
		c0.2,0.1,0.4,0.2,0.7,0.2h0.5c0.4,0,0.6-0.2,0.6-0.7V11h0.8v1.2c0,0.4,0.1,0.7,0.5,0.7c0.4,0,0.5-0.3,0.5-0.7v-1.4h0.8v1.4
		c0,0.5,0.1,0.7,0.7,0.7h0.2c0-0.2,0-0.5,0-0.7c0-0.6-0.1-1.1-0.2-1.6l0.8-0.1c0.1,0.5,0.2,1,0.2,1.6c0,0.2,0,0.5,0,0.8h1.3V9.2h0.8
		v4.3H44.9z M35.4,11.3c0,0-0.2-0.1-0.6-0.1c-0.5,0-0.8,0.3-0.8,0.8c0,0.5,0.3,0.8,1,0.8h0.4V11.3z M39.8,11.6
		c0-0.3-0.2-0.5-0.6-0.5c-0.3,0-0.7,0.2-1,0.4c0.4,0.2,0.8,0.5,1.2,0.8C39.6,12.1,39.8,11.9,39.8,11.6 M50.2,9.2h-0.8v4.3h0.8V9.2z
		 M54.5,10.2c0.2,0,0.4-0.2,0.4-0.4c0-0.2-0.2-0.4-0.4-0.4c-0.2,0-0.4,0.2-0.4,0.4C54.1,10,54.3,10.2,54.5,10.2 M55,12.8h-0.9
		c-1.2,0-1.6-0.4-1.6-1.2c0-0.3,0.1-0.7,0.2-1l-0.9,0.1c-0.1,0.2-0.2,0.6-0.2,0.9c0,1.1,0.6,1.7,2.3,1.7h1.8v-2.8H55V12.8z
		 M53.5,10.2c0.2,0,0.4-0.2,0.4-0.4c0-0.2-0.2-0.4-0.4-0.4c-0.2,0-0.4,0.2-0.4,0.4C53,10,53.2,10.2,53.5,10.2 M57.8,9.2h-0.8v4.3
		h0.8V9.2z M57.5,14.9c0.2,0,0.3,0.1,0.5,0.1c1.3,0,1.6-0.7,1.6-1.5v-2.8h-0.8v2.8c0,0.6-0.3,0.8-0.7,0.8c-0.2,0-0.4,0-0.5-0.1
		L57.5,14.9z M63.1,13c0-1.5-0.7-2.2-2.1-2.5l-0.2,0.6c1,0.2,1.5,0.8,1.5,1.7h-1.9v0.6h2.7V13z M65.4,13.4H64V9.2h0.8v3.7h2v-2.2
		h0.8v0.1c0,0.3,0,0.6-0.1,0.9h0c0.3-0.7,1-1.1,1.6-1.1c0.9,0,1.3,0.5,1.3,1.4c0,0.3,0,0.5,0,0.8h1.3V9.2h0.8v4.3H65.4z M67.7,12.8
		h2c0-0.2,0-0.5,0-0.7c0-0.6-0.2-0.9-0.6-0.9C68.4,11.2,67.8,12,67.7,12.8 M73.7,13.4h0.8V9.2h-0.8"/>
	<path class="st1" d="M23.9,15.7c0-0.1,0.1-0.2,0.3-0.2c0.1,0,0.3,0.1,0.3,0.2c0,0.1-0.1,0.2-0.3,0.2C24,15.9,23.9,15.8,23.9,15.7
		 M24.8,15.9c0.1,0,0.3-0.1,0.3-0.2c0-0.1-0.1-0.2-0.3-0.2c-0.1,0-0.3,0.1-0.3,0.2C24.6,15.8,24.7,15.9,24.8,15.9 M26.4,16.2H27v1.7
		h-2.4c-0.8,0-1.1-0.3-1.1-0.8c0-0.5,0.3-0.9,1-0.9c0.5,0,0.8,0.1,0.8,0.1v1.2h1.1V16.2z M24.9,16.6c0,0-0.1-0.1-0.4-0.1
		c-0.3,0-0.5,0.2-0.5,0.5c0,0.3,0.2,0.5,0.6,0.5h0.3V16.6z M26.7,18.2c-0.1,0-0.3,0.1-0.3,0.2c0,0.1,0.1,0.2,0.3,0.2
		s0.3-0.1,0.3-0.2C26.9,18.3,26.8,18.2,26.7,18.2 M26,18.2c-0.1,0-0.3,0.1-0.3,0.2c0,0.1,0.1,0.2,0.3,0.2c0.1,0,0.3-0.1,0.3-0.2
		C26.3,18.3,26.2,18.2,26,18.2 M27.8,16.1l-0.1,0.4c0.6,0.1,0.9,0.5,0.9,1h-1.2v0.4h1.7v-0.2C29.1,16.8,28.6,16.3,27.8,16.1
		 M38.1,15.4h0.5v2.6h-2.1c-0.3,0-0.6-0.1-0.6-0.3c-0.1,0.2-0.3,0.3-0.6,0.3c-0.3,0-0.5-0.1-0.6-0.3c-0.1,0.2-0.2,0.3-0.5,0.3h-0.4
		c-0.3,0-0.6-0.1-0.8-0.2c-0.3,0.1-0.8,0.2-1.3,0.2h-0.4v0c0,0.5-0.4,0.9-1.2,0.9c-0.3,0-0.6,0-0.6,0l0-0.4c0,0,0.3,0.1,0.6,0.1
		c0.4,0,0.7-0.1,0.7-0.5v-0.1h-0.3c-0.8,0-1.1-0.3-1.1-0.8c0-0.5,0.3-0.9,1-0.9c0.5,0,0.8,0.1,0.8,0.1v1.2h0.5c0.4,0,0.7,0,0.9-0.1
		c-0.3-0.2-0.5-0.4-0.8-0.5l0-0.3c0.3-0.2,0.7-0.4,1.1-0.4c0.6,0,0.8,0.3,0.8,0.6c0,0.2-0.1,0.5-0.4,0.7c0.1,0.1,0.3,0.1,0.4,0.1
		h0.3c0.3,0,0.4-0.1,0.4-0.5v-0.7h0.5v0.7c0,0.3,0.1,0.4,0.3,0.4c0.2,0,0.3-0.2,0.3-0.4v-0.9h0.5v0.9c0,0.3,0.1,0.4,0.4,0.4h0.1
		c0-0.1,0-0.3,0-0.4c0-0.4,0-0.7-0.1-1l0.5-0.1c0.1,0.3,0.1,0.6,0.1,1c0,0.1,0,0.3,0,0.5h0.8V15.4z M30.8,16.6c0,0-0.1-0.1-0.4-0.1
		c-0.3,0-0.5,0.2-0.5,0.5c0,0.3,0.2,0.5,0.6,0.5h0.3V16.6z M33.4,16.8c0-0.2-0.1-0.3-0.4-0.3c-0.2,0-0.5,0.1-0.6,0.2
		c0.3,0.1,0.5,0.3,0.7,0.5C33.3,17.1,33.4,17,33.4,16.8 M39.3,17.9h0.5v-2.6h-0.5V17.9z M42.9,17.5h-0.5c-0.7,0-1-0.2-1-0.8
		c0-0.2,0.1-0.4,0.1-0.6L41,16.3c-0.1,0.1-0.1,0.4-0.1,0.6c0,0.7,0.4,1.1,1.4,1.1h1.1v-1.7h-0.5V17.5z M41.9,15.9
		c0.1,0,0.3-0.1,0.3-0.2c0-0.1-0.1-0.2-0.3-0.2c-0.1,0-0.3,0.1-0.3,0.2C41.7,15.8,41.8,15.9,41.9,15.9 M42.6,15.9
		c0.1,0,0.3-0.1,0.3-0.2c0-0.1-0.1-0.2-0.3-0.2c-0.1,0-0.3,0.1-0.3,0.2C42.3,15.8,42.4,15.9,42.6,15.9 M44.6,15.4h-0.5v2.6h0.5V15.4
		z M45.2,18c0,0.4-0.2,0.5-0.4,0.5c-0.1,0-0.2,0-0.3,0l0,0.4c0.1,0,0.2,0,0.3,0c0.8,0,1-0.4,1-0.9v-1.7h-0.5V18z M46.6,16.1
		l-0.1,0.4c0.6,0.1,0.9,0.5,0.9,1h-1.2v0.4h1.7v-0.2C47.9,16.8,47.4,16.3,46.6,16.1 M53.2,15.4h0.5v2.6h-5.3v-2.6h0.5v2.2h1.2v-1.3
		h0.5v0.1c0,0.2,0,0.4,0,0.5h0c0.2-0.4,0.6-0.7,1-0.7c0.5,0,0.8,0.3,0.8,0.9c0,0.2,0,0.3,0,0.5h0.8V15.4z M51.9,17.1
		c0-0.3-0.1-0.5-0.4-0.5c-0.4,0-0.8,0.5-0.9,1h1.2C51.9,17.4,51.9,17.2,51.9,17.1 M54.4,17.9h0.5v-2.6h-0.5V17.9z M56.6,15.9
		c0.1,0,0.3-0.1,0.3-0.2c0-0.1-0.1-0.2-0.3-0.2c-0.1,0-0.3,0.1-0.3,0.2C56.4,15.8,56.5,15.9,56.6,15.9 M57.3,15.9
		c0.1,0,0.3-0.1,0.3-0.2c0-0.1-0.1-0.2-0.3-0.2c-0.1,0-0.3,0.1-0.3,0.2C57,15.8,57.1,15.9,57.3,15.9 M59.6,18.2
		c-0.1,0-0.3,0.1-0.3,0.2c0,0.1,0.1,0.2,0.3,0.2c0.1,0,0.3-0.1,0.3-0.2C59.8,18.3,59.7,18.2,59.6,18.2 M58.9,18.2
		c-0.1,0-0.3,0.1-0.3,0.2c0,0.1,0.1,0.2,0.3,0.2c0.1,0,0.3-0.1,0.3-0.2C59.2,18.3,59.1,18.2,58.9,18.2 M63.5,15.9
		c0.1,0,0.3-0.1,0.3-0.3c0-0.1-0.1-0.3-0.3-0.3s-0.3,0.1-0.3,0.3C63.3,15.8,63.4,15.9,63.5,15.9 M64.5,15.9c0.1,0,0.3-0.1,0.3-0.2
		c0-0.1-0.1-0.2-0.3-0.2c-0.1,0-0.3,0.1-0.3,0.2C64.3,15.8,64.4,15.9,64.5,15.9 M64.7,16.2h0.5v1.7h-3.6c-0.5,0-0.7-0.1-0.8-0.3
		c-0.1,0.2-0.3,0.3-0.5,0.3H57c-0.8,0-1.1-0.3-1.1-0.8c0-0.5,0.3-0.9,1-0.9c0.5,0,0.8,0.1,0.8,0.1v1.2h1.5v-1.3h0.5v1.3h0.4
		c0.2,0,0.3-0.1,0.3-0.4c0-0.5,0.3-0.9,1-0.9c0.6,0,0.9,0.3,0.9,0.9v0.5h0.8v-1.3h0.5v1.3h0.9V16.2z M57.3,16.6c0,0-0.1-0.1-0.4-0.1
		c-0.3,0-0.5,0.2-0.5,0.5c0,0.3,0.2,0.5,0.6,0.5h0.3V16.6z M61.9,17.1c0-0.4-0.1-0.5-0.4-0.5c-0.3,0-0.5,0.2-0.5,0.5
		c0,0.3,0.2,0.5,0.6,0.5h0.3V17.1z M65.2,15.4c-0.1,0-0.3,0.1-0.3,0.2c0,0.1,0.1,0.2,0.3,0.2c0.1,0,0.3-0.1,0.3-0.2
		C65.4,15.6,65.3,15.4,65.2,15.4 M67.5,15.9c0.1,0,0.3-0.1,0.3-0.2c0-0.1-0.1-0.2-0.3-0.2c-0.1,0-0.3,0.1-0.3,0.2
		C67.2,15.8,67.3,15.9,67.5,15.9 M66.8,15.9c0.2,0,0.3-0.1,0.3-0.2c0-0.1-0.1-0.2-0.3-0.2c-0.1,0-0.3,0.1-0.3,0.2
		C66.6,15.8,66.7,15.9,66.8,15.9 M70,15.6h-0.2c-0.2,0-0.3-0.1-0.3-0.1c0-0.1,0.1-0.1,0.2-0.1c0.1,0,0.2,0,0.2,0l0-0.3
		c0,0-0.1,0-0.2,0c-0.4,0-0.6,0.2-0.6,0.4c0,0.1,0,0.1,0.1,0.1c-0.1,0-0.1,0-0.2,0v0.3h1V15.6z M71.2,18.2c-0.1,0-0.3,0.1-0.3,0.2
		c0,0.1,0.1,0.2,0.3,0.2c0.1,0,0.3-0.1,0.3-0.2C71.4,18.3,71.3,18.2,71.2,18.2 M70.5,18.2c-0.1,0-0.3,0.1-0.3,0.2
		c0,0.1,0.1,0.2,0.3,0.2c0.1,0,0.3-0.1,0.3-0.2C70.8,18.3,70.7,18.2,70.5,18.2 M74.5,17.5v0.4h-7.3c-0.8,0-1.1-0.3-1.1-0.8
		c0-0.5,0.3-0.9,1-0.9c0.5,0,0.8,0.1,0.8,0.1v1.2h1.3v-1.3h0.5v1.3h1.1v-1.3h0.5v1.3h0.7c0.1,0,0.2,0,0.2,0s-0.1-0.1-0.1-0.2
		c0-0.3,0.3-0.6,0.7-0.6c0.5,0,0.7,0.3,0.7,0.7v0.1H74v0c0-0.8-0.3-1.1-1.1-1.1c-0.3,0-0.6,0.1-0.8,0.1l0-0.3c0.3-0.1,0.6-0.1,1-0.1
		C74,16,74.5,16.5,74.5,17.5 M67.5,16.6c0,0-0.1-0.1-0.4-0.1c-0.3,0-0.5,0.2-0.5,0.5c0,0.3,0.2,0.5,0.6,0.5h0.3V16.6z M73.2,17.4
		c0-0.3-0.1-0.4-0.3-0.4c-0.2,0-0.3,0.1-0.3,0.3c0,0.2,0.2,0.3,0.4,0.3h0.2"/>
</g>
</svg>
