<?xml version="1.0" encoding="utf-8"?>
<!-- Generator: Adobe Illustrator 24.1.2, SVG Export Plug-In . SVG Version: 6.00 Build 0)  -->
<svg version="1.1" id="Layer_1" xmlns="http://www.w3.org/2000/svg" xmlns:xlink="http://www.w3.org/1999/xlink" x="0px" y="0px"
	 viewBox="0 0 75 28" style="enable-background:new 0 0 75 28;" xml:space="preserve">
<style type="text/css">
	.st0{fill-rule:evenodd;clip-rule:evenodd;fill:#9EC7A0;}
	.st1{fill-rule:evenodd;clip-rule:evenodd;fill:#237E4B;}
</style>
<g>
	<defs>
		<line id="SVGID_1_" x1="0" y1="28" x2="0" y2="0"/>
	</defs>
	<clipPath id="SVGID_2_">
		<use xlink:href="#SVGID_1_"  style="overflow:visible;"/>
	</clipPath>
</g>
<path class="st0" d="M6.3,1.6c-0.2,0,10.2,0,12.8,0c0.6,0-1.9,0-5.7,0C9.6,1.5,6.4,1.5,6.3,1.6 M72.4,1.7c0.1,0,0.1,0.1,0.1,0.5v0.5
	h-0.4c-0.2,0-0.4,0-0.4,0c0,0,0.2,0,0.4,0l0.4,0V2.2C72.5,1.7,72.5,1.7,72.4,1.7C72.3,1.7,72.3,1.7,72.4,1.7 M65.6,2.3
	c-0.3,0.1-0.6,0.5-0.5,0.6c0,0,0,0,0,0C65.1,2.8,65.4,2.5,65.6,2.3c0.1,0,0.2,0,0.2,0C65.7,2.3,65.6,2.3,65.6,2.3 M53.7,2.4
	c0,0,0,0.4,0,0.7l0,0.6l0-0.7L53.7,2.4l1.1,0H56l0,3.1l0,3.1l0-3.1l0-3.1l-1.1,0C54,2.3,53.7,2.4,53.7,2.4 M3.7,2.6
	C3.3,3,2.8,3.5,2.5,3.8C2.4,4,2.2,4.2,2.2,4.3c0,0,0,0.1,0,0.1S2.3,4.2,2.4,4c0.3-0.4,0.8-1,1.2-1.3C4.1,2.4,4.1,2.4,4,2.4
	C4,2.4,3.9,2.5,3.7,2.6 M70.7,2.8c0,0.3,0,0.3-0.2,0.3l-0.2,0l0.2,0C70.7,3.2,70.7,3.1,70.7,2.8l0-0.3L70.7,2.8 M3.9,3.2
	c-0.4,0.3-1,1-1.2,1.3c-0.1,0.2-0.1,0.2,0,0C3.2,3.9,3.5,3.5,3.9,3.2c0.4-0.2,0.5-0.3,0.4-0.3C4.3,2.8,4.1,3,3.9,3.2 M22.7,3
	C23,3.3,23.8,4.1,24,4.4c0.2,0.3,0.3,0.4,0.2,0.2C23.9,4.2,23.1,3.3,22.7,3l-0.2-0.2L22.7,3 M71.7,3c0,0,0,0.1,0,0.1
	c0,0.1,0.1,0.1,0.4,0.1h0.4l0,0.5c0,0.3,0,0.5,0,0.5c0,0,0.1-0.3,0.1-0.7l0-0.3h-0.4C71.8,3.1,71.7,3.1,71.7,3C71.7,3,71.7,3,71.7,3
	 M13.2,4c-0.1,0.1-0.4,0.8-0.4,1.1c0,0.1,0,0.3-0.1,0.5c0,0.6-0.1,0.6-0.6,0.3c-0.1-0.1-0.3-0.2-0.4-0.2c-0.1,0-0.3-0.1-0.4-0.1
	c-0.4-0.1-0.6-0.1-1.1,0C9.6,5.8,9.5,5.8,9.4,5.9c0,0-0.1,0-0.1,0C9.2,5.9,9.2,6,9.2,6c0,0,0,0.1-0.1,0.1C9,6.1,8.4,6.5,8.4,6.6
	c0,0,0.1,0,0.2,0c0.8-0.1,1.3-0.1,2,0.3c0.4,0.2,0.9,0.6,0.9,0.7c0,0.1-0.1,0.1-0.7-0.1c-0.6-0.1-1.3-0.1-1.7,0.1
	C9,7.7,8.9,7.7,8.9,7.7C8.8,7.7,8.3,8.1,8,8.4c-0.3,0.3-0.7,0.9-0.7,1c0,0.1,0.1,0.2,0.1,0.1c0-0.1,0.7-0.4,1-0.5
	c0.3-0.1,1.5-0.1,1.6,0c0,0,0.1,0.1,0.2,0.1c0.1,0,0.3,0.1,0.3,0.2c0,0-0.1,0.1-0.2,0.1c-0.1,0-0.3,0.1-0.3,0.1
	c-0.1,0-0.2,0.1-0.2,0.1c-0.1,0-0.2,0.1-0.3,0.1S9.4,9.7,9.4,9.7c0,0-0.1,0.1-0.2,0.1S9.1,9.9,9.1,9.9c-0.1,0-0.6,0.6-0.8,1.1
	c-0.1,0.2-0.2,0.7-0.1,0.7c0,0,0.1-0.1,0.3-0.2c0.1-0.1,0.2-0.1,0.3-0.1c0,0,0,0,0,0c0-0.1,0.3-0.2,0.8-0.4c0.8-0.2,2.1-0.1,2.9,0.3
	c0.2,0.1,0.3,0.1,0.3,0.1c0,0,0.1,0.1,0.3,0.1c0.1,0.1,0.2,0.1,0.3,0.1c0,0,0.2-0.1,0.5-0.2c0.2-0.1,0.6-0.3,0.8-0.4
	c0.4-0.2,0.5-0.2,1.3-0.2c0.7,0,0.9,0,1.2,0.1c0.2,0.1,0.4,0.1,0.4,0.2c0,0,0.1,0,0.2,0c0.1,0,0.3,0.1,0.7,0.4
	c0.1,0.1,0.2,0.1,0.2,0.1c0,0,0-0.1,0-0.2c-0.1-0.6-0.7-1.5-1.2-1.7c-0.1-0.1-0.2-0.2-0.2-0.2c0,0,0,0,0,0c0,0-0.2,0-0.3,0
	c-0.1,0-0.3-0.1-0.4-0.1c-0.2,0-0.3-0.2-0.2-0.3c0,0,0.1-0.1,0.2-0.1c0.1,0,0.2,0,0.2-0.1c0.2-0.1,1-0.1,1.4,0
	C18.5,9.1,19,9.3,19,9.4c0,0,0,0,0,0c0,0,0.1,0,0.2,0.1c0.2,0.1,0.2,0.1,0.1-0.1c0-0.1-0.1-0.1-0.1-0.2s0-0.1,0-0.1
	c0,0-0.1-0.1-0.2-0.2c-0.2-0.3-0.5-0.6-0.5-0.6c0,0-0.1,0-0.1-0.1c-0.1-0.2-1-0.6-1.2-0.6c-0.1,0-0.2,0-0.3-0.1c-0.1,0-0.3,0-0.7,0
	c-0.3,0-0.6,0.1-0.6,0.1c0,0-0.1,0-0.2,0c-0.1,0-0.1,0-0.1-0.1c0-0.1,0-0.2,0-0.2c0.2-0.2,0.7-0.5,0.8-0.5c0,0,0.1,0,0.1-0.1
	c0,0,0.2-0.1,0.4-0.2c0.4-0.1,1.3-0.1,1.6-0.1l0.2,0l-0.1-0.1c-0.1-0.1-0.2-0.1-0.2-0.1c0,0-0.1,0-0.1-0.1c0-0.1-0.1-0.2-0.5-0.3
	c-0.3-0.1-0.4-0.2-0.4-0.3c0,0-0.1,0-0.2,0c-0.1,0-0.3,0-0.4-0.1c-0.3-0.1-1.6,0.1-1.7,0.2c0,0-0.1,0-0.2,0c-0.1,0-0.1,0-0.1,0
	c0,0-0.3,0.2-0.4,0.2c0,0-0.1-0.1-0.1-0.3c0-0.2,0-0.4-0.1-0.5c0-0.1-0.1-0.3-0.1-0.4c0-0.2-0.3-0.9-0.5-1C13.4,3.9,13.3,3.9,13.2,4
	 M72.4,7.5l0,3L72.4,7.5c0.1-1.6,0-2.9,0-2.9C72.4,4.5,72.4,5.9,72.4,7.5 M33.6,5c0,0,0,0.9,0,1.9v1.8l-1.1,0l-1.1,0l1.1,0l1.1,0
	V6.9L33.6,5L35,5l1.4,0L35,5C34.3,5,33.6,5,33.6,5 M48.2,5c0.2,0,0.6,0,0.8,0c0.2,0,0,0-0.4,0C48.1,5,48,5,48.2,5 M47.4,5.1
	c0,0.1,0,1.9,0,2c0,0,0.1,0,0.3-0.1c0.3-0.1,1.4-0.2,1.7,0C49.5,7,49.6,7,49.6,7c0,0-0.1-0.1-0.2-0.1c-0.3-0.1-1.5-0.1-1.8,0.1
	l-0.2,0.1v-1c0-1,0-1,0.1-1c0.1,0,0.1,0,0,0C47.5,5.1,47.5,5.1,47.4,5.1 M62.2,5.2c0,0,0,0.8,0,1.8v1.8h-3.1c-2.4,0-3.1,0-3.1-0.1
	c0,0,0,0,0,0c0,0.1,0.2,0.1,3.1,0.1h3.1l0-1.8C62.3,5.9,62.3,5.1,62.2,5.2C62.3,5.1,62.2,5.1,62.2,5.2 M65.3,5.4
	c-0.2,0.1-0.5,0.4-0.8,0.7c-0.3,0.3-0.4,0.4-0.4,0.3c0,0,0-0.3,0-0.7c0-0.6,0-0.6,0,0.2c0,0.4,0,0.7,0,0.7c0,0,0.2-0.2,0.5-0.5
	C64.8,5.9,65.2,5.5,65.3,5.4c0.3-0.1,0.4-0.3,0.4-0.3C65.7,5.1,65.5,5.2,65.3,5.4 M30.3,5.3l0.2,0l0,1.3l0,1.3l0-1.3l0-1.3L30.3,5.3
	C30.1,5.2,30.1,5.2,30.3,5.3 M29.2,5.3c-0.1,0,0,0,0.3,0c0.2,0,0.5,0,0.5-0.1C30,5.3,29.4,5.3,29.2,5.3 M50.4,5.4
	c0,0,0.1,0.1,0.2,0.2c0.1,0.1,0.3,0.2,0.5,0.3C51.2,6,51.2,6,51,5.8C50.7,5.6,50.4,5.3,50.4,5.4 M28.7,5.5c0,0,0,0.6,0,1.3l0,1.3
	l0-1.3c0-1.3,0-1.3,0.1-1.3l0.1,0l-0.1,0C28.8,5.4,28.7,5.4,28.7,5.5 M37.6,5.5c0.1,0.1,0.3,0.2,0.5,0.4c0.3,0.3,0.3,0.2,0-0.1
	C38,5.7,37.6,5.4,37.6,5.5C37.5,5.4,37.6,5.4,37.6,5.5 M70.9,5.5l0.2,0v2.5v2.5h0.7c0.4,0,0.7,0,0.7,0c0,0-0.3,0-0.7,0l-0.7,0V8V5.5
	L70.9,5.5l-0.2,0L70.9,5.5 M1.9,13.8c0,3.9,0,5.5,0,3.5c0-2,0-5.2,0-7.1C1.9,8.3,1.9,9.9,1.9,13.8 M25.4,13.9c0,3.9,0,5.5,0,3.5
	c0-1.9,0-5.1,0-7C25.4,8.4,25.4,10,25.4,13.9 M35.4,8.7v1.9l-2.2,0c-1.2,0-2.2,0-2.3,0c0,0,1,0,2.3,0l2.3,0L35.4,8.7l0.1-1.8l0.4,0
	l0.4,0l-0.5,0l-0.5,0V8.7 M39,8.1l0,0.7h5.6c5.2,0,5.6,0,5.5-0.1c0-0.1,0-0.1,0,0c0,0.1-1.2,0.1-5.5,0.1l-5.5,0L39,8.1l0-0.7L39,8.1
	 M37.2,9.1l0,1.4l7.4,0l7.4,0l-7.3,0l-7.3,0L37.2,9.1l0-1.4L37.2,9.1 M51.9,9.2c0,0.7,0,1,0,0.7c0-0.4,0-0.9,0-1.3
	C51.9,8.2,51.9,8.5,51.9,9.2 M64.1,8.7C64.1,8.7,64.1,8.7,64.1,8.7c0,0.1,0.7,0.1,1.7,0.1c1.6,0,1.7,0,1.7-0.1c0-0.1,0-0.1,0,0
	C67.4,8.7,64.3,8.8,64.1,8.7C64.2,8.6,64.1,8.6,64.1,8.7 M29.4,9.6c0.3,0.3,0.4,0.4,0.6,0.5c0.1,0,0.1,0,0.1,0
	C29.4,9.6,29.2,9.4,29.4,9.6 M62.7,10c-0.1,0.1-0.1,0.1-0.1,0.2c0,0,0.1,0,0.1,0c0-0.1,0.1-0.1,0.2-0.1c0,0,0.2,0.1,0.4,0.3l0.3,0.3
	l2.9,0l2.9,0l-2.9,0l-2.9,0l-0.4-0.4l-0.4-0.4L62.7,10 M62.2,10.4L62,10.6l-4,0l-4,0l4,0l4,0L62.2,10.4
	C62.6,10.1,62.5,10.1,62.2,10.4 M30.5,11.3c0,0,0.1,0,0.3,0c0.3,0,0.7,0.1,0.9,0.4c0.1,0.1,0.1,0.1,0.1,0c-0.1-0.2-0.1-0.2-0.4-0.4
	C31.1,11.3,30.6,11.2,30.5,11.3 M14.7,12c-0.2,0.2-0.6,0.5-0.6,0.7c0,0.1,0,0.1,0,0.1c0.1-0.2,0.6-0.6,0.7-0.6c0,0,0,0,0,0
	C14.7,12.1,14.8,12,14.7,12C15,11.9,14.9,11.9,14.7,12 M12.7,12.1C12.7,12.1,12.8,12.2,12.7,12.1c0.1,0.1,0.2,0.2,0.4,0.3l0.3,0.3
	l0.3-0.3c0.2-0.2,0.3-0.3,0.3-0.3c0,0-0.2,0.1-0.4,0.3c-0.2,0.2-0.3,0.3-0.3,0.2c0-0.1,0-0.1,0-0.1c0,0-0.2-0.1-0.3-0.2
	C12.8,12.1,12.7,12,12.7,12.1 M34.3,12.3c0,0.3-0.1,0.6-0.4,0.8c-0.1,0.1-0.2,0.2-0.2,0.2c0,0,0.1-0.1,0.3-0.2
	C34.2,12.8,34.3,12.5,34.3,12.3C34.3,12,34.3,12,34.3,12.3 M32.3,12.6c0,0.2,0.5,0.7,0.7,0.7c0,0,0,0-0.1-0.1
	C32.7,13.1,32.5,12.9,32.3,12.6C32.4,12.6,32.3,12.6,32.3,12.6 M13.9,15.8c0,1.6,0,2.9,0,2.9c0,0,0.1,0,0.1-0.1
	c0.1-0.1,0.1-0.1,0-0.1l-0.1,0L13.9,15.8l0-2.9L13.9,15.8 M48,15.5c0,2.5,0,2.4-0.4,2c-0.1-0.1-0.2-0.1-0.2-0.1c0,0-0.1,0-0.1,0
	c0,0-0.1-0.1-0.1-0.1c-0.1,0-0.1,0,0,0.1c0.1,0.1,0.3,0.2,0.4,0.3c0.2,0.2,0.3,0.2,0.3,0.2C48,17.8,48,16.7,48,15.5l0-2.3L48,15.5
	 M62,19.5c0,4.3,0,6.3,0,6.3c0.1,0,1.7,0,1.8,0c0,0-0.4,0-0.9,0h-0.9L62,19.5l0-6.3L62,19.5 M72.4,15c-0.1,0.2-0.2,0.3-0.4,0.4
	c-0.1,0.1-0.2,0.1-0.2,0.1c0.2,0,0.7-0.5,0.6-0.7C72.5,14.8,72.4,14.9,72.4,15 M39.2,20.8v5l-0.9,0l-0.9,0l0.9,0l0.9,0L39.2,20.8
	c0.1-2.7,0-5,0-5S39.2,18.1,39.2,20.8 M59.4,16.7c0,0.5,0,0.9,0,0.9c0,0-0.1,0-0.2-0.1c-0.1-0.1-0.2-0.2-0.2-0.1
	c0,0,0.4,0.5,0.5,0.5c0,0,0-0.4,0-0.9c0-0.7,0-0.9,0.1-1c0,0,0,0,0,0C59.4,15.8,59.4,15.9,59.4,16.7 M70.7,20.8c0,2.8,0,5,0,5
	c0.1,0,1.7,0,1.8,0c0,0-0.4,0-0.9,0l-0.9,0L70.7,20.8l0-5L70.7,20.8 M33.4,16c0.1,0,0.4,0,0.5,0c0.1,0,0,0-0.3,0
	C33.4,16,33.2,16,33.4,16 M55.3,16c0.2,0,0.4,0,0.6,0c0.1,0,0,0-0.3,0C55.3,16,55.2,16,55.3,16 M61.2,20.7c0,2.5,0,3.6,0,2.3
	c0-1.3,0-3.4,0-4.6C61.2,17.1,61.2,18.1,61.2,20.7 M72.5,20.8c0,2.6,0,3.6,0,2.3c0-1.3,0-3.4,0-4.7C72.5,17.1,72.5,18.2,72.5,20.8
	 M65.5,16.2c-0.1,0,0.3,0,0.7,0s0.8,0,0.7,0C66.9,16.2,65.6,16.2,65.5,16.2 M67.3,16.4c0.2,0.1,0.4,0.2,0.5,0.2
	c0.2,0.1,0.2,0.1,0.1,0c-0.1-0.1-0.2-0.1-0.2-0.1c0,0-0.1,0-0.1,0c0,0-0.1-0.1-0.2-0.1c-0.1,0-0.2,0-0.3-0.1
	C67.1,16.3,67.2,16.3,67.3,16.4 M6.9,16.4c0.1,0,0.4,0,0.5,0c0.1,0,0,0-0.3,0S6.7,16.4,6.9,16.4 M53.4,16.5
	c-0.7,0.3-0.9,0.6-1.7,1.4c-0.1,0.1-0.3,0.4-0.3,0.4c0,0,0.1-0.1,0.2-0.2c0.2-0.3,0.8-0.9,1.1-1.1C52.8,16.9,53.1,16.7,53.4,16.5
	c0.2,0,0.3-0.1,0.3-0.1S53.5,16.4,53.4,16.5 M30.8,16.9c-0.3,0.2-1,0.9-1.2,1.2c-0.1,0.1-0.1,0.1,0.1-0.1
	C30,17.6,30.5,17.1,30.8,16.9c0.3-0.1,0.4-0.2,0.3-0.2C31.1,16.7,31,16.8,30.8,16.9 M68.3,16.8c0.1,0.1,0.3,0.3,0.5,0.5
	c0.2,0.2,0.4,0.3,0.4,0.3c0,0,0-0.1,0,0c0,0-0.2-0.1-0.4-0.3C68.6,17,68.4,16.9,68.3,16.8l-0.2-0.1L68.3,16.8 M5.4,17
	c-0.2,0,0.1,0,0.5,0c0.4,0,0.8,0,0.8,0C6.8,16.9,5.7,17,5.4,17 M20,17c0,0,1,0,1,0c0,0-0.2,0-0.5,0S20,17,20,17 M10.7,17.3
	c0.3,0.2,0.7,0.4,0.8,0.5c0.1,0.1,0.2,0.1,0.2,0.1c-0.1-0.1-1.3-0.8-1.5-0.8C10.2,17.1,10.4,17.2,10.7,17.3 M37,17.4
	c0.2,0.2,0.4,0.4,0.4,0.4c0,0,0-0.1,0-0.1c0-0.1,0-0.1-0.1-0.1c0,0-0.1,0-0.1,0c0,0-0.2-0.2-0.3-0.3C36.7,17.1,36.8,17.1,37,17.4
	 M11.8,18c0,0,0.1,0.1,0.2,0.2c0.1,0.1,0.3,0.2,0.5,0.3c0.2,0.2,0.3,0.2,0.3,0.1c0,0,0-0.1-0.1-0.1c0,0-0.2-0.1-0.4-0.2
	C12.1,18.1,11.7,17.9,11.8,18 M10.3,18.1c0.2,0.1,0.5,0.3,0.8,0.5c0.1,0.1,0.1,0.1,0.1,0c-0.1-0.1-1-0.6-1-0.6
	C10.1,18,10.1,18.1,10.3,18.1 M35.6,18.1c0.1,0.1,0.3,0.2,0.4,0.4c0.4,0.4,0.5,0.4,0.1,0C35.9,18.3,35.7,18.1,35.6,18.1L35.4,18
	L35.6,18.1 M53.5,18.2c-0.3,0.2-0.8,0.8-1,1.1c-0.2,0.3-0.1,0.3,0.1-0.1c0.2-0.3,0.6-0.7,0.9-1c0.1-0.1,0.2-0.1,0.1-0.1
	C53.8,18,53.7,18.1,53.5,18.2 M44.4,18.1c0,0,0.3,0,0.6,0.1c0.3,0,0.5,0,0.4,0C45.2,18.1,44.4,18,44.4,18.1 M43.3,18.4
	c-0.2,0.1-0.4,0.3-0.6,0.4c-0.2,0.2-0.3,0.2-0.2,0.2c0.1,0,0.2-0.1,0.2-0.2c0.1-0.1,0.2-0.1,0.2-0.1c0,0,0,0,0,0
	C42.9,18.7,43,18.6,43.3,18.4c0.2-0.1,0.4-0.2,0.4-0.2C43.6,18.3,43.4,18.4,43.3,18.4 M11.4,18.8c0,0,0.5,0.4,0.8,0.6l0.2,0.1
	l-0.2-0.2C12,19.2,11.4,18.8,11.4,18.8 M14.7,19.3c-0.6,0.4-0.6,0.5-0.5,0.6c0.1,0.1,0.1,0.1,0.1,0.1c0,0,0-0.1,0-0.1
	C14.1,19.8,14.2,19.7,14.7,19.3c0.6-0.4,0.7-0.5,0.6-0.5C15.3,18.8,15,19,14.7,19.3 M47,19.1C47,19.1,47,19.2,47,19.1
	c0.1,0,0.1,0.1,0.1,0.1c0,0,0,0.1,0,0c0,0,0.1,0.1,0.3,0.3s0.2,0.3,0.2,0.3c0,0-0.3-0.6-0.5-0.7C47.1,19.1,47,19.1,47,19.1
	 M68.4,22.2c0,1.6,0,2.2,0,1.4s0-2,0-2.8C68.4,20.1,68.4,20.7,68.4,22.2 M69.9,22.6l0,3.2h-0.7h-0.7l0-0.3l0-0.3l0,0.3
	c0,0.2,0,0.4,0,0.4c0.1,0.1,1.4,0.1,1.5,0C69.9,25.8,69.9,24.4,69.9,22.6l0-3.2L69.9,22.6 M12.5,19.7c0,0.1-0.1,0.2-0.5,0.6
	c-0.1,0.1-0.3,0.3-0.3,0.3c0,0,0.2-0.1,0.5-0.4C12.6,19.8,12.7,19.7,12.5,19.7C12.5,19.7,12.5,19.7,12.5,19.7 M14.6,20.2
	c0.7,0.7,2.2,2,2,1.8c0,0-0.1-0.1,0-0.1c0,0,0,0,0,0c0,0-0.1,0-0.2-0.1c-0.1-0.1-0.3-0.3-0.6-0.5c-0.2-0.2-0.4-0.4-0.4-0.4
	c0,0-0.3-0.2-0.6-0.5C14.5,20.1,14.4,20.1,14.6,20.2 M13.1,20.6c-0.1,0.1-0.2,0.2-0.1,0.2c0,0,0.1,0,0.1,0c0,0,0.1-0.2,0.3-0.3
	c0.1-0.1,0.1,0,0.3,0.1c0.4,0.4,1.2,1.1,1.2,1.2c0,0,0,0,0,0c0,0,0.1,0,0.2,0.1c0.1,0.2,1.2,1.1,1.3,1.1c0.1,0.1,0.1,0-0.6-0.5
	c-0.3-0.3-0.9-0.8-1.2-1.1c-0.9-0.8-1.1-1-1.2-1C13.3,20.4,13.2,20.5,13.1,20.6 M37,20.5c0,0,0,0.3,0,0.5l0,0.4l0-0.5
	C37.1,20.5,37.1,20.3,37,20.5 M50.7,21c0,0.3,0,0.4,0,0.3c0-0.2,0-0.4,0-0.6C50.7,20.5,50.7,20.7,50.7,21 M52.2,21
	c0,0.3,0,0.4,0,0.3c0-0.2,0-0.4,0-0.6C52.2,20.5,52.2,20.7,52.2,21 M47.9,21.2c0,0.5,0,0.6,0,0.3c0-0.2,0-0.5,0-0.6
	C47.9,20.6,47.9,20.7,47.9,21.2 M63.9,22.6c0,1.1,0,1.6,0,1c0-0.6,0-1.5,0-2C63.9,21,63.9,21.5,63.9,22.6 M11,21.2
	c-0.6,0.6-1.3,1.1-1.4,1.2c-0.1,0.1-0.2,0.1-0.3,0c-0.3-0.2-0.3-0.1-0.1,0c0.2,0.1,0.2,0.1,0.3,0.1c0.3-0.1,2.1-1.7,2-1.7
	C11.5,20.7,11.3,20.9,11,21.2 M12.4,21.3L12,21.7L12.4,21.3c0.2-0.1,0.4-0.3,0.4-0.3c0,0,0.1-0.1,0-0.1
	C12.8,20.9,12.6,21.1,12.4,21.3 M17.7,22.2c0,0,0,0,0.1,0c0.2,0,0.4,0,0.6,0.2c0.1,0.1,0.2,0.1,0.1,0.1
	C18.5,22.3,17.8,22.1,17.7,22.2 M36.5,22.7c-0.3,0.4-0.6,0.7-0.6,0.7c0,0,0,0,0,0c0.1,0.1-0.1,0.2-0.5,0.4c-0.4,0.3-0.5,0.3,0,0.1
	c0.5-0.3,1.1-0.9,1.4-1.4C36.8,22.3,36.7,22.4,36.5,22.7 M11,22.5c-0.1,0.1-0.3,0.2-0.5,0.4c-0.2,0.2-0.4,0.3-0.4,0.3
	c0,0,0.5-0.3,0.7-0.6c0.1-0.1,0.2-0.1,0.2-0.1c0,0,0,0,0,0C11.1,22.4,11.1,22.4,11,22.5 M18.6,22.8c0,0.3,0,0.4-0.2,0.7
	c-0.2,0.2-0.1,0.2,0,0.1c0.2-0.2,0.3-0.6,0.2-0.8C18.6,22.6,18.6,22.6,18.6,22.8 M2.6,23c0.2,0.4,0.5,0.8,1,1.2
	c0.2,0.2,0.4,0.4,0.5,0.4c0,0,0-0.1,0-0.1c-0.1,0-1-1-1.2-1.2c-0.1-0.1-0.2-0.3-0.2-0.4C2.5,22.8,2.5,22.9,2.6,23 M52.8,23
	c0.1,0.2,0.7,0.8,0.9,0.8c0.1,0.1,0.1,0,0-0.1c-0.1-0.1-0.2-0.1-0.2-0.1C53.4,23.6,52.8,23,52.8,23c0-0.1,0-0.2-0.1-0.2
	C52.7,22.8,52.7,22.9,52.8,23 M30.9,23.1c0.2,0.2,0.4,0.4,0.5,0.5c0.1,0.1,0.2,0.1,0,0c-0.1-0.1-0.1-0.2-0.2-0.2
	c0-0.1-0.1-0.1-0.1-0.1C31.2,23.3,31.1,23.2,30.9,23.1C30.9,23,30.9,23,30.9,23.1 M51.1,23.1c0,0.1,0.5,0.8,0.8,1.1
	c0.2,0.2,0.9,0.8,0.9,0.8c0,0,0-0.1-0.1-0.1C52.2,24.5,51.7,24,51.1,23.1C51.2,23.1,51.1,23.1,51.1,23.1 M42.6,23.5
	c0.2,0.2,0.4,0.3,0.4,0.4c0.1,0,0.1,0,0-0.1C42.2,23.1,42.2,23.1,42.6,23.5 M16.7,23.3c0,0.1,0.7,0.4,0.8,0.4c0.1,0,0,0-0.2-0.1
	c-0.1-0.1-0.3-0.2-0.5-0.2C16.8,23.3,16.7,23.3,16.7,23.3 M46.9,23.5c-0.1,0.1-0.4,0.3-0.6,0.4c-0.2,0.1-0.3,0.2-0.3,0.2
	c0,0,0.2-0.1,0.4-0.2c0.3-0.2,1-0.7,0.9-0.7C47.1,23.3,47,23.4,46.9,23.5 M23.7,23.6c-0.4,0.5-0.7,0.7-1.4,1.2l-0.1,0.1l0.1-0.1
	c0.4-0.2,1.3-1,1.6-1.4C24,23.2,23.9,23.3,23.7,23.6 M24.3,23.7c-0.1,0.1-0.4,0.5-0.6,0.7c-0.2,0.3-0.4,0.4-0.3,0.3
	c0.2-0.2,0.6-0.6,0.8-0.9c0.1-0.1,0.2-0.3,0.3-0.3c0,0,0,0,0,0C24.5,23.4,24.4,23.5,24.3,23.7 M40.8,23.7c0.1,0.3,1.1,1.2,1.3,1.3
	l0.1,0.1L42.1,25c-0.1-0.1-0.3-0.2-0.4-0.4c-0.2-0.2-0.5-0.5-0.9-1C40.7,23.5,40.7,23.6,40.8,23.7 M57.5,23.8c0,0-0.4,0.2-0.9,0.4
	c-0.1,0.1-0.1,0.1,0,0C56.9,24.2,57.7,23.7,57.5,23.8C57.5,23.7,57.5,23.7,57.5,23.8 M37.1,24.4c-0.1,0.1-0.4,0.4-0.6,0.5
	c-0.4,0.3-0.4,0.3-0.4,0.3C36.3,25.2,36.9,24.6,37.1,24.4c0.1-0.1,0.2-0.1,0.2,0c0,0.1,0.1,0,0.1-0.1c0-0.1,0-0.2,0-0.2
	C37.4,24.1,37.3,24.2,37.1,24.4 M59.2,24.2c-0.1,0.1-0.1,0.1,0,0.1c0.1,0,0.1,0,0.1,0.7l0,0.8l0.9,0l0.9,0l-0.9,0l-0.9,0l0-0.9
	l0-0.9L59.2,24.2 M29.9,24.2c0,0,0.4,0.4,0.7,0.6c0.2,0.2,0.7,0.5,0.7,0.5c0,0-0.1-0.1-0.4-0.3c-0.2-0.2-0.6-0.4-0.7-0.6
	C30.1,24.3,29.9,24.2,29.9,24.2 M47.6,24.8C47.5,25,47.4,25,47.5,25C47.6,25,47.7,24.9,47.6,24.8c0.3-0.2,0.3-0.2,0.3,0.5
	c0,0.5,0,0.6,0.1,0.6c0.5,0,1.7,0,1.7,0c0.1,0,0-0.3,0-0.4c0,0,0,0,0,0c0,0.3,0.1,0.3-0.9,0.3H48v-0.6c0-0.5,0-0.6-0.1-0.6
	C47.9,24.6,47.8,24.7,47.6,24.8 M58.1,25.1c-0.3,0.2-0.3,0.2-0.2,0.2c0.1,0,0.1,0,0.1,0c0,0,0.5-0.4,0.5-0.3c0,0,0,0,0,0
	c0,0,0-0.1,0-0.1C58.5,24.9,58.3,25,58.1,25.1 M10,25.6c1.9,0,5,0,6.8,0c1.9,0,0.3,0-3.4,0S8.1,25.6,10,25.6 M33.4,25.9
	c0.1,0,0.4,0,0.5,0c0.1,0,0,0-0.3,0C33.3,25.8,33.2,25.9,33.4,25.9 M44.5,25.9c0.1,0,0.4,0,0.5,0c0.1,0,0,0-0.3,0
	C44.4,25.8,44.3,25.9,44.5,25.9 M55.3,25.9c0.2,0,0.4,0,0.6,0c0.1,0,0,0-0.3,0C55.3,25.8,55.2,25.9,55.3,25.9 M10.2,26.1
	c1.8,0,4.7,0,6.5,0c1.8,0,0.3,0-3.2,0S8.4,26.1,10.2,26.1"/>
<path class="st1" d="M6.1,1.6C4.1,2,2.4,3.5,1.7,5.5c-0.3,0.9-0.3,0.9-0.3,8.6c0,7.6,0,7.2,0.3,8.1c0.5,1.7,2.2,3.3,4,3.7
	c0.8,0.2,1.1,0.2,7.7,0.2c7,0,7.1,0,8-0.3c1.7-0.5,3.1-1.9,3.7-3.7c0.3-0.9,0.3-0.7,0.3-8.3c0-7.6,0-7.6-0.3-8.4
	c-0.3-0.8-0.9-1.8-1.4-2.3c-0.7-0.7-1.6-1.1-2.5-1.4l-0.5-0.2l-7.1,0C8,1.6,6.4,1.6,6.1,1.6 M71.4,1.8c-0.4,0.1-0.7,0.5-0.7,1l0,0.4
	l-0.2,0l-0.2,0l0,0.5l0,0.5l1.1,0l1.1,0V3.6V3.2h-0.4c-0.4,0-0.4,0-0.4-0.3l0-0.2h0.4h0.4V2.2V1.7l-0.4,0
	C71.8,1.7,71.5,1.8,71.4,1.8 M6,2.2C5.6,2.2,4.8,2.6,4.4,2.8C3.1,3.6,2.2,4.9,2,6.4C1.9,7.1,1.9,20.5,2,21.2c0.2,1.1,0.6,2,1.4,2.8
	c0.8,0.8,1.9,1.4,2.9,1.5c0.2,0,2.8,0.1,7,0.1c7.1,0,7.1,0,7.9-0.3c1.1-0.4,2.1-1.1,2.7-2.1c0.2-0.4,0.5-1,0.7-1.5l0.1-0.4l0-7.3
	c0-5.3,0-7.4,0-7.7c-0.3-1.8-1.5-3.3-3.2-4C20.6,2,21,2.1,13.4,2.1C7.6,2.1,6.3,2.1,6,2.2 M65.6,2.4C65.1,2.6,64.9,3,65,3.5
	c0.1,0.6,0.8,1,1.4,0.7c0.5-0.3,0.7-0.8,0.5-1.3c-0.1-0.3-0.3-0.4-0.5-0.5C66,2.3,65.9,2.3,65.6,2.4 M53.7,3.1v0.7h0.2h0.2v3.4v3.4
	h4h4l0.4-0.4l0.4-0.4l0.4,0.4l0.4,0.4h2.9h2.9l0-1.9c0-2.1,0-2.1-0.4-2.7c-0.5-0.7-1.2-1.1-2.1-1.1c-0.8,0-1.5,0.4-2.3,1.2
	c-0.3,0.3-0.5,0.5-0.5,0.5c0,0,0-0.3,0-0.7V5.2h-0.9h-0.9V7v1.8h-3.1H56V5.6V2.4h-1.1h-1.1V3.1 M70.6,5v0.5h0.3h0.3V8v2.5l0.6,0
	c0.4,0,0.6,0,0.6-0.1c0,0,0-1.4,0-3V4.6h-0.9h-0.9V5 M33.6,6.9v1.9h-1.1c-1.1,0-1.1,0-1.4-0.2c-0.2-0.1-0.3-0.2-0.5-0.5l-0.2-0.3
	V6.6V5.3l-0.2,0c-0.2,0-1,0.1-1.4,0.1l-0.2,0v1.3c0,1.5,0,1.7,0.3,2.3c0.2,0.4,0.8,1,1.2,1.2c0.6,0.3,0.7,0.3,3,0.3h2.1V8.7V6.8
	l0.5,0c0.6,0,0.9,0.1,1.1,0.5l0.2,0.2l0,1.5l0,1.5h7.4h7.4V9.2c0-1.6,0-1.9-0.3-2.5c-0.2-0.5-0.5-0.8-0.9-1.1
	c-0.6-0.4-0.9-0.5-1.9-0.5c-0.5,0-1,0-1.1,0l-0.2,0v1v1L47.6,7c0.1-0.1,0.3-0.1,0.9-0.1h0.8L49.6,7c0.4,0.3,0.5,0.5,0.5,1.2l0,0.6
	h-5.6H39V8.2c0-1.1-0.2-1.7-0.9-2.3c-0.8-0.7-1.1-0.8-3-0.8h-1.5V6.9 M66.3,6.8c-0.4,0.1-1,0.5-1.4,1c-0.4,0.4-0.8,0.9-0.8,1
	c0,0,0.8,0,1.7,0h1.7V7.9c0-0.9-0.1-1.1-0.3-1.2C67,6.6,66.6,6.7,66.3,6.8 M30.4,11.5c-0.9,0.6-0.4,2,0.7,1.8c0.2,0,0.6-0.4,0.7-0.6
	c0.1-0.2,0-0.7-0.1-0.9C31.4,11.3,30.8,11.2,30.4,11.5 M32.9,11.4c-0.2,0.1-0.5,0.5-0.6,0.6c-0.2,0.7,0.4,1.3,1.1,1.2
	c0.8-0.1,1.1-1.2,0.5-1.7c-0.2-0.1-0.3-0.2-0.5-0.2C33.2,11.3,33,11.4,32.9,11.4 M11.8,11.9c0.4,0.2,0.7,0.5,0.9,0.8
	c0.1,0.2,0.1,0.3,0.1,3.1v2.9l-0.2-0.2c-0.8-0.6-2.1-1.4-2.9-1.7C8.1,16.3,6,16.3,4.4,17c-0.3,0.1-0.5,0.2-0.5,0.3
	c0,0,0.2,0,0.5-0.1c1.8-0.5,3.6-0.2,5.5,0.7c0.9,0.4,2.1,1.2,2.8,1.9c0,0,0,0.1-0.2,0.2c-0.1,0.1-0.6,0.5-1.1,1
	c-0.9,0.8-1.7,1.4-1.9,1.5c-0.1,0-0.2,0-0.3-0.1c-0.2-0.2-0.5-0.2-0.7-0.1c-0.2,0.1-0.4,0.3-0.4,0.6c-0.1,0.5,0.4,0.9,1,0.8
	c0.6,0,1.3-0.5,3.1-2.2c0.7-0.6,1.2-1.1,1.2-1.1c0.1,0,0.3,0.1,1.2,1c1.5,1.4,2.1,1.9,2.7,2.2c0.5,0.2,1,0.1,1.3-0.3
	c0.2-0.3,0.1-0.8-0.2-1c-0.3-0.2-0.5-0.2-0.8,0c-0.1,0.1-0.2,0.1-0.3,0.1c-0.1,0-0.8-0.5-1.3-1c-0.9-0.8-1.9-1.7-1.9-1.7
	c0-0.1,0.8-0.7,1.5-1.1c0.7-0.5,1.8-1,2.4-1.2c1.4-0.5,2.9-0.5,4.3-0.2c0.3,0.1,0.5,0.1,0.5,0.1c0,0-0.7-0.4-1.2-0.5
	c-1.4-0.5-3.2-0.4-4.7,0.1c-0.8,0.3-1.8,0.9-2.7,1.6c-0.2,0.1-0.3,0.2-0.3,0.2c0,0,0-1.3,0-2.8l0-2.8l0.1-0.3
	c0.2-0.3,0.5-0.6,0.9-0.9l0.3-0.2l-0.2,0c-0.4,0.1-1,0.4-1.3,0.7l-0.3,0.3l-0.2-0.2c-0.4-0.4-0.6-0.6-1.1-0.7
	C11.6,11.7,11.5,11.7,11.8,11.9 M48,15.5c0,1.2,0,2.3,0,2.3c0,0-0.2-0.1-0.4-0.2c-0.4-0.4-1.1-0.7-1.6-0.8c-0.4-0.1-0.6-0.1-1.2-0.1
	c-0.7,0-0.9,0-1.3,0.2c-1.7,0.5-2.8,1.7-3.2,3.4c-0.5,1.9,0.5,4,2.3,5c1.2,0.7,2.7,0.8,4,0.2c0.4-0.2,1.1-0.6,1.2-0.8
	c0,0,0.1-0.1,0.1-0.1c0.1,0,0.1,0.1,0.1,0.6v0.6h0.9c0.8,0,0.9,0,0.9-0.1c0-0.2,0-12,0-12.2l0-0.2h-0.9H48V15.5 M62.1,19.5v6.3H63
	h0.9l0-2.5c0-3.3,0-3.9,0.2-4.4c0.2-0.4,0.7-0.9,1.1-1.1c0.3-0.2,0.4-0.2,1-0.2c0.6,0,0.7,0,1,0.2c0.5,0.2,0.8,0.6,1,1.1l0.2,0.4
	l0,3.3l0,3.3h0.7h0.7v-3.2c0-3,0-3.2-0.1-3.6c-0.3-1.2-1.2-2.2-2.4-2.6c-0.5-0.2-1.4-0.2-2-0.1c-0.4,0.1-1,0.4-1.3,0.5
	c-0.1,0.1-0.2,0.1-0.2,0.1c0,0,0-0.8,0-1.8l0-1.8l-0.9,0l-0.9,0V19.5 M71.2,13.8c-0.6,0.4-0.6,1.2,0.1,1.5c0.8,0.4,1.6-0.6,1.1-1.3
	C72,13.7,71.5,13.6,71.2,13.8 M37.5,15.9c-0.1,0-0.1,0.1-0.1,1v0.9L37,17.4c-0.9-0.9-2.1-1.3-3.3-1.3c-2.4,0-4.4,1.6-4.9,4.1
	c-0.2,1,0,2.1,0.5,3.1c0.7,1.3,2,2.3,3.4,2.6c0.6,0.1,1.6,0.1,2.1-0.1c0.8-0.2,1.5-0.6,2.2-1.2l0.4-0.4V25v0.9h0.9h0.9v-5v-5l-0.8,0
	C38,15.8,37.6,15.9,37.5,15.9 M59.5,15.9c-0.1,0-0.1,0.3-0.1,1c0,0.5,0,0.9,0,0.9s-0.2-0.2-0.4-0.3c-1-0.9-2.1-1.4-3.5-1.4
	c-1.4,0-2.6,0.5-3.5,1.5c-0.6,0.6-1,1.3-1.2,2.1c-0.2,0.6-0.2,1.7-0.1,2.3c0.2,0.9,0.6,1.7,1.2,2.4c1,1,2.2,1.6,3.6,1.6
	c1.3,0,2.5-0.5,3.4-1.4l0.4-0.4V25v0.9h0.9h0.9l0-5l0-5l-0.8,0C59.9,15.8,59.5,15.9,59.5,15.9 M70.7,20.8v5h0.9h0.9v-5
	c0-4.5,0-5-0.1-5c0,0-0.4,0-0.9,0h-0.8V20.8 M33,17.6c-1.3,0.3-2.4,1.3-2.7,2.6c-0.1,0.4-0.1,1.2,0,1.6c0.3,1.2,1.3,2.2,2.5,2.6
	c2.3,0.6,4.4-1.2,4.3-3.6c-0.1-1.5-1.2-2.8-2.6-3.1C34,17.5,33.3,17.5,33,17.6 M54.8,17.6c-0.8,0.2-1.3,0.5-1.8,1
	c-0.6,0.7-0.9,1.5-0.9,2.4c0,0.9,0.3,1.7,1,2.4c0.8,0.8,1.6,1.1,2.6,1c0.6,0,0.9-0.1,1.4-0.3c1-0.5,1.7-1.5,1.9-2.6
	c0.2-1.6-0.8-3.1-2.4-3.7C56.2,17.5,55.2,17.5,54.8,17.6 M44.1,18.1c-1,0.2-1.9,1-2.3,2c-0.2,0.6-0.3,1.1-0.1,1.8
	c0.4,1.7,2.1,2.8,3.8,2.5c0.7-0.1,1.5-0.6,1.9-1.2c0.7-0.9,0.8-2.2,0.3-3.3c-0.4-0.7-1.1-1.4-1.9-1.6C45.3,18.1,44.6,18,44.1,18.1"
	/>
</svg>
