<?xml version="1.0" encoding="utf-8"?>
<!-- Generator: Adobe Illustrator 24.1.2, SVG Export Plug-In . SVG Version: 6.00 Build 0)  -->
<svg version="1.1" id="Layer_1" xmlns="http://www.w3.org/2000/svg" xmlns:xlink="http://www.w3.org/1999/xlink" x="0px" y="0px"
	 viewBox="0 0 75 28" style="enable-background:new 0 0 75 28;" xml:space="preserve">
<style type="text/css">
	.st0{fill:#0047BA;}
	.st1{fill:url(#SVGID_1_);}
	.st2{fill:#939598;}
</style>
<g>
	<path class="st0" d="M71.4,3.5h-0.3c-0.1,0-0.1,0-0.1-0.1c0,0,0,0,0-0.1c0,0,0,0,0,0H72c0.1,0,0.1,0,0.1,0.1c0,0,0,0,0,0.1s0,0,0,0
		h-0.4v0.9h-0.2L71.4,3.5L71.4,3.5z"/>
	<path class="st0" d="M72.2,3.5c0-0.1,0-0.1,0-0.1c0,0,0.1,0,0.1,0c0,0,0.1,0,0.1,0c0,0,0,0.1,0.1,0.1L72.8,4l0.3-0.6
		c0,0,0-0.1,0.1-0.1c0,0,0,0,0.1,0s0.1,0,0.1,0c0,0,0,0.1,0,0.1l0,1h-0.2l0-0.8l-0.3,0.6h-0.2l-0.3-0.6l0,0.8h-0.2L72.2,3.5z"/>
</g>
<linearGradient id="SVGID_1_" gradientUnits="userSpaceOnUse" x1="2.0305" y1="20.1057" x2="70.1093" y2="20.1057" gradientTransform="matrix(1 0 0 -1 0 30)">
	<stop  offset="9.212095e-04" style="stop-color:#009FDF"/>
	<stop  offset="1" style="stop-color:#0047BA"/>
</linearGradient>
<path class="st1" d="M9.9,9.5c0.2,0.4,0.3,1,0.3,1.5v5.2H9v-4.8c0-1-0.2-1.7-0.7-2.3C7.8,8.6,7.1,8.3,6.1,8.3c-1,0-1.7,0.3-2.2,0.8
	s-0.7,1.3-0.7,2.3v4.8H2V11c0-0.5,0.1-1.1,0.3-1.5c0.2-0.5,0.5-0.8,0.8-1.2s0.8-0.6,1.3-0.8c0.5-0.2,1.1-0.3,1.7-0.3
	s1.2,0.1,1.7,0.3S8.7,8,9.1,8.4C9.4,8.7,9.7,9.1,9.9,9.5z M19.9,7.6c-0.2,0-0.4,0.1-0.5,0.2c-0.1,0.1-0.1,0.3-0.1,0.4v4.2
	c0,1-0.2,1.7-0.7,2.3c-0.5,0.5-1.2,0.8-2.2,0.8c-1,0-1.7-0.3-2.2-0.8c-0.5-0.5-0.7-1.3-0.7-2.3V7.7c0,0-0.1,0-0.2-0.1s-0.2,0-0.3,0
	c-0.2,0-0.4,0.1-0.5,0.2c-0.1,0.1-0.1,0.3-0.1,0.4v4.6c0,0.5,0.1,1.1,0.3,1.5s0.5,0.8,0.8,1.2c0.3,0.3,0.8,0.6,1.3,0.8
	c0.5,0.2,1.1,0.3,1.7,0.3c0.6,0,1.2-0.1,1.7-0.3c0.5-0.2,0.9-0.4,1.3-0.8c0.3-0.3,0.6-0.7,0.8-1.2c0.2-0.5,0.3-1,0.3-1.5V7.7
	c0,0-0.1,0-0.2-0.1C20.1,7.6,20,7.6,19.9,7.6z M29.4,12.2c-0.2-0.2-0.6-0.4-0.9-0.5s-0.9-0.3-1.4-0.3l-2-0.2c-0.6-0.1-1-0.2-1.4-0.4
	c-0.3-0.2-0.5-0.5-0.5-1c0-0.5,0.2-0.9,0.7-1.1c0.5-0.2,1.1-0.3,1.9-0.3c0.5,0,0.9,0,1.3,0.1c0.4,0.1,0.7,0.2,1,0.3s0.5,0.2,0.6,0.3
	c0.2,0.1,0.3,0.2,0.3,0.2c0.1-0.1,0.2-0.1,0.3-0.2c0.1-0.1,0.1-0.2,0.1-0.4c0-0.2-0.2-0.5-0.5-0.6c-0.3-0.1-0.7-0.3-1.2-0.4
	c-0.5-0.1-1.2-0.2-2-0.2c-0.7,0-1.3,0.1-1.8,0.2c-0.5,0.1-0.9,0.3-1.2,0.6c-0.3,0.2-0.5,0.5-0.6,0.8c-0.1,0.3-0.2,0.6-0.2,0.9
	c0,0.7,0.2,1.2,0.7,1.6s1.2,0.7,2.2,0.8l1.8,0.2c0.8,0.1,1.4,0.3,1.7,0.5c0.3,0.2,0.4,0.6,0.4,1c0,0.3-0.1,0.5-0.2,0.7
	s-0.3,0.3-0.6,0.5c-0.2,0.1-0.5,0.2-0.9,0.3c-0.3,0-0.7,0.1-1.1,0.1c-0.5,0-1,0-1.4-0.1c-0.4-0.1-0.8-0.2-1.1-0.3
	c-0.3-0.1-0.6-0.2-0.8-0.3c-0.2-0.1-0.3-0.2-0.4-0.2l-0.5,0.9c0,0,0.2,0.1,0.4,0.2c0.2,0.1,0.5,0.2,0.9,0.3c0.4,0.1,0.8,0.2,1.3,0.3
	c0.5,0.1,1,0.1,1.6,0.1c0.6,0,1.2-0.1,1.7-0.2c0.5-0.1,0.9-0.3,1.2-0.6c0.3-0.2,0.6-0.5,0.7-0.8c0.2-0.3,0.2-0.7,0.2-1.1
	c0-0.3,0-0.6-0.2-0.9C29.9,12.7,29.7,12.4,29.4,12.2z M39.4,10.9v5.2c-0.3,0.1-0.8,0.1-1.5,0.2c-0.6,0.1-1.4,0.1-2.2,0.1
	c-0.9,0-1.7-0.1-2.3-0.2c-0.6-0.2-1-0.4-1.3-0.6c-0.3-0.3-0.5-0.6-0.6-0.9c-0.1-0.3-0.2-0.7-0.2-1c0-0.4,0.1-0.8,0.2-1.1
	c0.1-0.3,0.3-0.6,0.7-0.9c0.3-0.2,0.7-0.4,1.2-0.6s1.2-0.2,2-0.2c0.3,0,0.5,0,0.8,0c0.3,0,0.5,0,0.8,0c0.2,0,0.5,0,0.7,0.1
	c0.2,0,0.4,0,0.5,0V11c0-0.5-0.1-1-0.3-1.3S37.6,9,37.3,8.8c-0.3-0.2-0.6-0.3-1-0.4c-0.4-0.1-0.8-0.1-1.2-0.1
	c-0.7,0-1.2,0.1-1.6,0.2c-0.4,0.2-0.7,0.3-0.8,0.5c-0.1-0.1-0.2-0.1-0.2-0.2c-0.1-0.1-0.1-0.2-0.1-0.3s0-0.2,0.1-0.3
	c0.1-0.1,0.1-0.2,0.2-0.2c0.1-0.1,0.4-0.2,0.8-0.3s0.9-0.2,1.6-0.2c1.4,0,2.5,0.3,3.2,0.9C39,8.7,39.4,9.7,39.4,10.9z M38.3,12.1
	c-0.1,0-0.4-0.1-0.8-0.1c-0.4-0.1-1.1-0.1-2-0.1c-0.4,0-0.8,0-1.2,0.1c-0.3,0.1-0.7,0.2-0.9,0.3c-0.2,0.1-0.4,0.3-0.6,0.6
	c-0.1,0.2-0.2,0.5-0.2,0.9c0,0.6,0.2,1.1,0.7,1.4c0.5,0.3,1.3,0.4,2.5,0.4c0.8,0,1.3,0,1.7-0.1c0.4-0.1,0.6-0.1,0.8-0.1L38.3,12.1
	L38.3,12.1z M48.6,8.4c-0.3-0.3-0.8-0.6-1.3-0.8c-0.5-0.2-1.1-0.3-1.7-0.3c-0.6,0-1.2,0.1-1.7,0.3S43,8,42.7,8.4
	c-0.3,0.3-0.6,0.7-0.8,1.2c-0.2,0.5-0.3,1-0.3,1.5v5.2h1.2v-4.8c0-1,0.2-1.7,0.7-2.3c0.5-0.5,1.2-0.8,2.2-0.8c1,0,1.7,0.3,2.2,0.8
	s0.7,1.3,0.7,2.3v4.8h1.2V11c0-0.5-0.1-1.1-0.3-1.5C49.2,9.1,49,8.7,48.6,8.4z M59.5,9c0.1,0.3,0.2,0.7,0.2,1.1
	c0,0.4-0.1,0.7-0.2,1.1c-0.2,0.3-0.4,0.6-0.8,0.8c-0.4,0.2-0.9,0.4-1.5,0.6c-0.6,0.1-1.4,0.2-2.4,0.2c-0.4,0-0.7,0-1,0
	c-0.3,0-0.6,0-1,0c0.1,0.9,0.5,1.6,1.1,2.1c0.6,0.5,1.4,0.7,2.4,0.7c0.6,0,1.1-0.1,1.5-0.3c0.4-0.2,0.7-0.3,1-0.4l0.5,0.8
	c-0.1,0.1-0.2,0.1-0.4,0.2c-0.2,0.1-0.4,0.2-0.7,0.3c-0.3,0.1-0.6,0.2-0.9,0.2c-0.3,0.1-0.7,0.1-1.1,0.1c-0.6,0-1.2-0.1-1.8-0.3
	c-0.6-0.2-1.1-0.5-1.5-0.9c-0.4-0.4-0.8-0.8-1-1.4c-0.2-0.5-0.4-1.2-0.4-1.9c0-0.7,0.1-1.3,0.3-1.9c0.2-0.6,0.6-1.1,1-1.5
	c0.4-0.4,0.9-0.7,1.5-1c0.6-0.2,1.2-0.3,1.9-0.3c0.6,0,1.1,0.1,1.5,0.2c0.4,0.1,0.8,0.3,1.1,0.6C59.1,8.3,59.3,8.6,59.5,9z M58.5,10
	c0-0.3-0.1-0.6-0.2-0.8c-0.1-0.2-0.3-0.4-0.5-0.5c-0.2-0.1-0.5-0.2-0.8-0.3c-0.3-0.1-0.6-0.1-0.9-0.1c-0.5,0-1,0.1-1.4,0.3
	c-0.4,0.2-0.8,0.5-1.1,0.8c-0.3,0.3-0.5,0.7-0.7,1.1c-0.2,0.4-0.2,0.9-0.3,1.3c0.3,0,0.6,0,0.9,0c0.3,0,0.6,0,0.9,0
	c0.8,0,1.4,0,2-0.1c0.5-0.1,0.9-0.2,1.2-0.4c0.3-0.2,0.5-0.4,0.6-0.6C58.5,10.4,58.5,10.2,58.5,10z M70.1,3.4v8c0,0.3,0,0.5,0,0.7
	c0,0.2,0,0.4-0.1,0.6c-0.1,0.6-0.3,1.1-0.5,1.5s-0.6,0.8-1,1.2c-0.4,0.3-0.8,0.6-1.3,0.7s-1,0.3-1.6,0.3c-0.7,0-1.3-0.1-1.9-0.4
	c-0.6-0.2-1.1-0.6-1.5-1c-0.4-0.4-0.7-0.9-1-1.4c-0.2-0.6-0.3-1.1-0.3-1.8c0-0.6,0.1-1.2,0.3-1.8c0.2-0.6,0.5-1,1-1.4
	c0.4-0.4,0.9-0.7,1.5-1s1.2-0.3,1.9-0.3c0.8,0,1.4,0.1,2,0.5c0.6,0.3,1,0.7,1.4,1.2V3.9c0-0.2,0-0.3,0.1-0.4s0.3-0.2,0.5-0.2
	c0.1,0,0.2,0,0.3,0C70,3.4,70.1,3.4,70.1,3.4z M68.9,11.9c0-0.5-0.1-1-0.3-1.4c-0.2-0.4-0.4-0.8-0.7-1.2c-0.3-0.3-0.7-0.6-1.1-0.8
	c-0.4-0.2-0.9-0.3-1.4-0.3c-0.5,0-1,0.1-1.4,0.3c-0.4,0.2-0.8,0.4-1.1,0.8c-0.3,0.3-0.5,0.7-0.7,1.1c-0.2,0.4-0.2,0.9-0.2,1.4
	c0,0.5,0.1,1,0.2,1.4c0.2,0.4,0.4,0.8,0.7,1.1c0.3,0.3,0.7,0.6,1.1,0.8c0.4,0.2,0.9,0.3,1.4,0.3c0.5,0,1-0.1,1.4-0.3
	c0.4-0.2,0.8-0.4,1.1-0.7c0.3-0.3,0.5-0.7,0.7-1.1C68.9,12.9,68.9,12.4,68.9,11.9z"/>
<g>
	<path class="st2" d="M3.1,20.6c0.1-0.2,0.2-0.3,0.2-0.4c0.1-0.1,0.2-0.1,0.3-0.1c0.1,0,0.2,0,0.3,0.1c0.1,0.1,0.2,0.2,0.2,0.4
		l1.4,3.3H4.8l-0.4-1H2.7l-0.4,1H1.7L3.1,20.6z M4.2,22.3l-0.6-1.6L3,22.3H4.2z"/>
	<path class="st2" d="M7.4,23c0,0,0.1,0.1,0.2,0.1c0.1,0,0.2,0.1,0.3,0.1c0.1,0,0.2,0.1,0.4,0.1c0.1,0,0.3,0,0.5,0
		c0.3,0,0.5,0,0.7-0.1c0.1-0.1,0.2-0.2,0.2-0.4c0-0.1,0-0.1,0-0.2c0-0.1-0.1-0.1-0.1-0.1c-0.1,0-0.1-0.1-0.2-0.1
		c-0.1,0-0.2,0-0.3-0.1l-0.6-0.1c-0.1,0-0.3-0.1-0.4-0.1c-0.1,0-0.3-0.1-0.4-0.2c-0.1-0.1-0.2-0.2-0.3-0.3c-0.1-0.1-0.1-0.3-0.1-0.4
		c0-0.1,0-0.3,0.1-0.4c0.1-0.1,0.1-0.3,0.3-0.4c0.1-0.1,0.3-0.2,0.5-0.2c0.2-0.1,0.4-0.1,0.7-0.1c0.2,0,0.4,0,0.5,0
		c0.1,0,0.3,0,0.4,0.1s0.2,0.1,0.2,0.1c0.1,0,0.1,0.1,0.1,0.1c0.1,0,0.1,0.1,0.1,0.1c0,0,0,0.1,0,0.2c0,0.1,0,0.2-0.1,0.2
		S9.9,21,9.9,21c0,0-0.1-0.1-0.1-0.1c-0.1,0-0.2-0.1-0.3-0.1c-0.1,0-0.2-0.1-0.4-0.1s-0.3,0-0.4,0s-0.3,0-0.4,0
		c-0.1,0-0.2,0.1-0.3,0.1c-0.1,0-0.1,0.1-0.1,0.2c0,0.1,0,0.1,0,0.2c0,0.1,0,0.2,0.2,0.3c0.1,0.1,0.3,0.1,0.5,0.2l0.6,0.1
		c0.4,0.1,0.7,0.2,0.9,0.3c0.2,0.2,0.3,0.4,0.3,0.7c0,0.2,0,0.3-0.1,0.5s-0.2,0.3-0.3,0.4s-0.3,0.2-0.5,0.2C9.2,23.9,9,24,8.7,24
		c-0.2,0-0.4,0-0.6,0c-0.2,0-0.3-0.1-0.5-0.1c-0.1,0-0.3-0.1-0.3-0.1c-0.1,0-0.2-0.1-0.2-0.1L7.4,23z"/>
	<path class="st2" d="M12,20.6c0.1-0.2,0.2-0.3,0.2-0.4c0.1-0.1,0.2-0.1,0.3-0.1c0.1,0,0.2,0,0.3,0.1c0.1,0.1,0.2,0.2,0.2,0.4
		l1.4,3.3h-0.7l-0.4-1h-1.7l-0.4,1h-0.7L12,20.6z M13.1,22.3l-0.6-1.6l-0.6,1.6H13.1z"/>
	<path class="st2" d="M15.8,23.9c-0.2,0-0.4,0-0.5,0c-0.1,0-0.2-0.1-0.3-0.1c-0.1-0.1-0.1-0.2-0.1-0.3c0-0.1,0-0.3,0-0.5v-2.2
		c0-0.1,0-0.2,0-0.3c0-0.1,0-0.1,0.1-0.2c0,0,0.1-0.1,0.2-0.1c0.1,0,0.2,0,0.3,0h0.9c0.3,0,0.5,0,0.7,0.1c0.2,0.1,0.3,0.1,0.4,0.2
		c0.1,0.1,0.2,0.2,0.2,0.3c0,0.1,0.1,0.2,0.1,0.4c0,0.2,0,0.3-0.1,0.4s-0.2,0.2-0.4,0.3c0.2,0,0.3,0.1,0.5,0.3
		c0.1,0.1,0.2,0.3,0.2,0.6c0,0.2,0,0.3-0.1,0.4c0,0.1-0.1,0.2-0.3,0.3c-0.1,0.1-0.3,0.2-0.5,0.2c-0.2,0-0.4,0.1-0.7,0.1L15.8,23.9
		L15.8,23.9z M16.5,21.7c0.1,0,0.2,0,0.3,0c0.1,0,0.2-0.1,0.2-0.1c0.1,0,0.1-0.1,0.1-0.2s0-0.1,0-0.2c0-0.1-0.1-0.3-0.2-0.4
		s-0.3-0.1-0.6-0.1h-0.9v1L16.5,21.7L16.5,21.7z M16.4,23.3c0.3,0,0.5,0,0.6-0.1c0.1-0.1,0.2-0.2,0.2-0.4c0-0.2-0.1-0.3-0.2-0.4
		c-0.1-0.1-0.3-0.1-0.6-0.1h-1V23c0,0.1,0,0.2,0.1,0.2c0,0,0.1,0,0.3,0L16.4,23.3L16.4,23.3z"/>
	<path class="st2" d="M18.6,20.5c0-0.1,0-0.2,0.1-0.2c0.1,0,0.1-0.1,0.2-0.1c0.1,0,0.1,0,0.2,0c0.1,0,0.1,0,0.1,0v3.6h-0.6V20.5z"/>
	<path class="st2" d="M21.8,24c-0.3,0-0.5,0-0.7-0.1c-0.2-0.1-0.4-0.2-0.6-0.4c-0.2-0.2-0.3-0.4-0.4-0.6c-0.1-0.2-0.2-0.5-0.2-0.8
		s0-0.6,0.1-0.8c0.1-0.2,0.2-0.4,0.4-0.6s0.4-0.3,0.6-0.4c0.2-0.1,0.5-0.1,0.8-0.1c0.3,0,0.5,0,0.6,0.1s0.3,0.1,0.4,0.2
		c0.1,0.1,0.2,0.1,0.2,0.2c0,0.1,0.1,0.1,0.1,0.2c0,0,0,0.1,0,0.1s0,0.1-0.1,0.1c0,0,0,0.1-0.1,0.1c0,0,0,0-0.1,0
		c0,0-0.1-0.1-0.1-0.1c-0.1,0-0.1-0.1-0.2-0.1c-0.1,0-0.2-0.1-0.3-0.1c-0.1,0-0.2,0-0.3,0c-0.2,0-0.3,0-0.5,0.1
		c-0.2,0.1-0.3,0.1-0.4,0.3c-0.1,0.1-0.2,0.3-0.3,0.4c-0.1,0.2-0.1,0.4-0.1,0.6s0,0.4,0.1,0.6c0.1,0.2,0.2,0.3,0.3,0.4
		c0.1,0.1,0.3,0.2,0.4,0.3c0.2,0.1,0.3,0.1,0.5,0.1c0.2,0,0.4,0,0.6-0.1c0.2-0.1,0.3-0.1,0.4-0.2l0.3,0.5c0,0-0.1,0.1-0.2,0.1
		c-0.1,0-0.2,0.1-0.3,0.1c-0.1,0-0.2,0.1-0.4,0.1C22.1,23.9,22,24,21.8,24z"/>
	<path class="st2" d="M24.7,20.2c0-0.1,0-0.2,0.1-0.2c0.1,0,0.1-0.1,0.2-0.1c0.1,0,0.1,0,0.2,0c0,0,0.1,0,0.1,0v1.5
		c0.1-0.1,0.2-0.2,0.4-0.3c0.2-0.1,0.3-0.1,0.5-0.1s0.4,0,0.5,0.1c0.2,0.1,0.3,0.2,0.4,0.3c0.1,0.1,0.2,0.3,0.3,0.4
		c0.1,0.2,0.1,0.4,0.1,0.6s0,0.4-0.1,0.6c-0.1,0.2-0.2,0.3-0.3,0.4c-0.1,0.1-0.3,0.2-0.5,0.3c-0.2,0.1-0.4,0.1-0.6,0.1
		s-0.4,0-0.6-0.1c-0.2-0.1-0.3-0.2-0.5-0.3s-0.2-0.3-0.3-0.5c-0.1-0.2-0.1-0.4-0.1-0.7L24.7,20.2L24.7,20.2z M26.2,23.4
		c0.1,0,0.2,0,0.3-0.1c0.1,0,0.2-0.1,0.3-0.2c0.1-0.1,0.1-0.2,0.2-0.3c0-0.1,0.1-0.2,0.1-0.3s0-0.2-0.1-0.3c0-0.1-0.1-0.2-0.2-0.3
		c-0.1-0.1-0.2-0.1-0.3-0.2c-0.1,0-0.2-0.1-0.3-0.1s-0.2,0-0.3,0.1c-0.1,0-0.2,0.1-0.3,0.2c-0.1,0.1-0.1,0.2-0.2,0.3
		c0,0.1-0.1,0.2-0.1,0.3c0,0.1,0,0.2,0.1,0.4c0,0.1,0.1,0.2,0.2,0.3c0.1,0.1,0.2,0.1,0.3,0.2C25.9,23.4,26,23.4,26.2,23.4z"/>
	<path class="st2" d="M28.1,21.5c0-0.1,0-0.2,0.1-0.2c0.1,0,0.1-0.1,0.2-0.1c0.1,0,0.1,0,0.2,0c0,0,0.1,0,0.1,0v1.4
		c0,0.2,0.1,0.4,0.2,0.6c0.1,0.1,0.3,0.2,0.5,0.2s0.4-0.1,0.5-0.2c0.1-0.1,0.2-0.3,0.2-0.6v-1.2c0-0.1,0-0.2,0.1-0.2
		c0.1,0,0.1-0.1,0.2-0.1c0.1,0,0.1,0,0.2,0c0,0,0.1,0,0.1,0v1.5c0,0.2,0,0.3-0.1,0.5c-0.1,0.1-0.1,0.3-0.3,0.4s-0.3,0.2-0.4,0.2
		c-0.2,0-0.3,0.1-0.5,0.1s-0.4,0-0.5-0.1c-0.2,0-0.3-0.1-0.4-0.2c-0.1-0.1-0.2-0.2-0.3-0.4c-0.1-0.1-0.1-0.3-0.1-0.5L28.1,21.5
		L28.1,21.5z"/>
	<path class="st2" d="M31.4,23.2c0,0,0.1,0,0.1,0.1c0.1,0,0.1,0.1,0.2,0.1s0.2,0.1,0.3,0.1c0.1,0,0.3,0,0.4,0c0.2,0,0.3,0,0.5-0.1
		c0.1,0,0.2-0.1,0.2-0.2c0-0.1,0-0.2-0.1-0.2c-0.1,0-0.2-0.1-0.4-0.1l-0.4,0c-0.1,0-0.3,0-0.4-0.1s-0.2-0.1-0.3-0.1
		s-0.1-0.1-0.2-0.2c0-0.1-0.1-0.2-0.1-0.3c0-0.1,0-0.2,0.1-0.3c0-0.1,0.1-0.2,0.2-0.3c0.1-0.1,0.2-0.1,0.4-0.2
		c0.2,0,0.3-0.1,0.6-0.1c0.4,0,0.7,0,0.9,0.1c0.2,0.1,0.3,0.2,0.3,0.3c0,0,0,0.1,0,0.1c0,0,0,0.1,0,0.1s0,0-0.1,0.1c0,0,0,0,0,0
		c0,0,0,0-0.1-0.1c0,0-0.1-0.1-0.2-0.1c-0.1,0-0.2-0.1-0.3-0.1c-0.1,0-0.2,0-0.4,0c-0.4,0-0.6,0.1-0.6,0.3c0,0.1,0,0.2,0.1,0.2
		c0.1,0,0.2,0.1,0.3,0.1l0.5,0.1c0.3,0,0.5,0.1,0.7,0.2c0.2,0.1,0.2,0.3,0.2,0.5c0,0.3-0.1,0.5-0.3,0.6c-0.2,0.2-0.5,0.2-0.9,0.2
		c-0.2,0-0.4,0-0.5,0c-0.2,0-0.3-0.1-0.4-0.1c-0.1,0-0.2-0.1-0.3-0.1c-0.1,0-0.1-0.1-0.1-0.1L31.4,23.2z"/>
	<path class="st2" d="M34.6,20c0.1,0,0.2,0,0.3,0.1c0.1,0.1,0.1,0.2,0.1,0.3s0,0.2-0.1,0.3c-0.1,0.1-0.2,0.1-0.3,0.1
		c-0.1,0-0.2,0-0.3-0.1s-0.1-0.2-0.1-0.3s0-0.2,0.1-0.3C34.4,20,34.5,20,34.6,20z M34.3,21.5c0-0.1,0-0.2,0.1-0.2
		c0.1,0,0.1-0.1,0.2-0.1c0.1,0,0.1,0,0.2,0c0,0,0.1,0,0.1,0v2.6h-0.6L34.3,21.5L34.3,21.5z"/>
	<path class="st2" d="M35.6,22.2c0-0.2,0-0.3,0.1-0.5s0.2-0.3,0.3-0.4c0.1-0.1,0.3-0.2,0.4-0.2c0.2,0,0.3-0.1,0.5-0.1
		c0.2,0,0.4,0,0.5,0.1c0.2,0,0.3,0.1,0.4,0.2c0.1,0.1,0.2,0.2,0.3,0.4c0.1,0.1,0.1,0.3,0.1,0.5v1.6h-0.6v-1.5c0-0.2-0.1-0.4-0.2-0.6
		s-0.3-0.2-0.5-0.2s-0.4,0.1-0.5,0.2c-0.1,0.1-0.2,0.3-0.2,0.6v1.5h-0.6V22.2L35.6,22.2z"/>
	<path class="st2" d="M41.2,23.7c0,0-0.1,0-0.1,0.1c-0.1,0-0.1,0.1-0.2,0.1c-0.1,0-0.2,0-0.3,0.1c-0.1,0-0.2,0-0.4,0
		c-0.2,0-0.4,0-0.6-0.1c-0.2-0.1-0.3-0.1-0.5-0.3c-0.1-0.1-0.2-0.3-0.3-0.4c-0.1-0.2-0.1-0.4-0.1-0.6c0-0.2,0-0.4,0.1-0.6
		s0.2-0.3,0.3-0.5c0.1-0.1,0.3-0.2,0.5-0.3c0.2-0.1,0.4-0.1,0.6-0.1c0.2,0,0.3,0,0.5,0.1c0.1,0,0.3,0.1,0.4,0.2
		c0.1,0.1,0.2,0.2,0.2,0.3c0,0.1,0.1,0.2,0.1,0.3c0,0.1,0,0.2-0.1,0.3s-0.1,0.2-0.2,0.3c-0.1,0.1-0.3,0.1-0.5,0.2s-0.5,0.1-0.8,0.1
		c-0.1,0-0.1,0-0.2,0c-0.1,0-0.1,0-0.2,0c0,0.2,0.1,0.3,0.3,0.4c0.1,0.1,0.4,0.2,0.6,0.2c0.1,0,0.2,0,0.3,0c0.1,0,0.1,0,0.2,0
		c0.1,0,0.1,0,0.2-0.1s0.1,0,0.1,0L41.2,23.7z M39.3,22.4c0.1,0,0.2,0,0.2,0c0.1,0,0.1,0,0.2,0c0.2,0,0.4,0,0.5,0
		c0.1,0,0.2-0.1,0.3-0.1c0.1,0,0.1-0.1,0.1-0.1c0,0,0-0.1,0-0.2c0-0.1,0-0.2-0.2-0.3s-0.2-0.1-0.4-0.1c-0.1,0-0.2,0-0.3,0.1
		c-0.1,0-0.2,0.1-0.2,0.2c-0.1,0.1-0.1,0.2-0.2,0.3C39.3,22.2,39.3,22.3,39.3,22.4z"/>
	<path class="st2" d="M41.8,23.2c0,0,0.1,0,0.1,0.1c0.1,0,0.1,0.1,0.2,0.1c0.1,0,0.2,0.1,0.3,0.1c0.1,0,0.3,0,0.4,0
		c0.2,0,0.3,0,0.5-0.1c0.1,0,0.2-0.1,0.2-0.2c0-0.1,0-0.2-0.1-0.2c-0.1,0-0.2-0.1-0.4-0.1l-0.4,0c-0.1,0-0.3,0-0.4-0.1
		s-0.2-0.1-0.3-0.1s-0.1-0.1-0.2-0.2s-0.1-0.2-0.1-0.3c0-0.1,0-0.2,0.1-0.3c0-0.1,0.1-0.2,0.2-0.3c0.1-0.1,0.2-0.1,0.4-0.2
		c0.2,0,0.3-0.1,0.6-0.1c0.4,0,0.7,0,0.9,0.1c0.2,0.1,0.3,0.2,0.3,0.3c0,0,0,0.1,0,0.1c0,0,0,0.1,0,0.1s0,0-0.1,0.1c0,0,0,0,0,0
		c0,0,0,0-0.1-0.1c0,0-0.1-0.1-0.2-0.1c-0.1,0-0.2-0.1-0.3-0.1c-0.1,0-0.2,0-0.4,0c-0.4,0-0.6,0.1-0.6,0.3c0,0.1,0,0.2,0.1,0.2
		c0.1,0,0.2,0.1,0.3,0.1l0.5,0.1c0.3,0,0.5,0.1,0.7,0.2c0.2,0.1,0.2,0.3,0.2,0.5c0,0.3-0.1,0.5-0.3,0.6c-0.2,0.2-0.5,0.2-0.9,0.2
		c-0.2,0-0.4,0-0.5,0c-0.2,0-0.3-0.1-0.4-0.1c-0.1,0-0.2-0.1-0.3-0.1c-0.1,0-0.1-0.1-0.1-0.1L41.8,23.2z"/>
	<path class="st2" d="M44.8,23.2c0,0,0.1,0,0.1,0.1c0.1,0,0.1,0.1,0.2,0.1c0.1,0,0.2,0.1,0.3,0.1c0.1,0,0.3,0,0.4,0
		c0.2,0,0.3,0,0.5-0.1c0.1,0,0.2-0.1,0.2-0.2c0-0.1,0-0.2-0.1-0.2c-0.1,0-0.2-0.1-0.4-0.1l-0.4,0c-0.1,0-0.3,0-0.4-0.1
		c-0.1,0-0.2-0.1-0.3-0.1c-0.1-0.1-0.1-0.1-0.2-0.2c0-0.1-0.1-0.2-0.1-0.3c0-0.1,0-0.2,0.1-0.3c0-0.1,0.1-0.2,0.2-0.3
		c0.1-0.1,0.2-0.1,0.4-0.2c0.2,0,0.3-0.1,0.6-0.1c0.4,0,0.7,0,0.9,0.1c0.2,0.1,0.3,0.2,0.3,0.3c0,0,0,0.1,0,0.1c0,0,0,0.1,0,0.1
		c0,0,0,0-0.1,0.1c0,0,0,0,0,0c0,0,0,0-0.1-0.1c0,0-0.1-0.1-0.2-0.1c-0.1,0-0.2-0.1-0.3-0.1s-0.2,0-0.4,0c-0.4,0-0.6,0.1-0.6,0.3
		c0,0.1,0,0.2,0.1,0.2c0.1,0,0.2,0.1,0.3,0.1l0.5,0.1c0.3,0,0.5,0.1,0.7,0.2c0.2,0.1,0.2,0.3,0.2,0.5c0,0.3-0.1,0.5-0.3,0.6
		c-0.2,0.2-0.5,0.2-0.9,0.2c-0.2,0-0.4,0-0.5,0c-0.2,0-0.3-0.1-0.4-0.1c-0.1,0-0.2-0.1-0.3-0.1c-0.1,0-0.1-0.1-0.1-0.1L44.8,23.2z"
		/>
	<path class="st2" d="M49.3,20c0.1,0,0.2,0,0.3,0.1c0.1,0.1,0.1,0.2,0.1,0.3s0,0.2-0.1,0.3c-0.1,0.1-0.2,0.1-0.3,0.1
		c-0.1,0-0.2,0-0.3-0.1s-0.1-0.2-0.1-0.3s0-0.2,0.1-0.3C49.1,20,49.2,20,49.3,20z M49,21.5c0-0.1,0-0.2,0.1-0.2
		c0.1,0,0.1-0.1,0.2-0.1c0.1,0,0.1,0,0.2,0c0,0,0.1,0,0.1,0v2.6H49L49,21.5L49,21.5z"/>
	<path class="st2" d="M50.2,22.2c0-0.2,0-0.3,0.1-0.5s0.2-0.3,0.3-0.4c0.1-0.1,0.3-0.2,0.4-0.2c0.2,0,0.3-0.1,0.5-0.1
		c0.2,0,0.4,0,0.5,0.1c0.2,0,0.3,0.1,0.4,0.2c0.1,0.1,0.2,0.2,0.3,0.4c0.1,0.1,0.1,0.3,0.1,0.5v1.6h-0.6v-1.5c0-0.2-0.1-0.4-0.2-0.6
		s-0.3-0.2-0.5-0.2s-0.4,0.1-0.5,0.2c-0.1,0.1-0.2,0.3-0.2,0.6v1.5h-0.6V22.2z"/>
	<path class="st2" d="M53.8,20c0.1,0,0.2,0,0.3,0.1c0.1,0.1,0.1,0.2,0.1,0.3s0,0.2-0.1,0.3c-0.1,0.1-0.2,0.1-0.3,0.1
		c-0.1,0-0.2,0-0.3-0.1c-0.1-0.1-0.1-0.2-0.1-0.3s0-0.2,0.1-0.3C53.6,20,53.7,20,53.8,20z M53.5,21.5c0-0.1,0-0.2,0.1-0.2
		c0.1,0,0.1-0.1,0.2-0.1c0.1,0,0.1,0,0.2,0c0,0,0.1,0,0.1,0v2.6h-0.6L53.5,21.5L53.5,21.5z"/>
	<path class="st2" d="M55.7,23.9c-0.3,0-0.6-0.1-0.7-0.2c-0.2-0.2-0.2-0.4-0.2-0.6v-2.3c0-0.1,0-0.2,0.1-0.2c0.1,0,0.1-0.1,0.2-0.1
		c0.1,0,0.1,0,0.2,0c0.1,0,0.1,0,0.1,0v0.7h0.8c0.1,0,0.2,0,0.2,0.1c0,0,0.1,0.1,0.1,0.2c0,0.1,0,0.1,0,0.2c0,0,0,0.1,0,0.1h-1v1.2
		c0,0.1,0,0.2,0,0.2c0,0.1,0.1,0.1,0.1,0.1c0,0,0.1,0.1,0.2,0.1c0.1,0,0.1,0,0.2,0c0.1,0,0.2,0,0.3,0c0.1,0,0.1-0.1,0.2-0.1l0.2,0.4
		c0,0-0.1,0-0.1,0.1c0,0-0.1,0.1-0.2,0.1c-0.1,0-0.2,0-0.2,0.1C55.9,23.9,55.8,23.9,55.7,23.9z"/>
	<path class="st2" d="M57.2,20c0.1,0,0.2,0,0.3,0.1c0.1,0.1,0.1,0.2,0.1,0.3s0,0.2-0.1,0.3c-0.1,0.1-0.2,0.1-0.3,0.1
		c-0.1,0-0.2,0-0.3-0.1c-0.1-0.1-0.1-0.2-0.1-0.3s0-0.2,0.1-0.3C57.1,20,57.1,20,57.2,20z M56.9,21.5c0-0.1,0-0.2,0.1-0.2
		c0.1,0,0.1-0.1,0.2-0.1c0.1,0,0.1,0,0.2,0c0,0,0.1,0,0.1,0v2.6H57L56.9,21.5L56.9,21.5z"/>
	<path class="st2" d="M60.6,23.9c0,0-0.1,0-0.2,0c-0.1,0-0.2,0-0.3,0c-0.1,0-0.2,0-0.3,0c-0.1,0-0.3,0-0.4,0c-0.3,0-0.5,0-0.7-0.1
		c-0.2,0-0.3-0.1-0.4-0.2c-0.1-0.1-0.2-0.2-0.2-0.3c0-0.1-0.1-0.2-0.1-0.3c0-0.1,0-0.3,0.1-0.4c0-0.1,0.1-0.2,0.2-0.3
		c0.1-0.1,0.2-0.1,0.4-0.2c0.2,0,0.4-0.1,0.6-0.1c0.1,0,0.3,0,0.4,0c0.1,0,0.2,0,0.3,0c0-0.1,0-0.2-0.1-0.3c0-0.1-0.1-0.1-0.2-0.2
		c-0.1,0-0.2-0.1-0.3-0.1c-0.1,0-0.2,0-0.3,0c-0.2,0-0.4,0-0.5,0.1c-0.1,0-0.2,0.1-0.2,0.1c0,0,0,0-0.1-0.1c0,0-0.1-0.1-0.1-0.2
		c0,0,0-0.1,0-0.1c0,0,0.1-0.1,0.1-0.1c0.1,0,0.2-0.1,0.3-0.1c0.1,0,0.3,0,0.4,0c0.2,0,0.4,0,0.6,0.1c0.2,0,0.3,0.1,0.4,0.2
		c0.1,0.1,0.2,0.2,0.3,0.4c0.1,0.1,0.1,0.3,0.1,0.5L60.6,23.9L60.6,23.9z M60,22.7c0,0-0.1,0-0.2,0c-0.1,0-0.2,0-0.4,0
		c-0.2,0-0.4,0-0.5,0.1c-0.1,0.1-0.2,0.2-0.2,0.3c0,0.1,0,0.1,0,0.2c0,0,0.1,0.1,0.1,0.1c0.1,0,0.1,0.1,0.2,0.1c0.1,0,0.2,0,0.4,0
		c0.2,0,0.3,0,0.4,0c0.1,0,0.2,0,0.2,0L60,22.7L60,22.7z"/>
	<path class="st2" d="M62.2,23.9c-0.3,0-0.6-0.1-0.7-0.2c-0.2-0.2-0.2-0.4-0.2-0.6v-2.3c0-0.1,0-0.2,0.1-0.2c0.1,0,0.1-0.1,0.2-0.1
		c0.1,0,0.1,0,0.2,0c0.1,0,0.1,0,0.1,0v0.7h0.8c0.1,0,0.2,0,0.2,0.1c0,0,0.1,0.1,0.1,0.2c0,0.1,0,0.1,0,0.2c0,0,0,0.1,0,0.1h-1v1.2
		c0,0.1,0,0.2,0,0.2c0,0.1,0.1,0.1,0.1,0.1c0,0,0.1,0.1,0.2,0.1c0.1,0,0.1,0,0.2,0c0.1,0,0.2,0,0.3,0c0.1,0,0.1-0.1,0.2-0.1l0.2,0.4
		c0,0-0.1,0-0.1,0.1c0,0-0.1,0.1-0.2,0.1c-0.1,0-0.2,0-0.2,0.1C62.4,23.9,62.3,23.9,62.2,23.9z"/>
	<path class="st2" d="M63.7,20c0.1,0,0.2,0,0.3,0.1c0.1,0.1,0.1,0.2,0.1,0.3s0,0.2-0.1,0.3c-0.1,0.1-0.2,0.1-0.3,0.1
		c-0.1,0-0.2,0-0.3-0.1c-0.1-0.1-0.1-0.2-0.1-0.3s0-0.2,0.1-0.3C63.5,20,63.6,20,63.7,20z M63.4,21.5c0-0.1,0-0.2,0.1-0.2
		c0.1,0,0.1-0.1,0.2-0.1c0.1,0,0.1,0,0.2,0c0,0,0.1,0,0.1,0v2.6h-0.6L63.4,21.5L63.4,21.5z"/>
	<path class="st2" d="M64.6,21.9c0-0.1-0.1-0.2-0.1-0.3c0-0.1,0-0.2,0-0.2c0-0.1,0-0.1,0.1-0.2c0,0,0.1-0.1,0.2-0.1
		c0.1,0,0.2,0,0.2,0l0.9,2l0.7-1.7c0-0.1,0.1-0.2,0.2-0.3c0.1-0.1,0.1-0.1,0.2-0.1c0.1,0,0.1,0,0.2,0c0.1,0,0.1,0,0.1,0.1l-1.2,2.6
		h-0.6L64.6,21.9z"/>
	<path class="st2" d="M70,23.7c0,0-0.1,0-0.1,0.1c-0.1,0-0.1,0.1-0.2,0.1c-0.1,0-0.2,0-0.3,0.1c-0.1,0-0.2,0-0.4,0
		c-0.2,0-0.4,0-0.6-0.1c-0.2-0.1-0.3-0.1-0.5-0.3s-0.2-0.3-0.3-0.4c-0.1-0.2-0.1-0.4-0.1-0.6c0-0.2,0-0.4,0.1-0.6
		c0.1-0.2,0.2-0.3,0.3-0.5c0.1-0.1,0.3-0.2,0.5-0.3c0.2-0.1,0.4-0.1,0.6-0.1c0.2,0,0.3,0,0.5,0.1c0.1,0,0.3,0.1,0.4,0.2
		c0.1,0.1,0.2,0.2,0.2,0.3c0,0.1,0.1,0.2,0.1,0.3c0,0.1,0,0.2-0.1,0.3c0,0.1-0.1,0.2-0.2,0.3c-0.1,0.1-0.3,0.1-0.5,0.2
		c-0.2,0-0.5,0.1-0.8,0.1c-0.1,0-0.1,0-0.2,0c-0.1,0-0.1,0-0.2,0c0,0.2,0.1,0.3,0.3,0.4c0.1,0.1,0.4,0.2,0.6,0.2c0.1,0,0.2,0,0.3,0
		c0.1,0,0.1,0,0.2,0c0.1,0,0.1,0,0.2-0.1c0,0,0.1,0,0.1,0L70,23.7z M68.2,22.4c0.1,0,0.2,0,0.2,0c0.1,0,0.1,0,0.2,0
		c0.2,0,0.4,0,0.5,0c0.1,0,0.2-0.1,0.3-0.1c0.1,0,0.1-0.1,0.1-0.1c0,0,0-0.1,0-0.2c0-0.1,0-0.2-0.2-0.3c-0.1-0.1-0.2-0.1-0.4-0.1
		c-0.1,0-0.2,0-0.3,0.1c-0.1,0-0.2,0.1-0.2,0.2c-0.1,0.1-0.1,0.2-0.2,0.3C68.2,22.2,68.2,22.3,68.2,22.4z"/>
</g>
</svg>
