<?xml version="1.0" encoding="utf-8"?>
<!-- Generator: Adobe Illustrator 24.1.2, SVG Export Plug-In . SVG Version: 6.00 Build 0)  -->
<svg version="1.1" id="Layer_1" xmlns="http://www.w3.org/2000/svg" xmlns:xlink="http://www.w3.org/1999/xlink" x="0px" y="0px"
	 viewBox="0 0 75 28" style="enable-background:new 0 0 75 28;" xml:space="preserve">
<style type="text/css">
	.st0{fill:#003087;stroke:#FFFFFF;stroke-width:0.1048;stroke-miterlimit:123.7911;stroke-opacity:0;}
</style>
<path id="path5037" class="st0" d="M54.1,2.8v11.8l-0.2,0.1l-0.2,0.1l-0.1,0.1l-0.1,0.1l-0.1,0.1l-0.1,0.1l-0.1,0.1L53,15.7V2.8
	H39.7v10.8h-1.1V2.8H25.4v10.8h-1.1V2.8H11.1v12.3L7.7,26.3h3l1.5-4.9h0.4l2.5,4.9h3.6l-2.4-4.9h5.4l-1.5,4.9h3.2l1.5-4.9h0.7v0h1
	h0.1h6.1l-1.4,4.9h3.3l1.4-4.9h1.5l0,4.9h2.7l3.1-4.9h2.1l-1.1,4.9h3.2l1-4.9h1.9l0,0.3l0,0.3l0,0.3l0,0.3l0,0.1l0,0.1l0,0.1l0,0.1
	l0,0.1l0,0.1l0,0.1l0,0.1l0,0.1l0,0.1l0.1,0.1L51,24l0.1,0.1l0.1,0.1l0.1,0.1l0.1,0.1l0.1,0.1l0.1,0.1l0.1,0.1l0.1,0.1l0.1,0.1
	l0.1,0.1l0.1,0.1l0.1,0.1l0.1,0.1l0.1,0.1l0.1,0.1l0.1,0.1l0.1,0.1l0.1,0.1l0.1,0.1l0.1,0.1l0.1,0.1l0.1,0.1l0.1,0.1l0.2,0.1l0.2,0
	l0.2,0l0.2,0l0.2,0l0.3,0.1l0.3,0l0.3,0l0.3,0l0.3,0l0.3,0l0.3,0h0.3l0.4,0l0.4,0l0.4,0l0.4,0l0.4,0l0.4,0l0.4,0l0.4,0l0.4,0
	l0.4-0.1l0.4-0.1l0.4-0.1l0.4-0.1l0.4-0.1l0.4-0.1l0.4-0.1l1.1-4.5h3.7V2.8L54.1,2.8L54.1,2.8z M12.3,20.9L12.3,20.9L12.3,20.9
	C12.4,20.9,12.3,20.9,12.3,20.9z M23.8,14.3l-0.2,0.6l-1.8,5.8l-0.1,0.2H16l-0.4-0.9l6.2-6.3h-4L13,18.8l1.6-5.2h-3V3.3h12.3
	L23.8,14.3L23.8,14.3z M27.3,19.2L27.3,19.2L27.3,19.2l-0.2,0l-0.1,0h-0.1h-0.1h-0.1l-0.1,0h-0.1l-0.8,0l0.4-1.3l0.2-0.7l0.4-1.6
	h0.1h0.1l0.1,0h0.1h0.6l0.4,0l0.3,0l0.2,0l0.1,0l0.1,0l0.1,0l0.1,0l0.1,0l0.1,0l0.1,0l0.1,0l0.1,0l0.1,0l0.1,0.1l0,0l0,0l0,0.1
	l0,0.1l0,0.1l0,0.1v0.1v0.1l0,0.1l0,0.1l0,0.1l0,0.1l-0.1,0.2l-0.1,0.2l-0.1,0.2l-0.1,0.2l-0.1,0.2l-0.1,0.2l0,0.1l0,0.1l-0.1,0.1
	l-0.1,0.1L29,18.5L29,18.5l-0.1,0.1l-0.1,0.1l-0.1,0l-0.1,0.1l-0.1,0l-0.1,0l-0.1,0l-0.1,0l-0.1,0l-0.1,0l-0.1,0L28,19l-0.1,0
	l-0.1,0l-0.1,0l-0.1,0l-0.1,0L27.3,19.2L27.3,19.2z M36.2,20.9l1.3-4.5l0.1,4.5H36.2L36.2,20.9z M38.2,13.6h-3.1L33,20.9h-3.3
	l0.2-0.1l0.2-0.1l0.1-0.1l0.1-0.1l0.1-0.1l0.1-0.1l0.1-0.1l0.1-0.1l0.1-0.1l0.1-0.1l0.1-0.1l0.1-0.1l0.1-0.1l0.1-0.1l0.1-0.1
	l0.1-0.1l0.1-0.1l0.1-0.1l0.1-0.1l0.1-0.1l0.1-0.1l0.1-0.1l0.1-0.1l0.1-0.1l0.1-0.1l0.1-0.1l0.1-0.1l0.1-0.1l0-0.1l0-0.1l0-0.2
	l0-0.2l0-0.2l0-0.2l0-0.2l0-0.2l0-0.2l0-0.2l0-0.2l0-0.2l0-0.2l0-0.2l0-0.2l-0.1-0.1l-0.1-0.1l-0.1-0.1l-0.1-0.1l-0.1-0.1l-0.1-0.1
	l-0.1-0.1L32,14.3l-0.1-0.1l-0.1-0.1l-0.1-0.1L31.6,14l-0.1,0l-0.1,0l-0.1,0l-0.1,0l-0.1,0l-0.1,0l-0.1,0l-0.1,0l-0.1,0l-0.3,0
	l-0.3,0l-0.3,0l-0.3,0h-0.6h-0.6h-0.2h-0.3h-0.4H27h-0.4h-0.4H26h-0.1V3.3h12.3L38.2,13.6L38.2,13.6z M45.6,20.9h-1.8l2.8-4.4
	L45.6,20.9z M52.5,13.8l0,2.5l-0.2,0.2l-0.1,0.2L52,17l-0.1,0.2l-0.1,0.2l-0.1,0.2l-0.1,0.2l-0.1,0.2l-0.1,0.2l-0.1,0.2l-0.1,0.2
	L51.1,19L51,19.2l-0.1,0.2l-0.1,0.2l-0.1,0.2l0,0.1l0,0.1l0,0.1l0,0.1l0,0.1l0,0.1l0,0.1l0,0.1h-1.8l1.5-7.3l-5.2,0l-4.6,7.3h-0.3
	V3.3h12.3L52.5,13.8L52.5,13.8z M59.6,23.9l-0.3,0l-0.3,0l-0.3,0l-0.3,0l-0.3,0l-0.3,0l-0.3,0h-0.3h-0.2l-0.2,0l-0.2,0l-0.2,0
	l-0.2,0l-0.1,0l-0.1,0l-0.1,0l-0.1,0l-0.1,0l-0.1-0.1l-0.1-0.1l-0.1-0.1l-0.1-0.1l-0.1-0.1l-0.1-0.1l-0.1-0.1l-0.1-0.1L55,23.2
	L55,23l-0.1-0.1l-0.1-0.1l-0.1-0.1l-0.1-0.1l-0.1-0.1l0-0.1l0-0.1l0-0.1l0-0.2l0-0.2l0-0.2l0-0.2h5.7L59.6,23.9L59.6,23.9z
	 M66.8,20.9h-3.1l0.5-2H58l-0.5,2h-3v-0.4l0-0.2l0-0.2l0-0.2l0-0.2l0.1-0.2l0.1-0.2l0.1-0.2l0.1-0.2l0.1-0.2l0.1-0.2l0.1-0.2
	l0.1-0.2l0.1-0.2l0.1-0.2l0.1-0.2l0.1-0.2l0.1-0.2l0.1-0.2l0.1-0.2l0.1-0.2l0.1-0.1l0.1-0.1l0.2-0.1l0.2-0.1l0.2-0.1l0.2-0.1
	l0.2-0.1l0.2-0.1l0.2-0.1l0.2-0.1l0.2-0.1l0.2,0l0.2,0l0.2,0l0.2,0l0.2,0l0.2,0l0.2,0l0.2,0l0.2,0l0.1,0l0.1,0l0.1,0l0.1,0l0.1,0
	l0.1,0l0.1,0l0.1,0l0.1,0.1l0.1,0.1l0.1,0.1l0.1,0.1l0.1,0.1l0,0.1l0,0.1l0,0.1l0,0.1l0,0.1l0,0.1l0,0.1l0,0.1v0.1V17l0,0.1h3.7
	l0.1-0.3l0.1-0.3l0-0.2l0-0.2l0-0.2v-0.2l0-0.2l0-0.2l0-0.1l0-0.1l0-0.1l0-0.1l0-0.1l0-0.1l0-0.1l0-0.1l0-0.1l-0.1-0.1l-0.1-0.1
	l-0.1-0.1l-0.1-0.1l-0.1-0.1l-0.1-0.1l-0.1-0.1L64,14l-0.1-0.1l-0.1-0.1l-0.1-0.1l-0.1-0.1l-0.1-0.1l-0.1-0.1l-0.1-0.1l-0.1-0.1
	l-0.1-0.1l-0.1,0l-0.1,0l-0.1,0l-0.2,0l-0.1,0l-0.2,0l-0.2,0l-0.2,0l-0.2,0l-0.2,0l-0.3,0l-0.4,0l-0.4,0l-0.4,0l-0.3,0l-0.3,0
	l-0.3,0l-0.3,0l-0.3,0l-0.3,0l-0.3,0.1l-0.4,0.1l-0.2,0l-0.2,0l-0.2,0l-0.2,0l-0.2,0.1l-0.2,0.1l-0.2,0.1l-0.2,0.1l-0.2,0.1
	l-0.2,0.1l-0.2,0.1l-0.2,0.1L55,14l-0.2,0.1l-0.2,0.1l-0.2,0.1v-11h12.3L66.8,20.9L66.8,20.9z"/>
</svg>
