<?xml version="1.0" encoding="utf-8"?>
<!-- Generator: Adobe Illustrator 24.1.2, SVG Export Plug-In . SVG Version: 6.00 Build 0)  -->
<svg version="1.1" id="Layer_1" xmlns="http://www.w3.org/2000/svg" xmlns:xlink="http://www.w3.org/1999/xlink" x="0px" y="0px"
	 viewBox="0 0 75 28" style="enable-background:new 0 0 75 28;" xml:space="preserve">
<style type="text/css">
	.st0{display:none;fill:#003087;stroke:#FFFFFF;stroke-width:0.1048;stroke-miterlimit:123.7911;stroke-opacity:0;}
	.st1{fill:#58595B;}
	.st2{fill:#529C44;}
	.st3{fill:#0096B6;}
	.st4{fill:#8D5316;}
	.st5{fill:#FFFFFF;}
</style>
<path id="path5037" class="st0" d="M54.1,2.8v11.8l-0.2,0.1l-0.2,0.1l-0.1,0.1l-0.1,0.1l-0.1,0.1l-0.1,0.1l-0.1,0.1L53,15.7V2.8
	H39.7v10.8h-1.1V2.8H25.4v10.8h-1.1V2.8H11.1v12.3L7.7,26.3h3l1.5-4.9h0.4l2.5,4.9h3.6l-2.4-4.9h5.4l-1.5,4.9h3.2l1.5-4.9h0.7v0h1
	h0.1h6.1l-1.4,4.9h3.3l1.4-4.9h1.5l0,4.9h2.7l3.1-4.9h2.1l-1.1,4.9h3.2l1-4.9h1.9l0,0.3l0,0.3l0,0.3l0,0.3l0,0.1l0,0.1l0,0.1l0,0.1
	l0,0.1l0,0.1l0,0.1l0,0.1l0,0.1l0,0.1l0.1,0.1L51,24l0.1,0.1l0.1,0.1l0.1,0.1l0.1,0.1l0.1,0.1l0.1,0.1l0.1,0.1l0.1,0.1l0.1,0.1
	l0.1,0.1l0.1,0.1l0.1,0.1l0.1,0.1l0.1,0.1l0.1,0.1l0.1,0.1l0.1,0.1l0.1,0.1l0.1,0.1l0.1,0.1l0.1,0.1l0.1,0.1l0.1,0.1l0.2,0.1l0.2,0
	l0.2,0l0.2,0l0.2,0l0.3,0.1l0.3,0l0.3,0l0.3,0l0.3,0l0.3,0l0.3,0h0.3l0.4,0l0.4,0l0.4,0l0.4,0l0.4,0l0.4,0l0.4,0l0.4,0l0.4,0
	l0.4-0.1l0.4-0.1l0.4-0.1l0.4-0.1l0.4-0.1l0.4-0.1l0.4-0.1l1.1-4.5h3.7V2.8L54.1,2.8L54.1,2.8z M12.3,20.9L12.3,20.9L12.3,20.9
	C12.4,20.9,12.3,20.9,12.3,20.9z M23.8,14.3l-0.2,0.6l-1.8,5.8l-0.1,0.2H16l-0.4-0.9l6.2-6.3h-4L13,18.8l1.6-5.2h-3V3.3h12.3
	L23.8,14.3L23.8,14.3z M27.3,19.2L27.3,19.2L27.3,19.2l-0.2,0l-0.1,0h-0.1h-0.1h-0.1l-0.1,0h-0.1l-0.8,0l0.4-1.3l0.2-0.7l0.4-1.6
	h0.1h0.1l0.1,0h0.1h0.6l0.4,0l0.3,0l0.2,0l0.1,0l0.1,0l0.1,0l0.1,0l0.1,0l0.1,0l0.1,0l0.1,0l0.1,0l0.1,0l0.1,0.1l0,0l0,0l0,0.1
	l0,0.1l0,0.1l0,0.1v0.1v0.1l0,0.1l0,0.1l0,0.1l0,0.1l-0.1,0.2l-0.1,0.2l-0.1,0.2l-0.1,0.2l-0.1,0.2l-0.1,0.2l0,0.1l0,0.1l-0.1,0.1
	l-0.1,0.1L29,18.5L29,18.5l-0.1,0.1l-0.1,0.1l-0.1,0l-0.1,0.1l-0.1,0l-0.1,0l-0.1,0l-0.1,0l-0.1,0l-0.1,0l-0.1,0L28,19l-0.1,0
	l-0.1,0l-0.1,0l-0.1,0l-0.1,0L27.3,19.2L27.3,19.2z M36.2,20.9l1.3-4.5l0.1,4.5H36.2L36.2,20.9z M38.2,13.6h-3.1L33,20.9h-3.3
	l0.2-0.1l0.2-0.1l0.1-0.1l0.1-0.1l0.1-0.1l0.1-0.1l0.1-0.1l0.1-0.1l0.1-0.1l0.1-0.1l0.1-0.1l0.1-0.1l0.1-0.1l0.1-0.1l0.1-0.1
	l0.1-0.1l0.1-0.1l0.1-0.1l0.1-0.1l0.1-0.1l0.1-0.1l0.1-0.1l0.1-0.1l0.1-0.1l0.1-0.1l0.1-0.1l0.1-0.1l0.1-0.1l0-0.1l0-0.1l0-0.2
	l0-0.2l0-0.2l0-0.2l0-0.2l0-0.2l0-0.2l0-0.2l0-0.2l0-0.2l0-0.2l0-0.2l0-0.2l-0.1-0.1l-0.1-0.1l-0.1-0.1l-0.1-0.1l-0.1-0.1l-0.1-0.1
	l-0.1-0.1L32,14.3l-0.1-0.1l-0.1-0.1l-0.1-0.1L31.6,14l-0.1,0l-0.1,0l-0.1,0l-0.1,0l-0.1,0l-0.1,0l-0.1,0l-0.1,0l-0.1,0l-0.3,0
	l-0.3,0l-0.3,0l-0.3,0h-0.6h-0.6h-0.2h-0.3h-0.4H27h-0.4h-0.4H26h-0.1V3.3h12.3L38.2,13.6L38.2,13.6z M45.6,20.9h-1.8l2.8-4.4
	L45.6,20.9z M52.5,13.8l0,2.5l-0.2,0.2l-0.1,0.2L52,17l-0.1,0.2l-0.1,0.2l-0.1,0.2l-0.1,0.2l-0.1,0.2l-0.1,0.2l-0.1,0.2l-0.1,0.2
	L51.1,19L51,19.2l-0.1,0.2l-0.1,0.2l-0.1,0.2l0,0.1l0,0.1l0,0.1l0,0.1l0,0.1l0,0.1l0,0.1l0,0.1h-1.8l1.5-7.3l-5.2,0l-4.6,7.3h-0.3
	V3.3h12.3L52.5,13.8L52.5,13.8z M59.6,23.9l-0.3,0l-0.3,0l-0.3,0l-0.3,0l-0.3,0l-0.3,0l-0.3,0h-0.3h-0.2l-0.2,0l-0.2,0l-0.2,0
	l-0.2,0l-0.1,0l-0.1,0l-0.1,0l-0.1,0l-0.1,0l-0.1-0.1l-0.1-0.1l-0.1-0.1l-0.1-0.1l-0.1-0.1l-0.1-0.1l-0.1-0.1l-0.1-0.1L55,23.2
	L55,23l-0.1-0.1l-0.1-0.1l-0.1-0.1l-0.1-0.1l-0.1-0.1l0-0.1l0-0.1l0-0.1l0-0.2l0-0.2l0-0.2l0-0.2h5.7L59.6,23.9L59.6,23.9z
	 M66.8,20.9h-3.1l0.5-2H58l-0.5,2h-3v-0.4l0-0.2l0-0.2l0-0.2l0-0.2l0.1-0.2l0.1-0.2l0.1-0.2l0.1-0.2l0.1-0.2l0.1-0.2l0.1-0.2
	l0.1-0.2l0.1-0.2l0.1-0.2l0.1-0.2l0.1-0.2l0.1-0.2l0.1-0.2l0.1-0.2l0.1-0.2l0.1-0.1l0.1-0.1l0.2-0.1l0.2-0.1l0.2-0.1l0.2-0.1
	l0.2-0.1l0.2-0.1l0.2-0.1l0.2-0.1l0.2-0.1l0.2,0l0.2,0l0.2,0l0.2,0l0.2,0l0.2,0l0.2,0l0.2,0l0.2,0l0.1,0l0.1,0l0.1,0l0.1,0l0.1,0
	l0.1,0l0.1,0l0.1,0l0.1,0.1l0.1,0.1l0.1,0.1l0.1,0.1l0.1,0.1l0,0.1l0,0.1l0,0.1l0,0.1l0,0.1l0,0.1l0,0.1l0,0.1v0.1V17l0,0.1h3.7
	l0.1-0.3l0.1-0.3l0-0.2l0-0.2l0-0.2v-0.2l0-0.2l0-0.2l0-0.1l0-0.1l0-0.1l0-0.1l0-0.1l0-0.1l0-0.1l0-0.1l0-0.1l-0.1-0.1l-0.1-0.1
	l-0.1-0.1l-0.1-0.1l-0.1-0.1l-0.1-0.1l-0.1-0.1L64,14l-0.1-0.1l-0.1-0.1l-0.1-0.1l-0.1-0.1l-0.1-0.1l-0.1-0.1l-0.1-0.1l-0.1-0.1
	l-0.1-0.1l-0.1,0l-0.1,0l-0.1,0l-0.2,0l-0.1,0l-0.2,0l-0.2,0l-0.2,0l-0.2,0l-0.2,0l-0.3,0l-0.4,0l-0.4,0l-0.4,0l-0.3,0l-0.3,0
	l-0.3,0l-0.3,0l-0.3,0l-0.3,0l-0.3,0.1l-0.4,0.1l-0.2,0l-0.2,0l-0.2,0l-0.2,0l-0.2,0.1l-0.2,0.1l-0.2,0.1l-0.2,0.1l-0.2,0.1
	l-0.2,0.1l-0.2,0.1l-0.2,0.1L55,14l-0.2,0.1l-0.2,0.1l-0.2,0.1v-11h12.3L66.8,20.9L66.8,20.9z"/>
<g id="Group_1154_2_" transform="translate(0 52.913)">
	<g id="Group_1153_2_">
		<path id="Path_1289_2_" class="st1" d="M1.1-31l0.1-0.7c0.4,0.2,0.8,0.3,1.2,0.3c0.2,0,0.5,0,0.7-0.1c0.3-0.1,0.4-0.5,0.2-0.7
			c0-0.1-0.1-0.1-0.1-0.2c-0.2-0.2-0.5-0.3-0.8-0.4c-0.3-0.1-0.6-0.3-0.9-0.5c-0.2-0.2-0.4-0.5-0.4-0.7c0-0.4,0.2-0.8,0.5-1
			c0.3-0.2,0.7-0.3,1.1-0.3c0.4,0,0.8,0.1,1.1,0.3l-0.1,0.6c-0.3-0.2-0.7-0.3-1-0.3c-0.6,0-0.9,0.2-0.9,0.6c0,0.1,0.1,0.3,0.2,0.3
			c0.2,0.2,0.5,0.3,0.7,0.4c0.3,0.1,0.6,0.3,0.9,0.6c0.2,0.2,0.4,0.5,0.4,0.8c0,0.4-0.2,0.8-0.5,1.1c-0.3,0.2-0.7,0.3-1.1,0.3
			C2-30.8,1.5-30.9,1.1-31z"/>
		<path id="Path_1290_2_" class="st1" d="M7.6-31.3l0.1,0.4c-0.2,0.1-0.3,0.1-0.5,0.1c-0.1,0-0.3,0-0.4-0.1
			c-0.1-0.1-0.2-0.2-0.1-0.3c-0.2,0.3-0.6,0.5-0.9,0.5c-0.7,0-1-0.3-1-0.9c0-0.4,0.2-0.7,0.5-0.9c0.3-0.1,0.6-0.2,1-0.2
			c0.2,0,0.4,0,0.5,0v-0.3c0-0.1-0.1-0.3-0.2-0.4c-0.2-0.1-0.4-0.1-0.6-0.1c-0.3,0-0.7,0.1-1,0.2L5-33.9c0.3-0.1,0.7-0.2,1-0.2
			c0.5,0,0.8,0.1,1,0.3c0.2,0.3,0.3,0.6,0.3,0.9v1.5c0,0.1,0.1,0.2,0.2,0.2C7.5-31.2,7.5-31.3,7.6-31.3z M6.6-32v-0.3
			c-0.2,0-0.4,0-0.5,0c-0.2,0-0.4,0-0.6,0.1c-0.1,0.1-0.2,0.3-0.2,0.4c0,0.3,0.2,0.5,0.6,0.5c0.2,0,0.4-0.1,0.5-0.2
			C6.5-31.7,6.6-31.8,6.6-32L6.6-32z"/>
		<path id="Path_1291_2_" class="st1" d="M11.3-31.3l0.1,0.4c-0.2,0.1-0.3,0.1-0.5,0.1c-0.1,0-0.3,0-0.4-0.1
			c-0.1-0.1-0.2-0.2-0.1-0.3c-0.2,0.1-0.3,0.3-0.5,0.3c-0.2,0.1-0.4,0.1-0.6,0.1c-0.3,0-0.5,0-0.8-0.2c-0.2-0.2-0.3-0.5-0.2-0.8
			v-2.2h0.7v2.1c0,0.1,0,0.3,0.1,0.4c0.1,0.1,0.2,0.1,0.3,0.1c0.2,0,0.4-0.1,0.6-0.1c0.2-0.1,0.3-0.2,0.4-0.3v-2.2h0.6v2.6
			c0,0.1,0.1,0.2,0.2,0.2C11.2-31.3,11.2-31.3,11.3-31.3z"/>
		<path id="Path_1292_2_" class="st1" d="M15.2-31.3l0.1,0.4c-0.2,0.1-0.3,0.1-0.5,0.1c-0.1,0-0.3,0-0.4-0.1
			c-0.1-0.1-0.1-0.2-0.1-0.3c-0.1,0.3-0.5,0.5-1.1,0.5c-0.4,0-0.7-0.1-0.9-0.4c-0.3-0.4-0.4-0.8-0.4-1.2c0-0.5,0.1-0.9,0.4-1.2
			c0.3-0.3,0.7-0.4,1.1-0.4c0.3,0,0.6,0,0.9,0.1v-1.4h0.6v3.9c0,0.1,0.1,0.2,0.2,0.2C15.1-31.3,15.2-31.3,15.2-31.3z M14.2-32.2
			v-1.3c-0.2-0.1-0.5-0.1-0.8-0.1c-0.3,0-0.5,0.1-0.7,0.3c-0.2,0.3-0.2,0.6-0.2,0.8c0,0.3,0,0.6,0.2,0.9c0.1,0.2,0.4,0.3,0.6,0.3
			c0.3,0,0.5-0.1,0.7-0.3C14.2-31.8,14.2-32,14.2-32.2L14.2-32.2z"/>
		<path id="Path_1293_2_" class="st1" d="M16.7-35.1c0,0.1,0,0.2-0.1,0.3c-0.1,0.1-0.2,0.1-0.3,0.1c-0.1,0-0.2,0-0.3-0.1
			c-0.1-0.1-0.1-0.2-0.1-0.3c0-0.1,0-0.2,0.1-0.3c0.1-0.1,0.2-0.1,0.3-0.1c0.1,0,0.2,0,0.3,0.1C16.6-35.3,16.7-35.2,16.7-35.1z
			 M16.9-31.3l0.1,0.4c-0.2,0.1-0.4,0.1-0.5,0.1c-0.1,0-0.3,0-0.4-0.1c-0.1-0.1-0.1-0.2-0.1-0.3v-2.8h0.7v2.6c0,0.1,0.1,0.2,0.2,0.2
			C16.8-31.3,16.8-31.3,16.9-31.3z"/>
		<path id="Path_1294_2_" class="st1" d="M20-31l0.1-0.7c0.4,0.2,0.8,0.3,1.2,0.3c0.2,0,0.5,0,0.7-0.1c0.3-0.1,0.4-0.5,0.2-0.7
			c0-0.1-0.1-0.1-0.1-0.2c-0.2-0.2-0.5-0.3-0.8-0.4c-0.3-0.1-0.6-0.3-0.9-0.5c-0.2-0.2-0.4-0.5-0.4-0.7c0-0.4,0.2-0.8,0.5-1
			c0.3-0.2,0.7-0.3,1.1-0.3c0.4,0,0.8,0.1,1.1,0.3l-0.1,0.6c-0.3-0.2-0.7-0.3-1-0.3c-0.6,0-0.9,0.2-0.9,0.6c0,0.1,0.1,0.3,0.2,0.3
			c0.2,0.2,0.5,0.3,0.7,0.4c0.3,0.1,0.6,0.3,0.9,0.6c0.2,0.2,0.4,0.5,0.4,0.8c0,0.4-0.2,0.8-0.5,1.1c-0.3,0.2-0.7,0.3-1.1,0.3
			C20.8-30.8,20.4-30.9,20-31z"/>
		<path id="Path_1295_2_" class="st1" d="M25.2-31.4l0.1,0.5c-0.2,0.1-0.5,0.1-0.7,0.1c-0.2,0-0.4-0.1-0.5-0.2
			c-0.1-0.2-0.2-0.4-0.2-0.6v-1.9h-0.5l0.1-0.5h0.4v-0.9l0.6-0.2v1.1h0.7v0.5h-0.7v1.8c0,0.1,0,0.2,0.1,0.3c0.1,0.1,0.2,0.1,0.3,0.1
			C25-31.3,25.1-31.4,25.2-31.4z"/>
		<path id="Path_1296_2_" class="st1" d="M28.7-31.3l0.1,0.4c-0.2,0.1-0.3,0.1-0.5,0.1c-0.1,0-0.3,0-0.4-0.1
			c-0.1-0.1-0.2-0.2-0.1-0.3c-0.2,0.3-0.6,0.5-0.9,0.5c-0.7,0-1-0.3-1-0.9c0-0.4,0.2-0.7,0.5-0.9c0.3-0.1,0.6-0.2,1-0.2
			c0.2,0,0.4,0,0.5,0v-0.3c0-0.1-0.1-0.3-0.2-0.4c-0.2-0.1-0.4-0.1-0.6-0.1c-0.3,0-0.7,0.1-1,0.2l0.1-0.5c0.3-0.1,0.7-0.2,1-0.2
			c0.5,0,0.8,0.1,1,0.3c0.2,0.3,0.3,0.6,0.3,0.9v1.5c0,0.1,0.1,0.2,0.2,0.2C28.6-31.2,28.7-31.3,28.7-31.3z M27.7-32v-0.3
			c-0.2,0-0.4,0-0.5,0c-0.2,0-0.4,0-0.6,0.1c-0.1,0.1-0.2,0.3-0.2,0.4c0,0.3,0.2,0.5,0.6,0.5c0.2,0,0.4-0.1,0.5-0.2
			C27.7-31.7,27.7-31.8,27.7-32L27.7-32z"/>
		<path id="Path_1297_2_" class="st1" d="M32.5-31.3l0.1,0.4c-0.2,0.1-0.3,0.1-0.5,0.1c-0.1,0-0.3,0-0.4-0.1
			c-0.1-0.1-0.2-0.2-0.1-0.3V-33c0-0.1,0-0.3-0.1-0.4c-0.1-0.1-0.2-0.1-0.3-0.1c-0.2,0-0.4,0.1-0.5,0.1c-0.2,0.1-0.4,0.2-0.5,0.3
			v2.2h-0.7v-3.2H30v0.4c0.2-0.1,0.4-0.3,0.6-0.3c0.2-0.1,0.4-0.1,0.6-0.1c0.3,0,0.5,0,0.7,0.2c0.2,0.2,0.3,0.5,0.2,0.8v1.6
			c0,0.1,0.1,0.2,0.2,0.2C32.4-31.3,32.4-31.3,32.5-31.3z"/>
		<path id="Path_1298_2_" class="st1" d="M36.4-31.3l0.1,0.4c-0.2,0.1-0.3,0.1-0.5,0.1c-0.1,0-0.3,0-0.4-0.1
			c-0.1-0.1-0.1-0.2-0.1-0.3c-0.1,0.3-0.5,0.5-1.1,0.5c-0.4,0-0.7-0.1-0.9-0.4c-0.3-0.4-0.4-0.8-0.4-1.2c0-0.5,0.1-0.9,0.4-1.2
			c0.3-0.3,0.7-0.4,1.1-0.4c0.3,0,0.6,0,0.9,0.1v-1.4h0.6v3.9c0,0.1,0.1,0.2,0.2,0.2C36.3-31.3,36.4-31.3,36.4-31.3z M35.4-32.2
			v-1.3c-0.2-0.1-0.5-0.1-0.8-0.1c-0.3,0-0.5,0.1-0.7,0.3c-0.2,0.3-0.2,0.6-0.2,0.8c0,0.3,0,0.6,0.2,0.9c0.1,0.2,0.4,0.3,0.6,0.3
			c0.3,0,0.5-0.1,0.7-0.3C35.4-31.8,35.4-32,35.4-32.2L35.4-32.2z"/>
		<path id="Path_1299_2_" class="st1" d="M39.9-31.3l0.1,0.4c-0.2,0.1-0.3,0.1-0.5,0.1c-0.1,0-0.3,0-0.4-0.1
			c-0.1-0.1-0.2-0.2-0.1-0.3c-0.2,0.3-0.6,0.5-0.9,0.5c-0.7,0-1-0.3-1-0.9c0-0.4,0.2-0.7,0.5-0.9c0.3-0.1,0.6-0.2,1-0.2
			c0.2,0,0.4,0,0.5,0v-0.3c0-0.1-0.1-0.3-0.2-0.4c-0.2-0.1-0.4-0.1-0.6-0.1c-0.3,0-0.7,0.1-1,0.2l0.1-0.5c0.3-0.1,0.7-0.2,1-0.2
			c0.5,0,0.8,0.1,1,0.3c0.2,0.3,0.3,0.6,0.3,0.9v1.5c0,0.1,0.1,0.2,0.2,0.2C39.8-31.2,39.8-31.3,39.9-31.3z M38.9-32v-0.3
			c-0.2,0-0.4,0-0.5,0c-0.2,0-0.4,0-0.6,0.1c-0.1,0.1-0.2,0.3-0.2,0.4c0,0.3,0.2,0.5,0.6,0.5c0.2,0,0.4-0.1,0.5-0.2
			C38.8-31.7,38.9-31.8,38.9-32z"/>
		<path id="Path_1300_2_" class="st1" d="M41.2-30.8h-0.7v-3.2h0.7v0.4c0.1-0.1,0.1-0.3,0.3-0.3c0.1-0.1,0.2-0.1,0.3-0.1
			c0.2,0,0.4,0.1,0.6,0.2l-0.1,0.5c-0.2-0.1-0.4-0.1-0.5-0.1c-0.2,0-0.4,0.1-0.6,0.4L41.2-30.8L41.2-30.8z"/>
		<path id="Path_1301_2_" class="st1" d="M46.1-31.3l0.1,0.4c-0.2,0.1-0.3,0.1-0.5,0.1c-0.1,0-0.3,0-0.4-0.1
			c-0.1-0.1-0.1-0.2-0.1-0.3c-0.1,0.3-0.5,0.5-1.1,0.5c-0.4,0-0.7-0.1-0.9-0.4c-0.3-0.4-0.4-0.8-0.4-1.2c0-0.5,0.1-0.9,0.4-1.2
			c0.3-0.3,0.7-0.4,1.1-0.4c0.3,0,0.6,0,0.9,0.1v-1.4h0.6v3.9c0,0.1,0.1,0.2,0.2,0.2C46-31.3,46.1-31.3,46.1-31.3z M45.1-32.2v-1.3
			c-0.2-0.1-0.5-0.1-0.8-0.1c-0.3,0-0.5,0.1-0.7,0.3c-0.2,0.3-0.2,0.6-0.2,0.8c0,0.3,0,0.6,0.2,0.9c0.1,0.2,0.4,0.3,0.6,0.3
			c0.3,0,0.5-0.1,0.7-0.3C45.1-31.8,45.1-32,45.1-32.2L45.1-32.2z"/>
		<path id="Path_1302_2_" class="st1" d="M46.7-30.9l0.1-0.6c0.1,0.1,0.3,0.1,0.4,0.1c0.1,0,0.3,0.1,0.4,0.1c0.5,0,0.8-0.2,0.8-0.5
			c0-0.1-0.1-0.2-0.1-0.3c-0.2-0.1-0.4-0.2-0.5-0.2c-0.3-0.1-0.5-0.2-0.7-0.4c-0.2-0.1-0.3-0.4-0.3-0.6c0-0.3,0.1-0.5,0.3-0.7
			c0.3-0.2,0.6-0.3,1-0.2c0.3,0,0.6,0,0.9,0.2l-0.1,0.5c-0.3-0.1-0.5-0.2-0.8-0.2c-0.4,0-0.7,0.1-0.7,0.3c0,0.1,0,0.2,0.1,0.2
			c0.2,0.1,0.3,0.2,0.5,0.2c0.3,0.1,0.5,0.2,0.8,0.4c0.4,0.3,0.4,0.9,0.1,1.2c-0.1,0.1-0.1,0.1-0.2,0.2c-0.3,0.2-0.6,0.2-0.9,0.2
			C47.4-30.8,47-30.8,46.7-30.9z"/>
	</g>
</g>
<g id="XMLID_11_" transform="translate(204.367)">
	<g id="XMLID_27_" transform="translate(0 0.008)">
		<path id="Path_1303_2_" class="st2" d="M-145.3,7.6c-0.8,1-1.6,2-2.3,3.1c-0.2,0.4-0.5,0.7-0.7,1.1c-0.2,0.4-0.4,0.7-0.6,1.1
			c-0.6,1.1-1.1,2.3-1.5,3.5c-0.6,1.7-1,3.4-1.2,5.1l6.8-3.9c0.4-1.1,0.9-2.1,1.4-3.1h0v0c0.6-1,1.2-1.9,2-2.7V4
			C-142.8,5.1-144.1,6.3-145.3,7.6"/>
	</g>
	<path id="XMLID_23_" class="st3" d="M-140.7,11.9c0.7,0.9,1.4,1.8,2,2.7l0,0h0c0.5,1,1,2,1.4,3.1l6.8,3.9c-0.2-1.7-0.6-3.5-1.2-5.1
		c-0.4-1.2-0.9-2.4-1.5-3.5c-0.2-0.4-0.4-0.8-0.6-1.1c-0.2-0.4-0.4-0.7-0.7-1.1c-0.7-1.1-1.5-2.1-2.3-3.1c-1.2-1.3-2.5-2.5-3.9-3.6
		V11.9z"/>
	<path id="XMLID_21_" class="st4" d="M-144.4,18.3c1.1,0.2,2.2,0.3,3.4,0.3h0c1.1,0,2.2-0.1,3.4-0.3l6.8,3.9c-1.6,0.7-3.3,1.2-5,1.6
		c-1.3,0.3-2.5,0.4-3.8,0.5c-0.4,0-0.9,0-1.3,0c-0.4,0-0.9,0-1.3,0c-1.3-0.1-2.6-0.2-3.8-0.4c-1.7-0.3-3.4-0.9-5.1-1.5L-144.4,18.3z
		"/>
	<g id="XMLID_12_" transform="translate(21.073 62.402)">
		<path id="XMLID_20_" class="st5" d="M-166.5-39.7c-0.3,0-0.7-0.2-0.9-0.5l0.3-0.4c0.2,0.2,0.4,0.3,0.6,0.3c0.3,0,0.5-0.1,0.5-0.3
			c0-0.1,0-0.1,0-0.2c-0.1-0.2-0.6-0.3-0.9-0.7c-0.1-0.2-0.2-0.4-0.1-0.6c0.1-0.5,0.5-0.8,1.1-0.7c0.3,0,0.6,0.2,0.8,0.4l-0.3,0.3
			c-0.1-0.1-0.3-0.3-0.5-0.3c-0.2,0-0.4,0-0.5,0.2c0,0.1,0,0.1,0,0.2c0.1,0.2,0.7,0.4,0.9,0.7c0.1,0.2,0.2,0.4,0.1,0.6
			C-165.4-39.9-165.9-39.6-166.5-39.7z"/>
		<path id="XMLID_18_" class="st5" d="M-163-39.4l-0.2-0.6l-1-0.1l-0.2,0.6l-0.6,0l1.2-2.7l0.6,0l0.8,2.8L-163-39.4z M-163.6-41.6
			l-0.4,1.1l0.7,0L-163.6-41.6z"/>
		<path id="XMLID_16_" class="st5" d="M-161.1-39.4c-0.3,0-0.7-0.1-1-0.3l0.2-0.4c0.2,0.1,0.4,0.2,0.7,0.2c0.3,0,0.4-0.2,0.4-0.4
			c0-0.1,0-0.1-0.1-0.2c-0.2-0.2-0.7-0.2-1-0.5c-0.1-0.1-0.2-0.3-0.2-0.5c0-0.5,0.4-0.8,0.9-0.9c0.3,0,0.6,0.1,0.9,0.3l-0.3,0.4
			c-0.2-0.1-0.4-0.2-0.6-0.2c-0.2,0-0.4,0.1-0.4,0.3c0,0.1,0,0.1,0.1,0.2c0.1,0.1,0.7,0.2,1,0.5c0.2,0.1,0.2,0.3,0.2,0.5
			C-160.1-39.8-160.4-39.4-161.1-39.4z"/>
		<path id="XMLID_15_" class="st5" d="M-158.1-39.6c-0.8,0.1-1.4-0.4-1.6-1.3c-0.1-0.8,0.3-1.5,1.1-1.6c0.8-0.1,1.4,0.4,1.6,1.2
			C-156.8-40.4-157.3-39.8-158.1-39.6z M-158.5-42c-0.4,0.1-0.7,0.5-0.6,1.1c0.1,0.6,0.5,0.9,0.9,0.8c0.6-0.1,0.7-0.7,0.6-1.1
			C-157.7-41.8-158-42.1-158.5-42z"/>
	</g>
</g>
<g id="Group_1156_2_" transform="translate(0.203 22.924)">
	<g id="Group_1155_2_">
		<path id="Path_1304_2_" class="st1" d="M2.7-12.3c0.1,0,0.2,0,0.3-0.1C3-12.5,3-12.6,3-12.7c0-0.1,0-0.2-0.1-0.3
			c-0.2-0.2-0.4-0.2-0.5,0c-0.1,0.1-0.1,0.2-0.1,0.3c0,0.1,0,0.2,0.1,0.3C2.4-12.4,2.5-12.3,2.7-12.3z"/>
		<path id="Path_1305_2_" class="st1" d="M1.7-12.3c0.1,0,0.2,0,0.3-0.1c0.1-0.1,0.1-0.2,0.1-0.3c0-0.1,0-0.2-0.1-0.3
			c-0.1-0.1-0.2-0.1-0.3-0.1c-0.1,0-0.2,0-0.3,0.1c-0.1,0.1-0.1,0.2-0.1,0.3c0,0.1,0,0.2,0.1,0.3C1.5-12.4,1.6-12.3,1.7-12.3z"/>
		<path id="Path_1306_2_" class="st1" d="M4.8-8.5C5-8.7,5.2-9.1,5.2-9.4v-2.2H4.5v2.2c0,0.3-0.2,0.4-0.5,0.4H3.3v-2.6H2.1
			c-0.3,0-0.5,0.1-0.8,0.2c-0.3,0.2-0.4,0.5-0.4,0.9v1c0,0.3,0.1,0.6,0.3,0.8c0.3,0.2,0.6,0.4,0.9,0.3h0.2l0.3-0.4v0.4H4
			C4.3-8.3,4.5-8.4,4.8-8.5z M2.7-8.9H2.1C2-8.9,1.8-9,1.7-9C1.6-9.1,1.6-9.3,1.6-9.4v-1.1c0-0.2,0.1-0.4,0.3-0.5c0,0,0.1,0,0.1,0
			h0.6L2.7-8.9L2.7-8.9z"/>
		<path id="Path_1307_2_" class="st1" d="M3.6-7.4c-0.1,0-0.2,0-0.3,0.1C3.3-7.2,3.3-7.1,3.3-7c0,0.1,0,0.2,0.1,0.3
			c0.1,0.1,0.2,0.1,0.3,0.1c0.1,0,0.2,0,0.3-0.1c0.1-0.1,0.2-0.4,0-0.5c0,0,0,0,0,0C3.8-7.3,3.7-7.4,3.6-7.4z"/>
		<path id="Path_1308_2_" class="st1" d="M4.6-7.4c-0.1,0-0.2,0-0.3,0.1c-0.2,0.1-0.2,0.4,0,0.5c0,0,0,0,0,0
			c0.1,0.1,0.2,0.1,0.3,0.1c0.1,0,0.2,0,0.3-0.1C5-6.8,5-6.9,5-7C5-7.2,4.8-7.3,4.6-7.4z"/>
		<path id="Path_1309_2_" class="st1" d="M6.7-11.6H6.2v0.6h0.4c0.6,0,0.9,0.3,0.9,0.9v0.6c0,0.3-0.2,0.4-0.5,0.4H5.6v0.6H7
			c0.3,0,0.6-0.1,0.9-0.3c0.2-0.2,0.3-0.5,0.3-0.7v-0.7c0-0.4-0.1-0.8-0.4-1.1C7.5-11.4,7.1-11.6,6.7-11.6z"/>
		<path id="Path_1310_2_" class="st1" d="M21.4-9.4c0,0.1,0,0.3-0.1,0.4c-0.1,0.1-0.3,0.1-0.4,0.1h-0.5v-2.6h-0.6v2.6h-1.1v-2.6
			h-0.6v2.6h-1.1v-2.6h-0.6v2.6h-2c0.3-0.4,0.7-0.7,1.1-1V-10c0-0.4-0.1-0.8-0.4-1.1c-0.3-0.3-0.7-0.5-1.2-0.5
			c-0.4,0-0.8,0.1-1.1,0.4c-0.4,0.3-0.6,0.8-0.5,1.2v0.1c0.4,0.3,0.7,0.6,1,1h-1.9v-2.6H10c-0.3,0-0.6,0.1-0.8,0.3
			c-0.2,0.2-0.3,0.5-0.3,0.8v1c0,0.3,0.1,0.6,0.3,0.8c0.2,0.2,0.6,0.3,0.9,0.3h0.5v0.2c0,0.6-0.4,1-1.3,1H9.2l0.4,0.6
			c0.4,0,0.9-0.1,1.2-0.4c0.3-0.3,0.4-0.7,0.4-1.2v-0.1h1.9c0.2,0,0.4-0.1,0.6-0.2c0.2,0.1,0.4,0.2,0.5,0.2h6.6
			c0.3,0,0.6-0.1,0.8-0.3c0.2-0.2,0.3-0.5,0.3-0.8v-3.5h-0.6L21.4-9.4L21.4-9.4z M10.6-8.9h-0.5c-0.2,0-0.3,0-0.5-0.1
			C9.6-9.1,9.5-9.3,9.5-9.4v-1c0-0.1,0-0.3,0.1-0.4c0.1-0.1,0.2-0.1,0.4-0.1h0.6L10.6-8.9z M13.8-9.3c-0.3-0.3-0.6-0.7-1-1
			c0-0.2,0.1-0.4,0.3-0.5c0.2-0.1,0.4-0.2,0.7-0.2c0.2,0,0.4,0.1,0.6,0.2c0.2,0.1,0.3,0.3,0.4,0.6C14.4-9.9,14.1-9.6,13.8-9.3z"/>
		<path id="Path_1311_2_" class="st1" d="M22.8-8l0.6-0.4v-4.6h-0.6V-8z"/>
		<path id="Path_1312_2_" class="st1" d="M27.1-12.3c0.1,0,0.2,0,0.3-0.1c0.1-0.1,0.1-0.2,0.1-0.3c0-0.1,0-0.2-0.1-0.3
			c-0.1-0.1-0.2-0.1-0.3-0.1c-0.1,0-0.2,0-0.3,0.1c-0.1,0.1-0.2,0.4,0,0.5c0,0,0,0,0,0C26.9-12.4,27-12.3,27.1-12.3z"/>
		<path id="Path_1313_2_" class="st1" d="M28.4-9.4c0,0.3-0.2,0.4-0.5,0.4h-2.4c-0.1,0-0.3,0-0.3-0.1c-0.1-0.1-0.1-0.2-0.1-0.4v-1.4
			l-0.6,0.4v1c0,0.3,0.1,0.6,0.3,0.8c0.2,0.2,0.6,0.3,0.9,0.3h2.3c0.3,0,0.6-0.1,0.8-0.3C28.9-8.8,29-9.1,29-9.4v-2.2h-0.6V-9.4z"/>
		<path id="Path_1314_2_" class="st1" d="M26.1-12.3c0.1,0,0.2,0,0.3-0.1c0.1-0.1,0.1-0.2,0.1-0.3c0-0.1,0-0.2-0.1-0.3
			c-0.1-0.1-0.2-0.1-0.3-0.1c-0.1,0-0.2,0-0.3,0.1c-0.1,0.1-0.1,0.2-0.1,0.3c0,0.1,0,0.2,0.1,0.3C25.9-12.4,26-12.3,26.1-12.3z"/>
		<path id="Path_1315_2_" class="st1" d="M32.4-12.3c0.1,0,0.2,0,0.3-0.1c0.1-0.1,0.1-0.2,0.1-0.3c0-0.1,0-0.2-0.1-0.3
			c-0.1-0.1-0.2-0.1-0.3-0.1c-0.1,0-0.2,0-0.3,0.1c-0.1,0.1-0.1,0.2-0.1,0.3c0,0.1,0,0.2,0.1,0.3C32.2-12.4,32.3-12.3,32.4-12.3z"/>
		<path id="Path_1316_2_" class="st1" d="M39-8l0.6-0.4v-4.6H39V-8z"/>
		<path id="Path_1317_2_" class="st1" d="M46.9-9.4c0,0.1,0,0.3-0.1,0.4c-0.1,0.1-0.3,0.1-0.4,0.1h-0.2v-1.6c0-0.3-0.1-0.6-0.3-0.8
			c-0.2-0.2-0.6-0.3-0.9-0.3c-0.3,0-0.5,0.1-0.8,0.2c-0.3,0.2-0.4,0.5-0.4,0.9v1.6h-1.1v-2.6h-1.3c-0.3,0-0.6,0.1-0.8,0.3
			c-0.2,0.2-0.3,0.5-0.3,0.8v1c0,0.3,0.1,0.6,0.3,0.8c0.2,0.2,0.6,0.3,0.9,0.3h0.5v0.2c0,0.6-0.4,1-1.3,1h-0.1l0.4,0.6
			c0.4,0,0.9-0.1,1.2-0.4c0.3-0.3,0.4-0.7,0.4-1.2v-0.1h1.1c0,0.2,0.2,0.4,0.4,0.6c0.2,0.2,0.5,0.3,0.8,0.2c0.3,0,0.6-0.1,0.8-0.2
			c0.2-0.1,0.3-0.4,0.4-0.6h0.2c0.3,0,0.6-0.1,0.8-0.3c0.2-0.2,0.3-0.5,0.3-0.8v-3.5h-0.6L46.9-9.4L46.9-9.4z M42.1-8.9h-0.5
			c-0.2,0-0.3,0-0.5-0.1C41-9.1,41-9.3,41-9.4v-1c0-0.1,0-0.3,0.1-0.4c0.1-0.1,0.2-0.1,0.4-0.1h0.6L42.1-8.9z M45.6-8.6
			c0,0.3-0.2,0.5-0.6,0.5c-0.4,0-0.6-0.2-0.6-0.5v-1.9c0-0.3,0.2-0.5,0.6-0.5c0.4,0,0.6,0.2,0.6,0.5V-8.6z"/>
		<path id="Path_1318_2_" class="st1" d="M48.2-12.9V-8l0.6-0.4v-4.6H48.2z"/>
	</g>
	<path id="Path_1319_2_" class="st1" d="M38-11.3c-0.2-0.2-0.5-0.3-0.7-0.3c-0.1,0-0.3,0-0.4,0.1L35.4-11v-0.6h-0.6v2.6h-1.1v-2.6
		h-1.3c-0.3,0-0.6,0.1-0.8,0.3c-0.2,0.2-0.4,0.5-0.3,0.9v1.5h-0.5c-0.2,0-0.3-0.1-0.3-0.4v-3.5h-0.6v3.6c0,0.5,0.4,1,1,1
		c0,0,0,0,0,0h2.6l0.3-0.4v0.4h1.1v0.6L35.4-8v-0.3h1.8c0.3,0,0.6-0.1,0.9-0.3c0.2-0.2,0.3-0.5,0.3-0.7v-1.3
		C38.3-10.8,38.2-11.1,38-11.3z M33-8.9h-1.1v-1.5c0-0.3,0.2-0.5,0.5-0.5H33V-8.9z M37.6-9.4c0,0.3-0.2,0.4-0.5,0.4h-1.8V-10
		c0-0.1,0-0.2,0.1-0.3c0.1-0.1,0.2-0.1,0.3-0.2l1.2-0.4c0.1,0,0.2-0.1,0.3-0.1c0.1,0,0.2,0,0.3,0.1c0.1,0.1,0.1,0.2,0.1,0.3
		L37.6-9.4L37.6-9.4z"/>
</g>
</svg>
