<?xml version="1.0" encoding="utf-8"?>
<!-- Generator: Adobe Illustrator 24.1.2, SVG Export Plug-In . SVG Version: 6.00 Build 0)  -->
<svg version="1.1" id="Layer_1" xmlns="http://www.w3.org/2000/svg" xmlns:xlink="http://www.w3.org/1999/xlink" x="0px" y="0px"
	 viewBox="0 0 75 28" style="enable-background:new 0 0 75 28;" xml:space="preserve">
<style type="text/css">
	.st0{fill-rule:evenodd;clip-rule:evenodd;fill:#060607;}
	.st1{fill-rule:evenodd;clip-rule:evenodd;fill:none;}
	.st2{fill-rule:evenodd;clip-rule:evenodd;fill:#DD1F2D;}
</style>
<path class="st0" d="M59.7,9.5c-1.7,0.3-3,1.5-3.4,3.4c-0.2,0.8-0.1,2,0.2,2.8c0.1,0.4,0.5,1.1,0.8,1.4c0.7,0.8,1.7,1.2,3,1.2
	c0.6,0,0.8,0,1.2-0.2c0.6-0.2,1.3-0.6,1.7-0.9l0.3-0.2v-0.3c0-0.3,0-0.3-0.2-0.3c-0.1,0-0.3,0.1-0.5,0.3c-0.6,0.5-1.2,0.7-1.9,0.7
	c-0.8,0-1.3-0.2-1.8-0.6c-0.7-0.6-1-1.6-1-3c0-1.8,0.5-2.9,1.5-3.3c0.5-0.2,1.4-0.2,2.1,0.2c0.4,0.2,0.4,0.3,0.7,0.9l0.2,0.5l0.2,0
	l0.2,0l0-1c0-0.8,0-1-0.1-1c-0.2-0.1-1.4-0.4-2.2-0.5C60.2,9.4,60.3,9.4,59.7,9.5 M67.2,9.5c-1.7,0.3-2.8,1.4-3.3,3.3
	c-0.1,0.4-0.1,1.9,0,2.3c0.2,1,0.5,1.5,1.1,2.1c0.4,0.4,0.6,0.5,0.9,0.7c0.7,0.3,1,0.4,2,0.4c1,0,1.3-0.1,2-0.4
	c0.4-0.2,0.6-0.3,0.9-0.7c0.4-0.4,0.5-0.6,0.7-1c0.1-0.3,0.3-0.7,0.3-0.9c0-0.2,0.1-0.5,0.1-0.6c0-0.1,0-0.5,0-0.9
	c0-0.4,0-0.8,0-0.9c0-0.1-0.1-0.3-0.1-0.6c0-0.2-0.2-0.6-0.3-0.9c-0.2-0.4-0.3-0.6-0.7-0.9c-0.6-0.6-1.2-0.9-2.1-1.1
	C68.2,9.4,67.7,9.4,67.2,9.5 M35.3,9.9c0,0.2,0,0.2,0.6,0.4c0.5,0.1,0.5-0.2,0.5,3.8c0,3.9,0,5.2-0.2,5.4c-0.2,0.3-0.7,0.2-1.5-0.2
	c-0.2-0.1-0.5-0.2-0.5-0.2c-0.1,0-0.1,0-0.2,0.5c-0.1,0.3-0.1,0.5-0.1,0.6c0,0.1,0,0.2,0,0.2c0.1,0.1,0.5,0.2,0.9,0.2
	c1.5,0.2,2.8-0.7,3.3-2.3c0.1-0.4,0.1-0.5,0.1-4.1c0-3.7,0-3.8,0.1-3.8c0.1,0,0.3-0.1,0.5-0.2c0.4-0.1,0.4-0.1,0.4-0.3V9.7l-2,0
	l-2,0V9.9 M39.6,9.9c0,0.2,0,0.2,0.4,0.3c0.2,0.1,0.4,0.1,0.4,0.1c0,0,0.1,0,0.1,0.1c0.1,0.1,0.1,0.4,0.1,3.5c0,4,0.1,3.5-0.6,3.7
	c-0.4,0.1-0.4,0.1-0.4,0.3v0.2l3.6,0l3.6,0V17v-1.2h-0.2h-0.2l-0.2,0.7c-0.1,0.4-0.3,0.8-0.3,0.8l-0.1,0.1h-1.7h-1.7v-1.7
	c0-1.3,0-1.7,0.1-1.7c0.6,0,1.8,0,1.9,0.1c0,0,0.1,0.2,0.2,0.4c0.3,0.8,0.3,0.8,0.5,0.8h0.2v-1.5c0-1.7,0-1.6-0.3-1.6
	c-0.1,0-0.2,0.1-0.3,0.5c-0.3,0.7-0.2,0.7-1.3,0.7h-1l0-1.5c0-0.9,0-1.5,0-1.5c0,0,0.6-0.1,1.4-0.1c1.2,0,1.4,0,1.5,0.1
	c0.1,0.1,0.2,0.4,0.3,0.7s0.3,0.7,0.3,0.7c0,0,0.1,0.1,0.2,0c0.1,0,0.1,0,0.2,0c0,0,0-0.5,0-1.1V9.7H43h-3.4V9.9 M47.4,9.7
	c0,0,0,0.1,0,0.2c0,0.1,0.1,0.2,0.5,0.3c0.3,0.1,0.5,0.2,0.5,0.2c0,0.1,0.1,1.3,0.1,3.5v3.4l-0.1,0.1c-0.1,0.1-0.3,0.1-0.5,0.2
	c-0.3,0.1-0.4,0.1-0.4,0.2c0,0.1,0,0.2,0,0.2c0.1,0.1,0.3,0.1,2.4,0.1c2.4,0,2.6,0,3.3-0.3c1.2-0.4,2.1-1.4,2.4-2.6
	c0.2-0.8,0.2-2.2-0.1-2.8c-0.4-1.2-1.2-2-2.5-2.5c-0.3-0.1-0.7-0.2-0.9-0.2C51.6,9.6,47.5,9.7,47.4,9.7 M67.6,10.2
	c-0.4,0.1-0.7,0.3-1,0.6c-0.6,0.7-0.9,1.8-0.8,3.4c0.1,1.6,0.4,2.6,1.2,3.2c0.7,0.6,1.8,0.5,2.4-0.2c0.6-0.6,0.8-1.6,0.8-3
	c0-1.6-0.4-2.8-1-3.4C68.8,10.3,68.1,10.1,67.6,10.2 M50.3,10.4c0,0,0,1.6,0,3.6l0,3.5l0.8,0c1.2,0,1.8-0.2,2.2-0.9
	c0.4-0.6,0.6-1.3,0.6-2.4c0-1.1-0.2-2-0.7-2.7c-0.4-0.6-0.9-0.9-1.5-1.1C51.2,10.3,50.3,10.3,50.3,10.4"/>
<path class="st1" d="M59.7,9.5c-0.1,0-0.3,0.1-0.4,0.1c-0.1,0-0.1,0-0.1,0C59.3,9.6,59.5,9.6,59.7,9.5c0.4,0,0.7,0,1,0
	c0.2,0,0.4,0,0.4,0C61,9.4,60,9.4,59.7,9.5 M67.2,9.5c-0.5,0.1-0.5,0.1-0.5,0.1C66.8,9.6,67,9.6,67.2,9.5c0.6,0,1.2,0,2,0.1
	c0.1,0,0.1,0,0.1,0c0,0-0.2-0.1-0.5-0.1C68.4,9.4,67.6,9.4,67.2,9.5 M35.2,9.7c-0.1,0.3,0.1,0.4,0.6,0.5c0.2,0,0.2,0,0.1,0
	c-0.1,0-0.2-0.1-0.4-0.1c-0.2-0.1-0.2-0.1-0.2-0.3L35.2,9.7l2.1-0.1c1.1,0,2,0,2,0c0,0-0.9,0-2,0h-2L35.2,9.7 M39.5,9.9v0.2l0.3,0.1
	c0.2,0.1,0.3,0.1,0.4,0.1c0,0-0.1-0.1-0.3-0.1C39.6,10.1,39.6,10,39.5,9.9l0.1-0.2H43h3.4v1.1c0,0.7,0,1.1-0.1,1.1c0,0-0.1,0-0.2,0
	c-0.2,0-0.2,0-0.3-0.2c0-0.1-0.1-0.2-0.1-0.1c0,0,0,0.1,0,0.2c0.1,0.2,0.2,0.3,0.5,0.2l0.1,0v-1.1V9.6H43h-3.5V9.9 M47.4,9.7
	c0,0,1,0,2.1,0c1.2,0,2.3,0,2.6,0c0.3,0,0.7,0.1,1,0.2c0.6,0.2,0.7,0.2,0.3,0.1c-0.9-0.4-1.2-0.4-3.8-0.4
	C48.4,9.6,47.4,9.6,47.4,9.7 M58.8,9.7c-0.3,0.1-0.7,0.4-0.8,0.5c0,0,0.1,0,0.3-0.1c0.2-0.1,0.5-0.3,0.6-0.3
	c0.2-0.1,0.3-0.1,0.3-0.1C59.1,9.6,58.9,9.7,58.8,9.7 M62.1,9.7c0.1,0,0.4,0.1,0.5,0.1c0.2,0,0.3,0.1,0.3,0.1c0,0,0,0-0.1-0.1
	c-0.1,0-0.3-0.1-0.5-0.1c-0.2,0-0.3-0.1-0.4-0.1C61.9,9.6,62,9.6,62.1,9.7 M66.3,9.7c-0.8,0.3-1.5,1-1.9,1.7
	c-0.1,0.2-0.2,0.4-0.2,0.4c0,0,0.1-0.1,0.2-0.3c0.4-0.8,1.2-1.5,2.1-1.9c0.1,0,0.2-0.1,0.1-0.1C66.6,9.6,66.4,9.7,66.3,9.7 M63.1,10
	c0.1,0.1,0.1,0.3,0.1,1.1l0,1l-0.2,0c-0.2,0-0.2,0-0.1,0.1c0.1,0,0.2,0,0.3,0l0.1-0.1l0-1C63.2,10.1,63.2,9.9,63.1,10
	C63.1,9.9,63.1,9.9,63.1,10 M70.1,9.9c0,0,0.1,0.1,0.2,0.1c0.1,0.1,0.4,0.3,0.7,0.5c0.6,0.6,0.9,1.3,1.1,2.3c0,0.1,0,0.1,0.1,0.1
	c0,0-0.1-0.8-0.3-1.2c-0.2-0.5-0.5-0.9-0.8-1.3C70.7,10.2,70.1,9.8,70.1,9.9 M67.6,10.2c-0.4,0.1-0.3,0.1,0.3,0.1c0.3,0,0.6,0,0.6,0
	C68.4,10.1,67.8,10.1,67.6,10.2 M53.7,10.2c0,0,0.1,0.1,0.3,0.2c0.5,0.3,1,0.9,1.3,1.4c0.1,0.3,0.2,0.5,0.2,0.5c0,0,0,0.1,0.1,0.2
	c0.1,0.1,0-0.2-0.2-0.6c-0.3-0.7-0.8-1.2-1.4-1.6C53.8,10.2,53.7,10.1,53.7,10.2 M36.2,10.4c0.1,0,0.2,0.1,0.2,0.1c0,0,0,1.7,0,3.8
	l0,3.7l0-3.7c0-3.7,0-3.7-0.1-3.8C36.2,10.3,36.1,10.3,36.2,10.4C36,10.3,36.1,10.3,36.2,10.4 M38.3,10.4c-0.1,0.1-0.1,0.2-0.1,3.8
	c0,2.1,0,3.8-0.1,3.9c0,0.1,0,0.1,0,0c0.1-0.1,0.1-0.9,0.1-3.9l0-3.8L38.3,10.4C38.5,10.3,38.5,10.2,38.3,10.4 M48.2,10.3
	c0.1,0,0.1,0.1,0.1,0.1c0,0,0,1.6,0,3.5c0,3.3,0,3.4-0.1,3.5c-0.1,0.1-0.2,0.1-0.2,0.1c-0.2,0-0.7,0.2-0.7,0.3c0,0.1,0,0.1,0,0
	c0,0,0.2-0.1,0.4-0.2c0.7-0.2,0.6,0.2,0.6-3.7c0-3.4,0-3.4-0.1-3.5C48.3,10.3,48.2,10.3,48.2,10.3C48.2,10.3,48.2,10.3,48.2,10.3
	 M57.5,10.6c-0.9,0.9-1.3,2-1.3,3.4c0,0.6,0.1,1.4,0.2,1.5c0,0,0,0,0-0.1c-0.1-0.6-0.1-0.8-0.1-1.4c0-0.7,0.1-1.3,0.3-1.8
	C56.9,11.5,57.1,11.2,57.5,10.6c0.2-0.1,0.4-0.3,0.3-0.3C57.8,10.3,57.7,10.4,57.5,10.6 M59.6,10.4c-0.5,0.3-1,0.9-1.1,1.4
	c0,0.2,0,0.2,0,0c0.3-0.6,0.4-0.8,0.5-1c0.2-0.3,0.5-0.4,0.9-0.6c0.2-0.1,0.2-0.1,0.2-0.1C60,10.3,59.8,10.3,59.6,10.4 M60.9,10.3
	c0.2,0.1,0.6,0.2,0.9,0.3c0.1,0,0.1,0,0.1,0C61.8,10.5,61.2,10.3,60.9,10.3l-0.2-0.1L60.9,10.3 M66.9,10.4c-0.4,0.3-0.8,0.9-1,1.6
	c-0.1,0.4-0.2,1.2-0.2,1.3c0,0.1,0-0.1,0.1-0.3c0.1-1.1,0.4-1.9,0.9-2.4c0.2-0.2,0.3-0.3,0.4-0.3c0,0,0.1,0,0.1-0.1
	C67.3,10.2,67.1,10.3,66.9,10.4 M68.8,10.4c0.4,0.2,0.7,0.6,0.9,1c0.1,0.2,0.2,0.3,0.2,0.2c-0.1-0.2-0.3-0.6-0.5-0.9
	c-0.2-0.2-0.6-0.5-0.7-0.5C68.6,10.3,68.7,10.3,68.8,10.4 M42.5,10.4c0,0,0,0.6,0,1.5l0,1.5h1c1.1,0,1,0.1,1.3-0.7
	c0.1-0.4,0.2-0.5,0.3-0.5c0.3-0.1,0.3-0.1,0.3,1.6v1.5h-0.2c-0.2,0-0.2,0-0.2-0.1c-0.1-0.2-0.1-0.2,0,0c0.1,0.1,0.1,0.2,0.3,0.2h0.2
	l0-1.6l0-1.6l-0.2,0c-0.1,0-0.2,0-0.2,0c0,0-0.2,0.3-0.3,0.6l-0.2,0.5l-0.9,0l-0.9,0v-1.5L42.5,10.4l1.4,0l1.4,0l-1.4,0
	C43.1,10.3,42.5,10.3,42.5,10.4 M50.3,10.4c0,0,0,1.6,0,3.6l0,3.5l0.8,0c0.9,0,1.3-0.1,1.7-0.3c0.3-0.2,0.5-0.5,0.7-0.7
	c0,0,0,0-0.1,0.1c-0.3,0.4-0.6,0.6-0.9,0.8c-0.3,0.2-0.4,0.2-1.2,0.2l-0.9,0v-3.5L50.3,10.4l0.6,0l0.6,0l-0.6,0
	C50.4,10.3,50.3,10.3,50.3,10.4 M51.7,10.4c0.4,0.1,0.9,0.4,1.2,0.7c0.3,0.3,0.6,0.9,0.7,1.3c0,0.1,0.1,0.2,0.1,0.2
	c0-0.1-0.3-0.8-0.5-1.2C52.8,10.9,52.2,10.5,51.7,10.4l-0.2-0.1L51.7,10.4 M62,10.8c0.1,0.1,0.2,0.3,0.4,0.7
	c0.1,0.3,0.2,0.5,0.3,0.5c0,0-0.3-0.9-0.4-1.1C62.2,10.8,62.1,10.7,62,10.8C61.9,10.7,61.9,10.7,62,10.8 M64,12.3
	c-0.1,0.2-0.1,0.4-0.1,0.5c0,0.1,0,0,0.1-0.2c0-0.2,0.1-0.4,0.1-0.5c0-0.1,0-0.2,0-0.2C64.1,12,64.1,12.1,64,12.3 M58.4,12.1
	c0,0,0,0.2-0.1,0.5c-0.1,0.6-0.1,1.8,0,2.4c0,0.2,0.1,0.4,0.1,0.5c0,0,0-0.1-0.1-0.5c-0.1-0.5-0.1-1.8,0-2.3
	C58.4,12.3,58.4,12.1,58.4,12.1C58.4,12.1,58.4,12.1,58.4,12.1 M70,12.5c0,0.2,0.1,0.4,0.1,0.5c0.1,0.2,0.1,1.8,0,2.1
	c-0.1,0.3-0.1,0.7-0.1,0.7c0,0,0.1-0.2,0.1-0.5c0.1-0.6,0.1-1.9,0-2.5C70.1,12.2,70,12,70,12.5 M63.8,13.2c0,0.3,0,1.4,0,1.6
	c0,0.1,0-0.3,0-0.8c0-0.5,0-1,0-1C63.9,12.9,63.8,13,63.8,13.2 M53.8,14.1c0,0.4,0,0.6,0,0.4c0-0.2,0-0.6,0-0.8
	C53.8,13.5,53.8,13.7,53.8,14.1 M55.8,13.9c0,0.3,0,0.4,0,0.3c0-0.2,0-0.4,0-0.6C55.8,13.5,55.8,13.6,55.8,13.9 M65.8,14.2
	c0,1.5,0.4,2.5,1.2,3.1c0.7,0.6,1.8,0.5,2.4-0.2c0.2-0.2,0.5-0.8,0.6-1.1c0.1-0.3,0-0.2-0.1,0.1c-0.1,0.3-0.4,0.7-0.6,0.9
	c-0.5,0.5-1.1,0.7-1.7,0.5C66.5,17.2,65.9,16.2,65.8,14.2l0-0.8L65.8,14.2 M42.5,14.1c0,0-0.1,0.6-0.1,1.7v1.7h1.7h1.7l0.1-0.1
	c0-0.1,0.1-0.2,0.1-0.3c0-0.1,0-0.1-0.1,0.1c0,0.1-0.1,0.2-0.1,0.2c0,0-0.8,0-1.7,0l-1.7,0v-1.6L42.5,14.1l0.9,0.1
	c0.7,0,0.9,0,1,0.1c0,0,0.1,0.2,0.2,0.4c0.1,0.2,0.1,0.3,0.1,0.3c0,0-0.3-0.7-0.3-0.8C44.3,14.1,42.6,14,42.5,14.1 M72.1,14.8
	c0,0.2-0.1,0.7-0.2,0.8c0,0.1,0,0.1,0,0c0.1-0.1,0.3-0.9,0.2-0.9C72.1,14.7,72.1,14.8,72.1,14.8 M63.9,15.2c0.1,0.8,0.7,1.7,1.3,2.3
	c0.3,0.2,1,0.6,1.1,0.6c0,0-0.1-0.1-0.4-0.2c-0.6-0.3-1.3-1-1.6-1.6C64.2,16,64.1,15.8,63.9,15.2C63.9,14.9,63.9,14.9,63.9,15.2
	 M53.7,15.3c0,0.2-0.1,0.4-0.2,0.6c-0.1,0.4-0.1,0.5,0,0.2c0.1-0.3,0.3-0.9,0.2-1C53.8,15,53.7,15.1,53.7,15.3 M55.6,15.4
	c0,0.1-0.1,0.3-0.2,0.5c-0.5,1.1-1.4,1.8-2.9,2.2l-0.3,0.1l0.3,0c0.9-0.1,2.1-0.8,2.6-1.6C55.4,16.1,55.7,15.4,55.6,15.4
	C55.6,15.3,55.6,15.3,55.6,15.4 M58.5,15.6c0.1,0.3,0.3,0.8,0.6,1c0.5,0.5,1.1,0.8,1.9,0.8c0.7,0,1.3-0.2,1.9-0.7
	c0.2-0.2,0.4-0.3,0.5-0.3c0.1,0,0.2,0,0.2,0.3V17l-0.3,0.2c-0.4,0.3-1.1,0.7-1.7,0.9c-0.4,0.1-0.5,0.2-1.2,0.1c-0.5,0-0.8,0-1.1-0.1
	c-0.2,0-0.3-0.1-0.3-0.1c0,0,0,0,0.1,0.1c0.1,0,0.2,0.1,0.3,0.1c0.1,0,0.5,0.1,0.9,0.1c0.7,0,0.8,0,1.2-0.2c0.6-0.2,1.1-0.5,1.7-0.8
	l0.4-0.3l0-0.4l0-0.4l-0.2,0c-0.1,0-0.3,0.1-0.5,0.3c-0.6,0.5-1.3,0.8-2.1,0.7c-1-0.1-1.7-0.5-2.1-1.4
	C58.5,15.6,58.4,15.5,58.5,15.6 M46.4,15.8c-0.1,0.1-0.4,1.1-0.3,1.1c0,0,0.1-0.2,0.2-0.6L46.4,15.8l0.3,0h0.2V17v1.2l-3.6,0l-3.6,0
	V18c0-0.2,0-0.2,0.4-0.3c0.4-0.1,0.6-0.2,0.6-0.3c0,0-0.1,0-0.1,0.1c-0.1,0.1-0.2,0.1-0.2,0.1c-0.1,0-0.2,0-0.4,0.1
	c-0.2,0.1-0.3,0.1-0.3,0.1c0,0,0,0.1,0,0.2l0,0.2h3.7h3.7l0-1.2l0-1.2h-0.2C46.6,15.7,46.5,15.8,46.4,15.8 M71.6,16.2
	c-0.3,0.7-1,1.3-1.6,1.7c-0.3,0.1-0.4,0.2-0.4,0.2c0,0,0.2-0.1,0.4-0.2C70.7,17.6,71.3,17,71.6,16.2c0.2-0.3,0.3-0.5,0.3-0.5
	C71.8,15.8,71.7,16,71.6,16.2 M56.6,15.9c0,0.1,0.3,0.6,0.5,0.9c0.3,0.5,1.2,1.1,1.6,1.3c0.1,0,0,0-0.2-0.2
	c-0.8-0.4-1.2-0.9-1.6-1.6C56.7,16.1,56.6,15.9,56.6,15.9 M47.4,18.1c0,0.1,0.3,0.1,2.2,0.1c1.2,0,2.2,0,2.3,0c0.1,0-0.8,0-2.1,0
	C48,18.2,47.5,18.2,47.4,18.1C47.4,18.1,47.4,18.1,47.4,18.1 M66.5,18.2c0.2,0.2,2.1,0.3,2.7,0.1c0.4-0.1,0.4-0.2,0,0
	c-0.4,0.1-1.8,0.1-2.2,0C66.8,18.2,66.6,18.2,66.5,18.2C66.5,18.1,66.5,18.1,66.5,18.2 M36.3,18.9c0,0.2-0.1,0.5-0.1,0.6
	c-0.1,0.1-0.1,0.1-0.4,0.1c-0.3,0-0.9-0.2-1.2-0.5C34.4,19,34.1,18.9,34,19c0,0,0,0.1-0.1,0.3l0,0.2l0.1-0.2c0.1-0.3,0.2-0.3,0.7,0
	c0.5,0.3,0.9,0.4,1.1,0.4C36.2,19.6,36.3,19.4,36.3,18.9c0.1-0.2,0.1-0.4,0.1-0.4C36.3,18.5,36.3,18.6,36.3,18.9 M37.7,19
	c-0.3,0.6-0.8,1.1-1.3,1.3c-0.4,0.2-0.4,0.2,0,0.1c0.3-0.1,0.8-0.6,1.1-0.9c0.2-0.3,0.5-0.9,0.5-0.9C37.9,18.6,37.8,18.8,37.7,19
	 M33.9,19.7c0,0.1-0.1,0.3-0.1,0.4c-0.1,0.3,0,0.4,0.3,0.4l0.2,0l-0.2-0.1c-0.2-0.1-0.3-0.2-0.3-0.3c0.1-0.1,0.1-0.6,0.1-0.6
	C33.9,19.6,33.9,19.6,33.9,19.7 M34.4,20.6c0.1,0.1,1.3,0.1,1.4,0c0.1-0.1,0.1-0.1-0.1,0C35.5,20.6,34.7,20.6,34.4,20.6
	C34.3,20.5,34.3,20.5,34.4,20.6"/>
<g>
	<path class="st2" d="M16.2,0.4c0,0.1,0,0.2-0.1,0.2l-0.1,0.1L16,0.7c0.1,0.1,0.1,0.1,0.1,0.2c0,0.1,0,0.1,0.1,0.1
		c0.1,0,0.1,0,0.2,0c0,0.1,0.2,0.1,0.2,0c0,0,0.1-0.1,0.1-0.1c0.2,0,0.2,0,0.1-0.2c0-0.1,0-0.1,0-0.2c0.1-0.1,0.1-0.1,0-0.1
		c0,0-0.1,0-0.1-0.1c0,0-0.1,0-0.1-0.1c0-0.1-0.1-0.1-0.3-0.1C16.2,0.2,16.2,0.2,16.2,0.4"/>
	<path class="st2" d="M14.3,0.5c0,0,0,0.1,0,0.2c0,0.2,0,0.2-0.2,0.2c-0.1,0-0.2,0-0.2,0.1c-0.1,0-0.1,0.1,0.1,0.2
		c0.2,0.2,0.2,0.2,0,0.4c-0.2,0.2-0.1,0.2,0.1,0.2c0.3,0,0.4,0.1,0.4,0.3c0,0.2,0.1,0.1,0.2,0c0.2-0.3,0.2-0.3,0.3-0.2
		C15.3,2,15.4,2,15.2,1.7c-0.1-0.2-0.1-0.2,0.1-0.3c0.2-0.1,0.2-0.2,0-0.3c-0.2,0-0.2-0.1-0.2-0.3c0-0.1,0-0.3,0-0.3
		c0,0-0.1,0.1-0.2,0.1l-0.2,0.1l-0.1-0.2C14.4,0.5,14.4,0.5,14.3,0.5"/>
	<path class="st2" d="M22.5,1.5c0,0.1-0.1,0.1-0.1,0.2c-0.1,0.1-0.1,0.1-0.3,0c-0.2-0.1-0.3-0.1-0.2,0.1C22,2.1,22,2.1,21.8,2.2
		c-0.3,0.1-0.2,0.2,0.1,0.3c0.2,0,0.2,0.1,0.1,0.4c0,0.2,0,0.2,0.3,0l0.2-0.1l0.1,0.2c0.2,0.2,0.3,0.2,0.3-0.1c0-0.2,0-0.2,0.2-0.2
		c0.1,0,0.2,0,0.2-0.1c0,0-0.1-0.1-0.2-0.2L23,2.2L23.1,2c0.2-0.2,0.1-0.3-0.1-0.3c-0.2,0-0.2,0-0.3-0.2C22.6,1.4,22.5,1.3,22.5,1.5
		"/>
	<path class="st2" d="M20.1,2.1c-0.2,0.3-0.2,0.3-0.5,0.2c-0.1-0.1-0.3-0.1-0.3-0.1c0,0,0,0.2,0.1,0.3c0.1,0.1,0.1,0.3,0.1,0.3
		c0,0-0.1,0.1-0.3,0.2C19.1,3.1,19,3.2,19,3.2c0,0,0.2,0.1,0.3,0.1c0.3,0.1,0.3,0.1,0.3,0.2c-0.1,0.6-0.1,0.6,0.3,0.4l0.2-0.2
		L20.3,4c0.3,0.3,0.3,0.3,0.3-0.2l0-0.3H21c0.2,0,0.3,0,0.4,0c0,0-0.1-0.1-0.2-0.3L20.8,3L21,2.7c0.2-0.3,0.2-0.4,0-0.4
		c-0.5,0.1-0.5,0.1-0.5-0.1c0-0.1-0.1-0.3-0.1-0.3C20.4,1.8,20.2,1.9,20.1,2.1"/>
	<path class="st2" d="M24.3,2.2c0,0.1-0.1,0.1-0.2,0c-0.1,0-0.1,0-0.1,0.1c0,0.1,0,0.2-0.1,0.2c-0.1,0.1-0.1,0.1,0,0.1
		C24,2.7,24,2.8,24,2.9C24,3,24,3,24.2,3c0.1-0.1,0.1-0.1,0.2,0c0.1,0.1,0.2,0,0.2-0.1c0,0,0-0.1,0.1-0.1c0.1,0,0.2-0.1,0.1-0.2
		c0,0,0-0.1,0-0.2c0-0.2,0-0.2-0.1-0.1c-0.1,0-0.1,0-0.2-0.1C24.4,2.1,24.3,2.1,24.3,2.2"/>
	<path class="st2" d="M12.9,2.2c0,0,0,0.2,0,0.3c0,0.3,0,0.3-0.4,0.4c-0.3,0-0.3,0.1,0,0.3l0.2,0.2l-0.2,0.3c-0.2,0.3-0.2,0.4,0,0.3
		c0.1,0,0.2,0,0.3-0.1C13,3.9,13,3.9,13,4c0.1,0.2,0.2,0.5,0.2,0.5c0,0,0.1-0.1,0.2-0.3s0.2-0.3,0.2-0.3s0.2,0,0.3,0.1
		c0.1,0.1,0.3,0.1,0.3,0.1c0.1,0,0-0.2-0.1-0.4C14,3.7,14,3.6,14,3.5c0,0,0.1-0.1,0.3-0.2c0.2-0.1,0.3-0.2,0.3-0.2S14.4,3.1,14.2,3
		c-0.2,0-0.3-0.1-0.3-0.1c0,0,0-0.2,0-0.3c0-0.1,0-0.3,0-0.3c0,0-0.2,0-0.3,0.1l-0.3,0.2l-0.2-0.2C12.9,2.1,12.9,2.1,12.9,2.2"/>
	<path class="st2" d="M8.9,3c0,0.1,0,0.1-0.1,0.1c-0.1,0-0.2,0.1-0.1,0.2c0.1,0.1,0.1,0.1,0,0.1c-0.1,0.1-0.1,0.2,0,0.2
		c0.1,0,0.1,0.1,0.2,0.2C9,3.9,9,3.9,9,3.8c0.1-0.1,0.1-0.1,0.2,0c0.1,0.1,0.1,0.1,0.1,0c0,0,0-0.1,0-0.1c0,0,0-0.1,0.1-0.1
		c0.1-0.1,0.1-0.1,0-0.2c-0.1,0-0.1-0.1-0.1-0.2C9.4,3,9.4,3,9.3,3c-0.1,0-0.1,0-0.2,0C9.1,2.8,8.9,2.8,8.9,3"/>
	<path class="st2" d="M18.3,3.8c0,0-0.1,0.2-0.2,0.4c-0.1,0.2-0.2,0.3-0.2,0.4c0,0-0.2,0-0.5-0.1C17.2,4.3,17,4.2,17,4.2
		c0,0,0.2,0.6,0.3,0.7c0.1,0.1,0,0.2-0.4,0.4c-0.2,0.1-0.4,0.2-0.4,0.3c0,0,0.1,0.1,0.2,0.1c0.1,0,0.4,0.1,0.5,0.1
		c0.2,0,0.2,0.1,0.2,0.2c0,0.2-0.1,0.8-0.1,0.8c0,0.1,0.1,0,0.5-0.2L18,6.3l0.2,0.2c0.4,0.5,0.4,0.5,0.5,0.4c0,0,0.1-0.3,0.1-0.5
		l0-0.4h0.5c0.3,0,0.5,0,0.5-0.1c0,0-0.1-0.2-0.3-0.4l-0.3-0.3L19.3,5c0.2-0.2,0.3-0.4,0.2-0.4c0,0-0.2,0-0.3,0
		c-0.6,0.1-0.6,0.1-0.7-0.3C18.4,3.8,18.3,3.7,18.3,3.8"/>
	<path class="st2" d="M7.8,4.3c0,0.2-0.1,0.2-0.3,0.2c-0.1,0-0.2,0-0.3,0c0,0,0,0.1,0.1,0.2l0.1,0.2L7.4,5C7.2,5.2,7.2,5.3,7.5,5.3
		c0.2,0,0.2,0,0.3,0.2c0,0.2,0.1,0.3,0.2,0.2c0,0,0.1-0.1,0.1-0.2l0.1-0.1l0.1,0.1c0.2,0.1,0.3,0.2,0.3,0C8.5,5.2,8.5,5.2,8.7,5.1
		C9,5,9,4.9,8.8,4.8C8.6,4.7,8.5,4.7,8.6,4.5c0-0.1,0-0.1,0-0.2c0-0.1-0.1-0.1-0.2,0C8.3,4.4,8.2,4.4,8.1,4.2C8,4,7.9,4,7.8,4.3"/>
	<path class="st2" d="M12.3,4.9c0,0,0,0.2,0,0.5v0.4l-0.4,0c-0.2,0-0.5,0.1-0.5,0.1c0,0,0.1,0.2,0.3,0.3C11.8,6.5,12,6.6,12,6.6
		S11.8,6.8,11.7,7c-0.1,0.2-0.2,0.4-0.2,0.4c0,0,0.6-0.1,0.8-0.1c0.1,0,0.1,0,0.2,0.4c0.1,0.2,0.2,0.5,0.2,0.5c0,0,0.1-0.2,0.3-0.4
		c0.2-0.5,0.2-0.5,0.7-0.2c0.2,0.1,0.4,0.1,0.4,0.1c0,0-0.2-0.6-0.3-0.7c-0.1-0.1,0-0.1,0.5-0.4c0.1-0.1,0.2-0.1,0.2-0.2
		c0-0.1-0.2-0.1-0.6-0.2C13.8,6,13.7,6,13.7,6c0,0,0-0.1,0-0.3C13.8,5.3,13.8,5,13.8,5c-0.1,0-0.4,0.2-0.6,0.4L13,5.6l-0.1-0.2
		C12.4,4.9,12.3,4.9,12.3,4.9"/>
	<path class="st2" d="M7.6,6.4c0,0.1-0.1,0.3-0.1,0.3c0,0.1-0.1,0.1-0.3,0c-0.3,0-0.3,0-0.3,0c0,0,0,0.1,0.1,0.1
		c0,0,0.1,0.1,0.2,0.2l0.1,0.2L7,7.5C6.9,7.6,6.8,7.8,6.8,7.8c0,0,0.2,0.1,0.3,0.1l0.3,0l0,0.3c0,0.2,0,0.3,0.1,0.3
		c0,0,0.2-0.1,0.3-0.2L8.1,8l0.3,0.2c0.3,0.2,0.4,0.2,0.3-0.1C8.5,7.8,8.6,7.7,8.7,7.6c0.1,0,0.2-0.1,0.2-0.1s0.1,0,0.2-0.1
		c0.1-0.1,0.1-0.1-0.2-0.2C8.6,7.1,8.6,7.1,8.6,7c0.1-0.3,0.2-0.6,0.1-0.6c0,0-0.1,0-0.3,0.1C8.3,6.6,8.2,6.7,8.2,6.7
		c0,0-0.1-0.1-0.2-0.3S7.8,6.1,7.8,6.1S7.7,6.2,7.6,6.4"/>
	<path class="st2" d="M26.2,6.7l0,0.3l-0.3,0c-0.3,0-0.3,0-0.3,0.1c0,0.1,0,0.1,0,0.1c0,0,0.1,0.1,0.2,0.2L26,7.6l-0.2,0.2
		c-0.1,0.1-0.2,0.3-0.2,0.3c0,0.1,0.2,0,0.6,0c0.1,0,0.1,0,0.2,0.3c0,0.2,0.1,0.3,0.1,0.3c0,0,0.1-0.1,0.2-0.3l0.1-0.3l0.3,0.1
		c0.2,0.1,0.3,0.1,0.3,0.1c0,0,0-0.1-0.1-0.3c-0.1-0.1-0.1-0.3-0.1-0.3c0,0,0.1-0.1,0.2-0.2c0.3-0.2,0.3-0.3-0.1-0.3
		c-0.3-0.1-0.3-0.1-0.2-0.5c0-0.1,0-0.2,0-0.3c0,0-0.2,0-0.3,0.2l-0.3,0.2l-0.2-0.2c-0.1-0.1-0.2-0.2-0.3-0.2
		C26.2,6.4,26.2,6.5,26.2,6.7"/>
	<path class="st2" d="M22.7,6.9v0.5l-0.4,0c-0.4,0-0.6,0.1-0.6,0.1c0,0,0.2,0.2,0.4,0.3c0.2,0.1,0.4,0.3,0.4,0.3
		c0,0-0.1,0.2-0.3,0.4c-0.1,0.2-0.2,0.4-0.2,0.4c0,0,0.5,0,0.8-0.1c0.1,0,0.1,0,0.2,0.4c0.1,0.2,0.2,0.4,0.2,0.4
		c0,0,0.1-0.2,0.2-0.4c0.1-0.2,0.2-0.4,0.3-0.4c0,0,0.2,0.1,0.4,0.1c0.6,0.3,0.6,0.3,0.4-0.3c-0.1-0.2-0.2-0.4-0.2-0.4
		c0,0,0.2-0.2,0.4-0.3C24.8,7.9,25,7.8,25,7.7c0,0-0.2-0.1-0.4-0.2l-0.4-0.1l0-0.3c0-0.2,0-0.4,0.1-0.5c0.1-0.2,0-0.2-0.5,0.1
		l-0.4,0.3l-0.3-0.3c-0.2-0.2-0.3-0.3-0.4-0.3C22.7,6.4,22.7,6.5,22.7,6.9"/>
	<path class="st2" d="M28.3,7.8V8h-0.2c-0.3,0-0.3,0.1-0.1,0.3l0.2,0.2l-0.1,0.2c-0.2,0.2-0.2,0.3,0.1,0.3c0.2,0,0.2,0,0.3,0.2
		c0,0.1,0.1,0.2,0.1,0.2c0,0,0.1-0.1,0.2-0.2c0.1-0.1,0.1-0.2,0.1-0.2c0,0,0.1,0,0.2,0.1C29.2,9,29.3,9,29.4,9c0,0,0-0.1-0.1-0.2
		c-0.1-0.3-0.1-0.3,0.1-0.4c0.1,0,0.2-0.1,0.2-0.1c0,0,0-0.1,0-0.1c0,0-0.1-0.1-0.2-0.1c-0.2,0-0.2,0-0.2-0.3c0-0.3,0-0.3-0.2-0.1
		c-0.2,0.1-0.2,0.1-0.4,0C28.4,7.5,28.3,7.5,28.3,7.8"/>
	<path class="st2" d="M17.2,8.3c-0.1,0.2-0.3,0.5-0.3,0.5c0,0-0.2,0-0.5-0.1c-0.2-0.1-0.5-0.2-0.5-0.2c-0.2-0.1-0.2,0,0,0.6
		c0.1,0.3,0.2,0.6,0.2,0.6c0,0-0.3,0.2-0.5,0.3c-0.3,0.1-0.5,0.2-0.5,0.3c-0.1,0,0.2,0.2,0.7,0.3l0.5,0.1l0,0.3
		c0,0.1-0.1,0.4-0.1,0.6s-0.1,0.3,0,0.4c0,0,0.3-0.1,0.5-0.3c0.3-0.2,0.5-0.3,0.5-0.3c0,0,0.2,0.2,0.4,0.4c0.2,0.2,0.4,0.4,0.4,0.4
		c0.1,0,0.1-0.1,0.1-0.6l0-0.6l0.6,0c0.3,0,0.6,0,0.6-0.1c0,0-0.2-0.2-0.7-0.7l-0.2-0.1l0.4-0.5c0.2-0.3,0.3-0.5,0.3-0.5
		c0,0-0.1,0-0.2,0c-0.3,0.1-1,0.2-1,0.2c0,0-0.2-0.6-0.2-0.9c0-0.1-0.1-0.2-0.1-0.2C17.5,7.9,17.3,8.1,17.2,8.3"/>
	<path class="st2" d="M9,8.5c0,0,0,0.2-0.1,0.4c0,0.2-0.1,0.4-0.1,0.4c0,0-0.1,0-0.3,0c-0.5-0.1-0.6-0.1-0.6,0c0,0,0.1,0.2,0.3,0.4
		l0.3,0.3l-0.3,0.3c-0.2,0.2-0.3,0.3-0.3,0.4c0,0,0.2,0,0.5,0.1l0.5,0l0,0.5c0,0.3,0.1,0.5,0.1,0.5c0,0,0.2-0.1,0.3-0.3
		c0.1-0.2,0.3-0.3,0.3-0.3c0,0,0.2,0.1,0.4,0.2c0.4,0.3,0.5,0.3,0.4,0.1c-0.1-0.4-0.2-0.8-0.1-0.8c0,0,0.2-0.1,0.4-0.2
		c0.2-0.1,0.4-0.1,0.4-0.2s-0.2-0.1-0.4-0.2s-0.4-0.2-0.4-0.3c0,0,0.1-0.2,0.1-0.4c0.1-0.4,0.2-0.5,0.1-0.5c0,0-0.2,0.1-0.4,0.2
		C9.7,9.2,9.7,9.3,9.6,9.2c0,0-0.1-0.2-0.2-0.4C9.2,8.5,9.1,8.4,9,8.5"/>
	<path class="st2" d="M29.6,9.6c0,0.1,0,0.1-0.1,0.2c-0.1,0.1-0.1,0.1,0,0.1c0.1,0.1,0.1,0.1,0.1,0.2c-0.1,0.2,0,0.2,0.1,0.1
		c0.1,0,0.1,0,0.2,0c0.1,0.1,0.2,0.1,0.2,0c0-0.1,0.1-0.1,0.1-0.1c0.1,0.1,0.2,0,0.1-0.1c0-0.1,0-0.1,0-0.2c0.1-0.1,0-0.2-0.1-0.2
		c0,0-0.1,0-0.1,0c0,0,0-0.1,0-0.1c0-0.1-0.1-0.1-0.2,0c-0.1,0.1-0.1,0.1-0.2,0C29.7,9.4,29.6,9.5,29.6,9.6"/>
	<path class="st2" d="M3.9,10.6C4,10.7,4,10.7,4,10.8c0,0.2,0,0.2,0.1,0.1c0.1-0.1,0.1-0.1,0.2,0c0.1,0.1,0.2,0.1,0.2,0
		c0-0.1,0.1-0.1,0.1-0.1c0.1,0,0.1,0,0.1-0.1c0-0.1,0-0.2,0-0.2c0.1-0.1,0.1-0.1-0.1-0.2c-0.1,0-0.1-0.1-0.1-0.1
		c0-0.1-0.1-0.1-0.2,0c-0.1,0.1-0.1,0.1-0.2,0C4,10.1,4,10.1,4,10.2"/>
	<path class="st2" d="M4,10.2c0,0.1-0.1,0.2-0.1,0.2"/>
	<path class="st2" d="M12.8,10.7c0,0.1-0.1,0.2-0.1,0.3c0,0.1-0.1,0.3-0.1,0.5l-0.1,0.3l-0.3,0c-0.2,0-0.4-0.1-0.5-0.1
		c-0.3-0.1-0.4-0.1-0.4,0c0,0,0.2,0.3,0.4,0.5l0.4,0.5L11.7,13c-0.2,0.2-0.4,0.4-0.4,0.5c0,0.1,0.1,0.1,0.6,0l0.6,0l0.1,0.6
		c0,0.3,0.1,0.6,0.1,0.6c0,0,0.2-0.2,0.4-0.5c0.2-0.3,0.4-0.5,0.4-0.5c0,0,0.3,0.1,0.5,0.3c0.5,0.3,0.6,0.3,0.6,0.3
		c0,0-0.1-0.3-0.1-0.6c-0.1-0.3-0.1-0.5-0.1-0.6c0,0,0.3-0.1,0.6-0.2c0.5-0.2,0.7-0.3,0.4-0.3c-0.2-0.1-1-0.4-1-0.5
		c0,0,0.1-0.2,0.2-0.5c0.2-0.4,0.2-0.7,0.2-0.7c0,0-0.3,0.1-0.6,0.3c-0.4,0.2-0.6,0.3-0.6,0.2c0,0-0.2-0.3-0.3-0.5
		C13.1,10.8,13,10.6,12.8,10.7C12.9,10.6,12.9,10.6,12.8,10.7"/>
	<path class="st2" d="M20.5,11.1c0,0,0,0.3,0,0.6v0.6l-0.6,0c-0.4,0-0.6,0.1-0.6,0.1c0,0,0.2,0.2,0.4,0.4c0.2,0.2,0.4,0.4,0.4,0.4
		c0,0-0.2,0.3-0.3,0.5c-0.4,0.5-0.4,0.6,0,0.5c0.7-0.2,0.9-0.2,1-0.1c0,0.1,0.1,0.1,0.1,0.2c0,0.2,0.2,0.8,0.3,0.9
		c0,0,0.2-0.2,0.3-0.4c0.3-0.7,0.3-0.6,0.7-0.5c0.2,0.1,0.5,0.2,0.6,0.2c0.1,0,0.2,0.1,0.2,0.1c0,0-0.1-0.3-0.2-0.6
		c-0.1-0.3-0.2-0.6-0.2-0.6c0,0,0.2-0.1,0.5-0.3c0.3-0.2,0.5-0.3,0.5-0.3c0,0-0.2-0.1-0.5-0.2c-0.2-0.1-0.5-0.1-0.6-0.1
		c-0.1,0-0.1,0-0.1-0.3c0-0.2,0.1-0.4,0.1-0.6c0-0.2,0-0.3,0-0.3c0,0-0.2,0.1-0.5,0.3c-0.3,0.2-0.5,0.4-0.5,0.4c0,0-0.2-0.2-0.4-0.4
		C20.6,11,20.5,11,20.5,11.1"/>
	<path class="st2" d="M25.2,11.7v0.5l-0.2,0c-0.1,0-0.4,0-0.5,0.1c-0.1,0-0.2,0.1-0.2,0.1c0,0,0.2,0.2,0.4,0.3
		c0.2,0.2,0.3,0.3,0.3,0.4c0,0-0.1,0.2-0.3,0.4c-0.1,0.2-0.2,0.3-0.2,0.4c0,0,0.6-0.1,0.8-0.1c0.1,0,0.1,0,0.2,0.4
		c0.1,0.3,0.2,0.5,0.2,0.5c0,0,0.1-0.2,0.2-0.4c0.1-0.2,0.2-0.4,0.2-0.4c0,0,0.2,0,0.7,0.2C27,14,27,14,27.1,14c0.1,0,0-0.2-0.1-0.5
		c-0.2-0.4-0.2-0.4,0.3-0.7c0.2-0.1,0.3-0.2,0.3-0.2c0,0-0.1-0.1-0.7-0.2l-0.3-0.1l0-0.2c0.1-0.5,0.1-0.8,0.1-0.8
		c0,0-0.2,0.1-0.4,0.3c-0.2,0.1-0.4,0.3-0.4,0.3c0,0-0.2-0.1-0.3-0.3c-0.2-0.2-0.3-0.3-0.3-0.3C25.3,11.2,25.2,11.4,25.2,11.7"/>
	<path class="st2" d="M3.8,13.1c0,0,0.1,0,0.2-0.1l0.2-0.1l0.1,0.2c0.1,0.1,0.1,0.2,0.2,0.2c0,0,0.1-0.1,0.1-0.2l0.1-0.2l0.2,0
		c0.3,0,0.3,0,0.1-0.2L5,12.5l0.2-0.2c0.2-0.2,0.1-0.3-0.1-0.3c-0.2,0-0.2-0.1-0.2-0.3c0-0.2-0.1-0.2-0.2,0"/>
	<path class="st2" d="M3.7,12.5c0.3,0.1,0.3,0.1,0.2,0.3"/>
	<path class="st2" d="M4.5,11.8l-0.1,0.2l-0.2-0.1c-0.2-0.1-0.4-0.1-0.3,0c0.1,0.2,0,0.4-0.2,0.4"/>
	<path class="st2" d="M28.3,13c0,0,0,0.2,0,0.4v0.3h-0.3c-0.2,0-0.3,0-0.4,0.1c0,0,0.1,0.1,0.2,0.3l0.3,0.2l-0.2,0.2
		c-0.2,0.3-0.2,0.4,0,0.3c0.5-0.1,0.5-0.1,0.6,0c0,0.1,0.1,0.2,0.1,0.3c0.1,0.2,0.2,0.2,0.3-0.1c0.1-0.2,0.2-0.3,0.2-0.3
		c0,0,0.2,0.1,0.3,0.1c0.1,0.1,0.3,0.1,0.3,0.1c0,0,0-0.1-0.1-0.3c-0.1-0.1-0.1-0.3-0.1-0.3s0.1-0.1,0.2-0.2
		c0.3-0.2,0.3-0.3-0.1-0.3l-0.3,0l0-0.4c0-0.2,0-0.4,0-0.4c0,0-0.1,0.1-0.2,0.2c-0.1,0.1-0.2,0.2-0.3,0.2c0,0-0.2-0.1-0.3-0.2
		C28.4,13.1,28.3,13,28.3,13"/>
	<path class="st2" d="M5.6,13.7V14H5.3C5,14,4.8,14.1,5,14.2c0,0,0.2,0.1,0.3,0.2l0.2,0.2l-0.2,0.3C5.1,15,5,15.1,5,15.1
		c0,0,0.3,0,0.5-0.1c0.1,0,0.2,0,0.2,0.1c0,0.1,0.1,0.2,0.1,0.2c0,0.1,0.1,0.3,0.2,0.2c0,0,0.1-0.1,0.1-0.3s0.1-0.3,0.1-0.3
		c0,0,0.2,0,0.3,0.1C6.8,15.3,7,15.3,7,15.3c0,0,0-0.2-0.1-0.3l-0.1-0.3l0.1-0.1c0.1-0.1,0.2-0.1,0.3-0.2c0.1,0,0.2-0.1,0.2-0.1
		c0,0-0.1-0.1-0.2-0.1c-0.4-0.1-0.5-0.1-0.5-0.2c0,0,0-0.2,0-0.3c0-0.3,0-0.3-0.3-0.1c-0.2,0.2-0.3,0.2-0.5,0
		c-0.1-0.1-0.2-0.2-0.2-0.2C5.6,13.3,5.6,13.4,5.6,13.7"/>
	<path class="st2" d="M8.2,14.7c0,0.5,0,0.5-0.6,0.5c-0.4,0-0.4,0.1,0,0.4C7.8,15.7,8,15.9,8,15.9c0,0-0.1,0.2-0.2,0.4
		c-0.1,0.2-0.2,0.4-0.2,0.4c0,0,0.2,0,0.7-0.1c0.2-0.1,0.3,0,0.3,0.2c0,0.1,0.2,0.7,0.3,0.7c0,0,0.1-0.2,0.2-0.4
		c0.1-0.2,0.2-0.4,0.2-0.4c0,0,0.4,0.1,0.8,0.3c0.1,0.1,0.1-0.1-0.1-0.5c-0.1-0.2-0.2-0.4-0.2-0.4c0-0.1,0.1-0.1,0.6-0.4
		c0.2-0.1,0.2-0.2-0.3-0.3c-0.2-0.1-0.4-0.1-0.5-0.1c0,0,0-0.1,0-0.2c0.1-0.3,0.1-0.7,0.1-0.7c0,0-0.2,0.1-0.4,0.2
		C9.2,14.7,9,14.8,9,14.8c0,0-0.2-0.1-0.3-0.3C8.3,14.1,8.2,14.1,8.2,14.7"/>
	<path class="st2" d="M15.1,15.6c-0.4,0.5-0.5,0.6-0.6,0.6c0,0-0.2-0.2-0.5-0.3c-0.2-0.2-0.4-0.3-0.5-0.3c-0.1,0-0.1,0.1,0,0.6
		c0.1,0.6,0.1,0.6-0.2,0.7C13.2,16.9,13,17,13,17c-0.1,0-0.2,0-0.2,0c-0.2,0-0.1,0.2,0.3,0.4c0.2,0.1,0.5,0.2,0.5,0.3
		c0.1,0,0.1,0.1,0.1,0.1c0,0-0.1,0.2-0.2,0.4c-0.1,0.2-0.2,0.4-0.2,0.4c-0.1,0.1-0.1,0.2,0,0.2c0,0,0.2,0,0.3-0.1
		c0.5-0.2,0.8-0.3,0.8-0.3c0,0,0.2,0.2,0.3,0.5c0.1,0.3,0.3,0.5,0.3,0.5c0.1,0.1,0.1-0.1,0.3-0.6c0.1-0.3,0.1-0.5,0.2-0.5
		c0,0,0.7,0.1,1,0.2c0.3,0.1,0.3,0-0.1-0.5l-0.4-0.5l0.2-0.2c0.1-0.1,0.3-0.3,0.4-0.4c0.1-0.1,0.2-0.2,0.2-0.3c0,0-0.1-0.1-0.3-0.1
		c-0.1,0-0.4,0-0.6,0l-0.3,0l0-0.6c0-0.4-0.1-0.6-0.1-0.6C15.4,15.4,15.2,15.5,15.1,15.6"/>
	<path class="st2" d="M19.4,15.5c0,0.1-0.1,0.3-0.2,0.5c-0.1,0.2-0.2,0.4-0.2,0.4c0,0-0.2,0-0.3,0c-0.9-0.3-1-0.3-0.9-0.1
		c0,0.1,0.1,0.2,0.2,0.4c0.1,0.2,0.2,0.4,0.2,0.4c0.1,0.1,0,0.2-0.4,0.5c-0.3,0.2-0.5,0.3-0.4,0.4c0,0,0.1,0.1,0.3,0.1
		c0.1,0,0.4,0.1,0.6,0.1l0.3,0.1l0,0.2c-0.1,0.7-0.1,0.9,0,1c0,0,0.3-0.1,0.5-0.4l0.4-0.4l0.4,0.4c0.2,0.2,0.4,0.4,0.5,0.4
		c0.1,0,0.1-0.8,0-1.1c0-0.1,0-0.1,0.4-0.2c0.6-0.1,0.8-0.1,0.8-0.2c0,0-0.2-0.2-0.4-0.4c-0.3-0.2-0.5-0.3-0.5-0.4
		c0,0,0.1-0.3,0.3-0.5c0.3-0.4,0.3-0.6,0.2-0.6c0,0-0.3,0.1-0.6,0.2c-0.3,0.1-0.6,0.1-0.6,0.1c0,0-0.1-0.3-0.2-0.5
		c-0.1-0.3-0.2-0.5-0.2-0.5C19.5,15.4,19.4,15.4,19.4,15.5"/>
	<path class="st2" d="M29.7,15.4c0,0,0,0.1,0,0.2c0,0.2,0,0.2-0.2,0.2c-0.3,0-0.3,0.1-0.1,0.3l0.2,0.1l-0.1,0.2
		c-0.1,0.2-0.1,0.2-0.1,0.2c0,0,0.2,0,0.2,0c0.2-0.1,0.2-0.1,0.3,0.2c0.1,0.2,0.2,0.3,0.2,0.1c0,0,0-0.1,0.1-0.2
		c0.1-0.1,0.1-0.1,0.3,0c0.1,0,0.2,0.1,0.2,0.1c0.1,0,0-0.2-0.1-0.3c-0.1-0.2-0.1-0.2,0.1-0.3C31,16.1,31,16,30.7,16l-0.2-0.1l0-0.2
		c0-0.3,0-0.3-0.2-0.1l-0.2,0.1L30,15.5C29.8,15.4,29.7,15.3,29.7,15.4"/>
	<path class="st2" d="M24.3,16.5c0,0,0,0.2,0,0.5c0,0.5,0,0.5-0.6,0.5c-0.4,0-0.4,0.1,0,0.4c0.2,0.1,0.3,0.3,0.3,0.3
		c0,0-0.1,0.2-0.2,0.4c-0.2,0.3-0.3,0.5-0.2,0.5c0,0,0.2,0,0.3-0.1c0.4-0.1,0.6-0.1,0.6,0c0,0,0.1,0.2,0.1,0.4
		c0.1,0.2,0.1,0.4,0.2,0.4c0,0,0.1-0.2,0.3-0.4c0.1-0.2,0.2-0.4,0.2-0.4c0,0,0.2,0.1,0.4,0.1c0.2,0.1,0.4,0.1,0.4,0.1
		c0,0,0-0.2-0.1-0.4c-0.1-0.2-0.2-0.4-0.2-0.4c0,0,0.2-0.2,0.4-0.3c0.2-0.1,0.4-0.2,0.4-0.3c0-0.1-0.4-0.2-0.6-0.2
		c-0.1,0-0.2,0-0.2-0.1c-0.1-0.1-0.1-0.1,0-0.5c0.1-0.6,0.1-0.6-0.4-0.3c-0.2,0.1-0.4,0.2-0.4,0.2s-0.2-0.1-0.3-0.3
		C24.5,16.5,24.4,16.4,24.3,16.5"/>
	<path class="st2" d="M30,17.7c0,0.1,0,0.1-0.1,0.1c-0.2,0-0.2,0.1-0.1,0.2c0.1,0.1,0.1,0.1,0,0.2c-0.1,0.1-0.1,0.2,0.1,0.2
		c0.1,0,0.2,0,0.2,0.1l0.1,0.1l0.1-0.1c0.1-0.1,0.1-0.1,0.2-0.1c0.1,0,0.1,0,0.1-0.1c0-0.1,0-0.2,0-0.2c0.1,0,0.1-0.2,0-0.2
		c-0.1,0-0.1-0.1-0.1-0.1c0-0.2,0-0.2-0.1-0.1c-0.1,0-0.1,0-0.2,0C30.1,17.6,30,17.6,30,17.7"/>
	<path class="st2" d="M4.3,18.4c0,0,0,0.1,0,0.2c0,0.1,0,0.1-0.1,0.2l-0.1,0l0.1,0.1c0.1,0.1,0.1,0.1,0.1,0.2c0,0.1,0,0.1,0.1,0.1
		c0.1,0,0.2,0,0.2,0.1l0.1,0.1l0-0.1c0-0.1,0.1-0.1,0.2-0.1C5,19.1,5,19.1,4.9,19c-0.1-0.1-0.1-0.1,0-0.2c0.1-0.1,0.1-0.2,0-0.2
		c-0.1,0-0.1-0.1-0.1-0.1c0-0.1-0.1-0.2-0.2,0c-0.1,0.1-0.1,0.1-0.2,0C4.4,18.4,4.3,18.4,4.3,18.4"/>
	<path class="st2" d="M11.4,19.1c-0.2,0.2-0.3,0.3-0.3,0.3c0,0-0.2-0.1-0.4-0.2c-0.4-0.3-0.5-0.3-0.4,0c0,0.1,0.1,0.3,0.1,0.5
		c0,0.3,0,0.3-0.1,0.3c-0.4,0.1-0.7,0.2-0.7,0.3c0,0,0.2,0.1,0.4,0.2c0.2,0.1,0.4,0.2,0.4,0.2c0,0,0,0.2-0.1,0.4
		C10,21.5,10,21.6,10,21.6c0,0,0.2-0.1,0.3-0.1c0.6-0.3,0.5-0.3,0.8,0.2c0.1,0.2,0.2,0.4,0.3,0.4c0,0,0.1-0.1,0.1-0.3
		c0.2-0.6,0.1-0.6,0.4-0.6c0.1,0,0.3,0,0.4,0.1c0.3,0.1,0.3,0,0-0.4l-0.3-0.4l0.3-0.3c0.1-0.1,0.3-0.3,0.4-0.3
		c0.2-0.1,0-0.2-0.3-0.2c-0.2,0-0.4,0-0.5,0c-0.1,0-0.2-0.1-0.2-0.3c0-0.5,0-0.7-0.1-0.7C11.7,18.8,11.6,19,11.4,19.1"/>
	<path class="st2" d="M5.9,19.5l-0.2,0.2l-0.2-0.1c-0.2-0.2-0.3-0.2-0.2,0.2c0,0.3,0,0.3-0.1,0.3C5,20,4.8,20.2,5,20.2
		c0,0,0.1,0,0.2,0.1c0.1,0.1,0.1,0.1,0,0.3c-0.1,0.2,0,0.3,0.2,0.2c0.1-0.1,0.2-0.1,0.2-0.1c0,0,0.1,0.1,0.1,0.2
		c0.1,0.2,0.2,0.2,0.3,0c0.1-0.2,0.1-0.2,0.3-0.2c0.3,0,0.3,0,0.1-0.3l-0.1-0.2l0.2-0.1c0.2-0.2,0.2-0.2-0.1-0.2H6.2v-0.2
		c0-0.1,0-0.3,0-0.3C6.1,19.4,6,19.4,5.9,19.5"/>
	<path class="st2" d="M26.4,19.7c0,0.1-0.1,0.2-0.1,0.2c0,0.2-0.1,0.2-0.4,0.1c-0.2-0.1-0.3-0.1-0.3-0.1c0,0,0,0.2,0.1,0.3l0.2,0.3
		l-0.3,0.2c-0.2,0.1-0.3,0.2-0.2,0.2c0,0,0.2,0.1,0.3,0.1l0.3,0.1l0,0.3c0,0.4,0,0.4,0.3,0.2c0.1-0.1,0.2-0.2,0.3-0.2
		c0,0,0.2,0.1,0.3,0.2c0.1,0.1,0.2,0.2,0.2,0.2c0,0,0-0.2,0-0.3c0-0.3,0-0.3,0.2-0.4c0.1,0,0.2,0,0.3,0c0.2,0,0.2-0.1-0.1-0.3
		l-0.2-0.2l0.1-0.2c0.1-0.2,0.2-0.4,0.1-0.4c0,0-0.1,0-0.3,0.1c-0.3,0.1-0.3,0.1-0.5-0.2C26.6,19.5,26.5,19.5,26.4,19.7"/>
	<path class="st2" d="M8.2,20.1l-0.2,0.2l-0.3-0.2c-0.3-0.2-0.4-0.2-0.3,0c0.1,0.4,0.1,0.5-0.2,0.6c-0.2,0-0.3,0.1-0.3,0.1
		c0,0,0.1,0.1,0.2,0.2c0.2,0.1,0.3,0.2,0.3,0.2c0,0,0,0.2-0.1,0.3c-0.1,0.1-0.1,0.3-0.1,0.3c0,0,0.2,0,0.3-0.1
		c0.1-0.1,0.3-0.1,0.3-0.1c0,0,0.1,0.1,0.2,0.3c0.1,0.1,0.1,0.3,0.2,0.3c0,0,0.1-0.1,0.1-0.3c0-0.2,0.1-0.3,0.1-0.3c0,0,0.1,0,0.3,0
		c0.4,0.1,0.4,0,0.2-0.3l-0.2-0.3L9,20.9c0.1-0.1,0.2-0.2,0.2-0.3c0,0-0.2,0-0.4,0H8.6v-0.3C8.6,19.8,8.5,19.8,8.2,20.1"/>
	<path class="st2" d="M21,20.3c0,0.1-0.1,0.3-0.2,0.4c-0.1,0.2-0.2,0.2-0.7,0.1c-0.4-0.1-0.4-0.1-0.3,0.2c0.1,0.1,0.2,0.3,0.2,0.4
		c0.1,0.2,0.1,0.2,0,0.3c0,0-0.2,0.2-0.4,0.3c-0.2,0.1-0.3,0.2-0.3,0.2c0,0,0.2,0.1,0.5,0.1l0.5,0.1l0,0.3c0,0.1,0,0.3-0.1,0.5
		c0,0.1,0,0.2,0,0.2c0,0,0.2-0.1,0.4-0.3c0.2-0.2,0.3-0.3,0.4-0.3s0.2,0.1,0.3,0.3c0.2,0.2,0.3,0.3,0.4,0.3c0,0,0.1-0.1,0-0.5
		c0-0.5,0-0.5,0.1-0.5c0.2,0,0.8-0.1,0.8-0.2c0,0-0.2-0.2-0.4-0.3c-0.2-0.1-0.4-0.3-0.4-0.3c0-0.1,0.2-0.4,0.4-0.7
		c0.1-0.2,0-0.2-0.4-0.1c-0.2,0.1-0.4,0.1-0.5,0.1c0,0-0.1-0.2-0.2-0.4c-0.1-0.2-0.2-0.4-0.2-0.4C21.2,20.1,21.1,20.2,21,20.3"/>
	<path class="st2" d="M15.5,21.1c0,0,0,0.2,0,0.5V22l-0.4,0c-0.2,0-0.4,0-0.4,0c-0.2,0-0.1,0.2,0.2,0.4l0.4,0.3L15,23.2
		c-0.2,0.2-0.3,0.4-0.2,0.4c0,0,0.2,0,0.3,0c0.6-0.1,0.6-0.1,0.7,0.2c0,0.2,0.1,0.3,0.1,0.4c0,0.3,0.2,0.2,0.4-0.3
		c0.2-0.4,0.2-0.4,0.3-0.4c0.1,0,0.1,0,0.2,0.1c0.1,0.1,0.6,0.2,0.7,0.2c0,0,0-0.1-0.1-0.2c-0.3-0.7-0.4-0.6,0.1-0.9
		c0.5-0.3,0.5-0.4,0.1-0.4c-0.1,0-0.3-0.1-0.4-0.1c-0.2-0.1-0.2,0-0.1-0.8c0-0.1,0-0.2,0-0.2c0,0-0.2,0.1-0.4,0.3s-0.4,0.3-0.4,0.3
		c0,0-0.2-0.1-0.3-0.3C15.7,21,15.6,21,15.5,21.1"/>
	<path class="st2" d="M26.5,22.6l-0.2,0.2l-0.2-0.1c-0.2-0.2-0.3-0.1-0.3,0c0.1,0.3,0.1,0.4,0,0.4c-0.1,0-0.2,0-0.3,0.1l-0.2,0.1
		l0.2,0.1c0.2,0.1,0.2,0.1,0.2,0.3c-0.2,0.3-0.1,0.3,0.3,0.2c0.1,0,0.1,0,0.2,0.2c0.1,0.2,0.2,0.2,0.2,0.1c0,0,0-0.1,0.1-0.2
		c0-0.1,0.1-0.1,0.3-0.1c0.3,0.1,0.3,0,0.2-0.2c-0.2-0.2-0.2-0.3,0-0.4c0.2-0.1,0.2-0.2-0.1-0.2h-0.2v-0.2c0-0.1,0-0.2,0-0.2
		C26.6,22.5,26.5,22.5,26.5,22.6"/>
	<path class="st2" d="M20.6,24c-0.1,0.3-0.1,0.3-0.6,0.2c-0.2,0-0.2,0,0,0.3c0.1,0.1,0.1,0.2,0.1,0.3c0,0-0.1,0.1-0.2,0.2
		c-0.1,0.1-0.2,0.2-0.2,0.2c0,0.1,0.2,0.1,0.5,0.1l0.2,0l0,0.3c0,0.2,0,0.3,0,0.4c0,0,0.1-0.1,0.2-0.2c0.1-0.1,0.2-0.2,0.2-0.2
		c0,0,0.1,0.1,0.3,0.2c0.3,0.3,0.3,0.3,0.3-0.1l0-0.3l0.3,0c0.2,0,0.3-0.1,0.3-0.1c0,0-0.1-0.1-0.2-0.2c-0.1-0.1-0.3-0.2-0.3-0.2
		c0,0,0-0.1,0.1-0.3c0.2-0.3,0.2-0.4,0-0.3C21,24.3,21,24.3,20.9,24c-0.1-0.2-0.1-0.3-0.2-0.3C20.7,23.7,20.6,23.8,20.6,24"/>
	<path class="st2" d="M13.5,23.9c0,0.1,0,0.2,0,0.4c0,0.2,0,0.2-0.3,0.2c-0.2,0-0.3,0.1-0.3,0.1c0,0,0.1,0.1,0.2,0.2l0.2,0.2
		l-0.1,0.2c-0.1,0.1-0.2,0.2-0.2,0.3l-0.1,0.1l0.3,0c0.1,0,0.3,0,0.4-0.1c0.1,0,0.1,0,0.2,0.2c0.1,0.5,0.2,0.5,0.4,0.1
		c0.1-0.1,0.2-0.3,0.2-0.3c0,0,0.2,0,0.3,0.1c0.1,0.1,0.3,0.1,0.3,0.1c0,0,0-0.2-0.1-0.3l-0.1-0.3l0.3-0.2c0.4-0.2,0.4-0.3-0.1-0.4
		l-0.2-0.1l0-0.3c0-0.4,0-0.4-0.3-0.2c-0.1,0.1-0.2,0.2-0.3,0.2c0,0-0.1-0.1-0.2-0.2C13.6,23.9,13.5,23.8,13.5,23.9"/>
	<path class="st2" d="M25.4,24.2c-0.1,0.1-0.1,0.1-0.2,0c-0.2-0.1-0.2-0.1-0.1,0.1c0,0.1,0,0.1-0.1,0.2c-0.1,0.1-0.1,0.1,0,0.1
		c0.1,0.1,0.1,0.1,0.1,0.2c0,0.1,0,0.1,0.1,0.1c0.1,0,0.2,0,0.2,0c0.1,0.1,0.1,0.1,0.2,0c0-0.1,0.1-0.1,0.1-0.1c0,0,0.1,0,0.1,0
		c0.1,0,0.1-0.1,0-0.1c-0.1-0.1-0.1-0.1,0-0.2c0.1-0.1,0.1-0.2,0-0.2c-0.1,0-0.1,0-0.1-0.1C25.6,24.1,25.6,24.1,25.4,24.2"/>
	<path class="st2" d="M10,24.9c-0.1,0.1-0.1,0.1-0.2,0c-0.1-0.1-0.2-0.1-0.2,0.1c0,0.1,0,0.2-0.1,0.2c-0.1,0-0.1,0.1,0,0.2
		c0.1,0,0.1,0.1,0,0.2c0,0.1,0,0.1,0.1,0.1c0.1,0,0.2,0,0.2,0c0.1,0.1,0.1,0.1,0.2,0c0-0.1,0.1-0.1,0.1-0.1c0.1,0,0.2-0.1,0.1-0.2
		c-0.1-0.1,0-0.1,0-0.2c0.1-0.1,0.1-0.2-0.1-0.2c-0.1,0-0.1,0-0.1-0.1C10.2,24.8,10.1,24.8,10,24.9"/>
	<path class="st2" d="M11.7,25c-0.1,0.2-0.2,0.2-0.4,0c-0.2-0.1-0.3-0.1-0.2,0.1c0.1,0.2,0,0.3-0.1,0.3c-0.1,0-0.2,0-0.2,0.1
		c-0.1,0.1-0.1,0.1,0.2,0.2l0.2,0.1L11,26.1c-0.1,0.3,0,0.3,0.2,0.2c0.1,0,0.2-0.1,0.2-0.1c0,0,0.1,0.1,0.1,0.2
		c0.1,0.2,0.2,0.2,0.3-0.1c0-0.2,0.1-0.2,0.3-0.2c0.3,0,0.3,0,0.1-0.2c-0.1-0.2-0.1-0.2,0.1-0.4c0.2-0.2,0.2-0.2-0.2-0.2
		c-0.2,0-0.2,0-0.2-0.3c0-0.1,0-0.3-0.1-0.3C11.8,24.8,11.8,24.9,11.7,25"/>
	<path class="st2" d="M19.1,26.2c-0.1,0.1-0.1,0.2-0.2,0.2c-0.4-0.1-0.5-0.1-0.3,0.2l0.1,0.2l-0.2,0.1c-0.2,0.1-0.2,0.2,0,0.3
		c0.3,0.1,0.4,0.1,0.3,0.3c-0.1,0.3,0,0.3,0.2,0.2c0.2-0.2,0.2-0.2,0.4,0c0.2,0.2,0.3,0.1,0.2-0.2c0-0.2,0-0.2,0.2-0.3
		c0.3,0,0.3-0.1,0.1-0.3c-0.2-0.1-0.2-0.2-0.1-0.4c0.1-0.2,0.1-0.2-0.2-0.2c-0.2,0-0.2,0-0.3,0c0-0.1-0.1-0.1-0.1-0.2
		C19.3,25.9,19.2,26,19.1,26.2"/>
	<path class="st2" d="M17.4,27.1c0,0-0.1,0.1-0.2,0.1c-0.1,0-0.1,0-0.1,0.1c0,0.1,0,0.2,0,0.2c-0.1,0.1-0.1,0.2,0,0.2
		c0.1,0,0.1,0.1,0.1,0.1c0,0.1,0.1,0.1,0.3,0.1c0.2,0,0.2,0,0.2-0.1c0-0.1,0-0.1,0.1-0.1c0.1,0,0.1,0,0-0.2c-0.1-0.1-0.1-0.1,0-0.2
		c0.1-0.1,0.1-0.2-0.1-0.2c-0.1,0-0.2,0-0.2-0.1c0,0,0-0.1-0.1-0.1C17.5,27.1,17.4,27.1,17.4,27.1"/>
</g>
</svg>
