<?xml version="1.0" encoding="utf-8"?>
<!-- Generator: Adobe Illustrator 24.1.2, SVG Export Plug-In . SVG Version: 6.00 Build 0)  -->
<svg version="1.1" id="Layer_1" xmlns="http://www.w3.org/2000/svg" xmlns:xlink="http://www.w3.org/1999/xlink" x="0px" y="0px"
	 viewBox="0 0 75 28" style="enable-background:new 0 0 75 28;" xml:space="preserve">
<style type="text/css">
	.st0{fill-rule:evenodd;clip-rule:evenodd;fill:#CA8A04;}
	.st1{fill-rule:evenodd;clip-rule:evenodd;fill:#046B53;}
</style>
<path class="st0" d="M36.4,0.1c0,0.1,0,0.1,0,0.2c0,0,0,0.1,0,0.1c0,0.1,0,0.1,0,0.1c0,0-0.1,0.5-0.1,0.7c0,0.1,0,0.1,0,0.1
	c0,0,0,0.1,0,0.1c0,0.2-0.1,0.7-0.1,0.7c0,0,0,0.1,0,0.2c0,0.1,0,0.1,0,0.2c0,0.1,0,0.3-0.1,0.5c0,0.2-0.1,0.4-0.1,0.5
	c0,0.2-0.1,0.2-0.1,0.2c0,0-0.1-0.1-0.3-0.2c-0.2-0.1-0.3-0.2-0.3-0.2C35,3.2,35,3.2,35,3.2c0,0-0.5-0.3-0.6-0.4
	c0,0-0.2-0.1-0.3-0.2c-0.1-0.1-0.3-0.2-0.3-0.2c-0.1-0.1-0.1-0.1-0.2-0.1c0,0-0.1,0-0.1-0.1C33.4,2.1,33.3,2,33.2,2
	c-0.1,0-0.1-0.1-0.1-0.1c0,0,0,0,0,0c0,0-0.1-0.1-0.2-0.1c-0.1-0.1-0.2-0.1-0.2-0.1c0,0,0.4,0.7,1,1.5c0.5,0.8,1,1.5,1,1.6l0.1,0.1
	l-0.1,0c-0.2,0-0.7,0.1-0.7,0.1c0,0-0.1,0-0.1,0c0,0-0.1,0-0.1,0c0,0-0.2,0-0.3,0.1C33.2,5,33,5,33,5c0,0-0.1,0-0.1,0
	c-0.1,0-0.1,0-0.1,0c0,0-0.1,0-0.2,0.1c-0.1,0-0.3,0-0.4,0.1c-0.1,0-0.2,0-0.3,0.1s-0.2,0-0.3,0c-0.1,0-0.2,0-0.2,0c0,0-0.1,0-0.1,0
	c0,0-0.1,0-0.1,0c0,0-0.1,0-0.1,0c0,0-0.1,0-0.1,0c-0.2,0-0.1,0.1,0.1,0.1c0.1,0,0.2,0,0.3,0.1c0,0,0.1,0,0.2,0c0.1,0,0.1,0,0.1,0
	c0,0,0,0,0.1,0c0.1,0,0.2,0,0.4,0.1c0.2,0,0.4,0.1,0.4,0.1C32.9,5.7,33,5.7,33,5.7c0,0,0.1,0,0.1,0c0.1,0,0.1,0,0.1,0c0,0,0,0,0.1,0
	c0.1,0,0.2,0,0.3,0c0.1,0,0.2,0,0.3,0c0.1,0,0.1,0,0.1,0c0,0,0.1,0,0.1,0c0.1,0,0.4,0,0.4,0.1c0,0-0.3,0.5-0.4,0.6
	c0,0-0.1,0.2-0.2,0.3c-0.1,0.1-0.2,0.3-0.3,0.4c-0.1,0.1-0.3,0.4-0.5,0.7c-0.2,0.3-0.5,0.7-0.6,0.8c-0.1,0.1-0.3,0.4-0.4,0.6
	c-0.1,0.2-0.3,0.4-0.3,0.4c0,0,0,0.1,0,0.1c0,0,0.7-0.7,1.3-1.3c0.1-0.1,0.4-0.5,0.7-0.7c0.5-0.5,1.4-1.5,2-2.1
	c0.6-0.6,0.7-0.7,0.8-0.7c0.1,0,0.2,0.1,0.3,0.2C37,5.6,38,6.7,38.4,7c0.2,0.2,0.5,0.5,0.7,0.7c0.2,0.2,0.5,0.6,0.8,0.8
	C40,8.8,40.3,9,40.4,9.1c0.1,0.1,0.3,0.3,0.5,0.5c0.1,0.1,0.3,0.3,0.3,0.3c0,0-0.5-0.8-0.7-1C40.3,8.7,40,8.3,40,8.3
	c0,0,0,0-0.1-0.1c0,0-0.1-0.1-0.2-0.3c-0.1-0.1-0.2-0.2-0.2-0.3c0-0.1-0.2-0.3-0.4-0.6c-0.2-0.3-0.4-0.5-0.4-0.5
	c0,0-0.1-0.1-0.1-0.1c0,0,0,0-0.1-0.2C38.5,6.2,38.3,6,38.3,6c0,0,0.1,0,0.3,0c0.1,0,0.3,0,0.3-0.1c0,0,0.1,0,0.1,0
	c0.1,0,0.1,0,0.2,0c0.1,0,0.4-0.1,0.5-0.1c0,0,0.1,0,0.1,0c0,0,0.1,0,0.1,0c0.1,0,0.1,0,0.1,0c0,0,0.1,0,0.2-0.1
	c0.3,0,0.4,0,0.7-0.1c0.2,0,0.4-0.1,0.4-0.1c0.1,0,0.1,0,0.1,0c0,0,0.1,0,0.1,0c0.2,0,0.4,0,0.4-0.1c0,0-0.1-0.1-0.2-0.1
	c-0.1,0-0.3,0-0.3,0c0,0-0.1,0-0.1,0c0,0-0.1,0-0.2,0c-0.1,0-0.2,0-0.3,0c-0.1,0-0.2,0-0.3,0c0,0-0.2,0-0.3-0.1C40.1,5.1,40,5,40,5
	c0,0-0.1,0-0.1,0c0,0-0.1,0-0.1,0c-0.1,0-0.5-0.1-0.7-0.1c-0.1,0-0.1,0-0.1,0c0,0-0.2,0-0.4-0.1c-0.2,0-0.4,0-0.4-0.1
	s0.1-0.2,0.2-0.3c0.1-0.2,0.2-0.3,0.2-0.4c0.1-0.2,1.3-1.9,1.3-2c0,0,0,0,0,0c0,0,0.2-0.3,0.2-0.4c0,0,0-0.1,0-0.1
	c0,0-0.2,0.1-0.4,0.3c-0.2,0.1-0.4,0.2-0.4,0.2c0,0,0,0-0.1,0c-0.2,0.1-0.3,0.2-0.3,0.2c0,0,0,0-0.1,0c0,0-0.2,0.2-0.5,0.3
	c-0.5,0.4-0.5,0.3-1,0.7c-0.2,0.2-0.5,0.3-0.5,0.3c0,0-0.1-0.1-0.1-0.4c0-0.2-0.1-0.4-0.1-0.5c0-0.1,0-0.3-0.1-0.4
	c0-0.2,0-0.3-0.1-0.3c0-0.1-0.1-0.6-0.1-0.7c0,0,0-0.1,0-0.1c0,0,0,0,0-0.1c0-0.1,0-0.1,0-0.1c0,0,0-0.1-0.1-0.3
	c0-0.2,0-0.3-0.1-0.3c0,0,0,0,0-0.1c0-0.1,0-0.1,0-0.1C36.5,0.3,36.5,0.2,36.4,0.1C36.5,0,36.4,0,36.4,0.1"/>
<path class="st1" d="M35.4,7.2c-0.1,0.1-0.8,0.5-1.4,1s-1.3,0.9-1.3,1c-0.1,0.1-0.3,0.2-0.4,0.3l-0.3,0.2l0.2-0.2
	c0.1-0.1,0.1-0.1-0.1,0.1c-0.2,0.2-0.3,0.3-0.3,0.3S31.6,10,31.6,10c-0.1,0.2-0.1,0.4,0,0.6c0,0.1,0.3,0.4,0.6,0.7
	c0.3,0.3,0.8,0.9,1.2,1.3c0.3,0.4,0.6,0.7,0.6,0.7c0,0,0.5,0.5,1,1.1c0.6,0.6,1,1.1,1.1,1.1c0.1,0,0.2,0.1,0.3,0.1
	c0.3,0,0.5-0.1,0.9-0.6c0.2-0.2,0.4-0.4,0.5-0.5c0.1-0.1,0.3-0.4,0.6-0.6c0.2-0.3,0.6-0.7,0.8-0.9c1.2-1.3,2.1-2.3,2.2-2.4
	c0.1-0.1,0.1-0.4,0-0.5C41.2,10,41,9.8,41.1,9.8c0,0.1-0.1,0-0.1-0.1c0-0.1-0.1-0.1-0.1-0.1c0,0,0,0-0.1,0c0-0.1,0-0.1,0,0
	c0.1,0,0.1,0,0,0c0,0-0.1-0.1-0.1,0c0,0-0.3-0.2-0.6-0.4c-0.3-0.2-0.6-0.4-0.6-0.4c0,0-0.3-0.2-0.6-0.4c-0.3-0.2-0.8-0.6-1.2-0.8
	c-0.4-0.3-0.7-0.5-0.7-0.5c0,0,0,0,0,0c0,0,0,0.3-0.1,0.6C37,8,37,8.6,37,9c0,0.4-0.1,1.1-0.1,1.5c0,0.4-0.1,1-0.1,1.3
	c0,0.3-0.1,0.7-0.1,0.9c0,0.3-0.1,1-0.2,1.8l0,0.2l0-0.2c0-0.1,0-0.5-0.1-0.8c0-0.3-0.1-0.8-0.1-1c0-0.2-0.1-0.6-0.1-0.9
	c0-0.3-0.1-0.9-0.1-1.4c0-0.4-0.1-1.1-0.1-1.5c-0.1-0.9-0.2-1.8-0.2-1.8C35.7,7.1,35.6,7.1,35.4,7.2 M33.5,8.1l-0.3,0.3L33.5,8.1
	c0.3-0.3,0.3-0.3,0.3-0.3C33.8,7.8,33.7,7.9,33.5,8.1 M24.3,16.4v0.6h0.5h0.5v-0.6v-0.6h-0.5h-0.5V16.4 M32.7,19.2v2.4h8.5
	c6,0,8.6,0,8.7,0c0.2-0.1,0.5-0.2,0.6-0.5l0.1-0.2l0-1.4l0-1.4l-0.1-0.2c-0.1-0.2-0.2-0.3-0.4-0.4c-0.1-0.1-0.2-0.1-1.7-0.1h-1.6
	v1.5v1.5h-2.1c-1.2,0-2.1,0-2.1,0c0,0,0.2-0.2,0.5-0.4l0.5-0.4v-0.6v-0.6L43,18.3c-0.7-0.6-1.2-0.8-1.9-0.9c-1-0.1-1.8,0.2-2.7,1
	l-0.2,0.1v0.6v0.6l0.4,0.3c0.2,0.2,0.4,0.4,0.5,0.4l0.1,0.1l-2.7,0l-2.7,0v-1.8v-1.8h-0.6h-0.6V19.2 M28.8,17.4c0,0,0,0.7,0.1,1
	l0,0.1l0.3,0c0.9,0.1,1.5,0.7,1.6,1.7l0,0.2l-1.4,0l-1.4,0l0,0.6l0,0.6h1.9h1.9l0-0.3c0.1-0.4,0.1-1.2,0-1.6c-0.2-1.1-0.9-1.9-2-2.3
	C29.5,17.4,28.8,17.3,28.8,17.4 M22.3,17.5c0,0,0,0.8,0,1.7l0,1.7l0.1,0.2c0.1,0.2,0.4,0.4,0.6,0.5c0.1,0,0.7,0,1.9,0
	c1.7,0,1.7,0,1.9-0.1c0.2-0.1,0.3-0.2,0.4-0.4l0.1-0.2l0-1.7l0-1.7l-0.6,0l-0.6,0l0,1.5l0,1.5h-1.4h-1.4v-1.5v-1.5l-0.2,0
	C22.9,17.4,22.3,17.4,22.3,17.5 M47.8,19.4v1l0.8,0l0.8,0v-1v-1l-0.8,0l-0.8,0V19.4 M40.3,18.6c-0.1,0-0.3,0.1-0.3,0.1
	c-0.2,0.1-0.6,0.4-0.6,0.4c0,0,0.3,0.3,0.7,0.6c0.4,0.3,0.7,0.6,0.7,0.6c0,0.1,0,0.1,1.3-1c0.2-0.2,0.2-0.2,0.2-0.3
	c-0.1-0.1-0.5-0.3-0.8-0.4C41.2,18.5,40.6,18.5,40.3,18.6 M22.3,25.6V28l0.6,0c0.3,0,0.6,0,0.6,0c0,0,0-0.5,0-1.1l0-1.1l0.1,0.2
	c0.1,0.1,0.2,0.3,0.3,0.5c0.1,0.2,0.3,0.6,0.5,0.9l0.3,0.6h0.2c0.2,0,0.2,0,0.3-0.1c0-0.1,0.1-0.2,0.2-0.3c0.1-0.1,0.2-0.4,0.3-0.5
	c0.1-0.2,0.2-0.4,0.3-0.5c0.1-0.1,0.2-0.3,0.2-0.5c0.1-0.1,0.1-0.3,0.2-0.3c0,0,0,0.5,0,1.1c0,1,0,1.1,0,1.1c0,0,0.3,0,0.6,0
	s0.5,0,0.5,0c0,0,0-0.8,0-2.3v-2.3l-0.6,0l-0.6,0l-0.1,0.1c0,0.1-0.2,0.3-0.3,0.6c-0.1,0.3-0.3,0.6-0.4,0.9
	c-0.1,0.2-0.3,0.6-0.4,0.8c-0.1,0.2-0.2,0.4-0.2,0.4c0,0-0.3-0.6-0.5-1c-0.3-0.6-0.8-1.6-0.8-1.7c0-0.1-0.1-0.1-0.6-0.1l-0.6,0V25.6
	 M29.1,23.5c-0.1,0.3-0.3,1-0.4,1.3c-0.1,0.3-0.2,0.5-0.3,0.9c-0.1,0.2-0.2,0.5-0.2,0.8c-0.1,0.3-0.2,0.7-0.3,0.9
	c-0.1,0.3-0.1,0.5-0.2,0.5l0,0.1h0.6H29l0.1-0.4c0.1-0.2,0.1-0.4,0.2-0.4c0,0,0.2,0,0.8,0l0.8,0l0.1,0.4l0.1,0.4l0.6,0
	c0.5,0,0.6,0,0.6,0c0,0-0.1-0.4-0.3-1c-0.1-0.4-0.2-0.7-0.4-1.3c-0.1-0.3-0.2-0.6-0.2-0.7c0,0-0.1-0.2-0.1-0.4
	c-0.1-0.2-0.1-0.5-0.2-0.8L31,23.3l-0.9,0l-0.9,0L29.1,23.5 M33.8,23.4c-0.1,0.2-0.2,0.7-0.3,1c0,0.1-0.1,0.3-0.1,0.5
	c-0.1,0.2-0.1,0.3-0.3,1c0,0.1-0.1,0.3-0.1,0.4c0,0.1-0.3,1-0.4,1.2c0,0.1-0.1,0.3-0.1,0.3c0,0.1,0,0.2,0,0.2c0,0,0.2,0,0.6,0h0.6
	l0.1-0.4c0.1-0.2,0.1-0.4,0.2-0.4c0,0,0.2,0,0.8,0l0.8,0l0.1,0.4l0.1,0.4l0.6,0c0.4,0,0.6,0,0.6,0c0,0,0-0.1-0.1-0.2
	c0-0.1-0.1-0.3-0.1-0.4c-0.2-0.5-0.2-0.7-0.3-1c-0.1-0.3-0.2-0.6-0.3-1.1C36.1,25,36,24.7,36,24.6c-0.1-0.2-0.1-0.3-0.3-1l-0.1-0.3
	l-0.9,0l-0.9,0L33.8,23.4 M37.4,23.3c0,0,0,1.1,0,2.3c0,2.1,0,2.3,0.1,2.3c0.1,0,2.8,0,3,0c0.3-0.1,0.5-0.2,0.7-0.5l0.1-0.2v-1.6V24
	l-0.1-0.2c-0.1-0.2-0.2-0.3-0.5-0.4c-0.1-0.1-0.2-0.1-1.7-0.1C38.1,23.3,37.4,23.3,37.4,23.3 M42,25.6l0,2.4l1.8,0l1.8,0v-0.5v-0.5
	h-1.3h-1.3v-0.4v-0.4h1.3h1.3v-0.5v-0.5h-1.2h-1.2v-0.4v-0.4l1.2,0l1.2,0l0-0.5l0-0.5h-1.8H42L42,25.6 M46.3,25.6V28l0.6,0l0.6,0
	l0-1.3l0-1.3l1,1.3l1,1.3H50c0.3,0,0.5,0,0.5,0c0,0,0-4.1,0-4.5l0-0.2H50h-0.6v1.3v1.3l-0.2-0.3c-0.1-0.1-0.3-0.4-0.5-0.6
	c-0.1-0.2-0.5-0.6-0.8-1l-0.5-0.7h-0.5h-0.5V25.6 M30,24.6c-0.1,0.2-0.1,0.4-0.2,0.5s-0.1,0.4-0.2,0.6c-0.1,0.2-0.1,0.4-0.1,0.4
	c0,0,0.3,0,0.6,0c0.5,0,0.6,0,0.6-0.1c-0.1-0.2-0.3-0.9-0.3-1c0,0-0.1-0.2-0.1-0.4l-0.1-0.4L30,24.6 M34.6,24.5
	c-0.1,0.3-0.4,1.1-0.4,1.3c0,0.1,0,0.1,0,0.1c0,0,0,0.1,0,0.1l0,0.1h0.6c0.5,0,0.6,0,0.6,0c0,0,0-0.1,0-0.1c0,0-0.1-0.4-0.3-0.9
	l-0.3-0.8L34.6,24.5 M38.5,25.6v1.3l0.8,0l0.8,0l0-1.3l0-1.3h-0.4c-0.2,0-0.6,0-0.8,0l-0.4,0V25.6"/>
</svg>
