<?xml version="1.0" encoding="utf-8"?>
<!-- Generator: Adobe Illustrator 24.1.2, SVG Export Plug-In . SVG Version: 6.00 Build 0)  -->
<svg version="1.1" id="Layer_1" xmlns="http://www.w3.org/2000/svg" xmlns:xlink="http://www.w3.org/1999/xlink" x="0px" y="0px"
	 viewBox="0 0 75 28" style="enable-background:new 0 0 75 28;" xml:space="preserve">
<style type="text/css">
	.st0{fill-rule:evenodd;clip-rule:evenodd;fill:#0645BC;}
	.st1{fill-rule:evenodd;clip-rule:evenodd;fill:#FAA41A;}
</style>
<path class="st0" d="M24.2,0.1c-0.1,0.1-0.6,0.4-1.2,0.8c-1.1,0.8-1.3,1-3.5,2.7c-1.8,1.4-2,1.5-2.2,1.9c-0.4,0.7-0.2,1.5,0.5,1.8
	l0.3,0.2l4.3,0c4.3,0,4.3,0,4.5,0.1c0.1,0.1,0.1,0.2,0.1,1.4c0,1.1,0,1.2-0.1,1.4l-0.1,0.1l-7.6,0c-5.8,0-7.6,0.1-7.8,0.1
	c-0.4,0.1-0.9,0.4-1.1,0.6c-0.2,0.2-0.4,0.7-0.4,0.9c0,0.1,1.3,0.1,12.4,0.1c7.9,0,12.5,0,12.8-0.1c0.3,0,0.6-0.1,0.8-0.2
	c0.3-0.2,0.6-0.5,0.7-0.9c0-0.2,0.1-1.1,0.1-2.5c0-2.4,0-2.5-0.3-2.6c-0.3-0.1-1.2,0-1.3,0c-0.3,0.1-0.3,0.2-0.3,2.3l0,2l-0.2,0.1
	l-0.2,0.1H32c-2.6,0-2.7,0-2.8-0.3c0-0.1,0-0.7,0-1.4c0-1.4-0.1-2.2-0.3-2.4c-0.2-0.3-0.5-0.4-1.1-0.5c-0.3,0-2.1-0.1-4.2-0.1
	c-3.6,0-3.7,0-3.7-0.1c0-0.1,0.8-0.7,2.7-2.1c1.5-1.1,2.7-2.1,2.8-2.2c0.2-0.2,0.2-0.4-0.1-0.7C25,0.4,24.6,0,24.5,0
	C24.5,0,24.3,0.1,24.2,0.1 M39.4,0.2c-0.3,0-0.4,0.1-0.5,0.2l-0.1,0.2v5.1c0,4.8,0,5.1,0.1,5.4c0.2,0.7,0.6,1,1.5,1.1
	c0.7,0.1,22.1,0.1,22.9,0c1-0.1,1.4-0.5,1.6-1.3c0.1-0.4,0.1-4.4,0-4.6c-0.1-0.3-0.3-0.4-0.9-0.4c-0.6,0-0.8,0.1-0.9,0.3
	c-0.1,0.1-0.1,0.4-0.1,2.1c0,1.8,0,2-0.1,2.1c-0.1,0.1-0.3,0.1-2.1,0.1h-2l-0.1-0.1c-0.1-0.1-0.1-0.2-0.2-2.2l0-2l-0.2-0.1
	c-0.3-0.3-1.3-0.3-1.6,0l-0.2,0.2l0,1.9c0,2,0,2.2-0.3,2.4c-0.1,0.1-0.7,0.1-2.6,0.1l-2.5,0l-0.1-0.2l-0.1-0.2l0-1.9c0-1,0-2,0-2
	c-0.1-0.3-0.3-0.4-0.8-0.4c-0.7,0-0.9,0-1,0.3c-0.1,0.2-0.1,0.4-0.1,2.2c0,1.8,0,2-0.1,2.1c-0.1,0.1-0.3,0.1-3.6,0.1
	c-1.9,0-3.5,0-3.6,0c-0.1,0-0.2-0.1-0.3-0.2c-0.1-0.2-0.1-0.3-0.1-4.9c0-2.8,0-4.8-0.1-4.8c0-0.1-0.1-0.2-0.2-0.2
	C40.4,0.2,39.8,0.2,39.4,0.2 M31.9,13.9c-0.2,0.1-1,0.8-1.3,1.2c-0.1,0.2-0.2,0.3-0.2,0.6c0,0.3,0,0.4,0.2,0.6
	c0.4,0.4,0.8,0.5,1.2,0.2c0.3-0.2,1.1-1,1.2-1.3c0.2-0.4,0.1-0.7-0.2-1.1C32.6,13.9,32.3,13.8,31.9,13.9"/>
<g>
	<path class="st1" d="M43.9,16.4c-0.3,0.1-0.3-0.1-0.3,5.6c0,5.2,0,5.2,0.1,5.4c0.1,0.1,0.2,0.3,0.4,0.4l0.3,0.2h3.4h3.4l0.2-0.2
		l0.2-0.2l0-0.8c0-0.6-0.1-0.8-0.2-1.2c-0.5-1.4-1.5-2.4-2.9-3.2c-0.7-0.4-1.8-0.7-2.1-0.7c-0.5,0-0.9,0.8-0.6,1.2
		c0.1,0.1,0.3,0.2,0.6,0.3c0.6,0.2,1.3,0.6,1.7,0.8c0.2,0.1,0.5,0.4,0.8,0.7c0.5,0.6,0.8,0.9,0.9,1.5c0.1,0.5,0.3,0.5-2.3,0.5
		c-2,0-2.3,0-2.4-0.1c-0.1-0.1-0.1-0.6-0.1-5v-4.9"/>
	<path class="st1" d="M53,18.5c-0.2,0.1-0.7,0.5-1,0.9c-0.3,0.4-0.3,0.7,0.1,1c0.4,0.4,0.8,0.3,1.3-0.2c0.4-0.4,0.6-0.7,0.6-1
		c0-0.3-0.2-0.6-0.5-0.7C53.2,18.4,53.2,18.4,53,18.5"/>
	<path class="st1" d="M41.2,19.9c-0.3,0.2-0.3,0.2-0.3,3.4c0,1.8,0,3.1-0.1,3.1l-0.1,0.2h-2.3c-2.6,0-2.4,0-2.3-0.5
		c0.1-0.6,0.8-1.6,1.4-2.2c0.3-0.2,0.9-0.6,1-0.6c0.1,0,0.1,0.2,0.1,0.8c0,0.7,0,0.8,0.1,0.9c0.1,0.1,0.2,0.1,0.6,0.1
		c0.4,0,0.5,0,0.6-0.1l0.1-0.1v-1.5v-1.5l-0.2-0.2c-0.2-0.2-0.2-0.2-0.6-0.2c-1,0-2.7,1.1-3.7,2.3c-0.7,0.8-1.1,1.7-1.2,2.7
		c-0.1,0.8,0,1.2,0.5,1.4c0.1,0,1.1,0.1,3.5,0l3.3,0l0.3-0.2c0.1-0.1,0.3-0.3,0.4-0.4c0.1-0.2,0.1-0.3,0.1-3.7l0-3.5l-0.1-0.2
		c-0.1-0.2-0.2-0.2-0.6-0.2C41.5,19.9,41.3,19.9,41.2,19.9"/>
	<path class="st1" d="M32,21.6c-1,0.1-2.2,0.3-3,0.7c-0.9,0.4-1.5,0.7-2.1,1.3c-0.5,0.4-0.7,0.8-0.7,1.2c0,0.4,0.1,0.5,0.4,0.7
		c0.2,0.1,0.4,0.1,2.8,0.1c1.7,0,2.6,0,2.7,0.1c0.1,0.1,0.1,0.7,0,0.8c-0.1,0-1.1,0.1-3.4,0.1c-3.2,0-3.3,0-3.6,0.2
		c-0.5,0.2-0.8,0.5-0.9,1l0,0.2h4.4H33l0.3-0.1c0.5-0.2,0.5-0.4,0.5-1.7c0-1.3-0.1-1.5-0.4-1.7c-0.2-0.1-0.3-0.1-2.6-0.1
		c-1.4,0-2.4,0-2.4-0.1c0-0.1,0.5-0.3,0.9-0.5c0.9-0.4,2.3-0.6,3.6-0.7c0.7,0,0.8-0.1,0.9-0.2c0.1-0.1,0.1-0.2,0.1-0.4
		C33.7,21.6,33.4,21.5,32,21.6"/>
	<path class="st1" d="M60.5,21.6c-0.6,0-1.3,0.2-1.8,0.4c-1.8,0.7-3.3,2.3-3.6,4.2c-0.2,0.9-0.1,1.4,0.3,1.7l0.2,0.1h4.3
		c4.9,0,4.5,0.1,4.2-0.5c-0.2-0.3-0.4-0.5-0.9-0.7c-0.2-0.1-0.6-0.1-3.3-0.1c-1.7,0-3.1,0-3.2,0c-0.2,0-0.2-0.1,0-0.6
		c0.4-1.4,2.2-2.8,3.5-2.8l0.2,0l0,0.9c0,0.9,0,0.9,0.2,1c0.1,0.1,0.2,0.1,0.6,0.1c0.3,0,0.4,0,0.6-0.1l0.2-0.1l0-1.4
		c0-1.1,0-1.4-0.1-1.6C61.7,21.6,61.4,21.5,60.5,21.6"/>
	<path class="st1" d="M51.8,21.6c-0.3,0.1-0.5,0.3-0.5,0.7c0,0.5,0.1,0.6,0.7,0.7c0.2,0,0.4,0,0.4,0c0,0,0.1,0,0.1,0
		c0.1,0.1,0.1,0.5,0.1,2.4v2.3l0.1,0.1c0.1,0.1,0.2,0.1,0.6,0.1c0.3,0,0.5,0,0.6-0.1c0.2-0.2,0.3-0.5,0.3-3.2c0-3.3,0.1-3.2-1.3-3.2
		C52.4,21.6,51.9,21.6,51.8,21.6"/>
</g>
</svg>
