<?xml version="1.0" encoding="utf-8"?>
<!-- Generator: Adobe Illustrator 24.1.2, SVG Export Plug-In . SVG Version: 6.00 Build 0)  -->
<svg version="1.1" id="Layer_1" xmlns="http://www.w3.org/2000/svg" xmlns:xlink="http://www.w3.org/1999/xlink" x="0px" y="0px"
	 viewBox="0 0 75 28" style="enable-background:new 0 0 75 28;" xml:space="preserve">
<style type="text/css">
	.st0{fill-rule:evenodd;clip-rule:evenodd;fill:#1B5B3B;}
	.st1{fill-rule:evenodd;clip-rule:evenodd;fill:#636363;}
</style>
<path class="st0" d="M10.8,1.1c0,0,0.3,0.1,0.5,0.2c1.1,0.4,1.9,1,2.5,2C13.9,3.5,14,3.7,14,3.7c0,0,0.2,0.3,0.4,0.6
	c0.2,0.3,0.4,0.6,0.4,0.6c0,0,0.1,0.2,0.3,0.5C15.2,5.8,15.4,6,15.4,6c0,0,0.1,0.2,0.3,0.5C15.9,6.8,16,7.1,16,7.1
	c0,0-0.3,0.2-0.6,0.5c-1,0.6-0.9,0.6,0.8,0.8C18,8.5,19.6,8.7,20,8.7c0.3,0,0.5-0.2,0.7-0.6c0.1-0.2,0.2-0.5,0.3-0.8
	C21.1,7,21.4,6.4,21.6,6C21.8,5.6,22,5.1,22,5c0.1-0.1,0.2-0.5,0.3-0.7c0.1-0.3,0.2-0.5,0.3-0.6c0.1-0.2,0.1-0.3,0-0.3
	c-0.1,0-0.3,0.1-0.5,0.2c-0.2,0.1-0.4,0.2-0.4,0.2c0,0-0.2,0.1-0.3,0.2c-0.1,0.1-0.3,0.2-0.3,0.2c-0.1,0-0.8-1.3-1.2-2
	c-0.2-0.4-0.6-0.9-1-1C18.8,1,18.3,1,14.7,1C11.9,1,10.7,1,10.8,1.1L10.8,1.1z"/>
<path class="st0" d="M9.5,1.4c-0.3,0.1-0.8,0.3-1,0.5C8.3,2,8.2,2.1,7.5,3.4C7.3,3.7,6.7,4.7,6.2,5.6c-0.5,0.9-1,1.7-1,1.7
	c0,0.1,0,0.2,0.5,0.5C6,7.9,6.4,8.1,6.6,8.3c0.3,0.2,0.5,0.3,0.5,0.3c0,0,0.2,0.1,0.5,0.3C8,9.1,8.1,9.1,9.2,9.7
	c0.3,0.2,0.6,0.3,0.7,0.4c0.2,0.1,0.2,0.1,0.3,0.1c0.1-0.1,0.8-1.1,1.6-2.4c0.1-0.2,0.7-1.1,1.2-1.9c0.5-0.8,1-1.6,1-1.6
	c0-0.3-0.6-1.2-1.2-1.7c-0.4-0.4-1.1-0.8-1.2-0.8c0,0-0.1,0-0.1-0.1C11.2,1.4,10,1.3,9.5,1.4L9.5,1.4z"/>
<path class="st0" d="M3,10.2l-0.9,0l0,0.2c0,0.1,0.1,0.2,0.5,0.5c0.3,0.2,0.6,0.3,0.6,0.4c0.2,0.1,0.2,0.2,0,0.4
	c-0.1,0.2-0.5,0.9-0.6,1.2c-0.1,0.3-0.3,1.1-0.3,1.4c0,0.3,0.1,0.8,0.3,1.2c0.3,0.8,1.3,1.4,2.5,1.7c0.5,0.1,1.7,0.1,2.1,0
	c0.3-0.1,0.3-0.2,0.1-0.5c-0.1-0.2-0.2-0.6,0-0.9c0.2-0.4,1.2-1.5,1.3-1.5c0.1,0,0.2,0.1,0.3,0.1c0.7,0.5,1,0.6,1.1,0.6
	c0.1,0,0.2-0.2,0.1-0.3c-0.1-0.1-0.3-0.5-0.5-1c-0.2-0.5-0.5-1-0.7-1.3c-0.1-0.3-0.4-0.8-0.6-1.2c-0.2-0.4-0.5-0.8-0.6-0.9l-0.2-0.2
	l-1.7,0C4.7,10.2,3.5,10.2,3,10.2L3,10.2z"/>
<path class="st0" d="M2.9,16.9c0,0.1,0.1,0.3,0.2,0.4c0.1,0.2,0.3,0.5,0.4,0.7c0.2,0.4,0.3,0.6,0.9,1.7c0.1,0.2,0.4,0.7,0.6,1
	c0.5,0.9,1,1.7,1.3,2.2c0.3,0.5,0.7,0.7,1.1,0.9c0.3,0.1,6.3,0,6.4-0.1c0.1-0.1,0.1-6.2,0-6.3c-0.1-0.1,0.2-0.1-4.3,0
	c-3.5,0-4.1,0-4.5,0c-0.6-0.1-1.1-0.3-1.5-0.5C3,16.8,2.9,16.8,2.9,16.9L2.9,16.9z"/>
<path class="st0" d="M56.2,20.4c0,0.1,0,0.3,0.3,1.4c0,0.2,0.1,0.4,0.1,0.5c0,0.1,0.1,0.4,0.2,0.5c0.1,0.2,0.1,0.4,0.1,0.5
	c0.1,0.3,0.2,0.3,0.4,0.2c0.1-0.1,0.2-0.3,0.3-0.9c0-0.1,0.1-0.4,0.2-0.5c0.1-0.2,0.1-0.5,0.2-0.7c0.1-0.3,0.2-0.4,0.2-0.2
	c0,0.1,0,0.2,0.1,0.3c0,0.1,0.2,0.5,0.3,1.1c0.2,0.8,0.3,1,0.4,1c0.1,0,0.1,0,0.2,0c0.1,0,0.3-0.7,0.4-1.1c0-0.1,0.1-0.5,0.2-0.7
	c0.1-0.3,0.2-0.6,0.2-0.7c0-0.1,0.1-0.3,0.1-0.4c0.1-0.2,0-0.4-0.1-0.4c-0.2,0-0.3,0.3-0.5,1.3c0,0.1-0.1,0.4-0.2,0.6
	S59,22.6,59,22.7c-0.1,0.2-0.1,0.2-0.2-0.3c0-0.2-0.1-0.4-0.1-0.5c0-0.1-0.1-0.4-0.2-0.6c-0.2-0.9-0.3-1.1-0.4-1.1
	c-0.1,0-0.2,0.1-0.3,0.3c0,0.1-0.1,0.3-0.1,0.5c-0.2,0.6-0.3,1-0.3,1.1c0,0.1-0.1,0.2-0.1,0.3l-0.1,0.2L57,22.2
	c-0.1-0.4-0.2-0.8-0.3-1c-0.1-0.2-0.1-0.4-0.1-0.5C56.6,20.4,56.3,20.2,56.2,20.4L56.2,20.4z"/>
<path class="st0" d="M60.4,20.4c0,0,0,0.8,0,1.7l0,1.6l1.1,0l1.1,0v-0.2c0-0.1,0-0.2-0.1-0.2c-0.1,0-0.5,0-0.9,0l-0.8,0v-0.5v-0.5
	l0.7,0c0.6,0,0.8,0,0.8-0.1c0.1-0.1,0.1-0.1,0.1-0.2c0,0,0-0.1,0-0.1c0,0-0.4,0-0.8,0h-0.8l0-0.6l0-0.6l0.7,0c0.9,0,1,0,1-0.2l0-0.2
	l-1,0C60.6,20.3,60.4,20.3,60.4,20.4L60.4,20.4z"/>
<path class="st0" d="M63.1,20.4c-0.1,0.1-0.1,3.2,0,3.3c0.1,0,0.4,0.1,1.1,0.1c1,0,1,0,1-0.2c0-0.2-0.1-0.2-1-0.2l-0.8,0l0-0.5
	l0-0.5l0.7,0c0.8,0,1,0,1-0.3c0-0.1-0.1-0.1-0.8-0.2l-0.8,0l0-0.5l0-0.5l0.8,0c0.8,0,1,0,1-0.3c0-0.1,0-0.1-1-0.2
	C63.4,20.3,63.1,20.3,63.1,20.4L63.1,20.4z"/>
<path class="st0" d="M65.7,20.4c0,0.1-0.1,0.7-0.1,1.6s0,1.5,0.1,1.6c0.1,0.1,0.1,0.1,1.1,0.1c1,0,1,0,1.1-0.1
	c0.1-0.2,0-0.3-0.9-0.2l-0.9,0v-0.6v-0.6l0.7,0c0.8,0,1,0,1-0.3c0-0.1,0-0.1-0.9-0.2l-0.8,0v-0.6v-0.6l0.8,0c0.9,0,1.1,0,1-0.3
	c0-0.1-0.1-0.1-1.1-0.1C65.8,20.3,65.7,20.3,65.7,20.4L65.7,20.4z"/>
<path class="st1" d="M63.4,3.3c-0.7,0.2-1.1,0.8-1.1,1.5c0,0.8,0.7,1.5,1.6,1.5c0.5,0,0.7-0.1,1.2-0.6c0.5-0.5,0.6-0.7,0.6-1.2
	C65.6,3.5,64.6,3,63.4,3.3L63.4,3.3z"/>
<path class="st1" d="M68.1,3.3c-0.9,0.2-1.4,0.7-1.4,1.5c-0.1,1.1,1.1,1.9,2.1,1.4c0.3-0.1,0.9-0.7,1.1-1C70,5,70.1,4.3,69.9,4
	c-0.2-0.5-0.8-0.8-1.4-0.8C68.4,3.2,68.2,3.2,68.1,3.3L68.1,3.3z"/>
<path class="st1" d="M21.2,10c0,0.9,0,3,0,4.8c0,1.8,0,3.8,0,4.6l0,1.4l-0.2,0.2L20.6,21l-1.5,0c-0.8,0-1.6,0.1-1.7,0.1l-0.2,0
	l0,0.7c0,0.4,0,1,0,1.4l0,0.7l0.2,0.1c0.2,0.1,0.4,0.1,1.8,0.1c1.7,0,2-0.1,2.7-0.4c0.7-0.3,1.5-1.3,1.9-2.1c0.1-0.3,0.3-1.2,0.3-2
	c0-0.5,0-0.6,0.1-0.7c0.1,0,1.7,0,3.7,0h3.6l0.5-0.2c0.6-0.2,1.1-0.5,1.5-0.9c0.4-0.4,0.8-0.9,1-1.5l0.2-0.5l0-3.5
	c0-3.3,0-3.6-0.1-3.7l-0.1-0.2h-1.3h-1.3l-0.1,0.2c-0.1,0.1-0.1,1.1-0.1,3.5v3.3l-0.3,0.3l-0.3,0.3h-3.4c-3,0-3.4,0-3.5-0.1
	c-0.1-0.1-0.1-0.9-0.1-3.6c0-3.3,0-3.5-0.1-3.6c-0.1-0.1-0.3-0.1-1.5-0.1l-1.4,0L21.2,10L21.2,10z"/>
<path class="st1" d="M47.4,10.4C47,9.6,46,8.8,45.2,8.6c-0.6-0.2-3.4-0.3-4.6-0.2c-0.6,0.1-1.1,0.2-1.6,0.5
	c-0.7,0.5-1.3,1.2-1.5,1.9c-0.2,0.4-0.3,2-0.3,2.9c0,1,0.1,2.2,0.3,2.7c0.4,1.1,1.3,1.9,2.5,2.3c0.4,0.1,0.6,0.1,2.6,0.1
	c1.2,0,2.2,0,2.2,0c0,0,0,0.4,0,0.8c-0.1,1.3-0.1,1.3-2.2,1.3c-1.3,0-1.6,0-1.6,0.1c-0.1,0.1-0.1,0.3-0.1,1.5c0,0.9,0,1.4,0.1,1.4
	c0,0,0.9,0,1.9,0c1.4,0,1.8,0,2.1-0.1c1.4-0.4,2.4-1.5,2.8-2.8c0.1-0.4,0.1-0.7,0.1-4.8C47.8,11.4,47.8,11.3,47.4,10.4z M44.6,15.9
	c-0.1,0-1,0-2.1,0l-1.9,0l-0.2-0.2c-0.3-0.3-0.4-0.4-0.4-2.1c0-1.8,0-1.9,0.7-2.2c0,0,0.8,0,1.7,0c2.4,0,2.2-0.2,2.3,2.5l0,1.9
	L44.6,15.9z"/>
<path class="st1" d="M51.5,8.5l-0.2,0.1l0,1.3c0,1.3,0,1.3,0.1,1.4c0.1,0.1,0.3,0.1,2.2,0.1c1.8,0,2.1,0,2.2,0.1
	c0.4,0.2,0.4,0.3,0.4,2.1c0,1.7,0,1.9-0.3,2.1c-0.2,0.1-0.4,0.1-2.9,0.1l-2.7,0l-0.1,0.2c-0.1,0.2-0.1,0.2-0.1,1.3v1.1l0.2,0.2
	l0.2,0.2l8.1,0c5.7,0,8.1,0,8.3-0.1c0.6-0.2,1.3-0.5,1.7-0.8c0.9-0.6,1.3-1.4,1.4-2.3c0.1-0.4,0.2-5.3,0.2-7l0-0.4l-1.6,0
	c-1.2,0-1.6,0-1.7,0.1C66.7,8.6,66.7,9,66.7,12c0,1.9,0,3.5-0.1,3.5c0,0.1-0.1,0.2-0.2,0.2c-0.2,0.1-0.4,0.1-3.5,0.1l-3.4,0l0-0.1
	c0-0.1,0-0.5,0-0.9c0-1.3-0.1-3.2-0.2-3.7c-0.1-0.7-0.3-1.1-0.8-1.5c-0.8-0.8-1.2-1-2.3-1.1C55.2,8.4,51.7,8.4,51.5,8.5L51.5,8.5z"
	/>
<path class="st1" d="M48.1,20.4c0,0,0,0.1,0,0.2c0,0.2,0.2,0.2,0.7,0.2l0.3,0l0,1.4c0,1.2,0,1.5,0.1,1.5c0,0,0.1,0.1,0.2,0
	c0.1,0,0.1-0.3,0.1-1.5l0-1.5l0.4,0c0.5,0,0.7-0.1,0.7-0.3c0-0.1,0-0.1-1.3-0.1C48.7,20.3,48.1,20.3,48.1,20.4L48.1,20.4z"/>
<path class="st1" d="M53.1,23.4c-0.1-0.2-0.2-0.4-0.4-1c-0.1-0.2-0.2-0.5-0.2-0.5c-0.6-1.6-0.6-1.6-0.8-1.6c-0.1,0-0.1,0-0.2,0.1
	c-0.1,0.1-0.2,0.5-0.4,0.9c-0.1,0.2-0.2,0.5-0.2,0.6c-0.1,0.3-0.2,0.4-0.4,0.9c-0.1,0.2-0.2,0.5-0.3,0.6c-0.1,0.2-0.1,0.4,0.1,0.4
	c0.1,0,0.2,0,0.4-0.5l0.1-0.4h1.5l0.2,0.4c0.2,0.5,0.2,0.5,0.4,0.5C53.1,23.7,53.2,23.6,53.1,23.4z M51.7,22.3c-0.4,0-0.6,0-0.5-0.1
	c0,0,0.1-0.2,0.1-0.4c0.1-0.1,0.1-0.4,0.2-0.5c0-0.1,0.1-0.2,0.1-0.3c0-0.2,0.1-0.2,0.2,0.1c0.2,0.4,0.4,0.9,0.4,1
	C52.3,22.3,52.3,22.3,51.7,22.3z"/>
<path class="st1" d="M55.9,21.2c-0.3-0.4-0.5-0.6-0.8-0.8c-0.3-0.1-0.4-0.1-1-0.1c-0.6,0-0.7,0-0.7,0.1c0,0.1-0.1,0.7-0.1,1.6
	c0,0.9,0,1.5,0.1,1.6c0.1,0.1,0.1,0.1,0.7,0.1c0.8,0,1.1-0.1,1.4-0.5c0.4-0.4,0.5-0.7,0.5-1.2C56.1,21.6,56.1,21.5,55.9,21.2z
	 M55.3,23c-0.2,0.2-0.7,0.3-1.1,0.3l-0.4,0V22c0-0.7,0-1.3,0-1.3s0.2,0,0.5,0c0.6,0,1,0.2,1.2,0.5c0.1,0.2,0.2,0.3,0.2,0.7
	C55.7,22.5,55.6,22.8,55.3,23z"/>
<path class="st1" d="M70.1,22.5c0,0,0.2-0.1,0.3-0.3l0.3-0.2v-0.5c0-0.5,0-0.5-0.2-0.7c-0.1-0.1-0.3-0.3-0.4-0.3
	c-0.3-0.1-1.6-0.1-1.7,0c-0.1,0.1-0.1,3.2,0,3.3c0.2,0.1,0.3,0,0.3-0.5l0-0.6l0.5,0l0.5,0l0.3,0.4c0.4,0.6,0.5,0.7,0.7,0.7
	c0.1,0,0.1,0,0.1-0.2c0-0.1,0-0.2-0.1-0.2C70.5,23.4,70,22.6,70.1,22.5C70,22.5,70,22.5,70.1,22.5z M69.3,22.2h-0.6v-1.5l0.6,0
	c0.8,0,1.1,0.2,1.1,0.8c0,0.3,0,0.3-0.2,0.5C69.9,22.2,69.9,22.2,69.3,22.2z"/>
<path class="st1" d="M28.3,21.2c-0.7,0.3-1.1,1.4-0.8,2.1c0.3,0.6,0.7,0.8,1.4,0.8c0.4,0,0.5,0,0.7-0.1c0.6-0.3,1-1.1,0.7-1.9
	c-0.1-0.3-0.5-0.7-0.8-0.9C29.2,21,28.6,21,28.3,21.2L28.3,21.2z"/>
<path class="st1" d="M32.6,21.2c-0.5,0.2-0.8,0.6-0.9,1.1c-0.1,0.3,0,0.6,0.2,1c0.3,0.6,1,0.9,1.6,0.8c0.8-0.2,1.4-1,1.2-1.8
	C34.6,21.4,33.5,20.8,32.6,21.2L32.6,21.2z"/>
</svg>
