<?xml version="1.0" encoding="utf-8"?>
<!-- Generator: Adobe Illustrator 24.1.2, SVG Export Plug-In . SVG Version: 6.00 Build 0)  -->
<svg version="1.1" id="Layer_1" xmlns="http://www.w3.org/2000/svg" xmlns:xlink="http://www.w3.org/1999/xlink" x="0px" y="0px"
	 viewBox="0 0 75 28" style="enable-background:new 0 0 75 28;" xml:space="preserve">
<style type="text/css">
	.st0{fill-rule:evenodd;clip-rule:evenodd;fill:#DFB822;}
	.st1{fill-rule:evenodd;clip-rule:evenodd;fill:#348E44;}
</style>
<path class="st0" d="M38.5,0.6C38.5,0.7,38.5,0.7,38.5,0.6c0,0,0.1,0.1,0.2,0.1c0.1,0.1,0.1,0.1,0.1,0C38.7,0.5,38.6,0.5,38.5,0.6
	 M39.4,2.2c0,0.2-0.1,0.2-0.6,0.2l-0.6,0l0.6,0C39.4,2.5,39.5,2.4,39.4,2.2C39.4,2.1,39.4,2.1,39.4,2.2 M38.8,2.7
	c0.3,0,0.6,0.1,0.6,0.1c0,0.1,0,0,0,0C39.4,2.8,39.3,2.7,38.8,2.7l-0.6,0L38.8,2.7 M37.7,3.6c0,0.1,0.2,0.1,1.1,0.1h1.1v0.4v0.4
	l-1,0l-1,0l1,0l1,0l0-0.4C40,3.6,40,3.6,39,3.6c-0.6,0-1,0-1.1-0.1C37.7,3.5,37.7,3.5,37.7,3.6 M38.4,4.2c0,0.2,0,0.2,0,0.2
	c0-0.1,0-0.2,0-0.3C38.4,4,38.4,4,38.4,4.2 M39.5,4.2c0,0.2,0,0.2,0,0.2c0-0.1,0-0.2,0-0.3C39.5,4,39.5,4,39.5,4.2 M39.7,4.2
	c0,0.2,0,0.2,0,0.2c0-0.1,0-0.2,0-0.3C39.7,4,39.7,4,39.7,4.2 M38.9,5l1.1,0l-0.2,0.2l-0.2,0.2l0.2-0.2C39.9,5.1,40,5,40,5
	C40,5,39.5,4.9,38.9,5l-1.1,0L38.9,5 M35.2,5.8c-0.1,0.1-0.1,0.1-0.1,0.2c0.1,0,0.1,0,0.2,0c0,0,0-0.1-0.1-0.1c-0.1,0,0-0.1,0.1-0.1
	c0.1-0.1,0.2-0.1,0.1-0.1C35.4,5.6,35.3,5.7,35.2,5.8 M38,5.8c0,0-0.1,0.4-0.1,0.8v0.7l-0.6,0c-0.7,0.1-1.7,0.4-2.6,0.8
	c-1,0.5-1,0.6,0.2,1.1l0.5,0.2L35.9,9c0.6-0.5,1-0.9,1.6-1.2c0.7-0.4,0.5-0.1-0.2,0.3c-0.7,0.5-1.6,1.2-1.5,1.3
	c0.1,0.1,1,0.3,1.1,0.3c0.1,0,0.2-0.2,0.2-0.3c0.2-0.4,0.8-1.2,0.8-1.1c0,0.1-0.2,0.4-0.4,0.7c-0.2,0.3-0.4,0.7-0.4,0.7
	c0,0,0.2,0.1,0.3,0.1c0.1,0,0.3,0,0.3,0.1c0,0-0.2,0.1-0.4,0c-0.4,0-0.4,0-0.6,0.3c-0.4,0.7-0.6,1.3-0.6,1.7c0,0.2-0.1,0.4-0.1,0.4
	c-0.1,0.1-0.4,1.3-0.4,2.3l-0.1,0.7l0.3,0.1c0.2,0,0.3,0,0.4,0c0,0,0.2,0,0.4,0c0.1,0,0,0-0.4,0.1l-0.6,0.1l0,0.3
	c0,0.2,0,0.3-0.1,0.3c-0.1,0-0.1,0-0.1-0.1c0-0.1,0-0.2,0-0.3c-0.1-0.2-0.1-0.2-1.2-0.2h-1.1l0,0.5c0,0.3,0,0.4,0.1,0.4
	c0-0.1,0.4-0.1,1.5-0.1c1.3,0,1.5,0,1.7-0.2c0.3-0.2,0.4-0.2,2.5-0.2c2.1,0,2.2,0,2.4,0.2c0.1,0.1,0.3,0.2,0.5,0.2
	c0.2,0,0.2,0,0.2-0.4v-0.4h-0.7c-0.4,0-0.7,0-0.7-0.1c0,0,0.3-0.1,0.6-0.1c0.3,0,0.6,0,0.7-0.1c0.1-0.1,0.1-1.5-0.1-2.4l-0.1-0.5
	l-0.4,0l-0.4,0l0.3-0.1c0.2,0,0.3-0.1,0.3-0.1c0-0.2-0.4-1.3-0.7-1.8c-0.2-0.5-0.2-0.5-0.6-0.4c-0.2,0-0.8,0.1-1.3,0.1l-1,0.1V9.9
	V9.7h0.8c0.6,0,0.8,0,0.8,0.1c0,0.1,0.1,0.1,0.4,0.1c0.3,0,0.4-0.1,0.4-0.2c0-0.1-0.2-0.4-0.4-0.8c-0.2-0.3-0.4-0.7-0.4-0.7
	c0,0,0.2,0.2,0.4,0.6c0.6,1,0.6,1,1.2,0.8c0.3-0.1,0.5-0.1,0.5-0.2c0-0.2-1.7-1.5-2.1-1.7c-0.1,0-0.1-0.1-0.1-0.1
	c0.1-0.1,1.4,0.8,2,1.3l0.5,0.4l0.6-0.2c0.8-0.3,0.9-0.4,0.7-0.6c-0.5-0.5-2.3-1.2-3.3-1.3l-0.5-0.1l0-0.7c0-0.7,0-0.7-0.3-0.7
	c-0.2,0-0.2,0,0,0c0.2,0,0.2,0,0.2,1.6V9l-0.2,0c-0.2,0-0.2-0.1-0.3-0.7l-0.1-0.6l0,0.7l0,0.7h-0.3h-0.3l0-0.6l0-0.6l-0.1,0.6
	c0,0.5-0.1,0.6-0.3,0.6L38,9V7.4L38,5.8l0.3,0l0.2,0l-0.2,0C38.2,5.7,38,5.8,38,5.8 M38.7,5.8c0.1,0,0.2,0,0.3,0c0.1,0,0,0-0.2,0
	S38.6,5.8,38.7,5.8 M43.1,6.2c-0.2,0.3-0.1,0.4,0,0.1c0.1-0.1,0.1-0.3,0.1-0.3C43.3,6,43.2,6.1,43.1,6.2 M33.5,6.4
	c0.1,0.1,0.2,0.3,0.2,0.3C33.7,6.6,33.7,6.5,33.5,6.4c0-0.1-0.1-0.3-0.1-0.3C33.4,6.1,33.4,6.2,33.5,6.4 M44.4,6.5
	C44.4,6.6,44.4,6.6,44.4,6.5c0.1,0,0.3,0,0.3,0c0.1,0,0.1,0,0,0C44.7,6.3,44.5,6.3,44.4,6.5 M46.7,6.8l-0.3,0.3L46.7,6.8
	c0.2-0.2,0.4-0.2,0.5-0.2c0.1,0,0.1,0,0,0C47.1,6.4,47,6.4,46.7,6.8 M30,6.8c-0.2,0.2-0.3,0.4-0.1,0.4c0,0,0.1-0.1,0-0.1
	S29.9,6.9,30,6.8c0.2-0.1,0.3-0.1,0.4,0c0.1,0.1,0.1,0.1,0,0C30.2,6.6,30.2,6.6,30,6.8 M34.1,7.4c0.1,0.2,0.2,0.3,0.3,0.1
	c0-0.1,0-0.1,0,0C34.3,7.5,34.2,7.5,34.1,7.4C34,7.2,34,7.2,34.1,7.4 M46.6,7.8l-0.5,0.5L46.6,7.8c0.5-0.4,0.6-0.5,0.5-0.5
	C47.1,7.3,46.9,7.5,46.6,7.8 M45.4,7.6l-0.3,0.3L45.4,7.6c0.3-0.2,0.4-0.3,0.3-0.3C45.7,7.3,45.6,7.5,45.4,7.6 M43.1,7.6
	c0,0,0.1,0.1,0.3,0.2c0.1,0.1,0.3,0.1,0.3,0.1c0,0-0.1-0.1-0.3-0.2C43.3,7.6,43.1,7.5,43.1,7.6 M45.6,8c-0.3,0.2-0.4,0.4-0.4,0.4
	c0,0,0.3-0.2,0.5-0.4C46.3,7.4,46.2,7.4,45.6,8 M44.7,7.7c0,0.1,0,0.1,0,0.2c0.1,0.1,0.1,0.1,0.1,0.2c0,0,0,0.1,0.1,0.2
	C45,8.3,45,8.3,45,8.3c0-0.1,0-0.1,0-0.1c0.1,0,0-0.1-0.1-0.1C44.8,7.9,44.8,7.8,44.7,7.7C44.8,7.6,44.8,7.6,44.7,7.7 M28.9,7.9
	C28.7,8.1,28.7,8.1,28.9,7.9C29,7.9,29.1,7.9,29.3,8c0.2,0.2,0.2,0.2,0.1,0.3c-0.1,0.1-0.2,0.1-0.4,0c-0.2-0.1-0.2-0.1,0,0
	c0.2,0.2,0.3,0.2,0.5,0c0.2-0.2,0.2-0.2,0-0.4C29.1,7.7,29,7.7,28.9,7.9 M31,8.3c0,0,0.1,0.1,0.3,0.3l0.3,0.3l-0.3-0.3
	C31.1,8.3,31,8.2,31,8.3 M44.3,8.3c0,0,0,0.1,0.1,0.2c0.1,0.1,0.1,0.1,0.2,0c0,0,0-0.1-0.1-0.2C44.4,8.3,44.3,8.3,44.3,8.3
	 M32.4,8.8l-0.3,0.3L32.4,8.8c0.3-0.3,0.4-0.3,0.3-0.3C32.7,8.5,32.5,8.7,32.4,8.8 M46,8.8l-0.3,0.3L46,8.8c0.3-0.2,0.4-0.3,0.3-0.3
	C46.2,8.5,46.1,8.6,46,8.8 M48.1,8.6c0.1,0.1,0.2,0.1,0.2,0.1c0.1,0,0-0.1,0-0.1c-0.1-0.1-0.2-0.1-0.2-0.1C48,8.5,48,8.6,48.1,8.6
	 M48.6,8.6c0,0.1,0,0.1,0.1,0.2c0.1,0.1,0.2,0.1,0.1,0.2c0,0,0,0.1,0.1,0.2c0.1,0.1,0.2,0.1,0.1,0.2c0,0,0,0,0.1,0
	c0.1,0,0.1,0-0.1-0.2C49,9.1,48.9,9,48.9,9C49,8.8,48.6,8.5,48.6,8.6 M29.9,8.8c-0.2,0.2-0.2,0.2-0.1,0.3c0.1,0.1,0.1,0.1,0.1,0
	C29.9,9.1,29.9,8.9,29.9,8.8c0.2-0.1,0.3-0.2,0.3-0.2S30.1,8.7,29.9,8.8 M43.9,8.7c0.1,0.1,0.1,0.2,0,0.1c-0.1,0-0.2,0-0.2,0.1
	C43.6,9,43.3,9.1,43,9.2c-0.3,0.1-0.5,0.3-0.6,0.3c0,0.1,0.1,0.2,0.2,0.4c0.2,0.2,0.4,0.5,0.5,0.8c0.1,0.2,0.4,0.6,0.5,0.7l0.2,0.3
	l0.8-0.4c0.4-0.2,0.8-0.4,0.9-0.5c0.2-0.1,0.2-0.1-0.1-0.5c-0.1-0.2-0.5-0.6-0.8-0.8C44.4,9.3,44.3,9,44.3,9c0.1,0,0.1,0,0,0
	C44.2,9,44.1,8.9,43.9,8.7C43.8,8.6,43.8,8.6,43.9,8.7 M33.1,9.1c-1.1,0.9-2.2,2.4-2.6,3.6c-0.1,0.2-0.1,0.4-0.2,0.4
	c0,0-0.1,0.1-0.1,0.1c0,0.2-0.3,0.2-0.4,0c0-0.1-0.1,0-0.1,0.2c0,0.2,0,0.4,0,0.4c0,0,0.1,0,0.1-0.1c0-0.1,0.1-0.2,0.2-0.2
	c0.2,0,0.2,0,0.1,0.2c0,0.1-0.1,0.2,0,0.2c0,0,0,0.3-0.1,0.6c-0.1,0.7-0.1,0.8,0.5,0.8c0.3,0,0.4,0,0.7,0.2c0.1,0.1,0.3,0.3,0.3,0.4
	c0.1,0.1,0.1,0.1,0.2-0.2l0.1-0.3l-0.2,0.1c-0.2,0.1-0.3,0-0.5-0.2C31,15.3,31,15.2,31,14.8c0-0.3,0-0.5,0-0.5
	c0.1,0,0.4,0.4,0.5,0.7c0.1,0.2,0.2,0.4,0.2,0.2c0-0.1,0.5-0.6,0.6-0.6c0.2,0,0.2,0.2,0,0.5c-0.2,0.3-0.2,0.4,0,0.3
	c0.2-0.1,0.1,0.7-0.1,0.9c-0.1,0.2-0.1,0.2,0,0.2c0.2-0.1,0.3,0.2,0.2,0.6c-0.1,0.2,0,0.3,0,0.3c0.1-0.1,0.3,0.5,0.2,0.8
	c0,0.1,0,0.2,0.1,0.2c0.1-0.1,0.3,0.2,0.3,0.6c0,0.2,0,0.3,0.1,0.3c0.2,0,0.3,0.3,0.3,0.7c0,0.2,0,0.2,0.1,0.2
	c0.2-0.4,0.6,0.3,0.5,0.9l-0.1,0.4l0.8,0.6c0.8,0.6,1,0.8,0.5,0.6c-0.1-0.1-0.5-0.3-0.8-0.6c-0.4-0.3-0.6-0.4-0.8-0.4
	c-0.1,0-0.3,0-0.5-0.1c-0.4-0.1-0.9-0.6-0.7-0.7c0.2-0.1,0.1-0.2-0.2-0.3c-0.1-0.1-0.3-0.3-0.4-0.4c-0.1-0.2-0.1-0.3,0-0.3
	c0.1,0,0.1-0.1-0.1-0.3c-0.3-0.3-0.5-0.6-0.5-0.7c0,0,0.1-0.1,0.1-0.1c0.1,0,0.1-0.1-0.1-0.3c-0.3-0.4-0.4-0.8-0.1-0.7
	c0.1,0,0-0.1-0.1-0.3C31.1,17.2,31,17,31,17c0-0.1,0-0.2-0.1-0.3c0-0.1,0-0.1,0.1-0.1c0.2,0,0.2,0,0-0.4c-0.1-0.2-0.2-0.4-0.2-0.5
	c0-0.2-0.7-0.2-0.8,0c-0.1,0.4,0.4,2.5,0.8,3.4c0.4,0.8,1.3,1.9,1.9,2.5c0.8,0.7,0.9,0.7,1.3,0.5c0.2-0.1,0.4-0.2,0.4-0.1
	c0,0-0.1,0.1-0.2,0.2c-0.2,0.1-0.3,0.2-0.3,0.3c0,0.1,1.2,0.7,1.9,1c0.8,0.3,2.4,0.5,2.5,0.4c0.1-0.1,0-0.2-0.4-0.3
	c-0.5-0.2-1.7-1-1.9-1.1c0,0-0.2-0.2-0.4-0.4c-0.3-0.3-0.4-0.3-0.7-0.2c-0.3,0-0.3,0-0.1,0c0.3-0.1,0.3-0.2,0-0.6
	c-0.2-0.2-0.5-0.6-0.7-0.9c-0.4-0.7-0.7-1.5-0.5-1.3c0.1,0.1,0.2,0.1,0.3,0.1c0.1,0,0.1,0,0-0.1c-0.1,0-0.2-0.3-0.3-0.6
	c-0.1-0.3-0.3-0.7-0.4-0.9c-0.1-0.3-0.2-0.6-0.3-1.2c-0.1-0.8-0.1-0.8-0.3-0.8l-0.2,0l0.2-0.1c0.2-0.1,0.2-0.2,0.3-0.7
	c0.1-0.8,0.3-1.9,0.6-2.5c0.1-0.3,0.1-0.5,0.1-0.5c0,0-0.5-0.3-1-0.5c-0.5-0.3-0.9-0.5-0.9-0.5c0,0,0.2,0,0.4,0.1
	c0.2,0.1,0.6,0.3,0.9,0.5c0.5,0.2,0.6,0.3,0.7,0.2c0.1-0.1,0.1-0.1,0.1-0.2c0-0.1,0.8-1.3,1-1.5c0.1-0.1,0.2-0.2,0.2-0.3
	c0-0.1-1.5-0.8-1.6-0.8C33.6,8.8,33.4,8.9,33.1,9.1 M38,9.3c0,0.2,0,0.2,0.8,0.2c0.8,0,0.8,0,0.8-0.2s0-0.2-0.8-0.2
	C38,9,38,9,38,9.3 M45.6,9.5c0.2,0.2,0.2,0.2,0.4,0c0.2-0.2,0.2-0.2,0-0.1C45.8,9.6,45.8,9.6,45.6,9.5l-0.2-0.2L45.6,9.5 M35.1,10
	c-0.8,1-1.2,1.6-1,1.7c0.1,0.1,1.4,0.4,1.6,0.4c0.1,0,0.2-0.2,0.3-0.5c0.1-0.3,0.3-0.7,0.4-1.1c0.1-0.3,0.3-0.6,0.3-0.7
	c0-0.1-0.4-0.2-1-0.3C35.6,9.6,35.5,9.6,35.1,10 M41.4,9.7C41.2,9.8,41,9.9,41,10c0,0.1,0.1,0.3,0.2,0.6c0.1,0.3,0.3,0.7,0.4,1
	c0.1,0.3,0.2,0.5,0.2,0.6c0.1,0.1,1.6-0.2,1.8-0.4c0.2-0.1-1.3-2.2-1.5-2.2C42,9.6,41.7,9.7,41.4,9.7 M49.7,10
	C49.7,10,49.7,10,49.7,10c0.1,0,0.2,0,0.3,0.1c0.1,0.2,0.1,0.2,0,0C49.9,9.8,49.8,9.8,49.7,10 M37.7,10.5l-0.4,0.2l0.7,0
	c0.4,0,1.1,0,1.5,0l0.7,0l-0.4-0.2c-0.3-0.2-0.4-0.2-1.1-0.2S38,10.2,37.7,10.5 M28.7,10.8c-0.1,0.1-0.1,0.2,0,0.3
	c0.1,0.1,0.1,0.1,0,0C28.7,11.1,28.7,10.9,28.7,10.8c0.1-0.1,0.2-0.2,0.1-0.2C28.8,10.7,28.7,10.7,28.7,10.8 M37.5,10.9l-0.3,0
	l0,0.7l0,0.7l1.5,0l1.5,0v-0.8c0-0.7,0-0.8-0.2-0.8C39.8,10.9,37.8,10.9,37.5,10.9 M45.2,11.1c-0.2,0.2-0.6,0.3-0.8,0.4
	c-0.5,0.2-0.6,0.3-0.3,0.8c0.3,0.7,0.5,1.5,0.5,2.3c0,0.6,0.1,0.7,0.2,0.8c0.1,0,0.1,0.1,0,0.1c-0.1,0.1-0.2,0.4-0.2,1
	c-0.1,0.8-0.2,1-0.5,1.7c-0.3,0.6-0.4,0.9-0.4,1.2c0,0.2,0,0.4-0.1,0.5c0,0.1,0,0.1,0.1,0.1c0.1,0,0.2-0.1,0.2-0.3
	c0.1-0.4,0.2-0.7,0.4-0.5c0.1,0.1,0.1,0,0.1-0.3c0-0.4,0.1-0.7,0.3-0.6c0.1,0,0.1-0.1,0.1-0.4c0-0.4,0-0.5,0.1-0.6
	c0.1,0,0.1-0.1,0.1-0.4c0-0.3,0-0.4,0.1-0.5c0.1-0.1,0.5,0.2,0.6,0.6l0.1,0.3L46,17l0.2-0.3l-0.2,0c-0.3,0.1-0.7-0.3-0.8-0.7
	c-0.1-0.4,0-0.7,0.1-0.7c0,0,0-0.1-0.1-0.2c-0.2-0.4-0.2-0.6,0-0.6c0.2,0,0.6,0.5,0.6,0.7c0,0.1,0.1-0.1,0.2-0.4
	c0.1-0.2,0-0.2-0.2-0.2c-0.3,0.1-0.6-0.1-0.8-0.5c-0.2-0.2-0.2-0.7-0.1-0.7c0.2,0,0.6,0.2,0.7,0.4c0.2,0.3,0.2,0.3,0.3-0.1
	c0.1-0.3,0.4-0.8,0.5-0.7c0.1,0.1,0.1,1-0.1,1.2c-0.1,0.2-0.1,0.2,0,0c0.1-0.1,0.2-0.1,0.2,0c0.1,0.2,0,0.8-0.2,1.1
	c-0.1,0.1-0.1,0.2,0,0.1c0.2-0.2,0.3-0.1,0.3,0.2c0,0.2-0.1,0.4-0.2,0.7c-0.1,0.2-0.2,0.3-0.1,0.2c0.2-0.2,0.3-0.1,0.3,0.1
	c0,0.1-0.1,0.4-0.2,0.6c-0.2,0.3-0.2,0.3-0.1,0.3c0.2,0,0.1,0.4-0.2,0.8C46,18.6,46,18.7,46,18.8c0.2,0.1-0.1,0.6-0.4,0.8
	c-0.2,0.1-0.2,0.2-0.1,0.2c0.1,0,0.1,0.1,0.1,0.1c0,0.1-0.6,0.7-0.7,0.7c-0.1,0-0.1,0-0.1,0.1c0,0,0,0.1,0.1,0.1
	c0.2,0,0.1,0.3-0.2,0.5c-0.2,0.2-0.4,0.3-0.7,0.3c-0.2,0-0.5,0.1-0.6,0.1l-0.2,0.1l0.3,0.2c0.1,0.1,0.3,0.2,0.4,0.2
	c0.2,0,1.1-0.9,1.6-1.5c1.1-1.4,1.7-2.8,1.9-4.5l0.1-0.7l-0.3,0c-0.3,0-0.3,0-0.1-0.1c0.1,0,0.3-0.1,0.3-0.2c0-0.1,0-0.5-0.1-0.9
	c-0.1-0.4-0.1-0.9-0.1-1.1c0-0.3,0-0.4-0.1-0.3c-0.1,0-0.1,0-0.1-0.1c0-0.1-0.4-1-0.5-1.3c0-0.1-0.2-0.3-0.3-0.5
	c-0.1-0.2-0.2-0.3-0.3-0.3C45.7,10.8,45.5,11,45.2,11.1 M50.1,10.9c-0.1,0.1-0.2,0.2-0.2,0.2c0,0.1,0.1,0.1,0.2-0.1
	c0.1-0.1,0.2-0.2,0.3-0.1c0.1,0,0.1,0,0.1,0C50.4,10.8,50.3,10.8,50.1,10.9 M48.7,11.2c-0.1,0.1-0.2,0.1-0.1,0.1
	c0,0,0.2-0.1,0.3-0.1C49,11.1,49.1,11,49,11C49,11,48.8,11.1,48.7,11.2 M30.1,11.2c0.1,0.1,0.3,0.1,0.3,0.1c0,0,0-0.1-0.1-0.1
	C30.2,11.2,30.1,11.2,30.1,11.2C29.9,11.1,29.9,11.2,30.1,11.2 M37.7,11.7c0,0.5,0,0.6,0.2,0.6c0.1,0,0.2-0.1,0.2-0.6
	c0-0.5,0-0.6-0.2-0.6C37.7,11.1,37.7,11.2,37.7,11.7 M38.3,11.7l0,0.6h0.5c0.3,0,0.5,0,0.5-0.1s0-0.3,0-0.6v-0.5h-0.5h-0.5
	L38.3,11.7 M39.6,11.7c0,0.5,0,0.6,0.2,0.6c0.1,0,0.2-0.1,0.2-0.6c0-0.5,0-0.6-0.2-0.6C39.7,11.1,39.6,11.2,39.6,11.7 M47,11.5
	c0.1,0.2,0.2,0.4,0.2,0.4S47.2,11.7,47,11.5c0-0.2-0.1-0.4-0.1-0.4C46.8,11.1,46.9,11.3,47,11.5 M47.7,11.7c0,0.2,0.1,0.3,0.3,0.2
	c0.1-0.1,0.1-0.1,0,0C47.9,11.8,47.8,11.8,47.7,11.7C47.7,11.5,47.7,11.5,47.7,11.7 M33.7,12.4c-0.3,0.9-0.5,1.5-0.5,2.2l-0.1,0.7
	h1.2h1.2l0.1-0.9c0-0.5,0.1-1.2,0.2-1.5c0.1-0.3,0.1-0.6,0.1-0.6c-0.1-0.1-1.7-0.5-1.8-0.5C34,11.9,33.8,12.1,33.7,12.4 M43.4,12
	c0,0-0.4,0.1-0.7,0.2c-0.4,0.1-0.7,0.2-0.7,0.2c0,0,0,0.4,0.1,0.8c0.1,0.4,0.2,1.1,0.2,1.5c0,0.4,0.1,0.7,0.1,0.7c0.7,0,2.2,0,2.2,0
	c0.1-0.1-0.1-1.8-0.3-2.4c-0.2-0.8-0.4-1.1-0.6-1.1C43.5,11.9,43.4,11.9,43.4,12 M49.4,12.4c0,0.1,0,0.2,0.1,0.4
	c0.1,0.2,0.1,0.2,0.1,0C49.6,12.7,49.5,12.5,49.4,12.4C49.5,12.3,49.4,12.3,49.4,12.4 M31.9,12.6c-0.2,0.2-0.3,1.1-0.1,1.1
	c0.4,0,0.7-0.9,0.4-1.2C32.1,12.4,32.1,12.4,31.9,12.6 M45.3,12.6c-0.2,0.4,0.2,1.1,0.5,1c0.3-0.1,0-1.2-0.3-1.2
	C45.4,12.4,45.3,12.5,45.3,12.6 M37.4,12.9c0,0.1,0.1,0.2,0.2,0.3c0.2,0.2,0.3,0.2,1.1,0.2h0.9l0.3-0.3l0.3-0.3h-1.5
	C37.7,12.8,37.4,12.8,37.4,12.9 M31.2,13.1c-0.1,0.1-0.1,0.8,0.1,1.1c0.2,0.4,0.4,0.5,0.7,0.3c0.1-0.1,0.3-0.2,0.4-0.3
	c0.2-0.2,0.4-0.7,0.3-0.8c-0.1-0.1-0.5,0.1-0.7,0.4l-0.2,0.2l-0.1-0.4C31.6,13.4,31.3,13,31.2,13.1 M26.7,13.6
	c0,0.1-0.1,0.2-0.2,0.2l-0.2,0l0.2,0C26.7,13.8,26.9,13.6,26.7,13.6C26.7,13.4,26.7,13.5,26.7,13.6 M27.6,13.8c0,0.2,0,0.2,0,0.2
	c0-0.1,0-0.2,0-0.3C27.7,13.6,27.6,13.6,27.6,13.8 M37.8,13.8v0.3l0.9,0l0.9,0l0-0.2l0-0.2h-0.9h-0.9V13.8 M29.4,14.4
	c0,0.2,0,0.2,0,0.2c0-0.1,0-0.2,0-0.3C29.4,14.2,29.4,14.3,29.4,14.4 M37.4,14.7l-0.5,0.5l1.9,0l1.9,0l-0.5-0.5l-0.5-0.5l-0.4,0.4
	c-0.2,0.2-0.4,0.4-0.5,0.4c0,0-0.3-0.2-0.5-0.4c-0.2-0.2-0.4-0.4-0.4-0.4C37.9,14.2,37.7,14.4,37.4,14.7 M38.5,14.5l0.3,0.3l0.3-0.3
	l0.3-0.3h-0.7h-0.7L38.5,14.5 M26,14.6c0,0.3,0,0.3,0.3,0.3c0.3,0,0.3,0,0.1-0.1C26.2,14.8,26.1,14.7,26,14.6
	C26,14.3,26,14.3,26,14.6 M50.5,14.8c0.1,0,0.3,0,0.4,0c0.1,0,0,0-0.2,0C50.4,14.7,50.4,14.7,50.5,14.8 M49.4,14.8
	c0.1,0,0.4,0,0.5,0s0,0-0.2,0S49.3,14.8,49.4,14.8 M29,15c0.1,0,0.2,0,0.3,0c0.1,0,0,0-0.2,0S28.9,15,29,15 M48.2,15.8
	C48.2,16.2,48.2,16.2,48.2,15.8l0.1-0.2l1.6,0l1.6,0l-1.7,0l-1.7,0L48.2,15.8 M42.3,15.7c0,0-0.1,0.2-0.1,0.4v0.3h1.1
	c1.1,0,1.1,0,1.2-0.2c0.1-0.5,0-0.5-1.1-0.5C42.8,15.6,42.3,15.6,42.3,15.7 M45.8,15.9c0.1,0.4,0.2,0.4,0.3,0.1
	c0.1-0.3,0.1-0.3,0-0.3c0,0-0.2,0-0.3,0C45.7,15.6,45.7,15.6,45.8,15.9 M29.3,16.3c0,0.2,0,0.3,0,0.2c0-0.1,0-0.3,0-0.4
	C29.3,16,29.2,16.1,29.3,16.3 M25.9,16.3c0,0.2,0.1,0.3,0.1,0.3c0.1,0,0.1,0,0,0C26,16.6,25.9,16.4,25.9,16.3
	C25.8,16,25.8,16,25.9,16.3 M27.4,16.4c0,0.1,0.1,0.1,0.5,0c0.7-0.1,0.7-0.1,0.1-0.1C27.7,16.3,27.4,16.4,27.4,16.4 M49,16.4
	c0,0.1,0.1,0.1,0.1,0.1c0.1,0,0.1-0.1,0.1-0.1c0-0.1-0.1-0.1-0.1-0.1C49,16.3,49,16.4,49,16.4 M27.9,16.8c-0.1,0.1-0.2,0.3-0.1,0.3
	s0.2-0.1,0.3-0.2c0.2-0.2,0.4-0.2,0.3,0c0,0.1,0,0.1,0.1,0.1c0.2-0.1,0.1-0.4-0.2-0.4C28.1,16.5,28,16.6,27.9,16.8 M49.5,16.6
	c0.1,0,0.3,0.1,0.4,0.1c0.2,0,0.2,0,0-0.1C49.8,16.5,49.6,16.5,49.5,16.6C49.3,16.5,49.3,16.5,49.5,16.6 M31.6,17l0.2,0.3l0.1-0.2
	c0-0.1,0.1-0.3,0.1-0.3c0,0-0.1-0.1-0.3-0.1h-0.3L31.6,17 M49,16.8c0,0.1,0.1,0.2,0.3,0.2c0.1,0,0.3,0,0.3,0.1s-0.1,0.1-0.3,0.1
	s-0.3,0-0.3,0.1c0,0,0,0.1,0.1,0c0.1,0,0.2,0,0.1,0.1c0,0.1,0,0.1,0.1,0.1c0.1,0,0.3,0,0.4,0.1c0.1,0,0.2,0,0.2,0
	c0,0-0.2-0.1-0.4-0.1l-0.3-0.1l0.3-0.1c0.5-0.1,0.4-0.2-0.1-0.3C49.3,16.9,49.1,16.8,49,16.8C49,16.7,49,16.7,49,16.8 M27.9,17.1
	c-0.3,0-0.5,0.1-0.5,0.2c0,0.1,0.6,0,0.9-0.2C28.6,17,28.5,17,27.9,17.1 M27.5,17.6c0,0.1,0.1,0.2,0.2,0.2c0.2,0,0.2,0.2,0,0.3
	c-0.1,0.1-0.1,0.1-0.1,0.1c0.1,0,0.4-0.2,0.4-0.4c0,0,0.1-0.1,0.2-0.1c0.1,0,0.1,0,0,0.1c-0.1,0.1-0.1,0.1-0.1,0.1
	c0.1,0,0.2-0.1,0.2-0.1c0.1-0.1,0.2-0.1,0.2-0.1c0,0,0.1,0,0.1,0c0-0.1-0.1-0.1-0.5-0.1C27.8,17.7,27.6,17.6,27.5,17.6
	C27.6,17.5,27.5,17.5,27.5,17.6 M32.1,17.7c0,0-0.2,0.1-0.3,0.1c-0.1,0-0.1,0.1,0.1,0.2l0.2,0.2l0-0.3
	C32.2,17.8,32.2,17.7,32.1,17.7C32.2,17.7,32.2,17.7,32.1,17.7 M45.4,17.9c0,0.4,0.1,0.4,0.3,0.1c0.2-0.2,0.2-0.2,0-0.2
	c-0.1,0-0.2-0.1-0.3-0.1C45.4,17.6,45.4,17.7,45.4,17.9 M49.7,17.8c0,0.1-0.1,0.1-0.2,0c-0.1,0-0.2,0-0.2,0c0,0.1,0.1,0.1,0.3,0.1
	C49.8,18,50,17.7,49.7,17.8C49.7,17.7,49.7,17.8,49.7,17.8 M49.1,18.1c0,0.1,0.1,0.2,0.2,0.2c0.1,0.1,0.1,0.1-0.2,0.1
	c-0.3,0-0.4,0-0.4,0.1c0,0.1,0,0.1,0.1,0.1c0.2-0.1,0.3-0.1,0.2,0c0,0,0.1,0.1,0.3,0.2c0.2,0.1,0.4,0.1,0.4,0c0,0-0.1-0.1-0.2-0.1
	c-0.1,0-0.1,0,0.1-0.1c0.1,0,0.2-0.1,0.2-0.1c0-0.1-0.1-0.1-0.1,0c0,0-0.1,0-0.1-0.1c0-0.1,0-0.1,0.2-0.1c0.2,0,0.2,0,0.1,0
	C49.4,18.1,49.1,18,49.1,18.1 M27.9,18.2C27.7,18.4,27.7,18.4,27.9,18.2c0.2,0,0.2,0.1,0.2,0.2c0,0.1-0.1,0.1-0.1,0.1
	c0,0-0.1,0-0.1,0c0,0.1,0,0.1,0.2,0.1c0.2,0,0.2,0,0,0.1c-0.1,0.1-0.1,0.1,0.1,0c0.2,0,0.3-0.1,0.3-0.1c0,0,0.1-0.1,0.1,0
	c0.1,0,0.1,0,0.2-0.1c0-0.1,0-0.1-0.3-0.1c-0.3,0-0.3,0-0.3-0.1c0.2-0.1,0.2-0.3,0.1-0.3C28.2,18.1,28.1,18.2,27.9,18.2 M45.1,18.9
	c0.1,0.4,0.1,0.4,0.3,0.1c0.2-0.2,0.2-0.2,0-0.2c-0.1,0-0.2,0-0.3-0.1C45,18.6,45,18.7,45.1,18.9 M28.3,18.9C28.1,19,28,19,28,19.1
	c0,0,1-0.2,1-0.3C29,18.7,28.7,18.7,28.3,18.9 M32.2,18.8l-0.3,0l0.3,0.2c0.2,0.2,0.3,0.2,0.3,0.1C32.6,18.9,32.5,18.8,32.2,18.8
	 M48.5,19c0,0.1,0.2,0.2,0.8,0.4c0.1,0,0.1,0,0,0C49.2,19.2,48.5,18.9,48.5,19 M28.3,19.1c-0.3,0.2-0.3,0.3,0.1,0.1
	c0.2-0.1,0.4-0.1,0.5-0.1c0.1,0,0.2,0,0.2,0C29,19,28.6,19,28.3,19.1 M41.4,19.2c-0.1,0.1-0.2,0.2-0.3,0.2c-0.1,0-0.2,0.1-0.3,0.1
	c-0.1,0.1-0.2,0.1-0.2,0.1c-0.1,0-0.2,0.1-0.2,0.1c-0.1,0.1-0.2,0.2-0.3,0.2c-0.1,0-0.3,0.1-0.4,0.2c-0.3,0.2-0.5,0.2-0.7,0
	c-0.2-0.2-0.2-0.2-0.5,0c-0.3,0.3-0.6,0.3-0.9,0c-0.1-0.1-0.3-0.2-0.4-0.2c-0.1,0-0.2-0.1-0.3-0.2c-0.1-0.1-0.2-0.2-0.2-0.2
	c-0.1,0-0.2-0.1-0.3-0.2l-0.2-0.2l0.1,0.4c0.1,0.4,0.5,1.3,0.6,1.4c0,0,0.5,0,1.1,0c0.7-0.1,1.3-0.1,1.9,0c0.7,0.1,0.9,0.1,1,0
	c0.1-0.1,0.8-1.7,0.8-1.8c0-0.1,0-0.1,0.1-0.1c0.1,0-0.2,0.9-0.5,1.6L41,21.2l0.2,0.1c0.1,0,0.4,0.1,0.7,0.2l0.5,0.1l0.3-0.3
	c0.4-0.4,0.7-0.9,0.9-1.3c0.2-0.3,0.2-0.6,0.1-0.4c-0.1,0.1-0.1,0.1-0.3,0C43,19.4,41.8,19,41.7,19C41.6,19,41.5,19.1,41.4,19.2
	 M35,19.3c-0.3,0.1-0.6,0.2-0.7,0.2c-0.1,0-0.2,0-0.2-0.1c0-0.1-0.1-0.2-0.1-0.1c-0.1,0.1,0.6,1.4,0.8,1.5c0.1,0.1,0.2,0.3,0.4,0.4
	c0.2,0.2,0.3,0.3,0.5,0.3c0.1,0,0.3,0,0.3-0.1c0,0,0.2-0.1,0.4-0.1c0.2,0,0.4-0.1,0.4-0.1s-0.1-0.4-0.3-0.9c-0.2-0.4-0.3-0.9-0.3-1
	C36,19.1,35.7,19.1,35,19.3 M48.3,19.3c0,0,0.1,0,0.1,0c0.1,0,0.2,0,0.2,0.1c0.1,0.1,0.1,0.1,0.2,0.1c0.1-0.1-0.2-0.3-0.4-0.3
	C48.4,19.2,48.3,19.3,48.3,19.3 M48.3,19.5c0,0.1,0.2,0.2,0.3,0.2c0.1,0,0-0.2-0.1-0.2C48.4,19.5,48.3,19.5,48.3,19.5 M26.9,19.8
	l-0.3,0.3L26.9,19.8c0.2-0.1,0.3-0.2,0.3-0.3C27.3,19.5,27.2,19.6,26.9,19.8 M44.6,19.9c0,0.4,0,0.4,0.3,0.1
	c0.1-0.1,0.2-0.2,0.1-0.2c-0.1,0-0.2-0.1-0.3-0.1C44.6,19.5,44.6,19.6,44.6,19.9 M50.3,19.8c0.2,0.2,0.2,0.3,0.2,0.5l-0.1,0.2
	l0.1-0.2C50.7,20.1,50.7,20,50.3,19.8l-0.3-0.3L50.3,19.8 M28.8,19.9c-0.3,0.1-0.4,0.3-0.4,0.3c0.1,0,0.3-0.1,0.5-0.2
	c0.2-0.1,0.4-0.2,0.5-0.2c0,0,0,0,0-0.1c0-0.1-0.1-0.1-0.1-0.1S29.1,19.8,28.8,19.9 M32.7,19.8l-0.2,0.1l0.2,0.2
	c0.3,0.2,0.3,0.2,0.2-0.1C33,19.7,32.9,19.7,32.7,19.8 M48.1,19.8c-0.1,0.1,0,0.1,0.2,0.1c0.3,0,0.3-0.1,0.1-0.2
	C48.3,19.7,48.2,19.7,48.1,19.8 M48.8,19.7c0,0.1,0.3,0.2,0.3,0.2c0,0,0-0.1-0.1-0.1C48.9,19.7,48.8,19.7,48.8,19.7 M29.2,20.1
	c-0.1,0.1-0.2,0.2-0.5,0.2c-0.2,0-0.3,0-0.3,0.1c0.1,0.2,0.9-0.1,1-0.3C29.5,19.8,29.4,19.9,29.2,20.1 M48.2,20.1
	c0.2,0.1,0.2,0.1-0.1,0.1c-0.3,0-0.3,0-0.3,0.2c0,0.2,0.3,0.6,0.6,0.6c0.1,0,0-0.1-0.2-0.2c-0.4-0.3-0.4-0.5,0-0.4
	c0.2,0,0.3,0.1,0.4,0.2c0.1,0.1,0.1,0.1,0.2,0.1c0.1,0,0-0.1-0.1-0.2c-0.2-0.1-0.2-0.2-0.1-0.3c0.1-0.1,0.1-0.1-0.2-0.1
	C47.9,20,47.9,20,48.2,20.1 M29.3,20.4c-0.1,0.1-0.2,0.2-0.3,0.2c-0.1-0.1-0.3,0.1-0.3,0.2c0,0.2,0.2,0.4,0.2,0.2
	c0-0.1,0-0.1-0.1-0.1c-0.1,0-0.1,0,0-0.1c0.1-0.1,0.2-0.1,0.3-0.1C29.2,20.6,29.3,20.5,29.3,20.4c0.1,0,0.2-0.1,0.3-0.1
	c0,0,0.1,0.1,0,0.1c0,0,0,0.1,0,0.1c0.1,0,0.1-0.1,0-0.3C29.6,20.2,29.5,20.2,29.3,20.4 M48.5,20.3c0,0.1,0.3,0.2,0.4,0.2
	c0,0-0.1-0.1-0.2-0.1C48.6,20.2,48.5,20.2,48.5,20.3 M43.2,20.6c-0.1,0.1-0.3,0.4-0.5,0.6l-0.3,0.4l0.2,0.1c0.2,0.1,0.2,0.1,0.5-0.1
	c0.2-0.2,0.3-0.3,0.3-0.8c0-0.3,0-0.6,0-0.6C43.4,20.3,43.3,20.4,43.2,20.6 M44,20.7c0,0.2,0,0.3,0,0.3c0,0,0.2,0,0.3-0.1
	c0.2-0.1,0.3-0.2,0.2-0.2c-0.1,0-0.2-0.1-0.3-0.2C44.1,20.4,44,20.5,44,20.7 M33.4,20.6c0,0-0.1,0.1-0.3,0.1c-0.2,0-0.1,0,0.1,0.2
	c0.4,0.2,0.5,0.2,0.3-0.1C33.5,20.5,33.5,20.5,33.4,20.6 M29.4,21c-0.3,0.3-0.3,0.4-0.2,0.4c0.1,0,0.2,0,0.3,0c0.1,0,0.1,0,0.1-0.1
	s-0.1-0.1-0.1,0c-0.1,0,0-0.1,0.2-0.2C30,20.5,29.8,20.6,29.4,21 M47.4,20.9c0,0,0,0.1-0.1,0.2l-0.2,0.1l0.2,0.2
	c0.1,0.1,0.2,0.2,0.2,0.2c0,0,0.1,0,0.2,0.1c0.1,0.1,0.2,0.2,0.4,0.1c0.1-0.1,0.2-0.1,0.2-0.2c0-0.1-0.1,0-0.2,0
	c-0.2,0.1-0.2,0.1-0.3,0c-0.1-0.1-0.1-0.2-0.1-0.2c0.1,0,0.1,0,0.1-0.1c0-0.1,0-0.1-0.1,0c-0.1,0.1-0.3,0.1-0.3-0.1
	c0-0.2,0.3-0.2,0.6,0c0.4,0.2,0.5,0.3,0.4,0.1c0,0,0-0.1,0.1-0.1c0.1,0,0.1-0.1,0.1-0.1c0,0-0.1,0-0.2,0.1c-0.1,0.1-0.2,0.1-0.5-0.1
	C47.5,20.9,47.2,20.8,47.4,20.9 M29.8,21.1C29.6,21.2,29.6,21.3,29.8,21.1l0.3,0l-0.2,0.2c-0.6,0.4-0.6,0.4-0.5,0.6
	c0.1,0.1,0.2,0.1,0.2,0.1c0.1,0,0-0.1-0.1-0.1c-0.2-0.1-0.2-0.1,0-0.2c0.2-0.1,0.5-0.1,0.4,0c0,0,0,0.1,0,0.1c0.1,0,0.1-0.2-0.1-0.3
	c-0.1-0.1-0.1-0.1,0.1-0.1c0.1,0,0.3,0,0.3,0c0.1,0,0,0-0.1-0.1c-0.1-0.1-0.2-0.2-0.2-0.2C30.1,20.9,30,21,29.8,21.1 M37.4,21.2
	c-0.1,0-0.3,0.1-0.4,0.1c-0.2,0.2,1.5,2.3,1.8,2.3c0.3,0,1.9-2.2,1.7-2.4C40.5,21.2,37.9,21.1,37.4,21.2 M36.1,21.5
	c-0.3,0.1-0.5,0.2-0.5,0.2c0,0.2,1.6,1.3,2.3,1.6c0.4,0.2,0.5,0,0.1-0.3c-0.1-0.1-0.4-0.5-0.6-0.8c-0.5-0.8-0.6-0.9-0.7-0.9
	C36.7,21.3,36.4,21.4,36.1,21.5 M40.7,21.6c-0.1,0.2-0.4,0.6-0.7,1.1c-0.3,0.4-0.5,0.8-0.5,0.8c0.2,0.2,2.6-1.5,2.6-1.8
	c0-0.1-0.2-0.1-0.9-0.3C40.9,21.3,40.9,21.4,40.7,21.6 M45.4,22l-0.6,0.7L45.4,22c0.6-0.6,0.7-0.7,0.7-0.7
	C46.1,21.3,45.8,21.6,45.4,22 M30.1,21.9c-0.4,0.3-0.4,0.4-0.3,0.5c0.1,0,0.1,0,0.1-0.1c0-0.1,0.1-0.3,0.3-0.4
	C30.7,21.5,30.6,21.5,30.1,21.9 M47.2,21.9l0.3,0.3L47.1,22l-0.4-0.2L46.6,22c-0.2,0.2-0.2,0.2-0.1,0.4c0.1,0.1,0.2,0.2,0.2,0.1
	c0.1,0,0.1,0,0,0.1c-0.1,0.1-0.1,0.1-0.3-0.1c-0.1-0.1-0.2-0.1-0.3-0.1c0,0.1-0.1,0.1-0.1,0.1c-0.2,0-0.1,0.2,0.2,0.5
	c0.3,0.3,0.4,0.3,0.5,0.2c0.1-0.1,0.1-0.2,0-0.4c-0.1-0.3,0-0.3,0.2-0.1c0.1,0.1,0.1,0.1,0.3,0c0.1-0.1,0.2-0.2,0.2-0.2
	c0,0-0.1,0-0.2,0.1c-0.2,0.2-0.2,0.2-0.3,0c-0.1-0.1-0.1-0.2,0-0.2c0.1,0,0.1-0.1,0.1-0.1c0-0.1-0.1,0-0.1,0c-0.1,0.1-0.2,0.1-0.3,0
	c-0.1-0.1-0.1-0.1,0-0.2c0.2-0.1,0.3-0.1,0.6,0.1c0.2,0.1,0.4,0.2,0.5,0.1c0.1,0,0,0-0.1-0.1c-0.1,0-0.1,0-0.1-0.1
	c0.1-0.1-0.1-0.3-0.4-0.5C47,21.6,47,21.7,47.2,21.9 M42.2,21.9c-0.3,0.4-1.6,1.2-2.2,1.5c-0.4,0.2-0.6,0.4-0.6,0.4
	c0.1,0.1,1.4-0.1,2-0.3c1-0.3,2.3-1,2.3-1.2c0-0.1-0.1-0.2-0.3-0.3c-0.3-0.2-0.3-0.2-0.8,0.2c-0.3,0.2-0.5,0.4-0.6,0.4
	c-0.2,0,0-0.2,0.4-0.4c0.4-0.3,0.4-0.3,0.3-0.4C42.4,21.7,42.4,21.7,42.2,21.9 M48.6,22.2c-0.1,0.1-0.2,0.3-0.1,0.3
	S48.6,22.4,48.6,22.2c0.2-0.1,0.3-0.3,0.2-0.3S48.7,22.1,48.6,22.2 M30.3,22.3c-0.3,0.3-0.2,0.3,0.2,0c0.1-0.1,0.2-0.2,0.2-0.2
	C30.6,22.1,30.5,22.2,30.3,22.3 M30.7,22.6c-0.2,0.2-0.5,0.2-0.5,0.1c0-0.1-0.1-0.1-0.1,0c0,0,0,0.1,0.1,0.2
	c0.1,0.1,0.2,0.1,0.4,0.1c0.2-0.1,0.6-0.5,0.5-0.5C30.9,22.4,30.8,22.5,30.7,22.6 M30.9,22.7c-0.2,0.2-0.3,0.3-0.4,0.3
	c0,0-0.1,0-0.1,0.1c0,0.1,0.1,0,0.2-0.1c0.1-0.1,0.2-0.1,0.3-0.1c0.1,0.1,0.2,0.1,0.3-0.1c0.1-0.1,0.2-0.2,0.1-0.2
	c0,0-0.2,0.1-0.2,0.1c-0.2,0.1-0.2,0.1-0.2,0c0-0.2,0.2-0.4,0.3-0.3c0,0.1,0,0.1,0.1,0C31.4,22.4,31.2,22.4,30.9,22.7 M46.3,22.9
	c0.2,0.2,0.3,0.3,0.4,0.2c0.2-0.2-0.2-0.6-0.5-0.6C46,22.6,46,22.6,46.3,22.9 M31.1,23.4c-0.1,0.1-0.2,0.2-0.1,0.2
	C31,23.6,31.1,23.5,31.1,23.4c0.2-0.1,0.2-0.1,0.3,0c0,0.1,0,0.1,0,0.1c0,0-0.1,0-0.1,0.1c0,0-0.1,0.1-0.1,0.2
	c-0.1,0.1-0.1,0.1,0,0.1c0.1,0,0.1,0,0.2-0.1c0,0,0.1-0.1,0.2-0.1c0.1,0,0,0.1-0.1,0.2c-0.1,0.1-0.1,0.2-0.1,0.2
	c0.1,0,0.3-0.3,0.2-0.4c0,0,0-0.1,0.1,0c0.1,0,0.1,0,0.2-0.1c0-0.1,0-0.1-0.1-0.1c-0.1,0.1-0.3,0.1-0.2,0
	C31.6,23,31.3,23.1,31.1,23.4 M45.7,23.5c-0.1,0.1-0.1,0.2,0.1,0.3c0.2,0.2,0.3,0.2,0.5,0c0.1-0.2,0-0.2-0.1,0
	c-0.2,0.2-0.4-0.1-0.2-0.3c0.1-0.1,0.1-0.1,0-0.1C45.9,23.3,45.8,23.4,45.7,23.5 M31.8,23.6c-0.1,0.1-0.2,0.3-0.2,0.4
	c0,0.1,0,0.1-0.1,0.1c-0.1,0-0.1,0,0,0c0.1,0.1,0.3,0.1,0.3,0c0,0,0-0.2,0-0.3c0.1-0.2,0.1-0.2,0.1,0c0,0.1,0.1,0.1,0.2,0.1
	c0.1,0,0.1,0,0-0.1c-0.1,0-0.1-0.1-0.1-0.3C32.1,23.3,32.1,23.3,31.8,23.6 M45,23.5C45,23.5,45,23.6,45,23.5
	c-0.3-0.1-0.2,0.1,0.2,0.5c0.2,0.2,0.4,0.4,0.4,0.3c0-0.1,0-0.1,0.1-0.1c0,0,0.1,0,0.1-0.1c0-0.2-0.3-0.7-0.4-0.7c0,0,0,0.1,0.1,0.1
	c0.4,0.4,0.4,0.8,0,0.4C45.1,23.8,45,23.7,45,23.5C45.1,23.5,45.1,23.4,45,23.5C45,23.4,45,23.4,45,23.5 M43,23.7
	c-0.2,0.1-0.3,0.2-0.2,0.2c0.1,0,0.6-0.3,0.6-0.3C43.4,23.5,43.4,23.5,43,23.7 M32.3,24c-0.1,0.2-0.3,0.3-0.3,0.4
	c0,0.1,0.1,0,0.2-0.2l0.2-0.3l0,0.2c0,0.1,0,0.2,0.1,0.2c0.1,0,0.2-0.7,0.1-0.7C32.5,23.8,32.4,23.9,32.3,24 M44.3,23.9
	c-0.1,0.1-0.1,0.2-0.1,0.3c0.1,0.1,0.1,0.2,0.2,0.2c0.1,0,0.1,0,0-0.1c-0.1-0.1-0.1-0.2,0-0.3C44.6,23.8,44.5,23.7,44.3,23.9
	 M32.8,24c-0.1,0.1-0.1,0.2-0.1,0.2c0,0,0.1,0,0.2-0.1C32.9,24,33,24,33.1,24c0.1,0.1,0.1,0.1,0,0.2C33,24.3,33,24.4,33,24.4
	c0,0,0.1,0,0.2-0.1c0.1-0.1,0.1-0.2,0.1-0.2c-0.1,0-0.1-0.1,0-0.1c0-0.1,0-0.1,0,0c0,0-0.1,0-0.2,0C33,23.9,32.9,23.9,32.8,24
	 M47.6,24.4c-0.3,0.3-0.4,0.4-0.6,0.4l-0.2,0l0.2,0.1C47.2,24.9,47.2,24.9,47.6,24.4c0.3-0.2,0.5-0.4,0.4-0.4
	C48,24,47.8,24.2,47.6,24.4 M43.7,24.3c0,0.1,0.4,0.8,0.5,0.8c0.1,0,0.2,0,0.2-0.1c0.1-0.1,0.1-0.2,0-0.4c-0.1-0.1-0.1-0.2-0.2-0.2
	c0,0,0,0.1,0.1,0.3c0.2,0.4,0,0.4-0.3,0C43.7,24.3,43.7,24.2,43.7,24.3 M29.9,24.7c0.2,0.2,0.3,0.3,0.3,0.3
	C30.3,24.9,30.1,24.8,29.9,24.7l-0.3-0.3L29.9,24.7 M43.2,24.5c-0.1,0.1-0.1,0.2,0,0.5c0.2,0.4,0.4,0.5,0.6,0.4l0.2-0.1l-0.2,0
	C43.5,25.4,43.2,24.9,43.2,24.5c0.1,0,0.1,0,0.3,0.1c0.1,0.1,0.2,0.3,0.2,0.4s0,0.2,0.1,0.2c0.1,0,0.1-0.1-0.1-0.5
	C43.5,24.4,43.4,24.3,43.2,24.5 M32.7,24.7c-0.1,0.1-0.1,0.2,0,0.2s0.1-0.1,0.2-0.2c0.1-0.1,0.1-0.2,0-0.2S32.8,24.6,32.7,24.7
	 M34.1,24.9c-0.2,0.3-0.4,0.6-0.2,0.4c0.1-0.1,0.2-0.1,0.2-0.1c0,0,0.1,0.1,0.2,0c0.1-0.1,0.2-0.6,0.1-0.6
	C34.4,24.7,34.3,24.8,34.1,24.9 M38.2,24.7c0.3,0,0.8,0,1.1,0c0.3,0,0.1,0-0.6,0C38.1,24.7,37.9,24.7,38.2,24.7 M42.9,24.7
	c0,0.1,0.4,1,0.5,1C43.4,25.6,43,24.8,42.9,24.7C42.9,24.7,42.9,24.6,42.9,24.7 M33.4,25c-0.1,0.3-0.1,0.3,0,0.3c0,0,0.1,0,0.1,0.1
	c0,0.1,0,0,0-0.2c0-0.2,0-0.3,0-0.3C33.5,24.7,33.4,24.8,33.4,25 M33.6,24.8c0,0,0,0.1,0.1,0.1c0.1,0,0.1,0.1,0,0.2
	c-0.1,0.1-0.1,0.2-0.1,0.2c0,0,0.1,0,0.2-0.1c0.1-0.1,0.1-0.2,0-0.3C33.7,24.8,33.6,24.8,33.6,24.8 M45.9,25l-0.3,0.2L45.9,25
	c0.2-0.1,0.3-0.2,0.3-0.2C46.2,24.7,46.1,24.7,45.9,25 M34.7,25C34.8,25,34.8,25.1,34.7,25c-0.1,0-0.3,0.7-0.3,0.7
	c0,0,0.1-0.1,0.2-0.3l0.1-0.3l0.1,0.3c0,0.1,0,0.3,0,0.3c0,0,0,0.1,0,0.1c0,0,0.2-0.2,0.3-0.4c0.2-0.5,0.2-0.7,0-0.2l-0.1,0.3l0-0.3
	c0-0.2-0.1-0.3-0.1-0.3C34.7,24.8,34.7,24.9,34.7,25 M42.3,25.1c0,0.3,0.2,0.8,0.3,0.8c0.1,0,0-0.1,0-0.2c-0.1-0.2-0.1-0.3,0-0.2
	c0.1,0,0.1,0.1,0.1,0.1c0,0,0,0.1,0,0.1c0.2,0.1,0.1-0.2-0.2-0.5C42.3,25,42.3,25,42.3,25.1 M42.7,25c-0.1,0.1-0.1,0.4,0,0.3
	c0,0,0.1,0.1,0.2,0.2c0.1,0.1,0.1,0.2,0.1,0.2c0,0,0-0.2-0.1-0.4C42.9,25.1,42.8,24.9,42.7,25 M35.2,25.3c-0.1,0.1-0.1,0.4-0.1,0.5
	c0,0.3,0,0.3,0.1,0c0.1-0.2,0.1-0.2,0.1,0c0.1,0.4,0.2,0.4,0.2,0c0-0.2,0-0.4,0.1-0.5l0.2-0.2l-0.3,0.2c-0.3,0.2-0.3,0.2-0.2,0
	C35.5,24.9,35.3,25,35.2,25.3 M41.9,25.6c0,0.4,0,0.5-0.1,0.4c-0.1,0-0.1,0-0.1,0c0,0.1,0,0.1,0.2,0c0.1,0,0.1-0.1,0.1-0.2
	c0-0.1,0-0.2,0.2-0.2l0.2-0.1l-0.2,0c-0.2,0-0.2,0-0.2-0.2c0-0.1,0-0.3-0.1-0.3C41.8,25.1,41.8,25.2,41.9,25.6 M36.6,25.4
	c-0.2,0.5-0.3,1-0.2,0.9c0,0,0.1,0,0.2,0c0.1,0.1,0.1,0.1,0.2,0c0.1-0.2,0.2-0.9,0.1-0.9c0,0-0.1,0-0.1,0.1c0,0.4,0,0.7-0.1,0.7
	c-0.1,0-0.1-0.1-0.1-0.2c0-0.1,0-0.2,0.1-0.2s0.1-0.1,0.1-0.3C36.7,25.3,36.7,25.2,36.6,25.4 M41.3,25.4c0,0.2,0.2,0.9,0.3,0.9
	c0,0,0-0.2-0.1-0.4C41.3,25.3,41.3,25.2,41.3,25.4 M40.5,25.8c0,0.2,0.1,0.5,0.1,0.6c0.1,0.2,0-0.6-0.1-0.9
	C40.5,25.4,40.5,25.5,40.5,25.8 M37.4,25.6c0,0.1,0,0.1,0,0.1c-0.1,0-0.3,0.5-0.3,0.7c0,0.2,0.3-0.3,0.3-0.4l0-0.2l0.1,0.2
	c0.1,0.1,0.1,0.1,0.1-0.2c0-0.2,0-0.3-0.1-0.3C37.3,25.5,37.3,25.5,37.4,25.6 M38.6,25.5c0,0,0.1,0.1,0.1,0.2
	c0.1,0.1,0.1,0.2,0.1,0.3c0,0.2-0.3,0.5-0.4,0.5c0,0-0.1,0,0,0c0,0.1,0.2,0.1,0.3,0.1c0.2,0,0.2,0,0.1-0.1c-0.1-0.1-0.1-0.1,0-0.1
	C39,26.3,38.9,25.5,38.6,25.5C38.6,25.5,38.6,25.5,38.6,25.5 M39.7,25.7c0,0.1,0,0.4,0,0.5c0,0.2,0.1,0.3,0.2,0.3
	c0.1,0,0.2,0,0.2-0.1c0,0-0.1-0.1-0.2-0.1c-0.2,0-0.2-0.3,0-0.3c0.1,0,0.1-0.1,0-0.1c-0.3-0.1-0.2-0.2,0-0.3c0.2-0.1,0.2-0.1,0-0.1
	C39.7,25.5,39.7,25.5,39.7,25.7 M38.1,25.9l0,0.3L38,25.9c-0.1-0.2-0.1-0.3-0.1-0.2c0,0.1,0,0.1-0.1,0.1c-0.1,0-0.1,0.1-0.1,0.4
	l0,0.4l0.1-0.4c0.1-0.3,0.1-0.3,0.1-0.2c0,0.1,0.1,0.2,0.1,0.2c0,0,0.1,0.1,0,0.1c0,0.1,0,0.1,0,0.1c0.1,0,0.1-0.2,0.1-0.5
	c0-0.3,0-0.5,0-0.5C38.1,25.5,38.1,25.7,38.1,25.9 M38.3,25.8c-0.1,0.3-0.1,0.6,0,0.6c0,0,0.1-0.2,0.1-0.4
	C38.5,25.5,38.4,25.4,38.3,25.8 M39,25.9c0,0.2,0,0.4,0.1,0.4c0.1,0,0.1-0.2,0-0.6C39,25.5,39,25.6,39,25.9 M39.4,26
	c0,0.4,0,0.4-0.2,0.5c-0.1,0-0.2,0.1-0.1,0.1c0.2,0.1,0.4-0.2,0.4-0.6c0-0.2,0-0.4-0.1-0.4C39.4,25.5,39.4,25.7,39.4,26 M40.9,25.8
	c0,0.1,0.1,0.1,0.1,0.1c0.1,0,0.1,0,0.1,0.2c0,0.2,0,0.2,0.1,0.2c0.1,0,0.1-0.1,0-0.2C41.2,25.8,40.9,25.6,40.9,25.8 M44.3,25.9
	c-0.2,0.2-0.3,0.2-0.3,0.5c0,0.2,0,0.4-0.2,0.4c-0.1,0.1-0.1,0.1-0.1,0.1c0.2,0,0.3-0.2,0.3-0.6C44.1,26.1,44.2,26.1,44.3,25.9
	c0.2,0,0.3-0.1,0.3-0.1C44.7,25.7,44.6,25.7,44.3,25.9 M33.3,26.4c0,0.3,0,0.4,0,0.2c0-0.1,0-0.4,0-0.5
	C33.3,26.1,33.3,26.2,33.3,26.4 M37.4,26.3c0,0.1,0,0.1,0.1,0.1c0,0,0.1-0.1,0.1-0.1c0-0.1,0-0.1-0.1-0.1
	C37.4,26.2,37.4,26.2,37.4,26.3 M34.8,26.9C34.7,27.1,34.7,27.1,34.8,26.9c0.1,0,0.2-0.1,0.3-0.1c0.1,0,0.1-0.1,0-0.1
	C35.1,26.7,34.9,26.8,34.8,26.9 M42.2,26.8c0.1,0,0.2,0.1,0.4,0.2l0.2,0.2L42.6,27C42.5,26.8,42.3,26.7,42.2,26.8
	C42.1,26.7,42.1,26.7,42.2,26.8 M37.2,27.2c0.1,0,0.3,0,0.4,0c0.1,0,0,0-0.2,0C37.1,27.2,37.1,27.2,37.2,27.2 M39.9,27.2
	c0.1,0,0.3,0,0.4,0c0.1,0,0,0-0.2,0C39.9,27.2,39.8,27.2,39.9,27.2 M37.8,27.3c0,0,0.1,0.2,0.1,0.3c0.1,0.1,0.1,0.2,0.1,0.1
	c0,0-0.1-0.2-0.1-0.3C37.8,27.3,37.8,27.2,37.8,27.3"/>
<path class="st1" d="M38.5,0.7c0,0,0,0.1,0.1,0.2c0.1,0.2,0.1,0.3,0,0.5c0,0.1-0.1,0.1,0,0.2c0,0,0,0.2-0.1,0.3
	c-0.1,0.1-0.2,0.3-0.2,0.4c0,0.1,0.1,0.2,0.5,0.2c0.5,0,0.5,0,0.5-0.2c0-0.1-0.1-0.3-0.2-0.4c-0.1-0.1-0.2-0.2-0.1-0.7
	c0-0.5-0.1-0.7-0.2-0.4c-0.1,0.1-0.1,0.1-0.2,0C38.6,0.7,38.6,0.6,38.5,0.7 M38.3,2.9C38.3,3,38.4,3,38.8,3s0.5,0,0.5-0.1
	s-0.1-0.1-0.5-0.1S38.3,2.8,38.3,2.9 M38,3.4l-0.3,0.2l1.1,0l1.1,0l-0.3-0.2C39.3,3.2,38.5,3.2,38,3.4 M40.9,3.5
	c0,0-0.1,0.6-0.2,1.2S40.5,5.9,40.5,6c0,0,0.1,0,0.2,0.1c0.2,0,0.2,0,0.5-1.1c0.1-0.6,0.2-1.2,0.2-1.3C41.4,3.5,40.9,3.4,40.9,3.5
	 M37.7,4.2c0,0.3,0.1,0.5,0.1,0.4c0,0,0.5,0,1.1,0h1V4.2V3.8h-1.1h-1.1L37.7,4.2 M41.7,4.7c-0.4,1.7-0.4,1.6-0.6,1.6
	c-0.1,0-0.3-0.1-0.4-0.1c-0.3-0.1-0.3,0-0.3,0.2c0,0.2,0,0.2,0.2,0.2c0.5,0,2.6,0.8,3.3,1.3l0.3,0.2l0.2-0.2
	c0.1-0.1,0.3-0.4,0.5-0.7c0.3-0.5,0.3-0.5,0.2-0.6c-0.1-0.1-0.2-0.1-0.2-0.1c0,0-0.2,0.2-0.4,0.5c-0.3,0.4-0.4,0.5-0.5,0.5
	c-0.1-0.1-0.1-0.2,0.3-0.9l0.2-0.4L44,6c-0.1-0.1-0.3-0.1-0.3-0.1c0,0-0.2,0.3-0.3,0.6C43.2,7.1,43.2,7.1,43,7
	c-0.1-0.1-0.1-0.2,0.2-0.7c0.3-0.6,0.3-0.6,0.1-0.7c-0.3-0.2-0.4-0.1-0.6,0.5c-0.2,0.4-0.2,0.6-0.3,0.5c-0.1,0-0.2-0.1-0.3-0.1
	c-0.1,0-0.2-0.1-0.2-0.1c0,0,0.2-0.6,0.4-1.3c0.4-1.3,0.4-1.4,0-1.4C41.9,3.8,41.9,3.9,41.7,4.7 M36.1,4l-0.7,0.1l0.1,0.3
	c0,0.2,0.1,0.4,0.1,0.5c0,0.2,0,0.2-0.5,0.4c-0.3,0.1-0.6,0.2-0.6,0.2c0,0,0,0.3,0.2,0.5c0.1,0.2,0.2,0.4,0.2,0.5
	c0,0,0.4-0.1,0.8-0.2c0.9-0.3,1.2-0.3,1.2-0.1c0,0.1-0.2,0.2-0.6,0.3c-0.3,0.1-0.8,0.3-1.1,0.4C34.8,6.9,34.6,7,34.5,7
	c0,0-0.2-0.2-0.3-0.5C34,5.9,33.9,5.9,33.7,6C33.6,6,33.5,6,33.5,6c0,0,0.1,0.4,0.3,0.8c0.3,0.6,0.4,0.7,0.5,0.7
	c0.7-0.3,1.8-0.7,2.3-0.8l0.7-0.1l-0.1-0.4c-0.1-0.7-0.1-0.6-0.7-0.5c-0.3,0.1-0.7,0.2-0.9,0.3C35.2,6,35,6,35.1,5.8
	c0.1-0.1,1.4-0.5,1.7-0.5c0.1,0,0.2,0,0.3-0.1c0-0.1-0.1-1.2-0.2-1.3C36.8,3.9,36.5,3.9,36.1,4 M37.9,4.2c0,0.1,0,0.3,0.1,0.3
	c0,0,0.1-0.1,0.1-0.3c0-0.1,0-0.3-0.1-0.3C38,3.9,37.9,4.1,37.9,4.2 M38.4,4.2c0,0.3,0,0.3,0.4,0.3c0.4,0,0.4,0,0.4-0.3
	c0-0.3,0-0.3-0.4-0.3C38.4,3.9,38.4,3.9,38.4,4.2 M39.5,4.2c0,0.2,0,0.3,0.1,0.3c0.1,0,0.1-0.1,0.1-0.3c0-0.2,0-0.3-0.1-0.3
	C39.5,3.9,39.5,4,39.5,4.2 M36.2,4.5c-0.2,0.1,0,0.4,0.2,0.4c0.2,0,0.3-0.1,0.2-0.3C36.5,4.5,36.3,4.4,36.2,4.5 M37.7,5
	c0,0,0.1,0.1,0.2,0.2c0.1,0.1,0.3,0.1,0.9,0.1c0.6,0,0.8,0,0.9-0.2C39.9,5,39.9,5,38.8,5C38.2,5,37.7,5,37.7,5 M32,5.3l-0.2,0.1
	l0.7,1.1c0.7,1,0.7,1.1,0.6,1.2c-0.1,0.1-0.2,0-0.9-0.9c-0.4-0.6-0.8-1.1-0.8-1.1s-0.2,0-0.3,0.1L31,6.1L31.7,7c0.4,0.5,0.7,1,0.8,1
	c0.1,0.1-0.2,0.5-0.3,0.5c-0.1,0-0.3-0.2-0.5-0.4c-0.3-0.3-0.5-0.4-0.6-0.4c-0.3,0.1-0.3,0.3,0.2,0.7l0.5,0.4l-0.2,0.3
	c-0.1,0.1-0.3,0.3-0.3,0.3c0,0-0.3-0.2-0.5-0.4c-0.4-0.4-0.4-0.4-0.6-0.2C29.9,8.9,29.9,9,29.9,9c0,0,0.2,0.2,0.5,0.4l0.5,0.4
	l-0.2,0.3c-0.1,0.1-0.2,0.3-0.3,0.3c-0.1,0-0.3-0.1-0.6-0.3c-0.3-0.2-0.5-0.3-0.5-0.3c-0.1,0.1-0.7,1.2-0.7,1.3c0,0,0.2,0.2,0.5,0.3
	s0.5,0.3,0.5,0.3c0,0.1-0.3,0.7-0.3,0.7c0,0-0.3-0.1-0.6-0.2c-0.3-0.1-0.6-0.1-0.6-0.1c0,0-0.1,0.1-0.1,0.3c-0.1,0.2,0,0.2,0.5,0.3
	c0.3,0.1,0.6,0.1,0.6,0.1c0,0-0.1,0.7-0.1,0.8c0,0-0.3,0-0.7-0.1c-0.4-0.1-0.7-0.1-0.7-0.1c0,0.1-0.2,1.4-0.1,1.5c0,0,0.4,0,0.9,0
	h0.9v-0.3c0-0.4,0.4-2,0.6-2.4c0.1-0.3,0.2-0.3,0.4-0.3c0.2,0,0.3,0,0.5-0.5l0.3-0.5L31,10.8l-0.2-0.2l0.5-0.7
	c0.6-0.8,1.3-1.4,2-1.9c0.3-0.2,0.5-0.4,0.5-0.4c-0.1-0.2-1.6-2.4-1.6-2.4C32.2,5.2,32.1,5.3,32,5.3 M38,7.4V9l0.2,0
	c0.2,0,0.2,0,0.2-1.6l0-1.5h-0.2H38V7.4 M38.6,7.4V9h0.3h0.3V7.4V5.8h-0.3h-0.3V7.4 M39.2,7.4c0,1.5,0,1.5,0.2,1.6l0.2,0V7.4V5.8
	h-0.2h-0.2L39.2,7.4 M45.5,6.7c-0.4,0.5-0.7,0.9-0.7,1c0,0.1,0.2,0.4,0.3,0.3c0,0,0.4-0.5,0.9-1l0.8-0.9L46.5,6
	c-0.1-0.1-0.2-0.2-0.3-0.2C46.2,5.8,45.8,6.2,45.5,6.7 M46.1,7.5c-0.5,0.5-0.9,0.9-0.9,0.9c0,0-0.2-0.1-0.3-0.2
	C44.6,8,44.6,8,44.4,8.1c-0.1,0.1-0.1,0.2,0.3,0.5L45.3,9l1.1-1c0.6-0.6,1.1-1.1,1.1-1.1c0-0.1-0.3-0.4-0.4-0.4
	C47,6.5,46.6,7,46.1,7.5 M30,6.9c-0.2,0.2-0.2,0.3,0,0.4c0.1,0.1,0.2,0.1,0.4,0c0.2-0.1,0.2-0.1,0-0.3C30.3,6.7,30.2,6.7,30,6.9
	 M29.5,7.3l-0.2,0.2l0.2,0.2c0.2,0.2,0.2,0.2,0.4,0C30,7.6,30,7.5,29.9,7.4C29.8,7.2,29.7,7.2,29.5,7.3 M46.7,8.2
	c-1.2,1-1.2,1.1-1,1.2c0.1,0.1,0.2,0.1,0.3,0.1c1-0.8,2.3-1.8,2.3-1.9c0,0-0.1-0.2-0.2-0.3l-0.2-0.2L46.7,8.2 M28.8,8.1
	c-0.2,0.2-0.2,0.2,0.1,0.4c0.2,0.1,0.2,0.1,0.4,0c0.1-0.1,0.1-0.2,0-0.3C29.1,7.8,29,7.8,28.8,8.1 M48.4,8.2l-0.3,0.2l0.2,0.3
	c0.1,0.2,0.2,0.3,0.2,0.4c0,0-0.2-0.1-0.3-0.3c-0.2-0.3-0.3-0.3-0.4-0.2c-0.1,0.1-0.1,0.2,0.3,0.6c0.2,0.3,0.4,0.5,0.5,0.5
	c0,0,0.2-0.1,0.3-0.2l0.2-0.2L48.8,9c-0.2-0.2-0.3-0.4-0.2-0.5c0,0,0.2,0.1,0.4,0.4c0.3,0.4,0.4,0.5,0.5,0.3c0-0.1-0.4-0.8-0.8-1.2
	C48.7,8,48.5,8.1,48.4,8.2 M44,8.5l-0.2,0l0.2,0.2C44.1,8.9,44.2,9,44.3,9c0.1,0,0.1,0,0-0.1c-0.2-0.2-0.1-0.3,0-0.2
	c0.1,0.1,0.2,0.1,0.2,0.1c0.1-0.1-0.2-0.3-0.3-0.3C44.2,8.4,44.1,8.5,44,8.5 M46.8,9.3c-0.3,0.2-0.6,0.5-0.7,0.5
	c0,0,0.2,0.3,0.4,0.7c0.2,0.3,0.5,0.8,0.6,1c0.3,0.6,0.8,2,0.8,2.3c0,0.1,0,0.2,0.1,0.3c0,0,0.8-0.1,1.6-0.2
	c1.4-0.3,1.5-0.3,1.6-0.5c0.1-0.4-0.1-0.4-1.3-0.1c-1.4,0.3-1.5,0.3-1.5,0.1c0-0.2,0.2-0.3,1-0.4c0.3-0.1,0.3-0.1,0.2-0.5l-0.1-0.2
	l-0.6,0.2c-0.3,0.1-0.6,0.2-0.7,0.2s0-0.1-0.1-0.2c0-0.2,0-0.2,0.9-0.5c0.2-0.1,0.2-0.1,0.2-0.3L49,11.4l-0.6,0.3
	c-0.3,0.1-0.6,0.2-0.7,0.2c-0.2-0.1,0-0.3,0.6-0.6c1.9-0.9,1.8-0.8,1.7-1c-0.2-0.4-0.2-0.4-1.4,0.2c-0.7,0.3-1.2,0.6-1.3,0.6
	c-0.1,0-0.2-0.3-0.4-0.5c-0.3-0.5-0.3-0.6,0.4-1c0.4-0.3,0.4-0.3,0.3-0.5c-0.1-0.1-0.2-0.2-0.2-0.2C47.4,8.9,47.1,9.1,46.8,9.3
	 M38,9.3c0,0.2,0,0.2,0.8,0.2c0.8,0,0.8,0,0.8-0.2s0-0.2-0.8-0.2C38,9,38,9,38,9.3 M38,9.9c0,0.2,0,0.2,0.8,0.2c0.8,0,0.8,0,0.8-0.2
	c0-0.2,0-0.2-0.8-0.2C38,9.7,38,9.7,38,9.9 M37.7,10.5l-0.4,0.2l0.7,0c0.4,0,1.1,0,1.5,0l0.7,0l-0.4-0.2c-0.3-0.2-0.4-0.2-1.1-0.2
	S38,10.2,37.7,10.5 M29.4,10.7c-0.1,0.2-0.2,0.2,0.4,0.5c0.5,0.2,0.5,0.2,0.6,0.1c0.1-0.1,0.1-0.2,0.1-0.2c-0.1-0.1-1-0.6-1-0.6
	C29.5,10.5,29.5,10.6,29.4,10.7 M37.5,10.9l-0.3,0l0,0.7l0,0.7l1.5,0l1.5,0v-0.8c0-0.7,0-0.8-0.2-0.8C39.8,10.9,37.8,10.9,37.5,10.9
	 M50.1,11.1c-0.1,0.1-0.2,0.2-0.1,0.4c0.1,0.2,0.2,0.3,0.5,0.2c0.1-0.1,0.1-0.1,0-0.3C50.4,10.9,50.3,10.9,50.1,11.1 M37.7,11.7
	c0,0.5,0,0.6,0.2,0.6c0.1,0,0.2-0.1,0.2-0.6c0-0.5,0-0.6-0.2-0.6C37.7,11.1,37.7,11.2,37.7,11.7 M38.3,11.7l0,0.6h0.5
	c0.3,0,0.5,0,0.5-0.1s0-0.3,0-0.6v-0.5h-0.5h-0.5L38.3,11.7 M39.6,11.7c0,0.5,0,0.6,0.2,0.6c0.1,0,0.2-0.1,0.2-0.6
	c0-0.5,0-0.6-0.2-0.6C39.7,11.1,39.6,11.2,39.6,11.7 M31.9,12.6c-0.2,0.2-0.3,1.1-0.1,1.1c0.4,0,0.7-0.9,0.4-1.2
	C32.1,12.4,32.1,12.4,31.9,12.6 M45.3,12.6c-0.2,0.4,0.2,1.1,0.5,1c0.3-0.1,0-1.2-0.3-1.2C45.4,12.4,45.3,12.5,45.3,12.6 M37.4,12.9
	c0,0.1,0.1,0.2,0.2,0.3c0.2,0.2,0.3,0.2,1.1,0.2h0.9l0.3-0.3l0.3-0.3h-1.5C37.7,12.8,37.4,12.8,37.4,12.9 M47.1,13.1
	c-0.1,0.2,0,0.3,0.2,0.3c0.1,0,0.2-0.1,0.1-0.2c0-0.1,0-0.1,0-0.2C47.4,12.9,47.2,13,47.1,13.1 M31.2,13.1c-0.1,0.1-0.1,0.8,0.1,1.1
	c0.2,0.4,0.4,0.5,0.7,0.3c0.1-0.1,0.3-0.2,0.4-0.3c0.2-0.2,0.4-0.7,0.3-0.8c-0.1-0.1-0.5,0.1-0.7,0.4l-0.2,0.2l-0.1-0.4
	C31.6,13.4,31.3,13,31.2,13.1 M46.2,13.3c-0.1,0.1-0.2,0.3-0.2,0.5c-0.1,0.3-0.1,0.3-0.3,0.1c-0.1-0.2-0.5-0.4-0.7-0.4
	c-0.1,0,0,0.4,0.1,0.7c0.2,0.4,0.5,0.5,0.8,0.5c0.2,0,0.2,0,0.2,0.2c-0.1,0.3-0.2,0.5-0.2,0.4c0-0.2-0.5-0.7-0.6-0.7
	c-0.2,0-0.2,0.3,0,0.6c0.1,0.2,0.1,0.2,0.1,0.2c-0.1-0.1-0.2,0.3-0.1,0.7c0.1,0.4,0.5,0.8,0.8,0.7l0.2,0L46,17l-0.2,0.3L45.7,17
	c-0.1-0.4-0.4-0.7-0.6-0.6c-0.1,0-0.1,0.2-0.1,0.5c0,0.3,0,0.4-0.1,0.4c-0.1,0-0.1,0.2-0.1,0.6c0,0.3,0,0.5-0.1,0.4
	c-0.2-0.1-0.3,0.1-0.3,0.6c0,0.3,0,0.4-0.1,0.3c-0.1-0.1-0.3,0.1-0.4,0.6c0,0.2-0.1,0.3-0.2,0.3c-0.2-0.1-0.4,0.5-0.4,1l0,0.5
	l-0.5,0.3c-0.3,0.2-0.6,0.4-0.8,0.5c-0.3,0.2-0.4,0.4-0.1,0.3c0.1,0,0.5-0.3,0.9-0.6c0.6-0.4,0.8-0.5,1.1-0.5c0.3,0,0.5-0.1,0.7-0.3
	c0.3-0.2,0.4-0.5,0.2-0.5c0,0-0.1,0-0.1-0.1c0,0,0.1-0.1,0.1-0.1c0.1,0,0.7-0.6,0.7-0.7c0,0-0.1-0.1-0.1-0.1c-0.1,0,0-0.1,0.1-0.2
	c0.3-0.2,0.5-0.7,0.4-0.8c-0.1,0,0-0.1,0.1-0.3c0.3-0.4,0.4-0.8,0.2-0.8c-0.1,0-0.1-0.1,0.1-0.3c0.1-0.2,0.2-0.4,0.2-0.6
	c0-0.3-0.1-0.3-0.3-0.1c-0.1,0.1,0,0,0.1-0.2c0.1-0.2,0.2-0.5,0.2-0.7c0-0.3-0.1-0.4-0.3-0.2c-0.1,0.1-0.1,0,0-0.1
	c0.2-0.3,0.3-0.9,0.2-1.1c-0.1-0.1-0.1-0.1-0.2,0c-0.1,0.1-0.2,0.1-0.1,0c0.2-0.2,0.2-0.7,0.2-1C46.4,13,46.4,13,46.2,13.3
	 M26.3,13.4c0,0.3,0,0.4,0.2,0.3c0.2,0,0.2,0,0.2-0.2c0-0.1,0-0.2-0.2-0.2C26.3,13.2,26.3,13.2,26.3,13.4 M29.9,13.3
	c0,0.1,0.1,0.1,0.2,0.1s0.2-0.1,0.2-0.1c0-0.1-0.1-0.1-0.2-0.1S29.9,13.2,29.9,13.3 M37.8,13.8v0.3l0.9,0l0.9,0l0-0.2l0-0.2h-0.9
	h-0.9V13.8 M29.9,13.8c0,0.1,0,0.2,0.2,0.2c0.2,0,0.3-0.3,0-0.3C29.9,13.6,29.9,13.7,29.9,13.8 M28.1,14.2c0,0.2,0,0.2,0.5,0.2
	c0.4,0,0.5,0,0.5-0.2c0-0.2-0.1-0.2-0.7-0.3C28.1,14,28.1,14,28.1,14.2 M49.5,14.2c-0.8,0.1-1.5,0.2-1.6,0.2c0,0,0,0.1,0,0.3
	c0,0.2,0.1,0.2,0.2,0.2c0.1,0,0.8-0.1,1.6-0.2c1.2-0.1,1.5-0.1,1.5-0.3c0-0.2-0.1-0.5-0.2-0.5C51.1,14,50.4,14.1,49.5,14.2
	 M37.4,14.7l-0.5,0.5l1.9,0l1.9,0l-0.5-0.5l-0.5-0.5l-0.4,0.4c-0.2,0.2-0.4,0.4-0.5,0.4c0,0-0.3-0.2-0.5-0.4
	c-0.2-0.2-0.4-0.4-0.4-0.4C37.9,14.2,37.7,14.4,37.4,14.7 M38.5,14.5l0.3,0.3l0.3-0.3l0.3-0.3h-0.7h-0.7L38.5,14.5 M26.1,14.5
	c0,0.2,0,0.3,0.3,0.3c0.2,0,0.3,0,0.3-0.2c0-0.2-0.1-0.3-0.4-0.3C26.1,14.2,26.1,14.3,26.1,14.5 M31,14.8c0,0.4,0.1,0.5,0.3,0.8
	c0.2,0.2,0.3,0.2,0.5,0.2l0.2-0.1l-0.1,0.3c-0.1,0.3-0.2,0.3-0.2,0.2c-0.1-0.2-0.6-0.7-0.7-0.7c-0.2,0-0.1,0.4,0.1,0.8
	c0.2,0.4,0.2,0.4,0,0.4c-0.1,0-0.1,0-0.1,0.1c0,0.1,0.1,0.2,0.1,0.3c0,0.1,0.1,0.3,0.2,0.4c0.1,0.2,0.2,0.3,0.1,0.3
	c-0.2-0.1-0.1,0.4,0.1,0.7c0.2,0.2,0.2,0.3,0.1,0.3c-0.1,0-0.1,0-0.1,0.1c0,0.1,0.2,0.5,0.5,0.7c0.2,0.2,0.2,0.3,0.1,0.3
	c-0.1,0-0.1,0,0,0.3c0.1,0.1,0.3,0.3,0.4,0.4c0.3,0.2,0.3,0.3,0.2,0.3c-0.2,0.1,0.4,0.6,0.7,0.7c0.2,0.1,0.4,0.1,0.5,0.1
	c0.1,0,0.4,0.1,0.8,0.4c0.3,0.2,0.7,0.5,0.8,0.6c0.5,0.3,0.3,0-0.5-0.6l-0.8-0.6l0.1-0.4c0.1-0.6-0.4-1.4-0.5-0.9c0,0.1,0,0-0.1-0.2
	c0-0.4-0.2-0.7-0.3-0.7c-0.1,0-0.1-0.1-0.1-0.3c0-0.3-0.2-0.6-0.3-0.6c-0.1,0-0.1,0-0.1-0.2c0.1-0.3-0.1-0.9-0.2-0.8
	c-0.1,0-0.1,0,0-0.3c0.1-0.4,0-0.7-0.2-0.6c-0.2,0.1-0.2,0,0-0.2c0.2-0.2,0.2-1,0.1-0.9c-0.1,0.1-0.1,0,0-0.3c0.2-0.3,0.2-0.5,0-0.5
	c-0.2,0-0.6,0.4-0.6,0.6c0,0.2-0.2,0.1-0.2-0.2c-0.1-0.3-0.4-0.7-0.5-0.7C30.9,14.2,30.9,14.5,31,14.8 M25.9,15.6c0,0,0,0.3,0,0.5
	c0.1,0.4,0.1,0.5,0.4,0.6l0.4,0.1l0.1,0.8c0.1,0.4,0.2,1,0.3,1.3l0.2,0.5L27,19.8l-0.3,0.3l0.3,0.5c0.2,0.4,0.3,0.5,0.4,0.5
	c0.6-0.1,0.7,0,1,0.5c0.2,0.3,0.5,0.7,0.8,1.1l0.5,0.6l-0.1,0.3c-0.2,0.4-0.2,0.5,0.3,0.9l0.4,0.3l0.4-0.1l0.4-0.1l0.7,0.5
	c0.4,0.3,0.9,0.6,1.2,0.7c0.5,0.3,0.5,0.3,0.5,0.7l0,0.4l0.5,0.2l0.5,0.2l0.3-0.3l0.3-0.3l0.7,0.2c0.4,0.1,0.9,0.2,1.2,0.2
	c0.8,0.1,0.9,0.1,1,0.5l0.1,0.4h0.6h0.6l0.2-0.4c0.2-0.4,0.2-0.4,1-0.5c0.3,0,0.8-0.1,1.2-0.2l0.7-0.2l0.3,0.3l0.3,0.3l0.5-0.2
	c0.5-0.2,0.5-0.2,0.6-0.6c0-0.4,0.1-0.4,0.8-0.8c0.4-0.2,0.9-0.6,1.2-0.7l0.4-0.3l0.4,0.1l0.4,0.1l0.4-0.4l0.4-0.4l-0.1-0.4
	c-0.1-0.4-0.1-0.4,0.3-0.8c0.2-0.3,0.6-0.8,0.8-1.1c0.4-0.6,0.4-0.6,0.8-0.6c0.4,0,0.6-0.1,0.8-0.7l0.2-0.4l-0.2-0.3l-0.2-0.3
	l0.3-1.1c0.2-0.6,0.3-1.2,0.3-1.3c0-0.2,0.1-0.3,0.4-0.4c0.4-0.2,0.4-0.2,0.4-0.7v-0.5h-1.6h-1.6l-0.1,0.9c-0.2,1.2-0.4,2-0.9,3
	c-1.1,2.3-3.1,4-5.6,4.8c-2.8,0.9-5.9,0.4-8.3-1.2c-0.8-0.5-2-1.7-2.5-2.5c-0.9-1.3-1.4-2.8-1.6-4.3l-0.1-0.8l-1.6,0
	C26.5,15.5,25.9,15.5,25.9,15.6 M45.8,15.9c0.1,0.4,0.2,0.4,0.3,0.1c0.1-0.3,0.1-0.3,0-0.3c0,0-0.2,0-0.3,0
	C45.7,15.6,45.7,15.6,45.8,15.9 M36.4,16.1c-0.2,0.2-0.4,0.2-1.7,0.2c-1.4,0-1.5,0-1.5,0.2c0,0.2,0.1,0.2,1.6,0.2
	c1.3,0,1.6,0,1.8-0.1c0.2-0.1,0.4-0.1,0.9-0.1l0.7,0l-0.4,0.7c-0.5,0.8-0.4,0.9,0.1,0.9c0.3,0,0.4-0.1,0.6-0.5l0.3-0.5l0.7,0l0.7,0
	l0.5,0.8c0.3,0.6,0.4,0.8,0.4,0.9c-0.2,0.2-0.2,0.1-0.6-0.5c-0.2-0.3-0.4-0.6-0.4-0.6c-0.2-0.1-0.1,0.1,0.2,0.7
	c0.3,0.4,0.3,0.7,0.3,0.7c-0.2,0.2-0.3,0-0.7-0.6c-0.3-0.5-0.4-0.7-0.4-0.5c0,0,0.1,0.3,0.3,0.6c0.2,0.3,0.3,0.6,0.3,0.6
	c0,0.1-0.2,0.2-0.3,0.2c0,0-0.2-0.3-0.4-0.6c-0.3-0.5-0.5-0.7-0.5-0.5c0,0,0.1,0.3,0.3,0.5c0.1,0.2,0.3,0.5,0.3,0.6
	c0,0.2-0.3,0.3-0.4,0.1c-0.2-0.3-0.6-0.7-0.8-0.7c-0.1,0-0.2-0.1-0.3-0.1c-0.1-0.1-0.2-0.1-0.2-0.1c-0.1,0-0.1,0,0,0.2
	c0.1,0.2,0.1,0.2,0,0.4c-0.1,0.3-0.3,0.4-0.5,0.2c0-0.1,0-0.3,0.1-0.5c0.2-0.4,0.1-0.6-0.2-0.7c-0.1,0-0.2-0.1-0.3-0.2
	c-0.2-0.3-0.5-0.3-0.8,0.1c-0.3,0.3-0.4,0.4-0.9,0.5c-0.3,0.1-0.7,0.2-1,0.2c-0.4,0.1-0.4,0.1-0.3,0.4c0.1,0.2,0.1,0.2,0.3,0.2
	c0.1,0,0.5-0.1,0.9-0.2l0.7-0.2l0.4,0.3c0.2,0.2,0.4,0.3,0.5,0.3s0.2,0.1,0.2,0.2c0.1,0.1,0.2,0.2,0.3,0.2c0.1,0,0.3,0.1,0.4,0.2
	c0.3,0.2,0.5,0.2,0.9,0c0.3-0.2,0.3-0.2,0.5,0c0.3,0.2,0.4,0.2,0.7,0c0.1-0.1,0.3-0.2,0.4-0.2c0.1,0,0.2-0.1,0.3-0.2
	c0.1-0.1,0.2-0.1,0.2-0.1c0.1,0,0.2-0.1,0.2-0.1c0.1-0.1,0.2-0.1,0.3-0.1s0.2-0.1,0.4-0.2c0.2-0.2,0.2-0.2,0.6-0.1
	c0.3,0.1,0.9,0.3,1.4,0.5c0.1,0,0.2,0,0.2-0.2c0.1-0.2,0.1-0.2-0.1-0.3c-0.3-0.1-1.5-0.4-1.9-0.5c-0.3-0.1-0.4-0.1-0.8-0.8
	c-0.3-0.4-0.5-0.8-0.6-0.9c-0.1-0.1-0.4-0.1-0.8-0.1h-0.7l-0.3,0.5c-0.3,0.5-0.6,0.7-0.7,0.6c-0.1-0.1,0-0.2,0.3-0.8l0.4-0.7h1.3
	c1.2,0,1.3,0,1.5,0.2c0.2,0.2,0.3,0.2,1.7,0.2c1.4,0,1.5,0,1.5-0.2l0-0.2H43c-1.3,0-1.5,0-1.7-0.2C41.1,16,41,16,38.9,16
	C36.9,16,36.7,16,36.4,16.1 M27.4,16.4c0,0.1,0.1,0.1,0.5,0c0.7-0.1,0.7-0.1,0.1-0.1C27.7,16.3,27.4,16.4,27.4,16.4 M49,16.6
	c0,0.3,0,0.3,0.3,0.3c0.1,0,0.3,0,0.3,0.1s-0.1,0.1-0.3,0.1c-0.4,0-0.4,0.2-0.1,0.2c0.1,0,0.4,0.1,0.6,0.1c0.4,0.1,0.3-0.1-0.1-0.1
	l-0.3-0.1l0.3-0.1c0.5-0.1,0.4-0.2-0.1-0.3C49.2,16.8,49.1,16.8,49,16.6c0.1,0,0.2-0.1,0.6,0c0.3,0,0.5,0,0.3,0
	c-0.1,0-0.3-0.1-0.5-0.1c-0.2,0-0.3,0-0.3-0.1c0,0,0-0.1-0.1-0.1C49,16.3,49,16.5,49,16.6 M27.9,16.7c-0.1,0.1-0.2,0.2-0.3,0.2
	c-0.2,0-0.2-0.2,0-0.3c0.1,0,0.1,0,0-0.1c-0.1,0-0.3,0.2-0.3,0.3c0.1,0.2,0.5,0.1,0.6-0.1c0.1-0.2,0.4-0.2,0.3,0c0,0.1,0,0.1,0,0.1
	c0.2,0,0.2-0.3,0.1-0.4C28.2,16.4,28.1,16.5,27.9,16.7 M31.6,17l0.2,0.3l0.1-0.2c0-0.1,0.1-0.3,0.1-0.3c0,0-0.1-0.1-0.3-0.1h-0.3
	L31.6,17 M27.9,17.1c-0.4,0.1-0.5,0.1-0.4,0.2c0,0.1,0.1,0.2,0.1,0.3c0,0.1,0.1,0.1,0.2,0.1c0.2,0,0.2,0.2,0,0.3
	c-0.1,0-0.1,0.1-0.1,0.1c0,0,0.3-0.1,0.6-0.2l0.5-0.2l-0.6,0c-0.5,0-0.6-0.1-0.6-0.2c0-0.2,0.2-0.3,0.5-0.3c0.1,0,0.3,0,0.3-0.1
	C28.6,17,28.5,17,27.9,17.1 M48.8,17.6c0,0.2,0.1,0.2,0.3,0.3c0.6,0.2,0.7,0.1,0.7-0.2c0-0.2,0-0.2-0.1-0.1
	c-0.1,0.1-0.1,0.2-0.1,0.2c-0.1,0.1-0.3-0.1-0.3-0.2c0-0.1,0-0.1-0.1-0.1c-0.1,0-0.1,0.1-0.1,0.1c0,0.1,0,0.1-0.1,0.1
	c-0.1,0-0.2-0.1-0.2-0.1c0,0,0-0.1,0-0.2c0-0.1,0-0.2-0.1-0.2C48.8,17.4,48.8,17.5,48.8,17.6 M32.1,17.7c0,0-0.2,0.1-0.3,0.1
	c-0.1,0-0.1,0.1,0.1,0.2l0.2,0.2l0-0.3C32.2,17.8,32.2,17.7,32.1,17.7C32.2,17.7,32.2,17.7,32.1,17.7 M45.4,17.9
	c0,0.4,0.1,0.4,0.3,0.1c0.2-0.2,0.2-0.2,0-0.2c-0.1,0-0.2-0.1-0.3-0.1C45.4,17.6,45.4,17.7,45.4,17.9 M48.7,18c0,0,0.1,0.1,0.3,0.2
	c0.4,0.2,0.4,0.3,0,0.2c-0.3,0-0.3,0-0.5,0.3L48.3,19l0.5,0.2c0.5,0.2,0.7,0.2,0.6-0.2c0-0.1,0-0.1-0.1,0c-0.2,0.2-0.4,0.1-0.3-0.1
	c0-0.2,0-0.2-0.1,0c-0.2,0.2-0.4,0.1-0.4-0.1c0.1-0.2,0.1-0.2,0.6-0.1c0.2,0.1,0.4,0.1,0.4,0.1c0,0-0.1-0.1-0.2-0.1
	c-0.1,0-0.1,0,0.1-0.1l0.2,0l-0.2-0.2l-0.2-0.2l0.3,0.1c0.1,0,0.2,0,0.2,0C49.7,18.1,48.7,17.9,48.7,18 M28.2,18.1
	c-0.5,0.1-0.7,0.3-0.3,0.2l0.3-0.1L28,18.5l-0.2,0.2l0.2,0c0.2,0,0.2,0,0,0.1c-0.3,0.1,0,0.1,0.4,0c0.5-0.2,0.5-0.3,0.1-0.2
	c-0.3,0-0.4,0-0.2-0.1c0.3-0.2,0.5-0.4,0.5-0.4C28.7,18,28.5,18.1,28.2,18.1 M36.3,18.4c-0.2,0.2-0.1,0.5,0.1,0.5
	c0.2,0,0.5-0.4,0.5-0.6C36.7,18.1,36.4,18.2,36.3,18.4 M36.8,18.8c-0.1,0.2-0.1,0.5,0.1,0.5c0.1,0,0.5-0.4,0.4-0.5
	C37.3,18.5,37,18.5,36.8,18.8 M45.1,18.9c0.1,0.4,0.1,0.4,0.3,0.1c0.2-0.2,0.2-0.2,0-0.2c-0.1,0-0.2,0-0.3-0.1
	C45,18.6,45,18.7,45.1,18.9 M28.3,18.9C28.1,19,28,19,28,19.1c0,0,1-0.2,1-0.3C29,18.7,28.7,18.7,28.3,18.9 M32.2,18.8l-0.3,0
	l0.3,0.2c0.2,0.2,0.3,0.2,0.3,0.1C32.6,18.9,32.5,18.8,32.2,18.8 M28.3,19.1c-0.1,0.1-0.2,0.2-0.2,0.3c0,0.1,0.1,0.2,0.2,0.2
	c0.2,0,0.2,0,0-0.1c-0.2-0.1-0.2-0.1-0.1-0.2c0.1-0.2,0.6-0.3,0.7-0.2c0.1,0,0.1,0.1,0,0.2c-0.1,0.1-0.1,0.1,0,0.1
	c0.1,0,0.1-0.1,0.1-0.2C29.1,19,28.7,19,28.3,19.1 M38,19.4c-0.2,0.3-0.1,0.5,0.1,0.5c0.2,0,0.4-0.3,0.4-0.5
	C38.4,19.1,38.2,19.1,38,19.4 M48.2,19.3c-0.1,0.2-0.1,0.2,0.4,0.4c0.4,0.2,0.7,0.2,0.3,0c-0.1-0.1-0.2-0.1-0.1-0.2
	c0.1-0.1-0.1-0.4-0.4-0.4C48.4,19.2,48.2,19.2,48.2,19.3 M48.4,19.4c0,0,0,0.1,0.1,0.1c0.2,0.1,0.3,0,0.2-0.1
	C48.6,19.2,48.5,19.2,48.4,19.4 M44.6,19.9c0,0.4,0,0.4,0.3,0.1c0.1-0.1,0.2-0.2,0.1-0.2c-0.1,0-0.2-0.1-0.3-0.1
	C44.6,19.5,44.6,19.6,44.6,19.9 M28.8,19.9c-0.4,0.2-0.5,0.3-0.4,0.4c0.1,0.2,0.4,0.2,0.7,0c0.3-0.2,0.4-0.3,0.2-0.5
	C29.3,19.7,29.2,19.7,28.8,19.9 M32.7,19.8l-0.2,0.1l0.2,0.2c0.3,0.2,0.3,0.2,0.2-0.1C33,19.7,32.9,19.7,32.7,19.8 M48.1,19.7
	c-0.2,0.2-0.1,0.3,0.3,0.5c0.4,0.2,0.8,0.3,0.4,0.1c-0.1-0.1-0.2-0.2-0.2-0.3C48.6,19.8,48.2,19.6,48.1,19.7 M28.8,20
	c-0.4,0.2-0.4,0.4,0,0.3c0.3-0.1,0.5-0.2,0.5-0.4C29.3,19.8,29.3,19.8,28.8,20 M48.1,19.9c-0.1,0.1,0.2,0.2,0.3,0.1
	c0,0,0.1-0.1,0-0.1C48.4,19.8,48.2,19.8,48.1,19.9 M29.1,20.4c-0.5,0.2-0.5,0.4-0.3,0.6c0.1,0.1,0.1,0.1,0.1-0.1
	c0-0.1,0-0.2,0.1-0.3c0.1,0,0.2,0,0.2,0c0.1,0.2,0.2,0.1,0.1-0.1c-0.1-0.2,0.1-0.3,0.3-0.1c0.1,0.1,0.1,0.2-0.3,0.6L29,21.4l0.3-0.1
	c0.4-0.1,0.9-0.3,0.8-0.4c0,0-0.2,0-0.4,0.1l-0.4,0.1l0.2-0.3c0.2-0.2,0.2-0.3,0.2-0.5C29.7,20.2,29.6,20.2,29.1,20.4 M47.8,20.2
	c-0.1,0.1,0,0.4,0.2,0.6c0.3,0.2,0.7,0.2,0.8,0C48.8,20.6,48,20,47.8,20.2 M47.8,20.4c0,0.1,0.4,0.5,0.6,0.5c0.2,0,0.2-0.2,0-0.4
	C48.2,20.3,47.8,20.3,47.8,20.4 M44,20.7c0,0.2,0,0.3,0,0.3c0,0,0.2,0,0.3-0.1c0.2-0.1,0.3-0.2,0.2-0.2c-0.1,0-0.2-0.1-0.3-0.2
	C44.1,20.4,44,20.5,44,20.7 M33.4,20.6c0,0-0.1,0.1-0.3,0.1c-0.2,0-0.1,0,0.1,0.2c0.4,0.2,0.5,0.2,0.3-0.1
	C33.5,20.5,33.5,20.5,33.4,20.6 M47.4,20.9c0,0,0,0.1-0.1,0.2c-0.2,0.2-0.2,0.3,0.3,0.6c0.2,0.2,0.3,0.2,0.4,0.1
	c0.1-0.1,0.1-0.2,0.1-0.2c0-0.1-0.1,0-0.2,0.1c-0.1,0.1-0.2,0.1-0.3,0c-0.1-0.1-0.1-0.2,0-0.3c0.1-0.2,0-0.2-0.1,0
	c-0.2,0.2-0.4,0-0.2-0.2c0.1-0.1,0.2-0.1,0.5,0.1c0.4,0.2,0.4,0.2,0.5,0.1c0.1-0.2,0.1-0.3-0.1-0.1c-0.1,0.1-0.2,0.1-0.5-0.1
	C47.5,20.9,47.2,20.8,47.4,20.9 M29.7,21.4c-0.4,0.3-0.4,0.3-0.3,0.5c0.2,0.2,0.3,0.1,0.2,0c-0.1-0.1-0.1-0.2-0.1-0.2
	c0.1-0.1,0.3-0.1,0.3,0c0,0.1,0.1,0.1,0.1,0c0,0,0-0.1,0-0.2c-0.1-0.2,0.1-0.3,0.3-0.1c0.2,0.1,0.2,0,0-0.2
	C30.1,21.1,30.1,21.1,29.7,21.4 M47,21.6c0,0,0.1,0.2,0.2,0.3l0.2,0.3L47.1,22l-0.4-0.2L46.5,22l-0.2,0.2l0.4,0.3
	c0.4,0.3,0.4,0.3,0.6,0.2c0.1-0.1,0.2-0.2,0.2-0.2c0,0-0.1,0-0.2,0.1c-0.2,0.2-0.4,0.1-0.3-0.2c0.1-0.2,0-0.2-0.1-0.1
	c-0.2,0.2-0.4,0-0.2-0.2c0.1-0.1,0.2-0.1,0.5,0.1c0.5,0.3,0.6,0.2,0.2-0.3C47.2,21.6,47,21.5,47,21.6 M30.1,21.9
	c-0.4,0.3-0.5,0.4-0.3,0.5c0.1,0.1,0.1,0.1,0.1-0.1c0-0.1,0-0.2,0.3-0.5c0.2-0.2,0.3-0.3,0.3-0.3C30.5,21.6,30.3,21.7,30.1,21.9
	 M30.3,22.3c-0.3,0.3-0.3,0.4-0.1,0.5c0.2,0.1,0.5,0,0.8-0.3C31.3,22,30.8,21.8,30.3,22.3 M30.5,22.3c-0.3,0.2-0.3,0.4-0.1,0.4
	c0.2,0,0.6-0.4,0.5-0.5C30.8,22.1,30.7,22.1,30.5,22.3 M30.9,22.8c-0.2,0.2-0.4,0.4-0.4,0.4s0.1,0,0.2-0.1c0.1-0.1,0.2-0.1,0.3-0.1
	c0.1,0.1,0.2,0.1,0.3,0c0.2-0.2,0.3-0.3,0.1-0.5C31.3,22.4,31.1,22.5,30.9,22.8 M46,22.5c-0.2,0.1-0.2,0.1,0.2,0.5
	c0.3,0.3,0.4,0.3,0.5,0.3c0.2-0.2,0.2-0.3-0.2-0.6C46.3,22.4,46.3,22.4,46,22.5 M31.1,22.7c0,0.1,0,0.2,0,0.2
	c0.1,0.1,0.3-0.2,0.3-0.3C31.3,22.5,31.1,22.6,31.1,22.7 M46.1,22.7c-0.1,0.1,0.5,0.6,0.6,0.5c0.1-0.1,0-0.2-0.1-0.3
	C46.4,22.6,46.2,22.5,46.1,22.7 M31.3,23.2c-0.2,0.2-0.3,0.4-0.3,0.4c0,0,0.1-0.1,0.2-0.2c0.1-0.1,0.1-0.2,0.2-0.1
	c0,0.1,0.1,0,0.2-0.2C31.8,22.7,31.6,22.8,31.3,23.2 M45.5,23.1c-0.1,0.1-0.1,0.2,0.2,0.5c0.3,0.4,0.5,0.4,0.6,0.2
	c0.1-0.2,0-0.2-0.1,0c-0.2,0.2-0.4-0.1-0.2-0.3c0.1-0.1,0.1-0.1,0-0.1c-0.1,0-0.1,0-0.2,0.1c0,0.1-0.1,0.1-0.2,0
	c-0.1-0.1-0.1-0.1,0-0.3c0.1-0.1,0.1-0.2,0.1-0.2C45.6,22.9,45.5,23,45.5,23.1 M31.7,23.3c-0.1,0.1-0.3,0.2-0.3,0.1
	c0,0-0.1,0-0.2,0.1c-0.1,0.2,0,0.3,0.1,0.1c0,0,0.1-0.1,0.2-0.1c0.1,0,0,0.1-0.1,0.2c-0.1,0.1-0.1,0.2-0.1,0.2
	c0.1,0,0.3-0.3,0.2-0.4c0,0,0,0,0,0c0.1,0,0.2,0,0.3-0.2C32.2,23.1,32.1,23.1,31.7,23.3 M31.8,23.7c-0.3,0.3-0.3,0.4-0.2,0.5
	c0.2,0.2,0.3,0.1,0.2,0c-0.1-0.2,0-0.5,0.1-0.3c0.1,0.1,0.3,0.1,0.2,0c-0.1-0.1-0.1-0.2,0-0.3c0-0.1,0.1-0.1,0.2,0
	c0.1,0.1,0.2,0.1,0.2,0.1c0,0-0.1,0.2-0.2,0.4c-0.2,0.2-0.3,0.4-0.3,0.4c0,0.1,0.1,0,0.2-0.2c0.2-0.3,0.3-0.3,0.1,0.1
	c0,0.2,0,0.3,0,0.3c0.1,0,0.2-0.2,0.2-0.6c0-0.4,0-0.4-0.2-0.6C32.2,23.3,32.2,23.3,31.8,23.7 M44.9,23.5c-0.1,0.1-0.1,0.2,0.2,0.5
	c0.2,0.3,0.4,0.4,0.5,0.4c0.2-0.1,0.2-0.4-0.1-0.7C45.4,23.4,45.2,23.3,44.9,23.5 M45.1,23.6c-0.1,0.1,0.4,0.7,0.5,0.5
	c0.1-0.1,0-0.2-0.1-0.3C45.3,23.5,45.1,23.4,45.1,23.6 M44.3,23.9c-0.2,0.1-0.2,0.1,0.1,0.5c0.1,0.2,0.3,0.4,0.4,0.4
	c0.2,0,0.4-0.2,0.3-0.2c0,0-0.1,0-0.2,0c-0.1,0.1-0.1,0.1-0.2-0.1c-0.1-0.1,0-0.2,0.1-0.3c0.1-0.1,0.1-0.1,0-0.1
	c-0.2,0.1-0.4-0.1-0.2-0.3C44.6,23.8,44.5,23.7,44.3,23.9 M32.8,24c-0.1,0.1-0.1,0.2-0.1,0.2C32.7,24.3,32.8,24.2,32.8,24
	c0.2,0,0.2-0.1,0.3,0c0.1,0.1,0.1,0.2-0.2,0.5c-0.1,0.2-0.2,0.4-0.2,0.4c0,0,0.2-0.2,0.3-0.4c0.1-0.2,0.3-0.4,0.3-0.4
	c0.1,0,0.1,0,0-0.1C33.2,23.9,32.9,23.9,32.8,24 M44,24.2c0,0,0.1,0.2,0.2,0.3c0.4,0.6,0.1,0.7-0.2,0.2c-0.3-0.5-0.4-0.4-0.1,0.1
	c0.3,0.5,0.4,0.5,0.6,0.3c0.1-0.1,0.1-0.2-0.1-0.5C44.1,24.2,44,24,44,24.2 M33.5,24.8c-0.2,0.4-0.2,0.5-0.1,0.5
	c0.2,0.1,0.3,0.1,0.5-0.3c0.2-0.3,0.2-0.4,0.1-0.5C33.8,24.2,33.8,24.3,33.5,24.8 M43.2,24.5c-0.1,0.1-0.1,0.2,0,0.4
	c0.1,0.4,0.3,0.5,0.6,0.5c0.2-0.1,0.2-0.1,0.1-0.4c-0.1-0.3-0.4-0.7-0.5-0.7C43.4,24.4,43.3,24.4,43.2,24.5 M33.7,24.6
	c-0.1,0.2,0.1,0.3,0.2,0.1c0.1-0.1,0-0.3-0.1-0.3C33.8,24.5,33.7,24.5,33.7,24.6 M43.3,24.6c-0.1,0.2,0.2,0.7,0.4,0.7
	c0.1,0,0.1-0.5-0.1-0.7C43.4,24.5,43.3,24.5,43.3,24.6 M34.1,24.9c-0.1,0.2-0.3,0.4-0.3,0.4c-0.1,0.1-0.1,0.1,0.1,0
	c0.2-0.1,0.4-0.1,0.3,0.1c0,0.1,0,0.1,0,0.1c0,0,0.1-0.2,0.1-0.3c0-0.2,0.1-0.4,0.1-0.4C34.6,24.6,34.4,24.6,34.1,24.9 M42.9,24.7
	c0,0.1,0.4,1,0.5,1C43.4,25.6,43,24.8,42.9,24.7C42.9,24.7,42.9,24.6,42.9,24.7 M42.7,25c0,0.2,0,0.3,0.1,0.3c0,0,0.1,0.1,0.2,0.2
	c0.1,0.1,0.1,0.2,0.1,0.2s-0.1-0.3-0.2-0.5l-0.2-0.5L42.7,25 M33.5,25c-0.1,0.2,0.1,0.3,0.2,0.2c0.1-0.1,0.1-0.2,0-0.2
	C33.6,24.8,33.5,24.9,33.5,25 M34.6,25.2c-0.1,0.2-0.1,0.4-0.1,0.5c0,0,0.1-0.1,0.1-0.2c0.1-0.4,0.2-0.3,0.2,0
	c0,0.5,0.1,0.5,0.3-0.1c0.2-0.5,0.2-0.7,0-0.2l-0.1,0.3l0-0.3C34.9,24.7,34.8,24.7,34.6,25.2 M42.2,25c0,0.2,0.3,0.9,0.4,0.9
	c0,0,0-0.1,0-0.2c-0.2-0.3-0.1-0.3,0.1-0.1c0.1,0.2,0.2,0.2,0.2,0.1c0-0.1-0.1-0.3-0.3-0.5C42.4,25,42.2,24.9,42.2,25 M35.2,25.3
	c-0.1,0.1-0.1,0.4-0.1,0.5c0,0.3,0,0.3,0.1,0c0.1-0.2,0.1-0.2,0.1,0c0.1,0.4,0.2,0.4,0.2,0c0-0.2,0-0.4,0.1-0.5l0.2-0.2l-0.3,0.2
	c-0.3,0.2-0.3,0.2-0.2,0C35.5,24.9,35.3,25,35.2,25.3 M41.8,25.6c0,0.4,0,0.5-0.1,0.5c-0.2,0-0.2-0.1-0.3-0.4
	c-0.1-0.2-0.1-0.4-0.1-0.4c0,0,0.1,1,0.2,1c0.2,0,0.6-0.2,0.5-0.3c-0.1-0.2,0.1-0.3,0.3-0.1c0.2,0.2,0.2,0.1,0-0.2
	c-0.1-0.3-0.3-0.4-0.2-0.1c0,0.1,0,0.1,0,0.1c0,0-0.1-0.1-0.1-0.2c0-0.1,0-0.3-0.1-0.3C41.8,25.1,41.8,25.2,41.8,25.6 M36.6,25.4
	c-0.1,0.2-0.2,0.8-0.2,0.9c0,0.1,0.4,0.1,0.4,0c0-0.1,0.1-0.3,0.1-0.5c0-0.3,0-0.4-0.1-0.5C36.7,25.3,36.7,25.3,36.6,25.4
	 M40.7,25.4c-0.1,0.2,0,0.4,0.2,0.5c0.2,0,0.2,0.2,0.1,0.3c0,0-0.1,0-0.2,0c-0.1-0.1-0.1-0.1-0.1,0c0,0.2,0.3,0.2,0.4,0.1
	c0.2-0.2,0-0.5-0.2-0.5c-0.1,0-0.2-0.1-0.2-0.1c0-0.2,0.1-0.2,0.2-0.1c0.1,0.1,0.1,0.1,0.1,0C41,25.2,40.8,25.2,40.7,25.4
	 M40.5,25.8c0,0.2,0.1,0.5,0.1,0.6c0.1,0.2,0-0.6-0.1-0.9C40.5,25.4,40.5,25.5,40.5,25.8 M36.7,25.6c0,0.1,0,0.2,0.1,0.2
	c0.1,0,0.1-0.1,0.1-0.2c0-0.1-0.1-0.1-0.1-0.2C36.7,25.5,36.7,25.5,36.7,25.6 M37.2,25.9c-0.2,0.5-0.2,0.7-0.1,0.4
	c0.1-0.2,0.3-0.2,0.3,0c0,0.1,0,0.1,0.1,0.1c0.1,0,0.1-0.1,0-0.2c0-0.1-0.1-0.3-0.1-0.5C37.5,25.3,37.4,25.4,37.2,25.9 M37.7,25.7
	c0,0.1,0,0.4,0,0.6l0,0.4l0.1-0.4l0.1-0.4l0.1,0.3c0.1,0.1,0.1,0.3,0.1,0.3c0,0,0,0.1,0.1,0.1c0,0,0.1-0.2,0.1-0.5
	c0-0.3,0-0.5,0-0.5c0,0-0.1,0.2-0.1,0.3l0,0.3L38,25.9C37.8,25.4,37.8,25.4,37.7,25.7 M38.5,25.5c-0.2,0.1-0.2,0.7-0.1,0.9
	c0.1,0.1,0.2,0.2,0.3,0.2c0.2,0,0.2-0.1,0.2-0.4c0-0.4-0.1-0.8-0.2-0.8C38.6,25.5,38.5,25.5,38.5,25.5 M39.6,25.6
	c0,0.1,0,0.3,0.1,0.5c0,0.4,0.1,0.4,0.3,0.4c0.1,0,0.2,0,0.2-0.1c0,0-0.1-0.1-0.2-0.1c-0.2,0-0.2-0.3,0-0.3c0.1,0,0.1-0.1,0-0.1
	c-0.3-0.1-0.2-0.2,0-0.3c0.2-0.1,0.2-0.1,0-0.1C39.7,25.5,39.6,25.5,39.6,25.6 M39,25.9c0,0.5,0.2,0.8,0.4,0.6c0.1-0.1,0.2-1,0.1-1
	c0,0-0.1,0.2-0.1,0.4c0,0.6-0.2,0.6-0.3,0L39,25.5L39,25.9 M36.1,25.7c0,0.1,0,0.1,0,0.1c0.1,0.1,0.2,0,0.2-0.2
	C36.3,25.6,36.2,25.6,36.1,25.7 M38.4,25.8c-0.1,0.3-0.1,0.4,0,0.5c0.1,0.1,0.1,0.1,0.2,0c0.2-0.2,0.2-0.3,0.1-0.6
	C38.7,25.6,38.5,25.6,38.4,25.8 M36.6,26.1c0,0.1,0.1,0.2,0.1,0.2s0.1-0.1,0.1-0.2c0-0.1-0.1-0.2-0.1-0.2S36.6,26,36.6,26.1"/>
</svg>
