<?xml version="1.0" encoding="utf-8"?>
<!-- Generator: Adobe Illustrator 24.1.2, SVG Export Plug-In . SVG Version: 6.00 Build 0)  -->
<svg version="1.1" id="Layer_1" xmlns="http://www.w3.org/2000/svg" xmlns:xlink="http://www.w3.org/1999/xlink" x="0px" y="0px"
	 viewBox="0 0 75 28" style="enable-background:new 0 0 75 28;" xml:space="preserve">
<style type="text/css">
	.st0{fill-rule:evenodd;clip-rule:evenodd;fill:#B1D07F;}
	.st1{fill-rule:evenodd;clip-rule:evenodd;fill:#040404;}
	.st2{fill-rule:evenodd;clip-rule:evenodd;fill:#48B0DD;}
</style>
<path class="st0" d="M17.4,8v5.2l3.4,2.6c1.9,1.4,3.4,2.6,3.4,2.6c0,0,0-0.2-1.4-3.4c-0.6-1.3-1.2-2.7-1.4-3.2s-0.8-1.9-1.4-3.2
	c-0.6-1.3-1.4-3.2-1.8-4.1c-0.4-0.9-0.8-1.7-0.8-1.7C17.4,2.8,17.4,5.2,17.4,8"/>
<path class="st1" d="M30.8,20.6c0,0.8,0,1.1-0.1,1.2c-0.1,0.1-0.3,0.1-0.9,0.1H29v-0.6v-0.6h0.2c0.3,0,0.4,0.2,0.3,0.4l0,0.2l0.2,0
	c0.2,0,0.2,0,0.3-0.3c0-0.3,0-0.3-0.2-0.5c-0.2-0.1-0.3-0.2-0.6-0.2c-0.2,0-0.5,0-0.6,0.1c-0.2,0.1-0.2,0.1-0.2,0.7v0.7H28h-0.4
	v-0.7v-0.7h-0.2h-0.2v1c0,0.5,0,1.1-0.1,1.1c-0.1,0.2-0.3,0.3-0.6,0.2c-0.2,0-0.2,0-0.3,0.1c-0.1,0.1-0.1,0.1-0.2,0
	c-0.2-0.2-0.5,0.2-0.3,0.4c0.1,0.1,0.4,0,0.4-0.2c0-0.1,0-0.1,0.1,0c0.1,0,0.3,0.1,0.5,0.1c0.4,0,0.4,0,0.6-0.2
	c0.1-0.1,0.2-0.3,0.2-0.4l0-0.2l1.5,0c1.1,0,1.6,0,1.7-0.1c0.3-0.1,0.4-0.3,0.4-1.5v-1.1H31h-0.2V20.6 M31.9,20.9v1.4h0.2h0.2v-1.4
	v-1.4h-0.2h-0.2V20.9 M41.4,20.7l0,1.1l-0.2,0c-0.1,0-0.5,0-0.8,0l-0.5,0v-0.3v-0.3h-0.2h-0.2v0.5v0.5l0.3,0.1c0.2,0,0.6,0.1,1.1,0
	c0.5,0,0.9,0,1,0c0.1,0,1.4,0,1.5,0c0,0,0.3,0,0.6,0c0.4,0,0.5,0,0.7-0.1c0.1-0.1,0.2-0.1,0.3,0c0.2,0.1,0.6,0.1,0.8,0
	c0.1-0.1,0.2-0.1,0.3,0c0.2,0.1,1,0.1,1.3,0c0.1-0.1,0.2-0.2,0.2-0.3c0-0.1,0.1-0.7,0.1-1.3v-1.1h-0.2H47v1.1c0,0.9,0,1.1-0.1,1.2
	c-0.1,0-0.2,0.1-0.5,0.1l-0.4,0l0-0.4c0-0.7-0.3-1.1-0.8-1.1c-0.3,0-0.5,0.2-0.7,0.4c0,0.1-0.1,0.3-0.1,0.6l0,0.5l-0.4,0
	c-0.4,0-0.4,0-0.5-0.1c0-0.1-0.1-0.6-0.1-1.2v-1h-0.2H43v1c0,0.6,0,1.1-0.1,1.2c-0.1,0.1-0.1,0.1-0.5,0.1c-0.4,0-0.4,0-0.5-0.1
	c0-0.1-0.1-0.6-0.1-1.2v-1h-0.2h-0.2L41.4,20.7 M48.1,20.9v1.4h0.2h0.2v-1.4v-1.4h-0.2h-0.2V20.9 M52.4,19.7
	c-0.1,0.1-0.1,0.2,0.1,0.3c0.1,0.1,0.2,0.1,0.2,0c0.2-0.1,0.1-0.4-0.1-0.4C52.5,19.6,52.4,19.6,52.4,19.7 M24.2,19.8
	c-0.1,0.1,0.1,0.3,0.2,0.3s0.3-0.2,0.2-0.3c0-0.1-0.1-0.1-0.2-0.1S24.2,19.7,24.2,19.8 M27.2,19.8c-0.1,0.1,0.1,0.3,0.2,0.3
	c0.2,0,0.3-0.2,0.2-0.3c0-0.1-0.1-0.1-0.2-0.1C27.3,19.7,27.2,19.7,27.2,19.8 M50.3,19.8c-0.1,0.3,0.3,0.4,0.5,0.2
	c0-0.1,0-0.1,0-0.2C50.6,19.6,50.4,19.6,50.3,19.8 M50.9,19.8c-0.1,0.1,0,0.3,0.2,0.3c0.2,0,0.2,0,0.2-0.2c0-0.2,0-0.2-0.2-0.2
	C51.1,19.7,50.9,19.7,50.9,19.8 M36.8,20.3c-0.1,0-0.2,0.1-0.3,0.1c0,0-0.1,0.4-0.1,0.7l0,0.7l-0.4,0l-0.4,0l0-0.7l0-0.7l-0.2,0
	l-0.2,0V21c0,0.8,0,0.8-0.6,0.8c-0.5,0-0.5,0-0.5-0.4c0-0.5,0-0.7-0.2-0.9c-0.2-0.2-0.2-0.2-0.5-0.2c-0.4,0-0.6,0.1-0.5,0.2
	c0,0.1,0.1,0.1,0.3,0.1c0.4,0,0.5,0.1,0.5,0.6c0,0.5-0.1,0.6-0.6,0.6h-0.4v0.2v0.2l0.5,0c0.3,0,0.6,0,0.6,0c0.1,0,0.9,0,1.6,0
	c0,0,0.7,0,1.4,0l1.4,0v-0.2v-0.2h-0.6h-0.6l0-0.6l0-0.6l0.2,0c0.2,0,0.4,0.1,0.4,0.4c0,0.2,0,0.2,0.2,0.2c0.2,0,0.2,0,0.3-0.2
	C38.1,20.6,37.5,20.2,36.8,20.3 M55.2,20.4c-0.1,0-0.2,0.1-0.2,0.2c0,0.1,0,0.2,0.3,0.1c0.4,0,0.5,0.1,0.5,0.6
	c0,0.5-0.1,0.6-0.6,0.6h-0.3v0.2v0.2l0.4,0c0.2,0,0.5,0,0.5-0.1c0.1-0.1,0.2-0.1,0.3,0c0.2,0.1,0.9,0.1,1.1,0c0.1-0.1,0.2-0.1,0.3,0
	c0.1,0.1,0.3,0.1,0.4,0.1c0.5,0,0.9-0.4,0.8-1.1c-0.1-0.7-0.6-1-1.1-0.8c-0.4,0.2-0.5,0.4-0.5,0.9l0,0.5l-0.2,0c-0.1,0-0.3,0-0.4,0
	l-0.2,0l0-0.4c0-0.4-0.1-0.7-0.4-0.9C55.8,20.3,55.4,20.3,55.2,20.4 M24.2,21.4c0,0.6,0,1.1-0.1,1.2c-0.1,0.1-0.3,0.2-0.6,0.1
	c-0.2-0.1-0.2,0-0.3,0.1c-0.1,0.2,0.1,0.3,0.5,0.3c0.5,0,0.9-0.2,0.9-0.6c0-0.1,0-0.1,0.6-0.1c0.6,0,0.9-0.1,1-0.3
	c0-0.1,0.1-0.5,0.1-0.9v-0.8l-0.2,0l-0.2,0l0,0.7c0,0.4,0,0.7-0.1,0.7c0,0.1-0.2,0.1-0.6,0.1h-0.5l0-0.7l0-0.7l-0.2,0l-0.2,0V21.4
	 M50.4,20.5c-0.3,0.2-0.4,0.5-0.4,0.9c0,0.6,0.3,1,0.8,0.9c0.1,0,0.3,0,0.4,0c0.2,0,1.3,0,1.4,0c0.1,0,0.4,0,0.8,0
	c1.2,0,1.3,0,1.3-1.1v-0.8h-0.2h-0.2v0.6c0,0.3,0,0.7-0.1,0.7c-0.1,0.2-0.1,0.2-0.6,0.2c-0.7,0-0.7,0-0.7-0.9v-0.6h-0.2h-0.2l0,0.7
	c0,0.8,0,0.8-0.5,0.8c-0.4,0-0.4-0.1-0.4-0.8c0-0.6,0-0.6-0.1-0.6C51,20.3,50.6,20.3,50.4,20.5 M40.5,20.7c-0.1,0-0.2,0.1-0.2,0.3
	c-0.1,0.4-0.1,0.4,0.4,0.4c0.4,0,0.4,0,0.4-0.1c0-0.1,0-0.1-0.2-0.1c-0.3,0-0.4-0.1-0.3-0.2c0.1,0,0.1,0,0.2,0
	c0.1,0.1,0.3,0.1,0.3,0C41,20.7,40.7,20.6,40.5,20.7 M45,20.8c-0.1,0.2-0.1,1,0,1.1c0.1,0.1,0.3,0.1,0.4-0.1c0.1-0.2,0.1-0.7,0-0.9
	C45.4,20.6,45.1,20.6,45,20.8 M57.7,20.8c-0.1,0.1-0.1,0.3-0.1,0.5c0,0.4,0.1,0.7,0.3,0.6c0.2,0,0.3-0.3,0.3-0.6
	C58.3,20.8,58,20.5,57.7,20.8 M50.6,20.9c-0.1,0.1-0.1,0.6-0.1,0.8c0,0.1,0.3,0.1,0.4,0c0,0,0.1-0.3,0.1-0.5v-0.5h-0.2
	C50.7,20.7,50.6,20.8,50.6,20.9 M35.1,22.7c-0.1,0.2,0,0.3,0.2,0.3c0.2,0,0.3-0.2,0.2-0.3C35.4,22.6,35.1,22.6,35.1,22.7 M25.2,22.8
	c-0.1,0.3,0.2,0.5,0.4,0.3c0.1-0.1,0.1-0.2,0-0.3C25.4,22.7,25.2,22.7,25.2,22.8 M53.6,22.8c-0.1,0.1-0.1,0.1-0.1,0.2
	c0,0.1,0.2,0.2,0.3,0.2c0.1,0,0.3-0.2,0.3-0.2s-0.2-0.2-0.3-0.2C53.7,22.7,53.6,22.8,53.6,22.8 M54.1,22.8c-0.2,0.2,0.1,0.5,0.3,0.4
	c0.2-0.1,0.1-0.5-0.1-0.5C54.3,22.7,54.2,22.8,54.1,22.8 M43.6,24.3c0,0,0,0.7,0,1.4v1.4l0.2,0l0.2,0v-1.4v-1.4l-0.2,0
	C43.7,24.3,43.6,24.3,43.6,24.3 M42.4,25.5c0,1.3,0,1.2-0.5,1.2c-0.5,0-0.5,0-0.5-0.8l0-0.7h-0.2h-0.2v0.7c0,0.8,0,0.9-0.6,0.8
	l-0.4,0l0-0.6c0-0.6,0-0.6-0.2-0.7c-0.1-0.1-0.3-0.1-0.5-0.1c-0.3,0-0.4,0-0.6,0.2c-0.2,0.2-0.2,0.3-0.2,0.5c0,0.4,0.5,0.7,0.9,0.6
	c0.1,0,0.1,0,0.1,0.1c0,0.1,0,0.1-0.1,0.2c-0.1,0.1-1.4,0-1.4,0c0,0-0.1-0.3-0.1-0.7l0-0.7l-0.2,0l-0.2,0v0.6c0,0.8,0,0.9-0.6,0.9
	c-0.2,0-0.5,0-0.5-0.1c0,0-0.1-0.3-0.1-0.7v-0.7h-0.2h-0.2v0.7c0,0.4,0,0.7-0.1,0.7c0,0-0.2,0.1-0.5,0.1c-0.5,0-0.6,0-0.6-0.8v-0.6
	l-0.2,0c-0.1,0-0.2-0.1-0.3-0.1c-0.2,0-0.6,0.1-0.7,0.3c-0.7,0.7,0,2.1,0.8,1.6c0.1-0.1,0.2-0.1,0.3,0c0.1,0.1,0.3,0.1,0.8,0.1
	c0.4,0,0.7,0,0.8,0c0.1,0,0.4,0,0.8,0c0.3,0,0.7,0,0.8,0c0.3,0,1.9,0,2.1,0c0.1,0,0.4,0,0.8,0s0.6,0,0.7,0c0.1,0,0.4,0,0.7,0
	c0.6,0,1-0.1,1.1-0.3c0-0.1,0.1-0.7,0.1-1.3v-1.1h-0.2h-0.2V25.5 M53,25.4c0,0.6,0,1.1-0.1,1.2c-0.1,0.1-0.1,0.1-0.5,0.1h-0.4l0-0.2
	c0-0.1,0-0.4,0-0.6c-0.1-0.5-0.2-0.7-0.6-0.7c-0.6,0-0.8,0.3-0.9,0.9c-0.1,0.6,0.3,1.1,0.8,1.1c0.3,0,0.3,0.1,0.2,0.3
	c-0.1,0.1-0.1,0.1-0.4,0.1c-0.3,0-0.4,0-0.4,0.1c-0.1,0.2,0.1,0.3,0.5,0.3c0.4,0,0.4,0,0.6-0.2c0.1-0.1,0.2-0.3,0.2-0.4
	c0-0.2,0-0.2,0.5-0.2c0.3,0,0.6,0,0.7,0c0.2,0,3.4,0,3.6,0c0.1,0,0.3,0,0.6,0c0.7,0,1,0,1.1-0.3c0.1-0.1,0.1-0.4,0.1-1.3v-1.1h-0.2
	h-0.2v1.1c0,0.8,0,1.1-0.1,1.2c0,0-0.2,0.1-0.5,0.1c-0.3,0-0.4,0-0.5-0.1c0-0.1-0.1-0.6-0.1-1.2v-1h-0.2h-0.2v1c0,0.5,0,1.1-0.1,1.2
	l-0.1,0.2h-0.9h-0.9l0-0.6l0-0.6l0.2,0c0.2,0,0.4,0.2,0.4,0.4c0,0.2,0,0.2,0.2,0.2c0.2,0,0.2,0,0.3-0.3c0-0.2,0-0.3-0.2-0.5
	c-0.2-0.2-0.2-0.2-0.6-0.2c-0.2,0-0.5,0-0.6,0.1c-0.2,0.1-0.2,0.1-0.2,0.7v0.7H54c-0.3,0-0.4,0-0.5-0.1c0-0.1-0.1-0.6-0.1-1.2v-1
	h-0.2H53V25.4 M37.3,24.5c0,0-0.1,0.1-0.1,0.2c0,0.1,0.1,0.1,0.2,0.1c0.2,0,0.3-0.2,0.2-0.3C37.6,24.4,37.4,24.4,37.3,24.5
	 M38.7,24.5c-0.1,0.1-0.1,0.3,0,0.4c0.2,0.1,0.5-0.2,0.3-0.4C38.9,24.4,38.8,24.4,38.7,24.5 M39.3,24.5c-0.1,0.1-0.1,0.3,0,0.4
	c0.1,0,0.3,0,0.3-0.1C39.8,24.6,39.5,24.4,39.3,24.5 M41.3,24.5c-0.1,0.1-0.1,0.3,0,0.4c0.2,0.1,0.5-0.2,0.3-0.4
	c-0.1,0-0.1-0.1-0.2-0.1C41.4,24.4,41.3,24.4,41.3,24.5 M33.4,24.6c-0.1,0.1,0,0.3,0.2,0.3c0.2,0,0.3-0.2,0.2-0.3
	C33.7,24.4,33.5,24.4,33.4,24.6 M33.9,24.6c0,0.1,0,0.1,0,0.2c0.2,0.2,0.6,0,0.4-0.2C34.3,24.4,34,24.4,33.9,24.6 M40.6,24.6
	c-0.1,0.1,0.1,0.3,0.2,0.3c0.2,0,0.3-0.2,0.2-0.3C40.9,24.4,40.7,24.4,40.6,24.6 M28,24.6c-0.7,0.2-0.9,1.3-0.5,2
	c0.2,0.3,0.8,0.5,1.3,0.3c0.2-0.1,0.2-0.1,0.2-0.3c0-0.2,0-0.2-0.3-0.1c-0.3,0.2-0.6,0.2-0.8,0c-0.3-0.3-0.4-1.1,0-1.4
	c0.2-0.2,0.2-0.2,0.5-0.2c0.2,0,0.4,0.1,0.4,0.1c0.2,0.1,0.2,0.1,0.2-0.1c0-0.2,0-0.2-0.3-0.3C28.3,24.5,28.3,24.5,28,24.6
	 M23.8,24.7c0,0,0,0.6,0,1.2l0,1.1l0.2,0l0.2,0v-0.5c0-0.3,0-0.5,0.1-0.5c0,0,0.2,0.2,0.5,0.5l0.4,0.5l0.3,0l0.3,0l0.1-0.3l0.1-0.3
	h0.4h0.4l0.1,0.3c0.1,0.3,0.1,0.3,0.3,0.3c0.1,0,0.2,0,0.2-0.1c0,0-0.2-0.6-0.4-1.2l-0.4-1.1h-0.2h-0.2l-0.4,1.1
	c-0.3,0.9-0.4,1.1-0.4,1c0-0.1-0.2-0.3-0.4-0.6l-0.4-0.5l0.4-0.5c0.2-0.3,0.4-0.5,0.4-0.5c0,0-0.1,0-0.2,0c-0.2,0-0.3,0.1-0.6,0.5
	l-0.4,0.5l0-0.5c0-0.5,0-0.5-0.2-0.5C23.9,24.6,23.8,24.6,23.8,24.7 M29.5,24.7c-0.5,0.3-0.4,1,0.3,1.2c0.4,0.1,0.6,0.2,0.6,0.4
	c0,0.3-0.5,0.5-0.9,0.2c-0.1-0.1-0.3-0.1-0.3-0.1c0,0,0,0.1,0,0.2c0,0.2,0,0.2,0.2,0.3c0.3,0.1,0.7,0.1,0.9,0c0.1,0,0.2-0.2,0.3-0.3
	c0.3-0.4,0.1-0.9-0.4-1c-0.5-0.1-0.6-0.2-0.6-0.4c-0.1-0.4,0.4-0.5,0.8-0.3c0.2,0.1,0.2,0.1,0.2,0c0.1-0.2,0-0.3-0.2-0.4
	C30.2,24.5,29.7,24.6,29.5,24.7 M30.7,24.8c0,0.2,0,0.2,0.4,0.2l0.4,0l0,1l0,1h0.2h0.2l0-1l0-1l0.4,0c0.3,0,0.4,0,0.4-0.2l0-0.2
	h-0.9h-0.9L30.7,24.8 M26.2,25.4C26,26,26,26,26.3,26c0.2,0,0.3,0,0.3,0c0,0-0.1-0.2-0.1-0.5L26.3,25L26.2,25.4 M45,25.3
	c-0.2,0.1-0.4,0.4-0.4,0.7c-0.1,0.6,0.2,1,0.8,1.1c0.2,0,0.3,0.1,0.3,0.1c0,0.2-0.2,0.3-0.5,0.2c-0.3,0-0.3,0-0.4,0.1
	c-0.1,0.2,0,0.3,0.4,0.3c0.5,0,0.7-0.1,0.9-0.4c0.1-0.2,0.1-0.4,0.1-1.1c0-0.9,0-0.9-0.2-1C45.7,25.1,45.2,25.1,45,25.3 M48.9,25.3
	c-0.2,0.2-0.3,0.4-0.3,0.9l0,0.5l-0.3,0c-0.6,0.1-0.7,0.2-0.7,0.8v0.3h0.2h0.2l0-0.4l0-0.4l0.3,0c0.2,0,0.4-0.1,0.4-0.1
	c0.1-0.1,0.1-0.1,0.2,0c0.2,0.1,0.6,0.1,0.8,0c0.3-0.3,0.4-0.9,0.3-1.3C49.8,25.2,49.2,25,48.9,25.3 M38.9,25.6
	C38.8,25.7,38.9,26,39,26c0.2,0.1,0.3,0,0.3-0.3c0-0.2,0-0.3-0.2-0.3C39.1,25.5,39,25.5,38.9,25.6 M45.1,25.6
	c-0.1,0.1-0.1,0.3-0.1,0.5c0,0.4,0.1,0.6,0.4,0.6h0.2l0-0.6c0-0.6,0-0.6-0.2-0.6C45.3,25.5,45.2,25.5,45.1,25.6 M49.1,25.6
	c0,0.1-0.1,0.3-0.1,0.6c0,0.3,0,0.5,0.1,0.5c0.1,0.1,0.2,0.1,0.3,0c0.1-0.1,0.1-0.2,0.1-0.5c0-0.5-0.1-0.7-0.3-0.7
	C49.2,25.5,49.1,25.5,49.1,25.6 M51.2,25.6c-0.2,0.3-0.2,0.8,0,1c0.1,0.1,0.2,0.1,0.3,0.1h0.2v-0.5c0-0.3,0-0.5,0-0.6
	C51.6,25.4,51.2,25.4,51.2,25.6 M33.6,25.7c-0.1,0.2-0.1,0.6,0,0.8c0.1,0.1,0.1,0.1,0.3,0.1l0.2,0l0-0.5l0-0.5h-0.2
	C33.7,25.5,33.7,25.6,33.6,25.7 M35.1,27.6c-0.1,0.3,0.2,0.5,0.4,0.3c0.1-0.1,0.1-0.2,0-0.3C35.3,27.5,35.1,27.5,35.1,27.6
	 M35.7,27.6c-0.2,0.2,0,0.5,0.2,0.4c0.1,0,0.1-0.1,0.2-0.2C36.2,27.6,35.9,27.4,35.7,27.6"/>
<path class="st2" d="M35.2,0.2c0,0-2.5,2-5.4,4.3l-5.4,4.2l0,4.9c0,2.7,0,4.9,0,4.9"/>
</svg>
