<svg xmlns="http://www.w3.org/2000/svg" xmlns:xlink="http://www.w3.org/1999/xlink" viewBox="0 0 793.4 912.48"><defs><style>.cls-1{isolation:isolate;}.cls-2{fill:#00bfe1;}.cls-3{opacity:0.6;mix-blend-mode:multiply;fill:url(#radial-gradient);}.cls-4{fill:none;}.cls-5{fill:#fff;}.cls-6{fill:#231f20;}</style><radialGradient id="radial-gradient" cx="-5.95" cy="-6564.93" r="78.44" gradientTransform="translate(0 44336.41) scale(1 6.68)" gradientUnits="userSpaceOnUse"><stop offset="0" stop-color="#3e3e3e"/><stop offset="0.36" stop-color="#8f8f8f"/><stop offset="0.66" stop-color="#cbcbcb"/><stop offset="0.88" stop-color="#f1f1f1"/><stop offset="1" stop-color="#fff"/></radialGradient></defs><g class="cls-1"><g id="Layer_1" data-name="Layer 1"><polygon class="cls-2" points="-100.76 242.34 154.85 472.19 -100.76 702.03 -100.76 242.34"/><ellipse class="cls-3" cx="-5.95" cy="472.9" rx="75" ry="526.55"/><path class="cls-2" d="M477.08,336.11l-20.6,10.22-4.58-9.22,20.62-10.23Z"/><path class="cls-2" d="M472.22,418.42l-20.54-10.35,4.63-9.19,20.54,10.35Z"/><path class="cls-2" d="M459.25,367.47l20.93.06,0,10.3-20.93-.07Z"/><path class="cls-2" d="M312.46,326.38,333,336.73l-4.62,9.19-20.55-10.35Z"/><path class="cls-2" d="M312.17,417.91l-4.57-9.22,20.61-10.22,4.57,9.21Z"/><path class="cls-2" d="M304.54,367l20.94.06,0,10.29-20.93-.07Z"/><path class="cls-2" d="M376.56,481.09l30.88.1,0,10.29-30.88-.1Z"/><path class="cls-2" d="M448.94,372.58a56.6,56.6,0,1,0-82.49,50.08l-.05,16.55-10.28,0,0,10.29,10.29,0-.06,21.27,51.45.16.07-21.27,10.28,0,0-10.29-10.3,0,.06-16.55A56.6,56.6,0,0,0,448.94,372.58Zm-41.45,88-30.87-.1,0-11,30.87.1Zm-20.33-77.94a5.15,5.15,0,1,1,5.13,5.17A5.15,5.15,0,0,1,387.16,382.67Zm10.12,56.64.13-42.05a15.44,15.44,0,1,0-10.28,0l-.14,42-10.29,0,.06-23.16-3.07-1.36a46.3,46.3,0,1,1,37,.12l-3.09,1.34-.07,23.16Z"/><polyline class="cls-4" points="749.98 970.64 27.05 970.64 27.05 -26.27 749.98 -26.27"/><path class="cls-2" d="M129.23,85.41c0-12.3,6.54-18.84,18.84-18.84h14.65c12.29,0,18.83,6.54,18.83,18.84v67c0,12.3-6.54,18.84-18.83,18.84H148.07c-12.3,0-18.84-6.54-18.84-18.84Zm30.22,68.93c3.4,0,5.23-1.7,5.23-5.24V88.68c0-3.41-1.83-5.24-5.23-5.24h-7.59c-3.4,0-5.23,1.83-5.23,5.24V149.1c0,3.54,1.83,5.24,5.23,5.24Z"/><path class="cls-2" d="M219.88,66.57A1.93,1.93,0,0,1,222,68.66V169.12a1.93,1.93,0,0,1-2.09,2.09H206.27a1.87,1.87,0,0,1-2.09-2.09V86.45l-8.11,1a2.17,2.17,0,0,1-2.75-2.36V72.59a2.42,2.42,0,0,1,2.49-2.75Z"/><polygon class="cls-5" points="96.41 466.82 27.05 404.46 27.05 -222.83 -128.19 -222.83 -128.19 1167.2 27.05 1167.2 27.05 529.2 96.41 466.82"/><path class="cls-2" d="M241.49,583.43v-56.7h13.93a30.3,30.3,0,0,1,6.82.7,13.84,13.84,0,0,1,5.25,2.34,10.64,10.64,0,0,1,3.4,4.45,18.2,18.2,0,0,1,1.19,7.07,16.4,16.4,0,0,1-.95,5.88,8.87,8.87,0,0,1-2.76,3.88,10.13,10.13,0,0,1-4.55,1.93,11.67,11.67,0,0,1,5.56,2.34,10.68,10.68,0,0,1,3.29,4.66,19.69,19.69,0,0,1,1.09,6.93,23,23,0,0,1-1,7.17,13.18,13.18,0,0,1-3,5.18,12.62,12.62,0,0,1-5,3.12,20.88,20.88,0,0,1-7,1Zm10.36-33.53h3.5a10.24,10.24,0,0,0,4.76-.91,4.9,4.9,0,0,0,2.34-2.8,14.61,14.61,0,0,0,.67-4.76,8.88,8.88,0,0,0-1-4.66,5.16,5.16,0,0,0-3-2.24,19.13,19.13,0,0,0-5.18-.59h-2Zm0,26.25h3.92c3.12,0,5.25-.76,6.37-2.28s1.68-3.86,1.68-7a16,16,0,0,0-.81-5.57,5.92,5.92,0,0,0-2.66-3.18,10,10,0,0,0-4.93-1.05h-3.57Z"/><path class="cls-2" d="M280.47,583.43v-56.7h13.58a30,30,0,0,1,9.7,1.36,11.12,11.12,0,0,1,6,4.66c1.38,2.19,2.06,5.18,2.06,9a27.56,27.56,0,0,1-.62,6.16,11.73,11.73,0,0,1-2.14,4.65,9.56,9.56,0,0,1-4.16,3l7.9,27.93H302.46l-6.87-26h-4.76v26ZM290.83,551h3.22a10.91,10.91,0,0,0,4.8-.88,5.11,5.11,0,0,0,2.56-2.8,13.51,13.51,0,0,0,.76-4.93c0-2.85-.52-5-1.57-6.41s-3.05-2.13-6-2.13h-3.79Z"/><path class="cls-2" d="M316.87,583.43l11.34-56.7h11.06l11.34,56.7H341l-2.24-13.09h-9.87l-2.31,13.09ZM330,563.76h7.7L333.81,540Z"/><path class="cls-2" d="M356.28,583.43v-56.7h7.21l13.79,32.34V526.73h8.54v56.7H379L365.1,549.55v33.88Z"/><path class="cls-2" d="M394.43,583.43v-56.7H407.8q6.93,0,10.82,1.89a11,11,0,0,1,5.53,5.81,26,26,0,0,1,1.64,9.94v20.72a27.83,27.83,0,0,1-1.64,10.25,11.49,11.49,0,0,1-5.46,6.09c-2.55,1.33-6,2-10.47,2Zm10.36-7.21h3.15c2.38,0,4.09-.42,5.11-1.26a5.55,5.55,0,0,0,1.89-3.68,41.13,41.13,0,0,0,.35-5.91v-21.7a25,25,0,0,0-.49-5.53,4.69,4.69,0,0,0-2-3.08,9.49,9.49,0,0,0-5-1h-3Z"/><path class="cls-2" d="M433.7,583.43v-56.7h10.22v56.7Z"/><path class="cls-2" d="M452.67,583.43v-56.7h7.21l13.79,32.34V526.73h8.54v56.7h-6.86l-13.86-33.88v33.88Z"/><path class="cls-2" d="M505,584.2c-3.73,0-6.7-.8-8.89-2.38a13.06,13.06,0,0,1-4.72-6.76A33.09,33.09,0,0,1,490,564.74v-19a35,35,0,0,1,1.4-10.5,12.27,12.27,0,0,1,4.94-6.76q3.53-2.34,9.76-2.34,5.81,0,9.24,2a11.19,11.19,0,0,1,4.94,5.63,23.66,23.66,0,0,1,1.5,8.93v2.94h-9.87v-3.22a25.24,25.24,0,0,0-.38-4.69,5.17,5.17,0,0,0-1.54-3,5.66,5.66,0,0,0-3.75-1,5.12,5.12,0,0,0-4,1.33,6.32,6.32,0,0,0-1.54,3.5,33.11,33.11,0,0,0-.32,4.76V567a23.25,23.25,0,0,0,.49,5.11,6,6,0,0,0,1.82,3.32,5.6,5.6,0,0,0,3.78,1.16,5.4,5.4,0,0,0,3.85-1.26,6.82,6.82,0,0,0,1.86-3.5,23.65,23.65,0,0,0,.52-5.32v-5.32h-6.09v-6.51H522v28.77h-6.65l-.77-5.6a10.91,10.91,0,0,1-3.39,4.58A9.81,9.81,0,0,1,505,584.2Z"/><path class="cls-6" d="M160.92,668.48V642.33h2.77v26.15Zm1.78,0V666H171a5.55,5.55,0,0,0,4.07-1.45,4.81,4.81,0,0,0,1.48-3.61,5.07,5.07,0,0,0-.64-2.54A4.67,4.67,0,0,0,174,656.6a5.75,5.75,0,0,0-2.83-.66H162.7V653.5h8.09a4.79,4.79,0,0,0,3.37-1.14,4.18,4.18,0,0,0,1.23-3.23,4,4,0,0,0-1.33-3.23,5.28,5.28,0,0,0-3.57-1.14H162.7v-2.43h7.87a8.92,8.92,0,0,1,4.14.88,6.09,6.09,0,0,1,2.58,2.35,6.42,6.42,0,0,1,.88,3.35,6.27,6.27,0,0,1-1.14,3.78,7.12,7.12,0,0,1-3.35,2.41l.27-.91a7.8,7.8,0,0,1,4,2.62,6.83,6.83,0,0,1,1.42,4.33,6.82,6.82,0,0,1-3.93,6.37,10.23,10.23,0,0,1-4.62,1Z"/><path class="cls-6" d="M184,668.48V650.62h2.66v17.86Zm2.66-10.42-1.1-.49a8.12,8.12,0,0,1,1.65-5.36,5.62,5.62,0,0,1,4.54-2,5.74,5.74,0,0,1,4.48,2l-1.74,1.86a3.72,3.72,0,0,0-1.43-1,4.9,4.9,0,0,0-1.77-.31,4.42,4.42,0,0,0-3.34,1.35A5.55,5.55,0,0,0,186.68,658.06Z"/><path class="cls-6" d="M206.21,668.86a8.48,8.48,0,0,1-4.56-1.24,8.87,8.87,0,0,1-3.17-3.32,9.52,9.52,0,0,1-1.16-4.72,9.62,9.62,0,0,1,1.16-4.76,8.81,8.81,0,0,1,3.17-3.35,8.49,8.49,0,0,1,4.52-1.23,8.08,8.08,0,0,1,3.67.81,7,7,0,0,1,2.62,2.28,7.56,7.56,0,0,1,1.24,3.4v5.59a7.69,7.69,0,0,1-1.24,3.42,6.85,6.85,0,0,1-2.62,2.3A8,8,0,0,1,206.21,668.86Zm.42-2.55a5.72,5.72,0,0,0,4.46-1.86,7,7,0,0,0,1.69-4.9A7.9,7.9,0,0,0,212,656a5.91,5.91,0,0,0-2.17-2.39,6.09,6.09,0,0,0-3.25-.86,6.43,6.43,0,0,0-3.36.88,6.32,6.32,0,0,0-2.32,2.41,7.14,7.14,0,0,0-.86,3.52,7,7,0,0,0,.86,3.49,6.35,6.35,0,0,0,2.34,2.4A6.52,6.52,0,0,0,206.63,666.31Zm6,2.17v-4.79l.53-4.41-.53-4.29v-4.37h2.66v17.86Z"/><path class="cls-6" d="M220.69,668.48V650.62h2.66v17.86Zm13,0V658a5.35,5.35,0,0,0-1.38-3.82,4.81,4.81,0,0,0-3.67-1.46,5.33,5.33,0,0,0-2.74.68,5.18,5.18,0,0,0-1.86,1.86,5.36,5.36,0,0,0-.68,2.7l-1.22-.68a6.92,6.92,0,0,1,1-3.61,6.81,6.81,0,0,1,2.57-2.51,7.35,7.35,0,0,1,3.7-.91,6.85,6.85,0,0,1,3.65,1,7,7,0,0,1,2.49,2.66,7.73,7.73,0,0,1,.89,3.65v11Z"/><path class="cls-6" d="M249,668.86a8.33,8.33,0,0,1-4.45-1.22,8.85,8.85,0,0,1-3.13-3.32,10.31,10.31,0,0,1,0-9.5,8.94,8.94,0,0,1,3.13-3.35,8.74,8.74,0,0,1,8.1-.44,7.35,7.35,0,0,1,2.71,2.27,6.69,6.69,0,0,1,1.28,3.43v5.59a7.13,7.13,0,0,1-1.28,3.4,7.33,7.33,0,0,1-2.67,2.3A8,8,0,0,1,249,668.86Zm.46-2.55a6,6,0,0,0,3.26-.86,5.81,5.81,0,0,0,2.21-2.39,7.56,7.56,0,0,0,.8-3.51,7.43,7.43,0,0,0-.82-3.54,6.32,6.32,0,0,0-2.22-2.39,6.11,6.11,0,0,0-3.27-.88,6.3,6.3,0,0,0-3.31.88,6.1,6.1,0,0,0-2.26,2.41,7.94,7.94,0,0,0,0,7,5.84,5.84,0,0,0,2.28,2.39A6.38,6.38,0,0,0,249.42,666.31Zm8.77,2.17h-2.66v-4.79l.54-4.41-.54-4.29V641.57h2.66Z"/><path class="cls-6" d="M264.92,646.74a1.7,1.7,0,0,1-1.29-.55,1.81,1.81,0,0,1-.54-1.31,1.79,1.79,0,0,1,.54-1.33,1.72,1.72,0,0,1,1.29-.53,1.76,1.76,0,0,1,1.35.53,1.84,1.84,0,0,1,.51,1.33,1.86,1.86,0,0,1-.51,1.31A1.74,1.74,0,0,1,264.92,646.74Zm-1.33,21.74V650.62h2.7v17.86Z"/><path class="cls-6" d="M271.68,668.48V650.62h2.66v17.86Zm13,0V658a5.31,5.31,0,0,0-1.39-3.82,4.79,4.79,0,0,0-3.66-1.46,5.31,5.31,0,0,0-2.74.68,5,5,0,0,0-1.86,1.86,5.27,5.27,0,0,0-.69,2.7l-1.21-.68a6.88,6.88,0,0,1,3.51-6.12,7.39,7.39,0,0,1,3.71-.91,6.76,6.76,0,0,1,6.13,3.64,7.62,7.62,0,0,1,.9,3.65v11Z"/><path class="cls-6" d="M299.92,668.29a8.58,8.58,0,0,1-4.45-1.18,8.49,8.49,0,0,1-3.12-3.23,10,10,0,0,1,0-9.25,8.39,8.39,0,0,1,3.09-3.22,9.14,9.14,0,0,1,8.19-.38,6.76,6.76,0,0,1,2.66,2.27,7.55,7.55,0,0,1,1.24,3.43v5.06a7.36,7.36,0,0,1-1.26,3.4,7.09,7.09,0,0,1-2.66,2.28A8.19,8.19,0,0,1,299.92,668.29Zm-.19,8.09a11.07,11.07,0,0,1-4.81-1,8.57,8.57,0,0,1-3.4-2.83l1.75-1.75A7.33,7.33,0,0,0,296,673a8.69,8.69,0,0,0,3.84.79,7,7,0,0,0,4.85-1.63,5.71,5.71,0,0,0,1.8-4.45v-4.44l.53-4.07-.53-4v-4.59h2.66v17.13a8.52,8.52,0,0,1-1.18,4.53,8.12,8.12,0,0,1-3.28,3A10.68,10.68,0,0,1,299.73,676.38Zm.68-10.64a6.44,6.44,0,0,0,3.25-.8,5.56,5.56,0,0,0,2.17-2.26,7.31,7.31,0,0,0,.77-3.44,7.11,7.11,0,0,0-.77-3.38,5.85,5.85,0,0,0-2.19-2.28,6.27,6.27,0,0,0-3.27-.84,6.53,6.53,0,0,0-3.32.84,6,6,0,0,0-2.28,2.28,7.3,7.3,0,0,0,0,6.76,5.8,5.8,0,0,0,2.28,2.3A6.59,6.59,0,0,0,300.41,665.74Z"/><path class="cls-6" d="M324,646.74a1.7,1.7,0,0,1-1.29-.55,1.91,1.91,0,0,1,0-2.64A1.72,1.72,0,0,1,324,643a1.76,1.76,0,0,1,1.35.53,1.84,1.84,0,0,1,.51,1.33,1.86,1.86,0,0,1-.51,1.31A1.74,1.74,0,0,1,324,646.74Zm-1.33,21.74V650.62h2.7v17.86Z"/><path class="cls-6" d="M336.21,668.86a9.83,9.83,0,0,1-2.78-.4,9,9,0,0,1-2.41-1.12,8.54,8.54,0,0,1-1.88-1.71l1.71-1.75a6.92,6.92,0,0,0,2.41,1.92,7.06,7.06,0,0,0,3,.62,4.88,4.88,0,0,0,2.79-.68,2.16,2.16,0,0,0,1-1.9,2.3,2.3,0,0,0-.72-1.79,5.24,5.24,0,0,0-1.84-1c-.75-.25-1.54-.5-2.38-.74a15.93,15.93,0,0,1-2.39-.91,4.8,4.8,0,0,1-1.85-1.54,4.43,4.43,0,0,1-.7-2.59,4.72,4.72,0,0,1,.74-2.64,5,5,0,0,1,2.13-1.75,8.08,8.08,0,0,1,3.29-.62A9,9,0,0,1,340,651a6.23,6.23,0,0,1,2.62,2.13l-1.71,1.71a5.25,5.25,0,0,0-2-1.58,6.3,6.3,0,0,0-2.68-.55,4.34,4.34,0,0,0-2.6.66,2.06,2.06,0,0,0-.89,1.73,2,2,0,0,0,.72,1.62,5.59,5.59,0,0,0,1.84,1c.75.24,1.54.48,2.38.72a13.37,13.37,0,0,1,2.39.95,4.85,4.85,0,0,1,1.84,1.6,4.63,4.63,0,0,1,.71,2.71,4.7,4.7,0,0,1-1.73,3.82A7.16,7.16,0,0,1,336.21,668.86Z"/><path class="cls-6" d="M346.85,668.48V650.62h2.65v17.86Zm13,0V658a5.31,5.31,0,0,0-1.39-3.82,4.78,4.78,0,0,0-3.66-1.46,5.33,5.33,0,0,0-2.74.68,5.18,5.18,0,0,0-1.86,1.86,5.27,5.27,0,0,0-.69,2.7l-1.21-.68a6.92,6.92,0,0,1,.95-3.61,6.85,6.85,0,0,1,2.56-2.51,7.42,7.42,0,0,1,3.71-.91,6.88,6.88,0,0,1,3.65,1,7,7,0,0,1,2.49,2.66,7.73,7.73,0,0,1,.89,3.65v11Z"/><path class="cls-6" d="M366.83,650l-.68-8.44h3l-.68,8.44Z"/><path class="cls-6" d="M373.22,653v-2.39h11.66V653Zm4.52,15.47V643.09h2.66v25.39Z"/><path class="cls-6" d="M393.93,676.38a6.41,6.41,0,0,1-2.7-.53,6.29,6.29,0,0,1-2-1.52l1.75-1.75a3.5,3.5,0,0,0,1.28,1,4,4,0,0,0,1.57.3,3.33,3.33,0,0,0,2.21-.76,2.92,2.92,0,0,0,.91-2.39v-20.1h2.66v20.06a5.92,5.92,0,0,1-.78,3.14,5.07,5.07,0,0,1-2.07,1.91A6.21,6.21,0,0,1,393.93,676.38Zm4.33-29.64a1.7,1.7,0,0,1-1.29-.55,1.91,1.91,0,0,1,0-2.64,1.72,1.72,0,0,1,1.29-.53,1.76,1.76,0,0,1,1.35.53,1.84,1.84,0,0,1,.51,1.33,1.86,1.86,0,0,1-.51,1.31A1.74,1.74,0,0,1,398.26,646.74Z"/><path class="cls-6" d="M412.05,668.86a7.5,7.5,0,0,1-3.87-1,7.11,7.11,0,0,1-2.68-2.76,8.26,8.26,0,0,1-1-4.1V650.62h2.7v10.26a6.37,6.37,0,0,0,.59,2.85,4.45,4.45,0,0,0,1.69,1.9,4.75,4.75,0,0,0,2.54.68,4.51,4.51,0,0,0,3.56-1.48,5.78,5.78,0,0,0,1.31-4V650.62h2.66V661a8.61,8.61,0,0,1-.95,4.1,6.92,6.92,0,0,1-2.66,2.78A7.69,7.69,0,0,1,412.05,668.86Z"/><path class="cls-6" d="M430,668.86a9.83,9.83,0,0,1-2.78-.4,9.18,9.18,0,0,1-2.41-1.12,8.54,8.54,0,0,1-1.88-1.71l1.71-1.75a6.92,6.92,0,0,0,2.41,1.92,7.06,7.06,0,0,0,3,.62,4.94,4.94,0,0,0,2.8-.68,2.17,2.17,0,0,0,1-1.9,2.3,2.3,0,0,0-.72-1.79,5.24,5.24,0,0,0-1.84-1c-.75-.25-1.54-.5-2.38-.74a15.93,15.93,0,0,1-2.39-.91,4.7,4.7,0,0,1-1.84-1.54,4.36,4.36,0,0,1-.71-2.59,4.72,4.72,0,0,1,.74-2.64,5,5,0,0,1,2.13-1.75,8.08,8.08,0,0,1,3.29-.62,9,9,0,0,1,3.65.72,6.17,6.17,0,0,1,2.62,2.13l-1.71,1.71a5.25,5.25,0,0,0-2-1.58,6.27,6.27,0,0,0-2.68-.55,4.34,4.34,0,0,0-2.6.66,2.08,2.08,0,0,0-.89,1.73,2,2,0,0,0,.72,1.62,5.69,5.69,0,0,0,1.84,1c.75.24,1.54.48,2.38.72a13.37,13.37,0,0,1,2.39.95,5,5,0,0,1,1.85,1.6,5.27,5.27,0,0,1-1,6.53A7.16,7.16,0,0,1,430,668.86Z"/><path class="cls-6" d="M438.92,653v-2.39h11.66V653Zm4.52,15.47V643.09h2.66v25.39Z"/><path class="cls-6" d="M462.4,668.48V650.62h2.66v17.86Zm12.28,0v-11a4.72,4.72,0,0,0-1.33-3.51,4.57,4.57,0,0,0-3.35-1.31,5.2,5.2,0,0,0-2.49.59,4.56,4.56,0,0,0-1.78,1.65,4.65,4.65,0,0,0-.67,2.54l-1.21-.49a6.77,6.77,0,0,1,.91-3.57,6.38,6.38,0,0,1,2.45-2.36,7.25,7.25,0,0,1,3.48-.83,7,7,0,0,1,3.4.83,6.3,6.3,0,0,1,2.39,2.36,7,7,0,0,1,.89,3.61v11.44Zm12.31,0v-11a4.72,4.72,0,0,0-1.33-3.51,4.61,4.61,0,0,0-3.38-1.31,5.07,5.07,0,0,0-2.45.59A4.52,4.52,0,0,0,478,655a4.74,4.74,0,0,0-.67,2.54l-1.59-.49a7.25,7.25,0,0,1,1.08-3.57,6.8,6.8,0,0,1,2.55-2.36,7.38,7.38,0,0,1,3.47-.83,7.14,7.14,0,0,1,3.44.83,6.2,6.2,0,0,1,2.43,2.36,7,7,0,0,1,.9,3.61v11.44Z"/><path class="cls-6" d="M502.76,668.86a9,9,0,0,1-4.69-1.26,9.2,9.2,0,0,1-3.35-3.38,9.32,9.32,0,0,1-1.23-4.75,9,9,0,0,1,1.23-4.67,9.3,9.3,0,0,1,16.07,0,9,9,0,0,1,1.24,4.69,9.3,9.3,0,0,1-4.56,8.13A8.93,8.93,0,0,1,502.76,668.86Zm0-2.59a6.45,6.45,0,0,0,3.36-.87,6.24,6.24,0,0,0,2.32-2.43,7.17,7.17,0,0,0,.85-3.5,6.83,6.83,0,0,0-.85-3.44,6.37,6.37,0,0,0-5.68-3.25,6.42,6.42,0,0,0-3.35.88A6.19,6.19,0,0,0,497.1,656a6.93,6.93,0,0,0-.84,3.44,7.24,7.24,0,0,0,.84,3.52,6.16,6.16,0,0,0,2.31,2.41A6.51,6.51,0,0,0,502.76,666.27Z"/><path class="cls-6" d="M514.5,653v-2.39h22.19V653ZM519,668.48V643.09h2.7v25.39Zm10.49,0V643.09h2.7v25.39Z"/><path class="cls-6" d="M547.79,668.86a9,9,0,0,1-4.7-1.26,9.29,9.29,0,0,1-4.57-8.13,9,9,0,0,1,1.23-4.67,9.49,9.49,0,0,1,12.75-3.35,9.2,9.2,0,0,1,4.56,8,9.3,9.3,0,0,1-4.56,8.13A8.93,8.93,0,0,1,547.79,668.86Zm0-2.59a6.47,6.47,0,0,0,3.36-.87,6.24,6.24,0,0,0,2.32-2.43,7.17,7.17,0,0,0,.85-3.5,6.83,6.83,0,0,0-.85-3.44,6.37,6.37,0,0,0-5.68-3.25,6.42,6.42,0,0,0-3.35.88,6.19,6.19,0,0,0-2.31,2.37,6.93,6.93,0,0,0-.84,3.44,7.24,7.24,0,0,0,.84,3.52,6.16,6.16,0,0,0,2.31,2.41A6.51,6.51,0,0,0,547.79,666.27Z"/><path class="cls-6" d="M566.75,668.86a9.89,9.89,0,0,1-2.78-.4,9.18,9.18,0,0,1-2.41-1.12,8.54,8.54,0,0,1-1.88-1.71l1.71-1.75a6.92,6.92,0,0,0,2.41,1.92,7.08,7.08,0,0,0,3,.62,4.88,4.88,0,0,0,2.79-.68,2.18,2.18,0,0,0,1-1.9,2.31,2.31,0,0,0-.73-1.79,5.16,5.16,0,0,0-1.84-1c-.75-.25-1.54-.5-2.38-.74a15.93,15.93,0,0,1-2.39-.91,4.77,4.77,0,0,1-1.84-1.54,4.36,4.36,0,0,1-.7-2.59,4.64,4.64,0,0,1,.74-2.64,4.86,4.86,0,0,1,2.12-1.75,8.08,8.08,0,0,1,3.29-.62,9,9,0,0,1,3.65.72,6.17,6.17,0,0,1,2.62,2.13l-1.71,1.71a5.3,5.3,0,0,0-2-1.58,6.33,6.33,0,0,0-2.68-.55,4.37,4.37,0,0,0-2.61.66,2.08,2.08,0,0,0-.89,1.73,2,2,0,0,0,.72,1.62,5.64,5.64,0,0,0,1.85,1q1.11.36,2.37.72a13.18,13.18,0,0,1,2.4.95,5,5,0,0,1,1.84,1.6,4.63,4.63,0,0,1,.7,2.71,4.7,4.7,0,0,1-1.73,3.82A7.16,7.16,0,0,1,566.75,668.86Z"/><path class="cls-6" d="M593.31,668.86a8.48,8.48,0,0,1-4.56-1.24,8.87,8.87,0,0,1-3.17-3.32,9.52,9.52,0,0,1-1.16-4.72,9.62,9.62,0,0,1,1.16-4.76,8.81,8.81,0,0,1,3.17-3.35,8.49,8.49,0,0,1,4.52-1.23,8.08,8.08,0,0,1,3.67.81,7,7,0,0,1,2.62,2.28,7.56,7.56,0,0,1,1.24,3.4v5.59a7.69,7.69,0,0,1-1.24,3.42,6.85,6.85,0,0,1-2.62,2.3A8,8,0,0,1,593.31,668.86Zm.42-2.55a5.72,5.72,0,0,0,4.46-1.86,7,7,0,0,0,1.69-4.9,7.77,7.77,0,0,0-.77-3.56,5.91,5.91,0,0,0-2.17-2.39,6.09,6.09,0,0,0-3.25-.86,6.43,6.43,0,0,0-3.36.88A6.32,6.32,0,0,0,588,656a7.14,7.14,0,0,0-.86,3.52A7,7,0,0,0,588,663a6.35,6.35,0,0,0,2.34,2.4A6.52,6.52,0,0,0,593.73,666.31Zm6,2.17v-4.79l.53-4.41-.53-4.29v-4.37h2.66v17.86Z"/><path class="cls-6" d="M607.79,668.48V650.62h2.66v17.86Zm13,0V658a5.35,5.35,0,0,0-1.38-3.82,4.81,4.81,0,0,0-3.67-1.46,5.33,5.33,0,0,0-2.74.68,5.18,5.18,0,0,0-1.86,1.86,5.36,5.36,0,0,0-.68,2.7l-1.22-.68a6.87,6.87,0,0,1,3.52-6.12,7.35,7.35,0,0,1,3.7-.91,6.85,6.85,0,0,1,3.65,1,7,7,0,0,1,2.49,2.66,7.73,7.73,0,0,1,.89,3.65v11Z"/><path class="cls-6" d="M636.06,668.86a8.33,8.33,0,0,1-4.45-1.22,8.85,8.85,0,0,1-3.13-3.32,10.31,10.31,0,0,1,0-9.5,8.94,8.94,0,0,1,3.13-3.35,8.74,8.74,0,0,1,8.1-.44,7.35,7.35,0,0,1,2.71,2.27,6.69,6.69,0,0,1,1.28,3.43v5.59a7.13,7.13,0,0,1-1.28,3.4,7.33,7.33,0,0,1-2.67,2.3A8,8,0,0,1,636.06,668.86Zm.46-2.55a6,6,0,0,0,3.26-.86,5.81,5.81,0,0,0,2.21-2.39,7.56,7.56,0,0,0,.8-3.51A7.43,7.43,0,0,0,642,656a6.32,6.32,0,0,0-2.22-2.39,6.11,6.11,0,0,0-3.27-.88,6.3,6.3,0,0,0-3.31.88,6.18,6.18,0,0,0-2.26,2.41,7.94,7.94,0,0,0,0,7,5.91,5.91,0,0,0,2.28,2.39A6.38,6.38,0,0,0,636.52,666.31Zm8.77,2.17h-2.66v-4.79l.54-4.41-.54-4.29V641.57h2.66Z"/><path class="cls-6" d="M113.28,714.08V687.17h2.66v26.91Z"/><path class="cls-6" d="M129.43,714.46a9,9,0,0,1-4.69-1.26,9.27,9.27,0,0,1-4.58-8.13,9,9,0,0,1,1.23-4.67,9.3,9.3,0,0,1,3.35-3.33,9.22,9.22,0,0,1,14,8,9.24,9.24,0,0,1-4.56,8.13A8.93,8.93,0,0,1,129.43,714.46Zm0-2.59a6.42,6.42,0,0,0,3.36-.87,6.24,6.24,0,0,0,2.32-2.43,7.17,7.17,0,0,0,.86-3.5,6.83,6.83,0,0,0-.86-3.44,6.65,6.65,0,0,0-9-2.37,6.21,6.21,0,0,0-2.32,2.37,6.93,6.93,0,0,0-.84,3.44,7.24,7.24,0,0,0,.84,3.52,6.18,6.18,0,0,0,2.32,2.41A6.47,6.47,0,0,0,129.43,711.87Z"/><path class="cls-6" d="M150.48,713.89a8.47,8.47,0,0,1-7.56-4.41,10,10,0,0,1,0-9.25A8.32,8.32,0,0,1,146,697a9.1,9.1,0,0,1,8.19-.39,6.76,6.76,0,0,1,2.66,2.27,7.43,7.43,0,0,1,1.23,3.43v5.06a7.31,7.31,0,0,1-1.25,3.4,7,7,0,0,1-2.66,2.28A8.2,8.2,0,0,1,150.48,713.89Zm-.19,8.09a10.85,10.85,0,0,1-4.8-1,8.67,8.67,0,0,1-3.41-2.83l1.75-1.74a7.26,7.26,0,0,0,2.7,2.24,8.69,8.69,0,0,0,3.84.8,6.92,6.92,0,0,0,4.84-1.64,5.67,5.67,0,0,0,1.81-4.44v-4.45l.53-4.07-.53-4v-4.6h2.66v17.14a8.51,8.51,0,0,1-1.18,4.52,8,8,0,0,1-3.29,3A10.62,10.62,0,0,1,150.29,722Zm.69-10.64a6.44,6.44,0,0,0,3.25-.8,5.54,5.54,0,0,0,2.16-2.26,7.19,7.19,0,0,0,.78-3.44,7,7,0,0,0-.78-3.38,5.9,5.9,0,0,0-2.18-2.28,6.27,6.27,0,0,0-3.27-.84,6.59,6.59,0,0,0-3.33.84,6.09,6.09,0,0,0-2.28,2.28,7.4,7.4,0,0,0,0,6.77,6,6,0,0,0,2.28,2.29A6.65,6.65,0,0,0,151,711.34Z"/><path class="cls-6" d="M173.13,714.46a9,9,0,0,1-4.69-1.26,9.27,9.27,0,0,1-4.58-8.13,9,9,0,0,1,1.23-4.67,9.3,9.3,0,0,1,3.35-3.33,9.22,9.22,0,0,1,14,8,9.24,9.24,0,0,1-4.56,8.13A8.93,8.93,0,0,1,173.13,714.46Zm0-2.59a6.42,6.42,0,0,0,3.36-.87,6.24,6.24,0,0,0,2.32-2.43,7.17,7.17,0,0,0,.86-3.5,6.83,6.83,0,0,0-.86-3.44,6.65,6.65,0,0,0-9-2.37,6.14,6.14,0,0,0-2.32,2.37,6.93,6.93,0,0,0-.84,3.44,7.24,7.24,0,0,0,.84,3.52,6.11,6.11,0,0,0,2.32,2.41A6.45,6.45,0,0,0,173.13,711.87Z"/><path class="cls-6" d="M192.09,714.46a9.76,9.76,0,0,1-2.77-.4,9.24,9.24,0,0,1-2.42-1.12,8.51,8.51,0,0,1-1.88-1.71l1.71-1.75a7,7,0,0,0,2.42,1.92,7,7,0,0,0,3,.63,4.88,4.88,0,0,0,2.79-.69,2.18,2.18,0,0,0,1-1.9,2.3,2.3,0,0,0-.72-1.79,5.29,5.29,0,0,0-1.85-1c-.74-.25-1.54-.5-2.37-.74a15.65,15.65,0,0,1-2.4-.91,4.77,4.77,0,0,1-1.84-1.54,4.36,4.36,0,0,1-.7-2.59,4.64,4.64,0,0,1,.74-2.64,4.84,4.84,0,0,1,2.13-1.75,8,8,0,0,1,3.28-.62,8.94,8.94,0,0,1,3.65.72,6.17,6.17,0,0,1,2.62,2.13l-1.71,1.71a5.22,5.22,0,0,0-2-1.58,6.3,6.3,0,0,0-2.68-.55,4.32,4.32,0,0,0-2.6.66,2.07,2.07,0,0,0-.9,1.73,2,2,0,0,0,.73,1.62,5.59,5.59,0,0,0,1.84,1q1.13.36,2.37.72a13.18,13.18,0,0,1,2.4.95,4.92,4.92,0,0,1,1.84,1.6,5.27,5.27,0,0,1-1,6.53A7.14,7.14,0,0,1,192.09,714.46Z"/><path class="cls-6" d="M202.92,718l2.17-4.22,1-.23a2,2,0,0,1-.42.59,1,1,0,0,1-.69.25,1.84,1.84,0,0,1-1.31-.59,2,2,0,0,1-.59-1.46,2.27,2.27,0,0,1,2.25-2.24,2.08,2.08,0,0,1,1.52.66,2.2,2.2,0,0,1,.64,1.58,3.53,3.53,0,0,1-.13.89,7.49,7.49,0,0,1-.55,1.35l-2.24,4.29Zm2.24-15.5a2,2,0,0,1-1.52-.65,2.16,2.16,0,0,1-.6-1.52,2.14,2.14,0,0,1,.6-1.56,2.15,2.15,0,0,1,3.69,1.56,2.13,2.13,0,0,1-.61,1.52A2,2,0,0,1,205.16,702.49Z"/><path class="cls-6" d="M222.45,692.34a1.73,1.73,0,0,1-1.29-.55,1.84,1.84,0,0,1-.53-1.31,1.82,1.82,0,0,1,.53-1.33,1.91,1.91,0,0,1,2.64,0,1.85,1.85,0,0,1,.52,1.33,1.87,1.87,0,0,1-.52,1.31A1.74,1.74,0,0,1,222.45,692.34Zm-1.33,21.74V696.22h2.7v17.86Z"/><path class="cls-6" d="M227.47,698.61v-2.39h11.67v2.39ZM232,714.08V688.69h2.66v25.39Z"/><path class="cls-6" d="M243.66,695.61l-.69-8.44h3l-.68,8.44Z"/><path class="cls-6" d="M255.29,714.46a9.83,9.83,0,0,1-2.78-.4,9,9,0,0,1-2.41-1.12,8.3,8.3,0,0,1-1.88-1.71l1.71-1.75a6.92,6.92,0,0,0,2.41,1.92,7.07,7.07,0,0,0,3,.63,4.88,4.88,0,0,0,2.79-.69,2.16,2.16,0,0,0,1-1.9,2.3,2.3,0,0,0-.72-1.79,5.24,5.24,0,0,0-1.84-1c-.75-.25-1.54-.5-2.38-.74a15.93,15.93,0,0,1-2.39-.91,4.8,4.8,0,0,1-1.85-1.54,4.43,4.43,0,0,1-.7-2.59,4.72,4.72,0,0,1,.74-2.64,5,5,0,0,1,2.13-1.75,8,8,0,0,1,3.29-.62,8.89,8.89,0,0,1,3.64.72,6.2,6.2,0,0,1,2.63,2.13L260,700.4a5.33,5.33,0,0,0-2-1.58,6.3,6.3,0,0,0-2.68-.55,4.32,4.32,0,0,0-2.6.66,2.06,2.06,0,0,0-.89,1.73,2,2,0,0,0,.72,1.62,5.59,5.59,0,0,0,1.84,1c.75.24,1.54.48,2.38.72a13.37,13.37,0,0,1,2.39.95,4.85,4.85,0,0,1,1.84,1.6,4.63,4.63,0,0,1,.71,2.71A4.7,4.7,0,0,1,260,713,7.16,7.16,0,0,1,255.29,714.46Z"/><path class="cls-6" d="M272.35,698.61v-2.39H284v2.39Zm4.52,15.47V688.69h2.66v25.39Z"/><path class="cls-6" d="M287.66,714.08V687.17h2.66v26.91Zm13,0V703.59a5.36,5.36,0,0,0-1.39-3.82,4.81,4.81,0,0,0-3.67-1.46,5.27,5.27,0,0,0-2.73.68,5.13,5.13,0,0,0-1.87,1.86,5.36,5.36,0,0,0-.68,2.7l-1.22-.68a6.87,6.87,0,0,1,3.52-6.12,7.38,7.38,0,0,1,3.7-.91,7.1,7.1,0,0,1,3.65.93,6.45,6.45,0,0,1,2.49,2.56,7.76,7.76,0,0,1,.89,3.8v11Z"/><path class="cls-6" d="M316.58,714.46a9.58,9.58,0,0,1-4.83-1.22,8.9,8.9,0,0,1-3.36-3.34,9.42,9.42,0,0,1-1.24-4.79,9.28,9.28,0,0,1,1.22-4.73,8.89,8.89,0,0,1,3.31-3.33,9.11,9.11,0,0,1,4.67-1.21,8.3,8.3,0,0,1,4.31,1.1,7.81,7.81,0,0,1,3,3.06,9.13,9.13,0,0,1,1.08,4.5,6.16,6.16,0,0,1,0,.7,6.34,6.34,0,0,1-.15.93H309.05v-2.27h14l-.95.83a7.33,7.33,0,0,0-.67-3.4,5.17,5.17,0,0,0-2-2.2,6.12,6.12,0,0,0-3.18-.78,6.72,6.72,0,0,0-3.38.83,6,6,0,0,0-2.26,2.34,8,8,0,0,0,0,7.16,6.14,6.14,0,0,0,2.39,2.43,7,7,0,0,0,3.56.88,7.54,7.54,0,0,0,3-.59,6,6,0,0,0,2.32-1.77l1.71,1.75a8.48,8.48,0,0,1-3.1,2.3A9.76,9.76,0,0,1,316.58,714.46Z"/><path class="cls-6" d="M344.55,714.46a8.33,8.33,0,0,1-4.45-1.22,8.87,8.87,0,0,1-3.14-3.32,10.38,10.38,0,0,1,0-9.5,9,9,0,0,1,3.14-3.35,8.72,8.72,0,0,1,8.09-.44,7.39,7.39,0,0,1,2.72,2.27,6.68,6.68,0,0,1,1.27,3.43v5.59a7.12,7.12,0,0,1-1.27,3.4,7.37,7.37,0,0,1-2.68,2.3A7.94,7.94,0,0,1,344.55,714.46Zm.45-2.55a6.18,6.18,0,0,0,3.27-.85,5.88,5.88,0,0,0,2.2-2.4,8.12,8.12,0,0,0,0-7,6.26,6.26,0,0,0-2.23-2.39,6.08,6.08,0,0,0-3.27-.88,6.26,6.26,0,0,0-3.3.88,6,6,0,0,0-2.26,2.41,7.94,7.94,0,0,0,0,7,5.86,5.86,0,0,0,2.28,2.4A6.43,6.43,0,0,0,345,711.91Zm8.78,2.17h-2.66v-4.79l.53-4.41-.53-4.29V687.17h2.66Z"/><path class="cls-6" d="M360.5,692.34a1.73,1.73,0,0,1-1.29-.55,1.84,1.84,0,0,1-.53-1.31,1.82,1.82,0,0,1,.53-1.33,1.91,1.91,0,0,1,2.64,0,1.81,1.81,0,0,1,.52,1.33,1.83,1.83,0,0,1-.52,1.31A1.74,1.74,0,0,1,360.5,692.34Zm-1.32,21.74V696.22h2.69v17.86Z"/><path class="cls-6" d="M372.74,714.46a9.76,9.76,0,0,1-2.77-.4,9.24,9.24,0,0,1-2.42-1.12,8.51,8.51,0,0,1-1.88-1.71l1.71-1.75a7,7,0,0,0,2.42,1.92,7,7,0,0,0,3,.63,4.88,4.88,0,0,0,2.79-.69,2.18,2.18,0,0,0,1-1.9,2.3,2.3,0,0,0-.72-1.79,5.29,5.29,0,0,0-1.85-1c-.75-.25-1.54-.5-2.37-.74a15.65,15.65,0,0,1-2.4-.91,4.77,4.77,0,0,1-1.84-1.54,4.36,4.36,0,0,1-.7-2.59,4.64,4.64,0,0,1,.74-2.64,4.84,4.84,0,0,1,2.13-1.75,8,8,0,0,1,3.28-.62,8.94,8.94,0,0,1,3.65.72,6.17,6.17,0,0,1,2.62,2.13l-1.71,1.71a5.22,5.22,0,0,0-2-1.58,6.3,6.3,0,0,0-2.68-.55,4.32,4.32,0,0,0-2.6.66,2.07,2.07,0,0,0-.9,1.73,2,2,0,0,0,.72,1.62,5.74,5.74,0,0,0,1.85,1c.74.24,1.54.48,2.37.72a13.18,13.18,0,0,1,2.4.95,4.92,4.92,0,0,1,1.84,1.6,5.27,5.27,0,0,1-1,6.53A7.14,7.14,0,0,1,372.74,714.46Z"/><path class="cls-6" d="M381.63,698.61v-2.39H393.3v2.39Zm4.53,15.47V688.69h2.66v25.39Z"/><path class="cls-6" d="M398.28,692.34a1.74,1.74,0,0,1-1.3-.55,1.84,1.84,0,0,1-.53-1.31,1.82,1.82,0,0,1,.53-1.33,1.76,1.76,0,0,1,1.3-.53,1.79,1.79,0,0,1,1.35.53,1.84,1.84,0,0,1,.51,1.33,1.86,1.86,0,0,1-.51,1.31A1.77,1.77,0,0,1,398.28,692.34ZM397,714.08V696.22h2.69v17.86Z"/><path class="cls-6" d="M405,714.08V696.22h2.66v17.86Zm13,0V703.59a5.36,5.36,0,0,0-1.39-3.82,4.81,4.81,0,0,0-3.67-1.46,5.27,5.27,0,0,0-2.73.68,5.13,5.13,0,0,0-1.87,1.86,5.36,5.36,0,0,0-.68,2.7l-1.22-.68a6.87,6.87,0,0,1,3.52-6.12,7.38,7.38,0,0,1,3.7-.91,6.75,6.75,0,0,1,6.14,3.65,7.54,7.54,0,0,1,.89,3.64v11Z"/><path class="cls-6" d="M433.84,714.46a9.16,9.16,0,0,1-8.07-4.6,9.32,9.32,0,0,1-1.24-4.75,9.2,9.2,0,0,1,1.24-4.73,9,9,0,0,1,3.34-3.33,9.8,9.8,0,0,1,8.5-.45,8.23,8.23,0,0,1,3,2.13l-1.75,1.78a6.22,6.22,0,0,0-2.2-1.58,7.14,7.14,0,0,0-2.78-.55,6.48,6.48,0,0,0-3.38.88,6.21,6.21,0,0,0-2.32,2.37,7.11,7.11,0,0,0-.83,3.48,7.27,7.27,0,0,0,.83,3.48,6.18,6.18,0,0,0,2.32,2.41,6.57,6.57,0,0,0,3.38.87,7.09,7.09,0,0,0,2.82-.55,6.1,6.1,0,0,0,2.2-1.58l1.79,1.79a8.61,8.61,0,0,1-3,2.17A9.61,9.61,0,0,1,433.84,714.46Z"/><path class="cls-6" d="M442.47,698.61v-2.39h11.67v2.39ZM447,714.08V688.69h2.66v25.39Z"/><path class="cls-6" d="M459.11,692.34a1.73,1.73,0,0,1-1.29-.55,1.84,1.84,0,0,1-.53-1.31,1.82,1.82,0,0,1,.53-1.33,1.91,1.91,0,0,1,2.64,0,1.81,1.81,0,0,1,.52,1.33,1.83,1.83,0,0,1-.52,1.31A1.74,1.74,0,0,1,459.11,692.34Zm-1.33,21.74V696.22h2.7v17.86Z"/><path class="cls-6" d="M472.11,714.08l-8.25-17.86h3l6.95,15.61h-1.67l7-15.61H482l-8.32,17.86Z"/><path class="cls-6" d="M492.82,714.46a9.58,9.58,0,0,1-4.83-1.22,9,9,0,0,1-3.36-3.34,9.41,9.41,0,0,1-1.23-4.79,9.28,9.28,0,0,1,1.21-4.73,8.89,8.89,0,0,1,3.31-3.33,9.11,9.11,0,0,1,4.67-1.21,8.36,8.36,0,0,1,4.32,1.1,7.85,7.85,0,0,1,3,3.06,9.13,9.13,0,0,1,1.08,4.5,6.16,6.16,0,0,1,0,.7,6.34,6.34,0,0,1-.15.93H485.3v-2.27h14l-.95.83a7.33,7.33,0,0,0-.67-3.4,5.17,5.17,0,0,0-2-2.2,6.08,6.08,0,0,0-3.17-.78,6.73,6.73,0,0,0-3.39.83,6,6,0,0,0-2.26,2.34,8.14,8.14,0,0,0,0,7.16,6.1,6.1,0,0,0,2.4,2.43,7,7,0,0,0,3.55.88,7.54,7.54,0,0,0,3-.59,6,6,0,0,0,2.32-1.77l1.71,1.75a8.48,8.48,0,0,1-3.1,2.3A9.76,9.76,0,0,1,492.82,714.46Z"/><path class="cls-6" d="M521.43,714.46a9.54,9.54,0,0,1-4.82-1.22,8.9,8.9,0,0,1-3.36-3.34,9.83,9.83,0,0,1,0-9.52,8.94,8.94,0,0,1,3.3-3.33,9.12,9.12,0,0,1,4.68-1.21,8.33,8.33,0,0,1,4.31,1.1,7.85,7.85,0,0,1,3,3.06,9,9,0,0,1,1.09,4.5c0,.2,0,.44,0,.7s-.08.58-.15.93H513.91v-2.27h14l-.95.83a7.21,7.21,0,0,0-.66-3.4,5.13,5.13,0,0,0-2-2.2,6.08,6.08,0,0,0-3.17-.78,6.69,6.69,0,0,0-3.38.83,5.92,5.92,0,0,0-2.26,2.34,7.25,7.25,0,0,0-.82,3.55,7.38,7.38,0,0,0,.86,3.61,6,6,0,0,0,2.39,2.43,7,7,0,0,0,3.55.88,7.54,7.54,0,0,0,3-.59,5.84,5.84,0,0,0,2.32-1.77l1.71,1.75a8.44,8.44,0,0,1-3.09,2.3A9.81,9.81,0,0,1,521.43,714.46Z"/><path class="cls-6" d="M531.16,714.08l7.53-9.81,1.48,2-5.85,7.83Zm14,0-6-8.13-.57-.46-7.18-9.27h3.3l5.55,7.29.53.46,7.6,10.11ZM541,705.45l-1.52-1.94,5.47-7.29h3.16Z"/><path class="cls-6" d="M552,721.6V696.22h2.66v4.56l-.54,4.33.54,4.37V721.6Zm9.23-7.14a8,8,0,0,1-3.69-.84,7.37,7.37,0,0,1-2.68-2.3,7.22,7.22,0,0,1-1.27-3.4v-5.59a7.07,7.07,0,0,1,1.29-3.43,7.23,7.23,0,0,1,2.72-2.27,8.7,8.7,0,0,1,8.08.44,9,9,0,0,1,3.13,3.35,10.34,10.34,0,0,1,0,9.48,8.79,8.79,0,0,1-3.14,3.32A8.23,8.23,0,0,1,561.22,714.46Zm-.46-2.55a6.47,6.47,0,0,0,3.35-.85,6,6,0,0,0,2.26-2.4,8,8,0,0,0,0-7,6.19,6.19,0,0,0-2.26-2.39,6.32,6.32,0,0,0-3.31-.88,6.2,6.2,0,0,0-3.29.88,6,6,0,0,0-2.22,2.39,8.17,8.17,0,0,0,0,7,5.9,5.9,0,0,0,2.21,2.4A6.12,6.12,0,0,0,560.76,711.91Z"/><path class="cls-6" d="M582.46,714.46a9.51,9.51,0,0,1-4.82-1.22,9,9,0,0,1-3.37-3.34,9.41,9.41,0,0,1-1.23-4.79,9.28,9.28,0,0,1,1.21-4.73,9,9,0,0,1,3.31-3.33,9.11,9.11,0,0,1,4.67-1.21,8.36,8.36,0,0,1,4.32,1.1,7.85,7.85,0,0,1,3,3.06,9.13,9.13,0,0,1,1.08,4.5c0,.2,0,.44,0,.7a8.28,8.28,0,0,1-.16.93H574.94v-2.27h14l-1,.83a7.33,7.33,0,0,0-.67-3.4,5.1,5.1,0,0,0-2-2.2,6.08,6.08,0,0,0-3.17-.78,6.69,6.69,0,0,0-3.38.83,5.94,5.94,0,0,0-2.27,2.34,8.14,8.14,0,0,0,0,7.16,6.1,6.1,0,0,0,2.4,2.43,7,7,0,0,0,3.55.88,7.54,7.54,0,0,0,3-.59,5.91,5.91,0,0,0,2.32-1.77l1.71,1.75a8.48,8.48,0,0,1-3.1,2.3A9.76,9.76,0,0,1,582.46,714.46Z"/><path class="cls-6" d="M594.66,714.08V696.22h2.66v17.86Zm2.66-10.42-1.1-.49a8.12,8.12,0,0,1,1.65-5.36,5.62,5.62,0,0,1,4.54-2,6.16,6.16,0,0,1,2.43.47,6.24,6.24,0,0,1,2.06,1.5l-1.75,1.86a3.72,3.72,0,0,0-1.43-1,4.88,4.88,0,0,0-1.76-.31,4.43,4.43,0,0,0-3.35,1.35A5.55,5.55,0,0,0,597.32,703.66Z"/><path class="cls-6" d="M611,692.34a1.7,1.7,0,0,1-1.29-.55,1.81,1.81,0,0,1-.54-1.31,1.79,1.79,0,0,1,.54-1.33,1.72,1.72,0,0,1,1.29-.53,1.79,1.79,0,0,1,1.35.53,1.84,1.84,0,0,1,.51,1.33,1.86,1.86,0,0,1-.51,1.31A1.77,1.77,0,0,1,611,692.34Zm-1.33,21.74V696.22h2.7v17.86Z"/><path class="cls-6" d="M626.05,714.46a9.58,9.58,0,0,1-4.83-1.22,8.9,8.9,0,0,1-3.36-3.34,9.83,9.83,0,0,1,0-9.52,8.94,8.94,0,0,1,3.3-3.33,9.17,9.17,0,0,1,4.68-1.21,8.3,8.3,0,0,1,4.31,1.1,7.88,7.88,0,0,1,3,3.06,9.13,9.13,0,0,1,1.08,4.5,6.16,6.16,0,0,1,0,.7,8,8,0,0,1-.15.93H618.52v-2.27h14l-.95.83a7.21,7.21,0,0,0-.66-3.4,5.17,5.17,0,0,0-2-2.2,6.14,6.14,0,0,0-3.18-.78,6.69,6.69,0,0,0-3.38.83,5.92,5.92,0,0,0-2.26,2.34,7.25,7.25,0,0,0-.82,3.55,7.38,7.38,0,0,0,.86,3.61,6.14,6.14,0,0,0,2.39,2.43,7,7,0,0,0,3.55.88,7.62,7.62,0,0,0,3-.59,5.88,5.88,0,0,0,2.31-1.77l1.72,1.75a8.48,8.48,0,0,1-3.1,2.3A9.8,9.8,0,0,1,626.05,714.46Z"/><path class="cls-6" d="M638.25,714.08V696.22h2.65v17.86Zm13,0V703.59a5.31,5.31,0,0,0-1.39-3.82,4.78,4.78,0,0,0-3.66-1.46,5.33,5.33,0,0,0-2.74.68,5.1,5.1,0,0,0-1.86,1.86,5.27,5.27,0,0,0-.69,2.7l-1.21-.68a6.88,6.88,0,0,1,3.51-6.12,7.39,7.39,0,0,1,3.71-.91,6.88,6.88,0,0,1,3.65,1,7,7,0,0,1,2.49,2.67,7.66,7.66,0,0,1,.89,3.64v11Z"/><path class="cls-6" d="M667.05,714.46a9.19,9.19,0,0,1-8.08-4.6,9.32,9.32,0,0,1-1.23-4.75,9.19,9.19,0,0,1,1.23-4.73,9.07,9.07,0,0,1,3.35-3.33,9.78,9.78,0,0,1,8.49-.45,8.15,8.15,0,0,1,3,2.13L672,700.51a6.26,6.26,0,0,0-2.21-1.58,7.09,7.09,0,0,0-2.77-.55,6.43,6.43,0,0,0-3.38.88,6.21,6.21,0,0,0-2.32,2.37,7,7,0,0,0-.84,3.48,7.17,7.17,0,0,0,.84,3.48,6.18,6.18,0,0,0,2.32,2.41,6.52,6.52,0,0,0,3.38.87,7,7,0,0,0,2.81-.55,6,6,0,0,0,2.2-1.58l1.79,1.79a8.52,8.52,0,0,1-3,2.17A9.59,9.59,0,0,1,667.05,714.46Z"/><path class="cls-6" d="M685.48,714.46a9.58,9.58,0,0,1-4.83-1.22,8.9,8.9,0,0,1-3.36-3.34,9.42,9.42,0,0,1-1.24-4.79,9.28,9.28,0,0,1,1.22-4.73,8.89,8.89,0,0,1,3.31-3.33,9.11,9.11,0,0,1,4.67-1.21,8.3,8.3,0,0,1,4.31,1.1,7.81,7.81,0,0,1,3,3.06,9.13,9.13,0,0,1,1.08,4.5,6.16,6.16,0,0,1,0,.7,6.34,6.34,0,0,1-.15.93H678v-2.27h14l-1,.83a7.33,7.33,0,0,0-.67-3.4,5.17,5.17,0,0,0-2-2.2,6.12,6.12,0,0,0-3.18-.78,6.72,6.72,0,0,0-3.38.83,6,6,0,0,0-2.26,2.34,8,8,0,0,0,0,7.16,6.14,6.14,0,0,0,2.39,2.43,7,7,0,0,0,3.56.88,7.54,7.54,0,0,0,3-.59,6,6,0,0,0,2.32-1.77l1.71,1.75a8.48,8.48,0,0,1-3.1,2.3A9.76,9.76,0,0,1,685.48,714.46Z"/><path class="cls-6" d="M148,759.68l-6.88-17.86h2.78l5.43,14.82-1,0,5.39-14.85h1.56l5.4,14.85-1,0,5.39-14.82h2.81L161,759.68h-1.56L154,745.05h1.14l-5.47,14.63Z"/><path class="cls-6" d="M172.43,737.94a1.7,1.7,0,0,1-1.29-.55,1.81,1.81,0,0,1-.54-1.31,1.79,1.79,0,0,1,.54-1.33,1.72,1.72,0,0,1,1.29-.53,1.76,1.76,0,0,1,1.35.53,1.84,1.84,0,0,1,.51,1.33,1.86,1.86,0,0,1-.51,1.31A1.74,1.74,0,0,1,172.43,737.94Zm-1.33,21.74V741.82h2.7v17.86Z"/><path class="cls-6" d="M177.44,744.21v-2.39h11.67v2.39ZM182,759.68V734.29h2.66v25.39Z"/><path class="cls-6" d="M192.76,759.68V732.77h2.66v26.91Zm13,0V749.19a5.35,5.35,0,0,0-1.38-3.82,4.81,4.81,0,0,0-3.67-1.46,5.33,5.33,0,0,0-2.74.68,5.18,5.18,0,0,0-1.86,1.86,5.36,5.36,0,0,0-.68,2.7l-1.22-.68a6.87,6.87,0,0,1,3.52-6.12,7.35,7.35,0,0,1,3.7-.91,7.1,7.1,0,0,1,3.65.93,6.59,6.59,0,0,1,2.49,2.56,7.87,7.87,0,0,1,.89,3.8v10.95Z"/><path class="cls-6" d="M227.57,759.75l-7.83-17.93h2.92l6.31,15h-1.1l6.65-15h3l-8.39,17.93Zm-4.87,7.45,4.9-10.15,1.49,2.7-3.46,7.45Z"/><path class="cls-6" d="M248,760.06a9,9,0,0,1-4.69-1.26,9.32,9.32,0,0,1-4.58-8.13,8.94,8.94,0,0,1,1.24-4.67,9.48,9.48,0,0,1,12.74-3.35A9,9,0,0,1,256,746a9.12,9.12,0,0,1,1.23,4.69,9.24,9.24,0,0,1-4.56,8.13A8.93,8.93,0,0,1,248,760.06Zm0-2.59a6.48,6.48,0,0,0,3.37-.87,6.29,6.29,0,0,0,2.31-2.43,7.17,7.17,0,0,0,.86-3.5,6.83,6.83,0,0,0-.86-3.44,6.65,6.65,0,0,0-9-2.37,6.21,6.21,0,0,0-2.32,2.37,6.93,6.93,0,0,0-.84,3.44,7.24,7.24,0,0,0,.84,3.52,6.18,6.18,0,0,0,2.32,2.41A6.47,6.47,0,0,0,248,757.47Z"/><path class="cls-6" d="M268.53,760.06a7.53,7.53,0,0,1-3.88-1,7.09,7.09,0,0,1-2.67-2.76,8.26,8.26,0,0,1-1-4.1V741.82h2.69v10.26a6.5,6.5,0,0,0,.59,2.85,4.59,4.59,0,0,0,1.69,1.9,4.81,4.81,0,0,0,2.55.68,4.49,4.49,0,0,0,3.55-1.48,5.73,5.73,0,0,0,1.31-3.95V741.82h2.66v10.37a8.5,8.5,0,0,1-.95,4.1,6.79,6.79,0,0,1-2.66,2.78A7.65,7.65,0,0,1,268.53,760.06Z"/><path class="cls-6" d="M281,759.68V741.82h2.66v17.86Zm2.66-10.42-1.1-.49a8.12,8.12,0,0,1,1.65-5.36,5.62,5.62,0,0,1,4.54-2,6.24,6.24,0,0,1,2.44.47,6.31,6.31,0,0,1,2,1.5l-1.75,1.86a3.72,3.72,0,0,0-1.43-1,4.81,4.81,0,0,0-1.76-.31,4.43,4.43,0,0,0-3.35,1.35A5.55,5.55,0,0,0,283.69,749.26Z"/><path class="cls-6" d="M313,760.06a9,9,0,0,1-4.7-1.26,9.32,9.32,0,0,1-4.58-8.13A9,9,0,0,1,305,746a9.49,9.49,0,0,1,12.75-3.35,9.2,9.2,0,0,1,4.56,8,9.3,9.3,0,0,1-4.56,8.13A8.93,8.93,0,0,1,313,760.06Zm0-2.59a6.45,6.45,0,0,0,3.36-.87,6.24,6.24,0,0,0,2.32-2.43,7.17,7.17,0,0,0,.85-3.5,6.83,6.83,0,0,0-.85-3.44A6.37,6.37,0,0,0,313,744a6.42,6.42,0,0,0-3.35.88,6.19,6.19,0,0,0-2.31,2.37,6.93,6.93,0,0,0-.84,3.44,7.24,7.24,0,0,0,.84,3.52,6.16,6.16,0,0,0,2.31,2.41A6.51,6.51,0,0,0,313,757.47Z"/><path class="cls-6" d="M326.52,759.68V741.82h2.66v17.86Zm2.66-10.42-1.1-.49a8.12,8.12,0,0,1,1.65-5.36,5.61,5.61,0,0,1,4.54-2,5.74,5.74,0,0,1,4.48,2L337,745.27a3.69,3.69,0,0,0-1.42-1,4.9,4.9,0,0,0-1.77-.31,4.42,4.42,0,0,0-3.34,1.35A5.55,5.55,0,0,0,329.18,749.26Z"/><path class="cls-6" d="M348.52,759.49a8.58,8.58,0,0,1-4.45-1.18,8.47,8.47,0,0,1-3.11-3.23,10,10,0,0,1,0-9.25,8.39,8.39,0,0,1,3.09-3.22,9.14,9.14,0,0,1,8.19-.38,6.69,6.69,0,0,1,2.66,2.27,7.44,7.44,0,0,1,1.24,3.43V753a7.25,7.25,0,0,1-1.26,3.4,7.09,7.09,0,0,1-2.66,2.28A8.13,8.13,0,0,1,348.52,759.49Zm-.19,8.09a11.07,11.07,0,0,1-4.81-1,8.63,8.63,0,0,1-3.4-2.83l1.75-1.75a7.29,7.29,0,0,0,2.7,2.25,8.65,8.65,0,0,0,3.83.79,6.94,6.94,0,0,0,4.85-1.63,5.71,5.71,0,0,0,1.8-4.45v-4.44l.54-4.07-.54-4v-4.59h2.66V759a8.61,8.61,0,0,1-1.17,4.53,8.08,8.08,0,0,1-3.29,3A10.68,10.68,0,0,1,348.33,767.58Zm.68-10.64a6.42,6.42,0,0,0,3.25-.8,5.5,5.5,0,0,0,2.17-2.26,7.19,7.19,0,0,0,.78-3.44,7,7,0,0,0-.78-3.38,5.85,5.85,0,0,0-2.19-2.28,6.24,6.24,0,0,0-3.27-.84,6.53,6.53,0,0,0-3.32.84,6,6,0,0,0-2.28,2.28,7.3,7.3,0,0,0,0,6.76,5.93,5.93,0,0,0,2.28,2.3A6.62,6.62,0,0,0,349,756.94Z"/><path class="cls-6" d="M370.82,760.06a8.53,8.53,0,0,1-4.56-1.24,8.87,8.87,0,0,1-3.17-3.32,9.62,9.62,0,0,1-1.16-4.72,9.72,9.72,0,0,1,1.16-4.76,8.81,8.81,0,0,1,3.17-3.35,8.53,8.53,0,0,1,4.53-1.23,8,8,0,0,1,3.66.81,7.08,7.08,0,0,1,2.63,2.28,7.44,7.44,0,0,1,1.23,3.4v5.59a7.56,7.56,0,0,1-1.23,3.42,6.87,6.87,0,0,1-2.63,2.3A8,8,0,0,1,370.82,760.06Zm.42-2.55a5.76,5.76,0,0,0,4.47-1.86,7,7,0,0,0,1.69-4.9,7.78,7.78,0,0,0-.78-3.56,5.84,5.84,0,0,0-2.17-2.39,6.06,6.06,0,0,0-3.25-.86,6.48,6.48,0,0,0-3.36.88,6.4,6.4,0,0,0-2.32,2.41,7.14,7.14,0,0,0-.85,3.52,7,7,0,0,0,.85,3.49,6.35,6.35,0,0,0,2.34,2.4A6.54,6.54,0,0,0,371.24,757.51Zm6,2.17v-4.79l.53-4.41-.53-4.29v-4.37h2.66v17.86Z"/><path class="cls-6" d="M385.3,759.68V741.82H388v17.86Zm13,0V749.19a5.36,5.36,0,0,0-1.39-3.82,4.8,4.8,0,0,0-3.67-1.46,5.27,5.27,0,0,0-2.73.68,5,5,0,0,0-1.86,1.86,5.27,5.27,0,0,0-.69,2.7l-1.21-.68a6.88,6.88,0,0,1,3.51-6.12,7.38,7.38,0,0,1,3.7-.91,6.76,6.76,0,0,1,6.14,3.64,7.62,7.62,0,0,1,.9,3.65v10.95Z"/><path class="cls-6" d="M407.3,737.94a1.73,1.73,0,0,1-1.29-.55,1.84,1.84,0,0,1-.53-1.31,1.82,1.82,0,0,1,.53-1.33,1.91,1.91,0,0,1,2.64,0,1.85,1.85,0,0,1,.52,1.33,1.87,1.87,0,0,1-.52,1.31A1.74,1.74,0,0,1,407.3,737.94ZM406,759.68V741.82h2.7v17.86Z"/><path class="cls-6" d="M412.51,758.19l11.28-14.93H427l-11.29,14.93Zm0,1.49v-1.49l2.32-1h11.89v2.44Zm.65-15.47v-2.39H427v1.44l-2.51,1Z"/><path class="cls-6" d="M438.23,760.06a8.53,8.53,0,0,1-4.56-1.24,8.87,8.87,0,0,1-3.17-3.32,9.62,9.62,0,0,1-1.16-4.72A9.72,9.72,0,0,1,430.5,746a8.81,8.81,0,0,1,3.17-3.35,8.53,8.53,0,0,1,4.53-1.23,8,8,0,0,1,3.66.81,7.08,7.08,0,0,1,2.63,2.28,7.44,7.44,0,0,1,1.23,3.4v5.59a7.56,7.56,0,0,1-1.23,3.42,6.87,6.87,0,0,1-2.63,2.3A8,8,0,0,1,438.23,760.06Zm.42-2.55a5.76,5.76,0,0,0,4.47-1.86,7,7,0,0,0,1.69-4.9,7.78,7.78,0,0,0-.78-3.56,5.84,5.84,0,0,0-2.17-2.39,6,6,0,0,0-3.25-.86,6.48,6.48,0,0,0-3.36.88,6.4,6.4,0,0,0-2.32,2.41,7.14,7.14,0,0,0-.85,3.52,7,7,0,0,0,.85,3.49,6.35,6.35,0,0,0,2.34,2.4A6.57,6.57,0,0,0,438.65,757.51Zm6,2.17v-4.79l.53-4.41-.53-4.29v-4.37h2.66v17.86Z"/><path class="cls-6" d="M450.81,744.21v-2.39h11.67v2.39Zm4.52,15.47V734.29H458v25.39Z"/><path class="cls-6" d="M467.46,737.94a1.74,1.74,0,0,1-1.3-.55,1.84,1.84,0,0,1-.53-1.31,1.82,1.82,0,0,1,.53-1.33,1.91,1.91,0,0,1,2.64,0,1.81,1.81,0,0,1,.52,1.33,1.83,1.83,0,0,1-.52,1.31A1.74,1.74,0,0,1,467.46,737.94Zm-1.33,21.74V741.82h2.69v17.86Z"/><path class="cls-6" d="M482.31,760.06a9,9,0,0,1-4.69-1.26,9.32,9.32,0,0,1-4.58-8.13,8.94,8.94,0,0,1,1.24-4.67,9.17,9.17,0,0,1,8-4.56,9.24,9.24,0,0,1,4.72,1.21,9.2,9.2,0,0,1,4.56,8A9.3,9.3,0,0,1,487,758.8,9,9,0,0,1,482.31,760.06Zm0-2.59a6.48,6.48,0,0,0,3.37-.87,6.38,6.38,0,0,0,2.32-2.43,7.28,7.28,0,0,0,.85-3.5,6.93,6.93,0,0,0-.85-3.44,6.51,6.51,0,0,0-2.32-2.37,6.84,6.84,0,0,0-6.71,0,6.21,6.21,0,0,0-2.32,2.37,6.92,6.92,0,0,0-.83,3.44,7.24,7.24,0,0,0,.83,3.52A6.18,6.18,0,0,0,479,756.6,6.47,6.47,0,0,0,482.31,757.47Z"/><path class="cls-6" d="M495.8,759.68V741.82h2.66v17.86Zm13,0V749.19a5.31,5.31,0,0,0-1.39-3.82,4.78,4.78,0,0,0-3.66-1.46,5.31,5.31,0,0,0-2.74.68,5,5,0,0,0-1.86,1.86,5.27,5.27,0,0,0-.69,2.7l-1.21-.68a6.88,6.88,0,0,1,3.51-6.12,7.39,7.39,0,0,1,3.71-.91,6.73,6.73,0,0,1,6.13,3.64,7.62,7.62,0,0,1,.9,3.65v10.95Z"/><path class="cls-6" d="M522.9,744.21v-2.39h11.66v2.39Zm4.52,15.47V734.29h2.66v25.39Z"/><path class="cls-6" d="M538.21,759.68V732.77h2.66v26.91Zm13,0V749.19a5.31,5.31,0,0,0-1.39-3.82,4.8,4.8,0,0,0-3.67-1.46,5.27,5.27,0,0,0-2.73.68,5,5,0,0,0-1.86,1.86,5.27,5.27,0,0,0-.69,2.7l-1.21-.68a6.88,6.88,0,0,1,3.51-6.12,7.39,7.39,0,0,1,3.71-.91,7.09,7.09,0,0,1,3.64.93,6.45,6.45,0,0,1,2.49,2.56,7.76,7.76,0,0,1,.9,3.8v10.95Z"/><path class="cls-6" d="M566.64,760.06a8.48,8.48,0,0,1-4.56-1.24,8.82,8.82,0,0,1-3.18-3.32,9.62,9.62,0,0,1-1.16-4.72A9.72,9.72,0,0,1,558.9,746a8.76,8.76,0,0,1,3.18-3.35,8.49,8.49,0,0,1,4.52-1.23,8,8,0,0,1,3.66.81,7.08,7.08,0,0,1,2.63,2.28,7.44,7.44,0,0,1,1.23,3.4v5.59a7.56,7.56,0,0,1-1.23,3.42,6.87,6.87,0,0,1-2.63,2.3A7.94,7.94,0,0,1,566.64,760.06Zm.41-2.55a5.76,5.76,0,0,0,4.47-1.86,7,7,0,0,0,1.69-4.9,7.78,7.78,0,0,0-.78-3.56,5.84,5.84,0,0,0-2.17-2.39,6,6,0,0,0-3.24-.86,6.49,6.49,0,0,0-3.37.88,6.4,6.4,0,0,0-2.32,2.41,7.14,7.14,0,0,0-.85,3.52,7,7,0,0,0,.85,3.49,6.35,6.35,0,0,0,2.34,2.4A6.57,6.57,0,0,0,567.05,757.51Zm6,2.17v-4.79l.53-4.41-.53-4.29v-4.37h2.66v17.86Z"/><path class="cls-6" d="M579.21,744.21v-2.39h11.67v2.39Zm4.53,15.47V734.29h2.65v25.39Z"/><path class="cls-6" d="M608.17,760.06a9.89,9.89,0,0,1-2.78-.4,9.18,9.18,0,0,1-2.41-1.12,8.3,8.3,0,0,1-1.88-1.71l1.71-1.75a6.92,6.92,0,0,0,2.41,1.92,7.08,7.08,0,0,0,3,.62,4.88,4.88,0,0,0,2.79-.68,2.17,2.17,0,0,0,1-1.9,2.3,2.3,0,0,0-.72-1.79,5.16,5.16,0,0,0-1.84-1c-.75-.25-1.54-.5-2.38-.74a15.93,15.93,0,0,1-2.39-.91,4.77,4.77,0,0,1-1.84-1.54,4.36,4.36,0,0,1-.7-2.59,4.64,4.64,0,0,1,.74-2.64,4.86,4.86,0,0,1,2.12-1.75,8.08,8.08,0,0,1,3.29-.62,9,9,0,0,1,3.65.72,6.17,6.17,0,0,1,2.62,2.13L612.88,746a5.3,5.3,0,0,0-2-1.58,6.33,6.33,0,0,0-2.68-.55,4.37,4.37,0,0,0-2.61.66,2.08,2.08,0,0,0-.89,1.73,2,2,0,0,0,.72,1.62,5.64,5.64,0,0,0,1.85,1q1.11.36,2.37.72a12.8,12.8,0,0,1,2.39,1,5,5,0,0,1,1.85,1.6,4.63,4.63,0,0,1,.7,2.71,4.7,4.7,0,0,1-1.73,3.82A7.16,7.16,0,0,1,608.17,760.06Z"/><path class="cls-6" d="M627.05,760.06a9.57,9.57,0,0,1-4.82-1.22,8.9,8.9,0,0,1-3.36-3.34,9.83,9.83,0,0,1,0-9.52,8.94,8.94,0,0,1,3.3-3.33,9.15,9.15,0,0,1,4.68-1.21,8.3,8.3,0,0,1,4.31,1.1,7.85,7.85,0,0,1,3,3.06,9,9,0,0,1,1.09,4.5c0,.2,0,.44,0,.7s-.08.58-.15.93H619.53v-2.28h14l-.95.84a7.21,7.21,0,0,0-.66-3.4,5.07,5.07,0,0,0-2-2.2,6.08,6.08,0,0,0-3.17-.78,6.69,6.69,0,0,0-3.38.83,5.92,5.92,0,0,0-2.26,2.34,7.25,7.25,0,0,0-.82,3.55,7.38,7.38,0,0,0,.86,3.61,6.07,6.07,0,0,0,2.39,2.43,7,7,0,0,0,3.55.88,7.54,7.54,0,0,0,3-.59,5.84,5.84,0,0,0,2.32-1.77l1.71,1.75a8.44,8.44,0,0,1-3.09,2.3A9.81,9.81,0,0,1,627.05,760.06Z"/><path class="cls-6" d="M636.86,744.21v-2.39h11.66v2.39Zm4.52,15.47V734.29H644v25.39Z"/><path class="cls-6" d="M657.26,760.06a9.82,9.82,0,0,1-2.77-.4,9,9,0,0,1-2.41-1.12,8.3,8.3,0,0,1-1.88-1.71l1.71-1.75a6.92,6.92,0,0,0,2.41,1.92,7.06,7.06,0,0,0,3,.62,4.88,4.88,0,0,0,2.79-.68,2.18,2.18,0,0,0,1-1.9,2.3,2.3,0,0,0-.72-1.79,5.24,5.24,0,0,0-1.84-1c-.75-.25-1.54-.5-2.38-.74a15.53,15.53,0,0,1-2.39-.91A4.8,4.8,0,0,1,652,749a4.36,4.36,0,0,1-.7-2.59,4.72,4.72,0,0,1,.74-2.64,4.89,4.89,0,0,1,2.13-1.75,8,8,0,0,1,3.29-.62,8.93,8.93,0,0,1,3.64.72,6.2,6.2,0,0,1,2.63,2.13L662,746a5.33,5.33,0,0,0-2-1.58,6.3,6.3,0,0,0-2.68-.55,4.32,4.32,0,0,0-2.6.66,2.06,2.06,0,0,0-.89,1.73,2,2,0,0,0,.72,1.62,5.59,5.59,0,0,0,1.84,1c.75.24,1.54.48,2.38.72a13.37,13.37,0,0,1,2.39,1,4.92,4.92,0,0,1,1.84,1.6,4.63,4.63,0,0,1,.71,2.71,4.7,4.7,0,0,1-1.73,3.82A7.19,7.19,0,0,1,657.26,760.06Z"/><path class="cls-6" d="M163.56,805.35l-7.83-17.93h2.92l6.31,15h-1.1l6.65-15h3l-8.39,17.93Zm-4.87,7.45,4.9-10.15,1.49,2.7-3.46,7.45Z"/><path class="cls-6" d="M184,805.66a9,9,0,0,1-4.69-1.26,9.27,9.27,0,0,1-4.58-8.13,9,9,0,0,1,1.23-4.67,9.3,9.3,0,0,1,3.35-3.33,9.22,9.22,0,0,1,14,8,9.24,9.24,0,0,1-4.56,8.13A8.93,8.93,0,0,1,184,805.66Zm0-2.59a6.42,6.42,0,0,0,3.36-.87,6.24,6.24,0,0,0,2.32-2.43,7.17,7.17,0,0,0,.86-3.5,6.83,6.83,0,0,0-.86-3.44,6.65,6.65,0,0,0-9-2.37,6.21,6.21,0,0,0-2.32,2.37,6.93,6.93,0,0,0-.84,3.44,7.24,7.24,0,0,0,.84,3.52,6.18,6.18,0,0,0,2.32,2.41A6.47,6.47,0,0,0,184,803.07Z"/><path class="cls-6" d="M204.52,805.66a7.51,7.51,0,0,1-3.88-1A7.22,7.22,0,0,1,198,801.9a8.43,8.43,0,0,1-1-4.11V787.42h2.69v10.26a6.5,6.5,0,0,0,.59,2.85,4.52,4.52,0,0,0,1.69,1.9,4.81,4.81,0,0,0,2.55.68,4.49,4.49,0,0,0,3.55-1.48,5.73,5.73,0,0,0,1.31-4V787.42H212v10.37a8.57,8.57,0,0,1-.95,4.11,6.83,6.83,0,0,1-2.66,2.77A7.65,7.65,0,0,1,204.52,805.66Z"/><path class="cls-6" d="M232.94,805.66a8.53,8.53,0,0,1-4.56-1.24,8.87,8.87,0,0,1-3.17-3.32,9.61,9.61,0,0,1-1.16-4.71,9.74,9.74,0,0,1,1.16-4.77,8.88,8.88,0,0,1,3.17-3.35A8.52,8.52,0,0,1,232.9,787a8.08,8.08,0,0,1,3.67.81,7,7,0,0,1,2.62,2.28,7.45,7.45,0,0,1,1.24,3.4v5.59a7.57,7.57,0,0,1-1.24,3.42,6.77,6.77,0,0,1-2.62,2.3A8,8,0,0,1,232.94,805.66Zm.42-2.55a5.76,5.76,0,0,0,4.47-1.86,7,7,0,0,0,1.69-4.9,7.78,7.78,0,0,0-.78-3.56,5.84,5.84,0,0,0-2.17-2.39,6.06,6.06,0,0,0-3.25-.86,6.45,6.45,0,0,0-3.36.88,6.32,6.32,0,0,0-2.32,2.41,7.14,7.14,0,0,0-.85,3.52,7,7,0,0,0,.85,3.49,6.35,6.35,0,0,0,2.34,2.4A6.54,6.54,0,0,0,233.36,803.11Zm6,2.17v-4.79l.54-4.41-.54-4.29v-4.37H242v17.86Z"/><path class="cls-6" d="M247.42,812.8V787.42h2.66V792l-.53,4.33.53,4.37V812.8Zm9.23-7.14a7.94,7.94,0,0,1-3.68-.84,7.37,7.37,0,0,1-2.68-2.3,7.12,7.12,0,0,1-1.27-3.4v-5.59a7.07,7.07,0,0,1,1.29-3.43,7.15,7.15,0,0,1,2.72-2.27,8.68,8.68,0,0,1,8.07.44,9,9,0,0,1,3.14,3.35,10.38,10.38,0,0,1,0,9.48,8.76,8.76,0,0,1-3.13,3.32A8.27,8.27,0,0,1,256.65,805.66Zm-.45-2.55a6.43,6.43,0,0,0,3.34-.85,6,6,0,0,0,2.26-2.4,8,8,0,0,0,0-7.05,6.12,6.12,0,0,0-2.26-2.39,6.26,6.26,0,0,0-3.3-.88,6.18,6.18,0,0,0-3.29.88,6,6,0,0,0-2.22,2.39,8.17,8.17,0,0,0,0,7.05,5.88,5.88,0,0,0,2.2,2.4A6.18,6.18,0,0,0,256.2,803.11Z"/><path class="cls-6" d="M277.4,805.66a8.48,8.48,0,0,1-4.56-1.24,8.87,8.87,0,0,1-3.17-3.32,9.61,9.61,0,0,1-1.16-4.71,9.74,9.74,0,0,1,1.16-4.77,8.88,8.88,0,0,1,3.17-3.35,8.49,8.49,0,0,1,4.52-1.23,8.08,8.08,0,0,1,3.67.81,7,7,0,0,1,2.62,2.28,7.45,7.45,0,0,1,1.24,3.4v5.59a7.57,7.57,0,0,1-1.24,3.42,6.77,6.77,0,0,1-2.62,2.3A8,8,0,0,1,277.4,805.66Zm.42-2.55a5.72,5.72,0,0,0,4.46-1.86,7,7,0,0,0,1.7-4.9,7.78,7.78,0,0,0-.78-3.56A5.84,5.84,0,0,0,281,790.4a6.06,6.06,0,0,0-3.25-.86,6.43,6.43,0,0,0-3.36.88,6.32,6.32,0,0,0-2.32,2.41,7.14,7.14,0,0,0-.85,3.52,7,7,0,0,0,.85,3.49,6.35,6.35,0,0,0,2.34,2.4A6.54,6.54,0,0,0,277.82,803.11Zm6,2.17v-4.79l.54-4.41-.54-4.29v-4.37h2.66v17.86Z"/><path class="cls-6" d="M291.88,805.28V787.42h2.66v17.86Zm2.66-10.42-1.1-.49a8.12,8.12,0,0,1,1.65-5.36,5.62,5.62,0,0,1,4.54-2,6.16,6.16,0,0,1,2.43.47,6.24,6.24,0,0,1,2.06,1.5l-1.75,1.86a3.72,3.72,0,0,0-1.43-1,4.9,4.9,0,0,0-1.77-.31,4.42,4.42,0,0,0-3.34,1.35A5.55,5.55,0,0,0,294.54,794.86Z"/><path class="cls-6" d="M305,789.81v-2.39h11.66v2.39Zm4.52,15.47V779.89h2.66v25.39Z"/><path class="cls-6" d="M326.65,789.81v-2.39H339.8v2.39Zm4.48,15.47v-20.9a6.55,6.55,0,0,1,.82-3.31,5.83,5.83,0,0,1,2.28-2.26,6.75,6.75,0,0,1,3.32-.82,5.84,5.84,0,0,1,2.55.52,6.89,6.89,0,0,1,2,1.42l-1.74,1.75a4,4,0,0,0-1.28-.89,3.85,3.85,0,0,0-1.54-.29,3.56,3.56,0,0,0-2.75,1,4.07,4.07,0,0,0-1,2.9v20.83Z"/><path class="cls-6" d="M342.84,805.28V787.42h2.66v17.86Zm2.66-10.42-1.11-.49a8.12,8.12,0,0,1,1.66-5.36,5.61,5.61,0,0,1,4.54-2,5.74,5.74,0,0,1,4.48,2l-1.75,1.86a3.69,3.69,0,0,0-1.42-1,4.9,4.9,0,0,0-1.77-.31,4.41,4.41,0,0,0-3.34,1.35A5.55,5.55,0,0,0,345.5,794.86Z"/><path class="cls-6" d="M365.37,805.66a9,9,0,0,1-4.69-1.26,9.27,9.27,0,0,1-4.58-8.13,9,9,0,0,1,1.23-4.67,9.3,9.3,0,0,1,3.35-3.33,9.22,9.22,0,0,1,14,8,9.24,9.24,0,0,1-4.56,8.13A8.93,8.93,0,0,1,365.37,805.66Zm0-2.59a6.42,6.42,0,0,0,3.36-.87,6.24,6.24,0,0,0,2.32-2.43,7.17,7.17,0,0,0,.86-3.5,6.83,6.83,0,0,0-.86-3.44,6.65,6.65,0,0,0-9-2.37,6.21,6.21,0,0,0-2.32,2.37,6.93,6.93,0,0,0-.84,3.44,7.24,7.24,0,0,0,.84,3.52A6.18,6.18,0,0,0,362,802.2,6.45,6.45,0,0,0,365.37,803.07Z"/><path class="cls-6" d="M378.86,805.28V787.42h2.66v17.86Zm12.27,0V794.33a4.68,4.68,0,0,0-1.33-3.51,4.53,4.53,0,0,0-3.34-1.31,5.2,5.2,0,0,0-2.49.59,4.49,4.49,0,0,0-1.78,1.65,4.65,4.65,0,0,0-.67,2.54l-1.22-.49a6.77,6.77,0,0,1,.92-3.57,6.31,6.31,0,0,1,2.45-2.36,7.21,7.21,0,0,1,3.47-.83,6.93,6.93,0,0,1,3.4.83,6.32,6.32,0,0,1,2.4,2.36,7.05,7.05,0,0,1,.89,3.61v11.44Zm12.32,0V794.33a4.72,4.72,0,0,0-1.33-3.51,4.61,4.61,0,0,0-3.39-1.31,5.13,5.13,0,0,0-2.45.59,4.56,4.56,0,0,0-1.78,1.65,4.65,4.65,0,0,0-.67,2.54l-1.59-.49a7.15,7.15,0,0,1,1.08-3.57,6.72,6.72,0,0,1,2.55-2.36,7.38,7.38,0,0,1,3.47-.83,7.17,7.17,0,0,1,3.44.83,6.2,6.2,0,0,1,2.43,2.36,7,7,0,0,1,.9,3.61v11.44Z"/><path class="cls-6" d="M427.42,805.66a9.16,9.16,0,0,1-8.07-4.6,9.32,9.32,0,0,1-1.24-4.75,9.2,9.2,0,0,1,1.24-4.73,9,9,0,0,1,3.34-3.33,9.8,9.8,0,0,1,8.5-.45,8.23,8.23,0,0,1,3,2.13l-1.75,1.78a6.22,6.22,0,0,0-2.2-1.58,7.14,7.14,0,0,0-2.78-.55,6.48,6.48,0,0,0-3.38.88,6.21,6.21,0,0,0-2.32,2.37,7.11,7.11,0,0,0-.83,3.48,7.27,7.27,0,0,0,.83,3.48A6.18,6.18,0,0,0,424,802.2a6.57,6.57,0,0,0,3.38.87,7.09,7.09,0,0,0,2.82-.55,6.2,6.2,0,0,0,2.2-1.57l1.79,1.78a8.61,8.61,0,0,1-3,2.17A9.61,9.61,0,0,1,427.42,805.66Z"/><path class="cls-6" d="M445.7,805.66A9,9,0,0,1,441,804.4a9.32,9.32,0,0,1-4.58-8.13,8.94,8.94,0,0,1,1.24-4.67,9.48,9.48,0,0,1,12.74-3.35,9,9,0,0,1,3.33,3.33,9.12,9.12,0,0,1,1.23,4.69,9.24,9.24,0,0,1-4.56,8.13A8.93,8.93,0,0,1,445.7,805.66Zm0-2.59a6.42,6.42,0,0,0,3.36-.87,6.24,6.24,0,0,0,2.32-2.43,7.17,7.17,0,0,0,.86-3.5,6.83,6.83,0,0,0-.86-3.44,6.65,6.65,0,0,0-9-2.37,6.21,6.21,0,0,0-2.32,2.37,6.93,6.93,0,0,0-.84,3.44,7.24,7.24,0,0,0,.84,3.52,6.18,6.18,0,0,0,2.32,2.41A6.47,6.47,0,0,0,445.7,803.07Z"/><path class="cls-6" d="M459.19,805.28V787.42h2.66v17.86Zm12.28,0V794.33a4.72,4.72,0,0,0-1.33-3.51,4.57,4.57,0,0,0-3.35-1.31,5.2,5.2,0,0,0-2.49.59,4.49,4.49,0,0,0-1.78,1.65,4.65,4.65,0,0,0-.67,2.54l-1.21-.49a6.77,6.77,0,0,1,.91-3.57,6.38,6.38,0,0,1,2.45-2.36,7.22,7.22,0,0,1,3.48-.83,7,7,0,0,1,3.4.83,6.37,6.37,0,0,1,2.39,2.36,7,7,0,0,1,.89,3.61v11.44Zm12.31,0V794.33a4.72,4.72,0,0,0-1.33-3.51,4.61,4.61,0,0,0-3.38-1.31,5.14,5.14,0,0,0-2.46.59,4.56,4.56,0,0,0-1.78,1.65,4.65,4.65,0,0,0-.67,2.54l-1.59-.49a7.15,7.15,0,0,1,1.08-3.57,6.72,6.72,0,0,1,2.55-2.36,7.38,7.38,0,0,1,3.47-.83,7.14,7.14,0,0,1,3.44.83,6.2,6.2,0,0,1,2.43,2.36,7,7,0,0,1,.9,3.61v11.44Z"/><path class="cls-6" d="M491.45,812.8V787.42h2.66V792l-.53,4.33.53,4.37V812.8Zm9.24-7.14a8,8,0,0,1-3.69-.84,7.37,7.37,0,0,1-2.68-2.3,7.22,7.22,0,0,1-1.27-3.4v-5.59a7.07,7.07,0,0,1,1.29-3.43,7.23,7.23,0,0,1,2.72-2.27,8.68,8.68,0,0,1,8.07.44,9,9,0,0,1,3.14,3.35,10.34,10.34,0,0,1,0,9.48,8.79,8.79,0,0,1-3.14,3.32A8.26,8.26,0,0,1,500.69,805.66Zm-.46-2.55a6.47,6.47,0,0,0,3.35-.85,6,6,0,0,0,2.26-2.4,8.08,8.08,0,0,0,0-7.05,6.19,6.19,0,0,0-2.26-2.39,6.32,6.32,0,0,0-3.31-.88,6.2,6.2,0,0,0-3.29.88,6,6,0,0,0-2.22,2.39,8.17,8.17,0,0,0,0,7.05,6,6,0,0,0,2.2,2.4A6.18,6.18,0,0,0,500.23,803.11Z"/><path class="cls-6" d="M521.93,805.66a9.58,9.58,0,0,1-4.83-1.22,8.9,8.9,0,0,1-3.36-3.34,9.42,9.42,0,0,1-1.24-4.79,9.28,9.28,0,0,1,1.22-4.73,8.89,8.89,0,0,1,3.31-3.33A9.11,9.11,0,0,1,521.7,787a8.3,8.3,0,0,1,4.31,1.1,7.81,7.81,0,0,1,3,3.06,9.13,9.13,0,0,1,1.08,4.5,6.16,6.16,0,0,1,0,.7,6.34,6.34,0,0,1-.15.93H514.4v-2.27h14l-.95.83a7.33,7.33,0,0,0-.67-3.4,5.17,5.17,0,0,0-2-2.2,6.11,6.11,0,0,0-3.17-.78,6.73,6.73,0,0,0-3.39.83,6,6,0,0,0-2.26,2.34,8.14,8.14,0,0,0,0,7.16,6.23,6.23,0,0,0,2.39,2.44,7.11,7.11,0,0,0,3.56.87,7.54,7.54,0,0,0,3-.59,6,6,0,0,0,2.32-1.77l1.71,1.75a8.48,8.48,0,0,1-3.1,2.3A9.76,9.76,0,0,1,521.93,805.66Z"/><path class="cls-6" d="M531.73,789.81v-2.39H543.4v2.39Zm4.52,15.47V779.89h2.66v25.39Z"/><path class="cls-6" d="M548.38,783.54a1.74,1.74,0,0,1-1.3-.55,1.84,1.84,0,0,1-.53-1.31,1.82,1.82,0,0,1,.53-1.33,1.76,1.76,0,0,1,1.3-.53,1.79,1.79,0,0,1,1.35.53,1.84,1.84,0,0,1,.51,1.33,1.86,1.86,0,0,1-.51,1.31A1.77,1.77,0,0,1,548.38,783.54Zm-1.33,21.74V787.42h2.69v17.86Z"/><path class="cls-6" d="M553.39,789.81v-2.39h11.67v2.39Zm4.52,15.47V779.89h2.66v25.39Z"/><path class="cls-6" d="M576.15,805.66a9,9,0,0,1-4.69-1.26,9.32,9.32,0,0,1-4.58-8.13,8.94,8.94,0,0,1,1.24-4.67,9.27,9.27,0,0,1,3.34-3.33,9.24,9.24,0,0,1,14,8,9.3,9.3,0,0,1-4.56,8.13A9,9,0,0,1,576.15,805.66Zm0-2.59a6.48,6.48,0,0,0,3.37-.87,6.31,6.31,0,0,0,2.32-2.43,7.17,7.17,0,0,0,.85-3.5,6.83,6.83,0,0,0-.85-3.44,6.66,6.66,0,0,0-9-2.37,6.21,6.21,0,0,0-2.32,2.37,6.92,6.92,0,0,0-.83,3.44,7.24,7.24,0,0,0,.83,3.52,6.18,6.18,0,0,0,2.32,2.41A6.47,6.47,0,0,0,576.15,803.07Z"/><path class="cls-6" d="M589.64,805.28V787.42h2.66v17.86Zm2.66-10.42-1.1-.49a8.07,8.07,0,0,1,1.66-5.36,5.61,5.61,0,0,1,4.54-2,5.74,5.74,0,0,1,4.48,2l-1.75,1.86a3.69,3.69,0,0,0-1.42-1,4.9,4.9,0,0,0-1.77-.31,4.41,4.41,0,0,0-3.34,1.35A5.51,5.51,0,0,0,592.3,794.86Z"/><path class="cls-6" d="M609.78,805.66a9.82,9.82,0,0,1-2.77-.4,9,9,0,0,1-2.41-1.12,8.35,8.35,0,0,1-1.89-1.71l1.71-1.75a7,7,0,0,0,2.42,1.92,7,7,0,0,0,3,.63,4.88,4.88,0,0,0,2.79-.69,2.18,2.18,0,0,0,1-1.9,2.26,2.26,0,0,0-.72-1.78,5.07,5.07,0,0,0-1.85-1c-.74-.25-1.54-.5-2.37-.74a15.15,15.15,0,0,1-2.39-.91,4.8,4.8,0,0,1-1.85-1.54,4.36,4.36,0,0,1-.7-2.59,4.72,4.72,0,0,1,.74-2.64,4.84,4.84,0,0,1,2.13-1.75,8,8,0,0,1,3.28-.62,8.94,8.94,0,0,1,3.65.72,6.2,6.2,0,0,1,2.63,2.13l-1.71,1.71a5.33,5.33,0,0,0-2-1.58,6.3,6.3,0,0,0-2.68-.55,4.32,4.32,0,0,0-2.6.66,2.06,2.06,0,0,0-.89,1.73,2,2,0,0,0,.72,1.62,5.59,5.59,0,0,0,1.84.95q1.13.36,2.37.72a13.18,13.18,0,0,1,2.4,1,5,5,0,0,1,1.84,1.6,4.63,4.63,0,0,1,.71,2.71,4.7,4.7,0,0,1-1.73,3.82A7.19,7.19,0,0,1,609.78,805.66Z"/><path class="cls-6" d="M623.24,805.66a2,2,0,0,1-1.56-.65,2.17,2.17,0,0,1-.61-1.56,2.13,2.13,0,0,1,.61-1.54,2.09,2.09,0,0,1,1.56-.62,2,2,0,0,1,1.51.62,2.13,2.13,0,0,1,.61,1.54,2.17,2.17,0,0,1-.61,1.56A2,2,0,0,1,623.24,805.66Z"/><path class="cls-6" d="M634.22,805.66a2,2,0,0,1-1.56-.65,2.17,2.17,0,0,1-.61-1.56,2.13,2.13,0,0,1,.61-1.54,2.09,2.09,0,0,1,1.56-.62,2.06,2.06,0,0,1,1.52.62,2.16,2.16,0,0,1,.6,1.54,2.21,2.21,0,0,1-.6,1.56A2,2,0,0,1,634.22,805.66Z"/><path class="cls-6" d="M645.2,805.66a2,2,0,0,1-1.56-.65,2.17,2.17,0,0,1-.61-1.56,2.13,2.13,0,0,1,.61-1.54,2.09,2.09,0,0,1,1.56-.62,2.06,2.06,0,0,1,1.52.62,2.17,2.17,0,0,1,.61,1.54,2.22,2.22,0,0,1-.61,1.56A2,2,0,0,1,645.2,805.66Z"/></g></g></svg>