<svg xmlns="http://www.w3.org/2000/svg" xmlns:xlink="http://www.w3.org/1999/xlink" viewBox="0 0 793.4 912.48"><defs><style>.cls-1{isolation:isolate;}.cls-2,.cls-7{fill:#ec1c24;}.cls-3{opacity:0.6;mix-blend-mode:multiply;fill:url(#radial-gradient);}.cls-4{fill:#fff;}.cls-5{fill:#e43130;}.cls-6{fill:#231f20;}.cls-7{stroke:#ec1c24;stroke-miterlimit:10;}</style><radialGradient id="radial-gradient" cx="-5.9" cy="-6566.73" r="78.44" gradientTransform="translate(0 44336.41) scale(1 6.68)" gradientUnits="userSpaceOnUse"><stop offset="0" stop-color="#3e3e3e"/><stop offset="0.36" stop-color="#8f8f8f"/><stop offset="0.66" stop-color="#cbcbcb"/><stop offset="0.88" stop-color="#f1f1f1"/><stop offset="1" stop-color="#fff"/></radialGradient></defs><g class="cls-1"><g id="Layer_1" data-name="Layer 1"><polygon class="cls-2" points="-105.22 240.65 150.39 470.5 -105.22 700.34 -105.22 240.65"/><ellipse class="cls-3" cx="-5.9" cy="460.87" rx="75" ry="526.55"/><polygon class="cls-4" points="91.95 465.13 22.59 402.77 22.59 -224.52 -229.11 -224.52 -229.11 1165.51 22.59 1165.51 22.59 527.5 91.95 465.13"/><path class="cls-5" d="M108.08,83.71c0-12.29,6.54-18.83,18.84-18.83h14.65c12.29,0,18.83,6.54,18.83,18.83v67c0,12.3-6.54,18.84-18.83,18.84H126.92c-12.3,0-18.84-6.54-18.84-18.84Zm30.22,68.94c3.4,0,5.23-1.7,5.23-5.24V87c0-3.4-1.83-5.23-5.23-5.23h-7.59c-3.4,0-5.23,1.83-5.23,5.23v60.43c0,3.54,1.83,5.24,5.23,5.24Z"/><path class="cls-5" d="M225.93,107.78a9.44,9.44,0,0,1-8.24,9.29v.26a9.43,9.43,0,0,1,8.24,9.29v24.06c0,12.3-6.67,18.84-19,18.84H191.79c-11.9,0-18.31-6.41-18.31-18.31v-4.32a2.35,2.35,0,0,1,2.62-2.62h12.55a2.35,2.35,0,0,1,2.62,2.62v5.36h14.65a2.35,2.35,0,0,0,2.62-2.61V131.06c0-3.4-1.7-5.23-5.24-5.23H187.87a2.35,2.35,0,0,1-2.62-2.61v-12a2.35,2.35,0,0,1,2.62-2.61H203.3c3.4,0,5.24-1.83,5.24-5.1V84.76a2.35,2.35,0,0,0-2.62-2.61H191.27v5.36a2.34,2.34,0,0,1-2.62,2.61H176.1a2.35,2.35,0,0,1-2.62-2.61V82.15c0-11.25,6.41-17.27,18.31-17.27H207c12.29,0,19,6.54,19,18.83Z"/><path class="cls-2" d="M272.94,575.29v-56.7h13.93a30.3,30.3,0,0,1,6.82.7,14,14,0,0,1,5.25,2.34,10.64,10.64,0,0,1,3.4,4.45,18.23,18.23,0,0,1,1.19,7.07,16.32,16.32,0,0,1-.95,5.88,8.87,8.87,0,0,1-2.76,3.88,10.13,10.13,0,0,1-4.55,1.93,11.67,11.67,0,0,1,5.56,2.34,10.74,10.74,0,0,1,3.29,4.66,19.46,19.46,0,0,1,1.09,6.93,23,23,0,0,1-1,7.17,13.06,13.06,0,0,1-3,5.18,12.55,12.55,0,0,1-5,3.12,20.88,20.88,0,0,1-7,1Zm10.36-33.53h3.5a10.11,10.11,0,0,0,4.76-.91,4.9,4.9,0,0,0,2.34-2.8,14.35,14.35,0,0,0,.67-4.76,8.88,8.88,0,0,0-1-4.66,5.13,5.13,0,0,0-3-2.24,19.13,19.13,0,0,0-5.18-.59h-2Zm0,26.25h3.92c3.12,0,5.25-.76,6.37-2.28s1.68-3.86,1.68-7a16,16,0,0,0-.81-5.57A5.88,5.88,0,0,0,291.8,550a10,10,0,0,0-4.93-1.05H283.3Z"/><path class="cls-2" d="M327.47,576.06q-6.3,0-9.8-2.31a11.74,11.74,0,0,1-4.83-6.58A34.49,34.49,0,0,1,311.51,557V518.59h10.08v39.55a33,33,0,0,0,.35,5,7,7,0,0,0,1.64,3.78,5,5,0,0,0,3.89,1.44,4.92,4.92,0,0,0,3.95-1.44,7.45,7.45,0,0,0,1.61-3.78,30.45,30.45,0,0,0,.39-5V518.59h10V557a34.82,34.82,0,0,1-1.33,10.22,11.88,11.88,0,0,1-4.8,6.58Q333.84,576.06,327.47,576.06Z"/><path class="cls-2" d="M365.83,576.06a16.73,16.73,0,0,1-8.54-2,12.49,12.49,0,0,1-5.18-5.84,25.06,25.06,0,0,1-2-9.45L359,557a27.53,27.53,0,0,0,.8,5.81,8.36,8.36,0,0,0,2,3.88,4.88,4.88,0,0,0,3.61,1.37,4,4,0,0,0,3.57-1.51,6.49,6.49,0,0,0,1.05-3.81,10.33,10.33,0,0,0-1.68-6.09,26.44,26.44,0,0,0-4.48-4.76l-7.14-6.3a21.38,21.38,0,0,1-4.8-5.78,15.88,15.88,0,0,1-1.78-7.87q0-6.72,3.92-10.36T364.85,518a16,16,0,0,1,6.65,1.22,10.59,10.59,0,0,1,4.23,3.4,15.5,15.5,0,0,1,2.35,4.93,29.54,29.54,0,0,1,1,5.85l-8.82,1.54a31.31,31.31,0,0,0-.6-4.76,6.58,6.58,0,0,0-1.61-3.29,4.53,4.53,0,0,0-3.39-1.19,4.32,4.32,0,0,0-3.54,1.5,5.75,5.75,0,0,0-1.22,3.75,8.52,8.52,0,0,0,1.19,4.72,18.23,18.23,0,0,0,3.43,3.82l7.07,6.23a29.53,29.53,0,0,1,6,6.89,17.61,17.61,0,0,1,2.49,9.56,14.36,14.36,0,0,1-1.79,7.21,12.8,12.8,0,0,1-5,4.93A15,15,0,0,1,365.83,576.06Z"/><path class="cls-2" d="M386.41,575.29v-56.7h10.22v56.7Z"/><path class="cls-2" d="M405.38,575.29v-56.7h7.2l13.8,32.34V518.59h8.54v56.7h-6.86L414.2,541.41v33.88Z"/><path class="cls-2" d="M443.53,575.29v-56.7h23.8v7.28H453.88v16.31h10.58v7.21H453.88v18.76h13.58v7.14Z"/><path class="cls-2" d="M487.76,576.06a16.78,16.78,0,0,1-8.54-2,12.59,12.59,0,0,1-5.18-5.84,25.26,25.26,0,0,1-2-9.45L481,557a28.15,28.15,0,0,0,.81,5.81,8.36,8.36,0,0,0,2,3.88,4.88,4.88,0,0,0,3.61,1.37,4,4,0,0,0,3.56-1.51,6.49,6.49,0,0,0,1-3.81,10.33,10.33,0,0,0-1.68-6.09,26.36,26.36,0,0,0-4.47-4.76l-7.15-6.3a21.53,21.53,0,0,1-4.79-5.78,15.88,15.88,0,0,1-1.79-7.87q0-6.72,3.92-10.36T486.78,518a16,16,0,0,1,6.65,1.22,10.56,10.56,0,0,1,4.24,3.4,15.27,15.27,0,0,1,2.34,4.93,28.82,28.82,0,0,1,1,5.85l-8.82,1.54a30.16,30.16,0,0,0-.59-4.76,6.58,6.58,0,0,0-1.61-3.29,4.54,4.54,0,0,0-3.4-1.19,4.29,4.29,0,0,0-3.53,1.5,5.76,5.76,0,0,0-1.23,3.75,8.6,8.6,0,0,0,1.19,4.72,18.81,18.81,0,0,0,3.43,3.82l7.07,6.23a29.34,29.34,0,0,1,6,6.89,17.6,17.6,0,0,1,2.48,9.56,14.36,14.36,0,0,1-1.78,7.21,12.8,12.8,0,0,1-5,4.93A15,15,0,0,1,487.76,576.06Z"/><path class="cls-2" d="M521.5,576.06a16.78,16.78,0,0,1-8.54-2,12.59,12.59,0,0,1-5.18-5.84,25.26,25.26,0,0,1-2-9.45l8.89-1.75a28.15,28.15,0,0,0,.81,5.81,8.36,8.36,0,0,0,2,3.88,4.87,4.87,0,0,0,3.6,1.37,4,4,0,0,0,3.57-1.51,6.49,6.49,0,0,0,1-3.81,10.33,10.33,0,0,0-1.68-6.09,26.09,26.09,0,0,0-4.48-4.76l-7.14-6.3a21.53,21.53,0,0,1-4.79-5.78,15.88,15.88,0,0,1-1.79-7.87q0-6.72,3.92-10.36T520.52,518a16,16,0,0,1,6.65,1.22,10.56,10.56,0,0,1,4.24,3.4,15.27,15.27,0,0,1,2.34,4.93,28.82,28.82,0,0,1,1,5.85l-8.82,1.54a30.16,30.16,0,0,0-.59-4.76,6.58,6.58,0,0,0-1.61-3.29,4.54,4.54,0,0,0-3.4-1.19,4.29,4.29,0,0,0-3.53,1.5,5.76,5.76,0,0,0-1.23,3.75,8.6,8.6,0,0,0,1.19,4.72,18.81,18.81,0,0,0,3.43,3.82l7.07,6.23a29.34,29.34,0,0,1,6,6.89,17.6,17.6,0,0,1,2.48,9.56,14.36,14.36,0,0,1-1.78,7.21,12.8,12.8,0,0,1-5,4.93A15,15,0,0,1,521.5,576.06Z"/><path class="cls-2" d="M165.8,659.29V610.22h-9v-7.63h28.28v7.63h-8.89v49.07Z"/><path class="cls-2" d="M190.23,659.29v-56.7h13.58a30,30,0,0,1,9.7,1.36,11.16,11.16,0,0,1,6,4.66q2.06,3.28,2.06,9a27.46,27.46,0,0,1-.63,6.16,11.72,11.72,0,0,1-2.13,4.65,9.6,9.6,0,0,1-4.17,3l7.91,27.93H212.21l-6.86-26h-4.76v26Zm10.36-32.48h3.22a10.91,10.91,0,0,0,4.8-.88,5.06,5.06,0,0,0,2.55-2.8,13.25,13.25,0,0,0,.77-4.93c0-2.85-.52-5-1.57-6.41s-3.05-2.13-6-2.13h-3.78Z"/><path class="cls-2" d="M226.63,659.29,238,602.59H249l11.34,56.7h-9.59l-2.24-13.09h-9.87l-2.31,13.09Zm13.09-19.67h7.7l-3.85-23.8Z"/><path class="cls-2" d="M266,659.29v-56.7h7.21L287,634.93V602.59h8.54v56.7h-6.86l-13.86-33.88v33.88Z"/><path class="cls-2" d="M318.47,660.06a16.78,16.78,0,0,1-8.54-2,12.59,12.59,0,0,1-5.18-5.84,25.06,25.06,0,0,1-2-9.45l8.89-1.75a27.49,27.49,0,0,0,.81,5.81,8.36,8.36,0,0,0,2,3.88,4.87,4.87,0,0,0,3.6,1.37,4,4,0,0,0,3.57-1.51,6.49,6.49,0,0,0,1.05-3.81,10.33,10.33,0,0,0-1.68-6.09,26.09,26.09,0,0,0-4.48-4.76l-7.14-6.3a21.53,21.53,0,0,1-4.79-5.78,15.88,15.88,0,0,1-1.79-7.87q0-6.72,3.92-10.36c2.62-2.43,6.18-3.64,10.71-3.64a16,16,0,0,1,6.65,1.22,10.56,10.56,0,0,1,4.24,3.4,15.27,15.27,0,0,1,2.34,4.93,28.82,28.82,0,0,1,1,5.85l-8.82,1.54a30.16,30.16,0,0,0-.59-4.76,6.66,6.66,0,0,0-1.61-3.29,4.54,4.54,0,0,0-3.4-1.19,4.28,4.28,0,0,0-3.53,1.5,5.76,5.76,0,0,0-1.23,3.75,8.6,8.6,0,0,0,1.19,4.72,18.52,18.52,0,0,0,3.43,3.82l7.07,6.23a29.57,29.57,0,0,1,6,6.89,17.69,17.69,0,0,1,2.48,9.56,14.36,14.36,0,0,1-1.78,7.21,12.8,12.8,0,0,1-5,4.93A15,15,0,0,1,318.47,660.06Z"/><path class="cls-2" d="M338.77,659.29v-56.7h23.31v7.14H349.13v16.52H359.7v7.21H349.13v25.83Z"/><path class="cls-2" d="M383.08,660.06q-6,0-9.59-2.24a12.38,12.38,0,0,1-5.11-6.44,28.79,28.79,0,0,1-1.54-9.94V620.23a27.93,27.93,0,0,1,1.54-9.84,12.08,12.08,0,0,1,5.11-6.26q3.57-2.18,9.59-2.17t9.7,2.17a12.32,12.32,0,0,1,5.11,6.26,27.45,27.45,0,0,1,1.57,9.84v21.28a27.73,27.73,0,0,1-1.57,9.83,12.8,12.8,0,0,1-5.11,6.44Q389.24,660.06,383.08,660.06Zm0-7.63a5.52,5.52,0,0,0,3.82-1.12,5.67,5.67,0,0,0,1.64-3.08A20.41,20.41,0,0,0,389,644V617.85a19.74,19.74,0,0,0-.42-4.27,5.48,5.48,0,0,0-1.64-3,5.68,5.68,0,0,0-3.82-1.08,5.57,5.57,0,0,0-3.71,1.08,5.35,5.35,0,0,0-1.68,3,19.74,19.74,0,0,0-.42,4.27V644a21.92,21.92,0,0,0,.39,4.27,5.31,5.31,0,0,0,1.64,3.08A5.52,5.52,0,0,0,383.08,652.43Z"/><path class="cls-2" d="M407.09,659.29v-56.7h13.58a30,30,0,0,1,9.7,1.36,11.14,11.14,0,0,1,6,4.66q2.07,3.28,2.07,9a27.46,27.46,0,0,1-.63,6.16,11.72,11.72,0,0,1-2.13,4.65,9.66,9.66,0,0,1-4.17,3l7.91,27.93H429.07l-6.86-26h-4.76v26Zm10.36-32.48h3.22a10.84,10.84,0,0,0,4.79-.88,5,5,0,0,0,2.56-2.8,13.45,13.45,0,0,0,.77-4.93c0-2.85-.53-5-1.58-6.41s-3-2.13-6-2.13h-3.78Z"/><path class="cls-2" d="M446.22,659.29l1-56.7h10.71l8,39.27,8.4-39.27h10.36l1,56.7h-7.7l-.84-39.41-8.05,39.41H463l-8.19-39.55L454,659.29Z"/><path class="cls-2" d="M491.3,659.29l11.34-56.7H513.7L525,659.29h-9.59l-2.24-13.09h-9.87L501,659.29Zm13.09-19.67h7.7l-3.85-23.8Z"/><path class="cls-2" d="M533.37,659.29V610.22h-9v-7.63h28.28v7.63h-8.89v49.07Z"/><path class="cls-2" d="M558.08,659.29v-56.7H568.3v56.7Z"/><path class="cls-2" d="M592.45,660.06c-4,0-7.21-.75-9.59-2.24a12.34,12.34,0,0,1-5.11-6.44,28.79,28.79,0,0,1-1.54-9.94V620.23a27.93,27.93,0,0,1,1.54-9.84,12,12,0,0,1,5.11-6.26c2.38-1.45,5.57-2.17,9.59-2.17s7.34.72,9.69,2.17a12.27,12.27,0,0,1,5.11,6.26,27.43,27.43,0,0,1,1.58,9.84v21.28a27.72,27.72,0,0,1-1.58,9.83,12.75,12.75,0,0,1-5.11,6.44C599.79,659.3,596.55,660.06,592.45,660.06Zm0-7.63a5.49,5.49,0,0,0,3.81-1.12,5.62,5.62,0,0,0,1.65-3.08,20.41,20.41,0,0,0,.42-4.27V617.85a19.74,19.74,0,0,0-.42-4.27,5.43,5.43,0,0,0-1.65-3,5.65,5.65,0,0,0-3.81-1.08,5.55,5.55,0,0,0-3.71,1.08,5.35,5.35,0,0,0-1.68,3,19.74,19.74,0,0,0-.42,4.27V644a22.76,22.76,0,0,0,.38,4.27,5.38,5.38,0,0,0,1.65,3.08A5.52,5.52,0,0,0,592.45,652.43Z"/><path class="cls-2" d="M616.46,659.29v-56.7h7.21l13.79,32.34V602.59H646v56.7h-6.86l-13.86-33.88v33.88Z"/><path class="cls-6" d="M175.33,734.63a12.62,12.62,0,0,1-5.15-1,13.13,13.13,0,0,1-4.16-2.89,13.47,13.47,0,0,1-2.79-4.29,13.76,13.76,0,0,1-1-5.26,14,14,0,0,1,1-5.29,13.08,13.08,0,0,1,6.92-7.1,12.61,12.61,0,0,1,5.13-1,12.85,12.85,0,0,1,9.31,3.88,13,13,0,0,1,2.77,4.27,14.6,14.6,0,0,1,0,10.57,13,13,0,0,1-6.88,7.14A12.45,12.45,0,0,1,175.33,734.63Zm-.07-2.7a9.79,9.79,0,0,0,8.87-5.25,11.54,11.54,0,0,0,1.31-5.54,11.67,11.67,0,0,0-.76-4.28,10.73,10.73,0,0,0-2.13-3.42,9.55,9.55,0,0,0-3.21-2.26,10.21,10.21,0,0,0-4.08-.8,9.75,9.75,0,0,0-8.84,5.21,11.55,11.55,0,0,0-1.31,5.55,11.8,11.8,0,0,0,.76,4.29,10.61,10.61,0,0,0,2.13,3.44,9.53,9.53,0,0,0,3.23,2.26A10.14,10.14,0,0,0,175.26,731.93Z"/><path class="cls-6" d="M193.08,734.25V716.39h2.66v17.86Zm2.66-10.42-1.1-.49a8.12,8.12,0,0,1,1.65-5.36,5.59,5.59,0,0,1,4.54-2,6,6,0,0,1,2.43.47,6.24,6.24,0,0,1,2.06,1.5l-1.75,1.86a3.72,3.72,0,0,0-1.43-1,4.68,4.68,0,0,0-1.76-.31,4.43,4.43,0,0,0-3.35,1.35A5.55,5.55,0,0,0,195.74,723.83Z"/><path class="cls-6" d="M215.08,734.06a8.44,8.44,0,0,1-7.56-4.41,10,10,0,0,1,0-9.25,8.41,8.41,0,0,1,3.1-3.22,9.14,9.14,0,0,1,8.19-.38,6.83,6.83,0,0,1,2.66,2.27,7.43,7.43,0,0,1,1.23,3.43v5.06a7.35,7.35,0,0,1-1.25,3.4,7.17,7.17,0,0,1-2.66,2.28A8.2,8.2,0,0,1,215.08,734.06Zm-.19,8.09a11.07,11.07,0,0,1-4.81-1,8.63,8.63,0,0,1-3.4-2.83l1.75-1.75a7.29,7.29,0,0,0,2.7,2.25,8.69,8.69,0,0,0,3.84.79,6.93,6.93,0,0,0,4.84-1.63,5.71,5.71,0,0,0,1.81-4.45v-4.44l.53-4.07-.53-4v-4.59h2.66v17.13a8.61,8.61,0,0,1-1.18,4.53,8.15,8.15,0,0,1-3.29,3A10.65,10.65,0,0,1,214.89,742.15Zm.68-10.64a6.39,6.39,0,0,0,3.25-.8,5.5,5.5,0,0,0,2.17-2.26,7.19,7.19,0,0,0,.78-3.44,7,7,0,0,0-.78-3.38,5.85,5.85,0,0,0-2.19-2.28,6.21,6.21,0,0,0-3.26-.84,6.56,6.56,0,0,0-3.33.84,6.09,6.09,0,0,0-2.28,2.28,6.79,6.79,0,0,0-.82,3.38,6.7,6.7,0,0,0,.84,3.38,5.93,5.93,0,0,0,2.28,2.3A6.62,6.62,0,0,0,215.57,731.51Z"/><path class="cls-6" d="M237.39,734.63a8.57,8.57,0,0,1-4.56-1.24,8.82,8.82,0,0,1-3.18-3.32,9.62,9.62,0,0,1-1.16-4.72,9.79,9.79,0,0,1,1.16-4.77,8.8,8.8,0,0,1,3.18-3.34,8.49,8.49,0,0,1,4.52-1.23,8,8,0,0,1,3.66.81,7.08,7.08,0,0,1,2.63,2.28,7.44,7.44,0,0,1,1.23,3.4v5.59a7.56,7.56,0,0,1-1.23,3.42,7,7,0,0,1-2.63,2.3A7.94,7.94,0,0,1,237.39,734.63Zm.41-2.55a5.76,5.76,0,0,0,4.47-1.86,7,7,0,0,0,1.69-4.9,7.78,7.78,0,0,0-.78-3.56,5.84,5.84,0,0,0-2.17-2.39,6,6,0,0,0-3.24-.86,6.3,6.3,0,0,0-5.69,3.29,7.14,7.14,0,0,0-.85,3.52,7,7,0,0,0,.85,3.49,6.49,6.49,0,0,0,2.34,2.4A6.57,6.57,0,0,0,237.8,732.08Zm6,2.17v-4.79l.53-4.41-.53-4.29v-4.37h2.66v17.86Z"/><path class="cls-6" d="M251.86,734.25V716.39h2.66v17.86Zm13,0V723.76a5.3,5.3,0,0,0-1.39-3.82,4.78,4.78,0,0,0-3.66-1.46,5.31,5.31,0,0,0-2.74.68,5,5,0,0,0-1.86,1.86,5.27,5.27,0,0,0-.69,2.7l-1.21-.68a6.88,6.88,0,0,1,3.51-6.12,7.39,7.39,0,0,1,3.71-.91,6.76,6.76,0,0,1,6.13,3.64,7.62,7.62,0,0,1,.9,3.65v11Z"/><path class="cls-6" d="M273.87,712.51a1.74,1.74,0,0,1-1.3-.55,1.85,1.85,0,0,1-.53-1.31,1.82,1.82,0,0,1,.53-1.33,1.91,1.91,0,0,1,2.64,0,1.81,1.81,0,0,1,.52,1.33,1.84,1.84,0,0,1-.52,1.31A1.74,1.74,0,0,1,273.87,712.51Zm-1.33,21.74V716.39h2.69v17.86Z"/><path class="cls-6" d="M279.07,732.76l11.29-14.93h3.15l-11.29,14.93Zm0,1.49v-1.49l2.32-1h11.89v2.44Zm.65-15.47v-2.39h13.79v1.44l-2.51.95Z"/><path class="cls-6" d="M304.8,734.63a8.57,8.57,0,0,1-4.56-1.24,8.89,8.89,0,0,1-3.18-3.32,9.62,9.62,0,0,1-1.16-4.72,9.79,9.79,0,0,1,1.16-4.77,8.87,8.87,0,0,1,3.18-3.34,8.49,8.49,0,0,1,4.52-1.23,8.08,8.08,0,0,1,3.67.81,7,7,0,0,1,2.62,2.28,7.44,7.44,0,0,1,1.23,3.4v5.59a7.56,7.56,0,0,1-1.23,3.42,6.93,6.93,0,0,1-2.62,2.3A8,8,0,0,1,304.8,734.63Zm.41-2.55a5.76,5.76,0,0,0,4.47-1.86,7,7,0,0,0,1.69-4.9,7.78,7.78,0,0,0-.78-3.56,5.89,5.89,0,0,0-2.16-2.39,6.09,6.09,0,0,0-3.25-.86,6.49,6.49,0,0,0-3.37.88,6.37,6.37,0,0,0-2.31,2.41,7.14,7.14,0,0,0-.86,3.52,7,7,0,0,0,.86,3.49,6.39,6.39,0,0,0,2.33,2.4A6.57,6.57,0,0,0,305.21,732.08Zm6,2.17v-4.79l.53-4.41-.53-4.29v-4.37h2.66v17.86Z"/><path class="cls-6" d="M317.37,718.78v-2.39H329v2.39Zm4.53,15.47V708.86h2.66v25.39Z"/><path class="cls-6" d="M334,712.51a1.7,1.7,0,0,1-1.29-.55,1.82,1.82,0,0,1-.54-1.31,1.79,1.79,0,0,1,.54-1.33,1.72,1.72,0,0,1,1.29-.53,1.76,1.76,0,0,1,1.35.53,1.84,1.84,0,0,1,.51,1.33,1.88,1.88,0,0,1-.51,1.31A1.74,1.74,0,0,1,334,712.51Zm-1.33,21.74V716.39h2.7v17.86Z"/><path class="cls-6" d="M348.88,734.63a9,9,0,0,1-4.7-1.26,9.32,9.32,0,0,1-4.58-8.13,9,9,0,0,1,1.24-4.67,9.49,9.49,0,0,1,12.75-3.35,9.2,9.2,0,0,1,4.56,8,9.22,9.22,0,0,1-1.24,4.77,9.38,9.38,0,0,1-3.32,3.36A9,9,0,0,1,348.88,734.63Zm0-2.59a6.47,6.47,0,0,0,3.36-.87,6.31,6.31,0,0,0,2.32-2.43,7.17,7.17,0,0,0,.85-3.5,6.83,6.83,0,0,0-.85-3.44,6.66,6.66,0,0,0-9-2.37,6.21,6.21,0,0,0-2.32,2.37,7,7,0,0,0-.83,3.44,7.28,7.28,0,0,0,.83,3.51,6.14,6.14,0,0,0,2.32,2.42A6.49,6.49,0,0,0,348.88,732Z"/><path class="cls-6" d="M362.37,734.25V716.39H365v17.86Zm13,0V723.76a5.3,5.3,0,0,0-1.39-3.82,4.78,4.78,0,0,0-3.66-1.46,5.33,5.33,0,0,0-2.74.68,5.18,5.18,0,0,0-1.86,1.86,5.26,5.26,0,0,0-.68,2.7l-1.22-.68a6.92,6.92,0,0,1,.95-3.61,6.81,6.81,0,0,1,2.57-2.51A7.35,7.35,0,0,1,371,716a6.88,6.88,0,0,1,3.65,1,7,7,0,0,1,2.49,2.66,7.73,7.73,0,0,1,.89,3.65v11Z"/><path class="cls-6" d="M388.51,734.63a9.76,9.76,0,0,1-2.77-.4,9.09,9.09,0,0,1-2.42-1.12,8.79,8.79,0,0,1-1.88-1.71l1.71-1.75a6.62,6.62,0,0,0,5.44,2.54,4.88,4.88,0,0,0,2.79-.68,2.18,2.18,0,0,0,1-1.9,2.29,2.29,0,0,0-.73-1.79,5.16,5.16,0,0,0-1.84-1c-.75-.26-1.54-.5-2.37-.74a15.65,15.65,0,0,1-2.4-.91,4.77,4.77,0,0,1-1.84-1.54,4.36,4.36,0,0,1-.7-2.59,4.64,4.64,0,0,1,.74-2.64,4.84,4.84,0,0,1,2.13-1.75,7.84,7.84,0,0,1,3.28-.62,9,9,0,0,1,3.65.72,6.17,6.17,0,0,1,2.62,2.13l-1.71,1.71a5.3,5.3,0,0,0-2-1.58,6.3,6.3,0,0,0-2.68-.55,4.37,4.37,0,0,0-2.61.66,2.08,2.08,0,0,0-.89,1.73,2,2,0,0,0,.72,1.62,5.64,5.64,0,0,0,1.85.95c.74.24,1.54.48,2.37.72a13.18,13.18,0,0,1,2.4,1,5,5,0,0,1,1.84,1.59,5.28,5.28,0,0,1-1,6.54A7.14,7.14,0,0,1,388.51,734.63Z"/><path class="cls-6" d="M407.32,734.25V716.39H410v17.86Zm12.27,0v-11a4.68,4.68,0,0,0-1.33-3.51,4.53,4.53,0,0,0-3.34-1.31,5.2,5.2,0,0,0-2.49.59,4.59,4.59,0,0,0-1.79,1.65,4.73,4.73,0,0,0-.66,2.54l-1.22-.49a6.77,6.77,0,0,1,.92-3.57,6.31,6.31,0,0,1,2.45-2.36,7.09,7.09,0,0,1,3.47-.83,6.82,6.82,0,0,1,3.4.83,6.39,6.39,0,0,1,2.4,2.36,7,7,0,0,1,.89,3.61v11.44Zm12.32,0v-11a4.72,4.72,0,0,0-1.33-3.51,4.61,4.61,0,0,0-3.39-1.31,5.13,5.13,0,0,0-2.45.59,4.56,4.56,0,0,0-1.78,1.65,4.65,4.65,0,0,0-.67,2.54l-1.59-.49a7.15,7.15,0,0,1,1.08-3.57,6.7,6.7,0,0,1,2.54-2.36,7.3,7.3,0,0,1,3.48-.83,7.06,7.06,0,0,1,3.44.83,6.2,6.2,0,0,1,2.43,2.36,6.93,6.93,0,0,1,.9,3.61v11.44Z"/><path class="cls-6" d="M446.65,734.63a7.53,7.53,0,0,1-3.88-1,7.18,7.18,0,0,1-2.68-2.76,8.37,8.37,0,0,1-1-4.1V716.39h2.69v10.26a6.5,6.5,0,0,0,.59,2.85,4.52,4.52,0,0,0,1.69,1.9,4.81,4.81,0,0,0,2.55.68,4.49,4.49,0,0,0,3.55-1.48,5.73,5.73,0,0,0,1.31-4V716.39h2.66v10.37a8.5,8.5,0,0,1-.95,4.1,6.85,6.85,0,0,1-2.66,2.78A7.65,7.65,0,0,1,446.65,734.63Z"/><path class="cls-6" d="M464.62,734.63a9.82,9.82,0,0,1-2.77-.4,9,9,0,0,1-2.41-1.12,8.56,8.56,0,0,1-1.88-1.71l1.71-1.75a6.83,6.83,0,0,0,2.41,1.92,7,7,0,0,0,3,.62,4.88,4.88,0,0,0,2.79-.68,2.18,2.18,0,0,0,1-1.9,2.28,2.28,0,0,0-.72-1.79,5.21,5.21,0,0,0-1.85-1c-.74-.26-1.53-.5-2.37-.74a15.53,15.53,0,0,1-2.39-.91,4.8,4.8,0,0,1-1.85-1.54,4.36,4.36,0,0,1-.7-2.59,4.72,4.72,0,0,1,.74-2.64,4.84,4.84,0,0,1,2.13-1.75,7.89,7.89,0,0,1,3.29-.62,8.93,8.93,0,0,1,3.64.72,6.11,6.11,0,0,1,2.62,2.13l-1.71,1.71a5.22,5.22,0,0,0-2-1.58,6.3,6.3,0,0,0-2.68-.55,4.32,4.32,0,0,0-2.6.66,2.06,2.06,0,0,0-.89,1.73,2,2,0,0,0,.72,1.62,5.59,5.59,0,0,0,1.84.95c.75.24,1.54.48,2.38.72a13.37,13.37,0,0,1,2.39,1,5,5,0,0,1,1.84,1.59,5.3,5.3,0,0,1-1,6.54A7.19,7.19,0,0,1,464.62,734.63Z"/><path class="cls-6" d="M473.52,718.78v-2.39h11.66v2.39ZM478,734.25V708.86h2.66v25.39Z"/><path class="cls-6" d="M504.75,734.63a8.57,8.57,0,0,1-4.56-1.24,8.87,8.87,0,0,1-3.17-3.32,9.62,9.62,0,0,1-1.16-4.72,9.79,9.79,0,0,1,1.16-4.77,8.85,8.85,0,0,1,3.17-3.34,8.49,8.49,0,0,1,4.52-1.23,8.08,8.08,0,0,1,3.67.81A7,7,0,0,1,511,719.1a7.56,7.56,0,0,1,1.24,3.4v5.59a7.69,7.69,0,0,1-1.24,3.42,6.85,6.85,0,0,1-2.62,2.3A8,8,0,0,1,504.75,734.63Zm.42-2.55a5.72,5.72,0,0,0,4.46-1.86,7,7,0,0,0,1.7-4.9,7.78,7.78,0,0,0-.78-3.56,5.91,5.91,0,0,0-2.17-2.39,6.06,6.06,0,0,0-3.25-.86,6.43,6.43,0,0,0-3.36.88,6.32,6.32,0,0,0-2.32,2.41,7.14,7.14,0,0,0-.86,3.52,7,7,0,0,0,.86,3.49,6.42,6.42,0,0,0,2.34,2.4A6.54,6.54,0,0,0,505.17,732.08Zm6,2.17v-4.79l.54-4.41-.54-4.29v-4.37h2.66v17.86Z"/><path class="cls-6" d="M526.83,734.63a8.33,8.33,0,0,1-4.45-1.22,8.8,8.8,0,0,1-3.13-3.33,9.55,9.55,0,0,1-1.16-4.73,9.68,9.68,0,0,1,1.16-4.77,9,9,0,0,1,3.13-3.34,8.74,8.74,0,0,1,8.1-.44,7.35,7.35,0,0,1,2.71,2.27,6.69,6.69,0,0,1,1.28,3.43v5.59a7.22,7.22,0,0,1-4,5.7A7.92,7.92,0,0,1,526.83,734.63Zm.45-2.55a6.13,6.13,0,0,0,3.27-.86,5.94,5.94,0,0,0,2.21-2.39,7.56,7.56,0,0,0,.79-3.51,7.43,7.43,0,0,0-.81-3.54,6.26,6.26,0,0,0-2.23-2.39,6,6,0,0,0-3.26-.88,6.27,6.27,0,0,0-3.31.88,6.1,6.1,0,0,0-2.26,2.41,7.94,7.94,0,0,0,0,7,5.84,5.84,0,0,0,2.28,2.39A6.44,6.44,0,0,0,527.28,732.08Zm8.78,2.17H533.4v-4.79l.53-4.41-.53-4.29V707.34h2.66Z"/><path class="cls-6" d="M549.21,734.63a8.57,8.57,0,0,1-4.56-1.24,8.87,8.87,0,0,1-3.17-3.32,9.52,9.52,0,0,1-1.16-4.72,9.68,9.68,0,0,1,1.16-4.77,8.85,8.85,0,0,1,3.17-3.34,8.49,8.49,0,0,1,4.52-1.23,8.08,8.08,0,0,1,3.67.81,7,7,0,0,1,2.62,2.28,7.56,7.56,0,0,1,1.24,3.4v5.59a7.69,7.69,0,0,1-1.24,3.42,6.85,6.85,0,0,1-2.62,2.3A8,8,0,0,1,549.21,734.63Zm.42-2.55a5.72,5.72,0,0,0,4.46-1.86,7,7,0,0,0,1.69-4.9,7.78,7.78,0,0,0-.78-3.56,5.82,5.82,0,0,0-2.16-2.39,6.09,6.09,0,0,0-3.25-.86,6.43,6.43,0,0,0-3.36.88,6.32,6.32,0,0,0-2.32,2.41,7.14,7.14,0,0,0-.86,3.52,7,7,0,0,0,.86,3.49,6.42,6.42,0,0,0,2.34,2.4A6.52,6.52,0,0,0,549.63,732.08Zm6,2.17v-4.79l.53-4.41-.53-4.29v-4.37h2.66v17.86Z"/><path class="cls-6" d="M563.69,741.77V716.39h2.66V721l-.53,4.33.53,4.37v12.12Zm9.23-7.14a7.89,7.89,0,0,1-3.68-.84,7.22,7.22,0,0,1-4-5.7V722.5a7.12,7.12,0,0,1,4-5.7,8.7,8.7,0,0,1,8.08.44,9,9,0,0,1,3.13,3.34,10.36,10.36,0,0,1,0,9.49,8.76,8.76,0,0,1-3.13,3.32A8.35,8.35,0,0,1,572.92,734.63Zm-.45-2.55a6.44,6.44,0,0,0,3.34-.86,5.92,5.92,0,0,0,2.26-2.39,8,8,0,0,0,0-7.05,6.12,6.12,0,0,0-2.26-2.39,6.3,6.3,0,0,0-3.31-.88,6.05,6.05,0,0,0-5.51,3.27,8.26,8.26,0,0,0,0,7.05,5.94,5.94,0,0,0,2.21,2.39A6.13,6.13,0,0,0,572.47,732.08Z"/><path class="cls-6" d="M583.52,718.78v-2.39h11.67v2.39ZM588,734.25V708.86h2.67v25.39Z"/><path class="cls-6" d="M605.26,718.78v-2.39h11.66v2.39Zm4.52,15.47V708.86h2.66v25.39Z"/><path class="cls-6" d="M628,734.63a9,9,0,0,1-4.69-1.26,9.27,9.27,0,0,1-4.58-8.13,9,9,0,0,1,1.23-4.67,9.22,9.22,0,0,1,3.35-3.33,9.22,9.22,0,0,1,14,8,9.24,9.24,0,0,1-4.56,8.13A8.93,8.93,0,0,1,628,734.63Zm0-2.59a6.42,6.42,0,0,0,3.36-.87,6.24,6.24,0,0,0,2.32-2.43,7.17,7.17,0,0,0,.86-3.5,6.83,6.83,0,0,0-.86-3.44,6.65,6.65,0,0,0-9-2.37,6.21,6.21,0,0,0-2.32,2.37,6.93,6.93,0,0,0-.84,3.44,7.17,7.17,0,0,0,.84,3.51,6.14,6.14,0,0,0,2.32,2.42A6.47,6.47,0,0,0,628,732Z"/><path class="cls-6" d="M128.37,779.85V762H131v17.86Zm12.27,0v-11a4.68,4.68,0,0,0-1.33-3.51,4.55,4.55,0,0,0-3.34-1.31,5.15,5.15,0,0,0-2.49.59,4.52,4.52,0,0,0-1.79,1.65,4.73,4.73,0,0,0-.66,2.54l-1.22-.49a6.77,6.77,0,0,1,.91-3.57,6.45,6.45,0,0,1,2.45-2.36,7.27,7.27,0,0,1,3.48-.83,6.93,6.93,0,0,1,3.4.83,6.3,6.3,0,0,1,2.39,2.36,7,7,0,0,1,.9,3.61v11.44Zm12.31,0v-11a4.68,4.68,0,0,0-1.33-3.51,4.59,4.59,0,0,0-3.38-1.31,5.1,5.1,0,0,0-2.45.59,4.59,4.59,0,0,0-1.79,1.65,4.73,4.73,0,0,0-.66,2.54l-1.6-.49a7.26,7.26,0,0,1,1.09-3.57,6.7,6.7,0,0,1,2.54-2.36,7.39,7.39,0,0,1,3.48-.83,7.2,7.2,0,0,1,3.44.83,6.33,6.33,0,0,1,2.43,2.36,7.05,7.05,0,0,1,.89,3.61v11.44Z"/><path class="cls-6" d="M168.38,780.23a8.48,8.48,0,0,1-4.56-1.24,8.87,8.87,0,0,1-3.17-3.32,9.52,9.52,0,0,1-1.16-4.72,9.62,9.62,0,0,1,1.16-4.76,8.81,8.81,0,0,1,3.17-3.35,8.49,8.49,0,0,1,4.52-1.23,8.08,8.08,0,0,1,3.67.81,7,7,0,0,1,2.62,2.28,7.56,7.56,0,0,1,1.24,3.4v5.59a7.69,7.69,0,0,1-1.24,3.42,6.93,6.93,0,0,1-2.62,2.3A8,8,0,0,1,168.38,780.23Zm.42-2.55a5.72,5.72,0,0,0,4.46-1.86,7,7,0,0,0,1.69-4.9,7.78,7.78,0,0,0-.78-3.56A5.82,5.82,0,0,0,172,765a6.09,6.09,0,0,0-3.25-.86,6.43,6.43,0,0,0-3.36.88,6.32,6.32,0,0,0-2.32,2.41,7.14,7.14,0,0,0-.86,3.52,7,7,0,0,0,.86,3.49,6.35,6.35,0,0,0,2.34,2.4A6.52,6.52,0,0,0,168.8,777.68Zm6,2.17v-4.79l.53-4.41-.53-4.29V762h2.66v17.86Z"/><path class="cls-6" d="M182.86,779.85V762h2.66v17.86Zm2.66-10.42-1.1-.49a8.12,8.12,0,0,1,1.65-5.36,5.61,5.61,0,0,1,4.54-2,5.74,5.74,0,0,1,4.48,2l-1.74,1.86a3.79,3.79,0,0,0-1.43-1,4.9,4.9,0,0,0-1.77-.31,4.42,4.42,0,0,0-3.34,1.35A5.55,5.55,0,0,0,185.52,769.43Z"/><path class="cls-6" d="M197.91,779.85V752.94h2.66v26.91Zm11.51,0-9.12-9.16,9-8.7h3.3l-9.76,9.38.11-1.52,10,10Z"/><path class="cls-6" d="M223.4,780.23a9.54,9.54,0,0,1-4.82-1.22,9,9,0,0,1-3.37-3.34,9.41,9.41,0,0,1-1.23-4.79,9.28,9.28,0,0,1,1.21-4.73,9,9,0,0,1,3.31-3.33,9.11,9.11,0,0,1,4.67-1.21,8.34,8.34,0,0,1,4.32,1.1,7.85,7.85,0,0,1,3,3.06,9.14,9.14,0,0,1,1.09,4.5c0,.2,0,.44,0,.7a8.28,8.28,0,0,1-.16.93H215.88v-2.28h14l-1,.84a7.33,7.33,0,0,0-.66-3.4,5.07,5.07,0,0,0-2-2.2,6.08,6.08,0,0,0-3.17-.78,6.69,6.69,0,0,0-3.38.83,5.85,5.85,0,0,0-2.26,2.34,7.25,7.25,0,0,0-.82,3.55,7.38,7.38,0,0,0,.85,3.61,6.1,6.1,0,0,0,2.4,2.43,7,7,0,0,0,3.55.88,7.54,7.54,0,0,0,3-.59,5.91,5.91,0,0,0,2.32-1.77l1.71,1.75a8.59,8.59,0,0,1-3.1,2.3A9.76,9.76,0,0,1,223.4,780.23Z"/><path class="cls-6" d="M233.21,764.38V762h11.66v2.39Zm4.52,15.47V754.46h2.66v25.39Z"/><path class="cls-6" d="M264.29,780.23a8.33,8.33,0,0,1-4.45-1.22,8.85,8.85,0,0,1-3.13-3.32,10.31,10.31,0,0,1,0-9.5,8.94,8.94,0,0,1,3.13-3.35,8.74,8.74,0,0,1,8.1-.44,7.47,7.47,0,0,1,2.72,2.27,6.76,6.76,0,0,1,1.27,3.43v5.59a7.22,7.22,0,0,1-1.27,3.4,7.37,7.37,0,0,1-2.68,2.3A8,8,0,0,1,264.29,780.23Zm.46-2.55a6,6,0,0,0,3.26-.86,5.81,5.81,0,0,0,2.21-2.39,7.56,7.56,0,0,0,.8-3.51,7.43,7.43,0,0,0-.82-3.54A6.32,6.32,0,0,0,268,765a6.11,6.11,0,0,0-3.27-.88,6.32,6.32,0,0,0-3.31.88,6.18,6.18,0,0,0-2.26,2.41,7.94,7.94,0,0,0,0,7,5.91,5.91,0,0,0,2.28,2.39A6.38,6.38,0,0,0,264.75,777.68Zm8.77,2.17h-2.66v-4.79l.54-4.41-.54-4.29V752.94h2.66Z"/><path class="cls-6" d="M280.25,758.11a1.7,1.7,0,0,1-1.29-.55,1.91,1.91,0,0,1,0-2.64,1.72,1.72,0,0,1,1.29-.53,1.76,1.76,0,0,1,1.35.53,1.84,1.84,0,0,1,.51,1.33,1.86,1.86,0,0,1-.51,1.31A1.74,1.74,0,0,1,280.25,758.11Zm-1.33,21.74V762h2.7v17.86Z"/><path class="cls-6" d="M292.49,780.23a9.83,9.83,0,0,1-2.78-.4,9,9,0,0,1-2.41-1.12,8.54,8.54,0,0,1-1.88-1.71l1.71-1.75a6.92,6.92,0,0,0,2.41,1.92,7.06,7.06,0,0,0,3,.62,4.88,4.88,0,0,0,2.79-.68,2.16,2.16,0,0,0,1-1.9,2.3,2.3,0,0,0-.72-1.79,5.24,5.24,0,0,0-1.84-1c-.75-.25-1.54-.5-2.38-.74a15.93,15.93,0,0,1-2.39-.91,4.8,4.8,0,0,1-1.85-1.54,4.43,4.43,0,0,1-.7-2.59,4.72,4.72,0,0,1,.74-2.64,5,5,0,0,1,2.13-1.75,8.08,8.08,0,0,1,3.29-.62,9,9,0,0,1,3.65.72,6.17,6.17,0,0,1,2.62,2.13l-1.71,1.71a5.25,5.25,0,0,0-2-1.58,6.3,6.3,0,0,0-2.68-.55,4.34,4.34,0,0,0-2.6.66,2.08,2.08,0,0,0-.89,1.73,2,2,0,0,0,.72,1.62,5.59,5.59,0,0,0,1.84,1c.75.24,1.54.48,2.38.72a13.37,13.37,0,0,1,2.39.95,5,5,0,0,1,1.85,1.6,5.27,5.27,0,0,1-1,6.53A7.16,7.16,0,0,1,292.49,780.23Z"/><path class="cls-6" d="M303.13,779.85V762h2.66v17.86Zm2.66-10.42-1.11-.49a8.07,8.07,0,0,1,1.66-5.36,5.61,5.61,0,0,1,4.54-2,5.74,5.74,0,0,1,4.48,2l-1.75,1.86a3.69,3.69,0,0,0-1.42-1,4.9,4.9,0,0,0-1.77-.31,4.41,4.41,0,0,0-3.34,1.35A5.55,5.55,0,0,0,305.79,769.43Z"/><path class="cls-6" d="M325.24,780.23a7.47,7.47,0,0,1-3.87-1,7.11,7.11,0,0,1-2.68-2.76,8.26,8.26,0,0,1-1-4.1V762h2.7v10.26a6.5,6.5,0,0,0,.58,2.85,4.54,4.54,0,0,0,1.7,1.9,4.75,4.75,0,0,0,2.54.68,4.48,4.48,0,0,0,3.55-1.48,5.73,5.73,0,0,0,1.32-4V762h2.66v10.37a8.61,8.61,0,0,1-.95,4.1,7,7,0,0,1-2.66,2.78A7.69,7.69,0,0,1,325.24,780.23Z"/><path class="cls-6" d="M337.74,787.37V762h2.66v4.56l-.53,4.33.53,4.37v12.12Zm9.24-7.14a8,8,0,0,1-3.69-.84,7.37,7.37,0,0,1-2.68-2.3,7.22,7.22,0,0,1-1.27-3.4V768.1a7.07,7.07,0,0,1,1.29-3.43,7.23,7.23,0,0,1,2.72-2.27,8.68,8.68,0,0,1,8.07.44,8.88,8.88,0,0,1,3.14,3.35,10.34,10.34,0,0,1,0,9.48,8.79,8.79,0,0,1-3.14,3.32A8.26,8.26,0,0,1,347,780.23Zm-.46-2.55a6.38,6.38,0,0,0,3.35-.86,5.92,5.92,0,0,0,2.26-2.39,8.08,8.08,0,0,0,0-7,6.19,6.19,0,0,0-2.26-2.39,6.32,6.32,0,0,0-3.31-.88,6.2,6.2,0,0,0-3.29.88,6,6,0,0,0-2.22,2.39,8.17,8.17,0,0,0,0,7,5.85,5.85,0,0,0,2.2,2.39A6.09,6.09,0,0,0,346.52,777.68Z"/><path class="cls-6" d="M357.58,764.38V762h11.67v2.39Zm4.52,15.47V754.46h2.66v25.39Z"/><path class="cls-6" d="M374.22,758.11a1.73,1.73,0,0,1-1.29-.55,1.84,1.84,0,0,1-.53-1.31,1.82,1.82,0,0,1,.53-1.33,1.91,1.91,0,0,1,2.64,0,1.84,1.84,0,0,1,.51,1.33,1.86,1.86,0,0,1-.51,1.31A1.74,1.74,0,0,1,374.22,758.11Zm-1.33,21.74V762h2.7v17.86Z"/><path class="cls-6" d="M389.08,780.23a9,9,0,0,1-4.69-1.26,9.27,9.27,0,0,1-4.58-8.13,9,9,0,0,1,1.23-4.67,9.22,9.22,0,0,1,3.35-3.33,9.22,9.22,0,0,1,14,8,9.24,9.24,0,0,1-4.56,8.13A8.93,8.93,0,0,1,389.08,780.23Zm0-2.59a6.42,6.42,0,0,0,3.36-.87,6.24,6.24,0,0,0,2.32-2.43,7.17,7.17,0,0,0,.86-3.5,6.83,6.83,0,0,0-.86-3.44,6.65,6.65,0,0,0-9-2.37,6.21,6.21,0,0,0-2.32,2.37,6.93,6.93,0,0,0-.84,3.44,7.24,7.24,0,0,0,.84,3.52,6.18,6.18,0,0,0,2.32,2.41A6.45,6.45,0,0,0,389.08,777.64Z"/><path class="cls-6" d="M402.57,779.85V762h2.66v17.86Zm13,0V769.36a5.36,5.36,0,0,0-1.39-3.82,4.81,4.81,0,0,0-3.67-1.46,5.27,5.27,0,0,0-2.73.68,5.13,5.13,0,0,0-1.87,1.86,5.36,5.36,0,0,0-.68,2.7l-1.22-.68a6.87,6.87,0,0,1,3.52-6.12,7.38,7.38,0,0,1,3.7-.91,6.76,6.76,0,0,1,6.14,3.64,7.61,7.61,0,0,1,.89,3.65v11Z"/><path class="cls-6" d="M428.71,780.23a9.82,9.82,0,0,1-2.77-.4,9,9,0,0,1-2.41-1.12,8.54,8.54,0,0,1-1.88-1.71l1.71-1.75a6.92,6.92,0,0,0,2.41,1.92,7,7,0,0,0,3,.62,4.88,4.88,0,0,0,2.79-.68,2.18,2.18,0,0,0,1-1.9,2.3,2.3,0,0,0-.72-1.79,5.24,5.24,0,0,0-1.84-1c-.75-.25-1.54-.5-2.38-.74a15.53,15.53,0,0,1-2.39-.91,4.8,4.8,0,0,1-1.85-1.54,4.36,4.36,0,0,1-.7-2.59,4.72,4.72,0,0,1,.74-2.64,4.89,4.89,0,0,1,2.13-1.75,8,8,0,0,1,3.29-.62,8.93,8.93,0,0,1,3.64.72,6.2,6.2,0,0,1,2.63,2.13l-1.71,1.71a5.33,5.33,0,0,0-2-1.58,6.3,6.3,0,0,0-2.68-.55,4.32,4.32,0,0,0-2.6.66,2.06,2.06,0,0,0-.89,1.73,2,2,0,0,0,.72,1.62,5.59,5.59,0,0,0,1.84,1c.75.24,1.54.48,2.38.72a13.37,13.37,0,0,1,2.39.95,4.92,4.92,0,0,1,1.84,1.6,4.63,4.63,0,0,1,.71,2.71,4.7,4.7,0,0,1-1.73,3.82A7.19,7.19,0,0,1,428.71,780.23Z"/><path class="cls-6" d="M455.28,780.23a8.48,8.48,0,0,1-4.56-1.24,8.82,8.82,0,0,1-3.18-3.32,9.62,9.62,0,0,1-1.16-4.72,9.72,9.72,0,0,1,1.16-4.76,8.76,8.76,0,0,1,3.18-3.35,8.49,8.49,0,0,1,4.52-1.23,8,8,0,0,1,3.66.81,7.08,7.08,0,0,1,2.63,2.28,7.44,7.44,0,0,1,1.23,3.4v5.59a7.56,7.56,0,0,1-1.23,3.42,7,7,0,0,1-2.63,2.3A7.94,7.94,0,0,1,455.28,780.23Zm.41-2.55a5.76,5.76,0,0,0,4.47-1.86,7,7,0,0,0,1.69-4.9,7.78,7.78,0,0,0-.78-3.56A5.84,5.84,0,0,0,458.9,765a6,6,0,0,0-3.24-.86,6.49,6.49,0,0,0-3.37.88A6.4,6.4,0,0,0,450,767.4a7.14,7.14,0,0,0-.85,3.52,7,7,0,0,0,.85,3.49,6.35,6.35,0,0,0,2.34,2.4A6.57,6.57,0,0,0,455.69,777.68Zm6,2.17v-4.79l.53-4.41-.53-4.29V762h2.66v17.86Z"/><path class="cls-6" d="M469.75,779.85V762h2.66v17.86Zm13,0V769.36a5.31,5.31,0,0,0-1.39-3.82,4.79,4.79,0,0,0-3.66-1.46,5.31,5.31,0,0,0-2.74.68,5,5,0,0,0-1.86,1.86,5.27,5.27,0,0,0-.69,2.7l-1.21-.68a6.88,6.88,0,0,1,3.51-6.12,7.39,7.39,0,0,1,3.71-.91,6.76,6.76,0,0,1,6.13,3.64,7.62,7.62,0,0,1,.9,3.65v11Z"/><path class="cls-6" d="M498,780.23a8.32,8.32,0,0,1-4.44-1.22,8.87,8.87,0,0,1-3.14-3.32,10.38,10.38,0,0,1,0-9.5,9,9,0,0,1,3.14-3.35,8.72,8.72,0,0,1,8.09-.44,7.39,7.39,0,0,1,2.72,2.27,6.68,6.68,0,0,1,1.27,3.43v5.59a7.12,7.12,0,0,1-1.27,3.4,7.37,7.37,0,0,1-2.68,2.3A8,8,0,0,1,498,780.23Zm.46-2.55a6.09,6.09,0,0,0,3.27-.86,5.79,5.79,0,0,0,2.2-2.39,7.56,7.56,0,0,0,.8-3.51,7.31,7.31,0,0,0-.82-3.54,6,6,0,0,0-5.49-3.27,6.26,6.26,0,0,0-3.3.88,6,6,0,0,0-2.26,2.41,7.94,7.94,0,0,0,0,7,5.78,5.78,0,0,0,2.28,2.39A6.35,6.35,0,0,0,498.48,777.68Zm8.78,2.17H504.6v-4.79l.53-4.41-.53-4.29V752.94h2.66Z"/><path class="cls-6" d="M529,780.23a9.19,9.19,0,0,1-8.08-4.6,9.32,9.32,0,0,1-1.23-4.75,9.19,9.19,0,0,1,1.23-4.73,9,9,0,0,1,3.35-3.33,9.78,9.78,0,0,1,8.49-.45,8.33,8.33,0,0,1,3,2.12l-1.75,1.79a6.14,6.14,0,0,0-2.2-1.58,7.13,7.13,0,0,0-2.77-.55,6.49,6.49,0,0,0-3.39.88,6.19,6.19,0,0,0-2.31,2.37,7,7,0,0,0-.84,3.48,7.17,7.17,0,0,0,.84,3.48,6.16,6.16,0,0,0,2.31,2.41,6.58,6.58,0,0,0,3.39.87,7,7,0,0,0,2.81-.55,6.1,6.1,0,0,0,2.2-1.58l1.79,1.79a8.52,8.52,0,0,1-3,2.17A9.59,9.59,0,0,1,529,780.23Z"/><path class="cls-6" d="M539.48,779.85V752.94h2.66v26.91Zm13,0V769.36a5.31,5.31,0,0,0-1.39-3.82,4.8,4.8,0,0,0-3.67-1.46,5.3,5.3,0,0,0-2.73.68,5,5,0,0,0-1.86,1.86,5.27,5.27,0,0,0-.69,2.7l-1.21-.68a6.88,6.88,0,0,1,3.51-6.12,7.39,7.39,0,0,1,3.71-.91,7.09,7.09,0,0,1,3.64.93,6.45,6.45,0,0,1,2.49,2.56,7.76,7.76,0,0,1,.9,3.8v11Z"/><path class="cls-6" d="M567.91,780.23a8.48,8.48,0,0,1-4.56-1.24,8.89,8.89,0,0,1-3.18-3.32A9.62,9.62,0,0,1,559,771a9.72,9.72,0,0,1,1.16-4.76,8.83,8.83,0,0,1,3.18-3.35,8.49,8.49,0,0,1,4.52-1.23,8.08,8.08,0,0,1,3.67.81,7,7,0,0,1,2.62,2.28,7.44,7.44,0,0,1,1.23,3.4v5.59a7.56,7.56,0,0,1-1.23,3.42,6.93,6.93,0,0,1-2.62,2.3A8,8,0,0,1,567.91,780.23Zm.41-2.55a5.76,5.76,0,0,0,4.47-1.86,7,7,0,0,0,1.69-4.9,7.78,7.78,0,0,0-.78-3.56,5.89,5.89,0,0,0-2.16-2.39,6.09,6.09,0,0,0-3.25-.86,6.49,6.49,0,0,0-3.37.88,6.37,6.37,0,0,0-2.31,2.41,7.14,7.14,0,0,0-.86,3.52,7,7,0,0,0,.86,3.49,6.32,6.32,0,0,0,2.33,2.4A6.57,6.57,0,0,0,568.32,777.68Zm6,2.17v-4.79l.53-4.41-.53-4.29V762H577v17.86Z"/><path class="cls-6" d="M582.38,779.85V762H585v17.86Zm13,0V769.36a5.31,5.31,0,0,0-1.39-3.82,4.78,4.78,0,0,0-3.66-1.46,5.33,5.33,0,0,0-2.74.68,5,5,0,0,0-1.86,1.86,5.27,5.27,0,0,0-.69,2.7l-1.21-.68a6.88,6.88,0,0,1,3.51-6.12,7.39,7.39,0,0,1,3.71-.91,6.73,6.73,0,0,1,6.13,3.64,7.62,7.62,0,0,1,.9,3.65v11Z"/><path class="cls-6" d="M610.62,779.66a8.58,8.58,0,0,1-4.45-1.18,8.47,8.47,0,0,1-3.11-3.23,10,10,0,0,1,0-9.25,8.39,8.39,0,0,1,3.09-3.22,9.14,9.14,0,0,1,8.19-.38,6.76,6.76,0,0,1,2.66,2.27,7.44,7.44,0,0,1,1.24,3.43v5.06a7.25,7.25,0,0,1-1.26,3.4,7.09,7.09,0,0,1-2.66,2.28A8.16,8.16,0,0,1,610.62,779.66Zm-.19,8.09a11.07,11.07,0,0,1-4.81-1,8.57,8.57,0,0,1-3.4-2.83l1.75-1.75a7.29,7.29,0,0,0,2.7,2.25,8.62,8.62,0,0,0,3.83.79,6.94,6.94,0,0,0,4.85-1.63,5.71,5.71,0,0,0,1.8-4.45v-4.44l.54-4.07-.54-4V762h2.66v17.13a8.61,8.61,0,0,1-1.17,4.53,8.14,8.14,0,0,1-3.29,3A10.68,10.68,0,0,1,610.43,787.75Zm.68-10.64a6.42,6.42,0,0,0,3.25-.8,5.5,5.5,0,0,0,2.17-2.26,7.19,7.19,0,0,0,.78-3.44,7,7,0,0,0-.78-3.38,5.85,5.85,0,0,0-2.19-2.28,6.27,6.27,0,0,0-3.27-.84,6.53,6.53,0,0,0-3.32.84,6,6,0,0,0-2.28,2.28,7.3,7.3,0,0,0,0,6.76,5.8,5.8,0,0,0,2.28,2.3A6.59,6.59,0,0,0,611.11,777.11Z"/><path class="cls-6" d="M626.5,758.11a1.7,1.7,0,0,1-1.29-.55,1.91,1.91,0,0,1,0-2.64,1.72,1.72,0,0,1,1.29-.53,1.76,1.76,0,0,1,1.35.53,1.84,1.84,0,0,1,.51,1.33,1.86,1.86,0,0,1-.51,1.31A1.74,1.74,0,0,1,626.5,758.11Zm-1.33,21.74V762h2.7v17.86Z"/><path class="cls-6" d="M633.26,779.85V762h2.66v17.86Zm13,0V769.36a5.31,5.31,0,0,0-1.39-3.82,4.78,4.78,0,0,0-3.66-1.46,5.33,5.33,0,0,0-2.74.68,5.1,5.1,0,0,0-1.86,1.86,5.27,5.27,0,0,0-.69,2.7l-1.21-.68a6.92,6.92,0,0,1,.95-3.61,6.85,6.85,0,0,1,2.56-2.51,7.42,7.42,0,0,1,3.71-.91,6.88,6.88,0,0,1,3.65,1,7,7,0,0,1,2.49,2.66,7.73,7.73,0,0,1,.89,3.65v11Z"/><path class="cls-6" d="M661.5,779.66a8.44,8.44,0,0,1-7.56-4.41,10,10,0,0,1,0-9.25,8.39,8.39,0,0,1,3.09-3.22,9.14,9.14,0,0,1,8.19-.38,6.69,6.69,0,0,1,2.66,2.27,7.44,7.44,0,0,1,1.24,3.43v5.06a7.25,7.25,0,0,1-1.26,3.4,7.09,7.09,0,0,1-2.66,2.28A8.16,8.16,0,0,1,661.5,779.66Zm-.19,8.09a11.07,11.07,0,0,1-4.81-1,8.63,8.63,0,0,1-3.4-2.83l1.75-1.75a7.29,7.29,0,0,0,2.7,2.25,8.68,8.68,0,0,0,3.83.79,6.94,6.94,0,0,0,4.85-1.63,5.71,5.71,0,0,0,1.8-4.45v-4.44l.54-4.07-.54-4V762h2.66v17.13a8.61,8.61,0,0,1-1.17,4.53,8.08,8.08,0,0,1-3.29,3A10.68,10.68,0,0,1,661.31,787.75Zm.68-10.64a6.42,6.42,0,0,0,3.25-.8,5.5,5.5,0,0,0,2.17-2.26,7.19,7.19,0,0,0,.78-3.44,7,7,0,0,0-.78-3.38,5.85,5.85,0,0,0-2.19-2.28,6.22,6.22,0,0,0-3.27-.84,6.53,6.53,0,0,0-3.32.84,6,6,0,0,0-2.28,2.28,7.3,7.3,0,0,0,0,6.76,5.93,5.93,0,0,0,2.28,2.3A6.62,6.62,0,0,0,662,777.11Z"/><path class="cls-6" d="M125.78,825.83a9.54,9.54,0,0,1-4.82-1.22,9,9,0,0,1-3.37-3.34,9.41,9.41,0,0,1-1.23-4.79,9.28,9.28,0,0,1,1.21-4.73,9,9,0,0,1,3.31-3.33,9.11,9.11,0,0,1,4.67-1.21,8.36,8.36,0,0,1,4.32,1.1,7.85,7.85,0,0,1,3,3.06,9.13,9.13,0,0,1,1.08,4.5c0,.2,0,.44,0,.7a8.28,8.28,0,0,1-.16.93H118.26v-2.28h14l-.95.84a7.33,7.33,0,0,0-.66-3.4,5.15,5.15,0,0,0-2-2.21,6.18,6.18,0,0,0-3.17-.77,6.59,6.59,0,0,0-3.38.83,5.94,5.94,0,0,0-2.27,2.34,8.14,8.14,0,0,0,0,7.16,6.1,6.1,0,0,0,2.4,2.43,7,7,0,0,0,3.55.88,7.54,7.54,0,0,0,3-.59,5.91,5.91,0,0,0,2.32-1.77l1.71,1.75a8.59,8.59,0,0,1-3.1,2.3A9.76,9.76,0,0,1,125.78,825.83Z"/><path class="cls-6" d="M135.51,825.45l7.52-9.81,1.49,2-5.86,7.83Zm14,0-6-8.14-.57-.45-7.19-9.27h3.31l5.55,7.29.53.46,7.6,10.11Zm-4.14-8.63-1.52-1.94,5.47-7.29h3.16Z"/><path class="cls-6" d="M156.33,833V807.59H159v4.56l-.53,4.33.53,4.37V833Zm9.24-7.14a8,8,0,0,1-3.69-.84,7.37,7.37,0,0,1-2.68-2.3,7.22,7.22,0,0,1-1.27-3.4V813.7a7.07,7.07,0,0,1,1.29-3.43,7.23,7.23,0,0,1,2.72-2.27,8.68,8.68,0,0,1,8.07.44,8.93,8.93,0,0,1,3.14,3.34,10.36,10.36,0,0,1,0,9.49,8.79,8.79,0,0,1-3.14,3.32A8.34,8.34,0,0,1,165.57,825.83Zm-.46-2.55a6.47,6.47,0,0,0,3.35-.86,5.92,5.92,0,0,0,2.26-2.39,8.08,8.08,0,0,0,0-7,6.19,6.19,0,0,0-2.26-2.39,6.32,6.32,0,0,0-3.31-.88,6.2,6.2,0,0,0-3.29.88,6,6,0,0,0-2.22,2.39,8.17,8.17,0,0,0,0,7,5.85,5.85,0,0,0,2.2,2.39A6.18,6.18,0,0,0,165.11,823.28Z"/><path class="cls-6" d="M186.81,825.83a9.58,9.58,0,0,1-4.83-1.22,8.9,8.9,0,0,1-3.36-3.34,9.41,9.41,0,0,1-1.23-4.79,9.28,9.28,0,0,1,1.21-4.73,8.89,8.89,0,0,1,3.31-3.33,9.11,9.11,0,0,1,4.67-1.21,8.3,8.3,0,0,1,4.31,1.1,7.81,7.81,0,0,1,3,3.06,9.13,9.13,0,0,1,1.08,4.5,6.16,6.16,0,0,1,0,.7,6.34,6.34,0,0,1-.15.93H179.29v-2.28h14l-.95.84a7.33,7.33,0,0,0-.67-3.4,5.19,5.19,0,0,0-2-2.21,6.2,6.2,0,0,0-3.17-.77,6.63,6.63,0,0,0-3.39.83,6,6,0,0,0-2.26,2.34,8.14,8.14,0,0,0,0,7.16,6.14,6.14,0,0,0,2.39,2.43,7,7,0,0,0,3.56.88,7.54,7.54,0,0,0,3-.59,6,6,0,0,0,2.32-1.77l1.71,1.75a8.59,8.59,0,0,1-3.1,2.3A9.76,9.76,0,0,1,186.81,825.83Z"/><path class="cls-6" d="M207.14,825.83a9.19,9.19,0,0,1-8.08-4.6,9.32,9.32,0,0,1-1.23-4.75,9.19,9.19,0,0,1,1.23-4.73,9.07,9.07,0,0,1,3.35-3.33,9.78,9.78,0,0,1,8.49-.45,8.36,8.36,0,0,1,3,2.12l-1.75,1.79a6.26,6.26,0,0,0-2.21-1.58,7.09,7.09,0,0,0-2.77-.55,6.45,6.45,0,0,0-3.38.88,6.21,6.21,0,0,0-2.32,2.37,7,7,0,0,0-.84,3.48,7.1,7.1,0,0,0,.84,3.47,6.14,6.14,0,0,0,2.32,2.42,6.54,6.54,0,0,0,3.38.87,7,7,0,0,0,2.81-.55,6.14,6.14,0,0,0,2.21-1.58l1.78,1.79a8.43,8.43,0,0,1-3,2.17A9.59,9.59,0,0,1,207.14,825.83Z"/><path class="cls-6" d="M215.77,810v-2.39h11.66V810Zm4.52,15.47V800.06H223v25.39Z"/><path class="cls-6" d="M238.19,825.83a8.57,8.57,0,0,1-4.56-1.24,8.82,8.82,0,0,1-3.18-3.32,9.62,9.62,0,0,1-1.16-4.72,9.79,9.79,0,0,1,1.16-4.77,8.8,8.8,0,0,1,3.18-3.34,8.49,8.49,0,0,1,4.52-1.23,8,8,0,0,1,3.66.81,7.08,7.08,0,0,1,2.63,2.28,7.44,7.44,0,0,1,1.23,3.4v5.59a7.56,7.56,0,0,1-1.23,3.42,7,7,0,0,1-2.63,2.3A7.94,7.94,0,0,1,238.19,825.83Zm.41-2.55a5.76,5.76,0,0,0,4.47-1.86,7,7,0,0,0,1.69-4.9A7.78,7.78,0,0,0,244,813a5.84,5.84,0,0,0-2.17-2.39,6,6,0,0,0-3.24-.86,6.3,6.3,0,0,0-5.69,3.29,7.14,7.14,0,0,0-.85,3.52,7,7,0,0,0,.85,3.49,6.42,6.42,0,0,0,2.34,2.4A6.57,6.57,0,0,0,238.6,823.28Zm6,2.17v-4.79l.53-4.41-.53-4.29v-4.37h2.66v17.86Z"/><path class="cls-6" d="M250.76,810v-2.39h11.67V810Zm4.53,15.47V800.06h2.65v25.39Z"/><path class="cls-6" d="M267.41,803.71a1.74,1.74,0,0,1-1.3-.55,1.84,1.84,0,0,1-.53-1.31,1.82,1.82,0,0,1,.53-1.33,1.76,1.76,0,0,1,1.3-.53,1.79,1.79,0,0,1,1.35.53,1.84,1.84,0,0,1,.51,1.33,1.86,1.86,0,0,1-.51,1.31A1.77,1.77,0,0,1,267.41,803.71Zm-1.33,21.74V807.59h2.69v17.86Z"/><path class="cls-6" d="M282.26,825.83a9,9,0,0,1-4.69-1.26,9.32,9.32,0,0,1-4.58-8.13,8.94,8.94,0,0,1,1.24-4.67A9.49,9.49,0,0,1,287,808.42a9.2,9.2,0,0,1,4.56,8,9.3,9.3,0,0,1-4.56,8.13A9,9,0,0,1,282.26,825.83Zm0-2.59a6.48,6.48,0,0,0,3.37-.87,6.31,6.31,0,0,0,2.32-2.43,7.17,7.17,0,0,0,.85-3.5A6.83,6.83,0,0,0,288,813a6.66,6.66,0,0,0-9-2.37A6.21,6.21,0,0,0,276.6,813a6.92,6.92,0,0,0-.83,3.44,7.17,7.17,0,0,0,.83,3.51,6.14,6.14,0,0,0,2.32,2.42A6.47,6.47,0,0,0,282.26,823.24Z"/><path class="cls-6" d="M295.75,825.45V807.59h2.66v17.86Zm13,0V815a5.3,5.3,0,0,0-1.39-3.82,4.78,4.78,0,0,0-3.66-1.46,5.33,5.33,0,0,0-2.74.68,5,5,0,0,0-1.86,1.86,5.27,5.27,0,0,0-.69,2.7l-1.21-.68a6.88,6.88,0,0,1,3.51-6.12,7.39,7.39,0,0,1,3.71-.91,6.73,6.73,0,0,1,6.13,3.64,7.62,7.62,0,0,1,.9,3.65v11Z"/><path class="cls-6" d="M321.9,825.83a9.83,9.83,0,0,1-2.78-.4,9.18,9.18,0,0,1-2.41-1.12,8.79,8.79,0,0,1-1.88-1.71l1.71-1.75a6.92,6.92,0,0,0,2.41,1.92,7.06,7.06,0,0,0,3,.62,4.91,4.91,0,0,0,2.8-.68,2.17,2.17,0,0,0,1-1.9,2.28,2.28,0,0,0-.72-1.79,5.16,5.16,0,0,0-1.84-1c-.75-.26-1.54-.5-2.38-.74a15.93,15.93,0,0,1-2.39-.91,4.77,4.77,0,0,1-1.84-1.54,4.36,4.36,0,0,1-.71-2.59,4.72,4.72,0,0,1,.74-2.64,5,5,0,0,1,2.13-1.75,7.92,7.92,0,0,1,3.29-.62,9,9,0,0,1,3.65.72,6.17,6.17,0,0,1,2.62,2.13l-1.71,1.71a5.3,5.3,0,0,0-2-1.58,6.33,6.33,0,0,0-2.68-.55,4.37,4.37,0,0,0-2.61.66,2.08,2.08,0,0,0-.89,1.73,2,2,0,0,0,.72,1.62,5.69,5.69,0,0,0,1.84,1c.75.24,1.54.48,2.38.72a13.08,13.08,0,0,1,2.39.95,5,5,0,0,1,1.85,1.59,4.76,4.76,0,0,1,.7,2.72,4.7,4.7,0,0,1-1.73,3.82A7.16,7.16,0,0,1,321.9,825.83Z"/><path class="cls-6" d="M339,810v-2.39h11.67V810Zm4.52,15.47V800.06h2.66v25.39Z"/><path class="cls-6" d="M361.72,825.83a9,9,0,0,1-4.69-1.26,9.27,9.27,0,0,1-4.58-8.13,9,9,0,0,1,1.23-4.67,9.22,9.22,0,0,1,3.35-3.33,9.66,9.66,0,0,1,9.4,0,9,9,0,0,1,3.33,3.33,9.12,9.12,0,0,1,1.23,4.69,9.24,9.24,0,0,1-4.56,8.13A8.93,8.93,0,0,1,361.72,825.83Zm0-2.59a6.42,6.42,0,0,0,3.36-.87,6.24,6.24,0,0,0,2.32-2.43,7.17,7.17,0,0,0,.86-3.5,6.83,6.83,0,0,0-.86-3.44,6.65,6.65,0,0,0-9-2.37,6.21,6.21,0,0,0-2.32,2.37,6.93,6.93,0,0,0-.84,3.44,7.17,7.17,0,0,0,.84,3.51,6.14,6.14,0,0,0,2.32,2.42A6.47,6.47,0,0,0,361.72,823.24Z"/><path class="cls-6" d="M383.38,825.45V807.59H386v17.86ZM386,815l-1.1-.49a8.12,8.12,0,0,1,1.65-5.36,5.61,5.61,0,0,1,4.54-2,6.07,6.07,0,0,1,2.44.47,6.31,6.31,0,0,1,2.05,1.5L393.87,811a3.76,3.76,0,0,0-1.42-1,4.9,4.9,0,0,0-1.77-.31,4.43,4.43,0,0,0-3.35,1.35A5.55,5.55,0,0,0,386,815Z"/><path class="cls-6" d="M406.07,825.83a9.58,9.58,0,0,1-4.83-1.22,8.9,8.9,0,0,1-3.36-3.34,9.83,9.83,0,0,1,0-9.52,8.89,8.89,0,0,1,3.31-3.33,9.11,9.11,0,0,1,4.67-1.21,8.3,8.3,0,0,1,4.31,1.1,7.88,7.88,0,0,1,3,3.06,9.13,9.13,0,0,1,1.08,4.5,6.16,6.16,0,0,1,0,.7,8,8,0,0,1-.15.93H398.54v-2.28h14l-.95.84a7.33,7.33,0,0,0-.67-3.4,5.19,5.19,0,0,0-2-2.21,6.24,6.24,0,0,0-3.18-.77,6.59,6.59,0,0,0-3.38.83,6,6,0,0,0-2.26,2.34,8,8,0,0,0,0,7.16,6.14,6.14,0,0,0,2.39,2.43,7,7,0,0,0,3.56.88,7.57,7.57,0,0,0,3-.59,5.88,5.88,0,0,0,2.31-1.77l1.72,1.75A8.59,8.59,0,0,1,410,825,9.76,9.76,0,0,1,406.07,825.83Z"/><path class="cls-6" d="M418.27,825.45V807.59h2.65v17.86Zm12.27,0v-11a4.68,4.68,0,0,0-1.33-3.51,4.55,4.55,0,0,0-3.34-1.31,5.15,5.15,0,0,0-2.49.59,4.52,4.52,0,0,0-1.79,1.65,4.74,4.74,0,0,0-.67,2.54l-1.21-.49a6.77,6.77,0,0,1,.91-3.57,6.45,6.45,0,0,1,2.45-2.36,7.27,7.27,0,0,1,3.48-.83,6.93,6.93,0,0,1,3.4.83,6.3,6.3,0,0,1,2.39,2.36,6.93,6.93,0,0,1,.9,3.61v11.44Zm12.31,0v-11a4.68,4.68,0,0,0-1.33-3.51,4.59,4.59,0,0,0-3.38-1.31,5.1,5.1,0,0,0-2.45.59,4.52,4.52,0,0,0-1.79,1.65,4.73,4.73,0,0,0-.66,2.54l-1.6-.49a7.35,7.35,0,0,1,1.08-3.57,6.8,6.8,0,0,1,2.55-2.36,7.39,7.39,0,0,1,3.48-.83,7.2,7.2,0,0,1,3.44.83,6.33,6.33,0,0,1,2.43,2.36,7,7,0,0,1,.89,3.61v11.44Z"/><path class="cls-6" d="M458.28,825.83a8.57,8.57,0,0,1-4.56-1.24,8.87,8.87,0,0,1-3.17-3.32,9.52,9.52,0,0,1-1.16-4.72,9.68,9.68,0,0,1,1.16-4.77,8.85,8.85,0,0,1,3.17-3.34,8.49,8.49,0,0,1,4.52-1.23,8.08,8.08,0,0,1,3.67.81,7,7,0,0,1,2.62,2.28,7.56,7.56,0,0,1,1.24,3.4v5.59a7.69,7.69,0,0,1-1.24,3.42,6.93,6.93,0,0,1-2.62,2.3A8,8,0,0,1,458.28,825.83Zm.42-2.55a5.72,5.72,0,0,0,4.46-1.86,7,7,0,0,0,1.69-4.9,7.78,7.78,0,0,0-.78-3.56,5.89,5.89,0,0,0-2.16-2.39,6.09,6.09,0,0,0-3.25-.86,6.43,6.43,0,0,0-3.36.88A6.32,6.32,0,0,0,453,813a7.14,7.14,0,0,0-.86,3.52A7,7,0,0,0,453,820a6.35,6.35,0,0,0,2.34,2.4A6.52,6.52,0,0,0,458.7,823.28Zm6,2.17v-4.79l.53-4.41L464.7,812v-4.37h2.66v17.86Z"/><path class="cls-6" d="M474.09,803.71a1.74,1.74,0,0,1-1.3-.55,1.84,1.84,0,0,1-.53-1.31,1.82,1.82,0,0,1,.53-1.33,1.76,1.76,0,0,1,1.3-.53,1.79,1.79,0,0,1,1.35.53,1.84,1.84,0,0,1,.51,1.33,1.86,1.86,0,0,1-.51,1.31A1.77,1.77,0,0,1,474.09,803.71Zm-1.33,21.74V807.59h2.7v17.86Z"/><path class="cls-6" d="M480.85,825.45V807.59h2.66v17.86Zm13,0V815a5.34,5.34,0,0,0-1.39-3.82,4.81,4.81,0,0,0-3.67-1.46,5.27,5.27,0,0,0-2.73.68,5.13,5.13,0,0,0-1.87,1.86,5.36,5.36,0,0,0-.68,2.7l-1.22-.68a6.87,6.87,0,0,1,3.52-6.12,7.38,7.38,0,0,1,3.7-.91,6.76,6.76,0,0,1,6.14,3.64,7.61,7.61,0,0,1,.89,3.65v11Z"/><path class="cls-6" d="M509.69,833V807.59h2.66v4.56l-.53,4.33.53,4.37V833Zm9.24-7.14a8,8,0,0,1-3.69-.84,7.37,7.37,0,0,1-2.68-2.3,7.12,7.12,0,0,1-1.27-3.4V813.7a7.07,7.07,0,0,1,1.29-3.43A7.23,7.23,0,0,1,515.3,808a8.68,8.68,0,0,1,8.07.44,9,9,0,0,1,3.14,3.34,10.36,10.36,0,0,1,0,9.49,8.79,8.79,0,0,1-3.14,3.32A8.34,8.34,0,0,1,518.93,825.83Zm-.46-2.55a6.41,6.41,0,0,0,3.34-.86,5.88,5.88,0,0,0,2.27-2.39,8.08,8.08,0,0,0,0-7,6.14,6.14,0,0,0-2.27-2.39,6.61,6.61,0,0,0-6.59,0A6,6,0,0,0,513,813a8.17,8.17,0,0,0,0,7,5.79,5.79,0,0,0,2.2,2.39A6.18,6.18,0,0,0,518.47,823.28Z"/><path class="cls-6" d="M531.92,825.45V807.59h2.66v17.86ZM534.58,815l-1.1-.49a8.12,8.12,0,0,1,1.65-5.36,5.61,5.61,0,0,1,4.54-2,6.07,6.07,0,0,1,2.44.47,6.31,6.31,0,0,1,2,1.5L542.41,811a3.76,3.76,0,0,0-1.42-1,4.9,4.9,0,0,0-1.77-.31,4.43,4.43,0,0,0-3.35,1.35A5.55,5.55,0,0,0,534.58,815Z"/><path class="cls-6" d="M554.46,825.83a9,9,0,0,1-4.7-1.26,9.32,9.32,0,0,1-4.58-8.13,8.94,8.94,0,0,1,1.24-4.67,9.49,9.49,0,0,1,12.75-3.35,9.2,9.2,0,0,1,4.56,8,9.22,9.22,0,0,1-1.24,4.77,9.38,9.38,0,0,1-3.32,3.36A9,9,0,0,1,554.46,825.83Zm0-2.59a6.47,6.47,0,0,0,3.36-.87,6.31,6.31,0,0,0,2.32-2.43,7.17,7.17,0,0,0,.85-3.5,6.83,6.83,0,0,0-.85-3.44,6.66,6.66,0,0,0-9-2.37,6.21,6.21,0,0,0-2.32,2.37,7,7,0,0,0-.83,3.44,7.28,7.28,0,0,0,.83,3.51,6.14,6.14,0,0,0,2.32,2.42A6.49,6.49,0,0,0,554.46,823.24Z"/><path class="cls-6" d="M565.44,810v-2.39h16.45V810Zm4.48,15.47V804.17a6.17,6.17,0,0,1,.76-3.1,5.6,5.6,0,0,1,2.11-2.13,6.15,6.15,0,0,1,3.14-.78,5.79,5.79,0,0,1,2.37.46,6.36,6.36,0,0,1,1.92,1.29l-1.79,1.79a3.21,3.21,0,0,0-1.16-.78,3.61,3.61,0,0,0-1.38-.25,3,3,0,0,0-2.42,1,3.77,3.77,0,0,0-.85,2.6v21.21Zm11.82-20.07a1.7,1.7,0,0,1-1.31-.55,1.86,1.86,0,0,1-.51-1.31,1.84,1.84,0,0,1,.51-1.33,1.76,1.76,0,0,1,1.31-.53,1.87,1.87,0,0,1,1.33,3.17A1.77,1.77,0,0,1,581.74,805.38Zm-1.33,20.07V807.59h2.7v17.86Z"/><path class="cls-6" d="M586.76,810v-2.39h11.66V810Zm4.52,15.47V800.06h2.66v25.39Z"/><path class="cls-6" d="M609.18,825.83a8.57,8.57,0,0,1-4.56-1.24,8.82,8.82,0,0,1-3.18-3.32,9.62,9.62,0,0,1-1.16-4.72,9.79,9.79,0,0,1,1.16-4.77,8.8,8.8,0,0,1,3.18-3.34,8.49,8.49,0,0,1,4.52-1.23,8,8,0,0,1,3.66.81,7.08,7.08,0,0,1,2.63,2.28,7.44,7.44,0,0,1,1.23,3.4v5.59a7.56,7.56,0,0,1-1.23,3.42,7,7,0,0,1-2.63,2.3A7.94,7.94,0,0,1,609.18,825.83Zm.41-2.55a5.76,5.76,0,0,0,4.47-1.86,7,7,0,0,0,1.69-4.9A7.78,7.78,0,0,0,615,813a5.84,5.84,0,0,0-2.17-2.39,6,6,0,0,0-3.24-.86,6.49,6.49,0,0,0-3.37.88,6.4,6.4,0,0,0-2.32,2.41,7.14,7.14,0,0,0-.85,3.52,7,7,0,0,0,.85,3.49,6.35,6.35,0,0,0,2.34,2.4A6.57,6.57,0,0,0,609.59,823.28Zm6,2.17v-4.79l.53-4.41L615.6,812v-4.37h2.66v17.86Z"/><path class="cls-6" d="M623.65,825.45V798.54h2.66V812l-.53,4.29.53,4.41v4.79Zm9.24.38a8,8,0,0,1-3.69-.84,7.37,7.37,0,0,1-2.68-2.3,7.22,7.22,0,0,1-1.27-3.4V813.7a7.07,7.07,0,0,1,1.29-3.43,7.23,7.23,0,0,1,2.72-2.27,8.68,8.68,0,0,1,8.07.44,9,9,0,0,1,3.14,3.34,10.36,10.36,0,0,1,0,9.49,8.79,8.79,0,0,1-3.14,3.32A8.34,8.34,0,0,1,632.89,825.83Zm-.46-2.55a6.41,6.41,0,0,0,3.34-.86A5.88,5.88,0,0,0,638,820a8.08,8.08,0,0,0,0-7,6.14,6.14,0,0,0-2.27-2.39,6.61,6.61,0,0,0-6.59,0A6,6,0,0,0,627,813a8.17,8.17,0,0,0,0,7,5.85,5.85,0,0,0,2.2,2.39A6.18,6.18,0,0,0,632.43,823.28Z"/><path class="cls-6" d="M645.88,825.45V798.54h2.66v26.91Z"/><path class="cls-6" d="M656.75,825.83a2.07,2.07,0,0,1-1.56-.65,2.22,2.22,0,0,1-.61-1.56,2.15,2.15,0,0,1,.61-1.54,2.08,2.08,0,0,1,1.56-.62,2,2,0,0,1,1.52.62,2.15,2.15,0,0,1,.61,1.54,2.22,2.22,0,0,1-.61,1.56A2,2,0,0,1,656.75,825.83Z"/><path class="cls-6" d="M667.73,825.83a2.07,2.07,0,0,1-1.56-.65,2.21,2.21,0,0,1-.6-1.56,2.14,2.14,0,0,1,.6-1.54,2.08,2.08,0,0,1,1.56-.62,2,2,0,0,1,1.52.62,2.11,2.11,0,0,1,.61,1.54,2.17,2.17,0,0,1-.61,1.56A2,2,0,0,1,667.73,825.83Z"/><path class="cls-6" d="M678.71,825.83a2,2,0,0,1-1.55-.65,2.17,2.17,0,0,1-.61-1.56,2.11,2.11,0,0,1,.61-1.54,2,2,0,0,1,1.55-.62,2,2,0,0,1,1.52.62,2.11,2.11,0,0,1,.61,1.54,2.17,2.17,0,0,1-.61,1.56A2,2,0,0,1,678.71,825.83Z"/><g id="_3353_-_Integration" data-name="3353 - Integration"><path class="cls-7" d="M475.79,419a6.66,6.66,0,0,0-6.63,11.32,6.35,6.35,0,0,0,1.82,1.11,1.57,1.57,0,0,0,.23.09,6.06,6.06,0,0,0,1.85.39A6.67,6.67,0,0,0,475.79,419Zm2,7.82a4.52,4.52,0,0,1-5.79,2.7l-.18-.07a4.5,4.5,0,0,1-2.54-5.74,4.53,4.53,0,0,1,8.79,1.56A4.46,4.46,0,0,1,477.75,426.8Z"/><path class="cls-7" d="M323.11,441.78a6.65,6.65,0,0,0-7.12-2.63,6.25,6.25,0,0,0-2.17,1,6.52,6.52,0,0,0-1.38,1.29,6.67,6.67,0,1,0,10.67.35Zm-2.87,7.54a4.53,4.53,0,1,1-2.6-8.25,4.53,4.53,0,0,1,2.6,8.25Z"/><path class="cls-2" d="M396.67,304.34a6.69,6.69,0,1,0-.16,4.21,6.27,6.27,0,0,0,.42-2.09,2.09,2.09,0,0,0,0-.25A6.41,6.41,0,0,0,396.67,304.34Zm-6.4,6.41a4.54,4.54,0,1,1,4.53-4.54v.17A4.57,4.57,0,0,1,390.27,310.75Z"/><path class="cls-7" d="M395.1,404.11v7.53l-23.6-16.82L395.1,378v7.51h32.41q-.27-1.06-.6-2.13a38.39,38.39,0,1,0,0,22.86c.23-.71.43-1.42.61-2.15Zm-4.83,27a36.25,36.25,0,1,1,34.4-47.67H397.24V378a2.14,2.14,0,0,0-3.38-1.74l-23.6,16.8a2.13,2.13,0,0,0,0,3.48l23.6,16.82a2.13,2.13,0,0,0,1.24.4,2.27,2.27,0,0,0,1-.23,2.15,2.15,0,0,0,1.16-1.9v-5.39h27.42A36.2,36.2,0,0,1,390.27,431.07Z"/><path class="cls-7" d="M458,382.3H446.28a56.51,56.51,0,0,0-7.55-18.21l8.3-8.32a2.12,2.12,0,0,0,0-3l-14.69-14.68a2.12,2.12,0,0,0-3,0l-8.31,8.3a56.88,56.88,0,0,0-18.22-7.55V327.08a2.14,2.14,0,0,0-2.14-2.14H379.89a2.14,2.14,0,0,0-2.14,2.14v11.74a56.69,56.69,0,0,0-18.22,7.55l-8.31-8.3a2.12,2.12,0,0,0-3,0l-14.69,14.68a2.15,2.15,0,0,0-.63,1.51,2.09,2.09,0,0,0,.63,1.51l8.3,8.31a56.58,56.58,0,0,0-7.56,18.22H322.51a2.14,2.14,0,0,0-2.13,2.14v20.78a2.13,2.13,0,0,0,2.13,2.13h11.75a56.71,56.71,0,0,0,7.55,18.23l-8.3,8.3a2.15,2.15,0,0,0-.63,1.51,2.09,2.09,0,0,0,.63,1.51l14.69,14.69a2.14,2.14,0,0,0,3,0l8.31-8.31a56.71,56.71,0,0,0,18.22,7.56v11.74a2.14,2.14,0,0,0,2.14,2.14h20.76a2.14,2.14,0,0,0,2.14-2.14V450.83A56.56,56.56,0,0,0,421,443.28l8.31,8.31a2.14,2.14,0,0,0,3,0L447,436.9a2.12,2.12,0,0,0,0-3l-8.3-8.3a57,57,0,0,0,7.56-18.23H458a2.13,2.13,0,0,0,2.13-2.13V384.44A2.14,2.14,0,0,0,458,382.3Zm-2.14,20.77H444.55a2.13,2.13,0,0,0-2.1,1.74,52.72,52.72,0,0,1-8.22,19.84,2.15,2.15,0,0,0,.25,2.72l8,8-11.67,11.67-8-8a2.14,2.14,0,0,0-2.71-.26A52.71,52.71,0,0,1,400.26,447a2.12,2.12,0,0,0-1.74,2.09v11.35H382V449.08a2.14,2.14,0,0,0-1.74-2.1,52.46,52.46,0,0,1-19.84-8.22,2.14,2.14,0,0,0-2.72.26l-8,8L338,435.38l8-8a2.14,2.14,0,0,0,.25-2.71,52.53,52.53,0,0,1-8.22-19.84,2.13,2.13,0,0,0-2.1-1.74H324.65v-16.5H336a2.13,2.13,0,0,0,2.1-1.74A52.74,52.74,0,0,1,346.31,365a2.13,2.13,0,0,0-.25-2.71l-8-8,11.66-11.66,8,8a2.14,2.14,0,0,0,2.72.26,52.65,52.65,0,0,1,19.84-8.22,2.13,2.13,0,0,0,1.74-2.1V329.21h16.49v11.34a2.15,2.15,0,0,0,1.74,2.1,52.79,52.79,0,0,1,19.84,8.22,2.15,2.15,0,0,0,2.72-.25l8-8,11.67,11.67-8,8a2.15,2.15,0,0,0-.25,2.72,52.29,52.29,0,0,1,8.22,19.83,2.13,2.13,0,0,0,2.1,1.74h11.35Z"/><path class="cls-7" d="M429.64,385.26a0,0,0,0,0,0,0c0-.07,0-.15-.05-.21a1.74,1.74,0,0,1-.05-.22h0a40.52,40.52,0,1,0,0,20.08h0a1.74,1.74,0,0,1,.05-.22c0-.07,0-.14.05-.21a0,0,0,0,0,0,0,40.39,40.39,0,0,0,0-19.14Zm-5,21a36.23,36.23,0,1,1,0-22.86c.23.7.44,1.41.64,2.13,0,.17.08.35.13.52.13.54.25,1.08.36,1.63a36.4,36.4,0,0,1,.71,7.14,35.87,35.87,0,0,1-.71,7.17c-.11.54-.23,1.08-.36,1.61-.05.17-.09.35-.13.51C425.11,404.84,424.9,405.56,424.66,406.26Z"/><path class="cls-7" d="M429.66,404.13a2.45,2.45,0,0,1,0,.27,0,0,0,0,1,0,0,1.58,1.58,0,0,1-.1.43h0a2.13,2.13,0,0,1-2,1.39H397.24v5.39a2.15,2.15,0,0,1-1.16,1.9,2.27,2.27,0,0,1-1,.23,2.13,2.13,0,0,1-1.24-.4l-23.6-16.82a2.13,2.13,0,0,1,0-3.48l23.6-16.8a2.14,2.14,0,0,1,3.38,1.74v5.38h30.28a2.14,2.14,0,0,1,2,1.39h0a2.07,2.07,0,0,1,.1.43,0,0,0,0,1,0,0,2.46,2.46,0,0,1,0,.28,2.14,2.14,0,0,1-2.14,2.14H395.1a2.13,2.13,0,0,1-2.13-2.14v-3.37l-17.78,12.67L393,407.5v-3.37A2.13,2.13,0,0,1,395.1,402h32.42A2.14,2.14,0,0,1,429.66,404.13Z"/><path class="cls-7" d="M478.88,397a2.14,2.14,0,0,1-2.14-2.14c0-45-35.12-82.89-80-86.23a2.14,2.14,0,1,1,.32-4.27A90.76,90.76,0,0,1,481,394.82,2.14,2.14,0,0,1,478.88,397Z"/><path class="cls-2" d="M398.9,304.48a8.78,8.78,0,1,0-.19,4.28,8.36,8.36,0,0,0,.36-2.19c0-.11,0-.24,0-.36A8.26,8.26,0,0,0,398.9,304.48Zm-8.63,6.27a4.54,4.54,0,1,1,4.53-4.54v.17A4.57,4.57,0,0,1,390.27,310.75Z"/><path class="cls-7" d="M314,442.14a2.15,2.15,0,0,1-1.84-1.05,90.77,90.77,0,0,1,26.07-120.64,2.14,2.14,0,1,1,2.45,3.5c-36.89,25.8-47.81,76.29-24.85,115a2.14,2.14,0,0,1-.75,2.94A2.1,2.1,0,0,1,314,442.14Z"/><path class="cls-7" d="M324.87,440.55a8.81,8.81,0,0,0-12.27-2.17,8.52,8.52,0,0,0-1.32,1.14,8.8,8.8,0,0,0-.86,11.13,8.81,8.81,0,0,0,7.23,3.76,8.7,8.7,0,0,0,5-1.59A8.83,8.83,0,0,0,324.87,440.55Zm-4.63,8.77a4.53,4.53,0,1,1-2.6-8.25,4.53,4.53,0,0,1,2.6,8.25Z"/><path class="cls-7" d="M390.29,485.6a90.86,90.86,0,0,1-31.17-5.53,2.14,2.14,0,1,1,1.46-4c42.28,15.45,89.92-4.54,108.45-45.51a2.14,2.14,0,0,1,3.9,1.76,90.88,90.88,0,0,1-82.64,53.3Z"/><path class="cls-7" d="M476.52,417a8.8,8.8,0,0,0-8.3,15.31,8.52,8.52,0,0,0,2,1.12l.24.09,0,0a8.81,8.81,0,0,0,1.68.43,7.68,7.68,0,0,0,1.35.11,9,9,0,0,0,3.71-.82,8.81,8.81,0,0,0-.7-16.26ZM472,429.5l-.18-.07a4.5,4.5,0,0,1-2.54-5.74,4.53,4.53,0,0,1,8.79,1.56A4.53,4.53,0,0,1,472,429.5Z"/></g></g></g></svg>