<svg xmlns="http://www.w3.org/2000/svg" xmlns:xlink="http://www.w3.org/1999/xlink" viewBox="0 0 204.35 383.31"><defs><style>.cls-1{isolation:isolate;}.cls-2,.cls-32{fill:#fff;}.cls-3,.cls-35,.cls-8{fill:#006e75;}.cls-4{fill:#9bdc94;}.cls-5{fill:#109198;}.cls-6{fill:#315f6f;}.cls-39,.cls-7{fill:none;stroke:#006e75;stroke-miterlimit:10;}.cls-7{stroke-width:0.96px;}.cls-8{font-size:6px;font-family:Outfit-Light, Outfit;font-weight:300;}.cls-9{letter-spacing:-0.03em;}.cls-10{letter-spacing:-0.02em;}.cls-11{letter-spacing:0em;}.cls-12{letter-spacing:0em;}.cls-13{letter-spacing:-0.02em;}.cls-14{letter-spacing:-0.03em;}.cls-15{letter-spacing:-0.01em;}.cls-16{letter-spacing:-0.01em;}.cls-17{letter-spacing:-0.02em;}.cls-18{letter-spacing:-0.01em;}.cls-19{letter-spacing:-0.01em;}.cls-20{letter-spacing:-0.01em;}.cls-21{letter-spacing:-0.01em;}.cls-22{letter-spacing:-0.04em;}.cls-23{letter-spacing:0.01em;}.cls-24{letter-spacing:-0.02em;}.cls-25{letter-spacing:-0.03em;}.cls-26{letter-spacing:-0.02em;}.cls-27{letter-spacing:-0.03em;}.cls-28{opacity:0.4;mix-blend-mode:multiply;}.cls-29,.cls-30{fill:#d1d1d1;}.cls-30,.cls-32{font-size:22.69px;font-family:Aller-Bold, Aller Bold;font-weight:700;}.cls-31{fill:url(#linear-gradient);}.cls-33{fill:url(#linear-gradient-2);}.cls-34{fill:url(#linear-gradient-3);}.cls-35{font-size:14px;font-family:Oswald-Regular, Oswald;}.cls-36{letter-spacing:-0.01em;}.cls-37{letter-spacing:0em;}.cls-38{letter-spacing:0em;}</style><linearGradient id="linear-gradient" x1="194.79" y1="53.08" x2="142.71" y2="99.73" gradientUnits="userSpaceOnUse"><stop offset="0" stop-color="#e0ffad"/><stop offset="0.01" stop-color="#dffead"/><stop offset="0.99" stop-color="#8bd09a"/></linearGradient><linearGradient id="linear-gradient-2" x1="199.87" y1="166.56" x2="142.35" y2="212.76" gradientUnits="userSpaceOnUse"><stop offset="0" stop-color="#61ffbc"/><stop offset="0.01" stop-color="#60febc"/><stop offset="0.99" stop-color="#0caaa9"/></linearGradient><linearGradient id="linear-gradient-3" x1="198.9" y1="279.11" x2="138.59" y2="333.45" gradientUnits="userSpaceOnUse"><stop offset="0" stop-color="#82ffd8"/><stop offset="0.58" stop-color="#35869b"/><stop offset="1" stop-color="#003171"/></linearGradient></defs><g class="cls-1"><g id="BACKGROUND"><rect class="cls-2" x="-161.43" y="-49.76" width="500" height="500"/></g><g id="OBJECTS"><path class="cls-3" d="M112.48,372V14.72A7.51,7.51,0,0,1,120,7.21h0a7.52,7.52,0,0,1,7.52,7.51V372a7.52,7.52,0,0,1-7.52,7.52h0A7.52,7.52,0,0,1,112.48,372Z"/><path class="cls-4" d="M125.71,100.42H114.28A5.38,5.38,0,0,1,108.9,95h0a5.38,5.38,0,0,1,5.38-5.38h11.43A5.37,5.37,0,0,1,131.08,95h0A5.37,5.37,0,0,1,125.71,100.42Z"/><path class="cls-5" d="M125.71,209.25H114.28a5.38,5.38,0,0,1-5.38-5.38h0a5.38,5.38,0,0,1,5.38-5.38h11.43a5.37,5.37,0,0,1,5.37,5.38h0A5.37,5.37,0,0,1,125.71,209.25Z"/><path class="cls-6" d="M125.71,318.09H114.28a5.38,5.38,0,0,1-5.38-5.38h0a5.38,5.38,0,0,1,5.38-5.38h11.43a5.37,5.37,0,0,1,5.37,5.38h0A5.37,5.37,0,0,1,125.71,318.09Z"/><polyline class="cls-7" points="15.07 74.38 88.84 74.38 108.9 93.94"/><path class="cls-3" d="M16,74.15a3.66,3.66,0,1,1-3.66-3.67A3.66,3.66,0,0,1,16,74.15Z"/><text class="cls-8" transform="translate(20.8 84.85)">Imp<tspan class="cls-9" x="10.1" y="0">r</tspan><tspan class="cls-10" x="12.38" y="0">ov</tspan><tspan class="cls-11" x="18.62" y="0">e p</tspan><tspan class="cls-9" x="26.65" y="0">r</tspan><tspan x="28.93" y="0">odu</tspan><tspan class="cls-12" x="38.93" y="0">c</tspan><tspan x="41.86" y="0">tivity and </tspan><tspan x="0" y="7.2">pe</tspan><tspan class="cls-13" x="6.74" y="7.2">r</tspan><tspan class="cls-14" x="9.09" y="7.2">f</tspan><tspan x="11.27" y="7.2">o</tspan><tspan class="cls-15" x="14.68" y="7.2">r</tspan><tspan x="17.08" y="7.2">man</tspan><tspan class="cls-16" x="28.95" y="7.2">c</tspan><tspan x="31.84" y="7.2">e.</tspan><tspan x="0" y="14.4">O</tspan><tspan class="cls-17" x="4.76" y="14.4">p</tspan><tspan x="8.17" y="14.4">timi</tspan><tspan class="cls-18" x="17.96" y="14.4">z</tspan><tspan x="20.56" y="14.4">e </tspan><tspan class="cls-9" x="25.07" y="14.4">r</tspan><tspan x="27.35" y="14.4">esou</tspan><tspan class="cls-9" x="39.62" y="14.4">r</tspan><tspan class="cls-19" x="41.9" y="14.4">c</tspan><tspan x="44.8" y="14.4">e usage.</tspan></text><polyline class="cls-7" points="15.07 183.21 88.84 183.21 108.9 202.78"/><path class="cls-3" d="M16,183a3.66,3.66,0,1,1-3.66-3.66A3.66,3.66,0,0,1,16,183Z"/><text class="cls-8" transform="translate(20.8 193.68)">Minimi<tspan class="cls-20" x="17.21" y="0">z</tspan><tspan x="19.8" y="0">e ope</tspan><tspan class="cls-9" x="34.46" y="0">r</tspan><tspan class="cls-12" x="36.74" y="0">a</tspan><tspan x="40.23" y="0">tional </tspan><tspan class="cls-19" x="56.39" y="0">c</tspan><tspan x="59.29" y="0">os</tspan><tspan class="cls-20" x="65.24" y="0">t</tspan><tspan x="67.32" y="0">s.</tspan><tspan x="0" y="7.2">Impleme</tspan><tspan class="cls-21" x="22.92" y="7.2">n</tspan><tspan x="26.15" y="7.2">t ene</tspan><tspan class="cls-9" x="39.3" y="7.2">r</tspan><tspan x="41.58" y="7.2">g</tspan><tspan class="cls-22" x="45.07" y="7.2">y</tspan><tspan class="cls-23" x="47.9" y="7.2">-</tspan><tspan class="cls-24" x="50.74" y="7.2">e</tspan><tspan x="53.86" y="7.2">fficie</tspan><tspan class="cls-21" x="66.62" y="7.2">n</tspan><tspan x="69.85" y="7.2">t </tspan><tspan x="0" y="14.4">p</tspan><tspan class="cls-9" x="3.51" y="14.4">r</tspan><tspan x="5.79" y="14.4">o</tspan><tspan class="cls-19" x="9.2" y="14.4">c</tspan><tspan x="12.09" y="14.4">esses.</tspan></text><polyline class="cls-7" points="15.07 292.05 88.84 292.05 108.9 311.61"/><path class="cls-3" d="M16,291.81a3.66,3.66,0,1,1-3.66-3.66A3.66,3.66,0,0,1,16,291.81Z"/><text class="cls-8" transform="translate(20.8 302.52)"><tspan class="cls-25">R</tspan><tspan x="3.62" y="0">edu</tspan><tspan class="cls-16" x="13.45" y="0">c</tspan><tspan x="16.34" y="0">e </tspan><tspan class="cls-26" x="20.85" y="0">w</tspan><tspan x="25.23" y="0">as</tspan><tspan class="cls-17" x="31.29" y="0">t</tspan><tspan x="33.33" y="0">e and </tspan><tspan x="0" y="7.2">emissions.</tspan><tspan class="cls-27" x="0" y="14.4">A</tspan><tspan x="3.95" y="14.4">do</tspan><tspan class="cls-17" x="10.87" y="14.4">p</tspan><tspan x="14.27" y="14.4">t sus</tspan><tspan class="cls-17" x="25.88" y="14.4">t</tspan><tspan x="27.92" y="14.4">ainable p</tspan><tspan class="cls-9" x="52.29" y="14.4">r</tspan><tspan x="54.57" y="14.4">a</tspan><tspan class="cls-12" x="58.08" y="14.4">c</tspan><tspan x="61" y="14.4">ti</tspan><tspan class="cls-19" x="64.42" y="14.4">c</tspan><tspan x="67.32" y="14.4">es.</tspan></text><g class="cls-28"><path class="cls-29" d="M187.11,60.57H165.63a29.3,29.3,0,0,0-29.31,29.3v16h21.49a29.3,29.3,0,0,0,29.3-29.3Z"/><text class="cls-30" transform="translate(154.77 90.19)">A</text></g><path class="cls-31" d="M191.89,55.8H170.4a29.3,29.3,0,0,0-29.3,29.3v16h21.48a29.3,29.3,0,0,0,29.31-29.3Z"/><text class="cls-32" transform="translate(159.55 85.42)">A</text><g class="cls-28"><path class="cls-29" d="M187.11,175.51H165.63a29.31,29.31,0,0,0-29.31,29.31v16h21.49a29.3,29.3,0,0,0,29.3-29.3Z"/><text class="cls-30" transform="translate(155.57 205.14)">B</text></g><path class="cls-33" d="M191.89,170.74H170.4A29.3,29.3,0,0,0,141.1,200v16h21.48a29.31,29.31,0,0,0,29.31-29.31Z"/><text class="cls-32" transform="translate(160.34 200.36)">B</text><g class="cls-28"><path class="cls-29" d="M187.11,290.46H165.63a29.3,29.3,0,0,0-29.31,29.3v15.95h21.49a29.3,29.3,0,0,0,29.3-29.3Z"/><text class="cls-30" transform="translate(155.14 320.08)">C</text></g><path class="cls-34" d="M191.89,285.68H170.4A29.3,29.3,0,0,0,141.1,315v16h21.48a29.3,29.3,0,0,0,29.31-29.3Z"/><text class="cls-32" transform="translate(159.91 315.3)">C</text><text class="cls-35" transform="translate(19.98 51.14)">Ope<tspan class="cls-36" x="19.68" y="0">r</tspan><tspan class="cls-37" x="24.05" y="0">a</tspan><tspan x="29.76" y="0">tional </tspan><tspan x="0" y="16.8">Efficiency</tspan></text><text class="cls-35" transform="translate(19.98 159.79)">Cost <tspan class="cls-36" x="0" y="16.8">R</tspan><tspan x="7.14" y="16.8">eduction</tspan></text><text class="cls-35" transform="translate(19.98 268.43)">Envi<tspan class="cls-38" x="20.44" y="0">r</tspan><tspan x="24.89" y="0">onmental </tspan><tspan x="0" y="16.8">Benefits</tspan></text><path class="cls-39" d="M18.17,83.21a1.08,1.08,0,1,1-1.07-1.07A1.07,1.07,0,0,1,18.17,83.21Z"/><path class="cls-39" d="M18.17,97.24a1.08,1.08,0,1,1-1.07-1.08A1.07,1.07,0,0,1,18.17,97.24Z"/><path class="cls-39" d="M18.14,191.93a1.08,1.08,0,1,1-1.07-1.08A1.07,1.07,0,0,1,18.14,191.93Z"/><path class="cls-39" d="M18.14,198.76a1.08,1.08,0,1,1-1.07-1.08A1.07,1.07,0,0,1,18.14,198.76Z"/><path class="cls-39" d="M18.14,300.46a1.08,1.08,0,1,1-1.07-1.07A1.07,1.07,0,0,1,18.14,300.46Z"/><path class="cls-39" d="M18.14,314.67a1.08,1.08,0,1,1-1.07-1.07A1.07,1.07,0,0,1,18.14,314.67Z"/></g></g></svg>