<svg xmlns="http://www.w3.org/2000/svg" xmlns:xlink="http://www.w3.org/1999/xlink" viewBox="0 0 204.35 383.31"><defs><style>.cls-1{isolation:isolate;}.cls-2{fill:#006e75;}.cls-3{fill:#9bdc94;}.cls-4{fill:#109198;}.cls-5{fill:#315f6f;}.cls-13,.cls-6{fill:none;stroke:#006e75;stroke-miterlimit:10;}.cls-6{stroke-width:0.96px;}.cls-7{opacity:0.4;mix-blend-mode:multiply;}.cls-8{fill:#d1d1d1;}.cls-9{fill:url(#linear-gradient);}.cls-10{fill:#fff;}.cls-11{fill:url(#linear-gradient-2);}.cls-12{fill:url(#linear-gradient-3);}</style><linearGradient id="linear-gradient" x1="194.79" y1="53.08" x2="142.71" y2="99.73" gradientUnits="userSpaceOnUse"><stop offset="0" stop-color="#e0ffad"/><stop offset="0.01" stop-color="#dffead"/><stop offset="0.99" stop-color="#8bd09a"/></linearGradient><linearGradient id="linear-gradient-2" x1="199.87" y1="166.56" x2="142.35" y2="212.76" gradientUnits="userSpaceOnUse"><stop offset="0" stop-color="#61ffbc"/><stop offset="0.01" stop-color="#60febc"/><stop offset="0.99" stop-color="#0caaa9"/></linearGradient><linearGradient id="linear-gradient-3" x1="198.9" y1="279.11" x2="138.59" y2="333.45" gradientUnits="userSpaceOnUse"><stop offset="0" stop-color="#82ffd8"/><stop offset="0.58" stop-color="#35869b"/><stop offset="1" stop-color="#003171"/></linearGradient></defs><g class="cls-1"><g id="OBJECTS"><path class="cls-2" d="M112.48,372V14.72A7.51,7.51,0,0,1,120,7.21h0a7.52,7.52,0,0,1,7.52,7.51V372a7.52,7.52,0,0,1-7.52,7.52h0A7.52,7.52,0,0,1,112.48,372Z"/><path class="cls-3" d="M125.71,100.42H114.28A5.38,5.38,0,0,1,108.9,95h0a5.38,5.38,0,0,1,5.38-5.38h11.43A5.37,5.37,0,0,1,131.08,95h0A5.37,5.37,0,0,1,125.71,100.42Z"/><path class="cls-4" d="M125.71,209.25H114.28a5.38,5.38,0,0,1-5.38-5.38h0a5.38,5.38,0,0,1,5.38-5.38h11.43a5.37,5.37,0,0,1,5.37,5.38h0A5.37,5.37,0,0,1,125.71,209.25Z"/><path class="cls-5" d="M125.71,318.09H114.28a5.38,5.38,0,0,1-5.38-5.38h0a5.38,5.38,0,0,1,5.38-5.38h11.43a5.37,5.37,0,0,1,5.37,5.38h0A5.37,5.37,0,0,1,125.71,318.09Z"/><polyline class="cls-6" points="15.07 74.38 88.84 74.38 108.9 93.94"/><path class="cls-2" d="M16,74.15a3.66,3.66,0,1,1-3.66-3.67A3.66,3.66,0,0,1,16,74.15Z"/><path class="cls-2" d="M21.33,84.85V80.72h.44v4.13Z"/><path class="cls-2" d="M22.72,84.85V82h.42v2.82Zm1.94,0V83.12a.71.71,0,0,0-.74-.76.83.83,0,0,0-.39.09.64.64,0,0,0-.28.26.75.75,0,0,0-.11.4L23,83a1.15,1.15,0,0,1,.14-.57,1.06,1.06,0,0,1,.39-.37A1.09,1.09,0,0,1,24,82a1.08,1.08,0,0,1,.54.13,1,1,0,0,1,.37.37,1,1,0,0,1,.14.57v1.81Zm1.94,0V83.12a.71.71,0,0,0-.74-.76.86.86,0,0,0-.39.09.7.7,0,0,0-.28.26.75.75,0,0,0-.11.4L24.83,83a1.16,1.16,0,0,1,.17-.57,1,1,0,0,1,.41-.37A1.08,1.08,0,0,1,26,82a1.12,1.12,0,0,1,.55.13,1,1,0,0,1,.38.37A1.15,1.15,0,0,1,27,83v1.81Z"/><path class="cls-2" d="M27.81,86V82h.42v.72l-.08.68.08.69V86Zm1.46-1.13a1.37,1.37,0,0,1-.58-.13,1.15,1.15,0,0,1-.42-.37,1.07,1.07,0,0,1-.2-.53V83a1.14,1.14,0,0,1,.2-.54,1.17,1.17,0,0,1,.43-.36,1.32,1.32,0,0,1,.57-.12,1.27,1.27,0,0,1,.7.19,1.41,1.41,0,0,1,.5.53,1.65,1.65,0,0,1,0,1.5,1.36,1.36,0,0,1-.49.52A1.33,1.33,0,0,1,29.27,84.91Zm-.07-.4a1,1,0,0,0,.53-.14.94.94,0,0,0,.36-.38,1.2,1.2,0,0,0,.12-.55,1.25,1.25,0,0,0-.12-.56,1,1,0,0,0-.88-.52,1,1,0,0,0-.52.14.92.92,0,0,0-.35.38,1.13,1.13,0,0,0-.13.56,1.09,1.09,0,0,0,.13.55.9.9,0,0,0,.34.38A1,1,0,0,0,29.2,84.51Z"/><path class="cls-2" d="M31.32,84.85V82h.42v2.82Zm.42-1.65-.17-.07a1.31,1.31,0,0,1,.26-.85.88.88,0,0,1,.72-.31.92.92,0,0,1,.38.07.93.93,0,0,1,.33.24l-.28.29a.65.65,0,0,0-.22-.16.87.87,0,0,0-.28,0,.7.7,0,0,0-.53.22A.85.85,0,0,0,31.74,83.2Z"/><path class="cls-2" d="M34.88,84.91a1.44,1.44,0,0,1-.74-.2,1.43,1.43,0,0,1-.72-1.28,1.41,1.41,0,0,1,.19-.74,1.5,1.5,0,0,1,.53-.53,1.56,1.56,0,0,1,1.49,0,1.39,1.39,0,0,1,.52.53,1.41,1.41,0,0,1,.2.74,1.45,1.45,0,0,1-.2.75,1.47,1.47,0,0,1-.52.53A1.45,1.45,0,0,1,34.88,84.91Zm0-.41a1,1,0,0,0,.53-.14,1,1,0,0,0,.37-.38,1.14,1.14,0,0,0,.13-.55,1.09,1.09,0,0,0-.13-.55,1,1,0,0,0-.37-.37,1,1,0,0,0-.53-.14,1.08,1.08,0,0,0-.53.14,1.06,1.06,0,0,0-.36.37,1.09,1.09,0,0,0-.13.55A1.12,1.12,0,0,0,34,84a1,1,0,0,0,.36.38A1.08,1.08,0,0,0,34.88,84.5Z"/><path class="cls-2" d="M37.88,84.85,36.57,82H37l1.1,2.46h-.26L39,82h.46l-1.32,2.82Z"/><path class="cls-2" d="M41.15,84.91a1.56,1.56,0,0,1-.76-.19,1.45,1.45,0,0,1-.54-.53,1.51,1.51,0,0,1-.19-.76,1.43,1.43,0,0,1,.19-.74,1.39,1.39,0,0,1,.52-.53,1.43,1.43,0,0,1,.74-.19,1.37,1.37,0,0,1,.68.17,1.23,1.23,0,0,1,.47.49,1.46,1.46,0,0,1,.17.71v.11l0,.14H40v-.36h2.21l-.15.14a1.13,1.13,0,0,0-.1-.54.84.84,0,0,0-.32-.35,1,1,0,0,0-.5-.12,1,1,0,0,0-.53.13.86.86,0,0,0-.36.37,1.1,1.1,0,0,0-.13.56,1.14,1.14,0,0,0,.13.57,1,1,0,0,0,.38.38,1,1,0,0,0,.56.14,1.24,1.24,0,0,0,.48-.09,1,1,0,0,0,.36-.28l.27.28a1.39,1.39,0,0,1-.49.36A1.44,1.44,0,0,1,41.15,84.91Z"/><path class="cls-2" d="M44.36,86V82h.42v.72l-.08.68.08.69V86Zm1.46-1.13a1.34,1.34,0,0,1-.58-.13,1.15,1.15,0,0,1-.42-.37,1.18,1.18,0,0,1-.21-.53V83a1.27,1.27,0,0,1,.21-.54,1.17,1.17,0,0,1,.43-.36,1.32,1.32,0,0,1,.57-.12,1.29,1.29,0,0,1,.7.19,1.41,1.41,0,0,1,.5.53,1.65,1.65,0,0,1,0,1.5,1.36,1.36,0,0,1-.49.52A1.33,1.33,0,0,1,45.82,84.91Zm-.07-.4a1,1,0,0,0,.53-.14.86.86,0,0,0,.35-.38,1.09,1.09,0,0,0,.13-.55,1.13,1.13,0,0,0-.13-.56.92.92,0,0,0-.35-.38,1,1,0,0,0-.52-.14,1,1,0,0,0-.52.14.92.92,0,0,0-.35.38,1.13,1.13,0,0,0-.13.56,1.09,1.09,0,0,0,.13.55.9.9,0,0,0,.34.38A1,1,0,0,0,45.75,84.51Z"/><path class="cls-2" d="M47.87,84.85V82h.42v2.82Zm.42-1.65-.17-.07a1.31,1.31,0,0,1,.26-.85A.87.87,0,0,1,49.1,82a1,1,0,0,1,.38.07,1,1,0,0,1,.33.24l-.28.29a.6.6,0,0,0-.23-.16.78.78,0,0,0-.28,0,.69.69,0,0,0-.52.22A.85.85,0,0,0,48.29,83.2Z"/><path class="cls-2" d="M51.43,84.91a1.44,1.44,0,0,1-.74-.2A1.43,1.43,0,0,1,50,83.43a1.41,1.41,0,0,1,.19-.74,1.5,1.5,0,0,1,.53-.53,1.43,1.43,0,0,1,.74-.19,1.4,1.4,0,0,1,1.27.72,1.41,1.41,0,0,1,.19.74,1.44,1.44,0,0,1-.19.75,1.55,1.55,0,0,1-.52.53A1.48,1.48,0,0,1,51.43,84.91Zm0-.41a1,1,0,0,0,.53-.14,1,1,0,0,0,.37-.38,1.14,1.14,0,0,0,.13-.55,1.09,1.09,0,0,0-.13-.55,1,1,0,0,0-.37-.37,1,1,0,0,0-.53-.14,1,1,0,0,0-.53.14,1,1,0,0,0-.36.37,1.1,1.1,0,0,0-.14.55,1.12,1.12,0,0,0,.14.55.94.94,0,0,0,.36.38A1,1,0,0,0,51.43,84.5Z"/><path class="cls-2" d="M54.76,84.91a1.38,1.38,0,0,1-.7-.19,1.5,1.5,0,0,1-.5-.53,1.65,1.65,0,0,1,0-1.5,1.5,1.5,0,0,1,.5-.53,1.29,1.29,0,0,1,.7-.19,1.18,1.18,0,0,1,1,.48A1.14,1.14,0,0,1,56,83v.89a1.15,1.15,0,0,1-.63.9A1.34,1.34,0,0,1,54.76,84.91Zm.07-.4a1,1,0,0,0,.52-.14A.92.92,0,0,0,55.7,84a1.2,1.2,0,0,0,.12-.55,1.13,1.13,0,0,0-.13-.56.92.92,0,0,0-.35-.38,1,1,0,0,0-.51-.14,1,1,0,0,0-.52.14.88.88,0,0,0-.36.38,1.13,1.13,0,0,0-.13.56A1.09,1.09,0,0,0,54,84a.83.83,0,0,0,.36.38A1,1,0,0,0,54.83,84.51Zm1.39.34H55.8v-.76l.08-.69-.08-.68V80.6h.42Z"/><path class="cls-2" d="M58.19,84.91a1.19,1.19,0,0,1-.62-.16,1.11,1.11,0,0,1-.42-.44,1.32,1.32,0,0,1-.15-.64V82h.43v1.62a1.06,1.06,0,0,0,.09.45.7.7,0,0,0,.26.3.78.78,0,0,0,.41.11.71.71,0,0,0,.56-.24.87.87,0,0,0,.2-.62V82h.43v1.64a1.32,1.32,0,0,1-.16.64,1.09,1.09,0,0,1-.41.44A1.17,1.17,0,0,1,58.19,84.91Z"/><path class="cls-2" d="M61.44,84.91a1.44,1.44,0,0,1-.74-.2,1.42,1.42,0,0,1-.53-.53,1.49,1.49,0,0,1,0-1.49A1.43,1.43,0,0,1,61.44,82a1.5,1.5,0,0,1,.6.12,1.43,1.43,0,0,1,.47.33l-.28.29a.9.9,0,0,0-.35-.25,1.09,1.09,0,0,0-1,.05,1,1,0,0,0-.37.37,1.23,1.23,0,0,0,0,1.1,1,1,0,0,0,.37.38,1,1,0,0,0,.53.14,1.13,1.13,0,0,0,.45-.09.94.94,0,0,0,.35-.25l.28.29a1.39,1.39,0,0,1-.48.34A1.46,1.46,0,0,1,61.44,84.91Z"/><path class="cls-2" d="M62.81,82.41V82h1.84v.38Zm.71,2.44v-4h.42v4Z"/><path class="cls-2" d="M65.43,81.42a.27.27,0,0,1-.2-.09.32.32,0,0,1,0-.42.3.3,0,0,1,.2-.08.33.33,0,0,1,.22.08.32.32,0,0,1,0,.42A.29.29,0,0,1,65.43,81.42Zm-.21,3.43V82h.43v2.82Z"/><path class="cls-2" d="M67.49,84.85,66.18,82h.47l1.1,2.46h-.26L68.59,82h.46l-1.32,2.82Z"/><path class="cls-2" d="M69.78,81.42a.27.27,0,0,1-.2-.09.32.32,0,0,1,0-.42.3.3,0,0,1,.2-.08.33.33,0,0,1,.22.08.32.32,0,0,1,0,.42A.29.29,0,0,1,69.78,81.42Zm-.21,3.43V82H70v2.82Z"/><path class="cls-2" d="M70.58,82.41V82h1.84v.38Zm.71,2.44v-4h.42v4Z"/><path class="cls-2" d="M73.94,84.86,72.7,82h.46l1,2.36H74L75,82h.47l-1.32,2.83ZM73.17,86l.77-1.61.24.43L73.63,86Z"/><path class="cls-2" d="M78.57,84.91a1.34,1.34,0,0,1-.72-.2,1.39,1.39,0,0,1-.5-.52,1.58,1.58,0,0,1,0-1.5,1.41,1.41,0,0,1,.5-.53,1.33,1.33,0,0,1,.71-.19,1.21,1.21,0,0,1,.58.13,1,1,0,0,1,.42.36,1.16,1.16,0,0,1,.19.53v.89a1.25,1.25,0,0,1-.19.54,1.22,1.22,0,0,1-.42.36A1.2,1.2,0,0,1,78.57,84.91Zm.06-.4a.9.9,0,0,0,.71-.3,1.08,1.08,0,0,0,.27-.77,1.25,1.25,0,0,0-.13-.56.9.9,0,0,0-.34-.38,1,1,0,0,0-.51-.14,1,1,0,0,0-.53.14,1,1,0,0,0-.37.38,1.13,1.13,0,0,0-.13.56,1.09,1.09,0,0,0,.13.55,1,1,0,0,0,.37.38A1,1,0,0,0,78.63,84.51Zm1,.34v-.76l.09-.69-.09-.68V82H80v2.82Z"/><path class="cls-2" d="M80.85,84.85V82h.42v2.82Zm2.06,0V83.19a.85.85,0,0,0-.22-.6.78.78,0,0,0-.58-.23.75.75,0,0,0-.43.11.76.76,0,0,0-.3.29.86.86,0,0,0-.11.43l-.19-.11a1.1,1.1,0,0,1,.15-.57,1.12,1.12,0,0,1,.41-.4,1.21,1.21,0,0,1,.58-.14,1,1,0,0,1,1,.57,1.16,1.16,0,0,1,.14.58v1.73Z"/><path class="cls-2" d="M85.32,84.91a1.36,1.36,0,0,1-.7-.19,1.41,1.41,0,0,1-.5-.53,1.65,1.65,0,0,1,0-1.5,1.41,1.41,0,0,1,.5-.53,1.27,1.27,0,0,1,.7-.19,1.32,1.32,0,0,1,.57.12,1.17,1.17,0,0,1,.43.36,1,1,0,0,1,.2.54v.89a1.07,1.07,0,0,1-.2.53,1.15,1.15,0,0,1-.42.37A1.37,1.37,0,0,1,85.32,84.91Zm.07-.4a1,1,0,0,0,.52-.14.9.9,0,0,0,.34-.38,1.09,1.09,0,0,0,.13-.55,1.13,1.13,0,0,0-.13-.56.95.95,0,0,0-.87-.52,1,1,0,0,0-.52.14.92.92,0,0,0-.35.38,1.13,1.13,0,0,0-.13.56,1.09,1.09,0,0,0,.13.55.86.86,0,0,0,.35.38A1,1,0,0,0,85.39,84.51Zm1.39.34h-.42v-.76l.08-.69-.08-.68V80.6h.42Z"/><path class="cls-2" d="M21.23,93.24v-4h.42V90l-.09.68.09.69v1.92Zm1.45-1.13A1.37,1.37,0,0,1,22.1,92a1.15,1.15,0,0,1-.42-.37,1.07,1.07,0,0,1-.2-.53v-.89a1.1,1.1,0,0,1,.2-.54,1.26,1.26,0,0,1,.43-.36,1.39,1.39,0,0,1,.57-.12,1.33,1.33,0,0,1,.71.19,1.47,1.47,0,0,1,.49.53,1.65,1.65,0,0,1,0,1.5,1.36,1.36,0,0,1-.49.52A1.33,1.33,0,0,1,22.68,92.11Zm-.07-.4a1,1,0,0,0,.53-.14.94.94,0,0,0,.36-.38,1.21,1.21,0,0,0,.13-.55,1.25,1.25,0,0,0-.13-.56,1,1,0,0,0-.88-.52,1,1,0,0,0-.52.14.92.92,0,0,0-.35.38,1.13,1.13,0,0,0-.13.56,1.09,1.09,0,0,0,.13.55.86.86,0,0,0,.35.38A1,1,0,0,0,22.61,91.71Z"/><path class="cls-2" d="M26,92.11a1.56,1.56,0,0,1-.76-.19,1.45,1.45,0,0,1-.54-.53,1.6,1.6,0,0,1,0-1.51A1.42,1.42,0,0,1,26,89.17a1.37,1.37,0,0,1,.68.17,1.27,1.27,0,0,1,.47.48,1.53,1.53,0,0,1,.17.72v.11l0,.14H24.85v-.36h2.21l-.15.14a1.13,1.13,0,0,0-.1-.54.84.84,0,0,0-.32-.35,1,1,0,0,0-.5-.12,1,1,0,0,0-.53.13.86.86,0,0,0-.36.37,1.1,1.1,0,0,0-.13.56,1.14,1.14,0,0,0,.13.57,1,1,0,0,0,.38.38,1,1,0,0,0,.56.14,1.24,1.24,0,0,0,.48-.09,1,1,0,0,0,.36-.28l.27.28a1.44,1.44,0,0,1-.48.36A1.69,1.69,0,0,1,26,92.11Z"/><path class="cls-2" d="M28,92.05V89.23h.42v2.82Zm.42-1.65-.17-.07a1.31,1.31,0,0,1,.26-.85.87.87,0,0,1,.72-.31.92.92,0,0,1,.38.07.93.93,0,0,1,.33.24l-.28.29a.6.6,0,0,0-.23-.16.76.76,0,0,0-.27,0,.67.67,0,0,0-.53.22A.85.85,0,0,0,28.38,90.4Z"/><path class="cls-2" d="M30,89.61v-.38H32.1v.38Zm.71,2.44v-3.3a1,1,0,0,1,.13-.52.83.83,0,0,1,.36-.36,1,1,0,0,1,.52-.13,1,1,0,0,1,.41.08,1.14,1.14,0,0,1,.31.23l-.27.27a.81.81,0,0,0-.2-.14.62.62,0,0,0-.25,0,.56.56,0,0,0-.43.16.65.65,0,0,0-.15.46v3.29Z"/><path class="cls-2" d="M33.78,92.11a1.44,1.44,0,0,1-.74-.2,1.42,1.42,0,0,1-.53-.53,1.5,1.5,0,0,1-.2-.75A1.47,1.47,0,0,1,33,89.36a1.54,1.54,0,0,1,1.48,0,1.4,1.4,0,0,1,.72,1.27,1.44,1.44,0,0,1-.19.75,1.5,1.5,0,0,1-.53.53A1.44,1.44,0,0,1,33.78,92.11Zm0-.41a1,1,0,0,0,.53-.14,1,1,0,0,0,.36-.38,1.15,1.15,0,0,0,.14-.55,1.1,1.1,0,0,0-.14-.55,1,1,0,0,0-.36-.37,1.07,1.07,0,0,0-1.06,0,.94.94,0,0,0-.37.37,1.21,1.21,0,0,0-.13.55,1.24,1.24,0,0,0,.13.55,1,1,0,0,0,.37.38A1,1,0,0,0,33.78,91.7Z"/><path class="cls-2" d="M35.91,92.05V89.23h.42v2.82Zm.42-1.65-.18-.07a1.31,1.31,0,0,1,.26-.85.9.9,0,0,1,.72-.31.86.86,0,0,1,.71.31l-.28.29a.57.57,0,0,0-.22-.16.82.82,0,0,0-.28,0,.68.68,0,0,0-.53.22A.89.89,0,0,0,36.33,90.4Z"/><path class="cls-2" d="M38.31,92.05V89.23h.42v2.82Zm1.94,0V90.32a.71.71,0,0,0-.74-.76.83.83,0,0,0-.39.09.73.73,0,0,0-.29.26.74.74,0,0,0-.1.4l-.19-.07a1.15,1.15,0,0,1,.14-.57,1.06,1.06,0,0,1,.39-.37,1.09,1.09,0,0,1,.55-.13,1,1,0,0,1,.53.13,1,1,0,0,1,.38.37,1,1,0,0,1,.14.57v1.81Zm1.94,0V90.32a.71.71,0,0,0-.74-.76.86.86,0,0,0-.39.09.7.7,0,0,0-.28.26.75.75,0,0,0-.11.4l-.25-.07a1.16,1.16,0,0,1,.17-.57,1.09,1.09,0,0,1,.4-.37,1.23,1.23,0,0,1,1.1,0,1,1,0,0,1,.38.37,1.15,1.15,0,0,1,.14.57v1.81Z"/><path class="cls-2" d="M44.63,92.11a1.34,1.34,0,0,1-.72-.2,1.32,1.32,0,0,1-.5-.52,1.58,1.58,0,0,1,0-1.5,1.34,1.34,0,0,1,.5-.53,1.33,1.33,0,0,1,.71-.19,1.21,1.21,0,0,1,.58.13,1,1,0,0,1,.41.36,1.17,1.17,0,0,1,.2.53v.89a1.26,1.26,0,0,1-.2.54,1.1,1.1,0,0,1-.41.36A1.33,1.33,0,0,1,44.63,92.11Zm.06-.4a.91.91,0,0,0,.71-.3,1.08,1.08,0,0,0,.27-.77,1.25,1.25,0,0,0-.13-.56.9.9,0,0,0-.34-.38,1,1,0,0,0-.51-.14,1,1,0,0,0-.53.14,1,1,0,0,0-.37.38,1.13,1.13,0,0,0-.14.56,1.1,1.1,0,0,0,.14.55,1,1,0,0,0,.37.38A1,1,0,0,0,44.69,91.71Zm1,.34v-.76l.08-.69-.08-.68v-.69h.42v2.82Z"/><path class="cls-2" d="M46.91,92.05V89.23h.42v2.82Zm2.05,0V90.39a.84.84,0,0,0-.21-.6.75.75,0,0,0-.58-.23.81.81,0,0,0-.73.4.86.86,0,0,0-.11.43l-.19-.11a1.1,1.1,0,0,1,.15-.57,1.12,1.12,0,0,1,.41-.4,1.21,1.21,0,0,1,.58-.14,1.11,1.11,0,0,1,.58.15,1.21,1.21,0,0,1,.39.42,1.27,1.27,0,0,1,.14.58v1.73Z"/><path class="cls-2" d="M51.46,92.11a1.45,1.45,0,0,1-.75-.2,1.42,1.42,0,0,1-.53-.53,1.55,1.55,0,0,1-.19-.75,1.61,1.61,0,0,1,.19-.75,1.47,1.47,0,0,1,.53-.52,1.55,1.55,0,0,1,1.34-.07,1.33,1.33,0,0,1,.47.33l-.27.29a.94.94,0,0,0-.35-.25,1.08,1.08,0,0,0-.44-.09,1,1,0,0,0-.53.14.94.94,0,0,0-.37.37,1.23,1.23,0,0,0,0,1.1,1,1,0,0,0,.37.38,1,1,0,0,0,.53.14,1,1,0,0,0,.44-.09.9.9,0,0,0,.35-.25l.28.29a1.45,1.45,0,0,1-.47.34A1.53,1.53,0,0,1,51.46,92.11Z"/><path class="cls-2" d="M54.37,92.11a1.59,1.59,0,0,1-.76-.19,1.42,1.42,0,0,1-.53-.53,1.51,1.51,0,0,1-.2-.76,1.61,1.61,0,0,1,.19-.75,1.47,1.47,0,0,1,.53-.52,1.4,1.4,0,0,1,.73-.19,1.34,1.34,0,0,1,.68.17,1.27,1.27,0,0,1,.47.48,1.42,1.42,0,0,1,.17.72v.11a.89.89,0,0,1,0,.14H53.18v-.36H55.4l-.15.14a1.13,1.13,0,0,0-.11-.54.78.78,0,0,0-.32-.35,1,1,0,0,0-.5-.12,1,1,0,0,0-.53.13,1,1,0,0,0-.36.37,1.22,1.22,0,0,0-.13.56,1.15,1.15,0,0,0,.14.57,1,1,0,0,0,.37.38,1.07,1.07,0,0,0,.57.14,1.19,1.19,0,0,0,.47-.09,1,1,0,0,0,.37-.28l.27.28A1.6,1.6,0,0,1,55,92,1.69,1.69,0,0,1,54.37,92.11Z"/><path class="cls-2" d="M56.74,92.11a.37.37,0,0,1-.25-.1.37.37,0,0,1-.09-.25.32.32,0,0,1,.09-.24.33.33,0,0,1,.25-.1.3.3,0,0,1,.24.1.33.33,0,0,1,.1.24A.37.37,0,0,1,57,92,.33.33,0,0,1,56.74,92.11Z"/><path class="cls-2" d="M23.19,99.31a2,2,0,0,1-.81-.17,2.15,2.15,0,0,1-.66-.45,2,2,0,0,1-.44-.68,2.12,2.12,0,0,1-.16-.83,2.32,2.32,0,0,1,.15-.84,2.06,2.06,0,0,1,1.1-1.12,1.92,1.92,0,0,1,.81-.16,2,2,0,0,1,.81.16,2.15,2.15,0,0,1,.66.45,2.22,2.22,0,0,1,.59,1.51,2.13,2.13,0,0,1-.16.84,2,2,0,0,1-.43.67,2.1,2.1,0,0,1-.65.45A2,2,0,0,1,23.19,99.31Zm0-.43a1.56,1.56,0,0,0,.83-.22,1.6,1.6,0,0,0,.57-.61,1.75,1.75,0,0,0,.2-.87A1.78,1.78,0,0,0,24.33,96a1.6,1.6,0,0,0-.51-.35,1.5,1.5,0,0,0-.64-.13,1.54,1.54,0,0,0-.83.22,1.64,1.64,0,0,0-.57.6,1.82,1.82,0,0,0-.21.88,1.91,1.91,0,0,0,.12.68,1.77,1.77,0,0,0,.34.54,1.57,1.57,0,0,0,.51.36A1.69,1.69,0,0,0,23.18,98.88Z"/><path class="cls-2" d="M26,100.44v-4h.42v.72l-.08.68.08.69v1.92Zm1.46-1.13a1.34,1.34,0,0,1-.58-.13,1.11,1.11,0,0,1-.43-.37,1.17,1.17,0,0,1-.2-.53v-.89a1.12,1.12,0,0,1,.21-.54,1.22,1.22,0,0,1,.42-.36,1.4,1.4,0,0,1,.58-.12,1.29,1.29,0,0,1,.7.19,1.39,1.39,0,0,1,.49.53,1.44,1.44,0,0,1,.19.75,1.54,1.54,0,0,1-.18.75,1.39,1.39,0,0,1-.5.52A1.3,1.3,0,0,1,27.45,99.31Zm-.07-.4a1,1,0,0,0,.52-.14.83.83,0,0,0,.36-.38,1.09,1.09,0,0,0,.13-.55,1.13,1.13,0,0,0-.13-.56.88.88,0,0,0-.36-.38,1,1,0,0,0-.52-.14,1,1,0,0,0-.52.14,1,1,0,0,0-.35.38,1.25,1.25,0,0,0-.12.56,1.2,1.2,0,0,0,.12.55.92.92,0,0,0,.35.38A1,1,0,0,0,27.38,98.91Z"/><path class="cls-2" d="M29.12,96.81v-.38H31v.38Zm.72,2.44v-4h.42v4Z"/><path class="cls-2" d="M31.75,95.82a.25.25,0,0,1-.2-.09.29.29,0,0,1,0-.42.28.28,0,0,1,.2-.08.29.29,0,0,1,.21.08.32.32,0,0,1,0,.42A.26.26,0,0,1,31.75,95.82Zm-.21,3.43V96.43H32v2.82Z"/><path class="cls-2" d="M32.82,99.25V96.43h.42v2.82Zm1.94,0V97.52a.71.71,0,0,0-.74-.76.8.8,0,0,0-.39.09.73.73,0,0,0-.29.26.74.74,0,0,0-.1.4l-.19-.07a1,1,0,0,1,.14-.57,1.06,1.06,0,0,1,.39-.37,1.09,1.09,0,0,1,.55-.13,1,1,0,0,1,.53.13,1,1,0,0,1,.38.37,1,1,0,0,1,.14.57v1.81Zm1.94,0V97.52a.71.71,0,0,0-.74-.76.86.86,0,0,0-.39.09.7.7,0,0,0-.28.26.75.75,0,0,0-.11.4l-.25-.07a1.16,1.16,0,0,1,.17-.57,1.09,1.09,0,0,1,.4-.37,1.23,1.23,0,0,1,1.1,0,1,1,0,0,1,.38.37,1.15,1.15,0,0,1,.14.57v1.81Z"/><path class="cls-2" d="M38.12,95.82a.25.25,0,0,1-.2-.09.29.29,0,0,1,0-.42.28.28,0,0,1,.2-.08.29.29,0,0,1,.21.5A.26.26,0,0,1,38.12,95.82Zm-.21,3.43V96.43h.43v2.82Z"/><path class="cls-2" d="M38.94,99l1.79-2.35h.49L39.44,99Zm0,.24V99l.37-.15h1.88v.39Zm.11-2.44v-.38h2.17v.23l-.39.15Z"/><path class="cls-2" d="M43.08,99.31a1.61,1.61,0,0,1-.76-.19,1.44,1.44,0,0,1-.72-1.29,1.43,1.43,0,0,1,.19-.74,1.39,1.39,0,0,1,.52-.53,1.43,1.43,0,0,1,.74-.19,1.4,1.4,0,0,1,.68.17,1.35,1.35,0,0,1,.47.48,1.53,1.53,0,0,1,.17.72.45.45,0,0,1,0,.11.78.78,0,0,1,0,.14H41.9v-.36h2.21l-.15.14a1.13,1.13,0,0,0-.11-.54.76.76,0,0,0-.31-.35,1,1,0,0,0-.5-.12,1,1,0,0,0-.54.13,1,1,0,0,0-.36.37,1.22,1.22,0,0,0-.12.56,1.14,1.14,0,0,0,.13.57,1,1,0,0,0,.38.38,1,1,0,0,0,.56.14,1.19,1.19,0,0,0,.47-.09.93.93,0,0,0,.37-.28l.27.28a1.48,1.48,0,0,1-.49.36A1.45,1.45,0,0,1,43.08,99.31Z"/><path class="cls-2" d="M46.3,99.25V96.43h.42v2.82Zm.42-1.65-.17-.07a1.25,1.25,0,0,1,.26-.85.86.86,0,0,1,.71-.31.86.86,0,0,1,.71.31L48,97a.69.69,0,0,0-.23-.16.78.78,0,0,0-.28,0,.73.73,0,0,0-.53.22A.89.89,0,0,0,46.72,97.6Z"/><path class="cls-2" d="M49.88,99.31a1.59,1.59,0,0,1-.76-.19,1.5,1.5,0,0,1-.53-.53,1.51,1.51,0,0,1-.2-.76,1.44,1.44,0,0,1,.2-.74,1.33,1.33,0,0,1,.52-.53,1.49,1.49,0,0,1,1.42,0A1.32,1.32,0,0,1,51,97a1.43,1.43,0,0,1,.18.72s0,.07,0,.11a.78.78,0,0,1,0,.14H48.69v-.36h2.22l-.15.14a1.13,1.13,0,0,0-.11-.54.78.78,0,0,0-.32-.35,1,1,0,0,0-.5-.12,1,1,0,0,0-.53.13,1,1,0,0,0-.36.37,1.22,1.22,0,0,0-.13.56,1.15,1.15,0,0,0,.14.57.93.93,0,0,0,.38.38,1,1,0,0,0,.56.14,1.19,1.19,0,0,0,.47-.09.93.93,0,0,0,.37-.28l.27.28a1.47,1.47,0,0,1-1.12.49Z"/><path class="cls-2" d="M52.67,99.31a1.61,1.61,0,0,1-.44-.06,2.22,2.22,0,0,1-.38-.18,1.5,1.5,0,0,1-.29-.27l.27-.28a1,1,0,0,0,.38.31,1.19,1.19,0,0,0,.47.09.78.78,0,0,0,.44-.1.35.35,0,0,0,.16-.3.36.36,0,0,0-.11-.29,1,1,0,0,0-.29-.16A3.44,3.44,0,0,0,52.5,98a2.39,2.39,0,0,1-.37-.15.89.89,0,0,1-.3-.24.81.81,0,0,1,0-.83.77.77,0,0,1,.34-.27,1.18,1.18,0,0,1,.52-.1,1.48,1.48,0,0,1,.57.11,1,1,0,0,1,.41.34l-.26.27a.87.87,0,0,0-.32-.25,1,1,0,0,0-.42-.09.67.67,0,0,0-.41.11.31.31,0,0,0-.14.27.31.31,0,0,0,.11.26.87.87,0,0,0,.29.15l.38.11a2.39,2.39,0,0,1,.37.15.79.79,0,0,1,.29.25.71.71,0,0,1,.11.43.74.74,0,0,1-.27.6A1.13,1.13,0,0,1,52.67,99.31Z"/><path class="cls-2" d="M55.63,99.31a1.44,1.44,0,0,1-.74-.2,1.43,1.43,0,0,1-.72-1.28,1.41,1.41,0,0,1,.19-.74,1.5,1.5,0,0,1,.53-.53,1.43,1.43,0,0,1,.74-.19,1.43,1.43,0,0,1,1.46,1.46,1.44,1.44,0,0,1-.19.75,1.5,1.5,0,0,1-.53.53A1.41,1.41,0,0,1,55.63,99.31Zm0-.41a1,1,0,0,0,.53-.14,1,1,0,0,0,.37-.38,1.14,1.14,0,0,0,.13-.55,1,1,0,0,0-.5-.92,1,1,0,0,0-.53-.14,1,1,0,0,0-.53.14,1,1,0,0,0-.37.37,1.21,1.21,0,0,0-.13.55,1.24,1.24,0,0,0,.13.55,1,1,0,0,0,.37.38A1,1,0,0,0,55.63,98.9Z"/><path class="cls-2" d="M58.88,99.31a1.27,1.27,0,0,1-.62-.16,1.11,1.11,0,0,1-.42-.44,1.32,1.32,0,0,1-.15-.64V96.43h.42v1.62a.93.93,0,0,0,.1.45.7.7,0,0,0,.26.3.78.78,0,0,0,.41.11.71.71,0,0,0,.56-.24.92.92,0,0,0,.2-.62V96.43h.42v1.64a1.32,1.32,0,0,1-.15.64,1.05,1.05,0,0,1-.42.44A1.13,1.13,0,0,1,58.88,99.31Z"/><path class="cls-2" d="M60.85,99.25V96.43h.42v2.82Zm.42-1.65-.17-.07a1.25,1.25,0,0,1,.26-.85.86.86,0,0,1,.71-.31.86.86,0,0,1,.71.31l-.27.29a.69.69,0,0,0-.23-.16.82.82,0,0,0-.28,0,.73.73,0,0,0-.53.22A.89.89,0,0,0,61.27,97.6Z"/><path class="cls-2" d="M64.41,99.31a1.44,1.44,0,0,1-.74-.2,1.35,1.35,0,0,1-.53-.53,1.49,1.49,0,0,1,0-1.49,1.35,1.35,0,0,1,.53-.53,1.43,1.43,0,0,1,.74-.19,1.5,1.5,0,0,1,.6.12,1.43,1.43,0,0,1,.47.33l-.28.29a1,1,0,0,0-.35-.25,1.09,1.09,0,0,0-1,0,1,1,0,0,0-.37.37,1.23,1.23,0,0,0,0,1.1,1,1,0,0,0,.37.38,1,1,0,0,0,.53.14,1.13,1.13,0,0,0,.45-.09,1.07,1.07,0,0,0,.35-.25l.28.29a1.39,1.39,0,0,1-.48.34A1.5,1.5,0,0,1,64.41,99.31Z"/><path class="cls-2" d="M67.32,99.31a1.61,1.61,0,0,1-.76-.19,1.44,1.44,0,0,1-.72-1.29,1.43,1.43,0,0,1,.19-.74,1.39,1.39,0,0,1,.52-.53,1.43,1.43,0,0,1,.74-.19,1.4,1.4,0,0,1,.68.17,1.35,1.35,0,0,1,.47.48,1.53,1.53,0,0,1,.17.72.45.45,0,0,1,0,.11.78.78,0,0,1,0,.14H66.14v-.36h2.21l-.15.14a1.27,1.27,0,0,0-.1-.54.84.84,0,0,0-.32-.35,1,1,0,0,0-.5-.12,1,1,0,0,0-.54.13.89.89,0,0,0-.35.37,1.1,1.1,0,0,0-.13.56,1.14,1.14,0,0,0,.13.57,1,1,0,0,0,.38.38,1,1,0,0,0,.56.14,1.19,1.19,0,0,0,.47-.09.93.93,0,0,0,.37-.28l.27.28a1.48,1.48,0,0,1-.49.36A1.45,1.45,0,0,1,67.32,99.31Z"/><path class="cls-2" d="M71.66,99.31a1.27,1.27,0,0,1-.62-.16,1.11,1.11,0,0,1-.42-.44,1.32,1.32,0,0,1-.15-.64V96.43h.42v1.62a.93.93,0,0,0,.1.45.7.7,0,0,0,.26.3.78.78,0,0,0,.41.11.71.71,0,0,0,.56-.24.92.92,0,0,0,.2-.62V96.43h.42v1.64a1.32,1.32,0,0,1-.15.64,1.05,1.05,0,0,1-.42.44A1.13,1.13,0,0,1,71.66,99.31Z"/><path class="cls-2" d="M74.49,99.31a1.54,1.54,0,0,1-.43-.06,2.32,2.32,0,0,1-.39-.18,1.5,1.5,0,0,1-.29-.27l.27-.28a1.11,1.11,0,0,0,.38.31,1.21,1.21,0,0,0,.48.09.82.82,0,0,0,.44-.1.38.38,0,0,0,.16-.3.37.37,0,0,0-.12-.29.88.88,0,0,0-.29-.16L74.33,98a2.15,2.15,0,0,1-.38-.15.76.76,0,0,1-.29-.24.66.66,0,0,1-.11-.41.73.73,0,0,1,.11-.42.77.77,0,0,1,.34-.27,1.18,1.18,0,0,1,.52-.1,1.48,1.48,0,0,1,.57.11,1.07,1.07,0,0,1,.42.34l-.27.27a.87.87,0,0,0-.32-.25.93.93,0,0,0-.42-.09.67.67,0,0,0-.41.11.31.31,0,0,0-.14.27.35.35,0,0,0,.11.26,1,1,0,0,0,.29.15l.38.11a2.5,2.5,0,0,1,.38.15.88.88,0,0,1,.29.25.78.78,0,0,1,.11.43.72.72,0,0,1-.28.6A1.11,1.11,0,0,1,74.49,99.31Z"/><path class="cls-2" d="M77.4,99.31a1.34,1.34,0,0,1-.72-.2,1.39,1.39,0,0,1-.5-.52,1.58,1.58,0,0,1,0-1.5,1.41,1.41,0,0,1,.5-.53,1.33,1.33,0,0,1,.71-.19,1.21,1.21,0,0,1,.58.13,1,1,0,0,1,.41.36,1.07,1.07,0,0,1,.2.53v.89a1.14,1.14,0,0,1-.2.54,1.1,1.1,0,0,1-.41.36A1.2,1.2,0,0,1,77.4,99.31Zm.06-.4a.9.9,0,0,0,.71-.3,1.08,1.08,0,0,0,.27-.77,1.25,1.25,0,0,0-.13-.56A.9.9,0,0,0,78,96.9a1,1,0,0,0-.51-.14,1,1,0,0,0-.53.14,1,1,0,0,0-.37.38,1.13,1.13,0,0,0-.13.56,1.09,1.09,0,0,0,.13.55,1,1,0,0,0,.37.38A1,1,0,0,0,77.46,98.91Zm1,.34v-.76l.09-.69-.09-.68v-.69h.42v2.82Z"/><path class="cls-2" d="M80.88,99.22a1.27,1.27,0,0,1-.7-.19,1.29,1.29,0,0,1-.5-.51,1.57,1.57,0,0,1,0-1.46,1.41,1.41,0,0,1,.49-.51,1.48,1.48,0,0,1,1.29-.06,1.06,1.06,0,0,1,.42.36,1.21,1.21,0,0,1,.2.54v.8a1.17,1.17,0,0,1-.2.54,1.22,1.22,0,0,1-.42.36A1.24,1.24,0,0,1,80.88,99.22Zm0,1.28a1.81,1.81,0,0,1-.76-.16,1.48,1.48,0,0,1-.54-.45l.28-.28a1.12,1.12,0,0,0,.42.36,1.48,1.48,0,0,0,.61.12,1.09,1.09,0,0,0,.76-.25.93.93,0,0,0,.29-.71v-.7l.08-.64-.08-.64v-.72h.42v2.7a1.31,1.31,0,0,1-.19.72,1.28,1.28,0,0,1-.52.48A1.71,1.71,0,0,1,80.85,100.5ZM81,98.82a1.07,1.07,0,0,0,.51-.13.85.85,0,0,0,.34-.36,1.13,1.13,0,0,0,.12-.54,1.12,1.12,0,0,0-.12-.53.85.85,0,0,0-.34-.36,1,1,0,0,0-.52-.14,1,1,0,0,0-.53.14.89.89,0,0,0-.36.36,1.12,1.12,0,0,0-.13.53,1,1,0,0,0,.14.53.86.86,0,0,0,.36.37A1.12,1.12,0,0,0,81,98.82Z"/><path class="cls-2" d="M84.48,99.31a1.56,1.56,0,0,1-.76-.19,1.45,1.45,0,0,1-.54-.53,1.51,1.51,0,0,1-.19-.76,1.43,1.43,0,0,1,.19-.74,1.39,1.39,0,0,1,.52-.53,1.43,1.43,0,0,1,.74-.19,1.37,1.37,0,0,1,.68.17,1.27,1.27,0,0,1,.47.48,1.53,1.53,0,0,1,.17.72v.11l0,.14H83.29v-.36H85.5l-.15.14a1.13,1.13,0,0,0-.1-.54.84.84,0,0,0-.32-.35,1,1,0,0,0-.5-.12,1,1,0,0,0-.53.13.86.86,0,0,0-.36.37,1.1,1.1,0,0,0-.13.56,1.14,1.14,0,0,0,.13.57,1,1,0,0,0,.38.38,1,1,0,0,0,.56.14,1.24,1.24,0,0,0,.48-.09,1,1,0,0,0,.36-.28l.27.28a1.39,1.39,0,0,1-.49.36A1.44,1.44,0,0,1,84.48,99.31Z"/><path class="cls-2" d="M86.85,99.31a.36.36,0,0,1-.25-.1.37.37,0,0,1-.09-.25.32.32,0,0,1,.09-.24.32.32,0,0,1,.25-.1.32.32,0,0,1,.33.34.33.33,0,0,1-.33.35Z"/><polyline class="cls-6" points="15.07 183.21 88.84 183.21 108.9 202.78"/><path class="cls-2" d="M16,183a3.66,3.66,0,1,1-3.66-3.66A3.66,3.66,0,0,1,16,183Z"/><path class="cls-2" d="M21.33,193.68v-4.13h.31l1.78,2.93H23.2L25,189.55h.31v4.13h-.44v-3.36l.1,0-1.49,2.44h-.31l-1.49-2.44.11,0v3.36Z"/><path class="cls-2" d="M26.45,190.25a.31.31,0,0,1-.29-.29.26.26,0,0,1,.09-.21.25.25,0,0,1,.2-.09.31.31,0,0,1,.3.3.25.25,0,0,1-.09.2A.26.26,0,0,1,26.45,190.25Zm-.21,3.43v-2.82h.43v2.82Z"/><path class="cls-2" d="M27.52,193.68v-2.82h.42v2.82Zm2.05,0V192a.85.85,0,0,0-.22-.61.77.77,0,0,0-.58-.23.89.89,0,0,0-.43.11.81.81,0,0,0-.29.29.89.89,0,0,0-.11.43l-.19-.11a1.1,1.1,0,0,1,.15-.57,1,1,0,0,1,.4-.39,1.15,1.15,0,0,1,.59-.15,1,1,0,0,1,.57.16,1.08,1.08,0,0,1,.4.42A1.23,1.23,0,0,1,30,192v1.73Z"/><path class="cls-2" d="M31,190.25a.27.27,0,0,1-.2-.09.24.24,0,0,1-.08-.2.25.25,0,0,1,.08-.21.27.27,0,0,1,.2-.09.29.29,0,0,1,.22.09.29.29,0,0,1,.08.21.28.28,0,0,1-.08.2A.29.29,0,0,1,31,190.25Zm-.21,3.43v-2.82h.43v2.82Z"/><path class="cls-2" d="M32.06,193.68v-2.82h.42v2.82Zm1.94,0V192a.74.74,0,0,0-.21-.55.72.72,0,0,0-.53-.21.76.76,0,0,0-.39.1.64.64,0,0,0-.28.26.72.72,0,0,0-.11.4l-.19-.08a1.11,1.11,0,0,1,.14-.56,1.09,1.09,0,0,1,.39-.38,1.24,1.24,0,0,1,.55-.13,1.2,1.2,0,0,1,.54.13,1,1,0,0,1,.52.95v1.8Zm1.94,0V192a.74.74,0,0,0-.21-.55.71.71,0,0,0-.53-.21.76.76,0,0,0-.39.1.64.64,0,0,0-.28.26.72.72,0,0,0-.1.4l-.26-.08a1.13,1.13,0,0,1,.18-.56,1,1,0,0,1,.4-.38,1.24,1.24,0,0,1,.55-.13,1.2,1.2,0,0,1,.54.13,1,1,0,0,1,.38.38,1,1,0,0,1,.14.57v1.8Z"/><path class="cls-2" d="M37.37,190.25a.29.29,0,0,1-.21-.09.28.28,0,0,1-.08-.2.29.29,0,1,1,.58,0,.28.28,0,0,1-.08.2A.29.29,0,0,1,37.37,190.25Zm-.21,3.43v-2.82h.42v2.82Z"/><path class="cls-2" d="M38.19,193.45,40,191.09h.5l-1.78,2.36Zm0,.23v-.23l.36-.15h1.88v.38Zm.1-2.44v-.38h2.18v.23l-.4.15Z"/><path class="cls-2" d="M42.33,193.74a1.48,1.48,0,0,1-.76-.19A1.35,1.35,0,0,1,41,193a1.54,1.54,0,0,1,0-1.5,1.5,1.5,0,0,1,.53-.53,1.47,1.47,0,0,1,.73-.19A1.25,1.25,0,0,1,43,191a1.15,1.15,0,0,1,.47.48,1.38,1.38,0,0,1,.17.71v.11a1.31,1.31,0,0,1,0,.15H41.14v-.36h2.21l-.15.13a1.13,1.13,0,0,0-.1-.54.75.75,0,0,0-.32-.34.89.89,0,0,0-.5-.13,1.12,1.12,0,0,0-.53.13,1.06,1.06,0,0,0-.36.37,1.13,1.13,0,0,0-.13.56,1.15,1.15,0,0,0,.14.57.93.93,0,0,0,.37.39,1.17,1.17,0,0,0,.57.14,1,1,0,0,0,.47-.1,1,1,0,0,0,.37-.28l.26.28a1.22,1.22,0,0,1-.48.36A1.51,1.51,0,0,1,42.33,193.74Z"/><path class="cls-2" d="M46.82,193.74a1.35,1.35,0,0,1-.74-.2,1.5,1.5,0,0,1-.53-.53,1.56,1.56,0,0,1,0-1.49,1.47,1.47,0,0,1,.53-.52,1.44,1.44,0,0,1,.74-.2,1.55,1.55,0,0,1,.75.19,1.47,1.47,0,0,1,.52.53,1.49,1.49,0,0,1,0,1.49,1.39,1.39,0,0,1-.52.53A1.36,1.36,0,0,1,46.82,193.74Zm0-.41a1,1,0,0,0,.53-.13,1,1,0,0,0,.37-.39,1.12,1.12,0,0,0,.13-.55,1.08,1.08,0,0,0-.13-.54,1,1,0,0,0-.37-.38,1,1,0,0,0-.53-.14,1.08,1.08,0,0,0-.53.14,1,1,0,0,0-.36.38,1.08,1.08,0,0,0-.13.54,1.16,1.16,0,0,0,.13.56,1.09,1.09,0,0,0,.36.38A1.07,1.07,0,0,0,46.82,193.33Z"/><path class="cls-2" d="M49,194.87v-4h.42v.72l-.08.69.08.69v1.91Zm1.46-1.13a1.19,1.19,0,0,1-1-.49,1.27,1.27,0,0,1-.21-.54v-.88a1.18,1.18,0,0,1,.21-.54,1,1,0,0,1,.43-.36,1.2,1.2,0,0,1,.57-.13,1.3,1.3,0,0,1,.7.2,1.34,1.34,0,0,1,.5.53,1.63,1.63,0,0,1,0,1.49,1.39,1.39,0,0,1-.49.53A1.33,1.33,0,0,1,50.41,193.74Zm-.07-.4a1,1,0,0,0,.53-.13.92.92,0,0,0,.35-.38,1.27,1.27,0,0,0,0-1.12.89.89,0,0,0-.35-.37,1,1,0,0,0-.52-.14.9.9,0,0,0-.52.14,1,1,0,0,0-.36.37,1.37,1.37,0,0,0,0,1.12,1.07,1.07,0,0,0,.35.38A1,1,0,0,0,50.34,193.34Z"/><path class="cls-2" d="M53.76,193.74a1.51,1.51,0,0,1-.76-.19,1.42,1.42,0,0,1-.53-.53,1.58,1.58,0,0,1,0-1.5A1.47,1.47,0,0,1,53,191a1.54,1.54,0,0,1,.74-.19,1.3,1.3,0,0,1,.68.18,1.21,1.21,0,0,1,.47.48,1.49,1.49,0,0,1,.17.71.45.45,0,0,1,0,.11,1,1,0,0,1,0,.15H52.58v-.36h2.21l-.15.13a1.27,1.27,0,0,0-.1-.54.81.81,0,0,0-.32-.34.91.91,0,0,0-.5-.13,1.13,1.13,0,0,0-.54.13,1,1,0,0,0-.35.37,1.13,1.13,0,0,0-.13.56,1.14,1.14,0,0,0,.13.57,1,1,0,0,0,.38.39,1.13,1.13,0,0,0,.56.14,1,1,0,0,0,.47-.1.85.85,0,0,0,.37-.28l.27.28a1.18,1.18,0,0,1-.49.36A1.45,1.45,0,0,1,53.76,193.74Z"/><path class="cls-2" d="M55.69,193.68v-2.82h.42v2.82Zm.42-1.64-.17-.08a1.25,1.25,0,0,1,.26-.85.89.89,0,0,1,.71-.31,1,1,0,0,1,.39.08,1.12,1.12,0,0,1,.32.23l-.27.3a.57.57,0,0,0-.23-.16.61.61,0,0,0-.28-.05.72.72,0,0,0-.53.21A.9.9,0,0,0,56.11,192Z"/><path class="cls-2" d="M59.19,193.74a1.39,1.39,0,0,1-.72-.19A1.5,1.5,0,0,1,58,193a1.63,1.63,0,0,1,0-1.49,1.42,1.42,0,0,1,.5-.53,1.38,1.38,0,0,1,1.3-.07,1.1,1.1,0,0,1,.41.36,1.21,1.21,0,0,1,.2.54v.88a1.26,1.26,0,0,1-.2.54,1,1,0,0,1-.41.36A1.21,1.21,0,0,1,59.19,193.74Zm.07-.4a.94.94,0,0,0,.71-.29,1.17,1.17,0,0,0,.26-.78,1.25,1.25,0,0,0-.12-.56,1,1,0,0,0-.34-.38,1,1,0,0,0-.52-.13,1,1,0,0,0-.53.14,1,1,0,0,0-.36.38,1.15,1.15,0,0,0,0,1.1,1,1,0,0,0,.37.38A1,1,0,0,0,59.26,193.34Zm1,.34v-.75l.08-.7-.08-.68v-.69h.42v2.82Z"/><path class="cls-2" d="M61.18,191.24v-.38H63v.38Zm.71,2.44v-4h.42v4Z"/><path class="cls-2" d="M63.81,190.25a.29.29,0,0,1-.21-.09.28.28,0,0,1-.08-.2.29.29,0,0,1,.29-.3.27.27,0,0,1,.21.09.29.29,0,0,1,.08.21.28.28,0,0,1-.08.2A.27.27,0,0,1,63.81,190.25Zm-.21,3.43v-2.82H64v2.82Z"/><path class="cls-2" d="M66.15,193.74a1.35,1.35,0,0,1-.74-.2,1.5,1.5,0,0,1-.53-.53,1.56,1.56,0,0,1,0-1.49,1.47,1.47,0,0,1,.53-.52,1.44,1.44,0,0,1,.74-.2,1.55,1.55,0,0,1,.75.19,1.47,1.47,0,0,1,.52.53,1.49,1.49,0,0,1,0,1.49,1.39,1.39,0,0,1-.52.53A1.36,1.36,0,0,1,66.15,193.74Zm0-.41a1,1,0,0,0,.53-.13,1,1,0,0,0,.37-.39,1.12,1.12,0,0,0,.14-.55,1.09,1.09,0,0,0-.14-.54,1,1,0,0,0-.37-.38,1.05,1.05,0,0,0-1.05,0,1,1,0,0,0-.37.38,1.08,1.08,0,0,0-.13.54,1.16,1.16,0,0,0,.13.56,1,1,0,0,0,.37.38A1,1,0,0,0,66.15,193.33Z"/><path class="cls-2" d="M68.28,193.68v-2.82h.42v2.82Zm2.06,0V192a.89.89,0,0,0-.22-.61.78.78,0,0,0-.58-.23.83.83,0,0,0-.43.11.76.76,0,0,0-.3.29.89.89,0,0,0-.11.43l-.19-.11a1.1,1.1,0,0,1,.15-.57,1,1,0,0,1,.41-.39,1.11,1.11,0,0,1,.58-.15,1,1,0,0,1,.58.16,1,1,0,0,1,.39.42,1.12,1.12,0,0,1,.14.57v1.73Z"/><path class="cls-2" d="M72.77,193.74a1.34,1.34,0,0,1-.72-.19,1.41,1.41,0,0,1-.5-.53,1.63,1.63,0,0,1,0-1.49,1.37,1.37,0,0,1,1.79-.6,1.22,1.22,0,0,1,.42.36,1.2,1.2,0,0,1,.19.54v.88a1.25,1.25,0,0,1-.19.54,1,1,0,0,1-.42.36A1.2,1.2,0,0,1,72.77,193.74Zm.07-.4a.92.92,0,0,0,.7-.29,1.12,1.12,0,0,0,.27-.78,1.25,1.25,0,0,0-.12-.56,1,1,0,0,0-.35-.38.92.92,0,0,0-.51-.13.93.93,0,0,0-.53.14,1,1,0,0,0-.37.38,1.23,1.23,0,0,0,0,1.1,1,1,0,0,0,.37.38A1.09,1.09,0,0,0,72.84,193.34Zm1,.34v-.75l.08-.7-.08-.68v-.69h.42v2.82Z"/><path class="cls-2" d="M75.06,193.68v-4.25h.42v4.25Z"/><path class="cls-2" d="M78.9,193.74a1.43,1.43,0,0,1-1.27-.72,1.5,1.5,0,0,1-.2-.75,1.45,1.45,0,0,1,.2-.75,1.42,1.42,0,0,1,.53-.53,1.55,1.55,0,0,1,1.34-.07,1.32,1.32,0,0,1,.47.34l-.28.28a1,1,0,0,0-.35-.25,1.08,1.08,0,0,0-.44-.09,1,1,0,0,0-.53.14,1,1,0,0,0-.37.38,1.09,1.09,0,0,0-.13.55,1.14,1.14,0,0,0,.13.55,1,1,0,0,0,.37.38,1,1,0,0,0,.53.13,1.12,1.12,0,0,0,.45-.08.94.94,0,0,0,.34-.25l.29.28a1.27,1.27,0,0,1-.48.34A1.53,1.53,0,0,1,78.9,193.74Z"/><path class="cls-2" d="M81.79,193.74a1.35,1.35,0,0,1-.74-.2,1.5,1.5,0,0,1-.53-.53,1.56,1.56,0,0,1,0-1.49,1.47,1.47,0,0,1,.53-.52,1.44,1.44,0,0,1,.74-.2,1.43,1.43,0,0,1,1.27.72,1.48,1.48,0,0,1-.53,2A1.33,1.33,0,0,1,81.79,193.74Zm0-.41a1,1,0,0,0,.53-.13,1.07,1.07,0,0,0,.37-.39,1.12,1.12,0,0,0,.13-.55,1.08,1.08,0,0,0-.13-.54,1,1,0,0,0-.37-.38,1,1,0,0,0-.53-.14,1,1,0,0,0-.53.14,1,1,0,0,0-.37.38,1.2,1.2,0,0,0-.13.54,1.28,1.28,0,0,0,.13.56,1,1,0,0,0,.9.51Z"/><path class="cls-2" d="M84.78,193.74a1.54,1.54,0,0,1-.43-.06,1.38,1.38,0,0,1-.39-.18,1.06,1.06,0,0,1-.29-.27l.27-.27a1.2,1.2,0,0,0,.38.3,1.06,1.06,0,0,0,.48.1.82.82,0,0,0,.44-.11.35.35,0,0,0,.16-.3.35.35,0,0,0-.12-.28.73.73,0,0,0-.29-.16l-.37-.12a3.35,3.35,0,0,1-.38-.14A.71.71,0,0,1,84,192a.64.64,0,0,1-.11-.41.7.7,0,0,1,.11-.41.79.79,0,0,1,.34-.28,1.34,1.34,0,0,1,.52-.1,1.32,1.32,0,0,1,.57.12.92.92,0,0,1,.42.33l-.27.27a.87.87,0,0,0-.32-.25,1.08,1.08,0,0,0-.42-.08.67.67,0,0,0-.41.1.31.31,0,0,0-.14.27.33.33,0,0,0,.11.26,1,1,0,0,0,.29.15l.38.11a2.5,2.5,0,0,1,.38.15.91.91,0,0,1,.29.26.82.82,0,0,1-.17,1A1.11,1.11,0,0,1,84.78,193.74Z"/><path class="cls-2" d="M86.19,191.24v-.38H88v.38Zm.71,2.44v-4h.42v4Z"/><path class="cls-2" d="M89.41,193.74a1.61,1.61,0,0,1-.44-.06,1.21,1.21,0,0,1-.38-.18,1.27,1.27,0,0,1-.3-.27l.27-.27a1.32,1.32,0,0,0,.38.3,1.12,1.12,0,0,0,.48.1.77.77,0,0,0,.44-.11A.33.33,0,0,0,90,193a.38.38,0,0,0-.11-.28.9.9,0,0,0-.29-.16l-.38-.12-.38-.14a.78.78,0,0,1-.29-.25.79.79,0,0,1,0-.82.83.83,0,0,1,.33-.28,1.38,1.38,0,0,1,.52-.1,1.34,1.34,0,0,1,.58.12.89.89,0,0,1,.41.33l-.27.27a.84.84,0,0,0-.31-.25,1.16,1.16,0,0,0-.42-.08.73.73,0,0,0-.42.1.33.33,0,0,0-.14.27.31.31,0,0,0,.12.26.87.87,0,0,0,.29.15l.37.11a2.15,2.15,0,0,1,.38.15.81.81,0,0,1,.29.26.66.66,0,0,1,.11.42.75.75,0,0,1-.27.61A1.13,1.13,0,0,1,89.41,193.74Z"/><path class="cls-2" d="M91.53,193.74a.3.3,0,0,1-.24-.1.33.33,0,0,1-.1-.25.33.33,0,0,1,.1-.24.34.34,0,0,1,.48,0,.33.33,0,0,1,.1.24.33.33,0,0,1-.1.25A.3.3,0,0,1,91.53,193.74Z"/><path class="cls-2" d="M21.33,200.88v-4.13h.44v4.13Z"/><path class="cls-2" d="M22.72,200.88v-2.82h.42v2.82Zm1.94,0v-1.73a.74.74,0,0,0-.21-.55.72.72,0,0,0-.53-.21.73.73,0,0,0-.39.1.59.59,0,0,0-.28.26.72.72,0,0,0-.11.4l-.19-.08a1.11,1.11,0,0,1,.14-.56,1.09,1.09,0,0,1,.39-.38,1.21,1.21,0,0,1,1.09,0,1,1,0,0,1,.37.38,1,1,0,0,1,.14.57v1.8Zm1.94,0v-1.73a.74.74,0,0,0-.21-.55.72.72,0,0,0-.53-.21.76.76,0,0,0-.39.1.64.64,0,0,0-.28.26.72.72,0,0,0-.11.4l-.25-.08a1.12,1.12,0,0,1,.17-.56,1.07,1.07,0,0,1,.41-.38A1.2,1.2,0,0,1,26,198a1.24,1.24,0,0,1,.55.13,1,1,0,0,1,.38.38,1.15,1.15,0,0,1,.14.57v1.8Z"/><path class="cls-2" d="M27.81,202.07v-4h.42v.72l-.08.69.08.69v1.91Zm1.46-1.13a1.24,1.24,0,0,1-.58-.13,1.22,1.22,0,0,1-.42-.36,1.14,1.14,0,0,1-.2-.54V199a1.07,1.07,0,0,1,.2-.54,1,1,0,0,1,.43-.36,1.2,1.2,0,0,1,.57-.13,1.27,1.27,0,0,1,.7.2,1.34,1.34,0,0,1,.5.53,1.63,1.63,0,0,1,0,1.49,1.39,1.39,0,0,1-.49.53A1.33,1.33,0,0,1,29.27,200.94Zm-.07-.4a.95.95,0,0,0,.89-.51,1.37,1.37,0,0,0,0-1.12,1,1,0,0,0-.36-.37.92.92,0,0,0-.52-.14.9.9,0,0,0-.52.14.89.89,0,0,0-.35.37,1.27,1.27,0,0,0,0,1.12,1,1,0,0,0,.34.38A1,1,0,0,0,29.2,200.54Z"/><path class="cls-2" d="M31.32,200.88v-4.25h.42v4.25Z"/><path class="cls-2" d="M33.9,200.94a1.45,1.45,0,0,1-.76-.19,1.38,1.38,0,0,1-.54-.53,1.58,1.58,0,0,1,0-1.5,1.47,1.47,0,0,1,.52-.53,1.54,1.54,0,0,1,.74-.19,1.28,1.28,0,0,1,.68.18,1.15,1.15,0,0,1,.47.48,1.49,1.49,0,0,1,.17.71v.11s0,.09,0,.15H32.71v-.36h2.21l-.15.13a1.13,1.13,0,0,0-.1-.54.81.81,0,0,0-.32-.34.89.89,0,0,0-.5-.13,1.09,1.09,0,0,0-.53.13.91.91,0,0,0-.36.37,1.13,1.13,0,0,0-.13.56A1.14,1.14,0,0,0,33,200a1,1,0,0,0,.38.39,1.13,1.13,0,0,0,.56.14,1.09,1.09,0,0,0,.48-.1.88.88,0,0,0,.36-.28l.27.28a1.18,1.18,0,0,1-.49.36A1.44,1.44,0,0,1,33.9,200.94Z"/><path class="cls-2" d="M35.82,200.88v-2.82h.42v2.82Zm1.94,0v-1.73a.74.74,0,0,0-.21-.55.72.72,0,0,0-.53-.21.76.76,0,0,0-.39.1.64.64,0,0,0-.28.26.72.72,0,0,0-.11.4l-.19-.08a1.11,1.11,0,0,1,.14-.56,1.09,1.09,0,0,1,.39-.38,1.24,1.24,0,0,1,.55-.13,1.2,1.2,0,0,1,.54.13,1.06,1.06,0,0,1,.38.38,1.15,1.15,0,0,1,.14.57v1.8Zm1.94,0v-1.73a.72.72,0,0,0-.74-.76.76.76,0,0,0-.39.1.7.7,0,0,0-.28.26.72.72,0,0,0-.1.4l-.26-.08a1.13,1.13,0,0,1,.18-.56,1,1,0,0,1,.4-.38,1.24,1.24,0,0,1,.55-.13,1.2,1.2,0,0,1,.54.13,1,1,0,0,1,.38.38,1,1,0,0,1,.14.57v1.8Z"/><path class="cls-2" d="M42.22,200.94a1.45,1.45,0,0,1-.76-.19,1.35,1.35,0,0,1-.53-.53,1.54,1.54,0,0,1,0-1.5,1.47,1.47,0,0,1,.52-.53,1.54,1.54,0,0,1,.74-.19,1.25,1.25,0,0,1,.68.18,1.15,1.15,0,0,1,.47.48,1.38,1.38,0,0,1,.17.71v.11s0,.09,0,.15H41v-.36h2.21l-.15.13a1.13,1.13,0,0,0-.1-.54.75.75,0,0,0-.32-.34.89.89,0,0,0-.5-.13,1.12,1.12,0,0,0-.53.13,1,1,0,0,0-.36.37,1.13,1.13,0,0,0-.13.56,1.15,1.15,0,0,0,.14.57.93.93,0,0,0,.37.39,1.16,1.16,0,0,0,.56.14,1.06,1.06,0,0,0,.48-.1.88.88,0,0,0,.36-.28l.27.28a1.22,1.22,0,0,1-.48.36A1.51,1.51,0,0,1,42.22,200.94Z"/><path class="cls-2" d="M44.14,200.88v-2.82h.42v2.82Zm2.06,0v-1.65a.89.89,0,0,0-.22-.61.78.78,0,0,0-.58-.23.83.83,0,0,0-.43.11.76.76,0,0,0-.3.29.89.89,0,0,0-.11.43l-.19-.11a1.1,1.1,0,0,1,.15-.57,1,1,0,0,1,.41-.39,1.11,1.11,0,0,1,.58-.15,1,1,0,0,1,.58.16,1,1,0,0,1,.39.42,1.12,1.12,0,0,1,.14.57v1.73Z"/><path class="cls-2" d="M47.1,198.44v-.38h1.84v.38Zm.71,2.44v-4h.42v4Z"/><path class="cls-2" d="M52.1,200.94a1.51,1.51,0,0,1-.76-.19,1.42,1.42,0,0,1-.53-.53,1.58,1.58,0,0,1,0-1.5,1.47,1.47,0,0,1,.52-.53,1.54,1.54,0,0,1,.74-.19,1.28,1.28,0,0,1,.68.18,1.21,1.21,0,0,1,.47.48,1.49,1.49,0,0,1,.17.71.45.45,0,0,1,0,.11,1,1,0,0,1,0,.15H50.92v-.36h2.21l-.15.13a1.13,1.13,0,0,0-.1-.54.81.81,0,0,0-.32-.34.91.91,0,0,0-.5-.13,1.16,1.16,0,0,0-.54.13,1,1,0,0,0-.35.37,1.13,1.13,0,0,0-.13.56,1.14,1.14,0,0,0,.13.57,1,1,0,0,0,.38.39,1.13,1.13,0,0,0,.56.14,1.12,1.12,0,0,0,.48-.1.88.88,0,0,0,.36-.28l.27.28a1.18,1.18,0,0,1-.49.36A1.45,1.45,0,0,1,52.1,200.94Z"/><path class="cls-2" d="M54,200.88v-2.82h.42v2.82Zm2,0v-1.65a.85.85,0,0,0-.22-.61.77.77,0,0,0-.58-.23.89.89,0,0,0-.43.11.81.81,0,0,0-.29.29.89.89,0,0,0-.11.43l-.19-.11a1.1,1.1,0,0,1,.15-.57,1,1,0,0,1,.4-.39,1.15,1.15,0,0,1,.59-.15,1,1,0,0,1,.57.16,1.08,1.08,0,0,1,.4.42,1.23,1.23,0,0,1,.14.57v1.73Z"/><path class="cls-2" d="M58.6,200.94a1.52,1.52,0,0,1-.77-.19,1.42,1.42,0,0,1-.53-.53,1.58,1.58,0,0,1,0-1.5,1.47,1.47,0,0,1,.52-.53,1.54,1.54,0,0,1,.74-.19,1.28,1.28,0,0,1,.68.18,1.15,1.15,0,0,1,.47.48,1.49,1.49,0,0,1,.17.71.45.45,0,0,1,0,.11,1,1,0,0,1,0,.15H57.41v-.36h2.21l-.15.13a1.13,1.13,0,0,0-.1-.54.81.81,0,0,0-.32-.34.91.91,0,0,0-.5-.13,1.16,1.16,0,0,0-.54.13,1,1,0,0,0-.35.37,1.13,1.13,0,0,0-.13.56,1.14,1.14,0,0,0,.13.57,1,1,0,0,0,.38.39,1.13,1.13,0,0,0,.56.14,1.12,1.12,0,0,0,.48-.1.88.88,0,0,0,.36-.28l.27.28a1.18,1.18,0,0,1-.49.36A1.44,1.44,0,0,1,58.6,200.94Z"/><path class="cls-2" d="M60.52,200.88v-2.82h.42v2.82Zm.42-1.64-.17-.08a1.25,1.25,0,0,1,.26-.85.9.9,0,0,1,.72-.31,1,1,0,0,1,.38.08,1,1,0,0,1,.32.23l-.27.3a.57.57,0,0,0-.23-.16.61.61,0,0,0-.28,0,.69.69,0,0,0-.52.21A.86.86,0,0,0,60.94,199.24Z"/><path class="cls-2" d="M64,200.85a1.41,1.41,0,0,1-.71-.18,1.41,1.41,0,0,1-.67-1.25,1.43,1.43,0,0,1,.18-.72,1.27,1.27,0,0,1,.49-.51A1.29,1.29,0,0,1,64,198a1.25,1.25,0,0,1,.59.13,1,1,0,0,1,.42.36,1.17,1.17,0,0,1,.2.54v.8a1.17,1.17,0,0,1-.2.53,1,1,0,0,1-.42.36A1.24,1.24,0,0,1,64,200.85Zm0,1.28a1.67,1.67,0,0,1-.76-.16,1.31,1.31,0,0,1-.54-.45l.28-.27a1.1,1.1,0,0,0,.42.35,1.31,1.31,0,0,0,.61.13,1.09,1.09,0,0,0,.76-.26.9.9,0,0,0,.29-.7v-.7l.08-.65-.08-.63v-.73h.42v2.71a1.28,1.28,0,0,1-.19.71,1.15,1.15,0,0,1-.52.48A1.71,1.71,0,0,1,64,202.13Zm.1-1.68a1,1,0,0,0,.52-.13.88.88,0,0,0,.34-.35,1.2,1.2,0,0,0,.12-.55,1.12,1.12,0,0,0-.12-.53.93.93,0,0,0-.35-.36.94.94,0,0,0-.51-.13,1,1,0,0,0-.89.49,1.12,1.12,0,0,0-.13.53,1.09,1.09,0,0,0,.14.54.83.83,0,0,0,.36.36A1,1,0,0,0,64.07,200.45Z"/><path class="cls-2" d="M67.24,200.89,66,198.06h.46l1,2.37h-.18l1-2.37h.47l-1.32,2.83Zm-.77,1.18.77-1.6.24.42-.55,1.18Z"/><path class="cls-2" d="M69.13,199.56v-.4H71v.4Z"/><path class="cls-2" d="M73.27,200.94a1.52,1.52,0,0,1-.77-.19,1.42,1.42,0,0,1-.53-.53,1.58,1.58,0,0,1,0-1.5,1.47,1.47,0,0,1,.52-.53,1.54,1.54,0,0,1,.74-.19,1.28,1.28,0,0,1,.68.18,1.21,1.21,0,0,1,.47.48,1.49,1.49,0,0,1,.17.71.45.45,0,0,1,0,.11,1,1,0,0,1,0,.15H72.08v-.36h2.21l-.15.13a1.13,1.13,0,0,0-.1-.54.81.81,0,0,0-.32-.34.91.91,0,0,0-.5-.13,1.16,1.16,0,0,0-.54.13,1,1,0,0,0-.35.37,1.13,1.13,0,0,0-.13.56,1.14,1.14,0,0,0,.13.57,1,1,0,0,0,.38.39,1.13,1.13,0,0,0,.56.14,1.12,1.12,0,0,0,.48-.1.88.88,0,0,0,.36-.28l.27.28a1.18,1.18,0,0,1-.49.36A1.44,1.44,0,0,1,73.27,200.94Z"/><path class="cls-2" d="M74.8,198.44v-.38h3.73v.38Zm.7,2.44v-3.2a1,1,0,0,1,.14-.54.92.92,0,0,1,.36-.37,1.1,1.1,0,0,1,.55-.14.93.93,0,0,1,.51.14.78.78,0,0,1,.31.36,1.24,1.24,0,0,1,.1.52h-.31a.69.69,0,0,0-.16-.46.58.58,0,0,0-.45-.17.57.57,0,0,0-.46.18.68.68,0,0,0-.16.48v3.2Zm1.66,0v-3.3a1,1,0,0,1,.13-.52,1,1,0,0,1,.36-.36,1.11,1.11,0,0,1,.52-.13.88.88,0,0,1,.41.09.93.93,0,0,1,.31.22l-.27.28a.61.61,0,0,0-.2-.14.66.66,0,0,0-.25-.05.56.56,0,0,0-.43.17.64.64,0,0,0-.15.45v3.29Z"/><path class="cls-2" d="M79.33,197.45a.29.29,0,0,1-.21-.09.28.28,0,0,1-.08-.2.29.29,0,1,1,.58,0,.28.28,0,0,1-.08.2A.29.29,0,0,1,79.33,197.45Zm-.21,3.43v-2.82h.42v2.82Z"/><path class="cls-2" d="M81.68,200.94a1.44,1.44,0,0,1-.75-.19,1.43,1.43,0,0,1-.72-1.28,1.44,1.44,0,0,1,.19-.75,1.5,1.5,0,0,1,.53-.53,1.55,1.55,0,0,1,.75-.19,1.45,1.45,0,0,1,.59.12,1.24,1.24,0,0,1,.47.34l-.28.28a.94.94,0,0,0-.34-.25,1.12,1.12,0,0,0-.44-.09,1.09,1.09,0,0,0-.54.14,1,1,0,0,0-.36.38,1.09,1.09,0,0,0-.13.55,1.14,1.14,0,0,0,.13.55,1.09,1.09,0,0,0,.36.38,1.08,1.08,0,0,0,.54.13,1,1,0,0,0,.44-.08,1,1,0,0,0,.35-.25l.28.28a1.27,1.27,0,0,1-.48.34A1.45,1.45,0,0,1,81.68,200.94Z"/><path class="cls-2" d="M83.55,197.45a.31.31,0,0,1-.29-.29.26.26,0,0,1,.09-.21.25.25,0,0,1,.2-.09.26.26,0,0,1,.21.09.25.25,0,0,1,.08.21.24.24,0,0,1-.08.2A.26.26,0,0,1,83.55,197.45Zm-.21,3.43v-2.82h.43v2.82Z"/><path class="cls-2" d="M85.92,200.94a1.48,1.48,0,0,1-.76-.19,1.35,1.35,0,0,1-.53-.53,1.45,1.45,0,0,1-.2-.75,1.55,1.55,0,0,1,.19-.75,1.43,1.43,0,0,1,1.27-.72,1.3,1.3,0,0,1,.68.18,1.18,1.18,0,0,1,.46.48,1.38,1.38,0,0,1,.17.71v.11s0,.09,0,.15H84.73v-.36H87l-.15.13a1.13,1.13,0,0,0-.11-.54.75.75,0,0,0-.32-.34.87.87,0,0,0-.5-.13,1.12,1.12,0,0,0-.53.13,1.06,1.06,0,0,0-.36.37,1.25,1.25,0,0,0-.13.56A1.15,1.15,0,0,0,85,200a.89.89,0,0,0,.38.39,1.11,1.11,0,0,0,.56.14,1,1,0,0,0,.47-.1.91.91,0,0,0,.37-.28l.27.28a1.33,1.33,0,0,1-.49.36A1.51,1.51,0,0,1,85.92,200.94Z"/><path class="cls-2" d="M87.85,200.88v-2.82h.42v2.82Zm2.05,0v-1.65a.85.85,0,0,0-.22-.61.78.78,0,0,0-.58-.23.86.86,0,0,0-.43.11.83.83,0,0,0-.3.29.88.88,0,0,0-.1.43l-.2-.11a1.1,1.1,0,0,1,.15-.57,1,1,0,0,1,.41-.39,1.11,1.11,0,0,1,.58-.15,1,1,0,0,1,.58.16,1,1,0,0,1,.39.42,1.12,1.12,0,0,1,.14.57v1.73Z"/><path class="cls-2" d="M90.8,198.44v-.38h1.84v.38Zm.71,2.44v-4h.42v4Z"/><path class="cls-2" d="M21.23,209.27v-4h.42V206l-.09.69.09.69v1.91Zm1.45-1.13a1.24,1.24,0,0,1-.58-.13,1.22,1.22,0,0,1-.42-.36,1.1,1.1,0,0,1-.2-.54v-.88a1.11,1.11,0,0,1,.63-.9,1.4,1.4,0,0,1,.57-.13,1.33,1.33,0,0,1,.71.2,1.39,1.39,0,0,1,.49.53,1.54,1.54,0,0,1,.18.75,1.5,1.5,0,0,1-.18.74,1.39,1.39,0,0,1-.49.53A1.33,1.33,0,0,1,22.68,208.14Zm-.07-.4a.95.95,0,0,0,.89-.51,1.25,1.25,0,0,0,.13-.56,1.21,1.21,0,0,0-.13-.55,1,1,0,0,0-.88-.52,1,1,0,0,0-.52.14.92.92,0,0,0-.35.38,1.09,1.09,0,0,0-.13.55,1.13,1.13,0,0,0,.13.56.92.92,0,0,0,.35.38A.94.94,0,0,0,22.61,207.74Z"/><path class="cls-2" d="M24.74,208.08v-2.82h.42v2.82Zm.42-1.64-.18-.08a1.31,1.31,0,0,1,.26-.85,1,1,0,0,1,1.1-.23,1,1,0,0,1,.33.23l-.28.3a.54.54,0,0,0-.22-.16.82.82,0,0,0-.28-.05.71.71,0,0,0-.53.21A.85.85,0,0,0,25.16,206.44Z"/><path class="cls-2" d="M28.29,208.14a1.43,1.43,0,0,1-.74-.19,1.61,1.61,0,0,1-.53-.54,1.56,1.56,0,0,1,0-1.49,1.47,1.47,0,0,1,.53-.52,1.44,1.44,0,0,1,.74-.2,1.55,1.55,0,0,1,.75.19,1.47,1.47,0,0,1,.52.53,1.49,1.49,0,0,1,0,1.49A1.5,1.5,0,0,1,29,208,1.44,1.44,0,0,1,28.29,208.14Zm0-.4a1.09,1.09,0,0,0,.54-.14,1,1,0,0,0,.36-.39,1.1,1.1,0,0,0-.36-1.47,1.08,1.08,0,0,0-.54-.13,1,1,0,0,0-.52.13,1,1,0,0,0-.37.38,1.08,1.08,0,0,0-.13.54,1.16,1.16,0,0,0,.13.56,1,1,0,0,0,.37.38A1,1,0,0,0,28.29,207.74Z"/><path class="cls-2" d="M31.71,208.14A1.44,1.44,0,0,1,31,208a1.43,1.43,0,0,1-.72-1.28,1.44,1.44,0,0,1,.19-.75,1.5,1.5,0,0,1,.53-.53,1.55,1.55,0,0,1,.75-.19,1.45,1.45,0,0,1,.59.12,1.24,1.24,0,0,1,.47.34l-.28.28a.94.94,0,0,0-.34-.25,1.11,1.11,0,0,0-.44-.08,1.08,1.08,0,0,0-.54.13,1,1,0,0,0-.49.93,1.14,1.14,0,0,0,.13.55,1,1,0,0,0,.9.52,1,1,0,0,0,.44-.09,1,1,0,0,0,.35-.25l.28.28a1.32,1.32,0,0,1-.47.34A1.53,1.53,0,0,1,31.71,208.14Z"/><path class="cls-2" d="M34.62,208.14a1.48,1.48,0,0,1-.76-.19,1.35,1.35,0,0,1-.53-.53,1.54,1.54,0,0,1,0-1.5,1.5,1.5,0,0,1,.53-.53,1.47,1.47,0,0,1,.73-.19,1.25,1.25,0,0,1,.68.18,1.15,1.15,0,0,1,.47.48,1.38,1.38,0,0,1,.17.71v.11a1.31,1.31,0,0,1,0,.15H33.43v-.36h2.21l-.15.13a1.13,1.13,0,0,0-.1-.54.75.75,0,0,0-.32-.34.89.89,0,0,0-.5-.13,1.12,1.12,0,0,0-.53.13,1.06,1.06,0,0,0-.36.37,1.25,1.25,0,0,0,0,1.13.93.93,0,0,0,.37.39,1.17,1.17,0,0,0,.57.14,1,1,0,0,0,.47-.1,1.07,1.07,0,0,0,.37-.27l.26.27a1.22,1.22,0,0,1-.48.36A1.51,1.51,0,0,1,34.62,208.14Z"/><path class="cls-2" d="M37.41,208.14a1.61,1.61,0,0,1-.44-.06,1.21,1.21,0,0,1-.38-.18,1.27,1.27,0,0,1-.3-.27l.27-.27a1.2,1.2,0,0,0,.38.3,1.09,1.09,0,0,0,.48.1.77.77,0,0,0,.44-.11.33.33,0,0,0,.16-.3.38.38,0,0,0-.11-.28.9.9,0,0,0-.29-.16l-.38-.12-.38-.14a.78.78,0,0,1-.29-.25.7.7,0,0,1-.11-.4.74.74,0,0,1,.12-.42.83.83,0,0,1,.33-.28,1.43,1.43,0,0,1,1.1,0,.89.89,0,0,1,.41.33l-.27.27a1,1,0,0,0-.31-.25,1.18,1.18,0,0,0-.43-.08.69.69,0,0,0-.41.1.33.33,0,0,0-.14.27.31.31,0,0,0,.12.26.87.87,0,0,0,.29.15l.37.11a2.5,2.5,0,0,1,.38.15.81.81,0,0,1,.29.26.67.67,0,0,1,.11.43.74.74,0,0,1-.27.6A1.13,1.13,0,0,1,37.41,208.14Z"/><path class="cls-2" d="M40,208.14a1.61,1.61,0,0,1-.44-.06,1.33,1.33,0,0,1-.38-.18,1.06,1.06,0,0,1-.29-.27l.27-.27a1.2,1.2,0,0,0,.38.3,1,1,0,0,0,.47.1.83.83,0,0,0,.45-.11.39.39,0,0,0,0-.58.81.81,0,0,0-.29-.16l-.38-.12-.37-.14a.71.71,0,0,1-.29-.25A.63.63,0,0,1,39,206a.74.74,0,0,1,.12-.42.79.79,0,0,1,.34-.28,1.34,1.34,0,0,1,.52-.1,1.32,1.32,0,0,1,.57.12,1,1,0,0,1,.42.33l-.27.27a1,1,0,0,0-.32-.25,1.12,1.12,0,0,0-.42-.08.67.67,0,0,0-.41.1.31.31,0,0,0-.14.27.3.3,0,0,0,.11.26,1,1,0,0,0,.29.15,3.44,3.44,0,0,0,.38.11,2.39,2.39,0,0,1,.37.15.94.94,0,0,1,.3.26.74.74,0,0,1,.11.43.72.72,0,0,1-.28.6A1.13,1.13,0,0,1,40,208.14Z"/><path class="cls-2" d="M42.93,208.14a1.51,1.51,0,0,1-.76-.19,1.42,1.42,0,0,1-.53-.53,1.58,1.58,0,0,1,0-1.5,1.47,1.47,0,0,1,.52-.53,1.54,1.54,0,0,1,.74-.19,1.3,1.3,0,0,1,.68.18,1.21,1.21,0,0,1,.47.48,1.49,1.49,0,0,1,.17.71.45.45,0,0,1,0,.11,1,1,0,0,1,0,.15H41.75v-.36H44l-.15.13a1.27,1.27,0,0,0-.1-.54.81.81,0,0,0-.32-.34.91.91,0,0,0-.5-.13,1.13,1.13,0,0,0-.54.13,1,1,0,0,0-.35.37,1.14,1.14,0,0,0-.13.57,1.13,1.13,0,0,0,.13.56,1,1,0,0,0,.38.39,1.13,1.13,0,0,0,.56.14,1,1,0,0,0,.47-.1.91.91,0,0,0,.37-.27l.27.27a1.18,1.18,0,0,1-.49.36A1.45,1.45,0,0,1,42.93,208.14Z"/><path class="cls-2" d="M45.72,208.14a1.54,1.54,0,0,1-.43-.06,1.38,1.38,0,0,1-.39-.18,1.06,1.06,0,0,1-.29-.27l.27-.27a1.2,1.2,0,0,0,.38.3,1.06,1.06,0,0,0,.48.1.82.82,0,0,0,.44-.11.35.35,0,0,0,.16-.3.35.35,0,0,0-.12-.28.73.73,0,0,0-.29-.16l-.37-.12a3.35,3.35,0,0,1-.38-.14.71.71,0,0,1-.29-.25.63.63,0,0,1-.11-.4.73.73,0,0,1,.11-.42.79.79,0,0,1,.34-.28,1.38,1.38,0,0,1,.52-.1,1.32,1.32,0,0,1,.57.12.92.92,0,0,1,.42.33l-.27.27a1,1,0,0,0-.32-.25,1.08,1.08,0,0,0-.42-.08.67.67,0,0,0-.41.1.31.31,0,0,0-.14.27.33.33,0,0,0,.11.26,1.13,1.13,0,0,0,.29.15l.38.11a2.5,2.5,0,0,1,.38.15.91.91,0,0,1,.29.26.84.84,0,0,1-.16,1A1.16,1.16,0,0,1,45.72,208.14Z"/><path class="cls-2" d="M47.85,208.14a.33.33,0,0,1-.25-.1.37.37,0,0,1-.09-.25.36.36,0,0,1,.09-.24.37.37,0,0,1,.25-.1.37.37,0,0,1,.24.1.36.36,0,0,1,.09.24.37.37,0,0,1-.09.25A.33.33,0,0,1,47.85,208.14Z"/><polyline class="cls-6" points="15.07 292.05 88.84 292.05 108.9 311.61"/><path class="cls-2" d="M16,291.81a3.66,3.66,0,1,1-3.66-3.66A3.66,3.66,0,0,1,16,291.81Z"/><path class="cls-2" d="M21.33,302.52v-4.13h.44v4.13Zm.28-1.85v-.37h1.2a.85.85,0,0,0,.62-.21.72.72,0,0,0,.22-.56.7.7,0,0,0-.22-.54.81.81,0,0,0-.62-.22h-1.2v-.38h1.2a1.47,1.47,0,0,1,.69.15,1,1,0,0,1,.44.4,1.26,1.26,0,0,1,0,1.19,1.07,1.07,0,0,1-.44.4,1.6,1.6,0,0,1-.69.14Zm2.21,1.85-1.54-1.91.42-.14,1.69,2Z"/><path class="cls-2" d="M26.15,302.58a1.52,1.52,0,0,1-.77-.2,1.39,1.39,0,0,1-.53-.52,1.51,1.51,0,0,1-.19-.76,1.47,1.47,0,0,1,.19-.75,1.42,1.42,0,0,1,1.26-.71,1.27,1.27,0,0,1,.68.17,1.35,1.35,0,0,1,.47.48,1.52,1.52,0,0,1,.17.71.53.53,0,0,1,0,.12.78.78,0,0,1,0,.14H25v-.36h2.21L27,301a1.12,1.12,0,0,0-.1-.53.84.84,0,0,0-.32-.35,1,1,0,0,0-.5-.12,1.05,1.05,0,0,0-.54.13.89.89,0,0,0-.35.37,1.1,1.1,0,0,0-.13.56,1.17,1.17,0,0,0,.13.57,1,1,0,0,0,.38.38,1.13,1.13,0,0,0,.56.14,1.28,1.28,0,0,0,.48-.09,1,1,0,0,0,.36-.28l.27.28a1.39,1.39,0,0,1-.49.36A1.6,1.6,0,0,1,26.15,302.58Z"/><path class="cls-2" d="M29.27,302.58a1.3,1.3,0,0,1-.7-.2,1.39,1.39,0,0,1-.5-.52,1.65,1.65,0,0,1,0-1.5,1.5,1.5,0,0,1,.5-.53,1.29,1.29,0,0,1,.7-.19,1.18,1.18,0,0,1,1,.48,1.1,1.1,0,0,1,.2.54v.88a1.17,1.17,0,0,1-.2.54,1,1,0,0,1-.43.36A1.21,1.21,0,0,1,29.27,302.58Zm.07-.41a.92.92,0,0,0,.87-.51,1.23,1.23,0,0,0,.12-.55,1.1,1.1,0,0,0-.13-.56.92.92,0,0,0-.35-.38,1,1,0,0,0-.51-.14,1,1,0,0,0-.52.14.94.94,0,0,0-.36.38,1.13,1.13,0,0,0-.13.56,1.12,1.12,0,0,0,.13.55.94.94,0,0,0,.36.38A1,1,0,0,0,29.34,302.17Zm1.39.35h-.42v-.76l.08-.7-.08-.67v-2.12h.42Z"/><path class="cls-2" d="M32.7,302.58a1.23,1.23,0,0,1-.61-.16,1.14,1.14,0,0,1-.43-.44,1.32,1.32,0,0,1-.15-.64V299.7h.43v1.62a1.06,1.06,0,0,0,.09.45.77.77,0,0,0,.27.3.74.74,0,0,0,.4.1.7.7,0,0,0,.56-.23.9.9,0,0,0,.21-.62V299.7h.42v1.64a1.34,1.34,0,0,1-.15.64,1.05,1.05,0,0,1-.42.44A1.27,1.27,0,0,1,32.7,302.58Z"/><path class="cls-2" d="M36,302.58a1.45,1.45,0,0,1-.75-.2,1.5,1.5,0,0,1-.53-.53,1.44,1.44,0,0,1-.19-.75,1.4,1.4,0,0,1,.72-1.27,1.55,1.55,0,0,1,1.34-.07,1.43,1.43,0,0,1,.47.33l-.28.29a.81.81,0,0,0-.35-.25A1,1,0,0,0,36,300a1.09,1.09,0,0,0-.54.14.86.86,0,0,0-.36.37,1.1,1.1,0,0,0-.14.55,1.12,1.12,0,0,0,.14.55.88.88,0,0,0,.36.38,1.12,1.12,0,0,0,1,.05,1,1,0,0,0,.35-.25l.28.28a1.3,1.3,0,0,1-.48.35A1.45,1.45,0,0,1,36,302.58Z"/><path class="cls-2" d="M38.86,302.58a1.51,1.51,0,0,1-.76-.2,1.39,1.39,0,0,1-.53-.52,1.51,1.51,0,0,1-.19-.76,1.47,1.47,0,0,1,.19-.75,1.42,1.42,0,0,1,1.26-.71,1.27,1.27,0,0,1,.68.17,1.35,1.35,0,0,1,.47.48,1.52,1.52,0,0,1,.17.71.53.53,0,0,1,0,.12.78.78,0,0,1,0,.14H37.68v-.36h2.21l-.15.13a1.12,1.12,0,0,0-.1-.53.84.84,0,0,0-.32-.35,1,1,0,0,0-.5-.12,1,1,0,0,0-.54.13.89.89,0,0,0-.35.37,1.1,1.1,0,0,0-.13.56,1.17,1.17,0,0,0,.13.57,1,1,0,0,0,.38.38,1.13,1.13,0,0,0,.56.14,1.28,1.28,0,0,0,.48-.09,1,1,0,0,0,.36-.28l.27.28a1.39,1.39,0,0,1-.49.36A1.61,1.61,0,0,1,38.86,302.58Z"/><path class="cls-2" d="M42.87,302.52l-1.09-2.82h.44l.86,2.34h-.16l.85-2.34H44l.85,2.34h-.16l.86-2.34H46l-1.09,2.82h-.25l-.87-2.31H44l-.86,2.31Z"/><path class="cls-2" d="M47.68,302.58a1.39,1.39,0,0,1-.72-.2,1.47,1.47,0,0,1-.5-.52,1.65,1.65,0,0,1,0-1.5,1.5,1.5,0,0,1,.5-.53,1.36,1.36,0,0,1,.72-.19,1.24,1.24,0,0,1,.58.13,1,1,0,0,1,.41.36,1.17,1.17,0,0,1,.2.53v.88a1.25,1.25,0,0,1-.2.55,1.1,1.1,0,0,1-.41.36A1.34,1.34,0,0,1,47.68,302.58Zm.07-.41a.91.91,0,0,0,.71-.29,1.14,1.14,0,0,0,.26-.77,1.22,1.22,0,0,0-.12-.56.9.9,0,0,0-.34-.38,1,1,0,0,0-.52-.14,1,1,0,0,0-.53.14,1,1,0,0,0-.36.38,1.17,1.17,0,0,0,0,1.11,1,1,0,0,0,.37.38A1,1,0,0,0,47.75,302.17Zm1,.35v-.76l.08-.7-.08-.67v-.69h.42v2.82Z"/><path class="cls-2" d="M50.83,302.58a1.25,1.25,0,0,1-.43-.07,1.71,1.71,0,0,1-.39-.17,1.5,1.5,0,0,1-.29-.27l.27-.28a1,1,0,0,0,.38.3,1.06,1.06,0,0,0,.48.1.82.82,0,0,0,.44-.1.38.38,0,0,0,.16-.31.36.36,0,0,0-.12-.28.73.73,0,0,0-.29-.16l-.37-.12a1.57,1.57,0,0,1-.38-.14.76.76,0,0,1-.29-.24.66.66,0,0,1-.11-.41A.82.82,0,0,1,50,300a.71.71,0,0,1,.34-.27,1.21,1.21,0,0,1,.52-.1,1.32,1.32,0,0,1,.57.11,1,1,0,0,1,.42.34l-.27.27a.87.87,0,0,0-.32-.25.93.93,0,0,0-.42-.09.67.67,0,0,0-.41.11.33.33,0,0,0-.14.27.31.31,0,0,0,.11.25.73.73,0,0,0,.29.15l.38.12a2.5,2.5,0,0,1,.38.15.69.69,0,0,1,.4.68.74.74,0,0,1-.27.6A1.16,1.16,0,0,1,50.83,302.58Z"/><path class="cls-2" d="M52.24,300.07v-.37h1.84v.37Zm.71,2.45v-4h.42v4Z"/><path class="cls-2" d="M55.86,302.58a1.52,1.52,0,0,1-.77-.2,1.39,1.39,0,0,1-.53-.52,1.51,1.51,0,0,1-.19-.76,1.47,1.47,0,0,1,.19-.75,1.42,1.42,0,0,1,1.26-.71,1.27,1.27,0,0,1,.68.17,1.35,1.35,0,0,1,.47.48,1.52,1.52,0,0,1,.17.71.53.53,0,0,1,0,.12.78.78,0,0,1,0,.14H54.67v-.36h2.21l-.15.13a1.12,1.12,0,0,0-.1-.53.84.84,0,0,0-.32-.35,1,1,0,0,0-.5-.12,1.05,1.05,0,0,0-.54.13.89.89,0,0,0-.35.37,1.1,1.1,0,0,0-.13.56,1.17,1.17,0,0,0,.13.57,1,1,0,0,0,.38.38,1.13,1.13,0,0,0,.56.14,1.28,1.28,0,0,0,.48-.09,1,1,0,0,0,.36-.28l.27.28a1.39,1.39,0,0,1-.49.36A1.6,1.6,0,0,1,55.86,302.58Z"/><path class="cls-2" d="M60.3,302.58a1.34,1.34,0,0,1-.72-.2,1.41,1.41,0,0,1-.51-.52,1.65,1.65,0,0,1,0-1.5,1.44,1.44,0,0,1,.51-.53,1.33,1.33,0,0,1,.71-.19,1.21,1.21,0,0,1,.58.13,1,1,0,0,1,.41.36,1.17,1.17,0,0,1,.2.53v.88a1.25,1.25,0,0,1-.2.55,1.1,1.1,0,0,1-.41.36A1.33,1.33,0,0,1,60.3,302.58Zm.06-.41a.91.91,0,0,0,.71-.29,1.14,1.14,0,0,0,.26-.77,1.22,1.22,0,0,0-.12-.56.9.9,0,0,0-.34-.38,1,1,0,0,0-.51-.14,1.09,1.09,0,0,0-.54.14,1,1,0,0,0-.36.38,1.17,1.17,0,0,0,0,1.11,1,1,0,0,0,.37.38A1,1,0,0,0,60.36,302.17Zm1,.35v-.76l.08-.7-.08-.67v-.69h.42v2.82Z"/><path class="cls-2" d="M62.58,302.52V299.7H63v2.82Zm2,0v-1.66a.81.81,0,0,0-.22-.6.71.71,0,0,0-.57-.23.89.89,0,0,0-.44.1.83.83,0,0,0-.29.3.82.82,0,0,0-.11.42l-.19-.1a1.05,1.05,0,0,1,.15-.57,1.1,1.1,0,0,1,.4-.4,1.15,1.15,0,0,1,.59-.14,1.11,1.11,0,0,1,.58.15,1.31,1.31,0,0,1,.39.42,1.27,1.27,0,0,1,.14.58v1.73Z"/><path class="cls-2" d="M67.05,302.58a1.33,1.33,0,0,1-.71-.2,1.37,1.37,0,0,1-.49-.52,1.65,1.65,0,0,1,0-1.5,1.47,1.47,0,0,1,.49-.53,1.42,1.42,0,0,1,1.28-.07,1.26,1.26,0,0,1,.43.36,1.1,1.1,0,0,1,.2.54v.88a1.07,1.07,0,0,1-.2.54,1,1,0,0,1-.42.36A1.24,1.24,0,0,1,67.05,302.58Zm.07-.41a.94.94,0,0,0,.51-.13.92.92,0,0,0,.35-.38,1.12,1.12,0,0,0,.13-.55,1.22,1.22,0,0,0-.13-.56,1.07,1.07,0,0,0-.35-.38,1,1,0,0,0-.52-.14,1,1,0,0,0-.88.52,1.25,1.25,0,0,0,0,1.11,1,1,0,0,0,.36.38A1,1,0,0,0,67.12,302.17Zm1.38.35h-.42v-.76l.09-.7-.09-.67v-2.12h.42Z"/><path class="cls-2" d="M22.53,309.78a1.56,1.56,0,0,1-.76-.19,1.45,1.45,0,0,1-.54-.53,1.51,1.51,0,0,1-.19-.76,1.47,1.47,0,0,1,.19-.75,1.42,1.42,0,0,1,1.26-.71,1.26,1.26,0,0,1,1.15.65,1.42,1.42,0,0,1,.17.72v.11l0,.14H21.34v-.36h2.21l-.15.13a1.12,1.12,0,0,0-.1-.53.84.84,0,0,0-.32-.35,1,1,0,0,0-.5-.12,1,1,0,0,0-.53.13.92.92,0,0,0-.36.37,1.1,1.1,0,0,0-.13.56,1.17,1.17,0,0,0,.14.57.9.9,0,0,0,.37.38,1.06,1.06,0,0,0,.56.14,1.24,1.24,0,0,0,.48-.09,1,1,0,0,0,.36-.28l.27.28a1.44,1.44,0,0,1-.48.36A1.69,1.69,0,0,1,22.53,309.78Z"/><path class="cls-2" d="M24.45,309.72V306.9h.42v2.82Zm1.94,0V308a.76.76,0,0,0-.21-.56.74.74,0,0,0-.53-.2.86.86,0,0,0-.39.09.7.7,0,0,0-.28.26.75.75,0,0,0-.11.4l-.19-.07a1.05,1.05,0,0,1,.15-.57,1,1,0,0,1,.38-.37,1.12,1.12,0,0,1,.55-.13,1.08,1.08,0,0,1,.54.13,1,1,0,0,1,.38.37,1.15,1.15,0,0,1,.14.57v1.81Zm1.95,0V308a.71.71,0,0,0-.75-.76.86.86,0,0,0-.39.09.77.77,0,0,0-.28.26.74.74,0,0,0-.1.4l-.25-.07a1.16,1.16,0,0,1,.17-.57,1,1,0,0,1,.4-.37,1.14,1.14,0,0,1,.55-.13,1.08,1.08,0,0,1,.54.13,1,1,0,0,1,.38.37,1.05,1.05,0,0,1,.15.57v1.81Z"/><path class="cls-2" d="M29.76,306.29a.29.29,0,0,1-.21-.09.32.32,0,0,1,0-.42.28.28,0,0,1,.21-.08.25.25,0,0,1,.21.08.32.32,0,0,1,0,.42A.26.26,0,0,1,29.76,306.29Zm-.21,3.43V306.9H30v2.82Z"/><path class="cls-2" d="M31.69,309.78a1.31,1.31,0,0,1-.44-.07,1.46,1.46,0,0,1-.38-.17,1.93,1.93,0,0,1-.3-.27l.27-.28a1.05,1.05,0,0,0,.38.3,1.12,1.12,0,0,0,.48.1.78.78,0,0,0,.44-.1.36.36,0,0,0,.16-.31.39.39,0,0,0-.11-.28.9.9,0,0,0-.29-.16l-.38-.12a1.74,1.74,0,0,1-.38-.14.85.85,0,0,1-.29-.24.75.75,0,0,1,.34-1.1,1.21,1.21,0,0,1,.52-.1,1.5,1.5,0,0,1,.58.11,1,1,0,0,1,.41.34l-.27.27a.84.84,0,0,0-.31-.25,1,1,0,0,0-.42-.09.72.72,0,0,0-.42.11.33.33,0,0,0-.14.27.29.29,0,0,0,.12.25.62.62,0,0,0,.29.15l.37.12a2.15,2.15,0,0,1,.38.15.69.69,0,0,1,.4.68.74.74,0,0,1-.27.6A1.13,1.13,0,0,1,31.69,309.78Z"/><path class="cls-2" d="M34.23,309.78a1.25,1.25,0,0,1-.43-.07,1.71,1.71,0,0,1-.39-.17,1.5,1.5,0,0,1-.29-.27l.27-.28a1,1,0,0,0,.38.3,1.06,1.06,0,0,0,.48.1.82.82,0,0,0,.44-.1.38.38,0,0,0,.16-.31.36.36,0,0,0-.12-.28.73.73,0,0,0-.29-.16l-.37-.12a1.57,1.57,0,0,1-.38-.14.76.76,0,0,1-.29-.24.66.66,0,0,1-.11-.41.73.73,0,0,1,.11-.42.71.71,0,0,1,.34-.27,1.21,1.21,0,0,1,.52-.1,1.48,1.48,0,0,1,.57.11,1,1,0,0,1,.42.34l-.27.27a.87.87,0,0,0-.32-.25.93.93,0,0,0-.42-.09.67.67,0,0,0-.41.11.33.33,0,0,0,0,.52.67.67,0,0,0,.29.15l.38.12a2.5,2.5,0,0,1,.38.15.69.69,0,0,1,.4.68.72.72,0,0,1-.28.6A1.11,1.11,0,0,1,34.23,309.78Z"/><path class="cls-2" d="M36.12,306.29a.27.27,0,0,1-.2-.09.32.32,0,0,1,0-.42.26.26,0,0,1,.2-.08.29.29,0,0,1,.22.08.32.32,0,0,1,0,.42A.29.29,0,0,1,36.12,306.29Zm-.21,3.43V306.9h.43v2.82Z"/><path class="cls-2" d="M38.47,309.78A1.46,1.46,0,0,1,37,308.29a1.4,1.4,0,0,1,.19-.73,1.5,1.5,0,0,1,.53-.53,1.43,1.43,0,0,1,.74-.19,1.41,1.41,0,0,1,.74.19,1.51,1.51,0,0,1,.53,2,1.5,1.5,0,0,1-.53.53A1.41,1.41,0,0,1,38.47,309.78Zm0-.41a1,1,0,0,0,.53-.14,1,1,0,0,0,.37-.38,1.16,1.16,0,0,0,.13-.56,1.08,1.08,0,0,0-.13-.54,1,1,0,0,0-.37-.37,1,1,0,0,0-.53-.14,1,1,0,0,0-.53.14.92.92,0,0,0-.36.37,1.09,1.09,0,0,0-.14.54,1.13,1.13,0,0,0,.14.56.94.94,0,0,0,.36.38A1,1,0,0,0,38.47,309.37Z"/><path class="cls-2" d="M40.6,309.72V306.9H41v2.82Zm2,0v-1.66a.81.81,0,0,0-.22-.6.73.73,0,0,0-.58-.23.79.79,0,0,0-.43.11.74.74,0,0,0-.29.29.82.82,0,0,0-.11.42l-.19-.1a1.05,1.05,0,0,1,.15-.57,1.1,1.1,0,0,1,.4-.4,1.15,1.15,0,0,1,.59-.14,1.08,1.08,0,0,1,.57.15,1.24,1.24,0,0,1,.4.42,1.27,1.27,0,0,1,.14.58v1.73Z"/><path class="cls-2" d="M44.73,309.78a1.31,1.31,0,0,1-.44-.07,1.46,1.46,0,0,1-.38-.17,1.93,1.93,0,0,1-.3-.27l.27-.28a1,1,0,0,0,.38.3,1.06,1.06,0,0,0,.48.1.8.8,0,0,0,.44-.1.36.36,0,0,0,.16-.31.39.39,0,0,0-.11-.28.86.86,0,0,0-.3-.16l-.37-.12a1.74,1.74,0,0,1-.38-.14.85.85,0,0,1-.29-.24.81.81,0,0,1,0-.83.68.68,0,0,1,.33-.27,1.21,1.21,0,0,1,.52-.1,1.54,1.54,0,0,1,.58.11,1,1,0,0,1,.41.34l-.27.27a.84.84,0,0,0-.31-.25,1,1,0,0,0-.43-.09.69.69,0,0,0-.41.11.33.33,0,0,0-.14.27.29.29,0,0,0,.12.25.62.62,0,0,0,.29.15l.37.12a2.5,2.5,0,0,1,.38.15.71.71,0,0,1,.29.25.78.78,0,0,1,.11.43.74.74,0,0,1-.27.6A1.13,1.13,0,0,1,44.73,309.78Z"/><path class="cls-2" d="M46.85,309.78a.3.3,0,0,1-.24-.11.31.31,0,0,1-.1-.24.34.34,0,0,1,.68,0,.31.31,0,0,1-.1.24A.3.3,0,0,1,46.85,309.78Z"/><path class="cls-2" d="M21,316.92l1.69-4.13H23l1.68,4.13h-.48l-1.45-3.65H23l-1.47,3.65Zm.78-1.08v-.39H24v.39Z"/><path class="cls-2" d="M26.37,317a1.31,1.31,0,0,1-1.19-.72,1.58,1.58,0,0,1,0-1.5,1.39,1.39,0,0,1,.49-.53,1.29,1.29,0,0,1,.7-.19,1.34,1.34,0,0,1,.58.12,1.36,1.36,0,0,1,.43.36,1.1,1.1,0,0,1,.2.54V316a1.07,1.07,0,0,1-.2.53,1,1,0,0,1-.42.36A1.28,1.28,0,0,1,26.37,317Zm.08-.4a1,1,0,0,0,.51-.14,1,1,0,0,0,.35-.38,1.24,1.24,0,0,0,.13-.55,1.22,1.22,0,0,0-.13-.56,1.07,1.07,0,0,0-.35-.38,1,1,0,0,0-1,0,.94.94,0,0,0-.36.38,1.13,1.13,0,0,0-.13.56,1.12,1.12,0,0,0,.13.55,1,1,0,0,0,.89.52Zm1.38.34h-.42v-.76l.09-.7-.09-.67v-2.12h.42Z"/><path class="cls-2" d="M30,317a1.44,1.44,0,0,1-.74-.2,1.43,1.43,0,0,1-.72-1.28,1.41,1.41,0,0,1,.19-.74,1.5,1.5,0,0,1,.53-.53A1.43,1.43,0,0,1,30,314a1.47,1.47,0,0,1,.75.19,1.44,1.44,0,0,1,.52.52,1.48,1.48,0,0,1,.2.75,1.45,1.45,0,0,1-.2.75A1.44,1.44,0,0,1,30,317Zm0-.41a1,1,0,0,0,.53-.14,1,1,0,0,0,.37-.38,1.14,1.14,0,0,0,.13-.55,1.09,1.09,0,0,0-.13-.55.94.94,0,0,0-.37-.37,1,1,0,0,0-.53-.14,1,1,0,0,0-.53.14.92.92,0,0,0-.36.37,1.1,1.1,0,0,0-.14.55,1.12,1.12,0,0,0,.14.55.94.94,0,0,0,.36.38A1,1,0,0,0,30,316.57Z"/><path class="cls-2" d="M32.09,318.11v-4h.42v.72l-.08.68.08.69v1.92ZM33.55,317a1.21,1.21,0,0,1-.58-.14,1.07,1.07,0,0,1-.43-.36,1.17,1.17,0,0,1-.2-.53v-.89a1.12,1.12,0,0,1,.21-.54,1.17,1.17,0,0,1,.43-.36,1.32,1.32,0,0,1,.57-.12,1.29,1.29,0,0,1,.7.19,1.5,1.5,0,0,1,.5.53,1.65,1.65,0,0,1,0,1.5,1.39,1.39,0,0,1-.5.52A1.3,1.3,0,0,1,33.55,317Zm-.07-.4a1,1,0,0,0,.53-.14.92.92,0,0,0,.35-.38,1.12,1.12,0,0,0,.13-.55,1.1,1.1,0,0,0-.13-.56.92.92,0,0,0-.35-.38,1,1,0,0,0-.53-.14,1,1,0,0,0-.52.14,1,1,0,0,0-.35.38,1.22,1.22,0,0,0-.12.56,1.23,1.23,0,0,0,.12.55.95.95,0,0,0,.87.52Z"/><path class="cls-2" d="M35.22,314.47v-.37h1.85v.37Zm.72,2.45v-4h.42v4Z"/><path class="cls-2" d="M39.8,317a1.27,1.27,0,0,1-.44-.07,1.46,1.46,0,0,1-.38-.17,1.31,1.31,0,0,1-.3-.27l.27-.28a1,1,0,0,0,.38.3,1.06,1.06,0,0,0,.48.1.8.8,0,0,0,.44-.1.38.38,0,0,0,.16-.31.36.36,0,0,0-.12-.28.88.88,0,0,0-.29-.16l-.37-.12a1.74,1.74,0,0,1-.38-.14.76.76,0,0,1-.29-.24.66.66,0,0,1-.11-.41.82.82,0,0,1,.11-.42.71.71,0,0,1,.34-.27,1.21,1.21,0,0,1,.52-.1,1.48,1.48,0,0,1,.57.11,1,1,0,0,1,.42.34l-.27.27a.8.8,0,0,0-.32-.25.93.93,0,0,0-.42-.09.67.67,0,0,0-.41.11.33.33,0,0,0-.14.27.31.31,0,0,0,.11.25.73.73,0,0,0,.29.15l.38.12a2.5,2.5,0,0,1,.38.15.69.69,0,0,1,.4.68.74.74,0,0,1-.27.6A1.15,1.15,0,0,1,39.8,317Z"/><path class="cls-2" d="M42.59,317a1.23,1.23,0,0,1-.61-.16,1.11,1.11,0,0,1-.42-.44,1.22,1.22,0,0,1-.16-.64V314.1h.43v1.62a1.06,1.06,0,0,0,.09.45.73.73,0,0,0,.67.41.7.7,0,0,0,.56-.24.9.9,0,0,0,.21-.62V314.1h.42v1.64a1.32,1.32,0,0,1-.15.64,1.05,1.05,0,0,1-.42.44A1.27,1.27,0,0,1,42.59,317Z"/><path class="cls-2" d="M45.43,317a1.31,1.31,0,0,1-.44-.07,1.46,1.46,0,0,1-.38-.17,1.93,1.93,0,0,1-.3-.27l.27-.28a1,1,0,0,0,.38.3,1.09,1.09,0,0,0,.48.1.78.78,0,0,0,.44-.1.36.36,0,0,0,.16-.31.39.39,0,0,0-.11-.28,1.15,1.15,0,0,0-.29-.16l-.38-.12a1.74,1.74,0,0,1-.38-.14.85.85,0,0,1-.29-.24.75.75,0,0,1,.34-1.1,1.21,1.21,0,0,1,.52-.1,1.5,1.5,0,0,1,.58.11,1,1,0,0,1,.41.34l-.27.27a.84.84,0,0,0-.31-.25,1,1,0,0,0-.43-.09.71.71,0,0,0-.41.11.33.33,0,0,0-.14.27.29.29,0,0,0,.12.25.62.62,0,0,0,.29.15l.37.12a2.15,2.15,0,0,1,.38.15.69.69,0,0,1,.4.68.74.74,0,0,1-.27.6A1.13,1.13,0,0,1,45.43,317Z"/><path class="cls-2" d="M46.83,314.47v-.37h1.85v.37Zm.72,2.45v-4H48v4Z"/><path class="cls-2" d="M50.37,317a1.34,1.34,0,0,1-.72-.2,1.39,1.39,0,0,1-.5-.52,1.65,1.65,0,0,1,0-1.5,1.41,1.41,0,0,1,.5-.53,1.34,1.34,0,0,1,.72-.19,1.24,1.24,0,0,1,.58.13,1,1,0,0,1,.41.36,1.17,1.17,0,0,1,.2.53V316a1.26,1.26,0,0,1-.2.54,1.19,1.19,0,0,1-.41.36A1.34,1.34,0,0,1,50.37,317Zm.07-.4a.88.88,0,0,0,.7-.3,1.08,1.08,0,0,0,.27-.77,1.22,1.22,0,0,0-.12-.56.9.9,0,0,0-.34-.38,1,1,0,0,0-.52-.14,1,1,0,0,0-.53.14,1,1,0,0,0-.36.38,1.17,1.17,0,0,0,0,1.11,1,1,0,0,0,.9.52Zm1,.34v-.76l.08-.7-.08-.67v-.69h.42v2.82Z"/><path class="cls-2" d="M52.87,313.49a.29.29,0,0,1-.21-.09.32.32,0,0,1,0-.42.28.28,0,0,1,.21-.08.25.25,0,0,1,.21.08.32.32,0,0,1,0,.42A.26.26,0,0,1,52.87,313.49Zm-.21,3.43V314.1h.42v2.82Z"/><path class="cls-2" d="M53.94,316.92V314.1h.42v2.82Zm2.05,0v-1.66a.81.81,0,0,0-.22-.6.75.75,0,0,0-.58-.23.77.77,0,0,0-.43.11.81.81,0,0,0-.29.29.73.73,0,0,0-.11.42l-.19-.1a1.17,1.17,0,0,1,.14-.57,1.21,1.21,0,0,1,.41-.4,1.25,1.25,0,0,1,.59-.14,1.1,1.1,0,0,1,.57.15,1.12,1.12,0,0,1,.39.42,1.17,1.17,0,0,1,.15.58v1.73Z"/><path class="cls-2" d="M58.43,317a1.4,1.4,0,0,1-.73-.2,1.47,1.47,0,0,1-.5-.52,1.65,1.65,0,0,1,0-1.5,1.5,1.5,0,0,1,.5-.53,1.36,1.36,0,0,1,.72-.19,1.21,1.21,0,0,1,.58.13,1,1,0,0,1,.41.36,1.17,1.17,0,0,1,.2.53V316a1.26,1.26,0,0,1-.2.54,1.1,1.1,0,0,1-.41.36A1.33,1.33,0,0,1,58.43,317Zm.06-.4a.91.91,0,0,0,.71-.3,1.12,1.12,0,0,0,.26-.77,1.22,1.22,0,0,0-.12-.56.9.9,0,0,0-.34-.38,1,1,0,0,0-.52-.14,1,1,0,0,0-.53.14,1,1,0,0,0-.36.38,1.17,1.17,0,0,0,0,1.11,1,1,0,0,0,.37.38A1,1,0,0,0,58.49,316.58Zm.95.34v-.76l.08-.7-.08-.67v-.69h.42v2.82Z"/><path class="cls-2" d="M60.71,316.92v-4.25h.42v2.12l-.08.67.08.7v.76Zm1.46.06a1.21,1.21,0,0,1-.58-.14,1,1,0,0,1-.43-.36A1.17,1.17,0,0,1,61,316v-.89a1.12,1.12,0,0,1,.21-.54,1.17,1.17,0,0,1,.43-.36,1.32,1.32,0,0,1,.57-.12,1.29,1.29,0,0,1,.7.19,1.5,1.5,0,0,1,.5.53,1.65,1.65,0,0,1,0,1.5,1.39,1.39,0,0,1-.5.52A1.3,1.3,0,0,1,62.17,317Zm-.07-.4a1,1,0,0,0,.52-.14.88.88,0,0,0,.36-.38,1.12,1.12,0,0,0,.13-.55A1.1,1.1,0,0,0,63,315a.88.88,0,0,0-.36-.38,1,1,0,0,0-.52-.14,1,1,0,0,0-.52.14,1,1,0,0,0-.35.38,1.22,1.22,0,0,0-.12.56,1.23,1.23,0,0,0,.12.55.95.95,0,0,0,.87.52Z"/><path class="cls-2" d="M64.22,316.92v-4.25h.42v4.25Z"/><path class="cls-2" d="M66.79,317a1.61,1.61,0,0,1-.76-.19,1.44,1.44,0,0,1-.72-1.29,1.47,1.47,0,0,1,.19-.75,1.42,1.42,0,0,1,1.26-.71,1.3,1.3,0,0,1,.68.17,1.35,1.35,0,0,1,.47.48,1.53,1.53,0,0,1,.17.72.49.49,0,0,1,0,.11.78.78,0,0,1,0,.14H65.61v-.36h2.21l-.15.13a1.12,1.12,0,0,0-.11-.53.76.76,0,0,0-.31-.35,1,1,0,0,0-.5-.12,1,1,0,0,0-.54.13,1,1,0,0,0-.36.37,1.22,1.22,0,0,0-.12.56,1.14,1.14,0,0,0,.13.57,1,1,0,0,0,.38.38,1,1,0,0,0,.56.14,1.19,1.19,0,0,0,.47-.09.93.93,0,0,0,.37-.28l.27.28a1.48,1.48,0,0,1-.49.36A1.61,1.61,0,0,1,66.79,317Z"/><path class="cls-2" d="M70,318.11v-4h.42v.72l-.08.68.08.69v1.92ZM71.47,317a1.21,1.21,0,0,1-.58-.14,1,1,0,0,1-.43-.36,1.17,1.17,0,0,1-.2-.53v-.89a1.12,1.12,0,0,1,.21-.54,1.22,1.22,0,0,1,.42-.36,1.4,1.4,0,0,1,.58-.12,1.29,1.29,0,0,1,.7.19,1.39,1.39,0,0,1,.49.53,1.44,1.44,0,0,1,.19.75,1.54,1.54,0,0,1-.18.75,1.39,1.39,0,0,1-.5.52A1.3,1.3,0,0,1,71.47,317Zm-.08-.4a1,1,0,0,0,.53-.14.94.94,0,0,0,.36-.38,1.12,1.12,0,0,0,.13-.55,1.1,1.1,0,0,0-.13-.56.94.94,0,0,0-.36-.38,1,1,0,0,0-.52-.14,1,1,0,0,0-.52.14,1,1,0,0,0-.35.38,1.22,1.22,0,0,0-.12.56,1.23,1.23,0,0,0,.12.55,1,1,0,0,0,.35.38A1,1,0,0,0,71.39,316.58Z"/><path class="cls-2" d="M73.52,316.92V314.1h.42v2.82Zm.42-1.65-.18-.07a1.26,1.26,0,0,1,.27-.85.86.86,0,0,1,.71-.31.86.86,0,0,1,.71.31l-.27.29a.69.69,0,0,0-.23-.16.82.82,0,0,0-.28-.05.69.69,0,0,0-.53.22A.89.89,0,0,0,73.94,315.27Z"/><path class="cls-2" d="M77,317a1.37,1.37,0,0,1-.72-.2,1.39,1.39,0,0,1-.5-.52,1.65,1.65,0,0,1,0-1.5,1.41,1.41,0,0,1,.5-.53A1.34,1.34,0,0,1,77,314a1.24,1.24,0,0,1,.58.13,1,1,0,0,1,.41.36,1.17,1.17,0,0,1,.2.53V316a1.26,1.26,0,0,1-.2.54,1.19,1.19,0,0,1-.41.36A1.34,1.34,0,0,1,77,317Zm.07-.4a.88.88,0,0,0,.7-.3,1.08,1.08,0,0,0,.27-.77,1.22,1.22,0,0,0-.12-.56.9.9,0,0,0-.34-.38,1,1,0,0,0-.52-.14,1,1,0,0,0-.53.14,1,1,0,0,0-.36.38,1.17,1.17,0,0,0,0,1.11,1,1,0,0,0,.37.38A1,1,0,0,0,77.09,316.58Zm1,.34v-.76l.08-.7-.08-.67v-.69h.42v2.82Z"/><path class="cls-2" d="M80.59,317a1.44,1.44,0,0,1-.74-.2,1.42,1.42,0,0,1-.53-.53,1.45,1.45,0,0,1-.2-.75,1.48,1.48,0,0,1,.2-.75,1.39,1.39,0,0,1,.53-.52,1.43,1.43,0,0,1,.74-.19,1.5,1.5,0,0,1,.6.12,1.43,1.43,0,0,1,.47.33l-.28.29a.87.87,0,0,0-.35-.25,1.08,1.08,0,0,0-.44-.09,1,1,0,0,0-.53.14.94.94,0,0,0-.37.37,1.23,1.23,0,0,0,0,1.1,1,1,0,0,0,.37.38,1,1,0,0,0,.53.14,1.13,1.13,0,0,0,.45-.09,1.07,1.07,0,0,0,.35-.25l.28.28a1.3,1.3,0,0,1-.48.35A1.5,1.5,0,0,1,80.59,317Z"/><path class="cls-2" d="M82,314.47v-.37H83.8v.37Zm.71,2.45v-4h.42v4Z"/><path class="cls-2" d="M84.58,313.49a.25.25,0,0,1-.2-.09.29.29,0,0,1,0-.42.24.24,0,0,1,.2-.08.29.29,0,0,1,.22.08.32.32,0,0,1,0,.42A.29.29,0,0,1,84.58,313.49Zm-.21,3.43V314.1h.43v2.82Z"/><path class="cls-2" d="M86.93,317a1.44,1.44,0,0,1-.74-.2,1.5,1.5,0,0,1-.53-.53,1.44,1.44,0,0,1-.19-.75,1.4,1.4,0,0,1,.72-1.27,1.43,1.43,0,0,1,.74-.19,1.46,1.46,0,0,1,.6.12,1.43,1.43,0,0,1,.47.33l-.28.29a.81.81,0,0,0-.35-.25,1.09,1.09,0,0,0-1,.05A.94.94,0,0,0,86,315a1.23,1.23,0,0,0,0,1.1,1,1,0,0,0,.37.38,1,1,0,0,0,.53.14,1.1,1.1,0,0,0,.45-.09,1.07,1.07,0,0,0,.35-.25l.28.28a1.3,1.3,0,0,1-.48.35A1.46,1.46,0,0,1,86.93,317Z"/><path class="cls-2" d="M89.85,317a1.63,1.63,0,0,1-.77-.19,1.44,1.44,0,0,1-.72-1.29,1.47,1.47,0,0,1,.19-.75,1.42,1.42,0,0,1,1.26-.71,1.27,1.27,0,0,1,.68.17,1.35,1.35,0,0,1,.47.48,1.53,1.53,0,0,1,.17.72.49.49,0,0,1,0,.11.78.78,0,0,1,0,.14H88.66v-.36h2.21l-.15.13a1.12,1.12,0,0,0-.1-.53.84.84,0,0,0-.32-.35,1,1,0,0,0-.5-.12,1.05,1.05,0,0,0-.54.13.89.89,0,0,0-.35.37,1.1,1.1,0,0,0-.13.56,1.14,1.14,0,0,0,.13.57,1,1,0,0,0,.38.38,1,1,0,0,0,.56.14,1.28,1.28,0,0,0,.48-.09,1,1,0,0,0,.36-.28l.27.28a1.39,1.39,0,0,1-.49.36A1.6,1.6,0,0,1,89.85,317Z"/><path class="cls-2" d="M92.64,317a1.27,1.27,0,0,1-.44-.07,1.46,1.46,0,0,1-.38-.17,1.31,1.31,0,0,1-.3-.27l.27-.28a1,1,0,0,0,.38.3,1.06,1.06,0,0,0,.48.1.8.8,0,0,0,.44-.1.38.38,0,0,0,.16-.31.36.36,0,0,0-.12-.28.88.88,0,0,0-.29-.16l-.37-.12a1.74,1.74,0,0,1-.38-.14.76.76,0,0,1-.29-.24.66.66,0,0,1-.11-.41.82.82,0,0,1,.11-.42.71.71,0,0,1,.34-.27,1.21,1.21,0,0,1,.52-.1,1.48,1.48,0,0,1,.57.11,1,1,0,0,1,.42.34l-.27.27a.8.8,0,0,0-.32-.25.93.93,0,0,0-.42-.09.67.67,0,0,0-.41.11.33.33,0,0,0-.14.27.31.31,0,0,0,.11.25.73.73,0,0,0,.29.15l.38.12a2.5,2.5,0,0,1,.38.15.69.69,0,0,1,.4.68.74.74,0,0,1-.27.6A1.15,1.15,0,0,1,92.64,317Z"/><path class="cls-2" d="M94.76,317a.37.37,0,0,1-.25-.1.38.38,0,0,1-.09-.25.32.32,0,0,1,.09-.24.33.33,0,0,1,.25-.1.33.33,0,0,1,.24.1.33.33,0,0,1,.1.24.39.39,0,0,1-.1.25A.37.37,0,0,1,94.76,317Z"/><g class="cls-7"><path class="cls-8" d="M187.11,60.57H165.63a29.3,29.3,0,0,0-29.31,29.3v16h21.49a29.3,29.3,0,0,0,29.3-29.3Z"/><path class="cls-8" d="M159,85.38l-1.59,4.81h-2l5.2-15.29h2.38l5.22,15.29H166l-1.64-4.81Zm5-1.54-1.5-4.4c-.34-1-.57-1.91-.8-2.79h0c-.23.91-.48,1.84-.77,2.77l-1.5,4.42Z"/></g><path class="cls-9" d="M191.89,55.8H170.4a29.3,29.3,0,0,0-29.3,29.3v16h21.48a29.3,29.3,0,0,0,29.31-29.3Z"/><path class="cls-10" d="M163.75,80.61l-1.59,4.81h-2l5.19-15.29h2.39l5.21,15.29H170.8l-1.63-4.81Zm5-1.54-1.5-4.41c-.34-1-.56-1.9-.79-2.79h0c-.23.91-.48,1.84-.78,2.77l-1.49,4.43Z"/><g class="cls-7"><path class="cls-8" d="M187.11,175.51H165.63a29.31,29.31,0,0,0-29.31,29.31v16h21.49a29.3,29.3,0,0,0,29.3-29.3Z"/><path class="cls-8" d="M157.29,190.05a19.36,19.36,0,0,1,3.61-.32,6.34,6.34,0,0,1,4.2,1.11,3.22,3.22,0,0,1,1.27,2.7,3.63,3.63,0,0,1-2.59,3.36v0a3.94,3.94,0,0,1,3.16,3.83,4.12,4.12,0,0,1-1.3,3.06c-1.06,1-2.79,1.43-5.28,1.43a23.31,23.31,0,0,1-3.07-.18Zm2,6.26h1.79c2.09,0,3.31-1.09,3.31-2.56,0-1.8-1.36-2.5-3.36-2.5a8.16,8.16,0,0,0-1.74.14Zm0,7.33a10.23,10.23,0,0,0,1.65.09c2,0,3.93-.75,3.93-3s-1.79-2.95-3.95-2.95h-1.63Z"/></g><path class="cls-11" d="M191.89,170.74H170.4A29.3,29.3,0,0,0,141.1,200v16h21.48a29.31,29.31,0,0,0,29.31-29.31Z"/><path class="cls-10" d="M162.07,185.27a19.19,19.19,0,0,1,3.61-.32,6.25,6.25,0,0,1,4.19,1.12,3.18,3.18,0,0,1,1.27,2.7,3.62,3.62,0,0,1-2.58,3.35v0a3.94,3.94,0,0,1,3.15,3.83,4.14,4.14,0,0,1-1.29,3.07c-1.07,1-2.79,1.43-5.29,1.43a23.25,23.25,0,0,1-3.06-.18Zm2,6.26h1.8c2.08,0,3.31-1.08,3.31-2.56,0-1.79-1.36-2.5-3.36-2.5a8.27,8.27,0,0,0-1.75.14Zm0,7.33a10.44,10.44,0,0,0,1.66.09c2,0,3.92-.74,3.92-3s-1.79-2.95-3.94-2.95H164Z"/><g class="cls-7"><path class="cls-8" d="M187.11,290.46H165.63a29.3,29.3,0,0,0-29.31,29.3v15.95h21.49a29.3,29.3,0,0,0,29.3-29.3Z"/><path class="cls-8" d="M167.55,319.58a9.86,9.86,0,0,1-4,.73c-4.31,0-7.56-2.73-7.56-7.74a7.61,7.61,0,0,1,8-8,8.21,8.21,0,0,1,3.63.68l-.48,1.61a7.17,7.17,0,0,0-3.08-.64c-3.59,0-6,2.29-6,6.31,0,3.74,2.16,6.15,5.88,6.15a7.81,7.81,0,0,0,3.22-.64Z"/></g><path class="cls-12" d="M191.89,285.68H170.4A29.3,29.3,0,0,0,141.1,315v16h21.48a29.3,29.3,0,0,0,29.31-29.3Z"/><path class="cls-10" d="M172.32,314.8a9.62,9.62,0,0,1-4,.73c-4.31,0-7.55-2.72-7.55-7.74a7.61,7.61,0,0,1,8-8,8.29,8.29,0,0,1,3.63.68l-.48,1.61a7.23,7.23,0,0,0-3.09-.63c-3.58,0-6,2.29-6,6.31,0,3.74,2.15,6.14,5.87,6.14a7.87,7.87,0,0,0,3.23-.63Z"/><path class="cls-2" d="M23.76,51.26a3.26,3.26,0,0,1-1.83-.44,2.43,2.43,0,0,1-1-1.28,5.81,5.81,0,0,1-.3-2v-4.3a5.53,5.53,0,0,1,.3-1.92,2.37,2.37,0,0,1,1-1.23,3.37,3.37,0,0,1,1.83-.43,3.43,3.43,0,0,1,1.82.43,2.42,2.42,0,0,1,1,1.24,5.43,5.43,0,0,1,.3,1.91V47.6a5.67,5.67,0,0,1-.3,1.93,2.52,2.52,0,0,1-1,1.28A3.25,3.25,0,0,1,23.76,51.26Zm0-1.24a1.49,1.49,0,0,0,.95-.26,1.29,1.29,0,0,0,.44-.73,5,5,0,0,0,.11-1.1V43a4.79,4.79,0,0,0-.11-1.08,1.18,1.18,0,0,0-.44-.7,1.5,1.5,0,0,0-.95-.25,1.55,1.55,0,0,0-1,.25,1.14,1.14,0,0,0-.44.7A4.27,4.27,0,0,0,22.25,43v5a4.49,4.49,0,0,0,.11,1.1,1.24,1.24,0,0,0,.44.73A1.55,1.55,0,0,0,23.76,50Z"/><path class="cls-2" d="M28.28,53.8V43.05h1.5v.64a2.55,2.55,0,0,1,.64-.53,1.74,1.74,0,0,1,.9-.23,1.45,1.45,0,0,1,1,.33,2,2,0,0,1,.55.83,4.5,4.5,0,0,1,.24,1,7.62,7.62,0,0,1,.06.87v2A7.66,7.66,0,0,1,33,49.55a2.55,2.55,0,0,1-.61,1.23,1.63,1.63,0,0,1-1.24.47,1.36,1.36,0,0,1-.77-.22,3.56,3.56,0,0,1-.6-.49V53.8Zm2.58-3.73a.59.59,0,0,0,.56-.28,1.91,1.91,0,0,0,.21-.78c0-.33,0-.69,0-1.08V46a6.81,6.81,0,0,0-.06-.93,1.44,1.44,0,0,0-.23-.68.68.68,0,0,0-.58-.25,1.24,1.24,0,0,0-.56.13,1.9,1.9,0,0,0-.46.29v5.18a2.19,2.19,0,0,0,.48.26A1.57,1.57,0,0,0,30.86,50.07Z"/><path class="cls-2" d="M36.77,51.25a2.46,2.46,0,0,1-1.47-.37,2,2,0,0,1-.73-1.09,6.85,6.85,0,0,1-.2-1.77V46.17a6.41,6.41,0,0,1,.21-1.79,1.9,1.9,0,0,1,.74-1.08,2.53,2.53,0,0,1,1.45-.37,2.24,2.24,0,0,1,1.5.42,2.15,2.15,0,0,1,.64,1.21,10.45,10.45,0,0,1,.15,1.9v.66H35.87v1.62a2.89,2.89,0,0,0,.09.8.85.85,0,0,0,.29.46.87.87,0,0,0,.53.14.73.73,0,0,0,.51-.16.78.78,0,0,0,.24-.46,3.62,3.62,0,0,0,.06-.71v-.49h1.46v.31a3.22,3.22,0,0,1-.52,1.92A2,2,0,0,1,36.77,51.25Zm-.9-4.94h1.72v-.73a6.58,6.58,0,0,0-.05-.85.87.87,0,0,0-.24-.51.73.73,0,0,0-.55-.18.8.8,0,0,0-.55.17,1,1,0,0,0-.26.57,6.24,6.24,0,0,0-.07,1.09Z"/><path class="cls-2" d="M40.46,51.14V43.05H42v1.14a2.77,2.77,0,0,1,.9-1,1.74,1.74,0,0,1,.89-.25H44v1.65a2.66,2.66,0,0,0-.39-.11,1.61,1.61,0,0,0-.44,0,1.23,1.23,0,0,0-.63.16,1.58,1.58,0,0,0-.57.62v5.91Z"/><path class="cls-2" d="M46,51.25a1.36,1.36,0,0,1-.84-.27,1.88,1.88,0,0,1-.58-.7,2.06,2.06,0,0,1-.21-.91,3,3,0,0,1,.25-1.27,2.39,2.39,0,0,1,.7-.87,4.64,4.64,0,0,1,1-.63c.39-.18.79-.35,1.22-.52v-.57a5.82,5.82,0,0,0,0-.81.83.83,0,0,0-.23-.48.77.77,0,0,0-.53-.17.87.87,0,0,0-.5.14.89.89,0,0,0-.27.4,2.25,2.25,0,0,0-.08.61v.41l-1.49-.06a3,3,0,0,1,.62-2,2.38,2.38,0,0,1,1.82-.64,2,2,0,0,1,1.71.66,3.15,3.15,0,0,1,.5,1.91v3.69c0,.25,0,.5,0,.73s0,.45.06.65,0,.39.06.57H47.84c0-.15-.06-.34-.11-.57s-.07-.44-.09-.62a2.1,2.1,0,0,1-.54.89A1.46,1.46,0,0,1,46,51.25ZM46.59,50a.79.79,0,0,0,.42-.12,2,2,0,0,0,.35-.29,1,1,0,0,0,.21-.26V47l-.65.4a2.94,2.94,0,0,0-.54.41,1.59,1.59,0,0,0-.37.49,1.38,1.38,0,0,0-.13.62,1.39,1.39,0,0,0,.18.77A.59.59,0,0,0,46.59,50Z"/><path class="cls-2" d="M52.66,51.25a1.93,1.93,0,0,1-1-.24,1.37,1.37,0,0,1-.56-.67,2.66,2.66,0,0,1-.17-1V44h-.86v-1h.86V40.68H52.4v2.37h1.31v1H52.4v5.18a1.17,1.17,0,0,0,.16.68.72.72,0,0,0,.59.2h.26l.28,0v1.11l-.52.06Z"/><path class="cls-2" d="M54.91,41.84V40.27h1.5v1.57Zm0,9.3V43.05h1.5v8.09Z"/><path class="cls-2" d="M60.24,51.25a2.45,2.45,0,0,1-1.41-.36,1.93,1.93,0,0,1-.73-1,5,5,0,0,1-.22-1.58V45.92a5,5,0,0,1,.22-1.59,1.9,1.9,0,0,1,.73-1,2.45,2.45,0,0,1,1.41-.37,2.41,2.41,0,0,1,1.41.37,2,2,0,0,1,.73,1,5.36,5.36,0,0,1,.22,1.59v2.35a5.29,5.29,0,0,1-.22,1.58,2,2,0,0,1-.73,1A2.41,2.41,0,0,1,60.24,51.25Zm0-1.11a.68.68,0,0,0,.61-.25,1.29,1.29,0,0,0,.21-.66,8,8,0,0,0,0-.86V45.83a8,8,0,0,0,0-.87,1.29,1.29,0,0,0-.21-.66.68.68,0,0,0-.61-.26.69.69,0,0,0-.61.26,1.29,1.29,0,0,0-.22.66q0,.4,0,.87v2.54c0,.3,0,.58,0,.86a1.29,1.29,0,0,0,.22.66A.69.69,0,0,0,60.24,50.14Z"/><path class="cls-2" d="M64,51.14V43.05h1.5v.79a4.38,4.38,0,0,1,.89-.64,2.22,2.22,0,0,1,1.08-.27,1,1,0,0,1,.75.26,1.31,1.31,0,0,1,.36.63,2.87,2.87,0,0,1,.11.77v6.55h-1.5V45a1.37,1.37,0,0,0-.13-.67.51.51,0,0,0-.51-.24,1.1,1.1,0,0,0-.53.15,3,3,0,0,0-.52.35v6.53Z"/><path class="cls-2" d="M71.33,51.25a1.36,1.36,0,0,1-.84-.27,2,2,0,0,1-.57-.7,2.06,2.06,0,0,1-.21-.91A2.88,2.88,0,0,1,70,48.1a2.47,2.47,0,0,1,.69-.87,5.16,5.16,0,0,1,1-.63c.39-.18.8-.35,1.23-.52v-.57a4.47,4.47,0,0,0-.06-.81.69.69,0,0,0-.75-.65.85.85,0,0,0-.5.14.76.76,0,0,0-.27.4,1.91,1.91,0,0,0-.09.61v.41l-1.48-.06a2.93,2.93,0,0,1,.62-2,2.37,2.37,0,0,1,1.82-.64,2,2,0,0,1,1.7.66,3.08,3.08,0,0,1,.51,1.91v3.69c0,.25,0,.5,0,.73s0,.45,0,.65,0,.39.07.57H73.17c0-.15-.07-.34-.11-.57S73,50.13,73,50a2.1,2.1,0,0,1-.54.89A1.48,1.48,0,0,1,71.33,51.25ZM71.92,50a.79.79,0,0,0,.42-.12,2,2,0,0,0,.35-.29,1.69,1.69,0,0,0,.21-.26V47l-.66.4a3.83,3.83,0,0,0-.54.41,1.72,1.72,0,0,0-.36.49,1.38,1.38,0,0,0-.13.62,1.39,1.39,0,0,0,.18.77A.59.59,0,0,0,71.92,50Z"/><path class="cls-2" d="M76,51.14V39.8h1.5V51.14Z"/><path class="cls-2" d="M20.86,67.94V56.6h4.4v1.17H22.44v3.76h2.29v1.12H22.44V66.8h2.85v1.14Z"/><path class="cls-2" d="M26.91,67.94V61h-1v-1.1h1v-.42a6.06,6.06,0,0,1,.12-1.3,1.34,1.34,0,0,1,.5-.83,1.79,1.79,0,0,1,1.13-.3,4.17,4.17,0,0,1,.52,0,3.4,3.4,0,0,1,.46.07v1.09l-.28,0-.28,0a.53.53,0,0,0-.55.29,2,2,0,0,0-.12.76v.68h1.87v-.42a6.06,6.06,0,0,1,.12-1.3,1.38,1.38,0,0,1,.5-.83A1.79,1.79,0,0,1,32,57a3.89,3.89,0,0,1,.51,0,3.4,3.4,0,0,1,.46.07v1.09l-.28,0-.28,0a.53.53,0,0,0-.55.29,2,2,0,0,0-.12.76v.68h3.36v8.09H33.64V61H31.77v7H30.28V61H28.41v7Zm6.73-9.3V57.07h1.5v1.57Z"/><path class="cls-2" d="M39,68.05a2.41,2.41,0,0,1-1.51-.4,1.89,1.89,0,0,1-.68-1.13,7.06,7.06,0,0,1-.18-1.69V63a7.27,7.27,0,0,1,.18-1.74,2,2,0,0,1,.7-1.11A2.43,2.43,0,0,1,39,59.73a2.67,2.67,0,0,1,1.36.29,1.46,1.46,0,0,1,.67.86,4.62,4.62,0,0,1,.18,1.4v.48H39.8v-.49a3.69,3.69,0,0,0-.07-.84.71.71,0,0,0-.25-.45,1,1,0,0,0-1.08,0,1,1,0,0,0-.26.57,7.51,7.51,0,0,0-.06,1.08v2.55a3.19,3.19,0,0,0,.2,1.38.72.72,0,0,0,.7.35.74.74,0,0,0,.55-.17.83.83,0,0,0,.22-.5,4,4,0,0,0,0-.73v-.65h1.36v.56a4.52,4.52,0,0,1-.19,1.4,1.56,1.56,0,0,1-.67.89A2.45,2.45,0,0,1,39,68.05Z"/><path class="cls-2" d="M42.59,58.64V57.07h1.5v1.57Zm0,9.3V59.85h1.5v8.09Z"/><path class="cls-2" d="M47.94,68.05a2.46,2.46,0,0,1-1.47-.37,1.89,1.89,0,0,1-.72-1.09,6.41,6.41,0,0,1-.21-1.77V63a6.41,6.41,0,0,1,.21-1.79,1.9,1.9,0,0,1,.74-1.08,2.53,2.53,0,0,1,1.45-.37,2.24,2.24,0,0,1,1.5.42,2.08,2.08,0,0,1,.64,1.22,10.26,10.26,0,0,1,.15,1.89v.66H47v1.62a2.89,2.89,0,0,0,.09.8.81.81,0,0,0,.3.46.84.84,0,0,0,.52.14.71.71,0,0,0,.51-.16.78.78,0,0,0,.24-.46,3.62,3.62,0,0,0,.06-.71v-.49h1.46v.31a3.15,3.15,0,0,1-.52,1.92A2,2,0,0,1,47.94,68.05ZM47,63.11h1.72v-.73a6.58,6.58,0,0,0,0-.85.93.93,0,0,0-.23-.51.77.77,0,0,0-.56-.18.82.82,0,0,0-.55.17,1,1,0,0,0-.26.57A6.24,6.24,0,0,0,47,62.67Z"/><path class="cls-2" d="M51.59,67.94V59.85h1.5v.79A4.67,4.67,0,0,1,54,60a2.22,2.22,0,0,1,1.08-.27,1,1,0,0,1,.75.26,1.32,1.32,0,0,1,.37.63,2.86,2.86,0,0,1,.1.77v6.55h-1.5V61.82a1.51,1.51,0,0,0-.12-.67.54.54,0,0,0-.52-.24,1.13,1.13,0,0,0-.53.15,3.38,3.38,0,0,0-.52.35v6.53Z"/><path class="cls-2" d="M60,68.05a2.41,2.41,0,0,1-1.51-.4,1.89,1.89,0,0,1-.68-1.13,7.06,7.06,0,0,1-.18-1.69V63a7.27,7.27,0,0,1,.18-1.74,2,2,0,0,1,.7-1.11A2.43,2.43,0,0,1,60,59.73a2.67,2.67,0,0,1,1.36.29,1.46,1.46,0,0,1,.67.86,4.62,4.62,0,0,1,.18,1.4v.48H60.8v-.49a3.69,3.69,0,0,0-.07-.84.71.71,0,0,0-.25-.45,1,1,0,0,0-1.08,0,1,1,0,0,0-.26.57,7.51,7.51,0,0,0-.06,1.08v2.55a3.19,3.19,0,0,0,.2,1.38.72.72,0,0,0,.7.35.74.74,0,0,0,.55-.17.83.83,0,0,0,.22-.5,4,4,0,0,0,0-.73v-.65h1.36v.56a4.52,4.52,0,0,1-.19,1.4,1.56,1.56,0,0,1-.67.89A2.45,2.45,0,0,1,60,68.05Z"/><path class="cls-2" d="M63.36,70V68.82a6.36,6.36,0,0,0,.87,0,.79.79,0,0,0,.46-.18.46.46,0,0,0,.14-.37,3.61,3.61,0,0,0-.09-.56q-.1-.43-.21-.93L62.9,59.85h1.51l1.1,6,1-6h1.51l-1.93,8.54a1.76,1.76,0,0,1-1.33,1.42,4.24,4.24,0,0,1-1.26.16Z"/><path class="cls-2" d="M23.7,159.91a3.1,3.1,0,0,1-1.87-.5,2.61,2.61,0,0,1-.92-1.36,6.61,6.61,0,0,1-.26-1.9v-4a7,7,0,0,1,.26-2,2.4,2.4,0,0,1,.92-1.32,3.18,3.18,0,0,1,1.87-.47,3.18,3.18,0,0,1,1.69.39,2.19,2.19,0,0,1,.9,1.12,5.07,5.07,0,0,1,.27,1.75v.9h-1.5v-.8a9.35,9.35,0,0,0-.06-1.12,1.19,1.19,0,0,0-.34-.74,1.34,1.34,0,0,0-.94-.27,1.4,1.4,0,0,0-1,.29,1.36,1.36,0,0,0-.4.81,7.33,7.33,0,0,0-.09,1.22v4.5a4.89,4.89,0,0,0,.14,1.35,1.16,1.16,0,0,0,.46.71,1.55,1.55,0,0,0,.87.21,1.25,1.25,0,0,0,.92-.29,1.38,1.38,0,0,0,.35-.79,8.23,8.23,0,0,0,.07-1.18v-.84h1.5v.84a6,6,0,0,1-.25,1.83,2.32,2.32,0,0,1-.87,1.23A3,3,0,0,1,23.7,159.91Z"/><path class="cls-2" d="M30.17,159.9a2.34,2.34,0,0,1-1.41-.37,1.93,1.93,0,0,1-.74-1,5.35,5.35,0,0,1-.21-1.58v-2.36A5.35,5.35,0,0,1,28,153a1.93,1.93,0,0,1,.74-1,2.87,2.87,0,0,1,2.82,0,2,2,0,0,1,.73,1,5.35,5.35,0,0,1,.21,1.58v2.36a5.35,5.35,0,0,1-.21,1.58,2,2,0,0,1-.73,1A2.34,2.34,0,0,1,30.17,159.9Zm0-1.11a.69.69,0,0,0,.61-.25,1.3,1.3,0,0,0,.21-.67c0-.27,0-.56,0-.86v-2.53c0-.31,0-.6,0-.87a1.29,1.29,0,0,0-.21-.66.85.85,0,0,0-1.22,0,1.21,1.21,0,0,0-.22.66,8,8,0,0,0,0,.87V157a7.88,7.88,0,0,0,0,.86,1.21,1.21,0,0,0,.22.67A.69.69,0,0,0,30.17,158.79Z"/><path class="cls-2" d="M35.77,159.9a2.09,2.09,0,0,1-1.59-.63,2.49,2.49,0,0,1-.69-1.64l1.25-.38a2.82,2.82,0,0,0,.37,1.16.91.91,0,0,0,.79.38.79.79,0,0,0,.61-.23.88.88,0,0,0,.21-.62,1.28,1.28,0,0,0-.15-.63,2,2,0,0,0-.51-.58l-1.38-1.19a3.63,3.63,0,0,1-.71-.81,2.12,2.12,0,0,1-.29-1.16,2.17,2.17,0,0,1,.26-1.09,1.82,1.82,0,0,1,.73-.67,2.51,2.51,0,0,1,1.1-.23,1.92,1.92,0,0,1,1.54.62,2.66,2.66,0,0,1,.62,1.51l-1.07.38a3.54,3.54,0,0,0-.16-.74,1.18,1.18,0,0,0-.33-.49.85.85,0,0,0-.54-.17.73.73,0,0,0-.58.24.84.84,0,0,0-.22.58,1.06,1.06,0,0,0,.09.42,1.5,1.5,0,0,0,.31.4l1.43,1.31a6.16,6.16,0,0,1,.56.58,2.55,2.55,0,0,1,.42.7,2.31,2.31,0,0,1,.17.91,2.12,2.12,0,0,1-.28,1.14,1.82,1.82,0,0,1-.78.7A2.89,2.89,0,0,1,35.77,159.9Z"/><path class="cls-2" d="M41.29,159.9a1.93,1.93,0,0,1-1-.24,1.37,1.37,0,0,1-.56-.67,2.87,2.87,0,0,1-.17-1v-5.28h-.86v-1h.86v-2.36H41v2.36h1.31v1H41v5.18a1.17,1.17,0,0,0,.16.68.72.72,0,0,0,.59.2H42l.28,0v1.1l-.51.07Z"/><path class="cls-2" d="M20.86,176.59V165.25h2.28a5.07,5.07,0,0,1,1.88.3,2.12,2.12,0,0,1,1.1,1,3.7,3.7,0,0,1,.36,1.75,4.92,4.92,0,0,1-.14,1.19,2.43,2.43,0,0,1-.45.91,1.76,1.76,0,0,1-.81.54l1.61,5.69H25.16l-1.48-5.32H22.44v5.32Zm1.58-6.46h.61a2.83,2.83,0,0,0,1.09-.17,1.1,1.1,0,0,0,.61-.57,2.66,2.66,0,0,0,.2-1.13,2.27,2.27,0,0,0-.36-1.44,1.87,1.87,0,0,0-1.45-.44h-.7Z"/><path class="cls-2" d="M30.12,176.7a2.53,2.53,0,0,1-1.47-.37,1.94,1.94,0,0,1-.73-1.1,6.85,6.85,0,0,1-.2-1.77v-1.84a6.54,6.54,0,0,1,.21-1.8,1.91,1.91,0,0,1,.74-1.07,2.45,2.45,0,0,1,1.45-.37,2.24,2.24,0,0,1,1.5.42,2.15,2.15,0,0,1,.64,1.21,10.38,10.38,0,0,1,.15,1.9v.66H29.22v1.62a2.94,2.94,0,0,0,.09.8.79.79,0,0,0,.29.45.88.88,0,0,0,.53.15.73.73,0,0,0,.51-.16.82.82,0,0,0,.24-.46,3.69,3.69,0,0,0,.06-.71v-.49H32.4v.31a3.22,3.22,0,0,1-.52,1.92A2.07,2.07,0,0,1,30.12,176.7Zm-.9-4.94h1.72V171a6.58,6.58,0,0,0-.05-.85.94.94,0,0,0-.24-.52.77.77,0,0,0-.55-.17.76.76,0,0,0-.55.17,1,1,0,0,0-.26.56,6.44,6.44,0,0,0-.07,1.1Z"/><path class="cls-2" d="M35.65,176.7a1.72,1.72,0,0,1-1.53-.75,4.73,4.73,0,0,1-.5-2.54v-1.57a9.07,9.07,0,0,1,.15-1.71,2.63,2.63,0,0,1,.58-1.27,1.79,1.79,0,0,1,2-.3,3.36,3.36,0,0,1,.6.45v-3.76h1.5v11.34H37v-.52a2.45,2.45,0,0,1-.58.45A1.43,1.43,0,0,1,35.65,176.7Zm.37-1.18a1.26,1.26,0,0,0,.45-.08,1.75,1.75,0,0,0,.48-.23v-5.3a2.09,2.09,0,0,0-.44-.25,1.25,1.25,0,0,0-.51-.1.68.68,0,0,0-.7.5,3.27,3.27,0,0,0-.19,1.19v2.28a6.28,6.28,0,0,0,.07,1,1.39,1.39,0,0,0,.26.71A.66.66,0,0,0,36,175.52Z"/><path class="cls-2" d="M41.12,176.7a1,1,0,0,1-.74-.25,1.34,1.34,0,0,1-.37-.63,2.92,2.92,0,0,1-.11-.77v-6.56h1.5v6.11a1.44,1.44,0,0,0,.13.68.51.51,0,0,0,.51.24,1.2,1.2,0,0,0,.53-.14,3,3,0,0,0,.52-.36v-6.53h1.5v8.1h-1.5v-.8a3.89,3.89,0,0,1-.89.64A2.22,2.22,0,0,1,41.12,176.7Z"/><path class="cls-2" d="M48.33,176.7a2.47,2.47,0,0,1-1.51-.4,1.92,1.92,0,0,1-.68-1.13,7.06,7.06,0,0,1-.18-1.69v-1.86a6.78,6.78,0,0,1,.19-1.75,1.88,1.88,0,0,1,.69-1.1,2.43,2.43,0,0,1,1.49-.39,2.67,2.67,0,0,1,1.36.29,1.46,1.46,0,0,1,.67.85,4.74,4.74,0,0,1,.18,1.41v.48H49.18v-.49a3.69,3.69,0,0,0-.07-.84.71.71,0,0,0-.25-.45.79.79,0,0,0-.52-.14.8.8,0,0,0-.56.17,1,1,0,0,0-.26.56,7.76,7.76,0,0,0-.06,1.09v2.55a3.19,3.19,0,0,0,.2,1.38.72.72,0,0,0,.7.35.79.79,0,0,0,.55-.17.86.86,0,0,0,.22-.5,4,4,0,0,0,0-.73v-.66h1.36v.56a4.43,4.43,0,0,1-.19,1.4,1.58,1.58,0,0,1-.67.9A2.45,2.45,0,0,1,48.33,176.7Z"/><path class="cls-2" d="M54,176.7a1.93,1.93,0,0,1-1-.24,1.42,1.42,0,0,1-.56-.67,2.87,2.87,0,0,1-.17-1v-5.28h-.86v-1h.86v-2.36h1.5v2.36h1.3v1h-1.3v5.18a1.18,1.18,0,0,0,.15.68.72.72,0,0,0,.59.2h.26l.28,0v1.1l-.51.07Z"/><path class="cls-2" d="M56.28,167.29v-1.57h1.5v1.57Zm0,9.3v-8.1h1.5v8.1Z"/><path class="cls-2" d="M61.62,176.7a2.39,2.39,0,0,1-1.42-.37,1.92,1.92,0,0,1-.73-1,5,5,0,0,1-.22-1.58v-2.36a5,5,0,0,1,.22-1.58,1.92,1.92,0,0,1,.73-1,2.39,2.39,0,0,1,1.42-.37,2.33,2.33,0,0,1,1.4.37,1.92,1.92,0,0,1,.73,1,5.33,5.33,0,0,1,.22,1.58v2.36a5.33,5.33,0,0,1-.22,1.58,1.92,1.92,0,0,1-.73,1A2.33,2.33,0,0,1,61.62,176.7Zm0-1.11a.67.67,0,0,0,.6-.25,1.3,1.3,0,0,0,.21-.67,7.88,7.88,0,0,0,0-.86v-2.53a8,8,0,0,0,0-.87,1.29,1.29,0,0,0-.21-.66.65.65,0,0,0-.6-.26.69.69,0,0,0-.62.26,1.39,1.39,0,0,0-.22.66q0,.41,0,.87v2.53c0,.3,0,.59,0,.86a1.4,1.4,0,0,0,.22.67A.71.71,0,0,0,61.62,175.59Z"/><path class="cls-2" d="M65.34,176.59v-8.1h1.5v.8a4.67,4.67,0,0,1,.89-.64,2.22,2.22,0,0,1,1.08-.27,1.06,1.06,0,0,1,.75.25,1.41,1.41,0,0,1,.36.63A2.92,2.92,0,0,1,70,170v6.56h-1.5v-6.12a1.35,1.35,0,0,0-.13-.67.51.51,0,0,0-.51-.24,1.1,1.1,0,0,0-.53.15,2.5,2.5,0,0,0-.52.35v6.53Z"/><path class="cls-2" d="M20.86,268.43V257.09h4.4v1.18H22.44V262h2.29v1.12H22.44v4.16h2.85v1.13Z"/><path class="cls-2" d="M26.43,268.43v-8.09h1.5v.8a4.09,4.09,0,0,1,.9-.64,2.16,2.16,0,0,1,1.08-.27,1,1,0,0,1,.74.25,1.34,1.34,0,0,1,.37.63,2.86,2.86,0,0,1,.1.77v6.55H29.63v-6.11a1.55,1.55,0,0,0-.13-.68.55.55,0,0,0-.52-.23,1.16,1.16,0,0,0-.52.14,3.1,3.1,0,0,0-.53.36v6.52Z"/><path class="cls-2" d="M33.63,268.43,32,260.34h1.52l1,6.51,1-6.51H37l-1.54,8.09Z"/><path class="cls-2" d="M38.07,259.14v-1.57h1.5v1.57Zm0,9.29v-8.09h1.5v8.09Z"/><path class="cls-2" d="M41.22,268.43v-8.09h1.5v1.15a2.59,2.59,0,0,1,.89-1,1.82,1.82,0,0,1,.9-.26h.1l.14,0v1.65a2.22,2.22,0,0,0-.39-.12,2.12,2.12,0,0,0-.44-.05,1.38,1.38,0,0,0-.64.16,1.69,1.69,0,0,0-.56.63v5.9Z"/><path class="cls-2" d="M47.85,268.55a2.43,2.43,0,0,1-1.41-.37,2,2,0,0,1-.74-1,5.37,5.37,0,0,1-.21-1.59v-2.35a5.35,5.35,0,0,1,.21-1.58,2,2,0,0,1,.74-1,2.94,2.94,0,0,1,2.82,0,2,2,0,0,1,.73,1,5.33,5.33,0,0,1,.22,1.58v2.35a5.36,5.36,0,0,1-.22,1.59,2,2,0,0,1-.73,1A2.41,2.41,0,0,1,47.85,268.55Zm0-1.11a.68.68,0,0,0,.61-.25,1.3,1.3,0,0,0,.21-.67,7.88,7.88,0,0,0,0-.86v-2.53a8,8,0,0,0,0-.87,1.36,1.36,0,0,0-.21-.67.68.68,0,0,0-.61-.25.69.69,0,0,0-.61.25,1.37,1.37,0,0,0-.22.67q0,.4,0,.87v2.53c0,.3,0,.59,0,.86a1.3,1.3,0,0,0,.22.67A.69.69,0,0,0,47.85,267.44Z"/><path class="cls-2" d="M51.58,268.43v-8.09h1.5v.8a4,4,0,0,1,.89-.64,2.22,2.22,0,0,1,1.08-.27,1,1,0,0,1,.75.25,1.41,1.41,0,0,1,.36.63,2.87,2.87,0,0,1,.11.77v6.55h-1.5v-6.11a1.42,1.42,0,0,0-.13-.68.53.53,0,0,0-.51-.23,1.2,1.2,0,0,0-.53.14,3,3,0,0,0-.52.36v6.52Z"/><path class="cls-2" d="M57.72,268.43v-8.09h1.39v.77a2.62,2.62,0,0,1,.9-.68,2.36,2.36,0,0,1,1-.23,1.5,1.5,0,0,1,.81.23,1.25,1.25,0,0,1,.51.79,2.78,2.78,0,0,1,.94-.77,2.38,2.38,0,0,1,1.08-.25,1.35,1.35,0,0,1,.71.19,1.41,1.41,0,0,1,.52.6,2.6,2.6,0,0,1,.19,1.09v6.35H64.4v-6.25a1.2,1.2,0,0,0-.19-.8.66.66,0,0,0-.51-.2,1.35,1.35,0,0,0-.64.18,2,2,0,0,0-.62.48v6.59H61.07v-6.25a1.2,1.2,0,0,0-.19-.8.69.69,0,0,0-.51-.2,1.32,1.32,0,0,0-.64.18,2.26,2.26,0,0,0-.62.48v6.59Z"/><path class="cls-2" d="M69.48,268.55a2.5,2.5,0,0,1-1.47-.38,2,2,0,0,1-.72-1.09,6.85,6.85,0,0,1-.2-1.77v-1.85a6.51,6.51,0,0,1,.21-1.79,2,2,0,0,1,.73-1.08,2.55,2.55,0,0,1,1.45-.36,2.27,2.27,0,0,1,1.51.42,2.11,2.11,0,0,1,.64,1.21,10.38,10.38,0,0,1,.15,1.9v.66H68.59V266a2.94,2.94,0,0,0,.09.8.82.82,0,0,0,.29.45.88.88,0,0,0,.53.15.73.73,0,0,0,.51-.16,1,1,0,0,0,.24-.46,3.69,3.69,0,0,0,.06-.71v-.49h1.45v.31a3.22,3.22,0,0,1-.51,1.92A2.09,2.09,0,0,1,69.48,268.55Zm-.89-4.95h1.72v-.72a5,5,0,0,0-.06-.85.87.87,0,0,0-.23-.52.73.73,0,0,0-.55-.17.8.8,0,0,0-.55.16.92.92,0,0,0-.26.57,6.37,6.37,0,0,0-.07,1.1Z"/><path class="cls-2" d="M73.14,268.43v-8.09h1.5v.8a4,4,0,0,1,.89-.64,2.22,2.22,0,0,1,1.08-.27,1,1,0,0,1,.75.25,1.41,1.41,0,0,1,.36.63,2.87,2.87,0,0,1,.11.77v6.55h-1.5v-6.11a1.42,1.42,0,0,0-.13-.68.53.53,0,0,0-.51-.23,1.2,1.2,0,0,0-.53.14,3,3,0,0,0-.52.36v6.52Z"/><path class="cls-2" d="M81.44,268.55a1.93,1.93,0,0,1-1-.24,1.47,1.47,0,0,1-.56-.67,2.88,2.88,0,0,1-.17-1v-5.27h-.85v-1h.85V258h1.5v2.36h1.3v1h-1.3v5.18a1.2,1.2,0,0,0,.15.68.72.72,0,0,0,.59.2l.26,0,.29,0v1.1l-.52.06A4.17,4.17,0,0,1,81.44,268.55Z"/><path class="cls-2" d="M84.81,268.55a1.35,1.35,0,0,1-.84-.28,1.87,1.87,0,0,1-.57-.7,2,2,0,0,1-.21-.9,2.85,2.85,0,0,1,.25-1.27,2.6,2.6,0,0,1,.69-.88,4.94,4.94,0,0,1,1-.62c.38-.18.79-.35,1.22-.52v-.57a6.09,6.09,0,0,0,0-.82.84.84,0,0,0-.24-.48.72.72,0,0,0-.52-.16.85.85,0,0,0-.5.14.84.84,0,0,0-.27.4,1.84,1.84,0,0,0-.08.61v.4l-1.49,0a2.94,2.94,0,0,1,.62-2,2.34,2.34,0,0,1,1.82-.64,2,2,0,0,1,1.71.66,3.12,3.12,0,0,1,.5,1.9v3.7c0,.25,0,.49,0,.73a6.26,6.26,0,0,0,.06.65c0,.2,0,.39.06.56H86.65c0-.15-.07-.33-.11-.56s-.07-.44-.09-.63a2,2,0,0,1-.54.89A1.43,1.43,0,0,1,84.81,268.55Zm.59-1.29a.72.72,0,0,0,.42-.13,1.64,1.64,0,0,0,.35-.29,1.72,1.72,0,0,0,.21-.25v-2.3l-.66.39a4.77,4.77,0,0,0-.54.41,1.77,1.77,0,0,0-.36.5,1.35,1.35,0,0,0-.13.62,1.44,1.44,0,0,0,.18.77A.59.59,0,0,0,85.4,267.26Z"/><path class="cls-2" d="M89.46,268.43V257.09H91v11.34Z"/><path class="cls-2" d="M20.86,285.23V273.89h2.61a4.78,4.78,0,0,1,1.33.17,2.36,2.36,0,0,1,.95.52,2.09,2.09,0,0,1,.56.89,4,4,0,0,1,.18,1.27,3.67,3.67,0,0,1-.18,1.21,1.64,1.64,0,0,1-.53.8,1.84,1.84,0,0,1-.91.38,2.41,2.41,0,0,1,1.1.53,2.1,2.1,0,0,1,.62.95A4.07,4.07,0,0,1,26.8,282a5,5,0,0,1-.17,1.33,2.61,2.61,0,0,1-.53,1,2.26,2.26,0,0,1-.91.65,3.22,3.22,0,0,1-1.3.23Zm1.58-6.6h.94a2.46,2.46,0,0,0,1.05-.19,1.07,1.07,0,0,0,.53-.61,3.06,3.06,0,0,0,.16-1.09,2.08,2.08,0,0,0-.24-1.14,1.1,1.1,0,0,0-.74-.44,7.86,7.86,0,0,0-1.32-.09h-.38Zm0,5.47h1.07a1.66,1.66,0,0,0,1.42-.5,2.76,2.76,0,0,0,.36-1.6,3.47,3.47,0,0,0-.19-1.2,1.4,1.4,0,0,0-.61-.72,2.07,2.07,0,0,0-1.11-.25h-.94Z"/><path class="cls-2" d="M30.31,285.35a2.57,2.57,0,0,1-1.47-.37,2,2,0,0,1-.72-1.1,6.44,6.44,0,0,1-.2-1.77v-1.85a6.51,6.51,0,0,1,.21-1.79,2,2,0,0,1,.73-1.08,2.55,2.55,0,0,1,1.45-.36,2.29,2.29,0,0,1,1.51.42,2,2,0,0,1,.63,1.21,9.49,9.49,0,0,1,.16,1.9v.66H29.42v1.62a2.94,2.94,0,0,0,.09.8.77.77,0,0,0,.29.45.88.88,0,0,0,.53.15.73.73,0,0,0,.51-.16.87.87,0,0,0,.23-.46,3,3,0,0,0,.07-.71v-.49h1.45v.31a3.22,3.22,0,0,1-.51,1.92A2.09,2.09,0,0,1,30.31,285.35Zm-.89-5h1.72v-.72a5,5,0,0,0-.06-.85.93.93,0,0,0-.23-.52.74.74,0,0,0-.55-.17.83.83,0,0,0-.56.16,1,1,0,0,0-.25.57,6.37,6.37,0,0,0-.07,1.1Z"/><path class="cls-2" d="M34,285.23v-8.09h1.49v.8a4.09,4.09,0,0,1,.9-.64,2.22,2.22,0,0,1,1.08-.27,1,1,0,0,1,.75.25,1.41,1.41,0,0,1,.36.63,2.87,2.87,0,0,1,.11.77v6.55h-1.5v-6.11a1.42,1.42,0,0,0-.13-.68.54.54,0,0,0-.52-.23,1.07,1.07,0,0,0-.52.14,3.54,3.54,0,0,0-.53.36v6.52Z"/><path class="cls-2" d="M42.35,285.35a2.57,2.57,0,0,1-1.47-.37,2,2,0,0,1-.72-1.1,6.44,6.44,0,0,1-.2-1.77v-1.85a6.51,6.51,0,0,1,.21-1.79,2,2,0,0,1,.73-1.08,2.55,2.55,0,0,1,1.45-.36,2.29,2.29,0,0,1,1.51.42,2,2,0,0,1,.63,1.21,9.49,9.49,0,0,1,.16,1.9v.66H41.46v1.62a2.94,2.94,0,0,0,.09.8.77.77,0,0,0,.29.45.88.88,0,0,0,.53.15.73.73,0,0,0,.51-.16.87.87,0,0,0,.23-.46,3,3,0,0,0,.07-.71v-.49h1.45v.31a3.22,3.22,0,0,1-.51,1.92A2.09,2.09,0,0,1,42.35,285.35Zm-.89-5h1.72v-.72a5,5,0,0,0-.06-.85.93.93,0,0,0-.23-.52.74.74,0,0,0-.55-.17.83.83,0,0,0-.56.16,1,1,0,0,0-.25.57,6.37,6.37,0,0,0-.07,1.1Z"/><path class="cls-2" d="M46.48,285.23v-7h-1v-1.11h1v-.42a4.21,4.21,0,0,1,.18-1.34,1.4,1.4,0,0,1,.59-.8,2.1,2.1,0,0,1,1.15-.27l.38,0,.43,0v1.12l-.27,0-.25,0a.6.6,0,0,0-.57.24,1.73,1.73,0,0,0-.14.8v.67h3.3v8.09H49.79v-7H48v7Zm3.45-9.29v-1.57H51.3v1.57Z"/><path class="cls-2" d="M55,285.35a1.93,1.93,0,0,1-1-.24,1.37,1.37,0,0,1-.56-.67,2.68,2.68,0,0,1-.17-1v-5.27h-.86v-1h.86v-2.36h1.49v2.36h1.31v1H54.78v5.18a1.12,1.12,0,0,0,.16.68.72.72,0,0,0,.59.2l.25,0,.29,0v1.1l-.52.07Z"/><path class="cls-2" d="M59.07,285.35a2.1,2.1,0,0,1-1.6-.63,2.54,2.54,0,0,1-.68-1.64L58,282.7a2.86,2.86,0,0,0,.38,1.16.91.91,0,0,0,.78.38.81.81,0,0,0,.62-.23.88.88,0,0,0,.21-.62,1.28,1.28,0,0,0-.15-.63,2.38,2.38,0,0,0-.51-.58L58,281a3.63,3.63,0,0,1-.71-.81A2.14,2.14,0,0,1,57,279a2.17,2.17,0,0,1,.26-1.09,1.75,1.75,0,0,1,.73-.67,2.51,2.51,0,0,1,1.1-.23,1.94,1.94,0,0,1,1.54.62,2.65,2.65,0,0,1,.61,1.51l-1.06.38a3.51,3.51,0,0,0-.17-.74,1.08,1.08,0,0,0-.32-.49.81.81,0,0,0-.55-.17.75.75,0,0,0-.58.24.86.86,0,0,0-.21.58,1.06,1.06,0,0,0,.09.42,1.18,1.18,0,0,0,.31.39l1.43,1.32a5.9,5.9,0,0,1,.55.57,2.64,2.64,0,0,1,.43.7,2.38,2.38,0,0,1,.17.91,2.25,2.25,0,0,1-.28,1.15,1.79,1.79,0,0,1-.79.7A2.81,2.81,0,0,1,59.07,285.35Z"/><path class="cls-13" d="M18.17,83.21a1.08,1.08,0,1,1-1.07-1.07A1.07,1.07,0,0,1,18.17,83.21Z"/><path class="cls-13" d="M18.17,97.24a1.08,1.08,0,1,1-1.07-1.08A1.07,1.07,0,0,1,18.17,97.24Z"/><path class="cls-13" d="M18.14,191.93a1.08,1.08,0,1,1-1.07-1.08A1.07,1.07,0,0,1,18.14,191.93Z"/><path class="cls-13" d="M18.14,198.76a1.08,1.08,0,1,1-1.07-1.08A1.07,1.07,0,0,1,18.14,198.76Z"/><path class="cls-13" d="M18.14,300.46a1.08,1.08,0,1,1-1.07-1.07A1.07,1.07,0,0,1,18.14,300.46Z"/><path class="cls-13" d="M18.14,314.67a1.08,1.08,0,1,1-1.07-1.07A1.07,1.07,0,0,1,18.14,314.67Z"/></g></g></svg>