<svg xmlns="http://www.w3.org/2000/svg" xmlns:xlink="http://www.w3.org/1999/xlink" viewBox="0 0 793.4 912.48"><defs><style>.cls-1{isolation:isolate;}.cls-2{fill:#f89b1c;}.cls-3{opacity:0.6;mix-blend-mode:multiply;fill:url(#radial-gradient);}.cls-4{fill:#fff;}.cls-5{fill:#231f20;}</style><radialGradient id="radial-gradient" cx="-4.97" cy="-6565.85" r="78.44" gradientTransform="translate(0 44336.41) scale(1 6.68)" gradientUnits="userSpaceOnUse"><stop offset="0" stop-color="#3e3e3e"/><stop offset="0.36" stop-color="#8f8f8f"/><stop offset="0.66" stop-color="#cbcbcb"/><stop offset="0.88" stop-color="#f1f1f1"/><stop offset="1" stop-color="#fff"/></radialGradient></defs><g class="cls-1"><g id="Layer_1" data-name="Layer 1"><polygon class="cls-2" points="-105.53 241.34 150.08 471.19 -105.53 701.03 -105.53 241.34"/><ellipse class="cls-3" cx="-4.97" cy="466.73" rx="75" ry="526.55"/><path class="cls-2" d="M104.24,84.41c0-12.3,6.54-18.84,18.83-18.84h14.65c12.3,0,18.84,6.54,18.84,18.84v67c0,12.29-6.54,18.83-18.84,18.83H123.07c-12.29,0-18.83-6.54-18.83-18.83Zm30.21,68.93c3.4,0,5.23-1.7,5.23-5.23V87.68c0-3.4-1.83-5.23-5.23-5.23h-7.59c-3.4,0-5.23,1.83-5.23,5.23v60.43c0,3.53,1.83,5.23,5.23,5.23Z"/><path class="cls-2" d="M189.26,135.81a3.3,3.3,0,0,0-1.84,3.14v11.38A2.35,2.35,0,0,0,190,153h14.13v-5.37a2.34,2.34,0,0,1,2.61-2.61h12.56a2.35,2.35,0,0,1,2.62,2.61v20a2.35,2.35,0,0,1-2.62,2.61H172.25a2.34,2.34,0,0,1-2.61-2.61V129c0-2.48.91-3.53,3.4-4.84l31.13-16.74V88.07c0-3.4-2-5.23-5.23-5.23h-6.28c-3.54,0-5.24,1.83-5.24,5.23v10.2a1.93,1.93,0,0,1-2.09,2.1h-13.6a1.87,1.87,0,0,1-2.09-2.1V84.41c0-12.3,6.54-18.84,18.83-18.84h14.65c12.16,0,18.84,6.54,18.84,18.84v30.87c0,2.48-1.05,3.53-3.54,4.84Z"/><polygon class="cls-4" points="91.63 465.83 22.27 403.46 22.27 -223.82 -229.42 -223.82 -229.42 1166.2 22.27 1166.2 22.27 528.2 91.63 465.83"/><path class="cls-2" d="M130.9,576.75q-6.23,0-9.76-2.45a12.79,12.79,0,0,1-4.94-6.68,31.25,31.25,0,0,1-1.4-9.77V537.62a32.59,32.59,0,0,1,1.4-10.08,12.13,12.13,0,0,1,4.94-6.58q3.54-2.31,9.76-2.31,5.88,0,9.21,2a10.93,10.93,0,0,1,4.72,5.7,24.22,24.22,0,0,1,1.4,8.61v4.76h-9.94v-4.9a36,36,0,0,0-.24-4.34,5.39,5.39,0,0,0-1.33-3.11,5,5,0,0,0-3.75-1.16,5.3,5.3,0,0,0-3.88,1.23,5.9,5.9,0,0,0-1.58,3.29,28.32,28.32,0,0,0-.35,4.65V560a22.18,22.18,0,0,0,.49,5.08,5.32,5.32,0,0,0,1.79,3,5.61,5.61,0,0,0,3.53,1,4.74,4.74,0,0,0,3.68-1.22,6,6,0,0,0,1.36-3.26,33,33,0,0,0,.28-4.55V555h9.94v4.55a27.46,27.46,0,0,1-1.33,8.93,11.54,11.54,0,0,1-4.65,6.09C138,576,134.92,576.75,130.9,576.75Z"/><path class="cls-2" d="M168.84,576.75c-4,0-7.21-.74-9.59-2.24a12.38,12.38,0,0,1-5.11-6.44,29,29,0,0,1-1.54-9.94V536.92a28.14,28.14,0,0,1,1.54-9.83,12.1,12.1,0,0,1,5.11-6.27c2.38-1.44,5.58-2.17,9.59-2.17s7.34.73,9.7,2.17a12.34,12.34,0,0,1,5.11,6.27,27.43,27.43,0,0,1,1.57,9.83V558.2a27.83,27.83,0,0,1-1.57,9.84,12.88,12.88,0,0,1-5.11,6.44Q175,576.75,168.84,576.75Zm0-7.63a5.52,5.52,0,0,0,3.82-1.12,5.64,5.64,0,0,0,1.64-3.08,20.34,20.34,0,0,0,.42-4.27V534.54a19.8,19.8,0,0,0-.42-4.27,5.42,5.42,0,0,0-1.64-3,5.62,5.62,0,0,0-3.82-1.09,5.51,5.51,0,0,0-3.71,1.09,5.28,5.28,0,0,0-1.68,3,19.8,19.8,0,0,0-.42,4.27v26.11a21.85,21.85,0,0,0,.39,4.27,5.28,5.28,0,0,0,1.64,3.08A5.52,5.52,0,0,0,168.84,569.12Z"/><path class="cls-2" d="M192.71,576l1-56.7H204.4l8,39.27,8.4-39.27h10.36l1,56.7h-7.7l-.84-39.41L215.67,576h-6.23l-8.19-39.55L200.48,576Z"/><path class="cls-2" d="M240.66,576v-56.7h16.66a16.14,16.14,0,0,1,8.3,1.89,11.24,11.24,0,0,1,4.69,5.5,22.65,22.65,0,0,1,1.5,8.71,18.33,18.33,0,0,1-1.89,8.93,11.24,11.24,0,0,1-5.28,4.93,19.26,19.26,0,0,1-8,1.54H251V576ZM251,543.5h3.92a9.87,9.87,0,0,0,4.38-.8,4.33,4.33,0,0,0,2.17-2.59,15.87,15.87,0,0,0,.59-4.8,22.63,22.63,0,0,0-.45-5,4.33,4.33,0,0,0-2-2.84,9.53,9.53,0,0,0-4.73-.91H251Z"/><path class="cls-2" d="M271.39,576l11.34-56.7h11.06L305.13,576h-9.59l-2.24-13.09h-9.87L281.12,576Zm13.09-19.67h7.7l-3.85-23.8Z"/><path class="cls-2" d="M310.8,576v-56.7H318l13.79,32.34V519.28h8.54V576h-6.86L319.62,542.1V576Z"/><path class="cls-2" d="M356.86,576V554.35l-11.48-35.07H355l7,22.47,6.58-22.47h9.45l-11.34,35.07V576Z"/><path class="cls-2" d="M415.31,576.75q-6.22,0-9.76-2.45a12.74,12.74,0,0,1-4.94-6.68,31.25,31.25,0,0,1-1.4-9.77V537.62a32.59,32.59,0,0,1,1.4-10.08,12.09,12.09,0,0,1,4.94-6.58q3.52-2.31,9.76-2.31,5.88,0,9.21,2a11,11,0,0,1,4.72,5.7,24.44,24.44,0,0,1,1.4,8.61v4.76H420.7v-4.9a36,36,0,0,0-.24-4.34,5.46,5.46,0,0,0-1.33-3.11,5,5,0,0,0-3.75-1.16,5.28,5.28,0,0,0-3.88,1.23,5.83,5.83,0,0,0-1.58,3.29,28.32,28.32,0,0,0-.35,4.65V560a21.63,21.63,0,0,0,.49,5.08,5.26,5.26,0,0,0,1.79,3,5.61,5.61,0,0,0,3.53,1,4.75,4.75,0,0,0,3.68-1.22,6.08,6.08,0,0,0,1.36-3.26,33,33,0,0,0,.28-4.55V555h9.94v4.55a27.46,27.46,0,0,1-1.33,8.93,11.64,11.64,0,0,1-4.65,6.09Q421.33,576.76,415.31,576.75Z"/><path class="cls-2" d="M453.39,576.75q-6.3,0-9.8-2.31a11.83,11.83,0,0,1-4.83-6.58,34.44,34.44,0,0,1-1.33-10.22V519.28h10.08v39.55a34.46,34.46,0,0,0,.35,5,7,7,0,0,0,1.65,3.78,6.09,6.09,0,0,0,7.84,0,7.7,7.7,0,0,0,1.61-3.78,31.76,31.76,0,0,0,.38-5V519.28h10v38.36A34.44,34.44,0,0,1,468,567.86a11.86,11.86,0,0,1-4.79,6.58Q459.77,576.75,453.39,576.75Z"/><path class="cls-2" d="M477.47,576v-56.7h10.36v49.56h13.72V576Z"/><path class="cls-2" d="M507.5,576V526.91h-9v-7.63h28.28v7.63h-8.89V576Z"/><path class="cls-2" d="M547.47,576.75q-6.3,0-9.8-2.31a11.83,11.83,0,0,1-4.83-6.58,34.44,34.44,0,0,1-1.33-10.22V519.28h10.08v39.55a34.46,34.46,0,0,0,.35,5,7.06,7.06,0,0,0,1.64,3.78,5,5,0,0,0,3.89,1.43,4.93,4.93,0,0,0,3.95-1.43,7.62,7.62,0,0,0,1.62-3.78,31.76,31.76,0,0,0,.38-5V519.28h10v38.36a34.44,34.44,0,0,1-1.33,10.22,11.83,11.83,0,0,1-4.8,6.58Q553.84,576.75,547.47,576.75Z"/><path class="cls-2" d="M571.55,576v-56.7h13.58a29.87,29.87,0,0,1,9.69,1.37,11.11,11.11,0,0,1,6,4.65c1.38,2.2,2.07,5.18,2.07,9a27.46,27.46,0,0,1-.63,6.16,11.7,11.7,0,0,1-2.14,4.66,9.63,9.63,0,0,1-4.16,3L603.89,576H593.53l-6.86-26h-4.76v26Zm10.36-32.48h3.22a11.05,11.05,0,0,0,4.79-.87,5.18,5.18,0,0,0,2.56-2.8,13.55,13.55,0,0,0,.77-4.94c0-2.84-.53-5-1.58-6.4s-3-2.14-6-2.14h-3.78Z"/><path class="cls-2" d="M610.82,576v-56.7h23.8v7.28H621.18v16.31h10.57v7.21H621.18v18.76h13.58V576Z"/><path class="cls-5" d="M135,667.86a8.48,8.48,0,0,1-4.56-1.24,8.87,8.87,0,0,1-3.17-3.32,9.45,9.45,0,0,1-1.16-4.71,9.68,9.68,0,0,1,1.16-4.77,8.78,8.78,0,0,1,3.17-3.34,8.41,8.41,0,0,1,4.52-1.24,8,8,0,0,1,3.67.82,6.8,6.8,0,0,1,2.62,2.28,7.52,7.52,0,0,1,1.24,3.4v5.58a7.6,7.6,0,0,1-1.24,3.42,6.77,6.77,0,0,1-2.62,2.3A7.88,7.88,0,0,1,135,667.86Zm.42-2.55a5.72,5.72,0,0,0,4.46-1.86,7,7,0,0,0,1.69-4.9,7.86,7.86,0,0,0-.77-3.55,5.88,5.88,0,0,0-2.17-2.4,6.08,6.08,0,0,0-3.25-.85,6.42,6.42,0,0,0-3.36.87,6.32,6.32,0,0,0-2.32,2.41,7.14,7.14,0,0,0-.86,3.52,7,7,0,0,0,.86,3.5,6.32,6.32,0,0,0,2.34,2.39A6.52,6.52,0,0,0,135.41,665.31Zm6,2.17v-4.79l.53-4.41-.53-4.29v-4.37h2.66v17.86Z"/><path class="cls-5" d="M147.57,652v-2.39h11.66V652Zm4.52,15.47V642.1h2.66v25.38Z"/><path class="cls-5" d="M168.7,667.48l10.71-26.14h2.09l10.6,26.14h-3l-9.23-23.1H181l-9.31,23.1Zm4.9-6.8v-2.47h13.68v2.47Z"/><path class="cls-5" d="M204.45,667.86a9.25,9.25,0,0,1-4.4-1,7.44,7.44,0,0,1-4.07-6.78,7.85,7.85,0,0,1,1.31-4.41,8.8,8.8,0,0,1,3.63-3.08l1.33,1.68a6.23,6.23,0,0,0-2.6,2.3,6.14,6.14,0,0,0-1,3.43,5,5,0,0,0,2.85,4.66,6.73,6.73,0,0,0,3,.66,6.92,6.92,0,0,0,3.57-.91,6.34,6.34,0,0,0,2.36-2.32l1.74,2a7.7,7.7,0,0,1-2,2,10,10,0,0,1-2.68,1.33A10.5,10.5,0,0,1,204.45,667.86Zm9.81-.38-12.62-13.26a13.8,13.8,0,0,1-2.26-3.14,7.2,7.2,0,0,1-.74-3.21,6.92,6.92,0,0,1,.91-3.57,6.66,6.66,0,0,1,2.55-2.47,7.56,7.56,0,0,1,3.76-.91,7.84,7.84,0,0,1,2.74.47,8.11,8.11,0,0,1,2.24,1.28,7.79,7.79,0,0,1,1.67,1.86l-1.94,1.75a7.4,7.4,0,0,0-2-2,4.88,4.88,0,0,0-2.66-.72,4.55,4.55,0,0,0-3.25,1.2,4.08,4.08,0,0,0-1.27,3.13,4.94,4.94,0,0,0,.61,2.49,13.4,13.4,0,0,0,1.93,2.49l13.76,14.63Z"/><path class="cls-5" d="M220.41,667.48V641.34h2.78v26.14Zm1.79,0V665h8.28a5.59,5.59,0,0,0,4.07-1.44A4.84,4.84,0,0,0,236,660a5.08,5.08,0,0,0-.64-2.55,4.71,4.71,0,0,0-1.85-1.8,5.67,5.67,0,0,0-2.83-.67H222.2v-2.43h8.09a4.79,4.79,0,0,0,3.37-1.14,4.19,4.19,0,0,0,1.23-3.23,4,4,0,0,0-1.33-3.23,5.31,5.31,0,0,0-3.57-1.14H222.2v-2.43h7.87a9,9,0,0,1,4.14.87,6.11,6.11,0,0,1,2.58,2.36,6.46,6.46,0,0,1,.88,3.34,6.27,6.27,0,0,1-1.14,3.78,7.05,7.05,0,0,1-3.35,2.41l.27-.91a7.91,7.91,0,0,1,4,2.62,6.84,6.84,0,0,1,1.42,4.34,6.82,6.82,0,0,1-3.93,6.36,10.1,10.1,0,0,1-4.62,1Z"/><path class="cls-5" d="M264.19,667.86a13.12,13.12,0,0,1-5.23-1,12.55,12.55,0,0,1-4.19-2.88,13.13,13.13,0,0,1-2.76-4.32,14.75,14.75,0,0,1,0-10.52,12.92,12.92,0,0,1,2.74-4.28,12.74,12.74,0,0,1,4.16-2.85,13.09,13.09,0,0,1,14.7,3l-1.9,1.9a9.51,9.51,0,0,0-3.3-2.38,10.62,10.62,0,0,0-4.33-.85,10.13,10.13,0,0,0-4.05.79,9.75,9.75,0,0,0-3.23,2.27,9.88,9.88,0,0,0-2.13,3.42,12,12,0,0,0-.74,4.27,11.72,11.72,0,0,0,.76,4.29,10.5,10.5,0,0,0,2.13,3.44,9.39,9.39,0,0,0,3.23,2.26,10,10,0,0,0,4.06.8,10.9,10.9,0,0,0,4.47-.87,9.67,9.67,0,0,0,3.32-2.4l1.9,1.94a12.77,12.77,0,0,1-4.18,2.95A13.23,13.23,0,0,1,264.19,667.86Z"/><path class="cls-5" d="M285.43,667.86a9,9,0,0,1-4.69-1.25,9.38,9.38,0,0,1-3.35-3.39,9.29,9.29,0,0,1-1.23-4.75,9,9,0,0,1,1.23-4.67,9.27,9.27,0,0,1,3.35-3.32,9,9,0,0,1,4.69-1.24,9.18,9.18,0,0,1,4.71,1.22,9.11,9.11,0,0,1,4.56,8,9.26,9.26,0,0,1-1.23,4.77,9.43,9.43,0,0,1-3.33,3.37A9,9,0,0,1,285.43,667.86Zm0-2.58a6.33,6.33,0,0,0,3.36-.88,6.24,6.24,0,0,0,2.32-2.43,7.15,7.15,0,0,0,.86-3.5,6.86,6.86,0,0,0-.86-3.44,6.33,6.33,0,0,0-5.68-3.24,6.47,6.47,0,0,0-3.34.87,6.21,6.21,0,0,0-2.32,2.37,7,7,0,0,0-.84,3.44,7.24,7.24,0,0,0,.84,3.52,6.11,6.11,0,0,0,2.32,2.41A6.39,6.39,0,0,0,285.43,665.28Z"/><path class="cls-5" d="M298.92,667.48V649.62h2.66v17.86Zm13,0V657a5.31,5.31,0,0,0-1.39-3.82,4.83,4.83,0,0,0-3.67-1.46,5.37,5.37,0,0,0-2.73.68,5,5,0,0,0-1.86,1.87,5.2,5.2,0,0,0-.69,2.69l-1.21-.68a6.88,6.88,0,0,1,3.51-6.12,7.39,7.39,0,0,1,3.71-.91,6.79,6.79,0,0,1,6.13,3.65,7.56,7.56,0,0,1,.9,3.65v10.94Z"/><path class="cls-5" d="M325.07,667.86a9.49,9.49,0,0,1-2.78-.4,8.73,8.73,0,0,1-2.41-1.12,8.3,8.3,0,0,1-1.88-1.71l1.71-1.75a6.92,6.92,0,0,0,2.41,1.92,7.07,7.07,0,0,0,3,.63,4.88,4.88,0,0,0,2.79-.69,2.15,2.15,0,0,0,1-1.9,2.26,2.26,0,0,0-.72-1.78,5.42,5.42,0,0,0-1.84-1c-.75-.25-1.54-.5-2.38-.74a14.92,14.92,0,0,1-2.39-.91,4.8,4.8,0,0,1-1.85-1.54,4.35,4.35,0,0,1-.7-2.58,4.73,4.73,0,0,1,.74-2.65,4.93,4.93,0,0,1,2.13-1.74,7.91,7.91,0,0,1,3.29-.63,9,9,0,0,1,3.65.72,6.17,6.17,0,0,1,2.62,2.13l-1.71,1.71a5.35,5.35,0,0,0-2-1.58,6.45,6.45,0,0,0-2.68-.55,4.27,4.27,0,0,0-2.6.67,2,2,0,0,0-.89,1.73,2,2,0,0,0,.72,1.61,5.59,5.59,0,0,0,1.84,1c.75.24,1.54.48,2.38.72a13.37,13.37,0,0,1,2.39.95,5.14,5.14,0,0,1,1.85,1.6,5.28,5.28,0,0,1-1,6.54A7.15,7.15,0,0,1,325.07,667.86Z"/><path class="cls-5" d="M342.77,667.86a7.5,7.5,0,0,1-3.87-1,7.15,7.15,0,0,1-2.68-2.75,8.3,8.3,0,0,1-1-4.11V649.62H338v10.26a6.37,6.37,0,0,0,.59,2.85,4.45,4.45,0,0,0,1.69,1.9,4.66,4.66,0,0,0,2.54.68,4.51,4.51,0,0,0,3.56-1.48,5.76,5.76,0,0,0,1.31-4V649.62h2.66V660a8.65,8.65,0,0,1-.95,4.11,6.89,6.89,0,0,1-2.66,2.77A7.69,7.69,0,0,1,342.77,667.86Z"/><path class="cls-5" d="M355.28,667.48v-26.9h2.66v26.9Z"/><path class="cls-5" d="M361.58,652v-2.39h11.67V652Zm4.53,15.47V642.1h2.65v25.38Z"/><path class="cls-5" d="M378.23,645.74a1.74,1.74,0,0,1-1.3-.55,1.91,1.91,0,0,1,0-2.64,1.8,1.8,0,0,1,1.3-.53,1.83,1.83,0,0,1,1.35.53,2,2,0,0,1,0,2.64A1.77,1.77,0,0,1,378.23,645.74Zm-1.33,21.74V649.62h2.69v17.86Z"/><path class="cls-5" d="M385,667.48V649.62h2.66v17.86Zm13,0V657a5.36,5.36,0,0,0-1.39-3.82,4.85,4.85,0,0,0-3.67-1.46,5.37,5.37,0,0,0-2.73.68,5.08,5.08,0,0,0-1.87,1.87,5.3,5.3,0,0,0-.68,2.69l-1.22-.68a6.87,6.87,0,0,1,3.52-6.12,7.38,7.38,0,0,1,3.7-.91,6.79,6.79,0,0,1,6.14,3.65,7.55,7.55,0,0,1,.89,3.65v10.94Z"/><path class="cls-5" d="M413.22,667.29a8.47,8.47,0,0,1-7.56-4.41,9.37,9.37,0,0,1-1.14-4.63,9.49,9.49,0,0,1,1.12-4.62,8.32,8.32,0,0,1,3.1-3.21,9.05,9.05,0,0,1,8.19-.38,6.65,6.65,0,0,1,2.66,2.26,7.47,7.47,0,0,1,1.23,3.44v5a7.31,7.31,0,0,1-1.25,3.4,6.92,6.92,0,0,1-2.66,2.28A8.07,8.07,0,0,1,413.22,667.29Zm-.19,8.09a11,11,0,0,1-4.8-1,8.65,8.65,0,0,1-3.4-2.83l1.74-1.75a7.26,7.26,0,0,0,2.7,2.24,8.69,8.69,0,0,0,3.84.8A7,7,0,0,0,418,671.2a5.7,5.7,0,0,0,1.8-4.44v-4.45l.53-4.06-.53-4v-4.6h2.66v17.14a8.49,8.49,0,0,1-1.18,4.52,8.05,8.05,0,0,1-3.28,3A10.69,10.69,0,0,1,413,675.38Zm.69-10.64A6.44,6.44,0,0,0,417,664a5.67,5.67,0,0,0,2.16-2.26,7.24,7.24,0,0,0,.78-3.44,7,7,0,0,0-.78-3.39,5.9,5.9,0,0,0-2.18-2.28,6.36,6.36,0,0,0-3.27-.83,6.62,6.62,0,0,0-3.32.83,6,6,0,0,0-2.28,2.28,6.73,6.73,0,0,0-.82,3.39,6.85,6.85,0,0,0,.83,3.38,6,6,0,0,0,2.29,2.3A6.69,6.69,0,0,0,413.72,664.74Z"/><path class="cls-5" d="M436,667.48v-26.9h2.66V654l-.53,4.29.53,4.41v4.79Zm9.23.38a7.89,7.89,0,0,1-3.68-.84,7.18,7.18,0,0,1-4-5.7v-5.58a7.22,7.22,0,0,1,1.3-3.44,7,7,0,0,1,2.71-2.26,8.62,8.62,0,0,1,8.08.44,8.91,8.91,0,0,1,3.13,3.34,10.34,10.34,0,0,1,0,9.48,8.76,8.76,0,0,1-3.13,3.32A8.27,8.27,0,0,1,445.18,667.86Zm-.45-2.55a6.43,6.43,0,0,0,3.34-.85,6,6,0,0,0,2.26-2.39,8,8,0,0,0,0-7.05,6.08,6.08,0,0,0-2.26-2.4,6.29,6.29,0,0,0-3.31-.87,6.16,6.16,0,0,0-3.28.87,6.08,6.08,0,0,0-2.23,2.4,8.26,8.26,0,0,0,0,7.05,6,6,0,0,0,2.21,2.39A6.13,6.13,0,0,0,444.73,665.31Z"/><path class="cls-5" d="M466.42,667.86a9.54,9.54,0,0,1-4.82-1.22,9,9,0,0,1-3.37-3.34,9.9,9.9,0,0,1,0-9.52,9,9,0,0,1,3.31-3.32,9.13,9.13,0,0,1,4.68-1.22,8.42,8.42,0,0,1,4.31,1.1,8,8,0,0,1,3,3.06,9.19,9.19,0,0,1,1.08,4.5c0,.21,0,.44,0,.71s-.08.57-.15.93H458.9v-2.28h14l-.95.83a7.36,7.36,0,0,0-.66-3.4,5.13,5.13,0,0,0-2-2.2,6.08,6.08,0,0,0-3.17-.78,6.6,6.6,0,0,0-3.38.84,5.76,5.76,0,0,0-2.26,2.33,7.29,7.29,0,0,0-.82,3.56,7.41,7.41,0,0,0,.85,3.61,6.1,6.1,0,0,0,2.4,2.43,7.07,7.07,0,0,0,3.55.87,7.37,7.37,0,0,0,3-.59,5.91,5.91,0,0,0,2.32-1.76l1.71,1.74a8.48,8.48,0,0,1-3.1,2.3A9.57,9.57,0,0,1,466.42,667.86Z"/><path class="cls-5" d="M478.62,667.48v-26.9h2.66v26.9Z"/><path class="cls-5" d="M488,645.74a1.74,1.74,0,0,1-1.3-.55,1.91,1.91,0,0,1,0-2.64A1.8,1.8,0,0,1,488,642a1.83,1.83,0,0,1,1.35.53,2,2,0,0,1,0,2.64A1.77,1.77,0,0,1,488,645.74Zm-1.33,21.74V649.62h2.7v17.86Z"/><path class="cls-5" d="M503,667.86a9.58,9.58,0,0,1-4.83-1.22,8.9,8.9,0,0,1-3.36-3.34,9.83,9.83,0,0,1,0-9.52,8.91,8.91,0,0,1,3.3-3.32,9.18,9.18,0,0,1,4.68-1.22,8.4,8.4,0,0,1,4.31,1.1,8,8,0,0,1,3,3.06,9.19,9.19,0,0,1,1.08,4.5c0,.21,0,.44,0,.71s-.08.57-.15.93H495.49v-2.28h14l-.95.83a7.23,7.23,0,0,0-.66-3.4,5.13,5.13,0,0,0-2-2.2,6.08,6.08,0,0,0-3.17-.78,6.6,6.6,0,0,0-3.38.84,5.83,5.83,0,0,0-2.26,2.33,7.29,7.29,0,0,0-.82,3.56,7.41,7.41,0,0,0,.86,3.61,6.07,6.07,0,0,0,2.39,2.43,7.1,7.1,0,0,0,3.55.87,7.45,7.45,0,0,0,3-.59,6,6,0,0,0,2.31-1.76l1.71,1.74A8.36,8.36,0,0,1,507,667,9.63,9.63,0,0,1,503,667.86Z"/><path class="cls-5" d="M521.14,667.48l-8.24-17.86h3l6.95,15.62h-1.67l7-15.62H531l-8.32,17.86Z"/><path class="cls-5" d="M541.85,667.86a9.54,9.54,0,0,1-4.82-1.22,9,9,0,0,1-3.37-3.34,9.9,9.9,0,0,1,0-9.52,9,9,0,0,1,3.31-3.32,9.12,9.12,0,0,1,4.67-1.22,8.44,8.44,0,0,1,4.32,1.1,8,8,0,0,1,3,3.06,9.19,9.19,0,0,1,1.08,4.5c0,.21,0,.44,0,.71a9.12,9.12,0,0,1-.16.93H534.33v-2.28h14l-1,.83a7.36,7.36,0,0,0-.66-3.4,5.13,5.13,0,0,0-2-2.2,6.08,6.08,0,0,0-3.17-.78,6.6,6.6,0,0,0-3.38.84,5.76,5.76,0,0,0-2.26,2.33,7.29,7.29,0,0,0-.82,3.56,7.41,7.41,0,0,0,.85,3.61,6.1,6.1,0,0,0,2.4,2.43,7.07,7.07,0,0,0,3.55.87,7.37,7.37,0,0,0,3-.59,6,6,0,0,0,2.32-1.76l1.71,1.74a8.48,8.48,0,0,1-3.1,2.3A9.6,9.6,0,0,1,541.85,667.86Z"/><path class="cls-5" d="M560.47,652v-2.39h11.67V652ZM565,667.48V642.1h2.66v25.38Z"/><path class="cls-5" d="M575.79,667.48v-26.9h2.66v26.9Zm13,0V657a5.31,5.31,0,0,0-1.39-3.82,4.81,4.81,0,0,0-3.66-1.46,5.43,5.43,0,0,0-2.74.68,5.13,5.13,0,0,0-1.86,1.87,5.2,5.2,0,0,0-.68,2.69l-1.22-.68a7,7,0,0,1,.95-3.61,6.88,6.88,0,0,1,2.57-2.51,7.35,7.35,0,0,1,3.7-.91,7.13,7.13,0,0,1,3.65.93,6.62,6.62,0,0,1,2.49,2.57,7.84,7.84,0,0,1,.89,3.8v10.94Z"/><path class="cls-5" d="M604.21,667.86a8.48,8.48,0,0,1-4.56-1.24,8.87,8.87,0,0,1-3.17-3.32,9.45,9.45,0,0,1-1.16-4.71,9.68,9.68,0,0,1,1.16-4.77,8.78,8.78,0,0,1,3.17-3.34,8.41,8.41,0,0,1,4.52-1.24,8,8,0,0,1,3.67.82,6.8,6.8,0,0,1,2.62,2.28,7.52,7.52,0,0,1,1.24,3.4v5.58a7.6,7.6,0,0,1-1.24,3.42,6.77,6.77,0,0,1-2.62,2.3A7.88,7.88,0,0,1,604.21,667.86Zm.42-2.55a5.74,5.74,0,0,0,4.46-1.86,7,7,0,0,0,1.69-4.9A7.73,7.73,0,0,0,610,655a5.79,5.79,0,0,0-2.16-2.4,6.08,6.08,0,0,0-3.25-.85,6.42,6.42,0,0,0-3.36.87,6.32,6.32,0,0,0-2.32,2.41,7.14,7.14,0,0,0-.86,3.52,7,7,0,0,0,.86,3.5,6.32,6.32,0,0,0,2.34,2.39A6.52,6.52,0,0,0,604.63,665.31Zm6,2.17v-4.79l.53-4.41-.53-4.29v-4.37h2.66v17.86Z"/><path class="cls-5" d="M616.79,652v-2.39h11.66V652Zm4.52,15.47V642.1H624v25.38Z"/><path class="cls-5" d="M95.53,713.46a7.51,7.51,0,0,1-3.88-1A7.22,7.22,0,0,1,89,709.7a8.41,8.41,0,0,1-1-4.11V695.22h2.7v10.26a6.5,6.5,0,0,0,.59,2.85,4.46,4.46,0,0,0,1.69,1.9,4.7,4.7,0,0,0,2.55.68,4.49,4.49,0,0,0,3.55-1.48,5.69,5.69,0,0,0,1.31-3.95V695.22h2.66v10.37a8.54,8.54,0,0,1-1,4.11,6.83,6.83,0,0,1-2.66,2.77A7.65,7.65,0,0,1,95.53,713.46Z"/><path class="cls-5" d="M108,713.08V695.22h2.66v17.86Zm13,0V702.59a5.36,5.36,0,0,0-1.39-3.82,4.85,4.85,0,0,0-3.67-1.46,5.37,5.37,0,0,0-2.73.68,5.08,5.08,0,0,0-1.87,1.87,5.3,5.3,0,0,0-.68,2.69l-1.22-.68a6.87,6.87,0,0,1,3.52-6.12,7.49,7.49,0,0,1,3.7-.91,6.79,6.79,0,0,1,6.14,3.65,7.55,7.55,0,0,1,.89,3.65v10.94Z"/><path class="cls-5" d="M130,691.34a1.7,1.7,0,0,1-1.29-.55,1.91,1.91,0,0,1,0-2.64,1.76,1.76,0,0,1,1.29-.53,1.8,1.8,0,0,1,1.35.53,2,2,0,0,1,0,2.64A1.74,1.74,0,0,1,130,691.34Zm-1.33,21.74V695.22h2.7v17.86Z"/><path class="cls-5" d="M144.55,713.46a8.49,8.49,0,0,1-4.52-1.23,9.13,9.13,0,0,1-3.2-3.33,9.46,9.46,0,0,1-1.17-4.71,9.69,9.69,0,0,1,1.17-4.77,9,9,0,0,1,3.18-3.34,8.32,8.32,0,0,1,4.5-1.24,8,8,0,0,1,3.67.82,7.09,7.09,0,0,1,2.64,2.28,7,7,0,0,1,1.21,3.4v5.58a7.48,7.48,0,0,1-1.23,3.42,6.86,6.86,0,0,1-2.6,2.3A7.85,7.85,0,0,1,144.55,713.46Zm.42-2.55a5.74,5.74,0,0,0,4.48-1.86,7.07,7.07,0,0,0,1.67-4.9,7.86,7.86,0,0,0-.76-3.55,5.72,5.72,0,0,0-2.16-2.4,6.18,6.18,0,0,0-3.27-.85,6.48,6.48,0,0,0-3.37.87,6.2,6.2,0,0,0-2.29,2.42,7.73,7.73,0,0,0,0,7,6.17,6.17,0,0,0,2.31,2.39A6.58,6.58,0,0,0,145,710.91Zm6,9.7V708.48l.53-4.37-.53-4.33v-4.56h2.7v25.39Z"/><path class="cls-5" d="M166.09,713.46a7.5,7.5,0,0,1-3.87-1,7.15,7.15,0,0,1-2.68-2.75,8.3,8.3,0,0,1-1-4.11V695.22h2.7v10.26a6.37,6.37,0,0,0,.59,2.85,4.4,4.4,0,0,0,1.69,1.9,4.66,4.66,0,0,0,2.54.68,4.51,4.51,0,0,0,3.56-1.48,5.74,5.74,0,0,0,1.31-3.95V695.22h2.66v10.37a8.65,8.65,0,0,1-1,4.11,6.89,6.89,0,0,1-2.66,2.77A7.69,7.69,0,0,1,166.09,713.46Z"/><path class="cls-5" d="M186.84,713.46a9.41,9.41,0,0,1-4.82-1.22,9,9,0,0,1-3.37-3.34,9.9,9.9,0,0,1,0-9.52,9,9,0,0,1,3.31-3.32,9.12,9.12,0,0,1,4.67-1.22,8.46,8.46,0,0,1,4.32,1.1,8,8,0,0,1,3,3.06,9.19,9.19,0,0,1,1.08,4.5c0,.21,0,.44,0,.71a9.12,9.12,0,0,1-.16.93H179.32v-2.28h14l-1,.84a7.37,7.37,0,0,0-.67-3.41,5.17,5.17,0,0,0-2-2.2,6.08,6.08,0,0,0-3.17-.78,6.66,6.66,0,0,0-3.39.84,5.89,5.89,0,0,0-2.26,2.33,8.16,8.16,0,0,0,0,7.17,6.1,6.1,0,0,0,2.4,2.43,7.07,7.07,0,0,0,3.55.87,7.37,7.37,0,0,0,3-.59,6,6,0,0,0,2.32-1.76l1.71,1.74a8.48,8.48,0,0,1-3.1,2.3A9.6,9.6,0,0,1,186.84,713.46Z"/><path class="cls-5" d="M208.54,691.34a1.7,1.7,0,0,1-1.29-.55,1.88,1.88,0,0,1,0-2.64,1.76,1.76,0,0,1,1.29-.53,1.8,1.8,0,0,1,1.35.53,2,2,0,0,1,0,2.64A1.74,1.74,0,0,1,208.54,691.34Zm-1.33,21.74V695.22h2.7v17.86Z"/><path class="cls-5" d="M215.3,713.08V695.22H218v17.86Zm13,0V702.59a5.31,5.31,0,0,0-1.39-3.82,4.83,4.83,0,0,0-3.67-1.46,5.39,5.39,0,0,0-2.73.68,5,5,0,0,0-1.86,1.87,5.2,5.2,0,0,0-.69,2.69l-1.21-.68a6.88,6.88,0,0,1,3.51-6.12,7.5,7.5,0,0,1,3.71-.91,6.79,6.79,0,0,1,6.13,3.65,7.56,7.56,0,0,1,.9,3.65v10.94Z"/><path class="cls-5" d="M236,713.08V695.22h2.66v17.86Zm13,0V702.59a5.31,5.31,0,0,0-1.39-3.82,4.81,4.81,0,0,0-3.66-1.46,5.43,5.43,0,0,0-2.74.68,5.06,5.06,0,0,0-1.86,1.87,5.2,5.2,0,0,0-.69,2.69l-1.21-.68a6.86,6.86,0,0,1,1-3.61,6.93,6.93,0,0,1,2.56-2.51,7.5,7.5,0,0,1,3.71-.91,6.79,6.79,0,0,1,3.65,1,6.93,6.93,0,0,1,2.49,2.66,7.67,7.67,0,0,1,.89,3.65v10.94Z"/><path class="cls-5" d="M264.74,713.46a9,9,0,0,1-4.69-1.25,9.38,9.38,0,0,1-3.35-3.39,9.29,9.29,0,0,1-1.23-4.75,9,9,0,0,1,1.23-4.67,9.27,9.27,0,0,1,3.35-3.32,9,9,0,0,1,4.69-1.24,9.36,9.36,0,0,1,8,14,9.43,9.43,0,0,1-3.33,3.37A9,9,0,0,1,264.74,713.46Zm0-2.58a6.33,6.33,0,0,0,3.36-.88,6.24,6.24,0,0,0,2.32-2.43,7.15,7.15,0,0,0,.86-3.5,6.8,6.8,0,0,0-.86-3.43,6.67,6.67,0,0,0-9-2.38,6.17,6.17,0,0,0-2.32,2.38,6.89,6.89,0,0,0-.84,3.43,7.24,7.24,0,0,0,.84,3.52A6,6,0,0,0,261.4,710,6.36,6.36,0,0,0,264.74,710.88Z"/><path class="cls-5" d="M283.7,713.08l-8.24-17.86h3l6.95,15.62H283.7l7-15.62h2.89l-8.32,17.86Z"/><path class="cls-5" d="M303.92,713.46a8.56,8.56,0,0,1-4.56-1.23,9,9,0,0,1-3.17-3.33,9.45,9.45,0,0,1-1.16-4.71,9.68,9.68,0,0,1,1.16-4.77,8.78,8.78,0,0,1,3.17-3.34,8.41,8.41,0,0,1,4.52-1.24,8,8,0,0,1,3.67.82,6.87,6.87,0,0,1,2.62,2.28,7.4,7.4,0,0,1,1.23,3.4v5.58a7.48,7.48,0,0,1-1.23,3.42,6.84,6.84,0,0,1-2.62,2.3A7.88,7.88,0,0,1,303.92,713.46Zm.42-2.55a5.74,5.74,0,0,0,4.46-1.86,7,7,0,0,0,1.69-4.9,7.73,7.73,0,0,0-.78-3.55,5.86,5.86,0,0,0-2.16-2.4,6.08,6.08,0,0,0-3.25-.85,6.42,6.42,0,0,0-3.36.87,6.35,6.35,0,0,0-2.32,2.42,7.57,7.57,0,0,0,0,7A6.37,6.37,0,0,0,301,710,6.58,6.58,0,0,0,304.34,710.91Zm6,2.17v-4.79l.53-4.41-.53-4.29v-4.37H313v17.86Z"/><path class="cls-5" d="M316.5,697.61v-2.39h11.66v2.39ZM321,713.08V687.7h2.66v25.38Z"/><path class="cls-5" d="M333.14,691.34a1.7,1.7,0,0,1-1.29-.55,1.91,1.91,0,0,1,0-2.64,1.76,1.76,0,0,1,1.29-.53,1.8,1.8,0,0,1,1.35.53,2,2,0,0,1,0,2.64A1.74,1.74,0,0,1,333.14,691.34Zm-1.33,21.74V695.22h2.7v17.86Z"/><path class="cls-5" d="M348,713.46a9.08,9.08,0,0,1-4.7-1.25,9.32,9.32,0,0,1-4.57-8.14A9,9,0,0,1,340,699.4a9.24,9.24,0,0,1,3.34-3.32,9.07,9.07,0,0,1,4.7-1.24,9.36,9.36,0,0,1,8,14,9.51,9.51,0,0,1-3.33,3.37A9,9,0,0,1,348,713.46Zm0-2.58a6.38,6.38,0,0,0,3.36-.88,6.24,6.24,0,0,0,2.32-2.43,7.14,7.14,0,0,0,.85-3.5,6.79,6.79,0,0,0-.85-3.43,6.39,6.39,0,0,0-2.32-2.38,6.9,6.9,0,0,0-6.71,0,6.21,6.21,0,0,0-2.31,2.38,6.89,6.89,0,0,0-.84,3.43,7.24,7.24,0,0,0,.84,3.52,6.09,6.09,0,0,0,2.31,2.41A6.42,6.42,0,0,0,348,710.88Z"/><path class="cls-5" d="M361.49,713.08V695.22h2.66v17.86Zm13,0V702.59a5.35,5.35,0,0,0-1.38-3.82,4.85,4.85,0,0,0-3.67-1.46,5.43,5.43,0,0,0-2.74.68,5.13,5.13,0,0,0-1.86,1.87,5.3,5.3,0,0,0-.68,2.69l-1.22-.68a7,7,0,0,1,.95-3.61,6.88,6.88,0,0,1,2.57-2.51,7.46,7.46,0,0,1,3.7-.91,6.77,6.77,0,0,1,3.65,1,6.93,6.93,0,0,1,2.49,2.66,7.67,7.67,0,0,1,.89,3.65v10.94Z"/><path class="cls-5" d="M387.63,713.46a9.42,9.42,0,0,1-2.77-.4,8.93,8.93,0,0,1-2.42-1.12,8.51,8.51,0,0,1-1.88-1.71l1.71-1.75a7,7,0,0,0,2.42,1.92,7,7,0,0,0,3,.63,4.88,4.88,0,0,0,2.79-.69,2.16,2.16,0,0,0,1-1.89,2.27,2.27,0,0,0-.72-1.79,5.47,5.47,0,0,0-1.85-1c-.74-.25-1.54-.5-2.37-.74a14.68,14.68,0,0,1-2.4-.91,4.77,4.77,0,0,1-1.84-1.54,4.35,4.35,0,0,1-.7-2.58,4.67,4.67,0,0,1,.74-2.64,4.84,4.84,0,0,1,2.13-1.75,7.87,7.87,0,0,1,3.28-.63,8.94,8.94,0,0,1,3.65.72,6.17,6.17,0,0,1,2.62,2.13l-1.71,1.71a5.32,5.32,0,0,0-2-1.58,6.45,6.45,0,0,0-2.68-.55,4.25,4.25,0,0,0-2.6.67,2.05,2.05,0,0,0-.9,1.73,2,2,0,0,0,.73,1.61,5.59,5.59,0,0,0,1.84,1q1.13.36,2.37.72a13.94,13.94,0,0,1,2.4.95,5.1,5.1,0,0,1,1.84,1.6,5.28,5.28,0,0,1-1,6.54A7.14,7.14,0,0,1,387.63,713.46Z"/><path class="cls-5" d="M414.19,713.46a8.61,8.61,0,0,1-4.56-1.23,9,9,0,0,1-3.17-3.33,9.56,9.56,0,0,1-1.16-4.71,9.79,9.79,0,0,1,1.16-4.77,8.78,8.78,0,0,1,3.17-3.34,8.45,8.45,0,0,1,4.53-1.24,7.92,7.92,0,0,1,3.66.82,6.8,6.8,0,0,1,2.62,2.28,7.3,7.3,0,0,1,1.24,3.4v5.58a7.37,7.37,0,0,1-1.24,3.42,6.77,6.77,0,0,1-2.62,2.3A7.82,7.82,0,0,1,414.19,713.46Zm.42-2.55a5.76,5.76,0,0,0,4.47-1.86,7,7,0,0,0,1.69-4.9,7.73,7.73,0,0,0-.78-3.55,5.81,5.81,0,0,0-2.17-2.4,6.06,6.06,0,0,0-3.25-.85,6.47,6.47,0,0,0-3.36.87,6.35,6.35,0,0,0-2.32,2.42,7.65,7.65,0,0,0,0,7,6.32,6.32,0,0,0,2.34,2.39A6.54,6.54,0,0,0,414.61,710.91Zm6,2.17v-4.79l.53-4.41-.53-4.29v-4.37h2.66v17.86Z"/><path class="cls-5" d="M428.67,713.08V695.22h2.66v17.86Zm2.66-10.41-1.1-.5a8.07,8.07,0,0,1,1.65-5.35,5.6,5.6,0,0,1,4.54-2,5.83,5.83,0,0,1,4.49,2l-1.75,1.86a3.86,3.86,0,0,0-1.43-1,4.85,4.85,0,0,0-1.76-.3,4.43,4.43,0,0,0-3.35,1.35A5.53,5.53,0,0,0,431.33,702.67Z"/><path class="cls-5" d="M451.36,713.46a9.48,9.48,0,0,1-4.83-1.22,8.9,8.9,0,0,1-3.36-3.34,9.83,9.83,0,0,1,0-9.52,9,9,0,0,1,3.3-3.32,9.18,9.18,0,0,1,4.68-1.22,8.4,8.4,0,0,1,4.31,1.1,8,8,0,0,1,3,3.06,9.19,9.19,0,0,1,1.08,4.5c0,.21,0,.44,0,.71s-.08.57-.15.93H443.83v-2.28h14l-1,.84a7.25,7.25,0,0,0-.66-3.41,5.13,5.13,0,0,0-2-2.2,6.08,6.08,0,0,0-3.17-.78,6.6,6.6,0,0,0-3.38.84,5.83,5.83,0,0,0-2.26,2.33,7.31,7.31,0,0,0-.82,3.56,7.41,7.41,0,0,0,.86,3.61,6.07,6.07,0,0,0,2.39,2.43,7.1,7.1,0,0,0,3.55.87,7.45,7.45,0,0,0,3-.59,6,6,0,0,0,2.31-1.76l1.71,1.74a8.36,8.36,0,0,1-3.09,2.3A9.63,9.63,0,0,1,451.36,713.46Z"/><path class="cls-5" d="M470,697.61v-2.39h11.66v2.39Zm4.52,15.47V687.7h2.66v25.38Z"/><path class="cls-5" d="M485.29,713.08v-26.9H488v26.9Zm13,0V702.59a5.36,5.36,0,0,0-1.39-3.82,4.85,4.85,0,0,0-3.67-1.46,5.37,5.37,0,0,0-2.73.68,5.08,5.08,0,0,0-1.87,1.87,5.3,5.3,0,0,0-.68,2.69l-1.22-.68a6.87,6.87,0,0,1,3.52-6.12,7.49,7.49,0,0,1,3.7-.91,7.1,7.1,0,0,1,3.65.93,6.48,6.48,0,0,1,2.49,2.57,7.73,7.73,0,0,1,.89,3.8v10.94Z"/><path class="cls-5" d="M514.21,713.46a9.48,9.48,0,0,1-4.83-1.22A8.9,8.9,0,0,1,506,708.9a9.83,9.83,0,0,1,0-9.52,8.94,8.94,0,0,1,3.31-3.32,9.12,9.12,0,0,1,4.67-1.22,8.4,8.4,0,0,1,4.31,1.1,7.94,7.94,0,0,1,3,3.06,9.19,9.19,0,0,1,1.08,4.5,6.32,6.32,0,0,1,0,.71,6.79,6.79,0,0,1-.15.93H506.68v-2.28h14l-1,.84a7.37,7.37,0,0,0-.67-3.41,5.17,5.17,0,0,0-2-2.2,6.14,6.14,0,0,0-3.18-.78,6.6,6.6,0,0,0-3.38.84,5.83,5.83,0,0,0-2.26,2.33,8.07,8.07,0,0,0,0,7.17,6.14,6.14,0,0,0,2.39,2.43,7.11,7.11,0,0,0,3.56.87,7.4,7.4,0,0,0,3-.59,6.05,6.05,0,0,0,2.32-1.76l1.71,1.74a8.48,8.48,0,0,1-3.1,2.3A9.6,9.6,0,0,1,514.21,713.46Z"/><path class="cls-5" d="M534.58,713.08V695.22h2.66v17.86Zm2.66-10.41-1.11-.5a8,8,0,0,1,1.66-5.35,5.59,5.59,0,0,1,4.54-2,6.06,6.06,0,0,1,2.43.48,5.94,5.94,0,0,1,2,1.5l-1.75,1.86a3.83,3.83,0,0,0-1.42-1,4.9,4.9,0,0,0-1.77-.3,4.41,4.41,0,0,0-3.34,1.35A5.53,5.53,0,0,0,537.24,702.67Z"/><path class="cls-5" d="M557.26,713.46a9.41,9.41,0,0,1-4.82-1.22,8.93,8.93,0,0,1-3.37-3.34,9.9,9.9,0,0,1,0-9.52,8.94,8.94,0,0,1,3.31-3.32,9.12,9.12,0,0,1,4.67-1.22,8.46,8.46,0,0,1,4.32,1.1,8,8,0,0,1,3,3.06,9.19,9.19,0,0,1,1.08,4.5c0,.21,0,.44,0,.71a9.12,9.12,0,0,1-.16.93H549.74v-2.28h14l-1,.84a7.37,7.37,0,0,0-.67-3.41,5.17,5.17,0,0,0-2-2.2,6.08,6.08,0,0,0-3.17-.78,6.66,6.66,0,0,0-3.39.84,5.89,5.89,0,0,0-2.26,2.33,8.16,8.16,0,0,0,0,7.17,6.1,6.1,0,0,0,2.4,2.43,7.07,7.07,0,0,0,3.55.87,7.37,7.37,0,0,0,3-.59,6,6,0,0,0,2.32-1.76l1.71,1.74a8.48,8.48,0,0,1-3.1,2.3A9.6,9.6,0,0,1,557.26,713.46Z"/><path class="cls-5" d="M574.93,713.46a9.42,9.42,0,0,1-2.77-.4,8.93,8.93,0,0,1-2.42-1.12,8.3,8.3,0,0,1-1.88-1.71l1.71-1.75A6.7,6.7,0,0,0,575,711a4.88,4.88,0,0,0,2.79-.69,2.16,2.16,0,0,0,1-1.89,2.24,2.24,0,0,0-.73-1.79,5.33,5.33,0,0,0-1.84-1c-.75-.25-1.54-.5-2.37-.74a14.68,14.68,0,0,1-2.4-.91,4.77,4.77,0,0,1-1.84-1.54,4.35,4.35,0,0,1-.7-2.58,4.6,4.6,0,0,1,.74-2.64,4.84,4.84,0,0,1,2.13-1.75,7.87,7.87,0,0,1,3.28-.63,8.94,8.94,0,0,1,3.65.72,6.17,6.17,0,0,1,2.62,2.13l-1.71,1.71a5.32,5.32,0,0,0-2-1.58,6.45,6.45,0,0,0-2.68-.55,4.25,4.25,0,0,0-2.6.67,2.05,2.05,0,0,0-.9,1.73,2,2,0,0,0,.73,1.61,5.59,5.59,0,0,0,1.84,1q1.13.36,2.37.72a13.94,13.94,0,0,1,2.4.95,5.1,5.1,0,0,1,1.84,1.6,5.28,5.28,0,0,1-1,6.54A7.14,7.14,0,0,1,574.93,713.46Z"/><path class="cls-5" d="M592.64,713.46a7.51,7.51,0,0,1-3.88-1,7.22,7.22,0,0,1-2.68-2.75,8.41,8.41,0,0,1-1-4.11V695.22h2.69v10.26a6.5,6.5,0,0,0,.59,2.85,4.46,4.46,0,0,0,1.69,1.9,4.72,4.72,0,0,0,2.55.68,4.49,4.49,0,0,0,3.55-1.48,5.69,5.69,0,0,0,1.31-3.95V695.22h2.66v10.37a8.54,8.54,0,0,1-.95,4.11,6.83,6.83,0,0,1-2.66,2.77A7.65,7.65,0,0,1,592.64,713.46Z"/><path class="cls-5" d="M605.14,713.08v-26.9h2.66v26.9Z"/><path class="cls-5" d="M611.45,697.61v-2.39h11.66v2.39ZM616,713.08V687.7h2.66v25.38Z"/><path class="cls-5" d="M643,713.46a9.08,9.08,0,0,1-4.7-1.25,9.36,9.36,0,0,1-4.58-8.14A9,9,0,0,1,635,699.4a9.24,9.24,0,0,1,3.34-3.32,9.07,9.07,0,0,1,4.7-1.24,9.24,9.24,0,0,1,4.71,1.22,9.47,9.47,0,0,1,3.32,12.78,9.41,9.41,0,0,1-3.32,3.37A9.06,9.06,0,0,1,643,713.46Zm0-2.58a6.38,6.38,0,0,0,3.36-.88,6.31,6.31,0,0,0,2.32-2.43,7.14,7.14,0,0,0,.85-3.5,6.79,6.79,0,0,0-.85-3.43,6.68,6.68,0,0,0-9-2.38,6.24,6.24,0,0,0-2.32,2.38,7,7,0,0,0-.83,3.43,7.35,7.35,0,0,0,.83,3.52,6.11,6.11,0,0,0,2.32,2.41A6.4,6.4,0,0,0,643,710.88Z"/><path class="cls-5" d="M654,697.61v-2.39h13.15v2.39Zm4.48,15.47v-20.9a6.58,6.58,0,0,1,.82-3.31,5.83,5.83,0,0,1,2.28-2.26,6.72,6.72,0,0,1,3.32-.81,6,6,0,0,1,2.55.51,6.92,6.92,0,0,1,2,1.43l-1.74,1.74a4.18,4.18,0,0,0-1.28-.89,3.85,3.85,0,0,0-1.54-.29,3.54,3.54,0,0,0-2.75,1.05,4.11,4.11,0,0,0-1,2.91v20.82Z"/><path class="cls-5" d="M104.59,759.06a8.48,8.48,0,0,1-4.56-1.24,8.87,8.87,0,0,1-3.17-3.32,9.45,9.45,0,0,1-1.16-4.71A9.68,9.68,0,0,1,96.86,745a8.78,8.78,0,0,1,3.17-3.34,8.41,8.41,0,0,1,4.52-1.24,8,8,0,0,1,3.67.82,6.8,6.8,0,0,1,2.62,2.28,7.52,7.52,0,0,1,1.24,3.4v5.58a7.6,7.6,0,0,1-1.24,3.42,6.77,6.77,0,0,1-2.62,2.3A7.88,7.88,0,0,1,104.59,759.06Zm.42-2.55a5.72,5.72,0,0,0,4.46-1.86,7,7,0,0,0,1.69-4.9,7.86,7.86,0,0,0-.77-3.55,5.88,5.88,0,0,0-2.17-2.4A6.08,6.08,0,0,0,105,743a6.42,6.42,0,0,0-3.36.87,6.28,6.28,0,0,0-2.32,2.42,7.57,7.57,0,0,0,0,7,6.32,6.32,0,0,0,2.34,2.39A6.52,6.52,0,0,0,105,756.51Zm6,2.17v-4.79l.53-4.41-.53-4.29v-4.37h2.66v17.86Z"/><path class="cls-5" d="M132.22,758.68l-6.88-17.86h2.77l5.44,14.82-1,0L138,740.82h1.56l5.4,14.86-1,0,5.4-14.82h2.81l-6.92,17.86h-1.56l-5.51-14.63h1.14l-5.47,14.63Z"/><path class="cls-5" d="M163.22,759.06a9.54,9.54,0,0,1-4.82-1.22A9,9,0,0,1,155,754.5a9.39,9.39,0,0,1-1.23-4.79A9.21,9.21,0,0,1,155,745a8.91,8.91,0,0,1,3.3-3.32,9.13,9.13,0,0,1,4.68-1.22,8.42,8.42,0,0,1,4.31,1.1,8,8,0,0,1,3,3.06,9.19,9.19,0,0,1,1.09,4.5c0,.21,0,.44,0,.71s-.08.57-.15.93H155.7v-2.28h14l-.95.83a7.23,7.23,0,0,0-.66-3.4,5.13,5.13,0,0,0-2-2.2,6.08,6.08,0,0,0-3.17-.78,6.6,6.6,0,0,0-3.38.84,5.76,5.76,0,0,0-2.26,2.33,7.29,7.29,0,0,0-.82,3.56,7.41,7.41,0,0,0,.85,3.61,6.1,6.1,0,0,0,2.4,2.43,7.07,7.07,0,0,0,3.55.87,7.37,7.37,0,0,0,3-.59,5.91,5.91,0,0,0,2.32-1.76l1.71,1.74a8.39,8.39,0,0,1-3.1,2.3A9.57,9.57,0,0,1,163.22,759.06Z"/><path class="cls-5" d="M175.42,758.68v-26.9h2.66v26.9Z"/><path class="cls-5" d="M183.48,758.68v-26.9h2.66v26.9Z"/><path class="cls-5" d="M191.53,750.32v-2.55h12.13v2.55Z"/><path class="cls-5" d="M217.75,759.06a9.51,9.51,0,0,1-4.82-1.22,9,9,0,0,1-3.37-3.34,9.9,9.9,0,0,1,0-9.52,8.94,8.94,0,0,1,3.31-3.32,9.12,9.12,0,0,1,4.67-1.22,8.44,8.44,0,0,1,4.32,1.1,8,8,0,0,1,3,3.06,9.19,9.19,0,0,1,1.08,4.5c0,.21,0,.44,0,.71a9.12,9.12,0,0,1-.16.93H210.23v-2.28h14l-.95.83a7.36,7.36,0,0,0-.66-3.4,5.13,5.13,0,0,0-2-2.2,6.08,6.08,0,0,0-3.17-.78,6.6,6.6,0,0,0-3.38.84,5.76,5.76,0,0,0-2.26,2.33,7.29,7.29,0,0,0-.82,3.56,7.41,7.41,0,0,0,.85,3.61,6.1,6.1,0,0,0,2.4,2.43,7.07,7.07,0,0,0,3.55.87,7.37,7.37,0,0,0,3-.59,6,6,0,0,0,2.32-1.76l1.71,1.74a8.48,8.48,0,0,1-3.1,2.3A9.6,9.6,0,0,1,217.75,759.06Z"/><path class="cls-5" d="M230,758.68V740.82h2.66v17.86Zm13,0V748.19a5.36,5.36,0,0,0-1.39-3.82,4.85,4.85,0,0,0-3.67-1.46,5.37,5.37,0,0,0-2.73.68,5.08,5.08,0,0,0-1.87,1.87,5.3,5.3,0,0,0-.68,2.69l-1.22-.68a6.87,6.87,0,0,1,3.52-6.12,7.38,7.38,0,0,1,3.7-.91,6.79,6.79,0,0,1,6.14,3.65,7.55,7.55,0,0,1,.89,3.65v10.94Z"/><path class="cls-5" d="M250.62,758.68v-26.9h2.66v26.9Zm13,0V748.19a5.31,5.31,0,0,0-1.39-3.82,4.83,4.83,0,0,0-3.67-1.46,5.39,5.39,0,0,0-2.73.68,5,5,0,0,0-1.86,1.87,5.2,5.2,0,0,0-.69,2.69l-1.21-.68a6.88,6.88,0,0,1,3.51-6.12,7.39,7.39,0,0,1,3.71-.91,7.09,7.09,0,0,1,3.64.93,6.48,6.48,0,0,1,2.49,2.57,7.74,7.74,0,0,1,.9,3.8v10.94Z"/><path class="cls-5" d="M279.05,759.06a8.48,8.48,0,0,1-4.56-1.24,8.82,8.82,0,0,1-3.18-3.32,9.56,9.56,0,0,1-1.16-4.71,9.79,9.79,0,0,1,1.16-4.77,8.73,8.73,0,0,1,3.18-3.34,8.41,8.41,0,0,1,4.52-1.24,7.89,7.89,0,0,1,3.66.82,6.83,6.83,0,0,1,2.63,2.28,7.4,7.4,0,0,1,1.23,3.4v5.58a7.48,7.48,0,0,1-1.23,3.42,6.8,6.8,0,0,1-2.63,2.3A7.81,7.81,0,0,1,279.05,759.06Zm.41-2.55a5.76,5.76,0,0,0,4.47-1.86,7,7,0,0,0,1.69-4.9,7.73,7.73,0,0,0-.78-3.55,5.81,5.81,0,0,0-2.17-2.4,6,6,0,0,0-3.24-.85,6.48,6.48,0,0,0-3.37.87,6.35,6.35,0,0,0-2.32,2.42,7.65,7.65,0,0,0,0,7,6.32,6.32,0,0,0,2.34,2.39A6.57,6.57,0,0,0,279.46,756.51Zm6,2.17v-4.79l.53-4.41-.53-4.29v-4.37h2.66v17.86Z"/><path class="cls-5" d="M293.52,758.68V740.82h2.66v17.86Zm13,0V748.19a5.31,5.31,0,0,0-1.39-3.82,4.82,4.82,0,0,0-3.67-1.46,5.39,5.39,0,0,0-2.73.68,5,5,0,0,0-1.86,1.87,5.2,5.2,0,0,0-.69,2.69l-1.21-.68a6.86,6.86,0,0,1,.95-3.61,6.93,6.93,0,0,1,2.56-2.51,7.39,7.39,0,0,1,3.71-.91,6.79,6.79,0,0,1,6.13,3.65,7.56,7.56,0,0,1,.9,3.65v10.94Z"/><path class="cls-5" d="M322.33,759.06a9.19,9.19,0,0,1-8.08-4.6,9.32,9.32,0,0,1-1.23-4.75,9.22,9.22,0,0,1,1.23-4.73,9,9,0,0,1,3.35-3.32,9.74,9.74,0,0,1,8.49-.46,8.48,8.48,0,0,1,3,2.13l-1.75,1.78a6,6,0,0,0-2.2-1.57,7,7,0,0,0-2.77-.55,6.52,6.52,0,0,0-3.38.87,6.17,6.17,0,0,0-2.32,2.38,7,7,0,0,0-.84,3.47,7.17,7.17,0,0,0,.84,3.48A6,6,0,0,0,319,755.6a6.43,6.43,0,0,0,3.38.88,7.22,7.22,0,0,0,2.81-.55,6.22,6.22,0,0,0,2.2-1.58l1.79,1.78a8.52,8.52,0,0,1-3,2.17A9.42,9.42,0,0,1,322.33,759.06Z"/><path class="cls-5" d="M340.76,759.06a9.58,9.58,0,0,1-4.83-1.22,8.9,8.9,0,0,1-3.36-3.34,9.83,9.83,0,0,1,0-9.52,8.86,8.86,0,0,1,3.31-3.32,9.12,9.12,0,0,1,4.67-1.22,8.4,8.4,0,0,1,4.31,1.1,8,8,0,0,1,3,3.06,9.19,9.19,0,0,1,1.08,4.5,6.32,6.32,0,0,1,0,.71,6.79,6.79,0,0,1-.15.93H333.23v-2.28h14l-.95.83a7.35,7.35,0,0,0-.67-3.4,5.17,5.17,0,0,0-2-2.2,6.14,6.14,0,0,0-3.18-.78,6.6,6.6,0,0,0-3.38.84,5.89,5.89,0,0,0-2.26,2.33,8.07,8.07,0,0,0,0,7.17,6.14,6.14,0,0,0,2.39,2.43,7.1,7.1,0,0,0,3.55.87,7.45,7.45,0,0,0,3-.59,6.05,6.05,0,0,0,2.32-1.76l1.71,1.74a8.48,8.48,0,0,1-3.1,2.3A9.6,9.6,0,0,1,340.76,759.06Z"/><path class="cls-5" d="M360.55,759.06a8.32,8.32,0,0,1-4.44-1.22,8.8,8.8,0,0,1-3.14-3.32,9.68,9.68,0,0,1-1.15-4.73A9.78,9.78,0,0,1,353,745a8.93,8.93,0,0,1,3.14-3.34,8.64,8.64,0,0,1,8.09-.44,7.26,7.26,0,0,1,2.72,2.26,6.71,6.71,0,0,1,1.27,3.44v5.58a7.15,7.15,0,0,1-1.27,3.41,7.34,7.34,0,0,1-2.68,2.29A8,8,0,0,1,360.55,759.06Zm.46-2.55a6.18,6.18,0,0,0,3.27-.85,5.91,5.91,0,0,0,2.2-2.39,7.45,7.45,0,0,0,.8-3.52,7.27,7.27,0,0,0-.82-3.53A6,6,0,0,0,361,743a6.26,6.26,0,0,0-3.3.87,6,6,0,0,0-2.26,2.42,7.94,7.94,0,0,0,0,7,5.9,5.9,0,0,0,2.28,2.39A6.43,6.43,0,0,0,361,756.51Zm8.78,2.17h-2.66v-4.79l.53-4.41-.53-4.29V731.78h2.66Z"/><path class="cls-5" d="M391.49,759.06a9.19,9.19,0,0,1-8.08-4.6,9.32,9.32,0,0,1-1.23-4.75,9.22,9.22,0,0,1,1.23-4.73,9,9,0,0,1,3.35-3.32,9.74,9.74,0,0,1,8.49-.46,8.48,8.48,0,0,1,3,2.13l-1.75,1.78a6,6,0,0,0-2.2-1.57,7,7,0,0,0-2.77-.55,6.52,6.52,0,0,0-3.38.87,6.17,6.17,0,0,0-2.32,2.38,7,7,0,0,0-.84,3.47,7.17,7.17,0,0,0,.84,3.48,6,6,0,0,0,2.32,2.41,6.43,6.43,0,0,0,3.38.88,7.22,7.22,0,0,0,2.81-.55,6.22,6.22,0,0,0,2.2-1.58l1.79,1.78a8.52,8.52,0,0,1-3,2.17A9.42,9.42,0,0,1,391.49,759.06Z"/><path class="cls-5" d="M409.76,759.06a9.07,9.07,0,0,1-4.69-1.25,9.36,9.36,0,0,1-3.34-3.39,9.2,9.2,0,0,1-1.24-4.75,8.94,8.94,0,0,1,1.24-4.67,9.24,9.24,0,0,1,3.34-3.32,9.06,9.06,0,0,1,4.69-1.24,9.25,9.25,0,0,1,4.72,1.22,9.16,9.16,0,0,1,4.56,8,9.17,9.17,0,0,1-1.24,4.77,9.41,9.41,0,0,1-3.32,3.37A9.07,9.07,0,0,1,409.76,759.06Zm0-2.58a6.39,6.39,0,0,0,3.37-.88,6.31,6.31,0,0,0,2.32-2.43,7.14,7.14,0,0,0,.85-3.5,6.79,6.79,0,0,0-.85-3.43,6.68,6.68,0,0,0-9-2.38,6.24,6.24,0,0,0-2.32,2.38,6.89,6.89,0,0,0-.83,3.43,7.24,7.24,0,0,0,.83,3.52,6.11,6.11,0,0,0,2.32,2.41A6.39,6.39,0,0,0,409.76,756.48Z"/><path class="cls-5" d="M423.25,758.68V740.82h2.66v17.86Zm12.28,0V747.74a4.76,4.76,0,0,0-1.33-3.52,4.59,4.59,0,0,0-3.35-1.31,5.25,5.25,0,0,0-2.48.59,4.52,4.52,0,0,0-1.79,1.65,4.75,4.75,0,0,0-.67,2.55l-1.21-.5a6.82,6.82,0,0,1,.91-3.57,6.35,6.35,0,0,1,2.45-2.35,7.17,7.17,0,0,1,3.48-.84,6.86,6.86,0,0,1,3.4.84,6.2,6.2,0,0,1,2.39,2.35,7,7,0,0,1,.9,3.61v11.44Zm12.31,0V747.74a4.72,4.72,0,0,0-1.33-3.52,4.63,4.63,0,0,0-3.38-1.31,5.19,5.19,0,0,0-2.45.59,4.52,4.52,0,0,0-1.79,1.65,4.75,4.75,0,0,0-.66,2.55l-1.6-.5a7.42,7.42,0,0,1,1.08-3.57,6.69,6.69,0,0,1,2.55-2.35,7.28,7.28,0,0,1,3.48-.84,7.09,7.09,0,0,1,3.44.84,6.23,6.23,0,0,1,2.43,2.35,7.08,7.08,0,0,1,.89,3.61v11.44Z"/><path class="cls-5" d="M455.52,766.2V740.82h2.66v4.56l-.54,4.33.54,4.37V766.2Zm9.23-7.14a8,8,0,0,1-3.69-.84,7.34,7.34,0,0,1-2.68-2.29,7.26,7.26,0,0,1-1.27-3.41v-5.58a7.21,7.21,0,0,1,1.29-3.44,7.11,7.11,0,0,1,2.72-2.26,8.62,8.62,0,0,1,8.08.44,8.91,8.91,0,0,1,3.13,3.34,9.79,9.79,0,0,1,1.16,4.77,9.66,9.66,0,0,1-1.14,4.71,8.79,8.79,0,0,1-3.14,3.32A8.23,8.23,0,0,1,464.75,759.06Zm-.46-2.55a6.44,6.44,0,0,0,3.35-.85,6.05,6.05,0,0,0,2.26-2.39,8,8,0,0,0,0-7,6.15,6.15,0,0,0-2.26-2.4,6.29,6.29,0,0,0-3.31-.87,6.22,6.22,0,0,0-3.29.87,6.05,6.05,0,0,0-2.22,2.4,8.17,8.17,0,0,0,0,7,5.94,5.94,0,0,0,2.21,2.39A6.12,6.12,0,0,0,464.29,756.51Z"/><path class="cls-5" d="M485.5,759.06a8.48,8.48,0,0,1-4.56-1.24,8.89,8.89,0,0,1-3.18-3.32,9.55,9.55,0,0,1-1.15-4.71,9.78,9.78,0,0,1,1.15-4.77,8.8,8.8,0,0,1,3.18-3.34,8.41,8.41,0,0,1,4.52-1.24,8,8,0,0,1,3.67.82,6.87,6.87,0,0,1,2.62,2.28,7.4,7.4,0,0,1,1.23,3.4v5.58a7.48,7.48,0,0,1-1.23,3.42,6.84,6.84,0,0,1-2.62,2.3A7.88,7.88,0,0,1,485.5,759.06Zm.42-2.55a5.75,5.75,0,0,0,4.46-1.86,7,7,0,0,0,1.69-4.9,7.73,7.73,0,0,0-.78-3.55,5.86,5.86,0,0,0-2.16-2.4,6.08,6.08,0,0,0-3.25-.85,6.48,6.48,0,0,0-3.37.87,6.33,6.33,0,0,0-2.31,2.42,7.57,7.57,0,0,0,0,7,6.37,6.37,0,0,0,2.33,2.39A6.58,6.58,0,0,0,485.92,756.51Zm6,2.17v-4.79l.53-4.41-.53-4.29v-4.37h2.66v17.86Z"/><path class="cls-5" d="M500,758.68V740.82h2.65v17.86Zm13,0V748.19a5.31,5.31,0,0,0-1.39-3.82,4.81,4.81,0,0,0-3.66-1.46,5.43,5.43,0,0,0-2.74.68,5.13,5.13,0,0,0-1.86,1.87,5.2,5.2,0,0,0-.69,2.69l-1.21-.68a6.88,6.88,0,0,1,3.51-6.12,7.42,7.42,0,0,1,3.71-.91,6.79,6.79,0,0,1,3.65,1,6.93,6.93,0,0,1,2.49,2.66,7.67,7.67,0,0,1,.89,3.65v10.94Z"/><path class="cls-5" d="M526.61,758.76l-7.82-17.94h2.92l6.31,15h-1.1l6.65-15h3l-8.4,17.94Zm-4.86,7.44,4.9-10.14,1.48,2.7-3.45,7.44Z"/><path class="cls-5" d="M556.33,759.06a9.19,9.19,0,0,1-8.08-4.6,9.32,9.32,0,0,1-1.23-4.75,9.22,9.22,0,0,1,1.23-4.73,9,9,0,0,1,3.35-3.32,9.74,9.74,0,0,1,8.49-.46,8.39,8.39,0,0,1,3,2.13l-1.74,1.78a6.11,6.11,0,0,0-2.21-1.57,6.92,6.92,0,0,0-2.77-.55,6.54,6.54,0,0,0-3.38.87,6.24,6.24,0,0,0-2.32,2.38,7,7,0,0,0-.84,3.47,7.17,7.17,0,0,0,.84,3.48A6.11,6.11,0,0,0,553,755.6a6.45,6.45,0,0,0,3.38.88,7.22,7.22,0,0,0,2.81-.55,6.26,6.26,0,0,0,2.21-1.58l1.78,1.78a8.52,8.52,0,0,1-3,2.17A9.42,9.42,0,0,1,556.33,759.06Z"/><path class="cls-5" d="M573.92,759.06a7.5,7.5,0,0,1-3.87-1,7.15,7.15,0,0,1-2.68-2.75,8.3,8.3,0,0,1-1-4.11V740.82h2.7v10.26a6.37,6.37,0,0,0,.59,2.85,4.45,4.45,0,0,0,1.69,1.9,4.66,4.66,0,0,0,2.54.68,4.51,4.51,0,0,0,3.56-1.48,5.76,5.76,0,0,0,1.31-3.95V740.82h2.66v10.37a8.65,8.65,0,0,1-1,4.11,6.89,6.89,0,0,1-2.66,2.77A7.69,7.69,0,0,1,573.92,759.06Z"/><path class="cls-5" d="M586.42,758.68v-26.9h2.66v26.9Z"/><path class="cls-5" d="M592.73,743.21v-2.39H604.4v2.39Zm4.52,15.47V733.3h2.66v25.38Z"/><path class="cls-5" d="M615.11,759.06a7.5,7.5,0,0,1-3.87-1,7.22,7.22,0,0,1-2.68-2.75,8.3,8.3,0,0,1-1-4.11V740.82h2.7v10.26a6.37,6.37,0,0,0,.59,2.85,4.45,4.45,0,0,0,1.69,1.9,4.66,4.66,0,0,0,2.54.68,4.51,4.51,0,0,0,3.56-1.48,5.76,5.76,0,0,0,1.31-3.95V740.82h2.66v10.37a8.65,8.65,0,0,1-.95,4.11,6.89,6.89,0,0,1-2.66,2.77A7.69,7.69,0,0,1,615.11,759.06Z"/><path class="cls-5" d="M627.62,758.68V740.82h2.66v17.86Zm2.66-10.41-1.11-.5a8,8,0,0,1,1.66-5.35,5.59,5.59,0,0,1,4.54-2,6.06,6.06,0,0,1,2.43.48,5.85,5.85,0,0,1,2.05,1.5l-1.75,1.86a3.83,3.83,0,0,0-1.42-1,4.9,4.9,0,0,0-1.77-.3,4.41,4.41,0,0,0-3.34,1.35A5.53,5.53,0,0,0,630.28,748.27Z"/><path class="cls-5" d="M650.3,759.06a9.51,9.51,0,0,1-4.82-1.22,9,9,0,0,1-3.37-3.34,9.9,9.9,0,0,1,0-9.52,8.94,8.94,0,0,1,3.31-3.32,9.12,9.12,0,0,1,4.67-1.22,8.46,8.46,0,0,1,4.32,1.1,8,8,0,0,1,3,3.06,9.19,9.19,0,0,1,1.08,4.5c0,.21,0,.44,0,.71a9.12,9.12,0,0,1-.16.93H642.78v-2.28h14l-.95.83a7.23,7.23,0,0,0-.67-3.4,5.17,5.17,0,0,0-2-2.2,6.08,6.08,0,0,0-3.17-.78,6.6,6.6,0,0,0-3.38.84,5.85,5.85,0,0,0-2.27,2.33,8.16,8.16,0,0,0,0,7.17,6.1,6.1,0,0,0,2.4,2.43,7.07,7.07,0,0,0,3.55.87,7.37,7.37,0,0,0,3-.59,6,6,0,0,0,2.32-1.76l1.71,1.74a8.48,8.48,0,0,1-3.1,2.3A9.6,9.6,0,0,1,650.3,759.06Z"/><path class="cls-5" d="M198.11,804.66a8.56,8.56,0,0,1-4.56-1.23,9,9,0,0,1-3.17-3.33,9.45,9.45,0,0,1-1.16-4.71,9.68,9.68,0,0,1,1.16-4.77,8.78,8.78,0,0,1,3.17-3.34,8.41,8.41,0,0,1,4.52-1.24,8,8,0,0,1,3.67.82,6.87,6.87,0,0,1,2.62,2.28,7.4,7.4,0,0,1,1.23,3.4v5.58a7.48,7.48,0,0,1-1.23,3.42,6.84,6.84,0,0,1-2.62,2.3A7.88,7.88,0,0,1,198.11,804.66Zm.42-2.55a5.74,5.74,0,0,0,4.46-1.86,7,7,0,0,0,1.69-4.9,7.73,7.73,0,0,0-.78-3.55,5.86,5.86,0,0,0-2.16-2.4,6.08,6.08,0,0,0-3.25-.85,6.42,6.42,0,0,0-3.36.87,6.35,6.35,0,0,0-2.32,2.42,7.57,7.57,0,0,0,0,7,6.37,6.37,0,0,0,2.33,2.39A6.58,6.58,0,0,0,198.53,802.11Zm6,2.17v-4.79l.53-4.41-.53-4.29v-4.37h2.66v17.86Z"/><path class="cls-5" d="M212.59,804.28V786.42h2.66v17.86Zm13,0V793.79A5.35,5.35,0,0,0,224.2,790a4.85,4.85,0,0,0-3.67-1.46,5.34,5.34,0,0,0-2.74.69,5,5,0,0,0-1.86,1.86,5.2,5.2,0,0,0-.68,2.69l-1.22-.68a7,7,0,0,1,.95-3.61,6.88,6.88,0,0,1,2.57-2.51,7.46,7.46,0,0,1,3.7-.91,6.79,6.79,0,0,1,3.65,1,6.93,6.93,0,0,1,2.49,2.66,7.67,7.67,0,0,1,.89,3.65v10.94Z"/><path class="cls-5" d="M240.86,804.66a8.33,8.33,0,0,1-4.45-1.21,8.8,8.8,0,0,1-3.13-3.33,9.58,9.58,0,0,1-1.16-4.73,9.68,9.68,0,0,1,1.16-4.77,8.83,8.83,0,0,1,3.13-3.34,8.66,8.66,0,0,1,8.1-.44,7.23,7.23,0,0,1,2.71,2.26,6.81,6.81,0,0,1,1.28,3.44v5.58a7.18,7.18,0,0,1-4,5.7A7.92,7.92,0,0,1,240.86,804.66Zm.45-2.55a6.15,6.15,0,0,0,3.27-.85,6,6,0,0,0,2.21-2.39,7.57,7.57,0,0,0,.79-3.52,7.39,7.39,0,0,0-.81-3.53,6.29,6.29,0,0,0-2.23-2.4,6,6,0,0,0-3.26-.87,6.27,6.27,0,0,0-3.31.87,6.13,6.13,0,0,0-2.26,2.42,7.94,7.94,0,0,0,0,7,5.9,5.9,0,0,0,2.28,2.39A6.43,6.43,0,0,0,241.31,802.11Zm8.78,2.17h-2.66v-4.79l.53-4.41-.53-4.29V777.38h2.66Z"/><path class="cls-5" d="M271.41,804.66a8.56,8.56,0,0,1-4.56-1.23,9,9,0,0,1-3.17-3.33,9.45,9.45,0,0,1-1.16-4.71,9.68,9.68,0,0,1,1.16-4.77,8.78,8.78,0,0,1,3.17-3.34,8.41,8.41,0,0,1,4.52-1.24,8,8,0,0,1,3.67.82,6.8,6.8,0,0,1,2.62,2.28,7.52,7.52,0,0,1,1.24,3.4v5.58a7.6,7.6,0,0,1-1.24,3.42,6.77,6.77,0,0,1-2.62,2.3A7.88,7.88,0,0,1,271.41,804.66Zm.42-2.55a5.72,5.72,0,0,0,4.46-1.86,7,7,0,0,0,1.69-4.9,7.86,7.86,0,0,0-.77-3.55,5.88,5.88,0,0,0-2.17-2.4,6.08,6.08,0,0,0-3.25-.85,6.42,6.42,0,0,0-3.36.87,6.35,6.35,0,0,0-2.32,2.42,7.57,7.57,0,0,0,0,7,6.32,6.32,0,0,0,2.34,2.39A6.52,6.52,0,0,0,271.83,802.11Zm6,2.17v-4.79l.53-4.41-.53-4.29v-4.37h2.66v17.86Z"/><path class="cls-5" d="M301.62,804.09a8.44,8.44,0,0,1-7.56-4.41,10,10,0,0,1,0-9.25,8.36,8.36,0,0,1,3.09-3.21,9.05,9.05,0,0,1,8.19-.38A6.59,6.59,0,0,1,308,789.1a7.48,7.48,0,0,1,1.24,3.44v5.05A7.21,7.21,0,0,1,308,801a6.92,6.92,0,0,1-2.66,2.28A8,8,0,0,1,301.62,804.09Zm-.19,8.1a11.07,11.07,0,0,1-4.81-1,8.72,8.72,0,0,1-3.4-2.83L295,806.6a7.26,7.26,0,0,0,2.7,2.24,8.68,8.68,0,0,0,3.83.8,7,7,0,0,0,4.85-1.64,5.69,5.69,0,0,0,1.8-4.44v-4.45l.54-4.06-.54-4v-4.6h2.66v17.14a8.57,8.57,0,0,1-1.17,4.52,8.08,8.08,0,0,1-3.29,3A10.68,10.68,0,0,1,301.43,812.19Zm.68-10.65a6.41,6.41,0,0,0,3.25-.79,5.62,5.62,0,0,0,2.17-2.26,7.24,7.24,0,0,0,.78-3.44,7,7,0,0,0-.78-3.39,5.85,5.85,0,0,0-2.19-2.28,6.31,6.31,0,0,0-3.27-.83,6.62,6.62,0,0,0-3.32.83,6,6,0,0,0-2.28,2.28,7.32,7.32,0,0,0,0,6.77,6,6,0,0,0,2.28,2.3A6.72,6.72,0,0,0,302.11,801.54Z"/><path class="cls-5" d="M324.42,804.66a9.57,9.57,0,0,1-4.83-1.21,9,9,0,0,1-3.36-3.35,9.83,9.83,0,0,1,0-9.52,8.94,8.94,0,0,1,3.31-3.32,9.12,9.12,0,0,1,4.67-1.22,8.4,8.4,0,0,1,4.31,1.1,7.94,7.94,0,0,1,3,3.06,9.19,9.19,0,0,1,1.08,4.5,6.32,6.32,0,0,1,0,.71,6.79,6.79,0,0,1-.15.93H316.89v-2.28h14l-.95.84a7.37,7.37,0,0,0-.67-3.41,5.17,5.17,0,0,0-2-2.2,6.12,6.12,0,0,0-3.18-.78,6.62,6.62,0,0,0-3.38.84,5.89,5.89,0,0,0-2.26,2.33,8.07,8.07,0,0,0,0,7.17,6.14,6.14,0,0,0,2.39,2.43,7.11,7.11,0,0,0,3.56.87,7.4,7.4,0,0,0,3-.59,6.05,6.05,0,0,0,2.32-1.76l1.71,1.74a8.48,8.48,0,0,1-3.1,2.3A9.6,9.6,0,0,1,324.42,804.66Z"/><path class="cls-5" d="M336.62,804.28V786.42h2.66v17.86Zm13,0V793.79a5.31,5.31,0,0,0-1.39-3.82,4.81,4.81,0,0,0-3.66-1.46,5.34,5.34,0,0,0-2.74.69,5,5,0,0,0-1.86,1.86,5.2,5.2,0,0,0-.68,2.69l-1.22-.68a7,7,0,0,1,.95-3.61,6.88,6.88,0,0,1,2.57-2.51,7.46,7.46,0,0,1,3.7-.91,6.79,6.79,0,0,1,3.65,1,6.93,6.93,0,0,1,2.49,2.66,7.67,7.67,0,0,1,.89,3.65v10.94Z"/><path class="cls-5" d="M364.36,804.66a7.51,7.51,0,0,1-3.88-1,7.22,7.22,0,0,1-2.68-2.75,8.3,8.3,0,0,1-1-4.11V786.42h2.7v10.26a6.5,6.5,0,0,0,.59,2.85,4.4,4.4,0,0,0,1.69,1.9,4.68,4.68,0,0,0,2.55.68,4.49,4.49,0,0,0,3.55-1.48,5.74,5.74,0,0,0,1.31-4V786.42h2.66v10.37a8.65,8.65,0,0,1-.95,4.11,6.83,6.83,0,0,1-2.66,2.77A7.68,7.68,0,0,1,364.36,804.66Z"/><path class="cls-5" d="M378.19,782.54a1.7,1.7,0,0,1-1.29-.55,1.88,1.88,0,0,1,0-2.64,1.76,1.76,0,0,1,1.29-.53,1.82,1.82,0,0,1,1.35.53,2,2,0,0,1,0,2.64A1.76,1.76,0,0,1,378.19,782.54Zm-1.33,21.74V786.42h2.7v17.86Z"/><path class="cls-5" d="M385,804.28V786.42h2.66v17.86Zm13,0V793.79a5.36,5.36,0,0,0-1.39-3.82,4.85,4.85,0,0,0-3.67-1.46,5.27,5.27,0,0,0-2.73.69,5,5,0,0,0-1.87,1.86,5.3,5.3,0,0,0-.68,2.69l-1.21-.68a6.88,6.88,0,0,1,3.51-6.12,7.5,7.5,0,0,1,3.71-.91,6.79,6.79,0,0,1,6.13,3.65,7.56,7.56,0,0,1,.9,3.65v10.94Z"/><path class="cls-5" d="M413.87,804.66a9.57,9.57,0,0,1-4.83-1.21,9,9,0,0,1-3.36-3.35,9.9,9.9,0,0,1,0-9.52,8.94,8.94,0,0,1,3.31-3.32,9.12,9.12,0,0,1,4.67-1.22,8.4,8.4,0,0,1,4.31,1.1,7.94,7.94,0,0,1,3,3.06,9.19,9.19,0,0,1,1.08,4.5,6.32,6.32,0,0,1,0,.71,6.79,6.79,0,0,1-.15.93H406.35v-2.28h14l-.95.84a7.37,7.37,0,0,0-.67-3.41,5.17,5.17,0,0,0-2-2.2,6.11,6.11,0,0,0-3.17-.78,6.63,6.63,0,0,0-3.39.84,5.89,5.89,0,0,0-2.26,2.33,8.16,8.16,0,0,0,0,7.17,6.14,6.14,0,0,0,2.39,2.43,7.11,7.11,0,0,0,3.56.87,7.37,7.37,0,0,0,3-.59,6.05,6.05,0,0,0,2.32-1.76l1.71,1.74a8.48,8.48,0,0,1-3.1,2.3A9.6,9.6,0,0,1,413.87,804.66Z"/><path class="cls-5" d="M434.24,804.28v-26.9h2.66v13.41l-.53,4.29.53,4.41v4.79Zm9.23.38a7.89,7.89,0,0,1-3.68-.84,7.26,7.26,0,0,1-2.68-2.29,7.16,7.16,0,0,1-1.28-3.41v-5.58a7.12,7.12,0,0,1,1.3-3.44,7,7,0,0,1,2.71-2.26,8.62,8.62,0,0,1,8.08.44,8.91,8.91,0,0,1,3.13,3.34,9.79,9.79,0,0,1,1.16,4.77,9.66,9.66,0,0,1-1.14,4.71,8.86,8.86,0,0,1-3.13,3.33A8.35,8.35,0,0,1,443.47,804.66Zm-.45-2.55a6.43,6.43,0,0,0,3.34-.85,6,6,0,0,0,2.26-2.39,8,8,0,0,0,0-7,6.14,6.14,0,0,0-2.26-2.4,6.29,6.29,0,0,0-3.31-.87,6,6,0,0,0-5.51,3.27,8.26,8.26,0,0,0,0,7,6,6,0,0,0,2.21,2.39A6.13,6.13,0,0,0,443,802.11Z"/><path class="cls-5" d="M456.47,804.28V786.42h2.66v17.86Zm2.66-10.41-1.11-.5a8.08,8.08,0,0,1,1.66-5.35,5.59,5.59,0,0,1,4.54-2,5.79,5.79,0,0,1,4.48,2L467,789.88a3.94,3.94,0,0,0-1.43-1,4.9,4.9,0,0,0-1.77-.3,4.41,4.41,0,0,0-3.34,1.35A5.53,5.53,0,0,0,459.13,793.87Z"/><path class="cls-5" d="M478.66,804.66a8.56,8.56,0,0,1-4.56-1.23,9,9,0,0,1-3.18-3.33,9.55,9.55,0,0,1-1.15-4.71,9.78,9.78,0,0,1,1.15-4.77,8.8,8.8,0,0,1,3.18-3.34,8.41,8.41,0,0,1,4.52-1.24,8,8,0,0,1,3.67.82,6.87,6.87,0,0,1,2.62,2.28,7.4,7.4,0,0,1,1.23,3.4v5.58a7.48,7.48,0,0,1-1.23,3.42,6.84,6.84,0,0,1-2.62,2.3A7.88,7.88,0,0,1,478.66,804.66Zm.42-2.55a5.75,5.75,0,0,0,4.46-1.86,7,7,0,0,0,1.69-4.9,7.73,7.73,0,0,0-.78-3.55,5.86,5.86,0,0,0-2.16-2.4,6.08,6.08,0,0,0-3.25-.85,6.48,6.48,0,0,0-3.37.87,6.4,6.4,0,0,0-2.31,2.42,7.57,7.57,0,0,0,0,7,6.37,6.37,0,0,0,2.33,2.39A6.58,6.58,0,0,0,479.08,802.11Zm6,2.17v-4.79l.53-4.41-.53-4.29v-4.37h2.66v17.86Z"/><path class="cls-5" d="M493.14,804.28V786.42h2.65v17.86Zm13,0V793.79a5.31,5.31,0,0,0-1.39-3.82,4.81,4.81,0,0,0-3.66-1.46,5.34,5.34,0,0,0-2.74.69,5,5,0,0,0-1.86,1.86,5.2,5.2,0,0,0-.69,2.69l-1.21-.68a6.88,6.88,0,0,1,3.51-6.12,7.52,7.52,0,0,1,3.71-.91,6.79,6.79,0,0,1,3.65,1,6.93,6.93,0,0,1,2.49,2.66,7.67,7.67,0,0,1,.89,3.65v10.94Z"/><path class="cls-5" d="M521.41,804.66a8.33,8.33,0,0,1-4.45-1.21,8.8,8.8,0,0,1-3.13-3.33,9.58,9.58,0,0,1-1.16-4.73,9.68,9.68,0,0,1,1.16-4.77,8.83,8.83,0,0,1,3.13-3.34,8.64,8.64,0,0,1,8.09-.44,7.26,7.26,0,0,1,2.72,2.26,6.71,6.71,0,0,1,1.27,3.44v5.58a7.15,7.15,0,0,1-1.27,3.41,7.26,7.26,0,0,1-2.68,2.29A7.92,7.92,0,0,1,521.41,804.66Zm.45-2.55a6.18,6.18,0,0,0,3.27-.85,6,6,0,0,0,2.21-2.39,7.57,7.57,0,0,0,.79-3.52,7.39,7.39,0,0,0-.81-3.53,6.29,6.29,0,0,0-2.23-2.4,6,6,0,0,0-3.26-.87,6.27,6.27,0,0,0-3.31.87,6.13,6.13,0,0,0-2.26,2.42,7.94,7.94,0,0,0,0,7,5.9,5.9,0,0,0,2.28,2.39A6.43,6.43,0,0,0,521.86,802.11Zm8.78,2.17H528v-4.79l.53-4.41-.53-4.29V777.38h2.66Z"/><path class="cls-5" d="M538.85,804.66a2,2,0,0,1-1.56-.64,2.19,2.19,0,0,1-.61-1.56,2.11,2.11,0,0,1,.61-1.54,2.07,2.07,0,0,1,1.56-.63,2,2,0,0,1,1.52.63,2.15,2.15,0,0,1,.61,1.54,2.23,2.23,0,0,1-.61,1.56A2,2,0,0,1,538.85,804.66Z"/><path class="cls-5" d="M549.83,804.66a2.06,2.06,0,0,1-1.56-.64,2.23,2.23,0,0,1-.61-1.56,2.15,2.15,0,0,1,.61-1.54,2.09,2.09,0,0,1,1.56-.63,2,2,0,0,1,1.52.63,2.11,2.11,0,0,1,.61,1.54,2.19,2.19,0,0,1-.61,1.56A2,2,0,0,1,549.83,804.66Z"/><path class="cls-5" d="M560.81,804.66a2.06,2.06,0,0,1-1.56-.64,2.23,2.23,0,0,1-.6-1.56,2.14,2.14,0,0,1,.6-1.54,2.09,2.09,0,0,1,1.56-.63,2,2,0,0,1,1.52.63,2.11,2.11,0,0,1,.61,1.54,2.19,2.19,0,0,1-.61,1.56A2,2,0,0,1,560.81,804.66Z"/><path class="cls-2" d="M379.73,351.81A16.29,16.29,0,1,1,391.31,347,16.32,16.32,0,0,1,379.73,351.81Zm0-26.31a10,10,0,1,0,7.09,3A9.88,9.88,0,0,0,379.73,325.5Z"/><path class="cls-2" d="M380.56,373.77h-1.62a7.87,7.87,0,0,1-7.87-7.88v-5.65a1.56,1.56,0,0,0-1.58-1.57,1.62,1.62,0,0,0-1.11.46l-4,4a7.94,7.94,0,0,1-11.17,0L352.08,362a7.93,7.93,0,0,1,0-11.16l4-4a1.61,1.61,0,0,0,0-2.23,1.66,1.66,0,0,0-1.11-.46h-5.61a7.87,7.87,0,0,1-7.87-7.87v-1.63a7.87,7.87,0,0,1,7.87-7.87H355a1.57,1.57,0,0,0,1.58-1.58,1.77,1.77,0,0,0-.46-1.11l-4-4a7.93,7.93,0,0,1,0-11.16h0l1.16-1.16a7.89,7.89,0,0,1,11.16,0h0l4,4a1.59,1.59,0,0,0,2.22,0,1.62,1.62,0,0,0,.46-1.12v-5.51A7.87,7.87,0,0,1,379,297.2h1.62a7.87,7.87,0,0,1,7.87,7.87v5.65a1.57,1.57,0,0,0,1.58,1.58,1.69,1.69,0,0,0,1.11-.47l4-4a7.91,7.91,0,0,1,11.17,0h0l1.16,1.16a7.86,7.86,0,0,1,0,11.12h0l-4,4a1.59,1.59,0,0,0,0,2.22,1.62,1.62,0,0,0,1.11.46h5.66a7.94,7.94,0,0,1,7.92,7.88v1.62a7.91,7.91,0,0,1-7.92,7.87H404.6a1.56,1.56,0,0,0-1.57,1.58,1.62,1.62,0,0,0,.46,1.11l4,4a8,8,0,0,1,0,11.17l-1.16,1.16a8,8,0,0,1-11.17,0l-4-4a1.59,1.59,0,0,0-2.22,0,1.63,1.63,0,0,0-.47,1.11V366A7.91,7.91,0,0,1,380.56,373.77Zm-11.07-21.4a7.91,7.91,0,0,1,7.92,7.92v5.65a1.62,1.62,0,0,0,1.58,1.57h1.62a1.55,1.55,0,0,0,1.57-1.57h0v-5.7a7.87,7.87,0,0,1,13.44-5.56l4,4a1.61,1.61,0,0,0,2.23,0l1.15-1.16a1.59,1.59,0,0,0,0-2.23l-4-4a7.9,7.9,0,0,1,.05-11.16,7.77,7.77,0,0,1,5.56-2.27h5.65a1.62,1.62,0,0,0,1.57-1.58v-1.62a1.55,1.55,0,0,0-1.57-1.57h-5.65A7.9,7.9,0,0,1,399,319.66l4-4a1.55,1.55,0,0,0,0-2.18h0l-1.16-1.16a1.55,1.55,0,0,0-2.18,0h0l-4,4a7.9,7.9,0,0,1-13.48-5.56v-5.7a1.56,1.56,0,0,0-1.58-1.57h-1.62a1.61,1.61,0,0,0-1.57,1.57v5.65a7.9,7.9,0,0,1-7.88,7.88,8.06,8.06,0,0,1-5.56-2.27l-4-4a1.59,1.59,0,0,0-2.22,0h0l-1.16,1.16a1.61,1.61,0,0,0,0,2.23l4,4A7.9,7.9,0,0,1,355,333.19h-5.65a1.55,1.55,0,0,0-1.57,1.57h0v1.62a1.62,1.62,0,0,0,1.57,1.58H355a7.9,7.9,0,0,1,7.88,7.87,8,8,0,0,1-2.27,5.56l-4,4a1.59,1.59,0,0,0,0,2.22l1.16,1.16a1.61,1.61,0,0,0,2.23,0l4-4a7.42,7.42,0,0,1,5.51-2.4Z"/><path class="cls-2" d="M425.68,385.07a16.4,16.4,0,1,1,16.4-16.4A16.4,16.4,0,0,1,425.68,385.07Zm0-26.5a10.1,10.1,0,1,0,10.1,10.1,10.12,10.12,0,0,0-10.1-10.1Z"/><path class="cls-2" d="M400.81,484.2a10.09,10.09,0,0,1-10.1-10.1,9.55,9.55,0,0,1,.55-3.24L404,433.38a148.89,148.89,0,0,0-.32-18l-21.77-21.77a10.12,10.12,0,0,1,14.31-14.31l11.95,11.95a10.09,10.09,0,0,1,8-3.89h19.08a10.08,10.08,0,0,1,8,3.89l11.95-11.95a10.12,10.12,0,0,1,14.32,14.31h0l-21.78,21.77a159.79,159.79,0,0,0-.32,18l12.74,37.48A10.11,10.11,0,1,1,441,477.39L429.2,442.83h-7.13L410.3,477.39A10,10,0,0,1,400.81,484.2ZM389,382.66a3.82,3.82,0,0,0-3.8,3.8,4,4,0,0,0,1.11,2.69l22.38,22.37c.92.88,1.43,1.44,1.62,12.18.18,9.87-.23,11.07-.37,11.44l-12.83,37.71a3.79,3.79,0,1,0,7.18,2.45l12.46-36.68a3.09,3.09,0,0,1,3-2.13h11.67a3.25,3.25,0,0,1,3,2.13l12.46,36.68a3.79,3.79,0,1,0,7.18-2.45l-12.83-37.71c-.14-.41-.55-1.57-.37-11.44.19-10.74.74-11.3,1.62-12.18l22.38-22.37a3.82,3.82,0,0,0-5.42-5.38L444.26,399a3.17,3.17,0,0,1-4.5,0,3.3,3.3,0,0,1-.92-1.94,3.9,3.9,0,0,0-3.8-3.43H416a3.84,3.84,0,0,0-3.79,3.43,3.14,3.14,0,0,1-3.48,2.82,3.42,3.42,0,0,1-1.94-.92L391.5,383.73A2.94,2.94,0,0,0,389,382.66Z"/><path class="cls-2" d="M331.37,386.23a16.43,16.43,0,1,1,16.4-16.45h0A16.45,16.45,0,0,1,331.37,386.23Zm0-26.5a10.1,10.1,0,1,0,10.1,10.1h0A10.09,10.09,0,0,0,331.37,359.73Z"/><path class="cls-2" d="M356.24,485.36a10.13,10.13,0,0,1-9.58-6.86l-11.77-34.56h-7.13L316,478.5A10.11,10.11,0,0,1,296.86,472l12.74-37.48a147,147,0,0,0-.33-18L287.5,394.75a10.12,10.12,0,1,1,14.32-14.31l11.95,11.95a10.07,10.07,0,0,1,8-3.89h19.09a10.09,10.09,0,0,1,8,3.89l11.95-11.95a10.12,10.12,0,0,1,14.31,14.31h0l-21.77,21.77a157.46,157.46,0,0,0-.32,18L365.69,472a10.11,10.11,0,0,1-6.34,12.83A8.25,8.25,0,0,1,356.24,485.36ZM325.53,437.6h11.68a3.26,3.26,0,0,1,3,2.13l12.46,36.69a3.79,3.79,0,1,0,7.18-2.46L347,436.3c-.14-.42-.56-1.57-.37-11.44.18-10.75.74-11.3,1.62-12.18l22.37-22.38a3.8,3.8,0,0,0-5.37-5.37h0L350,400.17a3.17,3.17,0,0,1-4.5,0,3.3,3.3,0,0,1-.92-1.95,3.89,3.89,0,0,0-3.8-3.42H321.73a3.84,3.84,0,0,0-3.79,3.42,3.15,3.15,0,0,1-3.48,2.83,3,3,0,0,1-1.9-.93l-15.24-15.24a3.8,3.8,0,0,0-5.42,5.33l.05.05,22.37,22.37c.93.88,1.44,1.44,1.62,12.18.19,9.87-.23,11.07-.37,11.45L302.74,474a3.79,3.79,0,1,0,7.18,2.46l12.46-36.69A3.61,3.61,0,0,1,325.53,437.6Z"/></g></g></svg>