<svg xmlns="http://www.w3.org/2000/svg" xmlns:xlink="http://www.w3.org/1999/xlink" viewBox="0 0 793.4 912.48"><defs><style>.cls-1{isolation:isolate;}.cls-2{opacity:0.6;mix-blend-mode:multiply;fill:url(#radial-gradient);}.cls-3{fill:#00b39a;}.cls-4{fill:#fff;}.cls-5{fill:#231f20;}</style><radialGradient id="radial-gradient" cx="-5.3" cy="-6567.48" r="78.44" gradientTransform="translate(0 44336.41) scale(1 6.68)" gradientUnits="userSpaceOnUse"><stop offset="0" stop-color="#3e3e3e"/><stop offset="0.36" stop-color="#8f8f8f"/><stop offset="0.66" stop-color="#cbcbcb"/><stop offset="0.88" stop-color="#f1f1f1"/><stop offset="1" stop-color="#fff"/></radialGradient></defs><g class="cls-1"><g id="Layer_1" data-name="Layer 1"><ellipse class="cls-2" cx="-5.3" cy="455.87" rx="75" ry="526.55"/><polygon class="cls-3" points="-106.37 240.82 149.24 470.67 -106.37 700.51 -106.37 240.82"/><polygon class="cls-4" points="90.8 465.31 21.44 402.94 21.44 -224.34 -230.25 -224.34 -230.25 1165.68 21.44 1165.68 21.44 527.68 90.8 465.31"/><path class="cls-3" d="M93.54,83.89c0-12.3,6.54-18.84,18.84-18.84H127c12.29,0,18.83,6.54,18.83,18.84v67c0,12.29-6.54,18.83-18.83,18.83H112.38c-12.3,0-18.84-6.54-18.84-18.83Zm30.22,68.93c3.4,0,5.23-1.7,5.23-5.23V87.16c0-3.4-1.83-5.23-5.23-5.23h-7.59c-3.4,0-5.23,1.83-5.23,5.23v60.43c0,3.53,1.83,5.23,5.23,5.23Z"/><path class="cls-3" d="M221.07,122.34a2.35,2.35,0,0,1,2.62,2.62v11.25a2.35,2.35,0,0,1-2.62,2.61h-5.36v28.26a2.35,2.35,0,0,1-2.62,2.61H201.71a2.34,2.34,0,0,1-2.61-2.61V138.56H161.56a2.35,2.35,0,0,1-2.62-2.61V124.31a5.43,5.43,0,0,1,.92-3.14l33.61-54.42a3.3,3.3,0,0,1,3.14-1.7h13.73c2.1,0,2.88,1.31,1.71,3.14L179.21,122.6H199.1V106.91a2.35,2.35,0,0,1,2.61-2.62h11.38a2.35,2.35,0,0,1,2.62,2.62v15.43Z"/><path class="cls-3" d="M178.75,575.46v-56.7H189v56.7Z"/><path class="cls-3" d="M197.72,575.46v-56.7h16.66a16.14,16.14,0,0,1,8.3,1.89,11.24,11.24,0,0,1,4.69,5.5,22.65,22.65,0,0,1,1.5,8.71,18.33,18.33,0,0,1-1.89,8.93,11.24,11.24,0,0,1-5.28,4.93,19.26,19.26,0,0,1-8,1.54h-5.6v25.2ZM208.08,543H212a9.87,9.87,0,0,0,4.38-.8,4.33,4.33,0,0,0,2.17-2.59,15.87,15.87,0,0,0,.59-4.8,22.63,22.63,0,0,0-.45-5,4.33,4.33,0,0,0-2-2.84A9.53,9.53,0,0,0,212,526h-3.92Z"/><path class="cls-3" d="M250,576.23c-4,0-7.21-.74-9.59-2.24a12.38,12.38,0,0,1-5.11-6.44,29,29,0,0,1-1.54-9.94V536.4a28.14,28.14,0,0,1,1.54-9.83,12.1,12.1,0,0,1,5.11-6.27c2.38-1.44,5.58-2.17,9.59-2.17s7.34.73,9.7,2.17a12.34,12.34,0,0,1,5.11,6.27,27.43,27.43,0,0,1,1.57,9.83v21.28a27.83,27.83,0,0,1-1.57,9.84,12.88,12.88,0,0,1-5.11,6.44Q256.17,576.23,250,576.23Zm0-7.63a5.52,5.52,0,0,0,3.82-1.12,5.64,5.64,0,0,0,1.64-3.08,20.34,20.34,0,0,0,.42-4.27V534a19.8,19.8,0,0,0-.42-4.27,5.42,5.42,0,0,0-1.64-3,5.62,5.62,0,0,0-3.82-1.09,5.51,5.51,0,0,0-3.71,1.09,5.28,5.28,0,0,0-1.68,3,19.8,19.8,0,0,0-.42,4.27v26.11a21.85,21.85,0,0,0,.39,4.27,5.28,5.28,0,0,0,1.64,3.08A5.52,5.52,0,0,0,250,568.6Z"/><path class="cls-3" d="M291,575.46v-56.7h13.58a30,30,0,0,1,9.7,1.37,11.18,11.18,0,0,1,6,4.65c1.37,2.2,2.06,5.18,2.06,9a27.46,27.46,0,0,1-.63,6.16,11.83,11.83,0,0,1-2.13,4.66,9.72,9.72,0,0,1-4.17,3l7.91,27.93H313l-6.86-26h-4.76v26ZM301.39,543h3.22a11.07,11.07,0,0,0,4.8-.87,5.12,5.12,0,0,0,2.55-2.8,13.55,13.55,0,0,0,.77-4.94c0-2.84-.52-5-1.57-6.4s-3.05-2.14-6-2.14h-3.78Z"/><path class="cls-3" d="M330.3,575.46v-56.7h23.8V526H340.66v16.31h10.57v7.21H340.66v18.76h13.58v7.14Z"/><path class="cls-3" d="M357.39,575.46l11.34-56.7h11.06l11.34,56.7h-9.59l-2.24-13.09h-9.87l-2.31,13.09Zm13.09-19.67h7.7L374.33,532Z"/><path class="cls-3" d="M396.8,575.46v-56.7h13.37q6.93,0,10.81,1.89a11,11,0,0,1,5.53,5.81,25.83,25.83,0,0,1,1.65,9.94v20.72a27.63,27.63,0,0,1-1.65,10.26,11.41,11.41,0,0,1-5.46,6.09q-3.81,2-10.46,2Zm10.36-7.21h3.15q3.57,0,5.11-1.26a5.61,5.61,0,0,0,1.89-3.67,42.69,42.69,0,0,0,.35-5.92V535.7a25.65,25.65,0,0,0-.49-5.53,4.79,4.79,0,0,0-2-3.08,9.64,9.64,0,0,0-5-1h-3Z"/><path class="cls-3" d="M436.07,575.46v-56.7h10.22v56.7Z"/><path class="cls-3" d="M455,575.46v-56.7h7.21L476,551.1V518.76h8.54v56.7h-6.86l-13.86-33.88v33.88Z"/><path class="cls-3" d="M493.19,575.46v-56.7H517V526H503.55v16.31h10.57v7.21H503.55v18.76h13.58v7.14Z"/><path class="cls-3" d="M537.43,576.23a16.73,16.73,0,0,1-8.54-2,12.51,12.51,0,0,1-5.18-5.85,25,25,0,0,1-2-9.45l8.89-1.75a27.43,27.43,0,0,0,.8,5.81,8.4,8.4,0,0,0,2,3.89,4.87,4.87,0,0,0,3.61,1.36,4.05,4.05,0,0,0,3.57-1.5,6.55,6.55,0,0,0,1.05-3.82,10.33,10.33,0,0,0-1.68-6.09,26.78,26.78,0,0,0-4.48-4.76l-7.14-6.3a21.35,21.35,0,0,1-4.8-5.77,15.94,15.94,0,0,1-1.78-7.88q0-6.72,3.92-10.36t10.71-3.64a15.86,15.86,0,0,1,6.65,1.23,10.57,10.57,0,0,1,4.23,3.39,15.45,15.45,0,0,1,2.35,4.94,29.31,29.31,0,0,1,1,5.84l-8.82,1.54a31.31,31.31,0,0,0-.6-4.76,6.62,6.62,0,0,0-1.61-3.29,4.53,4.53,0,0,0-3.39-1.19,4.29,4.29,0,0,0-3.54,1.51,5.7,5.7,0,0,0-1.22,3.74,8.56,8.56,0,0,0,1.19,4.73,18.2,18.2,0,0,0,3.43,3.81l7.07,6.23a29.15,29.15,0,0,1,6,6.9,17.55,17.55,0,0,1,2.49,9.55,14.36,14.36,0,0,1-1.79,7.21,12.82,12.82,0,0,1-5,4.94A15,15,0,0,1,537.43,576.23Z"/><path class="cls-3" d="M571.17,576.23a16.73,16.73,0,0,1-8.54-2,12.51,12.51,0,0,1-5.18-5.85,25,25,0,0,1-2-9.45l8.89-1.75a27.43,27.43,0,0,0,.8,5.81,8.4,8.4,0,0,0,2,3.89,4.87,4.87,0,0,0,3.61,1.36,4.05,4.05,0,0,0,3.57-1.5,6.55,6.55,0,0,0,1.05-3.82,10.33,10.33,0,0,0-1.68-6.09,26.78,26.78,0,0,0-4.48-4.76l-7.14-6.3a21.35,21.35,0,0,1-4.8-5.77,15.94,15.94,0,0,1-1.78-7.88q0-6.72,3.92-10.36t10.71-3.64a15.86,15.86,0,0,1,6.65,1.23,10.57,10.57,0,0,1,4.23,3.39,15.45,15.45,0,0,1,2.35,4.94,29.31,29.31,0,0,1,1,5.84l-8.82,1.54a31.31,31.31,0,0,0-.6-4.76,6.62,6.62,0,0,0-1.61-3.29,4.53,4.53,0,0,0-3.39-1.19,4.29,4.29,0,0,0-3.54,1.51,5.7,5.7,0,0,0-1.22,3.74,8.56,8.56,0,0,0,1.19,4.73,18.2,18.2,0,0,0,3.43,3.81l7.07,6.23a29.38,29.38,0,0,1,6,6.9,17.55,17.55,0,0,1,2.49,9.55,14.36,14.36,0,0,1-1.79,7.21,12.82,12.82,0,0,1-5,4.94A15,15,0,0,1,571.17,576.23Z"/><path class="cls-5" d="M121.74,667l-10.42-26.14h3l9,23.06h-1.1l9.08-23.06h3L123.83,667Z"/><path class="cls-5" d="M142.33,667.34a8.48,8.48,0,0,1-4.56-1.24,8.87,8.87,0,0,1-3.17-3.32,9.45,9.45,0,0,1-1.16-4.71,9.63,9.63,0,0,1,1.16-4.77,8.88,8.88,0,0,1,3.17-3.35,8.49,8.49,0,0,1,4.52-1.23,8,8,0,0,1,3.67.82,6.8,6.8,0,0,1,2.62,2.28,7.41,7.41,0,0,1,1.24,3.4v5.58a7.49,7.49,0,0,1-1.24,3.42,6.77,6.77,0,0,1-2.62,2.3A7.88,7.88,0,0,1,142.33,667.34Zm.42-2.55a5.72,5.72,0,0,0,4.46-1.86,7,7,0,0,0,1.69-4.9,7.73,7.73,0,0,0-.77-3.55,5.88,5.88,0,0,0-2.17-2.4,6.08,6.08,0,0,0-3.25-.85,6.42,6.42,0,0,0-3.36.87,6.32,6.32,0,0,0-2.32,2.41,7.14,7.14,0,0,0-.86,3.52,7,7,0,0,0,.86,3.5,6.32,6.32,0,0,0,2.34,2.39A6.54,6.54,0,0,0,142.75,664.79Zm6,2.17v-4.79l.53-4.41-.53-4.29V649.1h2.66V667Z"/><path class="cls-5" d="M156.81,667v-26.9h2.66V667Z"/><path class="cls-5" d="M171.93,667.34a7.5,7.5,0,0,1-3.87-1,7.15,7.15,0,0,1-2.68-2.75,8.33,8.33,0,0,1-1-4.11V649.1h2.7v10.26a6.5,6.5,0,0,0,.58,2.85,4.54,4.54,0,0,0,1.7,1.9,4.66,4.66,0,0,0,2.54.68,4.48,4.48,0,0,0,3.55-1.48,5.71,5.71,0,0,0,1.32-3.95V649.1h2.66v10.37a8.65,8.65,0,0,1-1,4.11,6.89,6.89,0,0,1-2.66,2.77A7.69,7.69,0,0,1,171.93,667.34Z"/><path class="cls-5" d="M192.19,667.34a8.48,8.48,0,0,1-4.56-1.24,8.89,8.89,0,0,1-3.18-3.32,9.56,9.56,0,0,1-1.16-4.71,9.74,9.74,0,0,1,1.16-4.77,8.9,8.9,0,0,1,3.18-3.35,8.49,8.49,0,0,1,4.52-1.23,7.89,7.89,0,0,1,3.66.82,6.83,6.83,0,0,1,2.63,2.28,7.4,7.4,0,0,1,1.23,3.4v5.58a7.48,7.48,0,0,1-1.23,3.42,6.8,6.8,0,0,1-2.63,2.3A7.81,7.81,0,0,1,192.19,667.34Zm.41-2.55a5.76,5.76,0,0,0,4.47-1.86,7,7,0,0,0,1.69-4.9,7.73,7.73,0,0,0-.78-3.55,5.81,5.81,0,0,0-2.17-2.4,6,6,0,0,0-3.24-.85,6.26,6.26,0,0,0-5.69,3.28A7.14,7.14,0,0,0,186,658a7,7,0,0,0,.85,3.5,6.39,6.39,0,0,0,2.34,2.39A6.57,6.57,0,0,0,192.6,664.79Zm6,2.17v-4.79l.53-4.41-.53-4.29V649.1h2.66V667Z"/><path class="cls-5" d="M204.76,651.49V649.1h11.67v2.39ZM209.29,667V641.58H212V667Z"/><path class="cls-5" d="M221.41,645.22a1.7,1.7,0,0,1-1.29-.55,1.88,1.88,0,0,1,0-2.64,1.76,1.76,0,0,1,1.29-.53,1.83,1.83,0,0,1,1.35.53,2,2,0,0,1,0,2.64A1.77,1.77,0,0,1,221.41,645.22ZM220.08,667V649.1h2.7V667Z"/><path class="cls-5" d="M236.27,667.34a9.08,9.08,0,0,1-4.7-1.25,9.36,9.36,0,0,1-3.34-3.39A9.23,9.23,0,0,1,227,658a8.94,8.94,0,0,1,1.24-4.67,9.35,9.35,0,0,1,3.34-3.33,9.65,9.65,0,0,1,9.41,0,9.16,9.16,0,0,1,4.56,8,9.17,9.17,0,0,1-1.24,4.77,9.41,9.41,0,0,1-3.32,3.37A9.06,9.06,0,0,1,236.27,667.34Zm0-2.58a6.48,6.48,0,0,0,3.36-.88,6.31,6.31,0,0,0,2.32-2.43,7.14,7.14,0,0,0,.85-3.5,6.86,6.86,0,0,0-.85-3.44,6.69,6.69,0,0,0-9-2.37,6.21,6.21,0,0,0-2.32,2.37,7.06,7.06,0,0,0-.83,3.44,7.35,7.35,0,0,0,.83,3.52,6.18,6.18,0,0,0,2.32,2.41A6.49,6.49,0,0,0,236.27,664.76Z"/><path class="cls-5" d="M249.75,667V649.1h2.66V667Zm13,0V656.47a5.31,5.31,0,0,0-1.39-3.82,4.81,4.81,0,0,0-3.66-1.46,5.43,5.43,0,0,0-2.74.68,5.06,5.06,0,0,0-1.86,1.87,5.2,5.2,0,0,0-.69,2.69l-1.21-.68a6.88,6.88,0,0,1,3.51-6.12,7.39,7.39,0,0,1,3.71-.91,6.79,6.79,0,0,1,3.65,1,6.93,6.93,0,0,1,2.49,2.66,7.67,7.67,0,0,1,.89,3.65V667Z"/><path class="cls-5" d="M279.93,645.22a1.74,1.74,0,0,1-1.3-.55,1.91,1.91,0,0,1,0-2.64,1.8,1.8,0,0,1,1.3-.53,1.83,1.83,0,0,1,1.35.53,2,2,0,0,1,0,2.64A1.77,1.77,0,0,1,279.93,645.22ZM278.6,667V649.1h2.69V667Z"/><path class="cls-5" d="M292.16,667.34a9.42,9.42,0,0,1-2.77-.4,9,9,0,0,1-2.41-1.12,8.35,8.35,0,0,1-1.89-1.71l1.71-1.75a7,7,0,0,0,2.42,1.92,7,7,0,0,0,3,.63,4.88,4.88,0,0,0,2.79-.69,2.17,2.17,0,0,0,1-1.9,2.26,2.26,0,0,0-.72-1.78,5.47,5.47,0,0,0-1.85-1c-.74-.25-1.54-.5-2.37-.74a14.68,14.68,0,0,1-2.4-.91,4.77,4.77,0,0,1-1.84-1.54,4.35,4.35,0,0,1-.7-2.58,4.73,4.73,0,0,1,.74-2.65,4.82,4.82,0,0,1,2.13-1.74,7.87,7.87,0,0,1,3.28-.63,8.94,8.94,0,0,1,3.65.72,6.11,6.11,0,0,1,2.62,2.13l-1.71,1.71a5.32,5.32,0,0,0-2-1.58,6.45,6.45,0,0,0-2.68-.55,4.25,4.25,0,0,0-2.6.67,2.05,2.05,0,0,0-.9,1.73,2,2,0,0,0,.73,1.61,5.59,5.59,0,0,0,1.84,1q1.13.36,2.37.72a13.18,13.18,0,0,1,2.4.95,5.1,5.1,0,0,1,1.84,1.6,5.28,5.28,0,0,1-1,6.53A7.19,7.19,0,0,1,292.16,667.34Z"/><path class="cls-5" d="M318.72,667.34a8.53,8.53,0,0,1-4.56-1.24,8.87,8.87,0,0,1-3.17-3.32,9.56,9.56,0,0,1-1.16-4.71A9.74,9.74,0,0,1,311,653.3a8.88,8.88,0,0,1,3.17-3.35,8.53,8.53,0,0,1,4.53-1.23,7.92,7.92,0,0,1,3.66.82,6.9,6.9,0,0,1,2.63,2.28,7.4,7.4,0,0,1,1.23,3.4v5.58a7.48,7.48,0,0,1-1.23,3.42,6.87,6.87,0,0,1-2.63,2.3A7.82,7.82,0,0,1,318.72,667.34Zm.42-2.55a5.76,5.76,0,0,0,4.47-1.86,7,7,0,0,0,1.69-4.9,7.73,7.73,0,0,0-.78-3.55,5.81,5.81,0,0,0-2.17-2.4,6.06,6.06,0,0,0-3.25-.85,6.47,6.47,0,0,0-3.36.87,6.4,6.4,0,0,0-2.32,2.41,7.14,7.14,0,0,0-.85,3.52,7,7,0,0,0,.85,3.5,6.32,6.32,0,0,0,2.34,2.39A6.57,6.57,0,0,0,319.14,664.79Zm6,2.17v-4.79l.53-4.41-.53-4.29V649.1h2.66V667Z"/><path class="cls-5" d="M349.5,667.34a9.16,9.16,0,0,1-8.07-4.6,9.32,9.32,0,0,1-1.24-4.75,9.22,9.22,0,0,1,1.24-4.73,9,9,0,0,1,3.34-3.32,9.76,9.76,0,0,1,8.5-.46,8.48,8.48,0,0,1,3,2.13l-1.75,1.78a6.08,6.08,0,0,0-2.2-1.57,7,7,0,0,0-2.78-.55,6.57,6.57,0,0,0-3.38.87,6.21,6.21,0,0,0-2.32,2.37A7.13,7.13,0,0,0,343,658a7.27,7.27,0,0,0,.83,3.48,6.18,6.18,0,0,0,2.32,2.41,6.58,6.58,0,0,0,3.38.88,7.1,7.1,0,0,0,2.82-.56,6.08,6.08,0,0,0,2.2-1.57l1.79,1.78a8.56,8.56,0,0,1-3,2.17A9.35,9.35,0,0,1,349.5,667.34Z"/><path class="cls-5" d="M360,667V649.1h2.66V667Zm2.66-10.41-1.1-.5a8.07,8.07,0,0,1,1.65-5.35,5.6,5.6,0,0,1,4.54-2,5.74,5.74,0,0,1,4.49,2l-1.75,1.86a3.75,3.75,0,0,0-1.43-1,4.89,4.89,0,0,0-1.76-.3,4.43,4.43,0,0,0-3.35,1.35A5.53,5.53,0,0,0,362.69,656.55Z"/><path class="cls-5" d="M376.41,645.22a1.74,1.74,0,0,1-1.3-.55,1.91,1.91,0,0,1,0-2.64,1.8,1.8,0,0,1,1.3-.53,1.83,1.83,0,0,1,1.35.53,2,2,0,0,1,0,2.64A1.77,1.77,0,0,1,376.41,645.22ZM375.08,667V649.1h2.69V667Z"/><path class="cls-5" d="M381.42,651.49V649.1h11.67v2.39ZM385.94,667V641.58h2.66V667Z"/><path class="cls-5" d="M398.07,645.22a1.74,1.74,0,0,1-1.3-.55,1.91,1.91,0,0,1,0-2.64,1.8,1.8,0,0,1,1.3-.53,1.83,1.83,0,0,1,1.35.53,2,2,0,0,1,0,2.64A1.77,1.77,0,0,1,398.07,645.22ZM396.74,667V649.1h2.69V667Z"/><path class="cls-5" d="M413,667.34a9.16,9.16,0,0,1-8.07-4.6,9.23,9.23,0,0,1-1.24-4.75,9.13,9.13,0,0,1,1.24-4.73,9,9,0,0,1,3.34-3.32,9.74,9.74,0,0,1,8.49-.46,8.42,8.42,0,0,1,3,2.13l-1.75,1.78a6.08,6.08,0,0,0-2.2-1.57,7,7,0,0,0-2.78-.55,6.57,6.57,0,0,0-3.38.87,6.21,6.21,0,0,0-2.32,2.37,7,7,0,0,0-.83,3.48,7.16,7.16,0,0,0,.83,3.48,6.18,6.18,0,0,0,2.32,2.41,6.58,6.58,0,0,0,3.38.88,7,7,0,0,0,2.81-.56,6,6,0,0,0,2.21-1.57l1.78,1.78a8.43,8.43,0,0,1-3,2.17A9.39,9.39,0,0,1,413,667.34Z"/><path class="cls-5" d="M430.9,667.34a8.48,8.48,0,0,1-4.56-1.24,8.87,8.87,0,0,1-3.17-3.32,9.45,9.45,0,0,1-1.16-4.71,9.63,9.63,0,0,1,1.16-4.77,8.88,8.88,0,0,1,3.17-3.35,8.49,8.49,0,0,1,4.52-1.23,8,8,0,0,1,3.67.82,6.87,6.87,0,0,1,2.62,2.28,7.4,7.4,0,0,1,1.23,3.4v5.58a7.48,7.48,0,0,1-1.23,3.42,6.84,6.84,0,0,1-2.62,2.3A7.88,7.88,0,0,1,430.9,667.34Zm.42-2.55a5.74,5.74,0,0,0,4.46-1.86,7,7,0,0,0,1.69-4.9,7.73,7.73,0,0,0-.78-3.55,5.86,5.86,0,0,0-2.16-2.4,6.08,6.08,0,0,0-3.25-.85,6.42,6.42,0,0,0-3.36.87,6.32,6.32,0,0,0-2.32,2.41,7.14,7.14,0,0,0-.86,3.52,7,7,0,0,0,.86,3.5,6.37,6.37,0,0,0,2.33,2.39A6.58,6.58,0,0,0,431.32,664.79Zm6,2.17v-4.79l.53-4.41-.53-4.29V649.1H440V667Z"/><path class="cls-5" d="M445.38,667v-26.9H448V667Z"/><path class="cls-5" d="M469.73,667.34a9.16,9.16,0,0,1-8.07-4.6,9.32,9.32,0,0,1-1.24-4.75,9.22,9.22,0,0,1,1.24-4.73,9,9,0,0,1,3.34-3.32,9.76,9.76,0,0,1,8.5-.46,8.48,8.48,0,0,1,3,2.13l-1.75,1.78a6.08,6.08,0,0,0-2.2-1.57,7,7,0,0,0-2.78-.55,6.57,6.57,0,0,0-3.38.87,6.21,6.21,0,0,0-2.32,2.37,7.13,7.13,0,0,0-.83,3.48,7.27,7.27,0,0,0,.83,3.48,6.18,6.18,0,0,0,2.32,2.41,6.58,6.58,0,0,0,3.38.88,7.1,7.1,0,0,0,2.82-.56,6.08,6.08,0,0,0,2.2-1.57l1.79,1.78a8.56,8.56,0,0,1-3,2.17A9.35,9.35,0,0,1,469.73,667.34Z"/><path class="cls-5" d="M488,667.34a9,9,0,0,1-4.69-1.25,9.3,9.3,0,0,1-4.58-8.14,9,9,0,0,1,1.23-4.67,9.38,9.38,0,0,1,3.35-3.33,9.63,9.63,0,0,1,9.4,0,9,9,0,0,1,3.33,3.32,9.15,9.15,0,0,1,1.23,4.69,9.27,9.27,0,0,1-4.56,8.14A9,9,0,0,1,488,667.34Zm0-2.58a6.43,6.43,0,0,0,3.36-.88,6.24,6.24,0,0,0,2.32-2.43,7.15,7.15,0,0,0,.86-3.5,6.86,6.86,0,0,0-.86-3.44,6.33,6.33,0,0,0-5.68-3.24,6.47,6.47,0,0,0-3.34.87,6.21,6.21,0,0,0-2.32,2.37,7,7,0,0,0-.84,3.44,7.24,7.24,0,0,0,.84,3.52,6.18,6.18,0,0,0,2.32,2.41A6.48,6.48,0,0,0,488,664.76Z"/><path class="cls-5" d="M501.5,667V649.1h2.66V667Zm12.28,0V656a4.74,4.74,0,0,0-1.33-3.52,4.61,4.61,0,0,0-3.35-1.31,5.32,5.32,0,0,0-2.49.59,4.49,4.49,0,0,0-1.78,1.65,4.66,4.66,0,0,0-.67,2.55l-1.21-.5a6.82,6.82,0,0,1,.91-3.57,6.29,6.29,0,0,1,2.45-2.35,7.11,7.11,0,0,1,3.48-.84,6.86,6.86,0,0,1,3.4.84,6.27,6.27,0,0,1,2.39,2.35,7,7,0,0,1,.89,3.61V667Zm12.31,0V656a4.74,4.74,0,0,0-1.33-3.52,4.65,4.65,0,0,0-3.38-1.31,5.26,5.26,0,0,0-2.46.59,4.56,4.56,0,0,0-1.78,1.65,4.66,4.66,0,0,0-.67,2.55l-1.59-.5a7.21,7.21,0,0,1,1.08-3.57,6.62,6.62,0,0,1,2.55-2.35,7.27,7.27,0,0,1,3.47-.84,7,7,0,0,1,3.44.84,6.1,6.1,0,0,1,2.43,2.35,7,7,0,0,1,.9,3.61V667Z"/><path class="cls-5" d="M533.76,674.48V649.1h2.66v4.56l-.53,4.33.53,4.37v12.12Zm9.24-7.14a8,8,0,0,1-3.69-.84,7.27,7.27,0,0,1-2.68-2.3,7.18,7.18,0,0,1-1.27-3.4v-5.58a7,7,0,0,1,4-5.7,8.63,8.63,0,0,1,8.07.43,9,9,0,0,1,3.14,3.35,10.34,10.34,0,0,1,0,9.48,8.79,8.79,0,0,1-3.14,3.32A8.26,8.26,0,0,1,543,667.34Zm-.46-2.55a6.41,6.41,0,0,0,3.34-.85,6,6,0,0,0,2.27-2.4,8.05,8.05,0,0,0,0-7,6.1,6.1,0,0,0-2.27-2.4,6.67,6.67,0,0,0-6.59,0,6,6,0,0,0-2.22,2.4,8.14,8.14,0,0,0,0,7,6,6,0,0,0,2.2,2.4A6.18,6.18,0,0,0,542.54,664.79Z"/><path class="cls-5" d="M564.09,667.34a9.08,9.08,0,0,1-4.7-1.25,9.36,9.36,0,0,1-4.58-8.14,9,9,0,0,1,1.24-4.67,9.35,9.35,0,0,1,3.34-3.33,9.65,9.65,0,0,1,9.41,0,9.16,9.16,0,0,1,4.56,8,9.17,9.17,0,0,1-1.24,4.77,9.41,9.41,0,0,1-3.32,3.37A9.06,9.06,0,0,1,564.09,667.34Zm0-2.58a6.48,6.48,0,0,0,3.36-.88,6.31,6.31,0,0,0,2.32-2.43,7.14,7.14,0,0,0,.85-3.5,6.86,6.86,0,0,0-.85-3.44,6.69,6.69,0,0,0-9-2.37,6.21,6.21,0,0,0-2.32,2.37,7.06,7.06,0,0,0-.83,3.44,7.35,7.35,0,0,0,.83,3.52,6.18,6.18,0,0,0,2.32,2.41A6.49,6.49,0,0,0,564.09,664.76Z"/><path class="cls-5" d="M577.58,667V649.1h2.66V667Zm13,0V656.47a5.35,5.35,0,0,0-1.38-3.82,4.85,4.85,0,0,0-3.67-1.46,5.43,5.43,0,0,0-2.74.68,5.13,5.13,0,0,0-1.86,1.87,5.2,5.2,0,0,0-.68,2.69l-1.22-.68a7,7,0,0,1,1-3.61,6.88,6.88,0,0,1,2.57-2.51,7.35,7.35,0,0,1,3.7-.91,6.79,6.79,0,0,1,3.65,1,6.93,6.93,0,0,1,2.49,2.66,7.67,7.67,0,0,1,.89,3.65V667Z"/><path class="cls-5" d="M606.49,667.34a9.57,9.57,0,0,1-4.82-1.22,8.9,8.9,0,0,1-3.36-3.34,9.83,9.83,0,0,1,0-9.52,8.91,8.91,0,0,1,3.3-3.32,9.15,9.15,0,0,1,4.68-1.22,8.4,8.4,0,0,1,4.31,1.1,8,8,0,0,1,3,3.06,9.09,9.09,0,0,1,1.09,4.5c0,.21,0,.44,0,.71s-.08.57-.15.93H599v-2.28h14l-1,.83a7.23,7.23,0,0,0-.66-3.4,5.13,5.13,0,0,0-2-2.2,6.08,6.08,0,0,0-3.17-.78,6.6,6.6,0,0,0-3.38.84,5.83,5.83,0,0,0-2.26,2.33,7.29,7.29,0,0,0-.82,3.56,7.41,7.41,0,0,0,.86,3.61A6.14,6.14,0,0,0,603,664a7.1,7.1,0,0,0,3.55.87,7.37,7.37,0,0,0,3-.59,5.91,5.91,0,0,0,2.32-1.76l1.71,1.74a8.44,8.44,0,0,1-3.09,2.3A9.65,9.65,0,0,1,606.49,667.34Z"/><path class="cls-5" d="M618.69,667V649.1h2.66V667Zm13,0V656.47a5.31,5.31,0,0,0-1.39-3.82,4.83,4.83,0,0,0-3.67-1.46,5.39,5.39,0,0,0-2.73.68,5,5,0,0,0-1.86,1.87,5.2,5.2,0,0,0-.69,2.69l-1.21-.68a6.88,6.88,0,0,1,3.51-6.12,7.39,7.39,0,0,1,3.71-.91,6.79,6.79,0,0,1,6.13,3.65,7.56,7.56,0,0,1,.9,3.65V667Z"/><path class="cls-5" d="M637.39,651.49V649.1h11.66v2.39ZM641.91,667V641.58h2.66V667Z"/><path class="cls-5" d="M669,667.34a9.08,9.08,0,0,1-4.7-1.25,9.36,9.36,0,0,1-4.58-8.14,9,9,0,0,1,1.24-4.67,9.35,9.35,0,0,1,3.34-3.33,9.65,9.65,0,0,1,9.41,0,9.16,9.16,0,0,1,4.56,8,9.17,9.17,0,0,1-1.24,4.77,9.41,9.41,0,0,1-3.32,3.37A9.06,9.06,0,0,1,669,667.34Zm0-2.58a6.48,6.48,0,0,0,3.36-.88,6.31,6.31,0,0,0,2.32-2.43,7.14,7.14,0,0,0,.85-3.5,6.86,6.86,0,0,0-.85-3.44,6.69,6.69,0,0,0-9-2.37,6.21,6.21,0,0,0-2.32,2.37,7.06,7.06,0,0,0-.83,3.44,7.35,7.35,0,0,0,.83,3.52,6.18,6.18,0,0,0,2.32,2.41A6.49,6.49,0,0,0,669,664.76Z"/><path class="cls-5" d="M680,651.49V649.1H693.1v2.39ZM684.43,667v-20.9a6.58,6.58,0,0,1,.82-3.31,5.83,5.83,0,0,1,2.28-2.26,6.72,6.72,0,0,1,3.32-.81,6,6,0,0,1,2.55.51,7.08,7.08,0,0,1,2,1.42l-1.74,1.75a4.18,4.18,0,0,0-1.28-.89,3.85,3.85,0,0,0-1.54-.29,3.54,3.54,0,0,0-2.75,1.05,4.09,4.09,0,0,0-1,2.91V667Z"/><path class="cls-5" d="M127.08,697.09V694.7h11.66v2.39Zm4.52,15.47V687.18h2.66v25.38Z"/><path class="cls-5" d="M142.39,712.56v-26.9h2.66v26.9Zm13,0V702.07a5.35,5.35,0,0,0-1.38-3.82,4.85,4.85,0,0,0-3.67-1.46,5.43,5.43,0,0,0-2.74.68,5.13,5.13,0,0,0-1.86,1.87,5.3,5.3,0,0,0-.68,2.69l-1.22-.68a6.87,6.87,0,0,1,3.52-6.12,7.35,7.35,0,0,1,3.7-.91,7.1,7.1,0,0,1,3.65.93,6.55,6.55,0,0,1,2.49,2.57,7.84,7.84,0,0,1,.89,3.8v10.94Z"/><path class="cls-5" d="M171.31,712.94a9.58,9.58,0,0,1-4.83-1.22,8.9,8.9,0,0,1-3.36-3.34,9.83,9.83,0,0,1,0-9.52,8.91,8.91,0,0,1,3.3-3.32,9.18,9.18,0,0,1,4.68-1.22,8.4,8.4,0,0,1,4.31,1.1,8,8,0,0,1,3,3.06,9.19,9.19,0,0,1,1.08,4.5,6.32,6.32,0,0,1,0,.71,8.79,8.79,0,0,1-.15.93H163.78v-2.28h14l-.94.83a7.35,7.35,0,0,0-.67-3.4,5.17,5.17,0,0,0-2-2.2,6.14,6.14,0,0,0-3.18-.78,6.6,6.6,0,0,0-3.38.84,5.83,5.83,0,0,0-2.26,2.33,7.29,7.29,0,0,0-.82,3.56,7.41,7.41,0,0,0,.86,3.61,6.14,6.14,0,0,0,2.39,2.43,7.1,7.1,0,0,0,3.55.87,7.45,7.45,0,0,0,3-.59,6,6,0,0,0,2.31-1.76l1.72,1.74a8.48,8.48,0,0,1-3.1,2.3A9.6,9.6,0,0,1,171.31,712.94Z"/><path class="cls-5" d="M192.32,712.56V686.42h2.77v26.14Z"/><path class="cls-5" d="M201.78,712.56V686.42h2.78v26.14Zm1.79-10.49V699.6h7.71a6.25,6.25,0,0,0,2.87-.64,5,5,0,0,0,2-1.85,5.92,5.92,0,0,0,0-5.73,5.2,5.2,0,0,0-2-1.87,6.13,6.13,0,0,0-2.87-.66h-7.71v-2.43h7.9a9,9,0,0,1,4.22,1,7.48,7.48,0,0,1,2.95,2.71,8.46,8.46,0,0,1,0,8.27,7.39,7.39,0,0,1-2.95,2.73,9,9,0,0,1-4.22,1Z"/><path class="cls-5" d="M236.67,712.94a12.58,12.58,0,0,1-5.15-1.05,12.83,12.83,0,0,1-4.16-2.88,13.43,13.43,0,0,1-2.8-4.3,14.52,14.52,0,0,1,0-10.54,13.06,13.06,0,0,1,6.92-7.11,12.77,12.77,0,0,1,5.13-1,12.9,12.9,0,0,1,5.15,1,13.17,13.17,0,0,1,4.16,2.85,12.84,12.84,0,0,1,2.77,4.28,14.57,14.57,0,0,1,0,10.56,12.94,12.94,0,0,1-6.87,7.14A12.45,12.45,0,0,1,236.67,712.94Zm-.08-2.7a9.76,9.76,0,0,0,8.87-5.24,11.44,11.44,0,0,0,1.31-5.55,11.58,11.58,0,0,0-.76-4.27,10.33,10.33,0,0,0-2.12-3.42,9.71,9.71,0,0,0-3.22-2.27,10.17,10.17,0,0,0-4.08-.79,9.75,9.75,0,0,0-8.84,5.2,11.55,11.55,0,0,0-1.31,5.55,11.94,11.94,0,0,0,.76,4.29,10.5,10.5,0,0,0,2.13,3.44,9.39,9.39,0,0,0,3.23,2.26A10,10,0,0,0,236.59,710.24Z"/><path class="cls-5" d="M262.58,720.08V694.7h2.66v4.56l-.53,4.33.53,4.37v12.12Zm9.24-7.14a8,8,0,0,1-3.69-.84,7.34,7.34,0,0,1-2.68-2.29,7.15,7.15,0,0,1-1.27-3.41v-5.58a7,7,0,0,1,4-5.7,8.26,8.26,0,0,1,3.63-.8,8.16,8.16,0,0,1,4.44,1.24,8.93,8.93,0,0,1,3.14,3.34,9.76,9.76,0,0,1,1.16,4.77,9.66,9.66,0,0,1-1.14,4.71,8.79,8.79,0,0,1-3.14,3.32A8.26,8.26,0,0,1,271.82,712.94Zm-.46-2.55a6.41,6.41,0,0,0,3.34-.85,5.88,5.88,0,0,0,2.26-2.4,8,8,0,0,0,0-7,6,6,0,0,0-2.26-2.4,6.67,6.67,0,0,0-6.59,0,6,6,0,0,0-2.22,2.4,8.14,8.14,0,0,0,0,7,5.88,5.88,0,0,0,2.2,2.4A6.18,6.18,0,0,0,271.36,710.39Z"/><path class="cls-5" d="M284.81,712.56V694.7h2.66v17.86Zm2.66-10.41-1.1-.5A8.07,8.07,0,0,1,288,696.3a5.6,5.6,0,0,1,4.54-2,5.79,5.79,0,0,1,4.49,2l-1.75,1.86a3.86,3.86,0,0,0-1.43-1,4.81,4.81,0,0,0-1.76-.3,4.43,4.43,0,0,0-3.35,1.35A5.53,5.53,0,0,0,287.47,702.15Z"/><path class="cls-5" d="M307.34,712.94a9.07,9.07,0,0,1-4.69-1.25,9.36,9.36,0,0,1-3.34-3.39,9.2,9.2,0,0,1-1.24-4.75,8.94,8.94,0,0,1,1.24-4.67,9.24,9.24,0,0,1,3.34-3.32,9.06,9.06,0,0,1,4.69-1.24,9.25,9.25,0,0,1,4.72,1.22,9,9,0,0,1,3.32,3.32,9.16,9.16,0,0,1,1.24,4.69,9.27,9.27,0,0,1-1.24,4.77,9.41,9.41,0,0,1-3.32,3.37A9.07,9.07,0,0,1,307.34,712.94Zm0-2.58a6.49,6.49,0,0,0,3.37-.88,6.31,6.31,0,0,0,2.32-2.43,7.14,7.14,0,0,0,.85-3.5,6.86,6.86,0,0,0-.85-3.44,6.69,6.69,0,0,0-9-2.37,6.21,6.21,0,0,0-2.32,2.37,7.06,7.06,0,0,0-.83,3.44,7.35,7.35,0,0,0,.83,3.52,6.11,6.11,0,0,0,2.32,2.41A6.48,6.48,0,0,0,307.34,710.36Z"/><path class="cls-5" d="M329,712.94a9.19,9.19,0,0,1-8.08-4.6,9.32,9.32,0,0,1-1.23-4.75,9.22,9.22,0,0,1,1.23-4.73,9,9,0,0,1,3.35-3.32,9.74,9.74,0,0,1,8.49-.46,8.48,8.48,0,0,1,3,2.13L333.94,699a6,6,0,0,0-2.2-1.57,7,7,0,0,0-2.77-.55,6.58,6.58,0,0,0-3.39.87,6.19,6.19,0,0,0-2.31,2.37,7,7,0,0,0-.84,3.48,7.17,7.17,0,0,0,.84,3.48,6.09,6.09,0,0,0,2.31,2.41,6.59,6.59,0,0,0,3.39.88,7.22,7.22,0,0,0,2.81-.55,6.22,6.22,0,0,0,2.2-1.58l1.79,1.78a8.52,8.52,0,0,1-3,2.17A9.42,9.42,0,0,1,329,712.94Z"/><path class="cls-5" d="M347.4,712.94a9.58,9.58,0,0,1-4.83-1.22,8.9,8.9,0,0,1-3.36-3.34,9.83,9.83,0,0,1,0-9.52,8.91,8.91,0,0,1,3.3-3.32,9.18,9.18,0,0,1,4.68-1.22,8.4,8.4,0,0,1,4.31,1.1,8,8,0,0,1,3,3.06,9.19,9.19,0,0,1,1.08,4.5,6.32,6.32,0,0,1,0,.71,8.79,8.79,0,0,1-.15.93H339.87v-2.28h14l-.95.83a7.23,7.23,0,0,0-.66-3.4,5.17,5.17,0,0,0-2-2.2,6.14,6.14,0,0,0-3.18-.78,6.6,6.6,0,0,0-3.38.84,5.83,5.83,0,0,0-2.26,2.33,7.29,7.29,0,0,0-.82,3.56,7.41,7.41,0,0,0,.86,3.61,6.14,6.14,0,0,0,2.39,2.43,7.1,7.1,0,0,0,3.55.87,7.45,7.45,0,0,0,3-.59,6,6,0,0,0,2.31-1.76l1.71,1.74a8.36,8.36,0,0,1-3.09,2.3A9.63,9.63,0,0,1,347.4,712.94Z"/><path class="cls-5" d="M365.07,712.94a9.49,9.49,0,0,1-2.78-.4,9.18,9.18,0,0,1-2.41-1.12,8.3,8.3,0,0,1-1.88-1.71l1.71-1.75a6.92,6.92,0,0,0,2.41,1.92,7.07,7.07,0,0,0,3,.63,4.93,4.93,0,0,0,2.8-.69,2.16,2.16,0,0,0,1-1.9,2.26,2.26,0,0,0-.72-1.78,5.42,5.42,0,0,0-1.84-1c-.75-.25-1.54-.5-2.38-.74a14.92,14.92,0,0,1-2.39-.91,4.7,4.7,0,0,1-1.84-1.54,4.35,4.35,0,0,1-.71-2.58,4.73,4.73,0,0,1,.74-2.65,4.93,4.93,0,0,1,2.13-1.74,7.91,7.91,0,0,1,3.29-.63,9,9,0,0,1,3.65.72,6.17,6.17,0,0,1,2.62,2.13l-1.71,1.71a5.35,5.35,0,0,0-2-1.58,6.42,6.42,0,0,0-2.68-.55,4.27,4.27,0,0,0-2.6.67,2.07,2.07,0,0,0-.89,1.73,2,2,0,0,0,.72,1.61,5.69,5.69,0,0,0,1.84,1c.75.24,1.54.48,2.38.72a13.37,13.37,0,0,1,2.39,1,5.14,5.14,0,0,1,1.85,1.6,5.28,5.28,0,0,1-1,6.54A7.15,7.15,0,0,1,365.07,712.94Z"/><path class="cls-5" d="M381.18,712.94a9.54,9.54,0,0,1-2.78-.4,9.18,9.18,0,0,1-2.41-1.12,8.3,8.3,0,0,1-1.88-1.71l1.71-1.75a6.92,6.92,0,0,0,2.41,1.92,7.07,7.07,0,0,0,3,.63,4.91,4.91,0,0,0,2.8-.69,2.16,2.16,0,0,0,1-1.9,2.26,2.26,0,0,0-.72-1.78,5.33,5.33,0,0,0-1.84-1c-.75-.25-1.54-.5-2.38-.74a14.92,14.92,0,0,1-2.39-.91,4.77,4.77,0,0,1-1.84-1.54,4.35,4.35,0,0,1-.71-2.58,4.66,4.66,0,0,1,.75-2.65A4.84,4.84,0,0,1,378,695a7.91,7.91,0,0,1,3.29-.63A9,9,0,0,1,385,695a6.17,6.17,0,0,1,2.62,2.13l-1.71,1.71a5.4,5.4,0,0,0-2-1.58,6.48,6.48,0,0,0-2.68-.55,4.3,4.3,0,0,0-2.61.67,2.07,2.07,0,0,0-.89,1.73,2,2,0,0,0,.72,1.61,5.64,5.64,0,0,0,1.85,1q1.11.36,2.37.72a13.08,13.08,0,0,1,2.39,1,5.14,5.14,0,0,1,1.85,1.6,4.67,4.67,0,0,1,.7,2.72,4.73,4.73,0,0,1-1.73,3.82A7.15,7.15,0,0,1,381.18,712.94Z"/><path class="cls-5" d="M407.74,712.94a8.48,8.48,0,0,1-4.56-1.24,8.87,8.87,0,0,1-3.17-3.32,9.45,9.45,0,0,1-1.16-4.71A9.65,9.65,0,0,1,400,698.9a8.78,8.78,0,0,1,3.17-3.34,8.41,8.41,0,0,1,4.52-1.24,8,8,0,0,1,3.67.82,6.8,6.8,0,0,1,2.62,2.28,7.52,7.52,0,0,1,1.24,3.4v5.58a7.6,7.6,0,0,1-1.24,3.42,6.77,6.77,0,0,1-2.62,2.3A7.88,7.88,0,0,1,407.74,712.94Zm.42-2.55a5.72,5.72,0,0,0,4.46-1.86,7,7,0,0,0,1.69-4.9,7.86,7.86,0,0,0-.77-3.55,5.88,5.88,0,0,0-2.17-2.4,6.08,6.08,0,0,0-3.25-.85,6.42,6.42,0,0,0-3.36.87,6.32,6.32,0,0,0-2.32,2.41,7.14,7.14,0,0,0-.86,3.52,7,7,0,0,0,.86,3.5,6.32,6.32,0,0,0,2.34,2.39A6.52,6.52,0,0,0,408.16,710.39Zm6,2.17v-4.79l.53-4.41-.53-4.29V694.7h2.66v17.86Z"/><path class="cls-5" d="M427.69,712.94a9.42,9.42,0,0,1-2.77-.4,9.09,9.09,0,0,1-2.42-1.12,8.3,8.3,0,0,1-1.88-1.71l1.71-1.75a6.66,6.66,0,0,0,5.44,2.55,4.88,4.88,0,0,0,2.79-.69,2.17,2.17,0,0,0,1-1.9,2.27,2.27,0,0,0-.73-1.78,5.33,5.33,0,0,0-1.84-1c-.75-.25-1.54-.5-2.37-.74a14.68,14.68,0,0,1-2.4-.91,4.77,4.77,0,0,1-1.84-1.54,4.35,4.35,0,0,1-.7-2.58,4.65,4.65,0,0,1,.74-2.65,4.84,4.84,0,0,1,2.12-1.74,7.91,7.91,0,0,1,3.29-.63,9,9,0,0,1,3.65.72,6.17,6.17,0,0,1,2.62,2.13l-1.71,1.71a5.4,5.4,0,0,0-2-1.58,6.45,6.45,0,0,0-2.68-.55,4.3,4.3,0,0,0-2.61.67,2.07,2.07,0,0,0-.89,1.73,2,2,0,0,0,.72,1.61,5.64,5.64,0,0,0,1.85,1c.74.24,1.54.48,2.37.72a13.18,13.18,0,0,1,2.4,1,5.1,5.1,0,0,1,1.84,1.6,5.28,5.28,0,0,1-1,6.54A7.14,7.14,0,0,1,427.69,712.94Z"/><path class="cls-5" d="M447.83,690.82a1.7,1.7,0,0,1-1.29-.55,1.91,1.91,0,0,1,0-2.64,1.76,1.76,0,0,1,1.29-.53,1.8,1.8,0,0,1,1.35.53,2,2,0,0,1,0,2.64A1.74,1.74,0,0,1,447.83,690.82Zm-1.33,21.74V694.7h2.7v17.86Z"/><path class="cls-5" d="M452.85,697.09V694.7h11.66v2.39Zm4.52,15.47V687.18H460v25.38Z"/><path class="cls-5" d="M476.33,712.56v-26.9H479v26.9Zm13,0V702.07a5.35,5.35,0,0,0-1.38-3.82,4.85,4.85,0,0,0-3.67-1.46,5.43,5.43,0,0,0-2.74.68,5.13,5.13,0,0,0-1.86,1.87A5.3,5.3,0,0,0,479,702l-1.22-.68a6.87,6.87,0,0,1,3.52-6.12,7.35,7.35,0,0,1,3.7-.91,7.1,7.1,0,0,1,3.65.93,6.55,6.55,0,0,1,2.49,2.57,7.84,7.84,0,0,1,.89,3.8v10.94Z"/><path class="cls-5" d="M505.25,712.94a9.58,9.58,0,0,1-4.83-1.22,8.9,8.9,0,0,1-3.36-3.34,9.83,9.83,0,0,1,0-9.52,8.91,8.91,0,0,1,3.3-3.32,9.18,9.18,0,0,1,4.68-1.22,8.4,8.4,0,0,1,4.31,1.1,8,8,0,0,1,3,3.06,9.19,9.19,0,0,1,1.08,4.5,6.32,6.32,0,0,1,0,.71,8.79,8.79,0,0,1-.15.93H497.72v-2.28h14l-.95.83a7.23,7.23,0,0,0-.66-3.4,5.17,5.17,0,0,0-2-2.2,6.14,6.14,0,0,0-3.18-.78,6.6,6.6,0,0,0-3.38.84A5.83,5.83,0,0,0,499.3,700a7.29,7.29,0,0,0-.82,3.56,7.41,7.41,0,0,0,.86,3.61,6.14,6.14,0,0,0,2.39,2.43,7.1,7.1,0,0,0,3.55.87,7.45,7.45,0,0,0,3-.59,6,6,0,0,0,2.31-1.76l1.71,1.74a8.36,8.36,0,0,1-3.09,2.3A9.6,9.6,0,0,1,505.25,712.94Z"/><path class="cls-5" d="M517.44,712.56v-26.9h2.66v26.9Z"/><path class="cls-5" d="M525.5,720.08V694.7h2.66v4.56l-.53,4.33.53,4.37v12.12Zm9.23-7.14a7.94,7.94,0,0,1-3.68-.84,7.34,7.34,0,0,1-2.68-2.29,7.15,7.15,0,0,1-1.27-3.41v-5.58a7,7,0,0,1,4-5.7,8.6,8.6,0,0,1,8.07.44,8.93,8.93,0,0,1,3.14,3.34,9.76,9.76,0,0,1,1.15,4.77,9.66,9.66,0,0,1-1.14,4.71,8.76,8.76,0,0,1-3.13,3.32A8.27,8.27,0,0,1,534.73,712.94Zm-.45-2.55a6.43,6.43,0,0,0,3.34-.85,6,6,0,0,0,2.26-2.4,8,8,0,0,0,0-7,6.08,6.08,0,0,0-2.26-2.4,6.26,6.26,0,0,0-3.3-.87,6.17,6.17,0,0,0-3.29.87,6,6,0,0,0-2.22,2.4,8.14,8.14,0,0,0,0,7,5.88,5.88,0,0,0,2.2,2.4A6.18,6.18,0,0,0,534.28,710.39Z"/><path class="cls-5" d="M553.2,712.94a9.42,9.42,0,0,1-2.77-.4,9.24,9.24,0,0,1-2.42-1.12,8.51,8.51,0,0,1-1.88-1.71l1.71-1.75a7,7,0,0,0,2.42,1.92,7,7,0,0,0,3,.63,4.88,4.88,0,0,0,2.79-.69,2.17,2.17,0,0,0,1-1.9,2.26,2.26,0,0,0-.72-1.78,5.47,5.47,0,0,0-1.85-1c-.74-.25-1.54-.5-2.37-.74a14.68,14.68,0,0,1-2.4-.91,4.77,4.77,0,0,1-1.84-1.54,4.35,4.35,0,0,1-.7-2.58,4.65,4.65,0,0,1,.74-2.65,4.82,4.82,0,0,1,2.13-1.74,7.87,7.87,0,0,1,3.28-.63A8.94,8.94,0,0,1,557,695a6.17,6.17,0,0,1,2.62,2.13l-1.71,1.71a5.32,5.32,0,0,0-2-1.58,6.45,6.45,0,0,0-2.68-.55,4.25,4.25,0,0,0-2.6.67,2.05,2.05,0,0,0-.9,1.73,2,2,0,0,0,.73,1.61,5.59,5.59,0,0,0,1.84,1q1.13.36,2.37.72a13.18,13.18,0,0,1,2.4,1,5.1,5.1,0,0,1,1.84,1.6,5.28,5.28,0,0,1-1,6.54A7.14,7.14,0,0,1,553.2,712.94Z"/><path class="cls-5" d="M579.61,712.94a8.27,8.27,0,0,1-4.44-1.22A8.73,8.73,0,0,1,572,708.4a10.31,10.31,0,0,1,0-9.5,8.85,8.85,0,0,1,3.14-3.34,8.12,8.12,0,0,1,4.44-1.24,8.25,8.25,0,0,1,3.65.8,7.34,7.34,0,0,1,2.72,2.26,6.77,6.77,0,0,1,1.27,3.44v5.58a7.26,7.26,0,0,1-1.27,3.41,7.34,7.34,0,0,1-2.68,2.29A8,8,0,0,1,579.61,712.94Zm.46-2.55a6.18,6.18,0,0,0,3.27-.85,6,6,0,0,0,2.2-2.4,7.5,7.5,0,0,0,.8-3.51,7.39,7.39,0,0,0-.82-3.53,6.2,6.2,0,0,0-2.22-2.4,6.1,6.1,0,0,0-3.27-.87,6.32,6.32,0,0,0-3.31.87,6.18,6.18,0,0,0-2.26,2.41,8,8,0,0,0,0,7,6,6,0,0,0,2.28,2.4A6.5,6.5,0,0,0,580.07,710.39Zm8.78,2.17h-2.66v-4.79l.53-4.41-.53-4.29V685.66h2.66Z"/><path class="cls-5" d="M602.49,712.94a9.58,9.58,0,0,1-4.83-1.22,8.9,8.9,0,0,1-3.36-3.34,9.83,9.83,0,0,1,0-9.52,8.86,8.86,0,0,1,3.31-3.32,9.12,9.12,0,0,1,4.67-1.22,8.4,8.4,0,0,1,4.31,1.1,8,8,0,0,1,3,3.06,9.19,9.19,0,0,1,1.08,4.5,6.32,6.32,0,0,1,0,.71,8.79,8.79,0,0,1-.15.93H595v-2.28h14l-.94.83a7.35,7.35,0,0,0-.67-3.4,5.17,5.17,0,0,0-2-2.2,6.14,6.14,0,0,0-3.18-.78,6.6,6.6,0,0,0-3.38.84,5.83,5.83,0,0,0-2.26,2.33,8.07,8.07,0,0,0,0,7.17,6.14,6.14,0,0,0,2.39,2.43,7.1,7.1,0,0,0,3.55.87,7.45,7.45,0,0,0,3-.59,6,6,0,0,0,2.31-1.76l1.72,1.74a8.48,8.48,0,0,1-3.1,2.3A9.6,9.6,0,0,1,602.49,712.94Z"/><path class="cls-5" d="M612.29,697.09V694.7H624v2.39Zm4.52,15.47V687.18h2.66v25.38Z"/><path class="cls-5" d="M635.2,712.94a9.57,9.57,0,0,1-4.82-1.22,8.9,8.9,0,0,1-3.36-3.34,9.83,9.83,0,0,1,0-9.52,8.91,8.91,0,0,1,3.3-3.32,9.15,9.15,0,0,1,4.68-1.22,8.4,8.4,0,0,1,4.31,1.1,8,8,0,0,1,3,3.06,9.09,9.09,0,0,1,1.09,4.5c0,.21,0,.44,0,.71s-.08.57-.15.93H627.68v-2.28h14l-1,.83a7.23,7.23,0,0,0-.66-3.4,5.13,5.13,0,0,0-2-2.2,6.08,6.08,0,0,0-3.17-.78,6.6,6.6,0,0,0-3.38.84,5.83,5.83,0,0,0-2.26,2.33,7.29,7.29,0,0,0-.82,3.56,7.41,7.41,0,0,0,.86,3.61,6.07,6.07,0,0,0,2.39,2.43,7.1,7.1,0,0,0,3.55.87,7.37,7.37,0,0,0,3-.59,5.91,5.91,0,0,0,2.32-1.76l1.71,1.74a8.44,8.44,0,0,1-3.09,2.3A9.65,9.65,0,0,1,635.2,712.94Z"/><path class="cls-5" d="M647.4,712.56V694.7h2.66v17.86Zm2.66-10.41-1.1-.5a8.07,8.07,0,0,1,1.65-5.35,5.61,5.61,0,0,1,4.54-2,5.79,5.79,0,0,1,4.49,2l-1.75,1.86a3.91,3.91,0,0,0-1.42-1,4.9,4.9,0,0,0-1.77-.3,4.45,4.45,0,0,0-3.35,1.35A5.53,5.53,0,0,0,650.06,702.15Z"/><path class="cls-5" d="M663.13,704.2v-2.55h12.13v2.55Z"/><path class="cls-5" d="M114.12,758.16V740.3h2.66v17.86Zm12.27,0V747.22a4.7,4.7,0,0,0-1.33-3.52,4.58,4.58,0,0,0-3.34-1.31,5.26,5.26,0,0,0-2.49.59,4.52,4.52,0,0,0-1.79,1.65,4.75,4.75,0,0,0-.66,2.55l-1.22-.5a6.82,6.82,0,0,1,.91-3.57,6.35,6.35,0,0,1,2.45-2.35,7.17,7.17,0,0,1,3.48-.84,6.83,6.83,0,0,1,3.4.84,6.29,6.29,0,0,1,2.4,2.35,7.08,7.08,0,0,1,.89,3.61v11.44Zm12.31,0V747.22a4.7,4.7,0,0,0-1.33-3.52,4.61,4.61,0,0,0-3.38-1.31,5.22,5.22,0,0,0-2.45.59,4.59,4.59,0,0,0-1.79,1.65,4.75,4.75,0,0,0-.66,2.55l-1.6-.5a7.32,7.32,0,0,1,1.09-3.57,6.59,6.59,0,0,1,2.54-2.35,7.28,7.28,0,0,1,3.48-.84,7.09,7.09,0,0,1,3.44.84,6.23,6.23,0,0,1,2.43,2.35,7.08,7.08,0,0,1,.89,3.61v11.44Z"/><path class="cls-5" d="M147.71,736.42a1.7,1.7,0,0,1-1.29-.55,1.88,1.88,0,0,1,0-2.64,1.76,1.76,0,0,1,1.29-.53,1.8,1.8,0,0,1,1.35.53,2,2,0,0,1,0,2.64A1.74,1.74,0,0,1,147.71,736.42Zm-1.33,21.74V740.3h2.7v17.86Z"/><path class="cls-5" d="M154.47,758.16V740.3h2.66v17.86Zm13,0V747.67a5.31,5.31,0,0,0-1.39-3.82,4.83,4.83,0,0,0-3.67-1.46,5.39,5.39,0,0,0-2.73.68,5,5,0,0,0-1.86,1.87,5.2,5.2,0,0,0-.69,2.69l-1.21-.68a6.88,6.88,0,0,1,3.51-6.12,7.39,7.39,0,0,1,3.71-.91,6.79,6.79,0,0,1,6.13,3.65,7.56,7.56,0,0,1,.9,3.65v10.94Z"/><path class="cls-5" d="M183.39,758.54a9.58,9.58,0,0,1-4.83-1.22A8.9,8.9,0,0,1,175.2,754a9.9,9.9,0,0,1,0-9.52,8.86,8.86,0,0,1,3.31-3.32,9.12,9.12,0,0,1,4.67-1.22,8.4,8.4,0,0,1,4.31,1.1,7.94,7.94,0,0,1,3,3.06,9.19,9.19,0,0,1,1.08,4.5,6.32,6.32,0,0,1,0,.71,6.79,6.79,0,0,1-.15.93H175.87v-2.28h14l-.95.83a7.35,7.35,0,0,0-.67-3.4,5.17,5.17,0,0,0-2-2.2,6.11,6.11,0,0,0-3.17-.78,6.63,6.63,0,0,0-3.39.84,5.89,5.89,0,0,0-2.26,2.33,8.16,8.16,0,0,0,0,7.17,6.1,6.1,0,0,0,2.4,2.43,7.07,7.07,0,0,0,3.55.87,7.37,7.37,0,0,0,3-.59,6.05,6.05,0,0,0,2.32-1.76l1.71,1.74a8.48,8.48,0,0,1-3.1,2.3A9.6,9.6,0,0,1,183.39,758.54Z"/><path class="cls-5" d="M202,742.69V740.3h11.67v2.39Zm4.52,15.47V732.78h2.66v25.38Z"/><path class="cls-5" d="M217.32,758.16v-26.9H220v26.9Zm13,0V747.67a5.31,5.31,0,0,0-1.39-3.82,4.81,4.81,0,0,0-3.66-1.46,5.41,5.41,0,0,0-2.74.68,5,5,0,0,0-1.86,1.87,5.2,5.2,0,0,0-.69,2.69l-1.21-.68a6.86,6.86,0,0,1,.95-3.61,6.93,6.93,0,0,1,2.56-2.51,7.39,7.39,0,0,1,3.71-.91,7.13,7.13,0,0,1,3.65.93,6.52,6.52,0,0,1,2.48,2.57,7.74,7.74,0,0,1,.9,3.8v10.94Z"/><path class="cls-5" d="M246.24,758.54a9.51,9.51,0,0,1-4.82-1.22,9,9,0,0,1-3.37-3.34,9.9,9.9,0,0,1,0-9.52,8.94,8.94,0,0,1,3.31-3.32,9.12,9.12,0,0,1,4.67-1.22,8.46,8.46,0,0,1,4.32,1.1,8,8,0,0,1,3,3.06,9.19,9.19,0,0,1,1.08,4.5c0,.21,0,.44,0,.71a9.12,9.12,0,0,1-.16.93H238.72v-2.28h14l-1,.83a7.35,7.35,0,0,0-.67-3.4,5.1,5.1,0,0,0-2-2.2,6.08,6.08,0,0,0-3.17-.78,6.6,6.6,0,0,0-3.38.84,5.85,5.85,0,0,0-2.27,2.33,8.16,8.16,0,0,0,0,7.17,6.1,6.1,0,0,0,2.4,2.43,7.07,7.07,0,0,0,3.55.87,7.37,7.37,0,0,0,3-.59,6,6,0,0,0,2.32-1.76l1.71,1.74a8.48,8.48,0,0,1-3.1,2.3A9.6,9.6,0,0,1,246.24,758.54Z"/><path class="cls-5" d="M274.7,758.54a9.07,9.07,0,0,1-4.69-1.25,9.36,9.36,0,0,1-4.58-8.14,8.94,8.94,0,0,1,1.24-4.67,9.27,9.27,0,0,1,3.34-3.33,9.15,9.15,0,0,1,4.69-1.23,9.25,9.25,0,0,1,4.72,1.22,9,9,0,0,1,3.32,3.32,9.16,9.16,0,0,1,1.24,4.69,9.27,9.27,0,0,1-1.24,4.77,9.41,9.41,0,0,1-3.32,3.37A9.07,9.07,0,0,1,274.7,758.54Zm0-2.58a6.49,6.49,0,0,0,3.37-.88,6.29,6.29,0,0,0,2.31-2.43,7.15,7.15,0,0,0,.86-3.5,6.86,6.86,0,0,0-.86-3.44,6.41,6.41,0,0,0-2.31-2.37,6.9,6.9,0,0,0-6.71,0,6.21,6.21,0,0,0-2.32,2.37,7,7,0,0,0-.83,3.44,7.24,7.24,0,0,0,.83,3.52,6.18,6.18,0,0,0,2.32,2.41A6.48,6.48,0,0,0,274.7,756Z"/><path class="cls-5" d="M285.68,742.69V740.3h23.64v2.39Zm4.49,15.47V737.87a6.93,6.93,0,0,1,.83-3.42,6.12,6.12,0,0,1,2.34-2.34,6.83,6.83,0,0,1,3.44-.85,5.9,5.9,0,0,1,3.25.83,5.18,5.18,0,0,1,2,2.3,8.08,8.08,0,0,1,.64,3.29h-2a4.36,4.36,0,0,0-1-2.89,3.64,3.64,0,0,0-2.87-1.1,3.67,3.67,0,0,0-2.91,1.14,4.42,4.42,0,0,0-1,3v20.29Zm10.49,0v-20.9a6.59,6.59,0,0,1,.83-3.31,6.11,6.11,0,0,1,2.28-2.26,6.65,6.65,0,0,1,3.31-.81,6,6,0,0,1,2.54.51,7.12,7.12,0,0,1,2,1.42l-1.75,1.75a4.26,4.26,0,0,0-1.27-.89,3.92,3.92,0,0,0-1.54-.29,3.58,3.58,0,0,0-2.76,1,4.16,4.16,0,0,0-1,2.91v20.82Z"/><path class="cls-5" d="M320.11,758.54a9.54,9.54,0,0,1-4.82-1.22,9,9,0,0,1-3.37-3.34,9.9,9.9,0,0,1,0-9.52,8.94,8.94,0,0,1,3.31-3.32,9.12,9.12,0,0,1,4.67-1.22,8.44,8.44,0,0,1,4.32,1.1,8,8,0,0,1,3,3.06,9.19,9.19,0,0,1,1.08,4.5c0,.21,0,.44,0,.71a9.12,9.12,0,0,1-.16.93H312.59v-2.28h14l-.95.83a7.36,7.36,0,0,0-.66-3.4,5.13,5.13,0,0,0-2-2.2,6.08,6.08,0,0,0-3.17-.78,6.6,6.6,0,0,0-3.38.84,5.76,5.76,0,0,0-2.26,2.33,7.29,7.29,0,0,0-.82,3.56,7.41,7.41,0,0,0,.85,3.61,6.1,6.1,0,0,0,2.4,2.43,7.07,7.07,0,0,0,3.55.87,7.37,7.37,0,0,0,3-.59,6,6,0,0,0,2.32-1.76l1.71,1.74a8.48,8.48,0,0,1-3.1,2.3A9.6,9.6,0,0,1,320.11,758.54Z"/><path class="cls-5" d="M332.31,758.16V740.3H335v17.86ZM335,747.75l-1.1-.5a8.07,8.07,0,0,1,1.65-5.35,5.6,5.6,0,0,1,4.54-2,5.74,5.74,0,0,1,4.49,2l-1.75,1.86a3.86,3.86,0,0,0-1.43-1,4.89,4.89,0,0,0-1.76-.3,4.43,4.43,0,0,0-3.35,1.35A5.53,5.53,0,0,0,335,747.75Z"/><path class="cls-5" d="M348.69,736.42a1.7,1.7,0,0,1-1.29-.55,1.88,1.88,0,0,1,0-2.64,1.76,1.76,0,0,1,1.29-.53,1.8,1.8,0,0,1,1.35.53,2,2,0,0,1,0,2.64A1.74,1.74,0,0,1,348.69,736.42Zm-1.33,21.74V740.3h2.7v17.86Z"/><path class="cls-5" d="M355.45,758.16V740.3h2.66v17.86Zm13,0V747.67a5.31,5.31,0,0,0-1.39-3.82,4.83,4.83,0,0,0-3.67-1.46,5.39,5.39,0,0,0-2.73.68,5,5,0,0,0-1.86,1.87,5.2,5.2,0,0,0-.69,2.69L356.9,747a6.88,6.88,0,0,1,3.51-6.12,7.39,7.39,0,0,1,3.71-.91,6.79,6.79,0,0,1,6.13,3.65,7.56,7.56,0,0,1,.9,3.65v10.94Z"/><path class="cls-5" d="M383.69,758a8.47,8.47,0,0,1-7.57-4.41,10,10,0,0,1,0-9.25,8.22,8.22,0,0,1,3.09-3.21,9.05,9.05,0,0,1,8.19-.38,6.65,6.65,0,0,1,2.66,2.26,7.55,7.55,0,0,1,1.24,3.44v5.05a7.32,7.32,0,0,1-1.26,3.4,6.92,6.92,0,0,1-2.66,2.28A8.06,8.06,0,0,1,383.69,758Zm-.19,8.09a11,11,0,0,1-4.81-1,8.65,8.65,0,0,1-3.4-2.83l1.75-1.75a7.15,7.15,0,0,0,2.69,2.24,8.69,8.69,0,0,0,3.84.8,7,7,0,0,0,4.85-1.64,5.7,5.7,0,0,0,1.8-4.44V753l.53-4.06-.53-4v-4.6h2.66v17.14A8.49,8.49,0,0,1,391.7,762a8.05,8.05,0,0,1-3.28,3A10.68,10.68,0,0,1,383.5,766.06Zm.68-10.64a6.44,6.44,0,0,0,3.25-.79,5.56,5.56,0,0,0,2.16-2.27,7.18,7.18,0,0,0,.78-3.43,7,7,0,0,0-.78-3.39,5.76,5.76,0,0,0-2.18-2.28,6.36,6.36,0,0,0-3.27-.83,6.62,6.62,0,0,0-3.32.83,6,6,0,0,0-2.28,2.28,7.32,7.32,0,0,0,0,6.77,5.86,5.86,0,0,0,2.28,2.3A6.69,6.69,0,0,0,384.18,755.42Z"/><path class="cls-5" d="M406.41,765.68V740.3h2.66v4.56l-.53,4.33.53,4.37v12.12Zm9.23-7.14a7.92,7.92,0,0,1-3.68-.84,7.22,7.22,0,0,1-4-5.7v-5.58a7.18,7.18,0,0,1,1.3-3.44,7.08,7.08,0,0,1,2.71-2.26,8.65,8.65,0,0,1,8.08.43,8.93,8.93,0,0,1,3.13,3.35,10.34,10.34,0,0,1,0,9.48,8.76,8.76,0,0,1-3.13,3.32A8.27,8.27,0,0,1,415.64,758.54Zm-.45-2.55a6.43,6.43,0,0,0,3.34-.85,6,6,0,0,0,2.26-2.4,8,8,0,0,0,0-7,6.08,6.08,0,0,0-2.26-2.4,6.26,6.26,0,0,0-3.3-.87,6.17,6.17,0,0,0-3.29.87,6.08,6.08,0,0,0-2.23,2.4,8.24,8.24,0,0,0,0,7,6,6,0,0,0,2.21,2.4A6.18,6.18,0,0,0,415.19,756Z"/><path class="cls-5" d="M428.64,758.16V740.3h2.66v17.86Zm2.66-10.41-1.1-.5a8.07,8.07,0,0,1,1.65-5.35,5.59,5.59,0,0,1,4.54-2,6.16,6.16,0,0,1,2.43.47,6,6,0,0,1,2.05,1.51l-1.74,1.86a3.86,3.86,0,0,0-1.43-1,4.9,4.9,0,0,0-1.77-.3,4.42,4.42,0,0,0-3.34,1.35A5.53,5.53,0,0,0,431.3,747.75Z"/><path class="cls-5" d="M445,736.42a1.74,1.74,0,0,1-1.3-.55,1.91,1.91,0,0,1,0-2.64,1.8,1.8,0,0,1,1.3-.53,1.83,1.83,0,0,1,1.35.53,2,2,0,0,1,0,2.64A1.77,1.77,0,0,1,445,736.42Zm-1.33,21.74V740.3h2.69v17.86Z"/><path class="cls-5" d="M459.91,758.54a9.16,9.16,0,0,1-8.07-4.6,9.23,9.23,0,0,1-1.24-4.75,9.13,9.13,0,0,1,1.24-4.73,8.94,8.94,0,0,1,3.34-3.32,9.74,9.74,0,0,1,8.49-.46,8.42,8.42,0,0,1,3,2.13l-1.75,1.78a6.08,6.08,0,0,0-2.2-1.57,7,7,0,0,0-2.78-.55,6.57,6.57,0,0,0-3.38.87,6.21,6.21,0,0,0-2.32,2.37,7,7,0,0,0-.83,3.48,7.16,7.16,0,0,0,.83,3.48,6.18,6.18,0,0,0,2.32,2.41,6.58,6.58,0,0,0,3.38.88,7,7,0,0,0,2.81-.56,6,6,0,0,0,2.21-1.57l1.78,1.78a8.43,8.43,0,0,1-3,2.17A9.39,9.39,0,0,1,459.91,758.54Z"/><path class="cls-5" d="M478.34,758.54a9.54,9.54,0,0,1-4.82-1.22,9,9,0,0,1-3.37-3.34,9.9,9.9,0,0,1,0-9.52,8.94,8.94,0,0,1,3.31-3.32,9.12,9.12,0,0,1,4.67-1.22,8.44,8.44,0,0,1,4.32,1.1,8,8,0,0,1,3,3.06,9.19,9.19,0,0,1,1.08,4.5c0,.21,0,.44,0,.71a9.12,9.12,0,0,1-.16.93H470.82v-2.28h14l-.95.83a7.36,7.36,0,0,0-.66-3.4,5.13,5.13,0,0,0-2-2.2,6.08,6.08,0,0,0-3.17-.78,6.6,6.6,0,0,0-3.38.84,5.76,5.76,0,0,0-2.26,2.33,7.29,7.29,0,0,0-.82,3.56,7.41,7.41,0,0,0,.85,3.61,6.1,6.1,0,0,0,2.4,2.43,7.07,7.07,0,0,0,3.55.87,7.37,7.37,0,0,0,3-.59,6,6,0,0,0,2.32-1.76l1.71,1.74a8.48,8.48,0,0,1-3.1,2.3A9.6,9.6,0,0,1,478.34,758.54Z"/><path class="cls-5" d="M506.8,758.54a9.07,9.07,0,0,1-4.69-1.25,9.36,9.36,0,0,1-3.34-3.39,9.23,9.23,0,0,1-1.24-4.75,8.94,8.94,0,0,1,1.24-4.67,9.35,9.35,0,0,1,3.34-3.33,9.15,9.15,0,0,1,4.69-1.23,9.25,9.25,0,0,1,4.72,1.22,9,9,0,0,1,3.32,3.32,9.16,9.16,0,0,1,1.24,4.69,9.27,9.27,0,0,1-1.24,4.77,9.41,9.41,0,0,1-3.32,3.37A9.07,9.07,0,0,1,506.8,758.54Zm0-2.58a6.49,6.49,0,0,0,3.37-.88,6.31,6.31,0,0,0,2.32-2.43,7.14,7.14,0,0,0,.85-3.5,6.86,6.86,0,0,0-.85-3.44,6.69,6.69,0,0,0-9-2.37,6.21,6.21,0,0,0-2.32,2.37,7,7,0,0,0-.83,3.44,7.24,7.24,0,0,0,.83,3.52,6.18,6.18,0,0,0,2.32,2.41A6.48,6.48,0,0,0,506.8,756Z"/><path class="cls-5" d="M517.79,742.69V740.3h13.14v2.39Zm4.48,15.47v-20.9a6.58,6.58,0,0,1,.82-3.31,5.83,5.83,0,0,1,2.28-2.26,6.72,6.72,0,0,1,3.32-.81,6,6,0,0,1,2.55.51,7.22,7.22,0,0,1,2,1.42l-1.75,1.75a4.14,4.14,0,0,0-1.27-.89,3.88,3.88,0,0,0-1.54-.29,3.54,3.54,0,0,0-2.75,1,4.11,4.11,0,0,0-1,2.91v20.82Z"/><path class="cls-5" d="M541.08,742.69V740.3h11.67v2.39Zm4.52,15.47V732.78h2.66v25.38Z"/><path class="cls-5" d="M556.39,758.16v-26.9h2.66v26.9Zm13,0V747.67a5.31,5.31,0,0,0-1.39-3.82,4.81,4.81,0,0,0-3.66-1.46,5.41,5.41,0,0,0-2.74.68,5,5,0,0,0-1.86,1.87,5.2,5.2,0,0,0-.69,2.69l-1.21-.68a6.86,6.86,0,0,1,.95-3.61,6.93,6.93,0,0,1,2.56-2.51,7.39,7.39,0,0,1,3.71-.91,7.13,7.13,0,0,1,3.65.93,6.52,6.52,0,0,1,2.48,2.57,7.74,7.74,0,0,1,.9,3.8v10.94Z"/><path class="cls-5" d="M585.31,758.54a9.51,9.51,0,0,1-4.82-1.22,9,9,0,0,1-3.37-3.34,9.9,9.9,0,0,1,0-9.52,8.94,8.94,0,0,1,3.31-3.32,9.12,9.12,0,0,1,4.67-1.22,8.46,8.46,0,0,1,4.32,1.1,8,8,0,0,1,3,3.06,9.19,9.19,0,0,1,1.08,4.5c0,.21,0,.44,0,.71a9.12,9.12,0,0,1-.16.93H577.79v-2.28h14l-.95.83a7.35,7.35,0,0,0-.67-3.4,5.1,5.1,0,0,0-2-2.2,6.08,6.08,0,0,0-3.17-.78,6.6,6.6,0,0,0-3.38.84,5.85,5.85,0,0,0-2.27,2.33,8.16,8.16,0,0,0,0,7.17,6.1,6.1,0,0,0,2.4,2.43,7.07,7.07,0,0,0,3.55.87,7.37,7.37,0,0,0,3-.59,6,6,0,0,0,2.32-1.76l1.71,1.74a8.48,8.48,0,0,1-3.1,2.3A9.6,9.6,0,0,1,585.31,758.54Z"/><path class="cls-5" d="M613.81,758.54a9.16,9.16,0,0,1-8.07-4.6,9.23,9.23,0,0,1-1.24-4.75,9.13,9.13,0,0,1,1.24-4.73,8.94,8.94,0,0,1,3.34-3.32,9.74,9.74,0,0,1,8.49-.46,8.42,8.42,0,0,1,3,2.13l-1.75,1.78a6.08,6.08,0,0,0-2.2-1.57,7,7,0,0,0-2.78-.55,6.54,6.54,0,0,0-3.38.87,6.21,6.21,0,0,0-2.32,2.37,7,7,0,0,0-.83,3.48,7.16,7.16,0,0,0,.83,3.48,6.18,6.18,0,0,0,2.32,2.41,6.55,6.55,0,0,0,3.38.88,7,7,0,0,0,2.81-.56,6.11,6.11,0,0,0,2.21-1.57l1.78,1.78a8.43,8.43,0,0,1-3,2.17A9.42,9.42,0,0,1,613.81,758.54Z"/><path class="cls-5" d="M632.09,758.54a9,9,0,0,1-4.69-1.25,9.3,9.3,0,0,1-4.58-8.14,9,9,0,0,1,1.23-4.67,9.38,9.38,0,0,1,3.35-3.33,9.22,9.22,0,0,1,14,8,9.26,9.26,0,0,1-1.23,4.77,9.51,9.51,0,0,1-3.33,3.37A9,9,0,0,1,632.09,758.54Zm0-2.58a6.43,6.43,0,0,0,3.36-.88,6.24,6.24,0,0,0,2.32-2.43,7.15,7.15,0,0,0,.86-3.5,6.86,6.86,0,0,0-.86-3.44,6.33,6.33,0,0,0-5.68-3.24,6.45,6.45,0,0,0-3.34.87,6.14,6.14,0,0,0-2.32,2.37,7,7,0,0,0-.84,3.44,7.24,7.24,0,0,0,.84,3.52,6.11,6.11,0,0,0,2.32,2.41A6.46,6.46,0,0,0,632.09,756Z"/><path class="cls-5" d="M645.58,758.16V740.3h2.66v17.86Zm12.27,0V747.22a4.7,4.7,0,0,0-1.33-3.52,4.57,4.57,0,0,0-3.34-1.31,5.32,5.32,0,0,0-2.49.59,4.59,4.59,0,0,0-1.79,1.65,4.75,4.75,0,0,0-.66,2.55l-1.22-.5a6.82,6.82,0,0,1,.92-3.57,6.22,6.22,0,0,1,2.45-2.35,7.1,7.1,0,0,1,3.47-.84,6.83,6.83,0,0,1,3.4.84,6.29,6.29,0,0,1,2.4,2.35,7.08,7.08,0,0,1,.89,3.61v11.44Zm12.32,0V747.22a4.74,4.74,0,0,0-1.33-3.52,4.65,4.65,0,0,0-3.39-1.31A5.24,5.24,0,0,0,663,743a4.49,4.49,0,0,0-1.78,1.65,4.66,4.66,0,0,0-.67,2.55l-1.59-.5a7.21,7.21,0,0,1,1.08-3.57,6.59,6.59,0,0,1,2.54-2.35,7.28,7.28,0,0,1,3.48-.84,7.06,7.06,0,0,1,3.44.84,6.1,6.1,0,0,1,2.43,2.35,7,7,0,0,1,.89,3.61v11.44Z"/><path class="cls-5" d="M677.84,749.8v-2.55H690v2.55Z"/><path class="cls-5" d="M275.33,811.28V785.9H278v4.56l-.53,4.33.53,4.37v12.12Zm9.23-7.14a7.94,7.94,0,0,1-3.68-.84A7.34,7.34,0,0,1,278.2,801a7.15,7.15,0,0,1-1.27-3.41V792a7,7,0,0,1,4-5.7,8.6,8.6,0,0,1,8.07.44,8.93,8.93,0,0,1,3.14,3.34,10.42,10.42,0,0,1,0,9.48A8.87,8.87,0,0,1,289,802.9,8.27,8.27,0,0,1,284.56,804.14Zm-.45-2.55a6.41,6.41,0,0,0,3.34-.85,5.92,5.92,0,0,0,2.26-2.39,8,8,0,0,0,0-7.05,6,6,0,0,0-2.26-2.4,6.67,6.67,0,0,0-6.59,0,6,6,0,0,0-2.22,2.4,8.17,8.17,0,0,0,0,7.05,5.91,5.91,0,0,0,2.2,2.39A6.18,6.18,0,0,0,284.11,801.59Z"/><path class="cls-5" d="M305.31,804.14a8.48,8.48,0,0,1-4.56-1.24,8.87,8.87,0,0,1-3.17-3.32,9.56,9.56,0,0,1-1.16-4.71,9.79,9.79,0,0,1,1.16-4.77,8.78,8.78,0,0,1,3.17-3.34,8.41,8.41,0,0,1,4.52-1.24,8,8,0,0,1,3.67.82,6.8,6.8,0,0,1,2.62,2.28,7.41,7.41,0,0,1,1.24,3.4v5.58a7.49,7.49,0,0,1-1.24,3.42,6.77,6.77,0,0,1-2.62,2.3A7.88,7.88,0,0,1,305.31,804.14Zm.42-2.55a5.76,5.76,0,0,0,4.47-1.86,7,7,0,0,0,1.69-4.9,7.73,7.73,0,0,0-.78-3.55,5.81,5.81,0,0,0-2.17-2.4,6.06,6.06,0,0,0-3.25-.85,6.45,6.45,0,0,0-3.36.87,6.32,6.32,0,0,0-2.32,2.41,7.14,7.14,0,0,0-.85,3.52,7,7,0,0,0,.85,3.5,6.32,6.32,0,0,0,2.34,2.39A6.54,6.54,0,0,0,305.73,801.59Zm6,2.17V799l.54-4.41-.54-4.29V785.9h2.66v17.86Z"/><path class="cls-5" d="M319.79,803.76V785.9h2.66v17.86Zm13,0V793.27a5.36,5.36,0,0,0-1.39-3.82,4.85,4.85,0,0,0-3.67-1.46,5.37,5.37,0,0,0-2.73.68,5.08,5.08,0,0,0-1.87,1.87,5.3,5.3,0,0,0-.68,2.69l-1.22-.68a6.87,6.87,0,0,1,3.52-6.12,7.38,7.38,0,0,1,3.7-.91,6.79,6.79,0,0,1,6.14,3.65,7.55,7.55,0,0,1,.89,3.65v10.94Z"/><path class="cls-5" d="M346.43,803.84,338.6,785.9h2.93l6.3,15h-1.1l6.65-15h3L348,803.84Zm-4.87,7.44,4.91-10.14,1.48,2.7-3.46,7.44Z"/><path class="cls-5" d="M360.72,785.29l-.69-8.43h3l-.68,8.43Z"/><path class="cls-5" d="M372.34,804.14a9.47,9.47,0,0,1-2.77-.4,8.73,8.73,0,0,1-2.41-1.12,8.09,8.09,0,0,1-1.88-1.71l1.71-1.75a6.83,6.83,0,0,0,2.41,1.92,7,7,0,0,0,3,.63,4.88,4.88,0,0,0,2.79-.69,2.16,2.16,0,0,0,1-1.9,2.26,2.26,0,0,0-.72-1.78,5.38,5.38,0,0,0-1.85-1c-.74-.25-1.53-.5-2.37-.74a14.56,14.56,0,0,1-2.39-.91,4.8,4.8,0,0,1-1.85-1.54,4.35,4.35,0,0,1-.7-2.58,4.73,4.73,0,0,1,.74-2.65,4.82,4.82,0,0,1,2.13-1.74,7.88,7.88,0,0,1,3.29-.63,8.93,8.93,0,0,1,3.64.72,6.2,6.2,0,0,1,2.63,2.13l-1.71,1.71a5.43,5.43,0,0,0-2-1.58,6.45,6.45,0,0,0-2.68-.55,4.25,4.25,0,0,0-2.6.67,2,2,0,0,0-.89,1.73,2,2,0,0,0,.72,1.61,5.59,5.59,0,0,0,1.84.95c.75.24,1.54.48,2.38.72a13.37,13.37,0,0,1,2.39,1,5.1,5.1,0,0,1,1.84,1.6,4.67,4.67,0,0,1,.71,2.72,4.71,4.71,0,0,1-1.73,3.82A7.18,7.18,0,0,1,372.34,804.14Z"/><path class="cls-5" d="M396.63,804.14a9.49,9.49,0,0,1-2.78-.4,8.73,8.73,0,0,1-2.41-1.12,8.3,8.3,0,0,1-1.88-1.71l1.71-1.75a6.92,6.92,0,0,0,2.41,1.92,7.07,7.07,0,0,0,3,.63,4.88,4.88,0,0,0,2.79-.69,2.14,2.14,0,0,0,1-1.9,2.26,2.26,0,0,0-.72-1.78,5.42,5.42,0,0,0-1.84-1c-.75-.25-1.54-.5-2.38-.74a14.92,14.92,0,0,1-2.39-.91,4.8,4.8,0,0,1-1.85-1.54,4.42,4.42,0,0,1-.7-2.58,4.73,4.73,0,0,1,.74-2.65,4.93,4.93,0,0,1,2.13-1.74,7.91,7.91,0,0,1,3.29-.63,9,9,0,0,1,3.65.72,6.23,6.23,0,0,1,2.62,2.13l-1.71,1.71a5.35,5.35,0,0,0-2-1.58,6.45,6.45,0,0,0-2.68-.55,4.27,4.27,0,0,0-2.6.67,2,2,0,0,0-.89,1.73,2,2,0,0,0,.72,1.61,5.59,5.59,0,0,0,1.84.95c.75.24,1.54.48,2.38.72a13.37,13.37,0,0,1,2.39,1,5,5,0,0,1,1.84,1.6,4.67,4.67,0,0,1,.71,2.72,4.71,4.71,0,0,1-1.73,3.82A7.15,7.15,0,0,1,396.63,804.14Z"/><path class="cls-5" d="M407.27,803.76v-26.9h2.65v26.9Zm13,0V793.27a5.31,5.31,0,0,0-1.39-3.82,4.81,4.81,0,0,0-3.66-1.46,5.43,5.43,0,0,0-2.74.68,5.06,5.06,0,0,0-1.86,1.87,5.2,5.2,0,0,0-.69,2.69l-1.21-.68a6.88,6.88,0,0,1,3.51-6.12,7.42,7.42,0,0,1,3.71-.91,7.13,7.13,0,0,1,3.65.93,6.62,6.62,0,0,1,2.49,2.57,7.84,7.84,0,0,1,.89,3.8v10.94Z"/><path class="cls-5" d="M435.69,804.14a8.48,8.48,0,0,1-4.56-1.24,8.87,8.87,0,0,1-3.17-3.32,9.45,9.45,0,0,1-1.16-4.71A9.68,9.68,0,0,1,428,790.1a8.78,8.78,0,0,1,3.17-3.34,8.41,8.41,0,0,1,4.52-1.24,8,8,0,0,1,3.67.82,6.87,6.87,0,0,1,2.62,2.28,7.4,7.4,0,0,1,1.23,3.4v5.58a7.48,7.48,0,0,1-1.23,3.42,6.84,6.84,0,0,1-2.62,2.3A7.88,7.88,0,0,1,435.69,804.14Zm.42-2.55a5.74,5.74,0,0,0,4.46-1.86,7,7,0,0,0,1.69-4.9,7.73,7.73,0,0,0-.78-3.55,5.86,5.86,0,0,0-2.16-2.4,6.08,6.08,0,0,0-3.25-.85,6.42,6.42,0,0,0-3.36.87,6.32,6.32,0,0,0-2.32,2.41,7.14,7.14,0,0,0-.86,3.52,7,7,0,0,0,.86,3.5,6.37,6.37,0,0,0,2.33,2.39A6.58,6.58,0,0,0,436.11,801.59Zm6,2.17V799l.53-4.41-.53-4.29V785.9h2.66v17.86Z"/><path class="cls-5" d="M450.17,803.76V785.9h2.66v17.86Zm2.66-10.41-1.11-.5a8.08,8.08,0,0,1,1.66-5.35,5.59,5.59,0,0,1,4.54-2,6,6,0,0,1,2.43.48,5.85,5.85,0,0,1,2,1.5l-1.75,1.86a3.83,3.83,0,0,0-1.42-1,4.9,4.9,0,0,0-1.77-.3,4.41,4.41,0,0,0-3.34,1.35A5.53,5.53,0,0,0,452.83,793.35Z"/><path class="cls-5" d="M472.85,804.14a9.51,9.51,0,0,1-4.82-1.22,9,9,0,0,1-3.37-3.34,9.9,9.9,0,0,1,0-9.52,8.94,8.94,0,0,1,3.31-3.32,9.12,9.12,0,0,1,4.67-1.22,8.44,8.44,0,0,1,4.32,1.1,8,8,0,0,1,3,3.06,9.19,9.19,0,0,1,1.08,4.5c0,.21,0,.44,0,.71a9.12,9.12,0,0,1-.16.93H465.33v-2.28h14l-1,.83a7.36,7.36,0,0,0-.66-3.4,5.13,5.13,0,0,0-2-2.2,6.08,6.08,0,0,0-3.17-.78,6.6,6.6,0,0,0-3.38.84,5.76,5.76,0,0,0-2.26,2.33,7.29,7.29,0,0,0-.82,3.56,7.41,7.41,0,0,0,.85,3.61,6.1,6.1,0,0,0,2.4,2.43,7.07,7.07,0,0,0,3.55.87,7.37,7.37,0,0,0,3-.59,6,6,0,0,0,2.32-1.76l1.71,1.74a8.48,8.48,0,0,1-3.1,2.3A9.6,9.6,0,0,1,472.85,804.14Z"/><path class="cls-5" d="M490.52,804.14a9.42,9.42,0,0,1-2.77-.4,8.73,8.73,0,0,1-2.41-1.12,8.35,8.35,0,0,1-1.89-1.71l1.71-1.75a7,7,0,0,0,2.42,1.92,7,7,0,0,0,3,.63,4.88,4.88,0,0,0,2.79-.69,2.16,2.16,0,0,0,1-1.9,2.26,2.26,0,0,0-.72-1.78,5.47,5.47,0,0,0-1.85-1c-.74-.25-1.54-.5-2.37-.74a14.68,14.68,0,0,1-2.4-.91,4.77,4.77,0,0,1-1.84-1.54,4.35,4.35,0,0,1-.7-2.58,4.73,4.73,0,0,1,.74-2.65,4.82,4.82,0,0,1,2.13-1.74,7.87,7.87,0,0,1,3.28-.63,8.94,8.94,0,0,1,3.65.72,6.11,6.11,0,0,1,2.62,2.13l-1.71,1.71a5.32,5.32,0,0,0-2-1.58,6.45,6.45,0,0,0-2.68-.55,4.25,4.25,0,0,0-2.6.67,2.05,2.05,0,0,0-.9,1.73,2,2,0,0,0,.73,1.61,5.59,5.59,0,0,0,1.84.95q1.13.36,2.37.72a13.18,13.18,0,0,1,2.4,1,5.1,5.1,0,0,1,1.84,1.6,5.28,5.28,0,0,1-1,6.54A7.14,7.14,0,0,1,490.52,804.14Z"/><path class="cls-5" d="M504,804.14a2,2,0,0,1-1.55-.65,2.17,2.17,0,0,1-.61-1.55,2.1,2.1,0,0,1,.61-1.54,2,2,0,0,1,1.55-.63,2,2,0,0,1,1.52.63,2.1,2.1,0,0,1,.61,1.54,2.17,2.17,0,0,1-.61,1.55A2,2,0,0,1,504,804.14Z"/><path class="cls-5" d="M515,804.14a2,2,0,0,1-1.56-.65,2.17,2.17,0,0,1-.61-1.55,2.1,2.1,0,0,1,.61-1.54,2.2,2.2,0,0,1,3.08,0,2.13,2.13,0,0,1,.6,1.54,2.2,2.2,0,0,1-.6,1.55A2,2,0,0,1,515,804.14Z"/><path class="cls-5" d="M525.94,804.14a2,2,0,0,1-1.56-.65,2.17,2.17,0,0,1-.61-1.55,2.1,2.1,0,0,1,.61-1.54,2.2,2.2,0,0,1,3.08,0,2.13,2.13,0,0,1,.6,1.54,2.2,2.2,0,0,1-.6,1.55A2,2,0,0,1,525.94,804.14Z"/><g id="B56_Chart_Graph_Presentation_Projector" data-name="B56 ,Chart ,Graph ,Presentation ,Projector"><path class="cls-3" d="M504.68,356.34H474.29a10.56,10.56,0,1,0,0,21.11h5.76l-58.32,57.64a29.58,29.58,0,0,0-24.64-6.49l-32-31.67a31.6,31.6,0,0,0,7.4-19.48,31.21,31.21,0,1,0-53.39,21.92l-24.64,33.29a30.82,30.82,0,1,0-14.78,57.64c21.35,0,36.14-21.92,28.74-41.41,30.39-40.59,29.57-38.15,30.39-39.78H347l32,31.67a31.65,31.65,0,0,0-7.39,19.48,31,31,0,0,0,31.21,30.85c18.89,0,33.67-17.05,30.39-35.72l62.42-61.7v3.24a10.68,10.68,0,0,0,21.35,0v-30C515.36,361.21,510.43,356.34,504.68,356.34Zm-225.85,112a10.56,10.56,0,1,1,10.67-10.55A10.81,10.81,0,0,1,278.83,468.38Zm61.59-101.49a10.56,10.56,0,1,1-10.67,10.56A10.82,10.82,0,0,1,340.42,366.89ZM402,468.38a10.56,10.56,0,1,1,10.68-10.55A10.81,10.81,0,0,1,402,468.38Z"/></g></g></g></svg>