<svg xmlns="http://www.w3.org/2000/svg" xmlns:xlink="http://www.w3.org/1999/xlink" viewBox="0 0 600 400"><defs><style>.cls-1{isolation:isolate;}.cls-2{fill:#f7f7f7;stroke:#f7f7f7;stroke-miterlimit:10;}.cls-3{fill:#ecf2fa;}.cls-4{fill:#d3dcf0;}.cls-17,.cls-5{fill:#7171b5;mix-blend-mode:multiply;}.cls-5{opacity:0.15;}.cls-6{fill:#49489e;}.cls-7{fill:#5457a6;}.cls-8{fill:#8483bf;}.cls-9{fill:#2e2c72;}.cls-10{fill:#817ebc;}.cls-11{fill:#6363ad;}.cls-12{fill:#dbe1f2;}.cls-13{fill:#beb9dc;}.cls-14{fill:#c7d1eb;}.cls-15{fill:#dcd8ec;}.cls-16{fill:#fff;}.cls-17{opacity:0.2;}.cls-18{fill:#fed546;}.cls-19{fill:#faa820;}.cls-20{fill:#3e211c;}.cls-21{fill:#312f82;}.cls-22{fill:#6462ac;}.cls-23{fill:#cecde6;}.cls-24{fill:#dce4f4;}.cls-25{fill:#282461;}.cls-26{fill:#e48e25;}.cls-27{fill:#e57525;}.cls-28{fill:#fdb72b;}.cls-29{fill:#2f2e81;}.cls-30{fill:#433f99;}.cls-31{fill:#2f308c;}.cls-32{fill:#5652a3;}.cls-33{fill:#2e2d75;}.cls-34{fill:#9b99cb;}.cls-35{fill:#b9b8dc;}.cls-36{fill:#6765ae;}.cls-37{fill:#b1afd7;}.cls-38{fill:url(#linear-gradient);}.cls-39{fill:url(#linear-gradient-2);}.cls-40{fill:url(#linear-gradient-3);}.cls-41{fill:url(#linear-gradient-4);}.cls-42{fill:#fcb97c;}.cls-43{fill:#f59c5f;}.cls-44{fill:#343289;}.cls-45{fill:#7776b8;}.cls-46{fill:#7070b4;}.cls-47{fill:#6764ad;}.cls-48{fill:#5d61ab;}.cls-49{fill:#f8ce66;}.cls-50{fill:#f7b222;}</style><linearGradient id="linear-gradient" x1="364" y1="288.14" x2="369.58" y2="288.14" gradientTransform="matrix(-1, 0, 0, 1, 826.73, 0)" gradientUnits="userSpaceOnUse"><stop offset="0" stop-color="#3d3a97"/><stop offset="1" stop-color="#6b6db2"/></linearGradient><linearGradient id="linear-gradient-2" x1="348.52" y1="266.09" x2="385.02" y2="266.09" gradientTransform="matrix(-1, 0, 0, 1, 826.73, 0)" gradientUnits="userSpaceOnUse"><stop offset="0" stop-color="#41439b"/><stop offset="0.02" stop-color="#44469c"/><stop offset="0.3" stop-color="#6666ae"/><stop offset="0.56" stop-color="#7e7dbb"/><stop offset="0.8" stop-color="#8d8bc3"/><stop offset="1" stop-color="#9290c6"/></linearGradient><linearGradient id="linear-gradient-3" x1="388.58" y1="303.55" x2="392.82" y2="303.55" xlink:href="#linear-gradient"/><linearGradient id="linear-gradient-4" x1="376.84" y1="286.82" x2="404.52" y2="286.82" xlink:href="#linear-gradient-2"/></defs><g class="cls-1"><g id="Layer_1" data-name="Layer 1"><rect class="cls-2" width="600" height="400"/><path class="cls-3" d="M178.91,26.31C178.24,22.16,174.05,19,169,19s-9.39,3.28-10,7.5c-5.86.86-10.24,4.24-10.24,8.29,0,4.69,5.88,8.5,13.14,8.5a18.23,18.23,0,0,0,7.79-1.66,13,13,0,0,0,5.57,1.22c6,0,10.83-3.81,10.83-8.5C186.08,30.62,183.08,27.49,178.91,26.31Z"/><path class="cls-3" d="M199,50.88c-.36-2.21-2.59-3.92-5.3-3.92s-5,1.75-5.31,4c-3.11.45-5.44,2.25-5.44,4.41,0,2.5,3.13,4.53,7,4.53A9.82,9.82,0,0,0,194.1,59a6.88,6.88,0,0,0,3,.65c3.18,0,5.76-2,5.76-4.53C202.82,53.17,201.23,51.51,199,50.88Z"/><rect class="cls-3" x="259.34" y="76.99" width="8.2" height="100.08"/><rect class="cls-3" x="367.28" y="103.4" width="29.36" height="69.62"/><rect class="cls-3" x="407.37" y="103.38" width="42.22" height="94.3"/><rect class="cls-3" x="215.21" y="72.93" width="35.01" height="127.1"/><rect class="cls-3" x="236.36" y="68.62" width="8.22" height="6.37"/><rect class="cls-3" x="218.37" y="57.58" width="6.68" height="16.98"/><rect class="cls-3" x="273.63" y="104.29" width="45.59" height="106.41"/><polygon class="cls-3" points="312.63 105.09 309.46 98.38 297.86 98.38 294.99 98.38 283.39 98.38 280.22 105.09 296.43 104.94 312.63 105.09"/><rect class="cls-3" x="292.31" y="74.96" width="8.22" height="26.22"/><rect class="cls-3" x="274.68" y="100.02" width="5.14" height="9.38"/><rect class="cls-3" x="313.04" y="100.02" width="5.14" height="9.38"/><rect class="cls-3" x="427.11" y="97.77" width="18.09" height="6.78"/><rect class="cls-3" x="158.47" y="96.2" width="50.99" height="120.27"/><rect class="cls-3" x="166.6" y="89.97" width="34.73" height="8.48"/><rect class="cls-3" x="172.53" y="79.37" width="22.87" height="12.71"/><rect class="cls-3" x="371.09" y="86.3" width="9.01" height="25.03"/><rect class="cls-3" x="373.29" y="67.4" width="2.9" height="25.03"/><rect class="cls-3" x="322.26" y="83.36" width="28.32" height="107.19"/><rect class="cls-3" x="328.68" y="74.45" width="15.59" height="10.25"/><rect class="cls-3" x="331.35" y="61.64" width="10.27" height="15.37"/><rect class="cls-3" x="335.18" y="44.83" width="3.79" height="23.63"/><rect class="cls-3" x="123.81" y="119.21" width="39" height="84.28"/><polygon class="cls-3" points="157.17 119.9 154.46 114.16 144.53 114.16 142.08 114.16 132.16 114.16 129.45 119.9 143.31 119.77 157.17 119.9"/><rect class="cls-3" x="144.03" y="110.32" width="7.9" height="4.24"/><rect class="cls-4" x="117.63" y="198" width="353.52" height="14.73"/><rect class="cls-4" x="332.55" y="147.37" width="46.86" height="57.03"/><rect class="cls-4" x="117.63" y="159.27" width="19.57" height="44.85"/><rect class="cls-4" x="420.92" y="113.85" width="31.13" height="91.61"/><rect class="cls-4" x="314.86" y="152.16" width="25.18" height="56.35"/><rect class="cls-4" x="454.87" y="163.68" width="16.28" height="38.6"/><rect class="cls-4" x="385.77" y="86.34" width="34.15" height="122.04"/><rect class="cls-4" x="381.4" y="150.39" width="42.89" height="59.57"/><rect class="cls-4" x="407.06" y="81.24" width="8.02" height="7.52"/><rect class="cls-4" x="389.51" y="68.2" width="6.52" height="20.06"/><rect class="cls-4" x="328.43" y="107.84" width="44.48" height="73.07"/><polygon class="cls-4" points="366.48 108.63 363.39 102.08 352.07 102.08 349.28 102.08 337.96 102.08 334.87 108.63 350.67 108.48 366.48 108.63"/><rect class="cls-4" x="346.66" y="79.24" width="8.02" height="25.58"/><rect class="cls-4" x="329.46" y="103.68" width="5.01" height="9.15"/><rect class="cls-4" x="366.88" y="103.68" width="5.01" height="9.15"/><rect class="cls-4" x="223.7" y="149.6" width="8" height="52.42"/><rect class="cls-4" x="280.84" y="134.81" width="30.18" height="64.49"/><rect class="cls-4" x="235.71" y="137.55" width="26.62" height="67.91"/><rect class="cls-4" x="259.38" y="155.71" width="17.17" height="49.16"/><rect class="cls-4" x="205.53" y="175.22" width="15.61" height="29.65"/><rect class="cls-4" x="180.56" y="151.8" width="23.41" height="52.29"/><rect class="cls-4" x="252.68" y="129.13" width="5.52" height="10.53"/><rect class="cls-4" x="191.5" y="148.69" width="10.03" height="3.76"/><rect class="cls-4" x="285.65" y="130.39" width="20.56" height="6.02"/><rect class="cls-4" x="289.16" y="122.86" width="13.54" height="9.03"/><rect class="cls-4" x="456.98" y="154.2" width="4.99" height="13.88"/><rect class="cls-4" x="458.21" y="143.72" width="1.61" height="13.88"/><rect class="cls-4" x="138.44" y="142.13" width="37.34" height="62.95"/><rect class="cls-4" x="146.92" y="136.9" width="20.56" height="6.02"/><rect class="cls-4" x="150.43" y="129.38" width="13.54" height="9.03"/><rect class="cls-4" x="155.48" y="119.51" width="4.99" height="13.88"/><rect class="cls-4" x="120.77" y="154.25" width="11.06" height="6.2"/><polygon class="cls-4" points="444.33 109.63 432.43 109.63 427.51 115.79 449.25 115.79 444.33 109.63"/><rect class="cls-4" x="440.97" y="107.25" width="2.6" height="3.46"/><rect class="cls-4" x="441.73" y="92.1" width="1.08" height="15.15"/><path class="cls-3" d="M389.39,26.16a5.19,5.19,0,0,1,.86-3.11,7.91,7.91,0,0,1-1.39-3.23c-2.37,1.63-3.11,6.28.51,9.56l.41-.19.27-.11.08,0,.26-.13A4.61,4.61,0,0,1,389.39,26.16Z"/><path class="cls-3" d="M390.54,28.83a6,6,0,0,0,1.63-1.09,3.3,3.3,0,0,1-.26-1.76,3.41,3.41,0,0,0-1-2.07c-.11-.13-.29-.38-.52-.71A4.84,4.84,0,0,0,390.54,28.83Z"/><path class="cls-3" d="M392,30.89a5.68,5.68,0,0,0,1.12-.64,1.43,1.43,0,0,0,.7-1.05,2.55,2.55,0,0,1,0-.73c.17-.42.66.17.63.21a1.08,1.08,0,0,0,.1-.75.83.83,0,0,0-.56-1,1.5,1.5,0,0,0-1.54.69,6.86,6.86,0,0,1-2.34,1.56c-.37.19-.84.27-1,.69a.69.69,0,0,0,.2.81,2.87,2.87,0,0,0,.78.35,3.37,3.37,0,0,0,1.78-.08Zm1.94-3.23a.2.2,0,0,1,.06-.28.21.21,0,0,1,.28.06.21.21,0,0,1,0,.2.13.13,0,0,0,0-.08.11.11,0,0,0-.15,0,.12.12,0,0,0,0,.16.16.16,0,0,0,.1,0A.19.19,0,0,1,393.93,27.66Z"/><path class="cls-3" d="M392.92,30.51c-.19.12-.38.24-.57.34a.37.37,0,0,0,.16.31.3.3,0,0,1,.15-.39c.15.05.07.34-.13.52C393,31.26,393.22,30.8,392.92,30.51Z"/><path class="cls-3" d="M392,31l-.16.06a5,5,0,0,1-.53.12c0,.15,0,.28.1.31a.32.32,0,0,1,.15-.35c.15.14,0,.49-.18.62a.75.75,0,0,0,.65-.77Z"/><path class="cls-3" d="M390,31.12a2.8,2.8,0,0,1-.81-.35.82.82,0,0,1-.24-.95.91.91,0,0,1,.13-.22,13.8,13.8,0,0,1-2.32-.79,2.21,2.21,0,0,0,.63,3.26,2.66,2.66,0,0,0,3,0,1.59,1.59,0,0,0,0-.89Z"/><path class="cls-3" d="M399.91,24.43a12.82,12.82,0,0,0-2.54.71c-.7.3-2.56,1.17-3.56,1.64l.2,0a.91.91,0,0,1,.56.48.87.87,0,0,1,.09.64,2.11,2.11,0,0,1,0,.26C397.06,27.66,399.7,26.45,399.91,24.43Z"/><path class="cls-3" d="M425.24,31.19A3.37,3.37,0,0,0,426.33,30a.5.5,0,0,1,.76-.05,1,1,0,0,0-.23-.66.75.75,0,0,0-.88-.59c-.41.11-.59.36-1,.34a1.48,1.48,0,0,1-.73-.25c-.55-.39-.82-1.71-.49-2.94s1.08-1.54,1.53-2.43,0-3.54.86-4.53c-2.7.39-6.48,7.47-4.45,10.8-1.51.46-4.23.07-5.12.13-.39,1,0,2.84,1.29,3.18a6.32,6.32,0,0,1,2.68-1.94A4.26,4.26,0,0,0,425.24,31.19Zm1-1.85a.19.19,0,1,1,.19-.33.19.19,0,0,1,.09.16c-.1-.08-.16-.06-.19,0a.11.11,0,0,0,0,.15.11.11,0,0,0,.11,0A.2.2,0,0,1,426.25,29.34Z"/><path class="cls-3" d="M421.33,29.41a6.43,6.43,0,0,1-.15-4.05,13,13,0,0,1-2.75-5.56,9,9,0,0,0,1.09,7.88A18,18,0,0,0,421.33,29.41Z"/><path class="cls-3" d="M410.65,42.32c-.15,0-.41.48-.59.93.12-.42.14-.62,0-.62s-.4.49-.5.7a11.7,11.7,0,0,0-1,1.28A10.37,10.37,0,0,1,407,45.82a2.56,2.56,0,0,0-.53.34c-.18.11-1.11.57-1.52.78a3.94,3.94,0,0,0-1.16.71c-.09.11-.43-.12-.73-.67s-.41-.95-.62-1.24-.71-.43-.88-.67c-.07,0,0,.15,0,.21a36.59,36.59,0,0,1-3.19-2.48c-.55-.62-.72-.86-.84-.8s.27.75.38.87a7.69,7.69,0,0,0,1.08.86c-.68-.33-2.14-1.36-2.3-1.4s-.05.29.11.46a10.54,10.54,0,0,1,1,.81c-.49-.23-1.29-.73-1.4-.65s0,.29.17.46a7.61,7.61,0,0,0,.91.74c-.68-.3-1.15-.47-1.16-.24s.59.61.95.76c-.67-.12-.81.09-.65.26a.89.89,0,0,0,.46.2c-.37.08-.21.48.14.48-.39.11,0,.42.15.46-.22.29.17.47.36.37,0,.14.25.2.4.14,0,.13.14.16.24.16a.2.2,0,0,0,.18.34.18.18,0,0,0,.15.29c-.07.17,0,.37.19.35a.23.23,0,0,0,.24.32s.06.25.18.28a18.84,18.84,0,0,1-2.13-.71c-.36-.18-.52.23-.36.36-.44,0-.64.22-.46.55a.44.44,0,0,0-.33.72.36.36,0,0,0-.06.6.3.3,0,0,0,.17.53c0,.37.36.37.44.36,0,.23.25.34.6.2,0,.37.34.45.56.37.14.35.74.2.88.07,0,.31.39.18.52,0,0,.21.41,0,.6-.06s.9-.14,1-.26.84-.1,1-.26.24-.41.84-.41a4.37,4.37,0,0,0,1.57-.5,6.62,6.62,0,0,0,1.1-.4,6.62,6.62,0,0,0,.88-.7.81.81,0,0,1,.28-.14.42.42,0,0,0,.28-.11c.14.07.26.06.23,0a.42.42,0,0,0-.2-.27c-.16-.12-.27-.24-.28-.34a.39.39,0,0,0-.27-.36,1.05,1.05,0,0,0-.6,0c.18-.26.88-.72,1-.89s.78-.24,1.11-.53a1.69,1.69,0,0,0,.46-.55,6.52,6.52,0,0,0,2-1.64C410.54,43.38,410.85,42.32,410.65,42.32Zm-4.86,5.58a.17.17,0,0,1,.17.17.18.18,0,0,1-.17.17.17.17,0,0,1-.17-.17A.16.16,0,0,1,405.79,47.9Z"/><path class="cls-3" d="M405.75,48.11a.1.1,0,0,0,.1-.1.11.11,0,0,0-.1-.1.1.1,0,0,0-.1.1A.09.09,0,0,0,405.75,48.11Z"/><path class="cls-3" d="M366,35.61c-.07,0-.21.25-.3.48.06-.22.07-.32,0-.32s-.2.25-.25.36-.39.53-.5.65a4.58,4.58,0,0,1-.8.61,1.58,1.58,0,0,0-.27.18c-.09.06-.56.29-.77.39a2.37,2.37,0,0,0-.59.36c-.05.06-.22-.06-.37-.34a5.53,5.53,0,0,0-.32-.62c-.1-.15-.36-.23-.44-.34s0,.07,0,.1a16.46,16.46,0,0,1-1.62-1.26c-.28-.32-.37-.44-.43-.41s.14.38.2.45a3.5,3.5,0,0,0,.55.43c-.35-.17-1.1-.69-1.17-.71s0,.15.05.23a6.4,6.4,0,0,1,.49.42c-.25-.12-.66-.37-.71-.33s0,.15.08.23a3.56,3.56,0,0,0,.47.38c-.35-.15-.59-.25-.59-.13s.3.31.48.39c-.35-.06-.42,0-.33.13a.33.33,0,0,0,.23.1c-.19.05-.1.25.07.25-.19.06,0,.21.08.23-.11.15.08.24.18.19s.13.1.21.07.07.08.12.08,0,.18.09.18a.09.09,0,0,0,.07.14c0,.09,0,.19.1.18a.11.11,0,0,0,.12.16s0,.13.1.14a7.72,7.72,0,0,1-1.09-.36.13.13,0,0,0-.18.19c-.22,0-.33.11-.23.28a.22.22,0,0,0-.17.36.18.18,0,0,0,0,.31.15.15,0,0,0,.08.27c0,.18.18.18.23.18s.13.17.3.1c0,.19.18.23.29.19.07.18.37.1.44,0,0,.17.2.09.27,0,0,.11.21,0,.3,0s.46-.07.51-.13.43,0,.49-.13.12-.21.43-.21a2.28,2.28,0,0,0,.79-.25,3.87,3.87,0,0,0,.56-.2,5.28,5.28,0,0,0,.45-.36.37.37,0,0,1,.14-.07.26.26,0,0,0,.15-.06c.06,0,.12,0,.11,0a.19.19,0,0,0-.1-.13c-.08-.07-.14-.13-.14-.18a.19.19,0,0,0-.14-.18.56.56,0,0,0-.31,0c.1-.13.45-.37.51-.45s.4-.12.57-.27a.78.78,0,0,0,.23-.28,3.36,3.36,0,0,0,1-.83C365.91,36.16,366.07,35.61,366,35.61Zm-2.47,2.84a.09.09,0,0,1,.09.09.09.09,0,0,1-.09.08.08.08,0,0,1-.08-.08A.08.08,0,0,1,363.5,38.45Z"/><path class="cls-3" d="M363.48,38.56a0,0,0,1,0-.05-.05A0,0,0,0,0,363.48,38.56Z"/><path class="cls-4" d="M471.15,201.36l-353.52,2.76v8.61c0,29.49,28.11,53.53,89.3,56.72,18,.94,31.23-23.64,48-17.08,3.41,1.33,7,2.92,10.58,2.44,4.07-.54,7.3-3.55,10.68-5.89C312.25,224,335.37,267.63,387,267.63c50,0,84.14-43.11,84.14-54.9Z"/><path class="cls-5" d="M297.49,237.22l-100.6,58.09a7.24,7.24,0,0,1-6.54,0l-11.09-6.4c-1.8-1.05-1.8-2.74,0-3.78L279.87,227a7.22,7.22,0,0,1,6.53,0l11.09,6.41C299.3,234.49,299.3,236.18,297.49,237.22Z"/><polygon class="cls-6" points="190.53 112.38 190.53 284.57 182.89 280.14 182.89 107.95 190.53 112.38"/><path class="cls-7" d="M182.89,280.14c.05,3.16,1.15,5.41,3,6.41l.35.2,7.29,4.23c-1.86-1-3-3.25-3-6.41Z"/><path class="cls-6" d="M269.89,45.38c2.9-1.7,5.55-1.85,7.46-.7,0,0,7.64,4.43,7.64,4.43-1.91-.85-4.36-.6-7.06,1l-1.5.86L272.77,53,200.94,94.51l-7.64-4.38Z"/><path class="cls-7" d="M193.3,90.13l7.64,4.38c-5.75,3.31-10.41,11.32-10.41,17.87L182.89,108C182.89,101.45,187.6,93.44,193.3,90.13Z"/><path class="cls-8" d="M200.23,90.3a5.53,5.53,0,0,0,5,0l18.28-10.55c1.37-.8,1.37-2.09,0-2.88a5.49,5.49,0,0,0-5,0L200.23,87.42C198.85,88.21,198.85,89.5,200.23,90.3Zm22.61-13.06a1.13,1.13,0,0,1,0,2.13L204.56,89.92a4,4,0,0,1-3.68,0,1.12,1.12,0,0,1,0-2.12l18.27-10.56A4.13,4.13,0,0,1,222.84,77.24Z"/><path class="cls-9" d="M221.61,79.09a.6.6,0,0,0,0-1.14,2.2,2.2,0,0,0-2,0,.6.6,0,0,0,0,1.14A2.2,2.2,0,0,0,221.61,79.09Z"/><path class="cls-8" d="M221.61,78.54a2.2,2.2,0,0,0-2,0,1.06,1.06,0,0,0-.31.27c-.19-.28-.09-.62.31-.86a2.2,2.2,0,0,1,2,0c.4.24.51.58.31.86A1.06,1.06,0,0,0,221.61,78.54Z"/><path class="cls-10" d="M187.32,147.36a2.28,2.28,0,0,0-1-1.77l-1.41-.81a.71.71,0,0,0-.72-.07l1.58-.91a.71.71,0,0,1,.72.07l1.4.81a2.25,2.25,0,0,1,1,1.77v13.36a.7.7,0,0,1-.3.66l-1.57.91a.73.73,0,0,0,.3-.66Z"/><path class="cls-11" d="M184.89,160.5l1.41.81c.56.33,1,.06,1-.59V147.36a2.28,2.28,0,0,0-1-1.77l-1.41-.81c-.56-.32-1-.06-1,.59v13.37A2.23,2.23,0,0,0,184.89,160.5Z"/><path class="cls-8" d="M278,50.08c-81.4,47-70.45,40.64-75.49,43.56a21.39,21.39,0,0,0-8.9,8.68,20.61,20.61,0,0,0-3,10V284.53c.05,6.4,4.7,9,10.41,5.7l77-44.44a21.32,21.32,0,0,0,7.41-7.86,20.32,20.32,0,0,0,3-9.82V55.92C288.36,49.37,283.7,46.73,278,50.08Z"/><path class="cls-12" d="M277.94,243.89c4.75-2.79,8.5-9.29,8.58-14.56V56.79c0-5.38-3.83-7.55-8.54-4.83L201.86,95.89c-6.1,3.52-9.47,10.09-9.47,15.2V283.66c0,5.26,3.88,7.36,8.57,4.66Z"/><path class="cls-13" d="M220.47,230.71v46.36L201,288.32c-4.69,2.7-8.53.6-8.57-4.66V246.92Zm48.11-119.63-9.37,5.41V64.15l9.37-5.41Z"/><path class="cls-13" d="M244,182.49l-5.38,3.1v-6.13l14.75-8.52v13.52L244,189.87Zm-19.26,5,5.53-3.19v23.38l-5.53,3.2ZM234,206.94v8.3l7.38-4.26v5.22l-16.75,9.67V212.35Zm34.62,11.79-4,2.32v28.6l-5.35,3.09V210.62l9.37-5.41Zm-21.22-28.68,6-3.46v13.52l-11,6.34v-5.78l5-2.88Zm6,19.22-6,3.46v-7.38l6-3.46Z"/><path class="cls-13" d="M253.35,164.19,244,169.6v-27l-10.3,5.94v27L224.31,181V143.78l29-16.76ZM219,87.78v52.16l-9.37,5.41V93.19ZM253.35,256.3,244,261.71v-42.5l9.37-5.41Zm15.23-57.49-9.37,5.41V142.57l9.37-5.41Z"/><path class="cls-14" d="M192.39,179.93v-2.48L207,169V150.62l-14.63,8.45v-2.49L207,148.13V92.91l2.15-1.24v55.22l10.61-6.12V85.55l3.68-2.13v54.33l14.91-8.6V74.82l2.15-1.24v54.33l13.67-7.9V65.69l3.69-2.13v55.21l13.06-7.54V56l2.15-1.24V110l13.43-7.75v2.49l-13.43,7.75v18.37l13.43-7.75v2.49l-13.43,7.75V198.9l13.43-7.75v2.49l-13.43,7.75v45.29l-2.15,1.25V202.64l-13.06,7.54v45.29l-3.69,2.13V212.3l-30.73,17.75v45.29l-3.68,2.12V232.18L192.39,248v-2.49L207,237.05V171.49Zm65.49,27.76,13.06-7.54V134.59l-13.06,7.54Zm0-68.05,13.06-7.54V113.72l-13.06,7.54Zm-34.42,87.92,30.73-17.75V169.33l-30.73,17.74Zm0-44.76,30.73-17.74V124.28L223.46,142Zm-14.29,53,10.61-6.12V164.13l-10.61,6.12Zm0-68.05,10.61-6.12V143.26l-10.61,6.12Z"/><polygon class="cls-15" points="192.4 266.75 192.4 266.04 207.79 257.15 207.79 237.85 208.41 237.5 208.41 256.06 220.2 230.83 220.69 230.97 208.41 257.25 208.41 284.03 207.79 284.38 207.79 273.18 192.4 282.07 192.4 281.36 207.79 272.47 207.79 257.87 192.4 266.75"/><path class="cls-16" d="M192.39,179.4V178l15.09-8.71V149.82l-15.09,8.72v-1.43l15.09-8.71V92.65l1.23-.71v55.75L220.39,141V85.2l2.46-1.42v55l16-9.23v-55l1.23-.71v55l14.75-8.51v-55l2.46-1.41v55.74l14.13-8.16V55.76l1.23-.71v55.74l13.89-8v1.42l-13.89,8v19.44l13.89-8v1.42l-13.89,8V199.7l13.89-8v1.42l-13.89,8V247l-1.23.71V201.84L257.27,210v45.82l-2.46,1.42V211.42l-32,18.45v45.82l-2.46,1.42V231.29l-28,16.16V246l15.09-8.71V170.69Zm64.88,29.17,14.13-8.16V133.79L257.27,142Zm0-68,14.13-8.16V112.92l-14.13,8.16Zm-34.42,87.93,32-18.46V168.26l-32,18.45Zm0-44.58,32-18.45V123.21l-32,18.45Zm-14.14,52.74,11.68-6.75V163.24L208.71,170Zm0-68.05,11.68-6.75V142.37l-11.68,6.74Z"/><path class="cls-7" d="M222.42,158.39a17.35,17.35,0,0,0-7.85,13.6c0,3.71,4.87,10.69,6.94,13.48.17.24.6,0,.91-.14a2.12,2.12,0,0,0,.92-.91c2.07-5.19,6.94-17.79,6.94-21.5C230.28,157.91,226.76,155.88,222.42,158.39Z"/><path id="COLOR_" data-name="COLOR!!!" class="cls-12" d="M216,171.17c0,4.13,2.9,5.8,6.47,3.74a14.28,14.28,0,0,0,6.47-11.21c0-4.12-2.89-5.8-6.47-3.73A14.3,14.3,0,0,0,216,171.17Z"/><path class="cls-7" d="M219,167.78l.11-.28c-.08.05-.16.05-.19,0l-.07-.11c-.06-.11-.2-.12-.35,0l-.26.15a.73.73,0,0,0-.29.35,5.68,5.68,0,0,0,1,0Z"/><path class="cls-7" d="M217.91,167.9l0,.09c-.07.17,0,.32.1.31l.68,0a3.3,3.3,0,0,1,.3-.43Z"/><path class="cls-7" d="M225.85,163.82l-.11-.16a.42.42,0,0,0,.2-.23l.06-.18a.89.89,0,0,1,.35-.45l.26-.15a.25.25,0,0,1,.3,0s-1,1.16-1,1.16Z"/><path class="cls-7" d="M226.93,162.69l0,.05c.08.08,0,.28-.09.41l-.69.77a.56.56,0,0,0-.29-.1Z"/><path class="cls-7" d="M218.21,172.35v1.22c0,.11.08.15.17.1l.9-.52a.36.36,0,0,0,.17-.29v-1l-.73.42A.44.44,0,0,1,218.21,172.35Zm7.92-4.29-.74.42v1a.1.1,0,0,0,.17.09l.9-.51a.4.4,0,0,0,.17-.3V167.5A1.44,1.44,0,0,1,226.13,168.06Z"/><path class="cls-7" d="M225.23,162.34a.38.38,0,0,0-.16-.19.81.81,0,0,0-.73.06l-.07,0c-.51.25-1.18.61-1.85,1s-1.33.8-1.85,1.13l-.07.05a2.41,2.41,0,0,0-.73.79,1.65,1.65,0,0,0-.16.36l-.62,2.2a2.64,2.64,0,0,1,.61-.52l5.64-3.26a1.31,1.31,0,0,1,.61-.18Zm-.2,1.58-5.21,3c-.14.08-.23,0-.16-.18l.25-1.08a1.75,1.75,0,0,1,.41-.74,1.87,1.87,0,0,1,.34-.29l.06,0c.48-.32,1.09-.68,1.7-1s1.22-.68,1.7-.92l.07,0a1,1,0,0,1,.31-.1.38.38,0,0,1,.43.28l.26.77C225.25,163.64,225.17,163.84,225,163.92Z"/><path class="cls-7" d="M226.64,164.53a3,3,0,0,1-.23-.35l-.11-.18a.86.86,0,0,0-1.06,0l-5.64,3.26a2.84,2.84,0,0,0-1.06,1.22l-.1.31c-.08.2-.15.41-.24.62a2.17,2.17,0,0,0-.14,1.1v1.27c0,.42.29.59.66.38l7.41-4.27a1.48,1.48,0,0,0,.66-1.15v-1.27C226.79,165,226.84,164.77,226.64,164.53Zm-7.09,5.5-1.05.44c-.19.1-.33,0-.32-.22l0-.42a.58.58,0,0,1,.31-.46l.64-.22a.29.29,0,0,1,.4.21l.11.42A.26.26,0,0,1,219.55,170Zm5.37-1.67-5,2.89c-.07,0-.11-.07-.07-.19l.07-.17a.91.91,0,0,1,.36-.49l4.28-2.47a.26.26,0,0,1,.37.07l.06.09A.22.22,0,0,1,224.92,168.36Zm.15-2.1-.1.32a2.14,2.14,0,0,1-.78,1.08l-1.23.83a7.46,7.46,0,0,1-1.08.62l-1.22.58c-.36.17-.66.1-.78-.17l-.1-.21a.09.09,0,0,1,.05-.1l1.25-.58c.44-.21.89-.44,1.34-.7s.9-.55,1.35-.85l1.24-.86S225.08,166.21,225.07,166.26Zm1.28-.32-1.06.78c-.08.05-.14,0-.12-.11l.11-.55a1.25,1.25,0,0,1,.4-.67l.65-.52c.15-.13.3-.08.31.09l0,.39A.7.7,0,0,1,226.35,165.94Z"/><path class="cls-7" d="M256.58,94a17.34,17.34,0,0,0-7.86,13.6c0,3.71,4.87,10.68,6.95,13.48.17.23.59,0,.91-.15a2,2,0,0,0,.91-.9c2.07-5.19,6.94-17.79,6.94-21.5C264.43,93.49,260.92,91.46,256.58,94Z"/><path id="COLOR_2" data-name="COLOR!!!" class="cls-12" d="M250.11,106.75c0,4.13,2.89,5.8,6.47,3.74a14.32,14.32,0,0,0,6.47-11.21c0-4.13-2.9-5.8-6.47-3.74A14.29,14.29,0,0,0,250.11,106.75Z"/><path class="cls-7" d="M253.15,103.36l.11-.29c-.08.06-.16.06-.2,0L253,103c-.07-.11-.2-.13-.35,0l-.26.15a.8.8,0,0,0-.3.35,5.7,5.7,0,0,0,1,0S253.13,103.38,253.15,103.36Z"/><path class="cls-7" d="M252.07,103.48l0,.09c-.08.17,0,.31.09.3l.69,0a2.57,2.57,0,0,1,.29-.44Z"/><path class="cls-7" d="M260,99.4l-.11-.16a.4.4,0,0,0,.19-.23l.07-.19a.86.86,0,0,1,.35-.44l.26-.15a.22.22,0,0,1,.29,0s-1,1.16-1,1.16Z"/><path class="cls-7" d="M261.09,98.27l0,0a.36.36,0,0,1-.1.42l-.68.76a.75.75,0,0,0-.3-.09Z"/><path class="cls-7" d="M252.37,107.93v1.22c0,.11.08.15.17.1l.9-.52a.4.4,0,0,0,.17-.3v-.94l-.74.42A.42.42,0,0,1,252.37,107.93Zm7.91-4.3-.73.43V105c0,.11.07.16.17.1l.9-.52a.37.37,0,0,0,.17-.29v-1.22A1.4,1.4,0,0,1,260.28,103.63Z"/><path class="cls-7" d="M259.39,97.92a.38.38,0,0,0-.16-.19.81.81,0,0,0-.73.06l-.07,0c-.52.26-1.18.62-1.85,1s-1.34.79-1.85,1.13l-.07.05a2.28,2.28,0,0,0-.73.78,1.48,1.48,0,0,0-.16.37l-.62,2.2a2.12,2.12,0,0,1,.61-.52l5.64-3.26a1.25,1.25,0,0,1,.61-.18Zm-.2,1.57-5.22,3c-.14.08-.22,0-.16-.19l.26-1.07a1.77,1.77,0,0,1,.4-.75,2.2,2.2,0,0,1,.34-.28l.07,0c.48-.31,1.08-.68,1.7-1s1.22-.69,1.7-.93l.06,0a.84.84,0,0,1,.32-.1.38.38,0,0,1,.43.27l.25.78C259.41,99.22,259.32,99.42,259.19,99.49Z"/><path class="cls-7" d="M260.8,100.11c-.09-.11-.16-.23-.24-.35l-.1-.18a.86.86,0,0,0-1.06,0l-5.64,3.26a2.78,2.78,0,0,0-1.06,1.22l-.11.3c-.07.21-.15.42-.23.62a2.12,2.12,0,0,0-.15,1.11v1.27c0,.42.3.59.66.38l7.41-4.28a1.44,1.44,0,0,0,.66-1.14v-1.27C260.94,100.56,261,100.35,260.8,100.11Zm-7.09,5.5-1.06.44c-.18.1-.33,0-.31-.22l0-.43a.56.56,0,0,1,.31-.45l.65-.22a.29.29,0,0,1,.4.21l.11.42A.26.26,0,0,1,253.71,105.61Zm5.37-1.67-5,2.89c-.08,0-.12-.07-.07-.19l.06-.17a1,1,0,0,1,.37-.49l4.28-2.47a.24.24,0,0,1,.36.07l.07.09A.25.25,0,0,1,259.08,103.94Zm.14-2.11-.1.33a2,2,0,0,1-.78,1.07l-1.22.84a8.52,8.52,0,0,1-1.08.62l-1.23.58c-.35.17-.65.1-.78-.17l-.1-.21s0-.08,0-.1l1.25-.58c.45-.21.9-.45,1.35-.7s.9-.55,1.34-.86l1.25-.86S259.23,101.79,259.22,101.83Zm1.28-.31-1.05.77c-.08,0-.14,0-.12-.1l.11-.55a1.19,1.19,0,0,1,.4-.67l.64-.53c.15-.12.3-.08.31.1l0,.39A.73.73,0,0,1,260.5,101.52Z"/><path class="cls-7" d="M255.74,183.38A17.39,17.39,0,0,0,247.89,197c0,3.71,4.87,10.68,6.94,13.47.17.24.6,0,.91-.14a2,2,0,0,0,.92-.91c2.07-5.19,6.94-17.78,6.94-21.49C263.6,182.91,260.08,180.88,255.74,183.38Z"/><path id="COLOR_3" data-name="COLOR!!!" class="cls-12" d="M249.27,196.17c0,4.12,2.9,5.8,6.47,3.73a14.29,14.29,0,0,0,6.48-11.21c0-4.12-2.9-5.8-6.48-3.73A14.31,14.31,0,0,0,249.27,196.17Z"/><path class="cls-7" d="M252.31,192.77l.11-.28c-.08,0-.15,0-.19,0l-.07-.11c-.06-.11-.2-.12-.35,0l-.26.15a.78.78,0,0,0-.29.35,4.87,4.87,0,0,0,1,0Z"/><path class="cls-7" d="M251.23,192.9l0,.08c-.07.17,0,.32.1.31l.68,0a3.3,3.3,0,0,1,.3-.43Z"/><path class="cls-7" d="M259.18,188.81l-.11-.16a.41.41,0,0,0,.19-.23l.07-.18a.78.78,0,0,1,.35-.44l.25-.15a.24.24,0,0,1,.3,0s-1,1.16-1,1.16Z"/><path class="cls-7" d="M260.26,187.69l0,0c.08.08,0,.28-.09.42l-.68.76a.63.63,0,0,0-.3-.1Z"/><path class="cls-7" d="M251.54,197.35v1.21c0,.11.07.15.17.1l.89-.52a.34.34,0,0,0,.17-.29v-.95l-.73.43A.46.46,0,0,1,251.54,197.35Zm7.91-4.3-.74.42v.95c0,.11.08.15.17.1l.9-.52a.38.38,0,0,0,.17-.3v-1.21A1.44,1.44,0,0,1,259.45,193.05Z"/><path class="cls-7" d="M258.55,187.33a.3.3,0,0,0-.15-.18.77.77,0,0,0-.74.06l-.07,0c-.51.26-1.17.62-1.85,1s-1.33.8-1.84,1.14l-.07,0a2.44,2.44,0,0,0-.74.79,1.25,1.25,0,0,0-.15.36l-.63,2.2a2.72,2.72,0,0,1,.62-.52l5.63-3.25a1.23,1.23,0,0,1,.62-.19Zm-.2,1.58-5.21,3c-.14.08-.23,0-.16-.18l.26-1.07a1.62,1.62,0,0,1,.4-.75,1.87,1.87,0,0,1,.34-.29l.06,0c.49-.31,1.09-.68,1.7-1s1.22-.68,1.7-.92l.07,0a1.16,1.16,0,0,1,.31-.11.38.38,0,0,1,.43.28l.26.77C258.58,188.63,258.49,188.83,258.35,188.91Z"/><path class="cls-7" d="M260,189.52a1.8,1.8,0,0,1-.24-.35l-.1-.18a.86.86,0,0,0-1.07,0l-5.63,3.25a2.8,2.8,0,0,0-1.07,1.22l-.1.31c-.08.2-.15.41-.24.62a2.17,2.17,0,0,0-.14,1.1v1.27c0,.43.3.6.66.39l7.41-4.28a1.47,1.47,0,0,0,.66-1.15v-1.26C260.11,190,260.16,189.77,260,189.52Zm-7.1,5.51-1.05.44c-.19.1-.33,0-.32-.23l0-.42a.55.55,0,0,1,.31-.45l.65-.22a.28.28,0,0,1,.4.2l.11.43A.28.28,0,0,1,252.87,195Zm5.37-1.68-5,2.89c-.08,0-.12-.07-.07-.19l.06-.16a1,1,0,0,1,.36-.5l4.28-2.47a.26.26,0,0,1,.37.07l.06.09A.22.22,0,0,1,258.24,193.35Zm.15-2.1-.1.33a2.15,2.15,0,0,1-.78,1.07l-1.23.83a7.46,7.46,0,0,1-1.07.63l-1.23.58c-.35.16-.65.1-.78-.18l-.1-.21s0-.08.05-.1l1.25-.58a14.33,14.33,0,0,0,1.34-.7c.45-.26.91-.55,1.35-.85l1.25-.86S258.4,191.2,258.39,191.25Zm1.28-.32-1.05.78c-.09,0-.15,0-.13-.11l.11-.55a1.25,1.25,0,0,1,.4-.67l.65-.52c.15-.13.3-.08.31.09l0,.4A.71.71,0,0,1,259.67,190.93Z"/><path class="cls-17" d="M282.57,185.72c-15.74,13.63-34,39.12-36.31,41.7-3.72,4.15-11.19,11.39-14.44,15.08a19.85,19.85,0,0,0-3.92,5.81c-.42,1-2.35,6.24-2.77,7.72a2.79,2.79,0,0,1,.09-.34,20.24,20.24,0,0,0-1.35,4.23,57.44,57.44,0,0,0-.79,9.71c.06.21.12.44.19.67,0-.12-.08-.26-.11-.37a16.65,16.65,0,0,0,.07,4.07,10.88,10.88,0,0,0-.13,3.45L278,245.79a21.32,21.32,0,0,0,7.41-7.86,20.32,20.32,0,0,0,3-9.82V180.42C285.84,182.56,283.85,184.37,282.57,185.72Z"/><path class="cls-5" d="M223.46,281.78c0-1.79,1.2-3,2.73-4l118-68.74a15.69,15.69,0,0,1,14.17.05l59.06,34.07,4,2.32.52.3c1.3.75,3.72,2.14,3.73,4.59,0,1.53-1,2.95-2.85,4,0,0-86.59,53.25-117.31,67.41-6.91,3.18-30,6.22-63.85-14.19C223.79,296.86,223.45,282.19,223.46,281.78Z"/><path class="cls-18" d="M412.92,199.34a100.2,100.2,0,0,1-8.19-6.37c-2-1.77-4.64-4.06-6.35-5.45-1.83.49-19.85,8.69-28.19,13.48a158.36,158.36,0,0,0-23.6,16.44A101.67,101.67,0,0,0,336,228.52c-2.08,2.49-4.08,5-5.88,7.54l-.27.36-.4.56-.23.33c-.47.66-.91,1.31-1.35,1.95-5,7.4-11.45,18.32-14.36,22.07s-7.65,6.47-13,10.07-15.45,8.93-17.82,10.22-11.6,7.09-12.49,8.05a11.34,11.34,0,0,1,2.81.09,11.1,11.1,0,0,1,5.34-2.72,63.11,63.11,0,0,1,7.75-.27,38,38,0,0,0,5.43-.37,17.14,17.14,0,0,1,4.11-.45,2.08,2.08,0,0,1,1.3.51c13.28-7.47,102.23-62.41,119.45-77.12a5.48,5.48,0,0,1-.74-3.92,11.76,11.76,0,0,1,1.54-2.57c-1-1.41-2.07-2.65-2.65-3.29A1.61,1.61,0,0,1,412.92,199.34Zm-31.73,26.49c-6.07,4.2-33.37,22.07-38.11,25.13s-22.12,14-23.45,14.47a1.39,1.39,0,0,1-1.93-1.73A109.64,109.64,0,0,1,326.05,247c3-4.69,8.69-13.48,14.81-19.95a115.75,115.75,0,0,1,19.94-16c4-2.37,11.76-6.81,15.9-8.74s11.9-5,15.31-5.63,3.8.05,4.74,1.29a76.77,76.77,0,0,1,6.86,12C402.23,211.07,387.27,221.63,381.19,225.83Z"/><path class="cls-19" d="M417.36,199.39a42.39,42.39,0,0,0-4.19-5c1.74,2.52,2.3,3.82,2,4.52a1.46,1.46,0,0,1-.59.66c.58.64,1.62,1.88,2.65,3.29a3,3,0,0,0,.49-1.1A5.52,5.52,0,0,0,417.36,199.39Z"/><path class="cls-20" d="M325,290.43c-.94-5.69-6-7.37-11.86-4.65,1.3,2,7,10.45,7.8,11a3.73,3.73,0,0,0,2.73.69A11.6,11.6,0,0,0,325,290.43Z"/><ellipse class="cls-6" cx="310.78" cy="301.36" rx="16.03" ry="9.26" transform="translate(-105.59 419.82) rotate(-60)"/><ellipse class="cls-21" cx="310.78" cy="301.36" rx="12.21" ry="7.05" transform="translate(-105.59 419.82) rotate(-60)"/><path class="cls-22" d="M308,294.64c-4,4.1-6,10.43-4.41,14.14s6.05,3.4,10.05-.7,6-10.43,4.41-14.15S312,290.54,308,294.64Z"/><path class="cls-23" d="M302.89,303.57a19,19,0,0,1,2.78-6.53,16.08,16.08,0,0,1,4.64-4.81,7.34,7.34,0,0,1,4.9-1.24,3.82,3.82,0,0,1,3.2,2.54,10.67,10.67,0,0,1,.22,5.73,17.43,17.43,0,0,1-2.64,6.41,17.15,17.15,0,0,1-4.74,4.85,7.14,7.14,0,0,1-4.85,1.34,4.11,4.11,0,0,1-3.23-2.69A10,10,0,0,1,302.89,303.57Zm6.24-3c-.18,0-.43.18-.55.46s-.06.53.12.56.44-.17.55-.45S309.32,300.58,309.13,300.55Zm8.92-1a9.1,9.1,0,0,0-.29-5.44,39.63,39.63,0,0,0-3.1,3c-1.38,1.49-1.29,3.78.17,3.45A17.53,17.53,0,0,0,318.05,299.52Zm-6.92,10.4a15.1,15.1,0,0,0,4.53-4.69,9.74,9.74,0,0,0-2-1.9c-1-.74-2.9,1.19-2.87,2.93A22.2,22.2,0,0,0,311.13,309.92Zm2.3-10.24c0-.25-.2-.33-.42-.19a.86.86,0,0,0-.37.7c0,.25.2.33.42.19A.84.84,0,0,0,313.43,299.68Zm-2,3.29a.75.75,0,0,0-.23.72c.08.19.31.18.52,0a.78.78,0,0,0,.22-.73C311.9,302.74,311.67,302.76,311.47,303Zm0-4.93a.84.84,0,0,0-.49.61c-.05.28.08.46.29.4a.81.81,0,0,0,.48-.61C311.81,298.16,311.68,298,311.47,298Zm-1.15-1.25c.14,1.65,2.1,1.14,3-.81a43.06,43.06,0,0,0,1.67-4.24,6.54,6.54,0,0,0-4.7,1.27A25.15,25.15,0,0,0,310.32,296.79Zm-1,7.43c.17-.26.2-.56.06-.68s-.39,0-.56.26-.2.56-.06.68S309.15,304.48,309.32,304.22Zm-2.53,6.9c.67-1.31,1.34-2.78,1.93-4.28.77-1.95-.51-3-1.94-1.64a41.44,41.44,0,0,0-3.09,3.34A3.82,3.82,0,0,0,306.79,311.12Zm-.15-8.32c1.48-.47,2.58-3.08,1.68-3.95a9.35,9.35,0,0,0-2.22-1.6,17.25,17.25,0,0,0-2.65,6.27A15.78,15.78,0,0,0,306.64,302.8Z"/><path class="cls-24" d="M312.34,299.77a3.15,3.15,0,0,1-.93,3c-.84.86-1.79.93-2.11.15a3.14,3.14,0,0,1,.92-3C311.06,299.06,312,299,312.34,299.77Z"/><path class="cls-25" d="M299.44,307.9c0-7.23,5.08-16,11.34-19.63,4.87-2.81,9-1.67,10.63,2.38a8.16,8.16,0,0,0-3.32-4.49c-.78-.56-6.1-3.51-6.1-3.51l-10.38,8.27-6.11,20.52,5.84,3.36a12.36,12.36,0,0,0,2.93,1C301.35,315.15,299.44,312.34,299.44,307.9Z"/><path class="cls-18" d="M311.61,277.72c-6.93,4.21-12.15,7.33-14.66,8.74a1.05,1.05,0,0,1,.12.93,13.69,13.69,0,0,1-2,4.52,11.51,11.51,0,0,1-4.79,3.78c-2.51,1.26-9.62,1.78-12.49,1.53a66.74,66.74,0,0,1-14.75-3.6c-6.18-2.23-14.35-6-20.77-11.26-3.33-2.75-8.54-7.31-10.16-11.31a10.62,10.62,0,0,1-.31-6.46,18,18,0,0,0-1.4,4.05,16.3,16.3,0,0,0,0,4.34,25.82,25.82,0,0,0,2,5.73c3.71,4.85,12.46,11,15.41,12.64,3.68,2.06,16.1,7.49,20.22,8.13.24,0,2.26.23,4.93.38,4.9.25,8.4.24,13.08-1.06,3.71-1,11.48-5.09,14.64-7-4.18,5.56-5.3,16.76-14.31,20.19a96.54,96.54,0,0,0,9.94-2.23c.52-2.24,1.11-4.9,1.55-6.34A52.23,52.23,0,0,1,304.05,292c2.34-3.15,4.19-5,9.45-7.56a12.05,12.05,0,0,1,4.11-1.21C317.59,281,315.4,278,311.61,277.72Z"/><path class="cls-20" d="M419.43,235a5.62,5.62,0,0,0-3.1-5c-2-1-4.89-1-8.54.58,1.84,1.52,8.36,6.94,9.4,8.36a2.14,2.14,0,0,0,1.48-.52A4.94,4.94,0,0,0,419.43,235Z"/><ellipse class="cls-6" cx="406.29" cy="246.2" rx="16.03" ry="9.26" transform="translate(-10.07 474.95) rotate(-60)"/><ellipse class="cls-21" cx="406.29" cy="246.2" rx="12.21" ry="7.05" transform="matrix(0.5, -0.87, 0.87, 0.5, -10.07, 474.95)"/><path class="cls-22" d="M403.47,239.48c-4,4.1-6,10.43-4.41,14.14s6.05,3.4,10-.7,6-10.43,4.42-14.15S407.46,235.38,403.47,239.48Z"/><path class="cls-23" d="M398.4,248.41a18.84,18.84,0,0,1,2.78-6.53,16,16,0,0,1,4.64-4.81,7.34,7.34,0,0,1,4.9-1.24,3.83,3.83,0,0,1,3.2,2.54,10.67,10.67,0,0,1,.22,5.73,17.43,17.43,0,0,1-2.64,6.41,17,17,0,0,1-4.75,4.85,7.1,7.1,0,0,1-4.84,1.34,4.12,4.12,0,0,1-3.23-2.68A10,10,0,0,1,398.4,248.41Zm6.24-3c-.18,0-.43.18-.55.46s-.06.53.12.57.43-.18.55-.46S404.83,245.42,404.64,245.39Zm8.92-1a9.1,9.1,0,0,0-.29-5.44,38,38,0,0,0-3.1,3c-1.39,1.49-1.29,3.78.16,3.45A17.38,17.38,0,0,0,413.56,244.36Zm-6.92,10.4a15.33,15.33,0,0,0,4.53-4.69,9.74,9.74,0,0,0-2-1.9c-1-.74-2.9,1.19-2.87,2.93A21.16,21.16,0,0,0,406.64,254.76Zm2.3-10.24c0-.25-.2-.33-.42-.19a.89.89,0,0,0-.38.7c0,.25.21.33.43.19A.9.9,0,0,0,408.94,244.52Zm-2,3.29a.75.75,0,0,0-.23.72c.08.19.31.18.52,0a.78.78,0,0,0,.22-.73C407.41,247.58,407.18,247.6,407,247.81Zm0-4.93a.84.84,0,0,0-.49.61c-.05.28.07.46.29.4a.81.81,0,0,0,.48-.61C407.32,243,407.19,242.83,407,242.88Zm-1.16-1.25c.15,1.65,2.1,1.14,3-.81.66-1.45,1.22-2.91,1.67-4.24a6.56,6.56,0,0,0-4.71,1.27A25.15,25.15,0,0,0,405.82,241.63Zm-1,7.43c.17-.26.19-.56.06-.68s-.39,0-.57.26-.19.56-.05.68S404.66,249.32,404.83,249.06ZM402.3,256a45.89,45.89,0,0,0,1.92-4.28c.77-2-.51-3-1.94-1.63a41.32,41.32,0,0,0-3.08,3.33A3.82,3.82,0,0,0,402.3,256Zm-.15-8.32c1.48-.47,2.58-3.08,1.67-3.95a9.31,9.31,0,0,0-2.21-1.6,17.25,17.25,0,0,0-2.65,6.27A15.78,15.78,0,0,0,402.15,247.64Z"/><path class="cls-24" d="M407.85,244.61a3.17,3.17,0,0,1-.93,3c-.84.86-1.79.93-2.12.15a3.17,3.17,0,0,1,.93-3C406.57,243.9,407.52,243.83,407.85,244.61Z"/><path class="cls-25" d="M395,252.75c0-7.24,5.08-16,11.34-19.64,4.87-2.81,9-1.67,10.62,2.38A8.1,8.1,0,0,0,413.6,231c-.78-.56-6.1-3.51-6.1-3.51l-10.38,8.27L391,256.28l5.85,3.36a12.3,12.3,0,0,0,2.92,1C396.86,260,395,257.18,395,252.75Z"/><path class="cls-19" d="M420.22,212.81a1,1,0,0,1-.86.46c-.59-.08-2-2.23-2.74-3.52l-.22-.41c-14,11.92-75.09,50.31-104.79,68.38,3.79.32,6,3.23,6,5.5a8.11,8.11,0,0,1,6.29,1.95,7.27,7.27,0,0,1,2.2,5.38c-.08,1.88.1,2,.64,1.68,1.38-.75,7-4.09,8.94-5.33s22.9-13.77,25.77-15.6,17.77-11,20-12.54,9.3-5.62,9.81-6.39,2.52-6,3.85-8.74a41.39,41.39,0,0,1,7.23-10,18.84,18.84,0,0,1,8.7-5.33,8.7,8.7,0,0,1,6,.46C418.58,225.69,421,218.82,420.22,212.81Z"/><path class="cls-26" d="M420.35,236.85c.47-3.25-.38-6.66-3.3-8.09,1.53-3.07,4-9.94,3.17-15.95a7.24,7.24,0,0,0,.88-1.73,34.3,34.3,0,0,1,0,3.81,7.31,7.31,0,0,1,1.88,4.19C423.42,224.14,423.55,232.62,420.35,236.85Z"/><path class="cls-27" d="M420.35,212.64l-.13.17a.93.93,0,0,1-.13.15c.87,7-2.65,15.22-3.89,17l.13.06.13.07C417.77,228.17,421.35,219.72,420.35,212.64Z"/><path class="cls-26" d="M420.35,236.85a6.49,6.49,0,0,1-1.68,1.59,4.94,4.94,0,0,0,.76-3.4,5.62,5.62,0,0,0-3.1-5c-2.1-1.05-5.2-1.05-9.12.85-8,3.88-14.17,17.42-16.18,26.16-1.89,1.26-21.81,13.7-30.32,18.89s-31.92,18.55-37.07,21.55a11.6,11.6,0,0,0,1.33-7c-1.47-8.85-13-8-21.68,4a37.31,37.31,0,0,0-6,15.05,9.29,9.29,0,0,1-.94,2.9,3.5,3.5,0,0,1-.85.45c.59-2,1.64-7.18,2.32-9.4A52.23,52.23,0,0,1,304.05,292c2.34-3.15,4.19-5,9.45-7.56s8.92-.64,10.4.74a7.27,7.27,0,0,1,2.2,5.38c-.08,1.88.1,2,.64,1.68,1.38-.75,7-4.09,8.94-5.33s22.9-13.77,25.77-15.6,17.77-11,20-12.54,9.3-5.62,9.81-6.39,2.52-6,3.85-8.74a41.39,41.39,0,0,1,7.23-10,18.84,18.84,0,0,1,8.7-5.33,8.7,8.7,0,0,1,6,.46C420,230.19,420.82,233.6,420.35,236.85Z"/><path class="cls-25" d="M285.21,309.23c-.72,1-1.4,2.07-4.24,2.85-2.51.69-6.91.72-10.73.27a54.29,54.29,0,0,1-13.31-3.82A60.72,60.72,0,0,1,240,298.75c-6.2-5.26-7.14-6.77-8.49-10.37a18,18,0,0,1-1-4.47,5.37,5.37,0,0,1-.79-1.28,16.3,16.3,0,0,1-.07-4.08c.68,2.53,2.12,6.55,3.82,8.52,1.51,1.63,5.09,5.19,13,10a81.61,81.61,0,0,0,19.26,8.43,56.61,56.61,0,0,0,12.72,1.58c2.31,0,4.56-.19,6.05-.31a2,2,0,0,1,1.22.31C286.14,307.45,286,308.08,285.21,309.23Z"/><path class="cls-19" d="M300.62,291.84c-3.87,5.15-5.35,15.77-12.8,19.5a15.24,15.24,0,0,1-1.51.69,26.93,26.93,0,0,1-7.63,1.56,10,10,0,0,0,4.86-1.2A7.69,7.69,0,0,0,287,308c.08-.59,0-1.22-.77-1.3a15.23,15.23,0,0,0-1.62.08c-1.49.12-3.74.32-6.05.31a56.56,56.56,0,0,1-12.68-1.57,29.82,29.82,0,0,0,2.13-6.06c.19,0,2.91.3,6.29.45A34.71,34.71,0,0,0,286,298.8C289.69,297.76,297.46,293.71,300.62,291.84Z"/><path class="cls-26" d="M268,299.48a27.42,27.42,0,0,1-2.17,6,81.61,81.61,0,0,1-19.26-8.43c-7.95-4.84-11.53-8.4-13-10l-.08-.1a51.77,51.77,0,0,1-1.08-8.26c3.71,4.85,12.46,11,15.41,12.64C251.43,293.41,263.85,298.84,268,299.48Z"/><path class="cls-19" d="M229.6,278.24a52.64,52.64,0,0,1,.81-9.56,16.92,16.92,0,0,0,0,4.3,25.82,25.82,0,0,0,2,5.73,51.77,51.77,0,0,0,1.08,8.26C231.69,284.83,230.28,280.9,229.6,278.24Z"/><path class="cls-18" d="M287,308a7.69,7.69,0,0,1-3.42,4.37c-2.23,1.25-4.47,1.31-8.83,1.16a42.08,42.08,0,0,1-12.56-2.36,89.4,89.4,0,0,1-14.32-6.35,65.18,65.18,0,0,1-9.3-6.52,27.85,27.85,0,0,1-6.24-6.46,12.88,12.88,0,0,1-2.54-9.23,5.37,5.37,0,0,0,.79,1.28,18,18,0,0,0,1,4.47c1.35,3.6,2.29,5.11,8.49,10.37a60.72,60.72,0,0,0,16.91,9.78,54.29,54.29,0,0,0,13.31,3.82c3.82.45,8.22.42,10.73-.27,2.84-.78,3.52-1.8,4.24-2.85s.93-1.78.58-2.12a2,2,0,0,0-1.22-.31,15.23,15.23,0,0,1,1.62-.08C287,306.8,287,307.43,287,308Z"/><path class="cls-26" d="M296.25,309.8c-.29,1.23-.56,2.34-.77,3.06A45.58,45.58,0,0,1,271,314.54c-12.06-2.59-30.44-11.22-38.16-21.2-2.51-3.25-3.91-6.84-3.08-10.71a12.88,12.88,0,0,0,2.54,9.23,27.85,27.85,0,0,0,6.24,6.46,65.18,65.18,0,0,0,9.3,6.52,89.4,89.4,0,0,0,14.32,6.35,42.08,42.08,0,0,0,12.56,2.36c5.06.18,6.76,0,11.6-1.52A96.54,96.54,0,0,0,296.25,309.8Z"/><path class="cls-19" d="M336,228.52a102.63,102.63,0,0,1,10.59-11.08A158.36,158.36,0,0,1,370.19,201c8.34-4.79,26.36-13,28.19-13.48-11.52-8.59-25.32-17.86-38.91-22.71-22.91,8.71-59.7,30.29-67.93,37.57C294.43,206.5,320.23,222,336,228.52Z"/><path class="cls-28" d="M403.12,185.46a41.46,41.46,0,0,0-4.74,2.06c1.18,1,2.8,2.34,4.35,3.69a11,11,0,0,0,.41-5.68A.25.25,0,0,0,403.12,185.46Z"/><path class="cls-26" d="M389.25,172.61a71,71,0,0,0-22.42-9.16,7.9,7.9,0,0,0-3.78.1,36.24,36.24,0,0,0-3.58,1.26c13.59,4.85,27.39,14.12,38.91,22.71a41.46,41.46,0,0,1,4.74-2.06C402.65,183.27,397.19,177.62,389.25,172.61Z"/><path class="cls-27" d="M417.69,201.75c-.15,1-1.59,2.3-2,3.67s.25,3,1,4.33,2.15,3.44,2.74,3.52a1,1,0,0,0,.86-.46,7.24,7.24,0,0,0,.88-1.73c.11-1.11-1.62-8.68-3.74-11.69A5.52,5.52,0,0,1,417.69,201.75Z"/><path class="cls-19" d="M253.73,239.16c-6,7.46-13.93,17-16.8,31.39-.15-.16-.31-.32-.45-.48a30.39,30.39,0,0,0,.63-8.34c-.31-2.55-.52-6.85,1.59-9.44C242.08,249,249.86,242.81,253.73,239.16Z"/><path class="cls-28" d="M334.85,228c-2.12,2.95-9.33,13.12-12.06,17.35-3.06,4.74-10.07,16.05-12.15,17.48s-5.78,2.07-12.19.84c-19.92-3.84-33.49-15.5-36.39-19.85s-3.62-6.81-3-8.63,4-5.48,5.59-7.25c9.64-10.52,23.71-22.17,27.32-25a5.17,5.17,0,0,1-.47-.56c-15.9,11.15-36,34.89-36.29,35.25s-.9,1-1.52,1.53c-6,7.46-13.93,17-16.8,31.39,9.34,10,23.95,17,33.28,19.12.89-1,10.12-6.77,12.49-8.05s12.49-6.62,17.82-10.22,10.08-6.32,13-10.07,9.38-14.67,14.36-22.07A133.85,133.85,0,0,1,336,228.52Z"/><path class="cls-16" d="M297.07,287.39a13.69,13.69,0,0,1-2,4.52,11.51,11.51,0,0,1-4.79,3.78c-2.55,1.27-10,1.9-13.85,1.37-1.71-.23-3.44-.59-5.13-1-2-1.87,0-4.41,1.7-6.31a11.1,11.1,0,0,1,5.34-2.72c2.75-.53,8.64,0,13.18-.64a17.14,17.14,0,0,1,4.11-.45C296.59,286.1,297.31,286.3,297.07,287.39Z"/><path class="cls-25" d="M271.32,296.07c-9.79-2.32-21.27-7.31-29-13.71a54.61,54.61,0,0,1-8-7.81c1.84.74,2.11-2.1,2.21-4.48.14.16.3.32.45.48,9.34,10,23.95,17,33.28,19.12a11.34,11.34,0,0,1,2.81.09C271.3,291.66,269.31,294.2,271.32,296.07Z"/><path class="cls-16" d="M237.11,261.73a30.39,30.39,0,0,1-.63,8.34c-.1,2.38-.37,5.22-2.21,4.48a14.21,14.21,0,0,1-2.22-3.71,10.62,10.62,0,0,1-.23-6.25c.49-1.25,2-5.36,2.8-7a16.44,16.44,0,0,1,4.08-5.29C236.59,254.88,236.8,259.18,237.11,261.73Z"/><path class="cls-29" d="M235.89,273.82a1.62,1.62,0,0,1-.34.52,49.49,49.49,0,0,0,14.07,11.53,70.35,70.35,0,0,0,20.85,8.42,3,3,0,0,1,.06-.59,69.79,69.79,0,0,1-20.61-8.34A48.76,48.76,0,0,1,235.89,273.82Zm.47-2c0,.27-.07.54-.11.79,5.21,6.24,13.71,11.11,18.46,13.52,6.11,3.1,12.4,5.41,16.43,6.09.11-.19.23-.37.35-.55C263.23,290.4,244.32,281.66,236.36,271.79Z"/><path class="cls-25" d="M292,202.94c-3.61,2.86-17.68,14.51-27.32,25-1.63,1.77-4.92,5.44-5.59,7.25s0,4.19,3,8.63,16.47,16,36.39,19.85c6.41,1.23,10.12.59,12.19-.84s9.09-12.74,12.15-17.48c2.73-4.23,9.94-14.4,12.11-17.33C319.73,221.55,296.42,207.63,292,202.94Zm30.14,41.67c-4.83,7.42-10.92,17.2-12.73,18-1.11.48-6,1.26-12.73-.67s-16.26-6-21.89-9.74S262.55,242,261.29,239s-.63-4.52,1.52-7.26c6.46-8.25,20.34-20.56,28.47-27.14,11.55,8.18,27.77,17.29,41.58,24C330.71,231.36,325.88,238.87,322.15,244.61Z"/><path class="cls-29" d="M291.28,204.64c-8.13,6.58-22,18.89-28.47,27.14-2.15,2.74-2.78,4.26-1.52,7.26s7.88,9.36,13.51,13.14,15.11,7.81,21.89,9.74,11.62,1.15,12.73.67c1.81-.78,7.9-10.56,12.73-18,3.73-5.74,8.56-13.25,10.71-15.94C319.05,221.93,302.83,212.82,291.28,204.64Z"/><path class="cls-27" d="M308.61,263.82l-.32.09-.12.62a16.73,16.73,0,0,1-3.12,7.87c-1.57,2.11-6,5.51-10.21,8.8-2.6,2-5.08,3.94-6.87,5.52l.48,0c1.75-1.53,4.11-3.35,6.57-5.26,4.27-3.31,8.68-6.72,10.26-8.87a17,17,0,0,0,3.19-8C308.51,264.33,308.56,264.08,308.61,263.82Z"/><path class="cls-19" d="M273.7,217.8a3.07,3.07,0,0,0-.49-2.16,9.68,9.68,0,0,0-2.22-2.45c-.48-.26-1.37.26-1.93.82a8.07,8.07,0,0,0-1.74,3.87,8.2,8.2,0,0,0,1.36,5C270.28,221.22,272,219.51,273.7,217.8Z"/><path class="cls-25" d="M396.75,198c-.94-1.24-1.34-1.93-4.74-1.29s-11.16,3.7-15.31,5.63-11.9,6.37-15.9,8.74a115.75,115.75,0,0,0-19.94,16c-6.12,6.47-11.85,15.26-14.81,19.95a109.64,109.64,0,0,0-8.35,16.69,1.39,1.39,0,0,0,1.93,1.73c1.33-.5,18.71-11.41,23.45-14.47s32-20.93,38.11-25.13,21-14.76,22.42-15.85A76.77,76.77,0,0,0,396.75,198ZM321.06,263.2c-1.13.67-1.75.44-1.64-.22.41-2.47,4.61-10.85,5.89-13,.26,2.64.63,7.22.84,10.08C325.06,260.69,322.49,262.36,321.06,263.2Zm8.69-5.24c-.37-3.26-1.33-9.33-1.89-12.22a167.25,167.25,0,0,1,12.44-16.59c5.19-5.92,14.23-12.72,18.09-15.17,1.48,4.89,2.76,12.1,3.8,23C360.48,238.07,340.12,251.66,329.75,258ZM369,232.79a159.76,159.76,0,0,0-5.73-21.62,115.22,115.22,0,0,1,22.47-11.56c.89,1.58,3.16,10.17,5,18.17C389,218.82,372.26,230.47,369,232.79Zm17.77-33.37a34.36,34.36,0,0,1,5.88-1.83c1.38-.3,2.47-.3,3.46,1s3.9,6.42,6.31,11.06c-1.87,1-8.54,5.92-10.81,7.5C390.77,213.09,387.42,201.49,386.72,199.42Z"/><path class="cls-19" d="M363.35,243.74c-1.79-1.5-4.28.93-4.19,3.13a3,3,0,0,0,.19,1l4.68-3A2.44,2.44,0,0,0,363.35,243.74Z"/><path class="cls-18" d="M359.35,247.86a1.53,1.53,0,0,0,.9.88c1.4.58,3.94-1.05,3.9-3.13a2.57,2.57,0,0,0-.12-.7Z"/><path class="cls-23" d="M359,247.59a.6.6,0,0,0,.21,1c.43.14,1.37-.54,2.07-1,4.28-2.81,4.7-3.15,4.72-3.53s-.16-.74-.44-.69Z"/><path class="cls-22" d="M359.19,248.57a.6.6,0,0,1-.21-1l6.56-4.24a.3.3,0,0,1,.31.15.53.53,0,0,0-.57-.33l-6.75,4.19a.76.76,0,0,0,.4,1.33,2.45,2.45,0,0,0,1-.29A1.22,1.22,0,0,1,359.19,248.57Z"/><path class="cls-19" d="M402.45,218.26c-1.79-1.49-4.28.94-4.19,3.14a3,3,0,0,0,.19,1l4.68-2.95A2.54,2.54,0,0,0,402.45,218.26Z"/><path class="cls-18" d="M398.45,222.38a1.53,1.53,0,0,0,.9.88c1.4.59,3.94-1,3.9-3.13a2.64,2.64,0,0,0-.12-.7Z"/><path class="cls-23" d="M398.09,222.12a.6.6,0,0,0,.21,1c.43.13,1.36-.54,2.06-1,4.28-2.82,4.7-3.15,4.72-3.54s-.16-.74-.44-.68Z"/><path class="cls-22" d="M398.3,223.1a.6.6,0,0,1-.21-1l6.55-4.24a.29.29,0,0,1,.31.15.53.53,0,0,0-.57-.34l-6.75,4.19a.77.77,0,0,0,.4,1.34,2.26,2.26,0,0,0,1-.3A1.22,1.22,0,0,1,398.3,223.1Z"/><path class="cls-18" d="M326.74,292.23c1.38-.75,7-4.09,8.94-5.33s22.9-13.77,25.77-15.6,17.77-11,20-12.54c2-1.39,8-4.87,9.5-6.09a13.91,13.91,0,0,0-5.13.88c-1.81.78-12.37,7.59-16.14,10C358,271.16,332,287.21,329.12,289a6.41,6.41,0,0,0-2.72,3.37A.73.73,0,0,0,326.74,292.23Z"/><path class="cls-27" d="M406.91,216.57a45.83,45.83,0,0,0-3.35-6.69l.05.1-.22.17a47.91,47.91,0,0,1,3.23,6.48c.18.78-.72,4-1.76,5.84-1.58,2.81-3.64,6.45-4.54,7.85-.58.92-1.85,3.14-3,5.11-.81,1.41-1.57,2.75-1.94,3.36-.91,1.49-5.83,13.62-6.09,14.5a11.5,11.5,0,0,1-3.05,3.92c-.58.42-5.46,3.51-10.18,6.49-3.76,2.37-7.64,4.82-9.29,5.89,0-.24.05-.45.08-.63a5.93,5.93,0,0,0,.08-1.06,6.82,6.82,0,0,0-.18-1.17,4.71,4.71,0,0,1-.17-1.22c.07-.71.48-5.79.58-8.45.07-2.28.26-11.65,0-14.29a51.42,51.42,0,0,0-1.42-6.64l-.26.17a53.22,53.22,0,0,1,1.38,6.51c.29,2.45.15,11.18,0,14.24-.1,2.78-.54,8-.57,8.43a4.52,4.52,0,0,0,.17,1.31,7.68,7.68,0,0,1,.18,1.11,5.3,5.3,0,0,1-.08,1,8.25,8.25,0,0,0-.1.89c-1.77,1.13-34.69,20.87-38.54,23.14,0-.58,0-1.43,0-2.09,0-.32,0-.6,0-.75,0-.51-1-17.61-1.19-20a50.5,50.5,0,0,0-1.24-8.13l-.26.16a51,51,0,0,1,1.21,8c.19,2.36,1.18,19.44,1.18,20,0,.16,0,.44,0,.77,0,.76.06,1.8,0,2.32l0,.29.25-.14c2.39-1.4,37.94-22.71,38.85-23.34,1.47-1,5.57-3.55,9.54-6.05,4.72-3,9.61-6.07,10.19-6.5a11.71,11.71,0,0,0,3.17-4.08c.25-.87,5.15-12.94,6.05-14.43.38-.61,1.14-1.95,1.95-3.37,1.11-2,2.38-4.18,3-5.09.9-1.4,3-5,4.55-7.86C406.13,220.82,407.12,217.48,406.91,216.57Z"/><path class="cls-25" d="M413.17,194.38a56,56,0,0,0-10.1-9.12,1.94,1.94,0,0,1,.05.2.25.25,0,0,1,0,.07,67.32,67.32,0,0,1,7.89,7.05c.79.95,2.62,3.09,2.31,3.55s-1.11.3-2.29-.37a65.26,65.26,0,0,1-6-4.46,5.74,5.74,0,0,1-1.81-2.36,7.88,7.88,0,0,1-.54,2.27l2,1.76a100.2,100.2,0,0,0,8.19,6.37c1.18.71,1.88.26,2.22-.44S414.91,196.9,413.17,194.38Z"/><path class="cls-30" d="M411,192.58a65.67,65.67,0,0,0-7.89-7,13.31,13.31,0,0,1,.13,3.39,5.74,5.74,0,0,0,1.81,2.36,65.26,65.26,0,0,0,6,4.46c1.18.67,2.06.72,2.29.37S411.82,193.53,411,192.58Z"/><path class="cls-30" d="M291.28,204.64a277.81,277.81,0,0,0-22.39,20.3,21.33,21.33,0,0,1,2,.83c7.2-4.9,18-12.27,26-17.3Q294,206.54,291.28,204.64Z"/><path class="cls-31" d="M304.24,213.08a42.63,42.63,0,0,0-2.33,5.15c-.64,1.44-1.65,5.77,1,8.05.72.62,11.72,6.91,22.66,13.08,2.88-4.42,5.77-8.78,7.3-10.69C323.69,224.19,313.46,218.68,304.24,213.08Z"/><path class="cls-31" d="M358.39,214c-3.86,2.45-12.9,9.25-18.09,15.17-3.45,3.94-7.42,9.3-9.95,12.89,5.06,2.85,9.78,5.47,13.06,7.26,8.89-5.76,17.68-11.62,18.78-12.34C361.15,226.08,359.87,218.87,358.39,214Z"/><path class="cls-30" d="M327.86,245.74c.56,2.89,1.52,9,1.89,12.22,3.71-2.25,8.7-5.44,13.66-8.66-3.28-1.79-8-4.41-13.06-7.26C329.07,243.85,328.16,245.22,327.86,245.74Z"/><path class="cls-30" d="M303.22,226.5c-2.32.54-9.31,2.2-10.61,2.52s-5.6.88-6.17,5.19c3.29,1.91,6.19,3.64,7.87,4.62,5,3,11.18,6.74,12.29,7s2.78-.46,4-.44c2.33,0,4.24.63,8,4.83,1.23-1.89,2.45-3.8,3.61-5.57s2.24-3.46,3.41-5.25C315.41,233.64,305.22,227.82,303.22,226.5Z"/><path class="cls-32" d="M261.29,239c1.26,3,7.88,9.36,13.51,13.14s15.11,7.81,21.89,9.74,11.62,1.15,12.73.67c1.37-.6,5.23-6.4,9.12-12.41-3.74-4.2-5.65-4.8-8-4.83-1.18,0-2.85.66-4,.44s-7.25-4-12.29-7-20.31-12.1-25.42-13.89a86.82,86.82,0,0,0-6.08,6.84C260.66,234.52,260,236,261.29,239Z"/><path class="cls-32" d="M325.31,250c-1.28,2.17-5.48,10.55-5.89,13-.11.66.51.89,1.64.22,1.43-.84,4-2.51,5.09-3.16C325.94,257.18,325.57,252.6,325.31,250Z"/><path class="cls-32" d="M316.91,244.85a25.91,25.91,0,0,1,3.34,2.69l.71-1.1a17,17,0,0,0-4.1-3.24c-1.58-.84-3.48-1.36-4.71-.64-1,.6-.89,2.07-.65,2.84,1.95.22,3.81,1.15,7,4.78.44-.68.89-1.36,1.32-2l-.38-.45a5.07,5.07,0,0,0-2.82-1,7.46,7.46,0,0,1-1.92-.64,6,6,0,0,1-1.65-.89c-.17-.24-.64-1-.17-1.45C313.63,243,316,244.24,316.91,244.85Z"/><path class="cls-33" d="M296.91,208.47c-8,5-18.82,12.4-26,17.3,3.91,1.78,10.24,5.35,15.55,8.44.57-4.31,4.78-4.86,6.17-5.19s8.29-2,10.61-2.52a3.68,3.68,0,0,1-.32-.22c-2.64-2.28-1.63-6.61-1-8.05a42.63,42.63,0,0,1,2.33-5.15C301.38,211.34,296.91,208.47,296.91,208.47Z"/><path class="cls-31" d="M397.58,208.91a9.52,9.52,0,0,0-2.56-2.42,2.63,2.63,0,0,0-.33-4.09,35.16,35.16,0,0,0-6.84-3.42l-1.13.44c.7,2.07,4,13.67,4.84,17.77,1.22-.85,3.7-2.64,6-4.28A5.58,5.58,0,0,0,397.58,208.91Zm-34.36,2.26A159.76,159.76,0,0,1,369,232.79c3.31-2.32,20.09-14,21.72-15-1.82-8-4.09-16.59-5-18.17A115.22,115.22,0,0,0,363.22,211.17Z"/><path class="cls-30" d="M397.57,212.92c2-1.43,3.93-2.75,4.8-3.23-2.41-4.64-5.33-9.73-6.31-11.06a2.58,2.58,0,0,0-2.37-1.19l-1.19.17a33.18,33.18,0,0,0-4.65,1.37,35.16,35.16,0,0,1,6.84,3.42,2.63,2.63,0,0,1,.33,4.09,9.52,9.52,0,0,1,2.56,2.42,5.58,5.58,0,0,1,0,4Z"/><path class="cls-19" d="M329.31,258c.93-3.46,2.11-5.64,3.85-7.16.2-.18,1.26-.13,3,.49s4.57,2,5.44,3a3.44,3.44,0,0,1,1,2.4C339.25,259.33,333,258.39,329.31,258Z"/><path class="cls-29" d="M342.54,256.69c-3.29,2.64-9.53,1.7-13.23,1.26.21-.8.44-1.52.68-2.18a2.89,2.89,0,0,0-1.5-.07,2.24,2.24,0,0,0-1.65,1.41,1.34,1.34,0,0,0,.44,1.48c.4,0,2.17.42,4.08.61a49.82,49.82,0,0,0,7.1.2,7.21,7.21,0,0,0,3.34-1.23A1.28,1.28,0,0,0,342.54,256.69Z"/><ellipse class="cls-5" cx="350.15" cy="189.72" rx="24.5" ry="14.14"/><path class="cls-6" d="M354.24,154.25C346.35,149.69,340,138.61,340,129.5a14.24,14.24,0,0,1,.81-5c-5.58-1-9.59,2.82-9.59,10,0,9.11,6.39,20.19,14.28,24.74,6.24,3.61,11.54,2,13.48-3.28A14.4,14.4,0,0,1,354.24,154.25Z"/><path class="cls-6" d="M345.46,119c-5.7-3.29-10.86-3.6-14.6-1.45l8.79-5.06c3.73-2.16,8.89-1.84,14.59,1.44,11.39,6.59,20.63,22.59,20.63,35.75,0,12-20.63,38.58-20.63,38.58l-8.78,5.06s20.63-26.61,20.63-38.57C366.09,141.62,356.85,125.62,345.46,119Z"/><path class="cls-8" d="M345.46,119c-11.4-6.58-20.64-1.25-20.64,11.92,0,12.37,20.64,62.4,20.64,62.4s20.63-26.61,20.63-38.57C366.09,141.62,356.85,125.62,345.46,119Zm0,40.27c-7.89-4.55-14.28-15.63-14.28-24.74s6.39-12.81,14.29-8.25,14.28,15.63,14.28,24.74S353.35,163.87,345.45,159.31Z"/><path class="cls-5" d="M193.72,318.86l39.91,23.05-9.5,5.48-39.9-23.05a.82.82,0,0,1,0-1.55l6.8-3.93A3,3,0,0,1,193.72,318.86Z"/><path class="cls-5" d="M289.5,366.34l-17.67,10.2c-5.1,2.94-13.36,2.94-18.45,0l-36.39-21c-5.09-2.94-5.09-7.71,0-10.65l17.67-10.2c5.1-2.94,13.36-2.94,18.46,0l36.38,21C294.59,358.63,294.59,363.4,289.5,366.34Z"/><path class="cls-34" d="M223.65,335.57,185,313.25a.92.92,0,0,1-.54-.76v2.89a.92.92,0,0,0,.54.75l38.66,22.32,9.19-5.3-2.49-1.45Z"/><path class="cls-35" d="M194.19,307.94l38.65,22.33-9.19,5.3L185,313.25a.8.8,0,0,1,0-1.51l6.59-3.8A2.89,2.89,0,0,1,194.19,307.94Z"/><path class="cls-36" d="M198.63,317.41l2.31-.53,3.57,2.06-.92,1.33,3.27,1.9-.82,1.19,8,4.61,2.07-.47,7.6,4.39,2.76-1.6-8.1-4.68.95-1.38-3.44-2-2.4.55-2.85-1.65.95-1.38-8-4.61-2.4.55-4.46-2.58-.64-2.42L190.27,309a1.3,1.3,0,0,0-.33-.07l-3.3,1.9a.44.44,0,0,0,.12.19l3,3.36,4.19.37Z"/><path class="cls-32" d="M214,328l2.07-.47,7.6,4.39,1.93-1.11-7.27-4.2v-1l.48-.69-3-1.71-2.4.54-2.85-1.64v-1l.48-.69-7.51-4.34-2.4.55-4.46-2.58-.64-2.42-5.82-1.74-.33-.07-2.77,1.6,2.6,2.89,4.19.37,4.67,2.7,2.31-.53,3.57,2.06v1l-.44.64,2.79,1.62v1l-.34.51Z"/><path class="cls-25" d="M286.75,355.75l-16.24,9.38c-4.68,2.7-12.27,2.7-16.95,0l-33.43-19.3c-2.34-1.36-3.51-3.13-3.51-4.9v8.59c0,1.77,1.17,3.55,3.51,4.9l33.43,19.3c4.68,2.7,12.27,2.7,16.95,0l16.24-9.38c2.34-1.35,3.51-3.12,3.51-4.89v-8.59C290.26,352.63,289.09,354.4,286.75,355.75Z"/><path class="cls-30" d="M286.75,355.75l-16.24,9.38c-4.68,2.7-12.27,2.7-16.95,0l-33.43-19.3c-4.68-2.71-4.68-7.09,0-9.79l16.24-9.38c4.68-2.7,12.27-2.7,16.95,0L286.75,346C291.43,348.67,291.43,353.05,286.75,355.75Z"/><path class="cls-37" d="M229.78,340.63a8.33,8.33,0,0,1-7.53,0,2.65,2.65,0,0,1-1.56-2.17v1.93a2.65,2.65,0,0,0,1.56,2.17,8.33,8.33,0,0,0,7.53,0,2.65,2.65,0,0,0,1.56-2.17v-1.93A2.65,2.65,0,0,1,229.78,340.63Z"/><ellipse class="cls-23" cx="226.01" cy="338.46" rx="5.33" ry="3.08"/><path class="cls-32" d="M245.62,335.13l-10.83,6.25c-4.25,2.45-4.25,6.43,0,8.89l1.54.89a3.92,3.92,0,0,0,3.53,0l22.7-13.1a1.08,1.08,0,0,0,0-2l-1.54-.89A17,17,0,0,0,245.62,335.13Z"/><path class="cls-32" d="M255.51,362.23a17,17,0,0,0,15.41,0L281.74,356c4.26-2.46,4.26-6.44,0-8.9l-1.54-.89a3.92,3.92,0,0,0-3.53,0L254,359.31a1.08,1.08,0,0,0,0,2Z"/><path class="cls-32" d="M251.91,358.11,274.6,345a1.08,1.08,0,0,0,0-2l-6.44-3.72a3.92,3.92,0,0,0-3.53,0l-22.7,13.1a1.08,1.08,0,0,0,0,2l6.44,3.72A3.94,3.94,0,0,0,251.91,358.11Z"/><path class="cls-23" d="M264.09,350.21l-2.41,1.4a4.88,4.88,0,0,1-4.42,0l-1.62-.93a.61.61,0,0,1,0-1.16l4.84-2.78a2.2,2.2,0,0,1,2,0l1.62.93A1.35,1.35,0,0,1,264.09,350.21Zm-7.83-.34a.23.23,0,0,0,0,.44l1.62.94a3.5,3.5,0,0,0,3.18,0l2.42-1.39a1,1,0,0,0,0-1.84l-1.62-.94a.87.87,0,0,0-.77,0Z"/><path class="cls-23" d="M261.11,348.75a2.18,2.18,0,0,0-2,0,.59.59,0,0,0,0,1.13,2.09,2.09,0,0,0,1.32.21l.54.32a.66.66,0,0,0,.58,0l.43-.25c.16-.09.16-.24,0-.34l-.54-.31C261.58,349.25,261.47,349,261.11,348.75Z"/><path class="cls-23" d="M256.6,349.68a.71.71,0,0,1-.62,0c-1.84-1.06-4.34-1.35-5.57-.64s-.74,2.16,1.1,3.22a.19.19,0,0,1,0,.36.68.68,0,0,1-.62,0c-2.18-1.26-2.67-3-1.1-3.93s4.63-.62,6.81.64A.19.19,0,0,1,256.6,349.68Z"/><path class="cls-23" d="M276.38,355.79l-3.56,2-.28-.08a5.34,5.34,0,0,0-3.94.35l-.31.18-.69-.41c-.74-.43-.74-1.12,0-1.54l4.44-2.56a3,3,0,0,1,2.17-.21l1.66.47a1.39,1.39,0,0,1,1,.8C277,355.19,276.81,355.54,276.38,355.79Zm-3.73,1.44,3.11-1.79c.24-.14.34-.33.29-.52a.74.74,0,0,0-.56-.43l-1.66-.47a1.63,1.63,0,0,0-1.18.11l-4.44,2.56a.45.45,0,0,0,0,.84l.1.05A6.92,6.92,0,0,1,272.65,357.23Z"/><path class="cls-23" d="M272.05,358.3a.77.77,0,0,1,0,1.46,2.78,2.78,0,0,1-2.51,0c-.7-.41-.7-1.06,0-1.46A2.8,2.8,0,0,1,272.05,358.3Z"/><path class="cls-23" d="M268.32,356.63a.64.64,0,0,1-.4.07c-.24,0-.39-.16-.34-.3l1.38-3.86a.46.46,0,0,1,.4-.2l1.85-.07c.24,0,.45.09.46.23s-.16.26-.4.27l-1.52.06-1.31,3.68A.28.28,0,0,1,268.32,356.63Z"/><path class="cls-23" d="M251.54,343l-2.42,1.39a4.89,4.89,0,0,1-4.41,0l-1.62-.94a.61.61,0,0,1,0-1.15l4.83-2.79a2.22,2.22,0,0,1,2,0l1.61.94A1.35,1.35,0,0,1,251.54,343Zm-7.83-.35c-.21.12-.21.32,0,.45l1.61.93a3.52,3.52,0,0,0,3.19,0l2.41-1.39a1,1,0,0,0,0-1.84l-1.62-.93a.81.81,0,0,0-.77,0Z"/><path class="cls-23" d="M248.67,339.4l-.62.35c-1.84-1.06-4.34-1.35-5.57-.64s-.74,2.16,1.1,3.22l-.62.36c-2.18-1.26-2.67-3-1.1-3.93S246.49,338.14,248.67,339.4Z"/><path class="cls-23" d="M248.61,341.52a2.18,2.18,0,0,0-2,0,.6.6,0,0,0,0,1.14,2.23,2.23,0,0,0,1.32.21l.54.31a.66.66,0,0,0,.58,0l.43-.25a.17.17,0,0,0,0-.33l-.55-.32C249.09,342,249,341.73,248.61,341.52Z"/><ellipse class="cls-5" cx="459.93" cy="298.7" rx="14.49" ry="8.37"/><path class="cls-38" d="M457.15,298.38V276.26h5.58v22.12a1.34,1.34,0,0,1-.82,1.18,4.34,4.34,0,0,1-3.94,0A1.33,1.33,0,0,1,457.15,298.38Z"/><path class="cls-39" d="M439.79,273.76c.42-1.4-.44.18,16.91-27.45a3.84,3.84,0,0,1,.74-.85,3.75,3.75,0,0,1,5.62.87C481.21,275.58,478.68,271.5,479,272c2.8,4.65.18,9.19-4.51,12C460.77,292.26,436.29,285.31,439.79,273.76Z"/><ellipse class="cls-5" cx="436.02" cy="311.55" rx="10.99" ry="6.35"/><path class="cls-40" d="M433.91,311.31V294.53h4.23v16.78a1,1,0,0,1-.62.9,3.35,3.35,0,0,1-3,0A1,1,0,0,1,433.91,311.31Z"/><path class="cls-41" d="M420.75,292.64c.32-1.07-.34.13,12.82-20.82a3.05,3.05,0,0,1,.57-.65,2.84,2.84,0,0,1,4.26.66l12.07,19.47c2.12,3.53.13,7-3.43,9.12C436.66,306.67,418.09,301.4,420.75,292.64Z"/><path class="cls-5" d="M378.93,368c-2,1.92-7.42.47-9.64,4.79-2.64,5.14,13.22,10.61,24,2.22,12.9-10-5.56-15.44-10.15-12.38C379.68,364.94,381,365.93,378.93,368Z"/><path class="cls-42" d="M375.63,279.42c-.22,1.07-.45,2.44-.52,3a1.82,1.82,0,0,0,.18,1.41c.3.38.75.67.57,1.09s-.53.94-.47,1.17a.62.62,0,0,0,.6.54,2.82,2.82,0,0,1,.2.95,2.06,2.06,0,0,0,.22.85,5.25,5.25,0,0,1,.49.84c0,.16-.09.76.16,1.05a.7.7,0,0,0,1,.19,3.8,3.8,0,0,0,1-3.31c.61.92,1.21-.62,1.18-1.34-.08-1.69-1.35-2.49-1.54-1.62,0,0-1.32-2.27-2.5-4Z"/><path class="cls-42" d="M386.44,289.64c-.71-.7-.43-2.46-.43-2.84-2.91-1.09-5.64-2.08-5.64-2.08l-.36.19a3.05,3.05,0,0,1,.19.92c0,.72-.57,2.26-1.18,1.34a3.8,3.8,0,0,1-1,3.31.75.75,0,0,1-.44.12c.52.07,1.23,0,1.83.1,1.51.21,1.81,2.31,1.72,3.13C385.84,291.37,386.09,289.83,386.44,289.64Z"/><path class="cls-43" d="M380.21,291a7.61,7.61,0,0,1-.36-2.26,4.39,4.39,0,0,1,1.58-2.79,9.35,9.35,0,0,1,1-.53l-2-.74-.36.19a3.05,3.05,0,0,1,.19.92c0,.72-.57,2.26-1.18,1.34a3.8,3.8,0,0,1-1,3.31.75.75,0,0,1-.44.12c.52.07,1.23,0,1.83.1A1.58,1.58,0,0,1,380.21,291Z"/><path class="cls-43" d="M386,286.8l-4.6-1.7a3,3,0,0,0-.49.39c.76,1,1.57,4.21,1.73,5.55l.71,1.46a33.33,33.33,0,0,0,3.76-3.06A5.23,5.23,0,0,1,386,286.8Z"/><path class="cls-6" d="M388.36,282.41a6.12,6.12,0,0,1-1.4,3.45,6.63,6.63,0,0,0-1.42,2.51c-.35-.15-1.1.25-1.39.21-.57-.09-.57-.46-1-1.17a4.27,4.27,0,0,1,.21.84.82.82,0,0,1-.54.11c-.91-1-2-2.68-2.64-2.85-.21-1.47-1.33-2.11-1.51-1.3,0,.74.14,1.13-.26,1.22s-.67,0-.74-.5a4.3,4.3,0,0,0-.55-2.14c-.53-.67-1.05-.49-1.37-2.44l-.27-.08a1.74,1.74,0,0,1-1.28-2.06c.39-1,2.86-1.51,4.17-2s3.81-1.2,5.2-.47,2.58,1.2,3.38,2.87S388.48,280.82,388.36,282.41Z"/><path class="cls-44" d="M383.05,278.14c-1.92-.15-6.25.49-7.68,2.09a3.22,3.22,0,0,0,.37.12c0,.1,0,.19.05.28,1-1.41,5.45-2.29,7.21-2.28.12,0,.3,0,.31-.09S383.12,278.15,383.05,278.14Z"/><path class="cls-44" d="M377.07,282.74a4.27,4.27,0,0,1,.59,2.19c.07.47.34.58.74.5s.31-.48.26-1.22c.18-.81,1.3-.17,1.51,1.3.63.17,1.73,1.81,2.64,2.85a.82.82,0,0,0,.54-.11,4.27,4.27,0,0,0-.21-.84c.44.71.44,1.08,1,1.17.29,0,1-.36,1.39-.21a6.63,6.63,0,0,1,1.42-2.51,6.12,6.12,0,0,0,1.4-3.45,3.18,3.18,0,0,0-.21-1.51C385.25,284.32,380.18,284,377.07,282.74Z"/><path class="cls-45" d="M379.46,294.25a13.56,13.56,0,0,1,2-3,6.22,6.22,0,0,1,5.91-2,5,5,0,0,0,.69.88c.4.35,1.1.38,1.13.78a9.46,9.46,0,0,1-2.72.42C383.32,291.65,381.8,292.78,379.46,294.25Z"/><path class="cls-8" d="M377,295.6c.28-.23,2-1,2.46-1.35,2.34-1.47,3.86-2.6,7-2.9a9.8,9.8,0,0,0,2.7-.41,22.65,22.65,0,0,0,2.59.84,7.72,7.72,0,0,1,2.29.79,6.78,6.78,0,0,1,2,4.27c.46,4.76-1.65,7.71-3.11,10.19-.32.68-1.53,2.45-1.36,4.06s-.07,4.36,0,5.34,1.21,3.1,1.74,4.76,1,4.59.32,5.39-3.57,2-5.46,2.57-4.89-.33-6.55-1.56a29.1,29.1,0,0,1-4.32-4.24,5.06,5.06,0,0,1-3.22,1.51c-.32-.41.12-3.61.31-4.61s.54-3.42.53-3.91-.08-3.61-.08-4.63-.18-3.66-.05-4.75Z"/><path class="cls-6" d="M389.42,291l-.23-.08a8.37,8.37,0,0,1-2.55.39c-3.24.27-4.86,1.46-7.18,2.92a17.09,17.09,0,0,1,7.12-2.49A6.87,6.87,0,0,0,389.42,291Z"/><path class="cls-6" d="M380.21,303.46c-.58.81-4.57,2.91-5.45,3.5-.13,1.09.05,3.73.05,4.75s.06,4.14.08,4.63-.34,2.91-.53,3.91-.63,4.2-.31,4.61a5.06,5.06,0,0,0,3.22-1.51,29.1,29.1,0,0,0,4.32,4.24,8.83,8.83,0,0,0,2.12,1.12c.28-3.66-4.46-13.47-4.69-17.22A21.76,21.76,0,0,1,380.21,303.46Z"/><path class="cls-29" d="M384.9,355.94c-.53-1.85-1.93-5.17-1.93-5.93a14.34,14.34,0,0,0-.56-2.08c0-.45.37-1.06.07-1.89s1.55-8.91,1.63-10.24-.08-2.42.64-3.36c.53-.7,2.26-1.57,3.35-3.28-1.89.56-4.86-.34-6.51-1.57a29.1,29.1,0,0,1-4.32-4.24,4.29,4.29,0,0,1-2.72,1.4c-.21,1.21-.5,3-.8,4.28a36.59,36.59,0,0,0-.64,9.53c.38,2.95,1.1,8.09,1.32,9.52s1.93,5.71,2.34,7,2.61,8.32,2.76,9-.53,2-.34,2.75,1.06,2,.61,2.5a7,7,0,0,1-1.25,1,.41.41,0,0,0-.16.53c.82,1.62,2.52,3.21,4.17,3.39a11.72,11.72,0,0,0,3.91.05,1.08,1.08,0,0,0,.79-1.21c-.4-2.62-1-7.38-1.08-8.33A78.63,78.63,0,0,0,384.9,355.94Z"/><path class="cls-25" d="M384.75,332.44c.53-.7,2.26-1.57,3.35-3.28-1.89.56-4.86-.34-6.51-1.57a29.39,29.39,0,0,1-4.27-4.18c.69,5.48.52,15.54.06,17.3-.53,2.05-1.13,9,.53,11.72s2.95,9.52,3.63,11.49a13.61,13.61,0,0,1-.06,10.08,3.67,3.67,0,0,0,1.08.31,11.72,11.72,0,0,0,3.91.05,1.08,1.08,0,0,0,.79-1.21c-.4-2.63-1-7.38-1.08-8.33a78.63,78.63,0,0,0-1.28-8.88c-.53-1.85-1.93-5.17-1.93-5.93a14.34,14.34,0,0,0-.56-2.08c0-.45.37-1.06.07-1.89s1.55-8.91,1.63-10.24S384,333.38,384.75,332.44Z"/><path class="cls-29" d="M396.61,351.94c-.11-1.85-1.05-3.78-1.09-5.14a24.25,24.25,0,0,0-1.17-4.91,16.7,16.7,0,0,1-.31-3.67,72.47,72.47,0,0,0-.56-8.09,9.71,9.71,0,0,1,0-3.4,18.79,18.79,0,0,1-5.32,2.42c-1.13,1.72-2.86,2.59-3.39,3.29a3.66,3.66,0,0,0-.61,2.25c.63,2.54,1.57,5.73,1.8,6.43.33,1,1.57,4.76,2,6.47s1.64,6.5,1.71,7.48.29,5.69.52,6.47.42.95-.15,1.32a3.53,3.53,0,0,0-1.25,3c-.06,1.38.78,1.47,1.55,2.75a4.7,4.7,0,0,0,3.19,1.8,2,2,0,0,0,2.06-.95,32,32,0,0,1,.41-3.72c.15-.84.58-2.55.8-4.4A83.73,83.73,0,0,0,396.61,351.94Z"/><path class="cls-25" d="M396.61,351.94c-.11-1.85-1.05-3.78-1.09-5.14a24.25,24.25,0,0,0-1.17-4.91,16.7,16.7,0,0,1-.31-3.67,72.47,72.47,0,0,0-.56-8.09,9.71,9.71,0,0,1,0-3.4,18.79,18.79,0,0,1-5.32,2.42c-1.13,1.72-2.86,2.59-3.39,3.29a3.66,3.66,0,0,0-.61,2.25c.08.34.17.69.27,1a27.41,27.41,0,0,1,2.72,5.49c.65,2.47,3.63,8.21,4.53,10s1.46,6.76.25,11.39c-.81,3.11-1.64,4.29-2.36,5a6.24,6.24,0,0,1,.79,1,4.7,4.7,0,0,0,3.19,1.8,2,2,0,0,0,2.06-.95,32,32,0,0,1,.41-3.72c.15-.84.58-2.55.8-4.4A83.73,83.73,0,0,0,396.61,351.94Z"/><path class="cls-8" d="M382.56,374.31c-1.65-.18-3.35-1.77-4.17-3.39a.43.43,0,0,1,0-.19,18.21,18.21,0,0,1-3.84.59,2.66,2.66,0,0,0-2.19.86c0,1,.22,1.32,1.41,1.81,2.52,1.05,9.29.93,11.79.51A19.15,19.15,0,0,1,382.56,374.31Z"/><path class="cls-6" d="M382.56,374.31a5.19,5.19,0,0,1-3-1.78c-1.33,1.22-4.09,1.33-6.4,1.18.17.09.37.18.61.28,2.52,1.05,9.29.93,11.79.51A19.15,19.15,0,0,1,382.56,374.31Z"/><path class="cls-46" d="M386.66,374.3c-1.08.5-9.92.95-12.93-.31-1.19-.49-1.44-.78-1.41-1.81a2.5,2.5,0,0,0-.36,1.51c.11,2.52,6.11,2.5,8.19,2.47,3.65-.05,5.11.08,6-.49A1.1,1.1,0,0,0,386.66,374.3Z"/><path class="cls-47" d="M376,374.53a2.49,2.49,0,0,1,.46,1.5,32.57,32.57,0,0,0,3.7.13c3.65-.05,5.11.08,6-.49a1.1,1.1,0,0,0,.48-1.37C385.78,374.7,379.82,375.07,376,374.53Z"/><path class="cls-8" d="M388.79,365.83a5.74,5.74,0,0,1,.19-1.31,4.15,4.15,0,0,0-2.8.24c0,.31.08.82.15,1.48a9.13,9.13,0,0,0,3.6,1.76C389.3,367.23,388.74,367,388.79,365.83Z"/><path class="cls-6" d="M386.33,366.24a9.13,9.13,0,0,0,3.6,1.76c-.49-.59-.92-.89-1.08-1.5a6.34,6.34,0,0,1-2.6-1C386.27,365.72,386.3,366,386.33,366.24Z"/><path class="cls-46" d="M395.57,369.47a2,2,0,0,1-2,.91,4.7,4.7,0,0,1-3.19-1.8,5.2,5.2,0,0,0-.41-.58,9.13,9.13,0,0,1-3.6-1.76c.06.47.13,1,.2,1.63a4.42,4.42,0,0,0,1.24.64,5.36,5.36,0,0,1,2.38,1.11,4,4,0,0,0,2.89,1.44c1.23,0,2.14-.11,2.61-.79A1.43,1.43,0,0,0,395.57,369.47Z"/><path class="cls-47" d="M392.76,371.05H393c1.23,0,2.14-.11,2.61-.79a1.43,1.43,0,0,0-.08-.8,2,2,0,0,1-2,.91c-.22,0-.53-.11-.88-.21A1.75,1.75,0,0,1,392.76,371.05Z"/><path class="cls-42" d="M375,296.38a8.1,8.1,0,0,0-2.54-.15,12.91,12.91,0,0,0-2.74.86c-.48.23-1.61,1.26-1.57,1.44.25.21.77.08,1-.12a6,6,0,0,1,1.59-.81c.35-.05,1.42-.11,1.42-.11a2.72,2.72,0,0,0-.63,1.47,2,2,0,0,0,1.4,1.11c.21.06.26-.48.09-.66.19-.09,1.49-.37,1.49-.37l1.24-2.38A2,2,0,0,0,375,296.38Z"/><path class="cls-43" d="M373.87,297.35c-.13.29-1,.67-1.23.83s-.7.68-.51,1,.59.23.87.1,1.41-.66,1.41-.66Z"/><path class="cls-42" d="M373.92,297.36a4.2,4.2,0,0,1-1.28,1c-.21.08-.65.48-.41.81s.63.15.88,0l1.31-.63Z"/><path class="cls-43" d="M372.64,298.36l-.1.05c.2-.37.32-.72.5-1a8.26,8.26,0,0,1,.88-.07A4.2,4.2,0,0,1,372.64,298.36Z"/><path class="cls-43" d="M366.38,305.74c.5,0,1.33-.87,1.59-1.12-1.68-2.89-2.09-3.55-2.57-3.5s-1.6,2-1.45,2.82S366,305.74,366.38,305.74Z"/><path class="cls-42" d="M368.85,307.75a22.36,22.36,0,0,0-2.56-2.43c-.41-.36-1.19-1.53-1.47-1.63s-1.17-.25-1.3.19a3.88,3.88,0,0,0,.45,2.52,31.42,31.42,0,0,0,1.39,3.37c.54.92,1.52,2.08,2,2.86C367.49,310.57,368,308.51,368.85,307.75Z"/><path class="cls-43" d="M366.29,305.32a22.36,22.36,0,0,1,2.56,2.43,2.48,2.48,0,0,0-.4.48,27.14,27.14,0,0,0-2.15-2.7,7.9,7.9,0,0,1-.49-.74C366,305,366.16,305.2,366.29,305.32Z"/><path class="cls-42" d="M369.78,306.28a16.22,16.22,0,0,0-2.57,2.79,3.94,3.94,0,0,0-.17,3c.23.5.52,1.26,1.48,1.18s3.8-1.86,5-3.32A31.7,31.7,0,0,0,369.78,306.28Z"/><path class="cls-43" d="M369.15,303c.29-.07.6-.22.55-.46s-.32-.38-.95-.1A5.06,5.06,0,0,0,369.15,303Z"/><path class="cls-43" d="M367.73,301.26c.26-.06.9-.41,1-.83s0-.67-.42-.53a3.5,3.5,0,0,0-.93.62Z"/><path class="cls-43" d="M368.2,302a2.36,2.36,0,0,0,1-.94c.18-.37-.11-.72-.51-.51a3.75,3.75,0,0,0-.92.8Z"/><path class="cls-43" d="M368.41,302.71a2.33,2.33,0,0,0,1.12-.81c.23-.35,0-.74-.44-.58a3.63,3.63,0,0,0-1,.7Z"/><path class="cls-6" d="M363.84,298.33l.24-.16,0,0,1.7-.7a.52.52,0,0,1,.65.24l3.35,6.49a.51.51,0,0,1,0,.45l.06.07-.25.15-.07,0-1.91.85a.51.51,0,0,1-.67-.24L363.65,299A.51.51,0,0,1,363.84,298.33Z"/><path class="cls-48" d="M366.7,297.6l3.36,6.49a.51.51,0,0,1-.25.7l-1.92.86a.52.52,0,0,1-.67-.24l-3.32-6.57a.51.51,0,0,1,.26-.71l1.89-.77A.51.51,0,0,1,366.7,297.6Z"/><polygon class="cls-18" points="366.54 297.64 369.95 304.25 367.39 305.38 364 298.68 366.54 297.64"/><path class="cls-42" d="M365.23,304.28a2.6,2.6,0,0,0,.17-2.2,9.32,9.32,0,0,0-1-1.59c-.25-.93-.7-2-1.15-2s-.51.3-.31.91a14.14,14.14,0,0,1,.59,2.69c0,.6-.1,1.66,0,2A.94.94,0,0,0,365.23,304.28Z"/><path class="cls-8" d="M374.65,309.27c.15.09-.87.67-1.17.77-1.45-.77-3.5-2.54-4-3.85a4.77,4.77,0,0,1,.57-1A21.06,21.06,0,0,0,374.65,309.27Z"/><path class="cls-8" d="M375.64,296.59c.79-.7,2.1-1.88,4.07-.9s3.31,4.52,2.08,6.84c-.72,1.36-3,2.92-3.85,3.46s-2.76,3.55-3.89,3.65c-.86-.6-4-2.76-4.12-4.25a19.75,19.75,0,0,1,2.69-3.92C373.25,300.51,373.58,298.43,375.64,296.59Z"/><path class="cls-5" d="M346.24,350.58l-18.46,10.65a5,5,0,0,1-4.54,0l-2.55-1.48c-1.26-.72-1.26-1.89,0-2.62l18.45-10.65a5,5,0,0,1,4.54,0l2.56,1.47A1.39,1.39,0,0,1,346.24,350.58Z"/><path class="cls-49" d="M324.87,347.88c0-6.51,4.57-14.42,10.2-17.68,2.82-1.62,5.37-1.78,7.22-.71l-3.22-1.86c-1.85-1.07-4.4-.91-7.22.71-5.64,3.26-10.21,11.17-10.21,17.68,0,3.26,1.15,5.54,3,6.61l3.23,1.86C326,353.42,324.87,351.14,324.87,347.88Z"/><path class="cls-50" d="M345.28,336.1c0,6.51-4.57,14.42-10.21,17.68s-10.2.61-10.2-5.9,4.57-14.42,10.2-17.68S345.28,329.59,345.28,336.1Z"/><path class="cls-16" d="M335.58,346.62a.64.64,0,0,1-.84-.05l-3.49-4.23a1.62,1.62,0,0,1,.29-1.77c.47-.61,1.09-.81,1.39-.45l2.61,3.17L340,332.16c.28-.71.89-1.25,1.37-1.2s.63.67.34,1.38l-5.24,13.22a2.21,2.21,0,0,1-.84,1Z"/><path class="cls-16" d="M340.85,336.53l-1,2.52v4.21a3.39,3.39,0,0,1-1.54,2.66l-6.49,3.75c-.85.49-1.54.09-1.54-.89v-7.5a3.41,3.41,0,0,1,1.54-2.67l6.18-3.56.58-1.47a1.74,1.74,0,0,0-.27.14l-6.49,3.74a5.62,5.62,0,0,0-2.54,4.39v7.5c0,1.62,1.14,2.28,2.54,1.47l6.49-3.74a5.62,5.62,0,0,0,2.54-4.4Z"/></g></g></svg>